<svg xmlns="http://www.w3.org/2000/svg" width="376" height="371" fill="none"><path fill="#EEE" d="M327.086 313c-9.613 9.74-18.215 15.465-24.801 19.786-64.228 42.15-137.648 30.002-160.347 25.849-36.622-6.699-67.537-11.425-94.099-35.012-60.356-53.594-57.42-165.395-11.3-234.653 5.468-8.211 51.516-75.3 125.096-84.754 1.8-.232 3.142-.363 4.318-.485 11.383-1.185 81.918-7.436 139.432 39.923 8.232 6.78 21.481 19.007 33.768 37.657C384.077 149.504 384.22 255.12 327.087 313h-.001Z"/><path fill="#BDD0FB" d="M371.529 2.062c.386-1.644-1.926-2.736-3.343-1.588-14.382 11.657-48.934 46.561-40.323 107.558 10.805 76.531-7.666 104.457-30.658 121.49 0 0 31.575-8.011 51.441-36.347 48.775-69.573 16.016-161.896 22.883-191.115v.002Z"/><path fill="#fff" d="M360.584 25.966c-1.799 8.52-3.402 17.066-4.641 25.65a365.2 365.2 0 0 0-2.957 25.805c-.64 8.622-1.09 17.255-1.116 25.891-.07 8.635.289 17.263.685 25.925.339 8.658.739 17.379.104 26.161-.624 8.764-2.47 17.606-6.133 25.894-.916 2.066-1.878 4.126-2.972 6.116-1.051 2.008-2.206 3.976-3.401 5.926a93.82 93.82 0 0 1-8.157 11.217c-6.077 7.122-13.406 13.441-21.48 18.789-.849.564-2.066.424-2.719-.309-.641-.72-.497-1.747.312-2.316l.006-.004c1.92-1.348 3.821-2.714 5.646-4.149.925-.704 1.813-1.443 2.715-2.167.871-.752 1.775-1.476 2.616-2.251a92.968 92.968 0 0 0 9.486-9.745c5.797-6.85 10.437-14.481 13.951-22.394a75.61 75.61 0 0 0 4.066-12.204c.993-4.154 1.616-8.379 1.962-12.639.691-8.526.379-17.16.112-25.819-.254-8.662-.442-17.368-.213-26.067.101-4.35.292-8.697.573-13.038.126-2.172.301-4.34.472-6.51.194-2.168.402-4.334.631-6.5a364.821 364.821 0 0 1 3.726-25.867c1.6-8.576 3.465-17.113 5.707-25.573.064-.242.343-.393.623-.337.273.053.446.284.396.518v-.003Z" style="mix-blend-mode:soft-light"/><path fill="#91B3FA" d="M326.619 212.359c1.65 2.65 5.472 2.757 7.299.224 10.079-13.972 35.002-56.053 19.497-113.463-13.094-48.48-15.584-76.011-15.849-88.589-.056-2.66-3.476-3.701-5.011-1.529-16.937 23.972-65.709 107.3-5.935 203.357h-.001Z"/><path fill="#fff" d="M330.762 211.506a1.22 1.22 0 0 0 1.648-.91c.14-.751 13.797-75.802-1.363-144.033a1.223 1.223 0 0 0-1.456-.926 1.218 1.218 0 0 0-.926 1.455c15.05 67.734 1.486 142.312 1.346 143.057a1.219 1.219 0 0 0 .748 1.357h.003Z" style="mix-blend-mode:soft-light"/><g fill="#6695FF" opacity=".3"><path d="M78.47 76.578a1.317 1.317 0 0 1-1.14-1.345c.046-1.486.155-2.994.327-4.48a1.318 1.318 0 0 1 1.461-1.156c.01 0 .017.002.025.004.71.095 1.215.742 1.133 1.456a50.266 50.266 0 0 0-.311 4.255 1.316 1.316 0 0 1-1.496 1.265Zm1.622-11.359a1.318 1.318 0 0 1-1.102-1.634 53.36 53.36 0 0 1 1.304-4.295 1.318 1.318 0 0 1 2.489.871 50.398 50.398 0 0 0-1.24 4.083 1.317 1.317 0 0 1-1.45.976v-.001Zm4.085-10.72a1.318 1.318 0 0 1-.994-1.91 52.647 52.647 0 0 1 2.231-3.9 1.316 1.316 0 1 1 2.229 1.404 49.5 49.5 0 0 0-2.118 3.703c-.264.51-.811.775-1.348.702v.001Zm6.381-9.54a1.317 1.317 0 0 1-.828-2.156 53.41 53.41 0 0 1 3.047-3.303 1.317 1.317 0 1 1 1.86 1.867 49.713 49.713 0 0 0-2.895 3.136 1.318 1.318 0 0 1-1.184.455Zm8.35-7.877a1.317 1.317 0 0 1-.615-2.358 53.213 53.213 0 0 1 3.701-2.544 1.317 1.317 0 1 1 1.401 2.232 50.815 50.815 0 0 0-3.518 2.418 1.313 1.313 0 0 1-.97.252Zm9.885-5.835a1.318 1.318 0 0 1-.366-2.508 53.28 53.28 0 0 1 4.174-1.663 1.318 1.318 0 1 1 .87 2.485c-1.338.47-2.671 1-3.964 1.58-.233.105-.48.135-.715.104l.001.002Zm48.272 3.361a1.303 1.303 0 0 1-.524-.19 49.41 49.41 0 0 0-3.708-2.112 1.318 1.318 0 0 1 1.204-2.344c1.33.683 2.644 1.431 3.907 2.224a1.317 1.317 0 0 1-.879 2.421v.001Zm-37.346-6.859a1.316 1.316 0 0 1-.083-2.597 52.615 52.615 0 0 1 4.438-.692 1.32 1.32 0 0 1 1.457 1.162 1.318 1.318 0 0 1-1.163 1.456 50.111 50.111 0 0 0-4.215.657c-.147.029-.294.033-.436.014h.002Zm27 1.89a1.384 1.384 0 0 1-.258-.062 50.731 50.731 0 0 0-4.088-1.231 1.317 1.317 0 1 1 .652-2.552c1.448.37 2.895.805 4.303 1.295a1.317 1.317 0 0 1-.609 2.55Zm-15.567-2.861a1.318 1.318 0 0 1 .215-2.621c1.49.042 2.998.148 4.481.319l.028.002a1.318 1.318 0 0 1-.326 2.615 50.258 50.258 0 0 0-4.257-.302 1.226 1.226 0 0 1-.141-.012v-.001ZM164.423 40.218a1.311 1.311 0 0 1-.712-.334 49.34 49.34 0 0 0-1.542-1.356 1.317 1.317 0 1 1 1.7-2.011c.549.463 1.095.943 1.622 1.426a1.318 1.318 0 0 1-1.069 2.277l.001-.002Z"/></g><g fill="#6695FF" opacity=".3"><path d="M181.08 76.76a1.317 1.317 0 0 1-1.139-1.273 48.652 48.652 0 0 0-.093-2.05 1.316 1.316 0 0 1 1.228-1.4 1.315 1.315 0 0 1 1.401 1.228c.047.717.08 1.444.097 2.159a1.317 1.317 0 0 1-1.495 1.336h.001ZM122.946 128.894a51.453 51.453 0 0 1-1.805-.275 1.318 1.318 0 1 1 .44-2.597c1.39.235 2.787.415 4.168.533a1.317 1.317 0 1 1-.225 2.624 53.02 53.02 0 0 1-2.578-.285Zm-8.569-1.905a1.242 1.242 0 0 1-.22-.049 53.063 53.063 0 0 1-4.16-1.497 1.317 1.317 0 1 1 .997-2.438 50.928 50.928 0 0 0 3.953 1.423 1.316 1.316 0 0 1-.57 2.561Zm18.081 2.3a1.318 1.318 0 0 1 .111-2.62 49.797 49.797 0 0 0 4.18-.393 1.318 1.318 0 1 1 .358 2.61c-1.457.2-2.938.339-4.403.415a1.34 1.34 0 0 1-.246-.011v-.001Zm-28.426-6.845a1.31 1.31 0 0 1-.484-.166 52.838 52.838 0 0 1-3.73-2.375 1.316 1.316 0 1 1 1.509-2.159 50.228 50.228 0 0 0 3.541 2.256 1.317 1.317 0 0 1-.838 2.446l.002-.002Zm39.567 5.018a1.316 1.316 0 0 1-.179-2.574 50.881 50.881 0 0 0 3.99-1.302 1.317 1.317 0 1 1 .923 2.467 52.81 52.81 0 0 1-4.202 1.371c-.178.05-.359.061-.532.037v.001Zm10.472-4.226a1.316 1.316 0 0 1-.45-2.464 50.765 50.765 0 0 0 3.613-2.143 1.318 1.318 0 1 1 1.438 2.208 53.335 53.335 0 0 1-3.801 2.254 1.32 1.32 0 0 1-.8.147v-.002Zm9.3-6.407a1.316 1.316 0 0 1-.685-2.301 50.47 50.47 0 0 0 3.06-2.878 1.318 1.318 0 0 1 1.885 1.841 52.359 52.359 0 0 1-3.22 3.028 1.315 1.315 0 0 1-1.039.31h-.001Zm7.68-8.282a1.317 1.317 0 0 1-.882-2.089 49.539 49.539 0 0 0 2.354-3.477 1.317 1.317 0 1 1 2.244 1.382 52.377 52.377 0 0 1-2.479 3.662 1.32 1.32 0 0 1-1.237.522Zm5.675-9.769a1.318 1.318 0 0 1-1.03-1.837 50.193 50.193 0 0 0 1.528-3.909 1.318 1.318 0 0 1 2.493.856 52.071 52.071 0 0 1-1.61 4.114 1.32 1.32 0 0 1-1.382.776h.001Zm3.388-10.77-.081-.012a1.317 1.317 0 0 1-1.037-1.548 50.963 50.963 0 0 0 .645-4.15 1.32 1.32 0 0 1 1.458-1.16c.734.069 1.243.733 1.162 1.456a53.86 53.86 0 0 1-.678 4.365 1.317 1.317 0 0 1-1.468 1.05h-.001ZM94.92 115.714a1.313 1.313 0 0 1-.717-.339 55.188 55.188 0 0 1-1.555-1.5 1.317 1.317 0 1 1 1.868-1.857c.483.485.98.964 1.477 1.425a1.316 1.316 0 0 1-1.073 2.272v-.001Z"/></g><path fill="#6695FF" d="M98.731 100.813a.616.616 0 0 0 .658.279l7.318-1.62a32.651 32.651 0 0 0 8.559 6.217l.723 7.453a.614.614 0 0 0 .469.539l8.743 2.097a.62.62 0 0 0 .664-.267l4.026-6.315a32.63 32.63 0 0 0 10.448-1.661l5.787 4.762a.616.616 0 0 0 .714.049l7.665-4.698a.61.61 0 0 0 .279-.657l-1.62-7.315a32.62 32.62 0 0 0 6.219-8.555l7.457-.722a.614.614 0 0 0 .539-.47l2.098-8.738a.616.616 0 0 0-.269-.663l-6.317-4.024a32.63 32.63 0 0 0-1.662-10.444l4.764-5.784a.612.612 0 0 0 .049-.714l-4.7-7.661a.613.613 0 0 0-.658-.28l-7.318 1.621a32.627 32.627 0 0 0-8.558-6.216l-.723-7.453a.616.616 0 0 0-.47-.54l-8.743-2.096a.616.616 0 0 0-.663.269l-4.026 6.314a32.663 32.663 0 0 0-10.449 1.66l-5.787-4.76a.613.613 0 0 0-.713-.05l-7.666 4.698a.614.614 0 0 0-.279.658l1.62 7.315a32.64 32.64 0 0 0-6.219 8.554l-7.456.723a.616.616 0 0 0-.54.469l-2.097 8.739a.617.617 0 0 0 .267.663l6.317 4.024c-.018 3.6.56 7.12 1.662 10.443l-4.764 5.785a.614.614 0 0 0-.05.713l4.7 7.662.002-.003Z"/><path fill="#6695FF" d="M128.821 85.31c-4.367-.59-7.767-4.313-7.82-8.845-.058-4.98 3.946-9.082 8.931-9.14a8.976 8.976 0 0 1 6.421 2.57 8.97 8.97 0 0 1 2.723 6.355c.059 4.98-3.946 9.082-8.929 9.14a9.096 9.096 0 0 1-1.325-.08h-.001Zm2.161-15.816a7.116 7.116 0 0 0-1.026-.062c-3.82.045-6.892 3.19-6.847 7.008.045 3.82 3.19 6.89 7.011 6.843 3.82-.045 6.892-3.19 6.847-7.008a6.88 6.88 0 0 0-2.088-4.873 6.88 6.88 0 0 0-3.899-1.908h.002Z"/><path fill="#6695FF" d="M127.254 98.264a22.339 22.339 0 0 1-2.947-.6 22.314 22.314 0 0 1-3.347-1.211l-.044-.02a5.007 5.007 0 0 1-.125-.058l-.242-.115a.528.528 0 1 1 .456-.95 21.308 21.308 0 0 0 4.248 1.507c7.295 1.75 14.629-.523 19.662-5.382a21.025 21.025 0 0 0 5.861-10.259c.17-.71.304-1.425.401-2.14.65-4.81-.366-9.658-2.939-13.854a21.03 21.03 0 0 0-13.109-9.516c-11.357-2.721-22.801 4.295-25.523 15.64-.167.7-.299 1.406-.394 2.114a21.083 21.083 0 0 0 .777 9.151.527.527 0 1 1-1.005.315 22.126 22.126 0 0 1-.401-11.825c2.858-11.912 14.881-19.276 26.793-16.42a22.072 22.072 0 0 1 13.762 9.991c2.701 4.404 3.768 9.492 3.085 14.543-.101.751-.242 1.5-.42 2.247a22.075 22.075 0 0 1-9.994 13.757c-4.406 2.7-9.499 3.766-14.554 3.084h-.001Z"/><g fill="#6695FF" opacity=".3"><path d="M29.252 104.95a.814.814 0 0 1-.695-.685 34.746 34.746 0 0 1-.251-2.065.814.814 0 0 1 1.621-.149c.06.656.141 1.318.24 1.97a.815.815 0 0 1-.915.929ZM28.881 98.703a.813.813 0 0 1-.703-.833 35.155 35.155 0 0 1 .408-4.311c.07-.444.508-.728.93-.679.445.07.748.486.679.93a33.853 33.853 0 0 0-.39 4.113.814.814 0 0 1-.925.78h.001Zm1.31-8.344a.814.814 0 0 1-.674-1.03c.394-1.387.878-2.76 1.44-4.084a.816.816 0 0 1 1.066-.432.812.812 0 0 1 .432 1.066 33.662 33.662 0 0 0-1.373 3.895.814.814 0 0 1-.89.583l-.002.002Zm3.295-7.779a.814.814 0 0 1-.596-1.214 35.259 35.259 0 0 1 2.4-3.607.814.814 0 0 1 1.298.983 33.307 33.307 0 0 0-2.29 3.44.816.816 0 0 1-.813.398Zm5.107-6.73a.811.811 0 0 1-.473-1.374 35.38 35.38 0 0 1 3.21-2.91.813.813 0 1 1 1.017 1.271 33.403 33.403 0 0 0-3.061 2.775.81.81 0 0 1-.693.238Zm6.597-5.28a.813.813 0 0 1-.319-1.499 35.568 35.568 0 0 1 3.819-2.041.813.813 0 1 1 .679 1.478 33.873 33.873 0 0 0-3.643 1.95.807.807 0 0 1-.536.112Zm7.679-3.52a.815.815 0 0 1-.137-1.582 35.243 35.243 0 0 1 4.201-1.049.814.814 0 0 1 .295 1.6c-1.349.248-2.695.585-4.005 1a.812.812 0 0 1-.354.03v.002Zm8.303-1.534a.813.813 0 0 1 .061-1.618 35.2 35.2 0 0 1 4.333.014c.45.037.79.417.759.864a.816.816 0 0 1-.865.76 33.228 33.228 0 0 0-4.133-.013.896.896 0 0 1-.158-.007h.003Zm12.536 1.59a.888.888 0 0 1-.14-.031 34.082 34.082 0 0 0-4.005-1.017.814.814 0 0 1-.649-.95c.082-.442.513-.745.95-.65.188.037.374.073.56.112 1.23.254 2.456.576 3.64.956a.814.814 0 0 1-.356 1.58Z"/></g><g fill="#6695FF" opacity=".3"><path d="M59.08 133.861a.813.813 0 0 1 .208-1.614c1.344.163 2.708.247 4.057.247a.817.817 0 0 1 .813.814.814.814 0 0 1-.814.813 34.98 34.98 0 0 1-4.252-.26l-.011-.001-.001.001Zm-4.095-.752a.868.868 0 0 1-.087-.016 35.713 35.713 0 0 1-4.07-1.265.813.813 0 1 1 .576-1.522 34.35 34.35 0 0 0 3.884 1.208.813.813 0 0 1-.303 1.596v-.001Zm12.406.753a.811.811 0 0 1 .01-1.612 33.444 33.444 0 0 0 3.997-.742.815.815 0 0 1 .394 1.58 35.447 35.447 0 0 1-4.191.776.856.856 0 0 1-.209 0l-.001-.002Zm-20.182-3.697a.815.815 0 0 1-.27-.086 34.817 34.817 0 0 1-3.646-2.211.813.813 0 1 1 .928-1.336c1.11.769 2.28 1.478 3.476 2.108a.815.815 0 0 1-.488 1.526v-.001Zm28.245 1.691a.814.814 0 0 1-.182-1.566 33.467 33.467 0 0 0 3.7-1.679.814.814 0 1 1 .762 1.439 35.571 35.571 0 0 1-3.88 1.76.81.81 0 0 1-.4.046Zm7.346-3.882a.813.813 0 0 1-.356-1.473 33.957 33.957 0 0 0 3.194-2.515.815.815 0 0 1 1.15.067.81.81 0 0 1-.067 1.147 35.747 35.747 0 0 1-3.347 2.638.817.817 0 0 1-.573.138l-.001-.002Zm6.206-5.529a.812.812 0 0 1-.501-1.343A33.382 33.382 0 0 0 91 117.895a.814.814 0 0 1 1.343.919 35.155 35.155 0 0 1-2.617 3.364.812.812 0 0 1-.72.268l-.001-.001ZM40.348 125.403a.808.808 0 0 1-.432-.199 34.719 34.719 0 0 1-1.51-1.431.814.814 0 0 1 1.154-1.146c.46.464.945.922 1.44 1.366a.813.813 0 0 1-.652 1.413v-.003Z"/></g><path fill="#6695FF" d="M42.427 115.081c.091.15.268.225.44.187l4.898-1.084a21.847 21.847 0 0 0 5.726 4.16l.483 4.987c.018.176.144.32.314.362l5.851 1.403a.412.412 0 0 0 .444-.18l2.694-4.225a21.834 21.834 0 0 0 6.992-1.11l3.873 3.187a.411.411 0 0 0 .477.033l5.13-3.143a.412.412 0 0 0 .187-.44l-1.085-4.894a21.841 21.841 0 0 0 4.162-5.725l4.99-.483a.415.415 0 0 0 .36-.314l1.404-5.848a.41.41 0 0 0-.18-.444l-4.226-2.693a21.825 21.825 0 0 0-1.111-6.988l3.189-3.871a.412.412 0 0 0 .033-.477l-3.145-5.127a.412.412 0 0 0-.44-.187L78.99 83.25a21.842 21.842 0 0 0-5.726-4.16l-.484-4.987a.413.413 0 0 0-.313-.361l-5.851-1.403a.411.411 0 0 0-.444.179l-2.694 4.225a21.853 21.853 0 0 0-6.992 1.11l-3.873-3.186a.412.412 0 0 0-.477-.033l-5.13 3.144a.412.412 0 0 0-.187.44l1.085 4.894a21.84 21.84 0 0 0-4.162 5.724l-4.99.484a.41.41 0 0 0-.36.313l-1.403 5.849a.41.41 0 0 0 .18.443l4.226 2.693a21.822 21.822 0 0 0 1.111 6.988l-3.187 3.872a.412.412 0 0 0-.033.477l3.144 5.126-.002-.001Z"/><path fill="#6695FF" d="M62.538 104.813a6.119 6.119 0 0 1-3.464-1.695 6.11 6.11 0 0 1-1.854-4.33c-.041-3.392 2.688-6.184 6.082-6.226 3.4-.034 6.189 2.688 6.23 6.081a6.112 6.112 0 0 1-1.75 4.372 6.115 6.115 0 0 1-4.332 1.854 6.398 6.398 0 0 1-.91-.056h-.002Zm1.448-10.583a4.533 4.533 0 0 0-5.137 4.54 4.498 4.498 0 0 0 1.363 3.184 4.509 4.509 0 0 0 3.218 1.288 4.495 4.495 0 0 0 3.186-1.363 4.493 4.493 0 0 0 1.288-3.216 4.534 4.534 0 0 0-3.918-4.432v-.001Z"/><path fill="#6695FF" d="M61.436 113.828a15.516 15.516 0 0 1-4.48-1.317l-.127-.062a.812.812 0 1 1 .705-1.466 13.73 13.73 0 0 0 2.75.975c.052.013.105.024.157.036 2.25.517 4.543.453 6.71-.152a13.783 13.783 0 0 0 3.387-1.461l.027-.016.08-.049a13.608 13.608 0 0 0 6.163-8.483 13.591 13.591 0 0 0-1.643-10.354 13.612 13.612 0 0 0-8.486-6.16 13.633 13.633 0 0 0-10.36 1.643 13.608 13.608 0 0 0-6.163 8.482 13.625 13.625 0 0 0 .247 7.29.812.812 0 0 1-.532 1.021.814.814 0 0 1-1.02-.532 15.273 15.273 0 0 1-.278-8.159 15.226 15.226 0 0 1 6.895-9.49 15.224 15.224 0 0 1 11.59-1.838 15.226 15.226 0 0 1 9.495 6.892 15.209 15.209 0 0 1 2.13 10.035c-.071.517-.167 1.035-.29 1.549-1.85 7.707-9.258 12.655-16.953 11.615l-.004.001Z"/><path fill="url(#a)" d="M19.45 314.342c0 3.308 2.711 6.016 6.023 6.016h325.755c3.314 0 6.024-2.708 6.024-6.016l2.71-187.114c0-3.308-3.899-9.768-11.046-9.283l-318.364-8.234a15.2 15.2 0 0 0-11.12 4.424 15.156 15.156 0 0 0-4.456 11.095l4.474 189.111v.001Z"/><path fill="#91B3FA" d="M25.396 308.571c0 3.132 2.566 5.696 5.7 5.696h312.277c3.134 0 5.7-2.564 5.7-5.696l2.557-169.865c-.302-10.222-9.267-13.896-14.702-13.678l-305.123-8.183a10.664 10.664 0 0 0-7.812 3.109 10.653 10.653 0 0 0-3.133 7.804l4.538 180.813h-.002Z"/><path fill="url(#b)" d="M345.697 227.873h-.012a.833.833 0 0 1-.823-.847l.202-13.776a.834.834 0 0 1 .835-.822h.012a.833.833 0 0 1 .822.847l-.202 13.776a.834.834 0 0 1-.834.822Z"/><path fill="url(#c)" d="M346.194 194.117h-.012a.835.835 0 0 1-.823-.848l.775-52.761c-.015-3.134-.967-5.636-2.829-7.42-3.477-3.329-8.998-3.159-9.231-3.149l-97.524-2.614a.834.834 0 0 1-.812-.857c.012-.461.367-.853.857-.812l97.466 2.615c.606-.036 6.484-.137 10.399 3.611 2.203 2.108 3.327 5.015 3.345 8.634l-.775 52.777a.834.834 0 0 1-.835.822l-.001.002Z"/><path fill="url(#d)" d="M.75 335.89h370.02a.751.751 0 0 0 .751-.751V320.2a.751.751 0 0 0-.751-.751H.75a.75.75 0 0 0-.75.751v14.939a.75.75 0 0 0 .75.751Z"/><path fill="#fff" d="M329.232 185.875H39.857c-4.584 0-8.3-3.571-8.3-7.978v-38.476c0-4.452 3.79-8.041 8.423-7.976l289.373 4.105c4.537.064 8.178 3.616 8.178 7.976v34.371c0 4.405-3.716 7.978-8.3 7.978h.001ZM335.305 194.117H36.961c-1.23 0-2.226.996-2.226 2.225v68.268c0 1.229.997 2.225 2.226 2.225h298.344c1.23 0 2.227-.996 2.227-2.225v-68.268a2.226 2.226 0 0 0-2.227-2.225ZM336.42 275.908H35.846a1.11 1.11 0 0 0-1.111 1.11v29.026c0 .613.497 1.111 1.111 1.111H336.42c.614 0 1.112-.498 1.112-1.111v-29.026c0-.613-.498-1.11-1.112-1.11Z" opacity=".44"/><path fill="url(#e)" d="M292.545 141.374c-.453-6.997-4.681-13.196-11.019-16.205L199.42 86.192a19.374 19.374 0 0 0-16.618 0l-82.106 38.977c-6.338 3.009-10.566 9.208-11.02 16.205-7.7 118.991 68.631 162.347 93.653 173.299a19.4 19.4 0 0 0 15.563 0c25.023-10.952 101.354-54.308 93.653-173.299Z"/><path fill="#fff" d="M166.275 103.417a1.967 1.967 0 0 1-.847-3.745l19.401-9.21a1.968 1.968 0 0 1 1.689 3.554l-19.4 9.21c-.273.129-.56.19-.843.19v.001ZM95.954 167.642a1.968 1.968 0 0 1-1.965-1.901c-.26-7.764-.124-15.86.406-24.061.342-5.273 3.532-9.964 8.328-12.241l55.234-26.221a1.968 1.968 0 0 1 1.689 3.553l-55.234 26.222a10.679 10.679 0 0 0-6.089 8.941c-.522 8.073-.658 16.038-.4 23.674a1.97 1.97 0 0 1-1.9 2.033h-.069v.001Z" opacity=".67"/><path fill="url(#f)" d="M272.69 146.019a4.833 4.833 0 0 0-2.753-4.12l-76.755-36.436a4.828 4.828 0 0 0-4.141 0l-76.755 36.436a4.835 4.835 0 0 0-2.753 4.12c-2.27 44.387 7.987 81.423 30.51 110.127 17.17 21.885 37.256 33.613 49.027 39.084a4.84 4.84 0 0 0 4.086 0c11.769-5.471 31.856-17.199 49.027-39.084 22.521-28.704 32.78-65.741 30.51-110.127h-.003Z"/><path fill="url(#g)" d="M168.416 193.709h-7.649v-30.471c0-11.967 8.964-22.081 20.849-23.525l15.642-1.9a23.728 23.728 0 0 1 18.581 5.785 23.711 23.711 0 0 1 7.988 17.74v26.601h-7.649v-26.601a16.06 16.06 0 0 0-17.998-15.935l-15.642 1.899c-8.05.978-14.122 7.829-14.122 15.936v30.471Z"/><path fill="url(#h)" d="m158.505 186.868 67.057-3.714a4.752 4.752 0 0 1 5.015 4.743v53.099a4.751 4.751 0 0 1-4.752 4.749h-65.446a4.75 4.75 0 0 1-4.749-4.595l-1.611-49.385a4.75 4.75 0 0 1 4.486-4.897Z"/><path fill="url(#i)" d="m203.228 230.535-4.059-11.663c-.488-1.402-.156-2.971.888-4.027a11.006 11.006 0 0 0 3.172-8.27c-.259-5.689-4.908-10.303-10.602-10.521-6.302-.242-11.485 4.792-11.485 11.036 0 3.464 1.596 6.555 4.093 8.579 1.295 1.049 1.828 2.775 1.28 4.349l-3.659 10.517c-.89 2.557 1.01 5.229 3.719 5.229h12.936c2.708 0 4.609-2.67 3.718-5.229h-.001Z"/><path fill="#DD796F" d="M243.743 151.689c.054-.02 28.542-49.885 32.391-54.579a2.983 2.983 0 0 1 2.663-1.07l7.951.947 9.342 20.198-15.562-9.059c1.54 10.646-18.451 26.465-25.309 32.237a1.574 1.574 0 0 0-.124 2.293l2.736 2.864c-4.494 4.553-9.679 7.477-15.532 8.828l1.442-2.661.002.002Z"/><path fill="url(#j)" d="M256.25 143.975s1.746.565 2.338 2.119c.283.744-.023 1.586-.67 2.05-2.877 2.061-12.366 8.71-16.744 10.013a.495.495 0 0 1-.619-.583c.224-1.016.952-3.048 3.293-6.02l-.21.425c-.265.539.321 1.098.843.803 2.928-1.653 8.894-5.269 11.77-8.807h-.001Z"/><path fill="#ED8373" d="M254.839 163.927c.048-.03 4.323-10.324 4.371-10.354 3.918-23.849 13.48-44.272 16.299-49.648a2.986 2.986 0 0 1 2.393-1.587l7.978-.682 13.238 17.892-17.075-5.724c3.663 10.113-12.712 29.649-18.257 36.689a1.573 1.573 0 0 0 .343 2.27l3.26 2.251c-3.478 5.367-7.965 9.28-13.423 11.788l.875-2.898-.002.003Z"/><path fill="url(#k)" d="M265.524 153.843s1.825.2 2.72 1.603c.428.671.299 1.558-.241 2.143-2.4 2.598-10.346 11.032-14.369 13.192a.495.495 0 0 1-.725-.446c.015-1.042.315-3.177 2.006-6.562l-.12.458c-.151.581.536 1.01.988.615 2.533-2.21 7.643-6.958 9.743-11.005l-.002.002Z"/><path fill="url(#l)" d="M323.227 97.891s7.217 10.731 7.81 15.625-1.996 6.587-9.55 7.211c-22.481 1.857-33.562-4.877-33.562-4.877-1.538-9.8-2.632-12.294-15.476-17.623 0 0 16.245 1.289 19.515.021 3.27-1.268 31.264-.357 31.264-.357h-.001Z"/><path fill="url(#m)" d="M288.67 41.633s-3.814-3.933 1.703-7.095 9.772.827 14.712 6.325c4.046 4.5 11.601 4.81 17.055 6.366 6.868 1.961 11.84 7.214 12.627 14.577.645 6.022-4.518 10.248-9.658 12.11-15.726 5.696-19.447 7.603-24.38-1.798-4.936-9.4-12.06-30.483-12.06-30.483l.001-.002Z"/><path fill="#BDD0FB" d="M329.053 68.709c.958-.668 1.838-1.553 2.368-2.414.797-1.291 1.042-3.639 1.008-5.406-.169-8.64-8.458-11.745-14.677-13.332a86.847 86.847 0 0 0-5.82-1.264.093.093 0 0 0-.109.075c-.009.05.024.1.076.11 2.003.365 3.957.79 5.808 1.261 6.159 1.57 14.368 4.642 14.534 13.153.035 1.74-.206 4.048-.979 5.303-.714 1.159-2.08 2.364-3.399 2.997a.095.095 0 0 0-.044.125.094.094 0 0 0 .125.044 8.105 8.105 0 0 0 1.109-.654v.002Z"/><path fill="url(#n)" d="M303.707 96.47s-8.405-8-12.542-13.299a11.235 11.235 0 0 1-1.904-10.118c1.888-6.361 5.246-12.95 5.551-13.975.47-1.571 9.893-1.506 9.893-1.506s18.546 12.03 25.831 32.408l-8.183 2.547s-4.843-8.12-9.626-13.283c0 0 8.278 10.931 8.57 15.406l-17.59 1.817v.003Z"/><path fill="#ED8373" d="m287.693 99.628 6.317-6.869 7.294 1.964s8.504 1.316 13.37 0l4.867-1.317 10.998-3.422 1.728 4.88a2.94 2.94 0 0 1-1.074 3.375c-.952.677-2.067 1.42-2.778 1.73-1.449.634-33.363.201-33.363.201l-7.357-.54-.002-.002ZM298.228 46.249l6.334 11.773c-.419 2.57-6.895 2.643-7.894 1.108a1.51 1.51 0 0 1-.198-.52l-3.79-7.865c-.162-.767 1.941-3.352 2.633-3.72l2.518-1.34c.969-.515-3.076-.556.396.565l.001-.001Z"/><path fill="#E4897B" d="M285.41 43.485s-.715 3.978 2.412 9.036c3.128 5.057 6.242 4.829 7.825 3.025 1.582-1.804 3.479-4.808 2.616-9.851-.863-5.045-11.772-7.28-12.853-2.21Z"/><path fill="url(#o)" d="M285.87 37.636s-2.621 3.94-2.084 5.618c.535 1.678 6.259-1.448 7.634-2.314l12.582 9.673s-6.739-12.986-10.108-15.135c-3.369-2.148-8.023 2.158-8.023 2.158h-.001Z"/><path fill="#BDD0FB" d="M284.43 43.28a.094.094 0 0 0 .026-.1c-.023-.07-.552-1.709 1.051-3.186a.093.093 0 0 0 .005-.133.093.093 0 0 0-.133-.005c-1.696 1.564-1.107 3.366-1.102 3.385.016.05.071.076.12.058a.075.075 0 0 0 .033-.02Z"/><path fill="#ED8373" d="M296.503 46.065s-2.624-3.402-.235-4.109c2.388-.707 2.299 3.335 2.142 4.837l-1.907-.728Z"/><path fill="url(#p)" d="m308.598 102.346-.066.001-29.049-.032c-.718 0-1.3-.583-1.298-1.301 0-.717.586-1.31 1.301-1.297l29.049.031a1.299 1.299 0 0 1 .063 2.598Z"/><path fill="url(#q)" d="M253.369 75.984h24.192c1.785 0 3.41 1.03 4.171 2.642l11.184 23.704h-30.065a2.805 2.805 0 0 1-2.606-1.771l-8.673-21.934a1.932 1.932 0 0 1 1.797-2.641Z"/><path fill="#91B3FA" d="M270.413 88.137c.524 1.628.137 3.21-.865 3.531-1.002.323-2.24-.736-2.764-2.363-.523-1.628-.136-3.208.866-3.531 1.002-.323 2.239.736 2.763 2.363Z"/><path fill="url(#r)" d="M77.002 362.494c-3.77.326-10.313.855-15.47 1.082-3.1.137-4.886-.167-5.913-.578 0 .116.005.226.009.327.024.542.465.976 1.014 1.007 9.747.543 17.497.188 20.256.02.57-.035.91-.655.62-1.141a6.376 6.376 0 0 0-.515-.718v.001Z"/><path fill="url(#s)" d="M61.532 363.576c5.159-.227 11.7-.756 15.47-1.081-3.706-4.545-15.47-7.609-15.47-7.609h-3.323c-2.285 3.292-2.616 6.428-2.59 8.112 1.027.412 2.812.715 5.913.578Z"/><path fill="#FFAA5F" d="m57.65 349.464.31 6.15a1.404 1.404 0 0 0 1.2 1.321 5.466 5.466 0 0 0 2.497-.208 1.662 1.662 0 0 0 1.118-1.276l1.074-5.987h-6.2Z"/><path fill="url(#t)" d="M19.087 369.589c-1.635-.295-2.374-1.391-2.685-2.564l-.007.032c-.24 1.237.318 2.519 1.432 3.128 1.347.738 2.82.863 3.963.802 1.227-.066 2.354-.722 2.972-1.771l.01-.016c-1.233.788-2.96.879-5.688.389h.003Z"/><path fill="url(#u)" d="M26.794 351.359h-2.739c-4.174-.111-6.795 11.262-7.652 15.664.31 1.174 1.05 2.271 2.685 2.565 2.726.491 4.455.398 5.688-.39 2.254-3.833 3.372-9.447 3.91-12.723.611-3.727-1.889-5.118-1.889-5.118l-.003.002Z"/><path fill="#FFAA5F" d="m24.407 345.651-1.522 6.049a1.641 1.641 0 0 0 .855 1.86c.85.437 2.05.896 3.152.763a1.373 1.373 0 0 0 1.119-.914l2.234-6.364-5.836-1.394h-.002Z"/><path fill="url(#v)" d="M77.93 265.986s-13.598 84.953-13.373 85.419c0 0-3.755 1.706-7.849.218 0 0 1.23-45.413 4.112-62.825 0 0-23.206 40.591-30.575 60.816 0 0-3.844-.458-7.025-2.55 0 0 24.986-73.062 31.652-82.793l23.06 1.716-.002-.001Z"/><path fill="url(#w)" d="M61.36 288.5c.183 0 .36-.091.464-.257l4.958-7.914 3.508-.705a.546.546 0 1 0-.216-1.071l-3.738.752a.543.543 0 0 0-.357.246l-5.081 8.112a.546.546 0 0 0 .461.837h.002Z"/><path fill="#FFAA5F" d="M140.326 182.8s-9.175 2.022-14.755 4.598a5.091 5.091 0 0 0-2.496 2.509c-1.67 3.654-6.662 12.817-16.346 17.191 1.394 1.85 3.64 5.698 4.618 12.166 5.817-4.327 10.838-11.552 13.248-23.404 0 0 1.836.997 4.126-.115 1.209-.587 2.606-1.42 3.655-2.075 1.045-.652 1.824-1.667 2.125-2.852.399-1.565.164-2.941.164-4.417l4.716-1.46s1.418-.536.945-2.139v-.002Z"/><path fill="url(#x)" d="M111.346 219.263c-.978-6.468-3.223-10.317-4.619-12.166-6.015 2.716-13.84 3.585-23.806.134a10.6 10.6 0 0 0-2.849-.562c-5.304-.311-22.785-.878-37.25 3.899a11.247 11.247 0 0 0-6.782 6.17c-3.913 8.975-10.248 29.416 7.338 39.735a43.64 43.64 0 0 1 4.244-8.029c-2.832-4.774-3.67-11.296 1.355-19.789 3.664 9.891 5.384 24.322 5.743 30.71a13.719 13.719 0 0 1-1.077 6.143l-.09.211a.727.727 0 0 0 .51.993c9.901 2.222 20.198 1.619 23.275 1.364a1.268 1.268 0 0 0 1.132-.968c4.814-20.276 4.824-34.108 3.647-42.852 4.503 1.007 18.274 3.153 29.225-4.994l.004.001Z"/><path fill="url(#y)" d="M82.14 224.947c.023 0 .047-.002.072-.004a.546.546 0 0 0 .47-.614c-1.16-8.77-3.496-12.527-3.596-12.682a.546.546 0 0 0-.922.584c.022.036 2.31 3.745 3.436 12.241a.546.546 0 0 0 .54.475Z"/><path fill="#FFAA5F" d="M57.707 194.856s-1.002 10.586-1.884 13.716c-.134.476.073.977.505 1.222 1.497.855 5.087 2.25 9.997-.156a2.225 2.225 0 0 0 1.236-2.095l-.432-10.229-9.422-2.458Z"/><path fill="url(#z)" d="M127.042 194.911a.544.544 0 0 0 .424-.202c1.319-1.621 3.562-4.192 4.344-4.633.687-.388 1.079-.825 1.2-1.335.102-.432-.005-.886-.318-1.351a.543.543 0 0 0-.56-.23l-4.005.803a.538.538 0 0 0-.249.121l-2.129 1.826a.547.547 0 1 0 .712.829l2.021-1.733 3.458-.693c.025.097.012.153.007.178-.044.19-.283.415-.674.635-1.21.683-4.305 4.466-4.653 4.895a.545.545 0 0 0 .424.89h-.002Z"/><path fill="#FFAA5F" d="m58.653 263.701 14.457-.315s-12.607-3.562-13.388-2.592c0 0-7.814-5.132-12.096-12.351a43.58 43.58 0 0 0-4.244 8.028c3.839 2.252 8.88 6.166 15.272 7.229l-.001.001Z"/><path fill="#FFAA5F" d="M58.245 261.2s-.298 5.757 7.262 4.92c4.11-.454 10.744-4.284 10.744-4.284s-17.29-.047-18.006-.638v.002Z"/><path fill="url(#A)" d="M61.206 262.743a.756.756 0 0 0 .083.002l35.944-.039c.89 0 1.608-.713 1.607-1.593 0-.879-.724-1.605-1.61-1.589l-35.945.039c-.89 0-1.608.713-1.607 1.593 0 .851.678 1.546 1.528 1.587Z"/><path fill="url(#B)" d="M129.545 230.469H99.611a5.711 5.711 0 0 0-5.16 3.235l-13.839 29.021h37.201c1.423 0 2.702-.86 3.224-2.169l10.732-26.853c.619-1.552-.536-3.234-2.224-3.234Z"/><path fill="url(#C)" d="M108.455 245.349c-.648 1.993-.17 3.928 1.07 4.323 1.24.395 2.772-.901 3.42-2.895.649-1.993.17-3.928-1.07-4.323-1.24-.395-2.771.901-3.42 2.895Z"/><path fill="#FFB573" d="M69.543 180.154c.134.216 3.698 16.683 3.698 16.683l-9.45 1.834-5.697-15.107s9.19-7.031 11.449-3.41Z"/><path fill="url(#D)" d="m61.472 186.005 2.375 8.187c.031.105.073.204.132.297.353.568 1.713 2.434 3.538.927 1.656-1.367 3.188-2.591 4.547-2.75a1.189 1.189 0 0 1 1.304.93c.323 1.496.989 4.881 1.12 7.911a1.19 1.19 0 0 1-1.039 1.224c-1.84.242-5.732.642-8.94.231a1.192 1.192 0 0 1-.963-.748c-.777-1.989-3.16-8.026-4.085-9.605-.868-1.483-3.197-1.576-4.177-1.545-.322.01-.63-.112-.86-.336-.811-.798-2.328-2.8.09-4.956a1.191 1.191 0 0 0 .07-1.715c-.929-.979-1.884-2.674-.134-4.61 1.78-1.967 3.956-1.514 5.273-.947.532.23 1.138.033 1.462-.447.185-.273.49-.471.997-.398.682.098 1.292-.441 1.319-1.129.051-1.324.62-2.966 2.954-3.548 4.142-1.033 6.455 3.041 6.538 5.988.084 2.947-4.47 3.812-7.099 3.464-1.999-.265-3.603 1.638-4.257 2.566a1.178 1.178 0 0 0-.166 1.011l.001-.002Z"/><path fill="#FFAA5F" d="M60.358 195.579s-.366-5.128-2.47-5.498c-2.105-.371-4.266 1.251-2.324 4.23 2.416 3.704 4.793 1.268 4.793 1.268h.001Z"/><defs><linearGradient id="p" x1="313.552" x2="290.494" y1="94.595" y2="102.16" gradientUnits="userSpaceOnUse"><stop stop-color="#09005D"/><stop offset="1" stop-color="#1A0F91"/></linearGradient><linearGradient id="a" x1="188.36" x2="183.771" y1="115.715" y2="327.845" gradientUnits="userSpaceOnUse"><stop stop-color="#09005D"/><stop offset="1" stop-color="#1A0F91"/></linearGradient><linearGradient id="c" x1="235.737" x2="347.803" y1="159.885" y2="159.885" gradientUnits="userSpaceOnUse"><stop stop-color="#DAE3FE"/><stop offset="1" stop-color="#E9EFFD"/></linearGradient><linearGradient id="d" x1="190.209" x2="217.953" y1="309.217" y2="194.026" gradientUnits="userSpaceOnUse"><stop stop-color="#09005D"/><stop offset="1" stop-color="#1A0F91"/></linearGradient><linearGradient id="e" x1="275.512" x2="207.296" y1="-18.073" y2="134.481" gradientUnits="userSpaceOnUse"><stop stop-color="#FF928E"/><stop offset="1" stop-color="#FE7062"/></linearGradient><linearGradient id="f" x1="155.307" x2="227.083" y1="82.347" y2="258.606" gradientUnits="userSpaceOnUse"><stop stop-color="#4F52FF"/><stop offset="1" stop-color="#4042E2"/></linearGradient><linearGradient id="g" x1="254.847" x2="239.469" y1="-81.368" y2="-18.489" gradientUnits="userSpaceOnUse"><stop stop-color="#FF928E"/><stop offset="1" stop-color="#FE7062"/></linearGradient><linearGradient id="h" x1="264.582" x2="249.204" y1="-78.987" y2="-16.108" gradientUnits="userSpaceOnUse"><stop stop-color="#FF928E"/><stop offset="1" stop-color="#FE7062"/></linearGradient><linearGradient id="i" x1="192.12" x2="233.577" y1="219.338" y2="102.269" gradientUnits="userSpaceOnUse"><stop stop-color="#E1473D"/><stop offset="1" stop-color="#E9605A"/></linearGradient><linearGradient id="j" x1="240.543" x2="258.694" y1="151.077" y2="151.077" gradientUnits="userSpaceOnUse"><stop stop-color="#09005D"/><stop offset="1" stop-color="#1A0F91"/></linearGradient><linearGradient id="k" x1="252.908" x2="268.5" y1="162.342" y2="162.342" gradientUnits="userSpaceOnUse"><stop stop-color="#09005D"/><stop offset="1" stop-color="#1A0F91"/></linearGradient><linearGradient id="l" x1="278.983" x2="315.904" y1="77.744" y2="118.223" gradientUnits="userSpaceOnUse"><stop stop-color="#4F52FF"/><stop offset="1" stop-color="#4042E2"/></linearGradient><linearGradient id="m" x1="331.181" x2="279.672" y1="75.823" y2="33.66" gradientUnits="userSpaceOnUse"><stop stop-color="#09005D"/><stop offset="1" stop-color="#1A0F91"/></linearGradient><linearGradient id="n" x1="380.006" x2="342.545" y1="17.989" y2="49.445" gradientUnits="userSpaceOnUse"><stop stop-color="#FF928E"/><stop offset="1" stop-color="#FE7062"/></linearGradient><linearGradient id="o" x1="332.054" x2="280.545" y1="74.757" y2="32.593" gradientUnits="userSpaceOnUse"><stop stop-color="#09005D"/><stop offset="1" stop-color="#1A0F91"/></linearGradient><linearGradient id="b" x1="344.862" x2="346.733" y1="220.15" y2="220.15" gradientUnits="userSpaceOnUse"><stop stop-color="#DAE3FE"/><stop offset="1" stop-color="#E9EFFD"/></linearGradient><linearGradient id="q" x1="252.782" x2="463.282" y1="90.865" y2="73.147" gradientUnits="userSpaceOnUse"><stop stop-color="#09005D"/><stop offset="1" stop-color="#1A0F91"/></linearGradient><linearGradient id="r" x1="55.619" x2="77.624" y1="363.559" y2="363.559" gradientUnits="userSpaceOnUse"><stop stop-color="#4F52FF"/><stop offset="1" stop-color="#4042E2"/></linearGradient><linearGradient id="s" x1="55.617" x2="77.002" y1="359.248" y2="359.248" gradientUnits="userSpaceOnUse"><stop stop-color="#09005D"/><stop offset="1" stop-color="#1A0F91"/></linearGradient><linearGradient id="t" x1="16.342" x2="24.774" y1="369.012" y2="369.012" gradientUnits="userSpaceOnUse"><stop stop-color="#4F52FF"/><stop offset="1" stop-color="#4042E2"/></linearGradient><linearGradient id="u" x1="16.403" x2="28.78" y1="360.624" y2="360.624" gradientUnits="userSpaceOnUse"><stop stop-color="#09005D"/><stop offset="1" stop-color="#1A0F91"/></linearGradient><linearGradient id="v" x1="82.756" x2="19.553" y1="270.097" y2="373.677" gradientUnits="userSpaceOnUse"><stop stop-color="#4F52FF"/><stop offset="1" stop-color="#4042E2"/></linearGradient><linearGradient id="w" x1="124.052" x2="84.59" y1="216.199" y2="261.033" gradientUnits="userSpaceOnUse"><stop stop-color="#4F52FF"/><stop offset="1" stop-color="#4042E2"/></linearGradient><linearGradient id="x" x1="122.469" x2="38.61" y1="203.438" y2="251.635" gradientUnits="userSpaceOnUse"><stop stop-color="#E1473D"/><stop offset="1" stop-color="#E9605A"/></linearGradient><linearGradient id="y" x1="78.08" x2="82.687" y1="218.171" y2="218.171" gradientUnits="userSpaceOnUse"><stop stop-color="#FF928E"/><stop offset="1" stop-color="#FE7062"/></linearGradient><linearGradient id="z" x1="193.605" x2="152.581" y1="111.291" y2="161.256" gradientUnits="userSpaceOnUse"><stop stop-color="#FEBBBA"/><stop offset="1" stop-color="#FF928E"/></linearGradient><linearGradient id="A" x1="55.121" x2="83.648" y1="253.215" y2="262.575" gradientUnits="userSpaceOnUse"><stop stop-color="#09005D"/><stop offset="1" stop-color="#1A0F91"/></linearGradient><linearGradient id="B" x1="94.379" x2="114.794" y1="234.746" y2="256.335" gradientUnits="userSpaceOnUse"><stop stop-color="#09005D"/><stop offset="1" stop-color="#1A0F91"/></linearGradient><linearGradient id="C" x1="106.765" x2="115.992" y1="240.14" y2="254.042" gradientUnits="userSpaceOnUse"><stop stop-color="#4F52FF"/><stop offset="1" stop-color="#4042E2"/></linearGradient><linearGradient id="D" x1="57.135" x2="76.731" y1="195.289" y2="183.062" gradientUnits="userSpaceOnUse"><stop stop-color="#09005D"/><stop offset="1" stop-color="#1A0F91"/></linearGradient></defs></svg>