<svg width="375" height="375" viewBox="0 0 375 375" fill="none" xmlns="http://www.w3.org/2000/svg">
<path d="M321.49 306.28C312.167 315.896 303.825 321.549 297.438 325.816C235.149 367.435 163.944 355.439 141.93 351.34C106.412 344.724 76.4307 340.058 50.6709 316.77C-7.86376 263.851 -5.01592 153.459 39.7106 85.0756C45.0132 76.9673 89.6731 10.7235 161.031 1.38897C162.776 1.16033 164.079 1.03104 165.22 0.909923C176.259 -0.259102 244.665 -6.4322 300.444 40.3302C308.429 47.0245 321.278 59.0985 333.193 77.513C376.761 144.846 376.899 249.128 321.491 306.28H321.49Z" fill="#EEEEEE"/>
<path d="M287.713 129.938L319.485 122.536C319.485 122.536 340.729 120.625 343.601 139.519C346.473 158.412 345.641 270.35 344.742 293.435C344.446 301.044 344.482 308.075 345.13 314.206C346.478 326.975 336.521 338.129 323.691 338.352L264.541 339.377L287.714 129.938H287.713Z" fill="url(#paint0_linear_57_205)"/>
<path d="M270.81 348.474C270.81 348.474 277.157 259.417 322.301 205.13C322.89 204.422 323.908 204.599 324.22 205.47C329.139 219.222 356.788 307.659 270.808 348.474H270.81Z" fill="#BDD0FB"/>
<path d="M320.353 230.973C319.973 236.169 319.222 241.296 318.35 246.414C317.45 251.525 316.392 256.608 315.146 261.648C312.661 271.73 309.554 281.672 305.731 291.346C303.803 296.176 301.759 300.964 299.472 305.637C298.363 307.99 297.126 310.282 295.94 312.597C294.679 314.874 293.45 317.167 292.086 319.385C286.802 328.347 280.613 336.793 273.547 344.393C273.337 344.619 272.983 344.633 272.756 344.422C272.542 344.223 272.519 343.898 272.692 343.671L272.697 343.664C278.985 335.509 284.649 326.937 289.561 317.939C290.828 315.711 291.954 313.407 293.16 311.148C294.281 308.842 295.452 306.564 296.495 304.223C297.018 303.054 297.587 301.906 298.094 300.728L299.641 297.209C300.148 296.032 300.624 294.842 301.116 293.66C301.615 292.48 302.08 291.285 302.54 290.089C303.495 287.71 304.381 285.304 305.278 282.9C306.132 280.482 306.986 278.064 307.784 275.625C309.431 270.764 310.895 265.841 312.306 260.903C313.689 255.956 314.976 250.976 316.131 245.965C317.308 240.961 318.353 235.908 319.241 230.854L319.244 230.837C319.297 230.532 319.588 230.328 319.892 230.383C320.178 230.433 320.374 230.693 320.353 230.976V230.973Z" fill="url(#paint1_linear_57_205)"/>
<path d="M276.405 338.725C276.405 338.725 322.943 260.392 373.574 259.166C374.473 259.144 375.155 259.97 374.97 260.849C372.814 271.089 357.74 324.688 276.405 338.725Z" fill="#91B3FA"/>
<path d="M362.855 271.594C359.787 274.816 356.627 277.918 353.425 280.988C351.808 282.504 350.189 284.019 348.554 285.517C346.906 286.998 345.275 288.502 343.611 289.965C336.967 295.836 330.115 301.474 323.084 306.877C319.596 309.614 315.981 312.184 312.415 314.818L306.959 318.622C306.047 319.253 305.143 319.894 304.222 320.511L301.437 322.329C294.079 327.284 286.391 331.726 278.649 336.04C278.378 336.191 278.038 336.093 277.887 335.824C277.739 335.557 277.831 335.222 278.092 335.068L278.107 335.06L283.821 331.707L286.677 330.03C287.621 329.457 288.547 328.856 289.483 328.27L295.095 324.754C296.945 323.549 298.773 322.308 300.611 321.088L303.367 319.25L306.079 317.35L311.5 313.544C315.044 310.909 318.634 308.337 322.101 305.599C325.614 302.922 329.049 300.146 332.487 297.374L337.579 293.134L342.608 288.82C344.284 287.38 345.923 285.901 347.582 284.442C349.226 282.967 350.854 281.475 352.482 279.983C355.723 276.986 358.945 273.95 362.039 270.818L362.047 270.81C362.265 270.589 362.618 270.588 362.839 270.806C363.056 271.021 363.06 271.369 362.851 271.59L362.855 271.594Z" fill="#BDD0FB"/>
<path d="M223.121 131.474C223.121 131.474 280.973 134.655 319.484 122.536C319.484 122.536 293.882 120.78 293.882 179.928C293.882 225.15 300.584 311.466 294.732 327.851C288.88 344.237 266.999 366.262 235.632 347.333C204.264 328.404 223.119 131.474 223.119 131.474H223.121Z" fill="#7D97F4"/>
<path d="M207.741 42.7972C207.741 42.7972 271.571 49.7597 279.794 38.9336C279.794 38.9336 273.252 19.4494 253.827 20.745C234.402 22.0406 207.739 42.7972 207.739 42.7972H207.741Z" fill="url(#paint2_linear_57_205)"/>
<path d="M0.141247 64.7191C5.70775 127.314 17.3984 259.714 22.4848 324.209C23.619 338.587 35.1355 349.944 49.519 350.868C100.756 354.158 216.064 360.544 260.314 354.603C250.178 349.603 243.794 339.239 243.887 327.931L246.237 38.5242C246.32 28.2983 256.498 20.9494 266.069 24.5381C272.097 26.7986 276.663 31.6149 279.794 38.9352C275.616 26.7523 269.046 17.8397 253.827 20.7466C253.827 20.7466 104.992 22.2355 32.7678 26.7169C13.1429 27.935 -1.60228 45.122 0.13989 64.7205L0.141247 64.7191Z" fill="#91B3FA"/>
<path opacity="0.53" d="M36.9593 34.9991L236.949 27.2949C228.701 88.4013 232.183 212.842 235.33 335.479C235.516 342.749 239.777 349.293 246.348 352.401C246.348 352.401 112.956 353.939 55.6404 349.871C42.145 348.913 31.1358 338.695 29.1311 325.307C21.2621 272.763 2.43695 137.025 6.35512 65.1637C7.25273 48.7075 20.5005 35.6346 36.958 35.0004L36.9593 34.9991Z" fill="url(#paint3_linear_57_205)"/>
<path d="M34.3128 129.783L36.6465 152.198C37.0749 156.307 40.4559 159.477 44.5808 159.634L57.6233 160.135C62.3275 160.316 66.2389 156.549 66.2389 151.838V127.656C66.2389 122.801 62.0963 118.983 57.2615 119.38L41.8853 120.644C37.2477 121.025 33.83 125.149 34.3114 129.78L34.3128 129.783Z" fill="url(#paint4_linear_57_205)"/>
<path d="M80.1763 122.874C101.883 122.199 185.214 119.488 206.256 118.802C208.91 118.717 211.104 120.845 211.104 123.503C211.104 126.033 209.105 128.108 206.578 128.202L80.5802 132.884C78.1526 132.974 76.0568 131.199 75.7454 128.789L75.6665 128.179C75.3088 125.423 77.4005 122.96 80.1763 122.874Z" fill="url(#paint5_linear_57_205)"/>
<path d="M78.8134 152.425C79.182 153.043 79.8539 153.416 80.5733 153.401L167.09 151.52C168.177 151.497 169.046 150.608 169.046 149.519V143.812C169.046 142.678 168.105 141.77 166.972 141.812L82.8676 144.959C79.1222 145.099 76.8931 149.202 78.8134 152.423V152.425Z" fill="url(#paint6_linear_57_205)"/>
<path d="M34.3128 191.996L36.6465 214.412C37.0749 218.52 40.4559 221.69 44.5808 221.848L57.6233 222.349C62.3275 222.53 66.2389 218.763 66.2389 214.051V189.869C66.2389 185.015 62.0963 181.196 57.2615 181.593L41.8853 182.858C37.2477 183.239 33.83 187.362 34.3114 191.993L34.3128 191.996Z" fill="url(#paint7_linear_57_205)"/>
<path d="M80.1763 185.087C101.883 184.412 185.214 181.701 206.256 181.015C208.91 180.928 211.104 183.058 211.104 185.715C211.104 188.245 209.105 190.321 206.578 190.415L80.5802 195.095C78.1526 195.185 76.0568 193.41 75.7454 191L75.6665 190.39C75.3088 187.634 77.4005 185.171 80.1763 185.085V185.087Z" fill="url(#paint8_linear_57_205)"/>
<path opacity="0.78" d="M78.8134 214.639C79.182 215.257 79.8539 215.63 80.5733 215.615L167.09 213.734C168.177 213.711 169.046 212.822 169.046 211.735V206.027C169.046 204.894 168.105 203.986 166.972 204.028L82.8676 207.175C79.1222 207.315 76.8931 211.418 78.8134 214.639Z" fill="white"/>
<path d="M34.3128 254.21L36.6465 276.626C37.0749 280.734 40.4559 283.904 44.5808 284.062L57.6233 284.563C62.3275 284.744 66.2389 280.977 66.2389 276.265V252.083C66.2389 247.229 62.0963 243.41 57.2615 243.807L41.8853 245.072C37.2477 245.453 33.83 249.576 34.3114 254.207L34.3128 254.21Z" fill="url(#paint9_linear_57_205)"/>
<path d="M80.1763 247.3C101.883 246.625 185.214 243.914 206.256 243.229C208.91 243.143 211.104 245.271 211.104 247.929C211.104 250.459 209.105 252.535 206.578 252.628L80.5802 257.309C78.1526 257.398 76.0568 255.624 75.7454 253.214L75.6665 252.604C75.3088 249.848 77.4005 247.385 80.1763 247.299V247.3Z" fill="url(#paint10_linear_57_205)"/>
<path d="M78.8134 276.852C79.182 277.47 79.8539 277.842 80.5733 277.827L167.09 275.947C168.177 275.924 169.046 275.035 169.046 273.948V268.24C169.046 267.106 168.105 266.198 166.972 266.241L82.8676 269.387C79.1222 269.527 76.8931 273.63 78.8134 276.852Z" fill="url(#paint11_linear_57_205)"/>
<g style="mix-blend-mode:soft-light">
<path d="M286.369 260.773C285.84 260.773 285.407 260.348 285.397 259.817C285.397 259.787 285.337 256.719 285.042 246.199C285.027 245.661 285.45 245.212 285.987 245.197C286.512 245.17 286.973 245.605 286.988 246.143C287.283 256.675 287.343 259.749 287.344 259.779C287.354 260.317 286.927 260.762 286.39 260.771H286.371L286.369 260.773Z" fill="white"/>
</g>
<g style="mix-blend-mode:soft-light">
<path d="M285.661 235.096C285.136 235.096 284.705 234.679 284.688 234.151C284.479 227.305 284.153 219.735 283.807 211.721C283.341 200.893 282.858 189.696 282.603 178.911C281.932 150.444 286.624 139.518 290.679 135.363C292.882 133.105 294.729 133.04 294.933 133.04C295.47 133.04 295.907 133.476 295.907 134.014C295.907 134.552 295.481 134.978 294.954 134.988C294.732 135.005 283.546 136.234 284.552 178.866C284.807 189.633 285.288 200.82 285.755 211.638C286.1 219.658 286.426 227.234 286.636 234.093C286.652 234.63 286.231 235.08 285.692 235.096C285.683 235.096 285.672 235.096 285.662 235.096H285.661Z" fill="white"/>
</g>
<path d="M144.57 340.082C143.582 340.082 142.595 339.615 141.551 338.656C137.717 335.131 136.727 329.713 136.457 324.561C134.688 326.542 132.878 328.472 131.088 330.38L130.098 329.45C132.199 327.209 134.33 324.938 136.385 322.591C136.215 315.534 136.54 308.401 137.352 301.386C137.85 297.084 138.568 292.533 140.431 288.381C141.026 287.057 142.01 285.159 143.706 283.973C145.475 282.734 147.794 282.6 149.347 283.643C151.092 284.816 151.563 287.04 151.764 288.611C152.95 297.84 149.351 306.301 146.124 311.772C143.728 315.834 140.827 319.551 137.755 323.085C137.914 328.36 138.644 334.139 142.469 337.654C143.274 338.394 143.975 338.745 144.632 338.721C145.711 338.681 146.583 337.635 147.294 336.617C150.527 331.983 153.041 326.959 154.8 321.631C155.005 320.027 155.452 318.454 156.134 316.987L157.41 317.434C157.04 318.955 156.613 320.455 156.13 321.931C155.95 323.441 156.005 324.977 156.304 326.47C156.463 327.263 157.132 329.882 159.063 330.249C160.505 330.521 162.006 329.431 163.666 326.908L170.466 316.564L169.606 320.267C169.303 321.575 168.794 324.697 170.618 325.447C171.656 325.874 172.753 325.256 174.023 324.539C175.287 323.827 176.591 323.089 178.075 323.288L178.775 323.382L178.656 324.078C178.586 324.476 178.037 327.978 179.852 328.379C180.683 328.564 181.378 327.987 182.425 327.018C183.248 326.256 184.1 325.47 185.22 325.198L185.54 326.519C184.763 326.707 184.077 327.342 183.349 328.016C182.315 328.973 181.147 330.056 179.56 329.706C177.493 329.249 176.985 326.919 177.208 324.645C176.394 324.763 175.562 325.233 174.691 325.724C173.312 326.501 171.748 327.382 170.102 326.704C168.744 326.145 168.008 324.795 167.952 322.862L164.801 327.655C163.53 329.591 161.528 332.106 158.809 331.586C156.943 331.23 155.508 329.418 154.971 326.738C154.896 326.365 154.835 325.988 154.789 325.611C153.121 329.755 150.988 333.698 148.406 337.397C147.556 338.615 146.365 340.021 144.681 340.082C144.643 340.082 144.605 340.085 144.567 340.085L144.57 340.082ZM146.933 284.293C146.041 284.293 145.14 284.627 144.485 285.086C143.066 286.079 142.199 287.76 141.67 288.937C139.883 292.921 139.187 297.351 138.701 301.542C137.953 307.994 137.623 314.548 137.714 321.049C140.374 317.91 142.867 314.622 144.956 311.081C148.076 305.792 151.556 297.631 150.419 288.784C150.151 286.705 149.57 285.43 148.591 284.772C148.088 284.433 147.513 284.293 146.935 284.293H146.933Z" fill="url(#paint12_linear_57_205)"/>
<path opacity="0.78" d="M204.176 94.8649L44.8569 99.5954C39.134 99.7655 34.3277 95.3208 34.0476 89.5981L33.4628 77.6724C33.1744 71.7783 37.7876 66.7987 43.6832 66.6436L203.794 62.4071C209.781 62.2492 214.689 67.1199 214.58 73.1106L214.373 84.5423C214.271 90.1547 209.783 94.6988 204.176 94.8649Z" fill="white"/>
<path d="M153.991 220.473C153.991 220.473 148.677 216.985 147.941 217.789C147.679 218.075 147.068 219.048 146.498 220.109C146.096 220.858 146.221 221.78 146.811 222.391L148.181 223.808C149.486 225.158 151.695 225.062 152.847 223.578C153.427 222.83 153.891 221.821 153.991 220.473Z" fill="url(#paint13_linear_57_205)"/>
<path d="M159.409 213.845C159.409 213.845 157.585 209.041 155.455 209.482C153.325 209.922 150.994 211.559 150.994 211.559L147.573 216.19C147.573 216.19 157.178 219.976 160.557 217.807C160.557 217.807 170.368 219.504 182.759 217.469C180.965 213.681 179.896 209.886 179.269 206.941C172.994 210.496 166.235 213.151 159.409 213.845Z" fill="#ED8373"/>
<path d="M211.383 179.003C211.383 179.003 197.335 196.709 179.269 206.942C179.897 209.887 180.966 213.679 182.759 217.47C192.131 215.93 202.977 212.259 212.172 204.099L211.381 179.005L211.383 179.003Z" fill="url(#paint14_linear_57_205)"/>
<path d="M228.901 257.478C226.154 244.42 223.407 236.86 214.208 212.109C211.312 204.32 208.685 196.439 209.955 188.226L211.381 179.003C211.381 179.003 229.259 172.95 249.074 178.749C249.074 178.749 276.11 190.502 257.747 248.543C249.47 257.81 239.782 260.451 228.901 257.478Z" fill="url(#paint15_linear_57_205)"/>
<path d="M214.425 167.231L219.06 178.374C219.352 179.078 219.986 179.58 220.737 179.708C223.409 180.167 229.873 180.883 234.118 178.09C234.624 177.757 234.753 177.069 234.406 176.573L225.842 164.269L214.424 167.23L214.425 167.231Z" fill="#ED8373"/>
<path d="M219.219 150.181C219.025 150.365 211.003 166.127 211.003 166.127L220.095 170.519L229.916 156.71C229.916 156.71 222.478 147.111 219.219 150.181Z" fill="#E4897B"/>
<path d="M225.784 158.368L221.25 165.932C221.18 166.046 221.099 166.151 221.001 166.242C220.461 166.745 218.614 168.208 217.186 166.216C215.969 164.519 214.828 162.978 213.604 162.341C212.89 161.969 212.01 162.266 211.647 162.986C210.9 164.468 209.453 167.488 208.543 170.352C208.315 171.07 208.686 171.841 209.384 172.124C211.225 172.87 214.863 174.22 218.092 174.666C218.622 174.74 219.147 174.515 219.463 174.083C220.851 172.179 224.767 166.856 226.104 165.525C227.345 164.288 229.635 164.755 230.669 165.052C231.061 165.165 231.478 165.11 231.828 164.899C232.875 164.268 234.703 162.696 233.031 160.034C232.615 159.372 232.827 158.491 233.48 158.061C234.65 157.29 235.919 155.846 234.71 153.506C233.486 151.136 231.3 150.924 229.811 151.106C229.153 151.187 228.484 150.841 228.231 150.227C228.118 149.954 227.896 149.721 227.483 149.638C226.702 149.48 226.191 148.765 226.343 147.983C226.605 146.642 226.408 144.9 224.269 143.725C220.347 141.566 216.91 145.083 216.037 148.051C215.162 151.019 219.55 153.118 222.308 153.467C224.334 153.725 225.445 155.938 225.893 157.094C226.055 157.513 226.015 157.983 225.784 158.369V158.368Z" fill="url(#paint16_linear_57_205)"/>
<path d="M224.194 167.786C224.194 167.786 226.146 163.192 228.377 163.38C230.611 163.567 232.368 165.793 229.6 168.295C226.158 171.408 224.193 167.786 224.193 167.786H224.194Z" fill="#ED8373"/>
<path d="M227.141 372.559C231.459 372.932 238.953 373.539 244.859 373.799C248.41 373.955 250.454 373.607 251.632 373.136C251.631 373.269 251.627 373.395 251.621 373.51C251.593 374.132 251.088 374.63 250.46 374.666C239.297 375.289 230.42 374.882 227.259 374.689C226.605 374.649 226.216 373.939 226.551 373.381C226.718 373.102 226.921 372.829 227.141 372.559Z" fill="url(#paint17_linear_57_205)"/>
<path d="M244.861 373.8C238.953 373.54 231.459 372.933 227.142 372.56C231.387 367.349 244.861 363.837 244.861 363.837H248.666C251.283 367.612 251.662 371.206 251.633 373.137C250.456 373.61 248.412 373.957 244.861 373.8Z" fill="url(#paint18_linear_57_205)"/>
<path d="M249.306 357.619L248.95 364.67C248.912 365.433 248.341 366.075 247.577 366.184C246.816 366.293 245.798 366.307 244.718 365.947C244.054 365.726 243.56 365.166 243.438 364.483L242.207 357.619H249.306Z" fill="#ED8373"/>
<path d="M298.733 373.747C300.606 373.486 301.453 372.513 301.808 371.472C301.811 371.481 301.813 371.491 301.815 371.5C302.09 372.599 301.452 373.735 300.175 374.277C298.631 374.93 296.945 375.041 295.634 374.988C294.229 374.93 292.938 374.349 292.23 373.416L292.219 373.403C293.629 374.101 295.609 374.184 298.732 373.747H298.733Z" fill="url(#paint19_linear_57_205)"/>
<path d="M289.904 357.574H293.042C297.822 357.476 300.823 367.566 301.805 371.472C301.45 372.513 300.603 373.486 298.73 373.748C295.608 374.183 293.628 374.101 292.217 373.403C289.635 370.002 288.355 365.023 287.739 362.116C287.038 358.81 289.903 357.576 289.903 357.576L289.904 357.574Z" fill="url(#paint20_linear_57_205)"/>
<path d="M292.639 351.029L294.381 357.964C294.595 358.814 294.188 359.694 293.402 360.098C292.427 360.599 291.055 361.124 289.794 360.972C289.201 360.899 288.707 360.482 288.511 359.922L285.953 352.625L292.639 351.027V351.029Z" fill="#ED8373"/>
<path d="M294.718 353.032C292.551 354.957 285.499 355.211 285.499 355.211C260.097 294.203 249.506 277.408 249.506 277.408C253.174 300.436 250.297 359.543 250.297 359.543C246.105 361.394 240.7 359.543 240.7 359.543C240.36 321.844 235.056 281.335 228.216 255.415C245.384 255.029 254.715 251.284 257.696 248.925C272.008 272.013 294.72 353.034 294.72 353.034L294.718 353.032Z" fill="url(#paint21_linear_57_205)"/>
<path d="M223.889 272.463L227.048 292.126C227.599 295.554 230.774 297.933 234.233 297.51L281.517 291.738C283.83 291.456 285.584 289.522 285.631 287.202C285.731 282.122 285.533 273.08 283.402 264.842L223.889 272.462V272.463Z" fill="url(#paint22_linear_57_205)"/>
<path d="M235.829 296.192C235.751 296.192 235.684 296.134 235.675 296.056C235.664 295.97 235.725 295.893 235.811 295.883L237.046 295.732C237.136 295.723 237.209 295.783 237.219 295.868C237.229 295.954 237.168 296.032 237.084 296.041L235.849 296.192C235.849 296.192 235.837 296.192 235.83 296.192H235.829ZM232.947 296.138C232.934 296.138 232.922 296.136 232.909 296.132C232.498 296.03 232.094 295.886 231.711 295.704C231.633 295.667 231.6 295.573 231.637 295.497C231.675 295.419 231.769 295.387 231.844 295.423C232.208 295.598 232.592 295.734 232.983 295.832C233.066 295.852 233.118 295.936 233.096 296.021C233.079 296.092 233.016 296.139 232.945 296.139L232.947 296.138ZM239.947 295.69C239.869 295.69 239.803 295.632 239.793 295.553C239.782 295.468 239.843 295.389 239.928 295.38L241.163 295.229C241.246 295.216 241.324 295.279 241.335 295.365C241.346 295.449 241.285 295.528 241.199 295.538L239.964 295.689C239.964 295.689 239.952 295.689 239.945 295.689L239.947 295.69ZM244.063 295.188C243.986 295.188 243.919 295.129 243.91 295.052C243.899 294.966 243.96 294.888 244.044 294.879L245.279 294.728C245.369 294.714 245.442 294.778 245.452 294.864C245.463 294.95 245.402 295.027 245.317 295.037L244.082 295.188C244.082 295.188 244.07 295.188 244.063 295.188ZM248.18 294.686C248.103 294.686 248.036 294.627 248.026 294.55C248.016 294.464 248.077 294.386 248.161 294.377L249.396 294.226C249.486 294.216 249.559 294.276 249.569 294.36C249.58 294.446 249.518 294.524 249.434 294.533L248.199 294.684C248.199 294.684 248.187 294.684 248.18 294.684V294.686ZM252.297 294.184C252.219 294.184 252.153 294.125 252.143 294.047C252.132 293.962 252.194 293.884 252.279 293.875L253.514 293.724C253.604 293.711 253.677 293.774 253.687 293.86C253.698 293.945 253.636 294.023 253.552 294.032L252.317 294.184C252.317 294.184 252.305 294.184 252.298 294.184H252.297ZM229.539 293.914C229.492 293.914 229.446 293.894 229.416 293.853C229.156 293.517 228.931 293.152 228.744 292.77C228.706 292.692 228.739 292.599 228.816 292.561C228.894 292.525 228.986 292.556 229.024 292.633C229.201 292.997 229.416 293.344 229.662 293.662C229.715 293.73 229.703 293.828 229.635 293.88C229.607 293.902 229.573 293.913 229.54 293.913L229.539 293.914ZM256.414 293.68C256.336 293.68 256.269 293.621 256.26 293.544C256.249 293.458 256.31 293.381 256.395 293.371L257.629 293.22C257.719 293.206 257.793 293.27 257.802 293.355C257.813 293.44 257.752 293.518 257.668 293.528L256.433 293.679C256.433 293.679 256.42 293.679 256.414 293.679V293.68ZM260.53 293.178C260.453 293.178 260.386 293.119 260.377 293.042C260.366 292.956 260.427 292.878 260.511 292.869L261.746 292.718C261.829 292.708 261.908 292.768 261.919 292.853C261.93 292.938 261.869 293.016 261.783 293.025L260.548 293.176C260.548 293.176 260.536 293.176 260.529 293.176L260.53 293.178ZM264.647 292.676C264.57 292.676 264.503 292.617 264.493 292.54C264.483 292.454 264.544 292.376 264.629 292.367L265.864 292.216C265.954 292.205 266.028 292.266 266.037 292.35C266.048 292.436 265.987 292.514 265.902 292.523L264.667 292.674C264.667 292.674 264.655 292.674 264.648 292.674L264.647 292.676ZM268.764 292.173C268.686 292.173 268.62 292.115 268.61 292.037C268.599 291.952 268.66 291.874 268.745 291.865L269.98 291.713C270.069 291.7 270.143 291.764 270.152 291.85C270.163 291.935 270.102 292.013 270.018 292.022L268.783 292.173C268.783 292.173 268.771 292.173 268.764 292.173ZM272.881 291.671C272.803 291.671 272.736 291.613 272.727 291.535C272.716 291.449 272.777 291.372 272.863 291.362L274.098 291.211C274.188 291.202 274.261 291.262 274.271 291.347C274.281 291.433 274.22 291.511 274.136 291.52L272.901 291.671C272.901 291.671 272.889 291.671 272.882 291.671H272.881ZM276.997 291.169C276.92 291.169 276.853 291.111 276.844 291.033C276.833 290.947 276.894 290.87 276.98 290.86L278.215 290.709C278.304 290.698 278.378 290.759 278.387 290.844C278.398 290.93 278.337 291.007 278.253 291.017L277.018 291.168C277.018 291.168 277.005 291.168 276.999 291.168L276.997 291.169ZM281.096 290.57C281.032 290.57 280.971 290.529 280.95 290.466C280.922 290.384 280.964 290.295 281.046 290.268C281.424 290.138 281.783 289.955 282.112 289.725C282.182 289.676 282.28 289.692 282.329 289.763C282.378 289.834 282.361 289.931 282.29 289.98C281.937 290.226 281.552 290.422 281.147 290.562C281.13 290.568 281.113 290.57 281.096 290.57ZM228.168 290.057C228.093 290.057 228.026 290.003 228.014 289.927L227.817 288.698C227.803 288.613 227.86 288.533 227.946 288.519C228.032 288.506 228.111 288.563 228.124 288.649L228.321 289.878C228.335 289.962 228.278 290.042 228.192 290.056C228.184 290.056 228.176 290.059 228.168 290.059V290.057ZM283.89 287.708C283.875 287.708 283.859 287.706 283.844 287.7C283.762 287.674 283.716 287.587 283.743 287.506C283.863 287.124 283.929 286.727 283.939 286.324C283.942 286.24 284.011 286.172 284.094 286.172H284.098C284.184 286.175 284.252 286.245 284.25 286.331C284.239 286.762 284.169 287.19 284.039 287.598C284.019 287.665 283.958 287.707 283.891 287.707L283.89 287.708ZM227.509 285.96C227.435 285.96 227.368 285.905 227.356 285.829L227.159 284.6C227.145 284.516 227.202 284.435 227.288 284.422C227.376 284.407 227.452 284.467 227.466 284.551L227.663 285.78C227.677 285.864 227.62 285.945 227.534 285.958C227.526 285.958 227.518 285.961 227.509 285.961V285.96ZM284.11 283.579C284.024 283.579 283.955 283.51 283.955 283.426C283.951 283.024 283.946 282.609 283.936 282.182C283.935 282.096 284.003 282.025 284.088 282.022C284.181 282.007 284.245 282.089 284.248 282.175C284.256 282.603 284.262 283.02 284.267 283.423C284.267 283.509 284.199 283.579 284.113 283.579H284.11ZM226.851 281.86C226.776 281.86 226.71 281.806 226.698 281.73L226.5 280.501C226.487 280.417 226.544 280.336 226.63 280.323C226.715 280.31 226.794 280.366 226.808 280.452L227.005 281.681C227.018 281.765 226.961 281.845 226.876 281.859C226.868 281.859 226.859 281.862 226.851 281.862V281.86ZM283.988 279.43C283.906 279.43 283.837 279.366 283.833 279.281C283.812 278.875 283.788 278.461 283.762 278.04C283.757 277.955 283.822 277.88 283.908 277.874C284.011 277.881 284.068 277.934 284.073 278.02C284.101 278.442 284.124 278.857 284.144 279.265C284.148 279.351 284.083 279.424 283.997 279.428C283.995 279.428 283.992 279.428 283.989 279.428L283.988 279.43ZM226.192 277.763C226.117 277.763 226.05 277.708 226.038 277.632L225.841 276.403C225.827 276.319 225.884 276.239 225.97 276.225C226.058 276.211 226.134 276.27 226.148 276.354L226.345 277.583C226.359 277.667 226.302 277.748 226.216 277.761C226.208 277.761 226.2 277.764 226.192 277.764V277.763ZM283.684 275.289C283.606 275.289 283.538 275.229 283.529 275.148C283.49 274.74 283.446 274.328 283.4 273.913C283.391 273.827 283.452 273.751 283.538 273.741C283.622 273.73 283.699 273.793 283.709 273.879C283.757 274.295 283.799 274.709 283.84 275.12C283.848 275.206 283.785 275.282 283.699 275.29C283.694 275.29 283.69 275.29 283.684 275.29V275.289ZM225.533 273.665C225.459 273.665 225.392 273.611 225.38 273.534L225.157 272.146L226.296 272.001C226.385 271.987 226.46 272.051 226.47 272.135C226.481 272.221 226.421 272.299 226.336 272.31L225.516 272.414L225.687 273.485C225.701 273.57 225.644 273.65 225.558 273.664C225.55 273.664 225.542 273.666 225.533 273.666V273.665ZM229.196 271.942C229.118 271.942 229.052 271.885 229.042 271.806C229.031 271.72 229.091 271.643 229.177 271.632L230.412 271.474C230.511 271.462 230.575 271.524 230.586 271.609C230.597 271.694 230.537 271.772 230.451 271.783L229.216 271.941C229.209 271.941 229.203 271.941 229.196 271.941V271.942ZM233.31 271.415C233.232 271.415 233.166 271.358 233.156 271.279C233.145 271.194 233.205 271.116 233.291 271.105L234.526 270.947C234.624 270.935 234.689 270.996 234.7 271.082C234.711 271.168 234.651 271.245 234.565 271.256L233.33 271.414C233.323 271.414 233.317 271.414 233.31 271.414V271.415ZM283.177 271.17C283.101 271.17 283.036 271.115 283.024 271.038C282.962 270.63 282.896 270.221 282.826 269.811C282.813 269.727 282.87 269.646 282.954 269.631C283.043 269.618 283.12 269.675 283.134 269.759C283.203 270.17 283.27 270.581 283.331 270.992C283.343 271.077 283.286 271.157 283.2 271.169C283.192 271.169 283.184 271.17 283.177 271.17ZM237.424 270.889C237.346 270.889 237.28 270.832 237.27 270.753C237.259 270.667 237.319 270.589 237.405 270.578L238.64 270.421C238.738 270.41 238.803 270.471 238.814 270.555C238.825 270.641 238.765 270.719 238.679 270.73L237.444 270.887C237.437 270.887 237.431 270.887 237.424 270.887V270.889ZM241.538 270.362C241.46 270.362 241.394 270.305 241.384 270.226C241.373 270.14 241.433 270.063 241.519 270.052L242.754 269.894C242.85 269.884 242.917 269.944 242.928 270.029C242.939 270.114 242.879 270.192 242.793 270.203L241.558 270.361C241.551 270.361 241.545 270.361 241.538 270.361V270.362ZM245.652 269.835C245.574 269.835 245.508 269.778 245.498 269.699C245.487 269.614 245.547 269.536 245.633 269.525L246.868 269.367C246.964 269.359 247.031 269.418 247.042 269.502C247.053 269.588 246.993 269.665 246.907 269.676L245.672 269.834C245.666 269.834 245.659 269.834 245.652 269.834V269.835ZM249.766 269.309C249.688 269.309 249.622 269.252 249.612 269.173C249.601 269.087 249.661 269.009 249.747 268.998L250.982 268.841C251.077 268.827 251.145 268.891 251.156 268.975C251.167 269.061 251.107 269.139 251.021 269.15L249.786 269.307C249.78 269.307 249.773 269.307 249.766 269.307V269.309ZM253.88 268.782C253.802 268.782 253.736 268.725 253.726 268.646C253.715 268.56 253.775 268.483 253.861 268.472L255.096 268.314C255.184 268.302 255.259 268.363 255.27 268.449C255.281 268.534 255.221 268.612 255.135 268.623L253.9 268.781C253.9 268.781 253.887 268.781 253.88 268.781V268.782ZM257.994 268.255C257.916 268.255 257.85 268.198 257.84 268.119C257.829 268.034 257.889 267.956 257.975 267.945L259.21 267.787C259.304 267.776 259.373 267.838 259.384 267.922C259.395 268.008 259.335 268.085 259.249 268.096L258.014 268.254C258.008 268.254 258.001 268.254 257.994 268.254V268.255ZM262.108 267.729C262.03 267.729 261.964 267.672 261.954 267.593C261.943 267.507 262.003 267.429 262.089 267.418L263.324 267.261C263.423 267.251 263.487 267.311 263.498 267.395C263.509 267.481 263.449 267.559 263.363 267.569L262.128 267.727C262.122 267.727 262.115 267.727 262.108 267.727V267.729ZM266.222 267.202C266.144 267.202 266.078 267.145 266.068 267.066C266.057 266.98 266.117 266.903 266.203 266.892L267.438 266.734C267.536 266.724 267.601 266.784 267.612 266.869C267.623 266.954 267.563 267.032 267.477 267.043L266.242 267.201C266.236 267.201 266.229 267.201 266.222 267.201V267.202ZM282.426 267.09C282.354 267.09 282.29 267.041 282.274 266.968C282.186 266.564 282.092 266.16 281.995 265.758C281.975 265.675 282.027 265.591 282.11 265.57C282.195 265.549 282.278 265.602 282.297 265.685C282.395 266.089 282.489 266.494 282.579 266.901C282.596 266.984 282.543 267.069 282.46 267.086C282.45 267.089 282.439 267.09 282.428 267.09H282.426ZM270.336 266.675C270.259 266.675 270.192 266.618 270.182 266.539C270.171 266.454 270.231 266.376 270.317 266.365L271.552 266.207C271.65 266.194 271.715 266.258 271.726 266.342C271.737 266.428 271.677 266.505 271.591 266.516L270.356 266.674C270.35 266.674 270.343 266.674 270.336 266.674V266.675ZM274.45 266.149C274.373 266.149 274.306 266.092 274.296 266.013C274.285 265.927 274.345 265.849 274.431 265.838L275.666 265.681C275.762 265.668 275.829 265.731 275.84 265.815C275.851 265.901 275.791 265.979 275.705 265.989L274.47 266.147C274.464 266.147 274.457 266.147 274.45 266.147V266.149ZM278.564 265.622C278.487 265.622 278.42 265.565 278.41 265.486C278.399 265.4 278.459 265.323 278.545 265.312L279.78 265.154C279.876 265.142 279.943 265.204 279.954 265.289C279.965 265.374 279.905 265.452 279.819 265.463L278.584 265.621C278.578 265.621 278.571 265.621 278.564 265.621V265.622Z" fill="white"/>
<path d="M235.903 256.359L235.85 254.818C235.965 254.435 236.265 254.134 236.65 254.021C238.092 253.598 241.69 252.718 243.616 253.807L244.104 255.542L235.902 256.357L235.903 256.359Z" fill="url(#paint23_linear_57_205)"/>
<path d="M240.314 254.305C239.986 254.431 239.646 254.473 239.295 254.434C238.871 254.385 238.534 254.054 238.479 253.632L237.87 248.865L240.295 248.555L240.904 253.319C240.959 253.744 240.715 254.152 240.314 254.306V254.305Z" fill="url(#paint24_linear_57_205)"/>
<path d="M259.389 253.351L259.336 251.81C259.451 251.427 259.751 251.126 260.136 251.013C261.578 250.59 265.176 249.711 267.102 250.799L267.59 252.534L259.388 253.35L259.389 253.351Z" fill="url(#paint25_linear_57_205)"/>
<path d="M263.8 251.297C263.472 251.424 263.132 251.466 262.781 251.427C262.357 251.378 262.02 251.047 261.965 250.625L261.292 245.354L263.717 245.044L264.39 250.311C264.445 250.735 264.201 251.144 263.8 251.297Z" fill="url(#paint26_linear_57_205)"/>
<path d="M237.772 250.064L263.739 245.861C264.33 245.766 264.78 245.272 264.808 244.675C264.846 243.839 264.816 242.601 264.466 241.357C264.068 239.943 262.693 239.03 261.225 239.182C256.346 239.69 243.962 241.278 237.482 244.854C236.797 245.233 236.34 245.919 236.254 246.694C236.171 247.433 236.178 248.406 236.53 249.352C236.718 249.854 237.242 250.15 237.773 250.064H237.772Z" fill="url(#paint27_linear_57_205)"/>
<path d="M237.133 249.065C236.944 249.065 236.774 248.936 236.729 248.744C236.72 248.701 236.487 247.68 236.628 246.65C236.745 245.805 237.306 245.066 238.093 244.721C239.505 244.102 242.215 243.012 244.508 242.653C244.737 242.623 244.946 242.772 244.983 242.998C245.018 243.224 244.863 243.437 244.637 243.473C242.355 243.831 239.533 244.998 238.426 245.482C237.901 245.712 237.529 246.203 237.451 246.764C237.332 247.639 237.536 248.55 237.538 248.559C237.59 248.782 237.45 249.005 237.227 249.056C237.196 249.064 237.164 249.067 237.133 249.067V249.065Z" fill="url(#paint28_linear_57_205)"/>
<path d="M223.729 257.314C232.139 256.127 268.535 251.077 279.285 251.001C280.211 250.994 281.039 251.565 281.351 252.434C282.338 255.184 284.438 261.597 285.122 268.132C285.215 269.022 284.661 269.852 283.807 270.131L260.227 277.8L251.643 278.899L225.24 277.074C224.309 277.01 223.541 276.327 223.376 275.411C222.79 272.155 221.545 264.495 221.797 259.43C221.852 258.354 222.657 257.465 223.727 257.314H223.729Z" fill="url(#paint29_linear_57_205)"/>
<path d="M251.602 276.942L250.33 276.858C250.245 276.851 250.18 276.777 250.186 276.692C250.193 276.606 250.273 276.547 250.352 276.547L251.594 276.633L252.259 276.545C252.358 276.537 252.422 276.595 252.433 276.679C252.444 276.765 252.384 276.843 252.298 276.854L251.603 276.942H251.602ZM247.445 276.658C247.445 276.658 247.438 276.658 247.434 276.658L246.192 276.572C246.106 276.565 246.041 276.492 246.048 276.406C246.055 276.32 246.133 276.26 246.214 276.262L247.455 276.347C247.541 276.354 247.606 276.428 247.6 276.513C247.594 276.595 247.526 276.659 247.445 276.659V276.658ZM255.157 276.486C255.08 276.486 255.013 276.429 255.003 276.35C254.993 276.264 255.052 276.187 255.138 276.176L256.373 276.018C256.471 276.006 256.536 276.068 256.547 276.153C256.558 276.238 256.498 276.316 256.412 276.327L255.178 276.485C255.171 276.485 255.164 276.485 255.157 276.485V276.486ZM243.306 276.372C243.306 276.372 243.299 276.372 243.295 276.372L242.054 276.286C241.968 276.279 241.903 276.206 241.909 276.12C241.916 276.034 241.994 275.973 242.075 275.976L243.317 276.062C243.403 276.068 243.468 276.142 243.461 276.228C243.456 276.309 243.388 276.373 243.306 276.373V276.372ZM239.169 276.086C239.169 276.086 239.162 276.086 239.158 276.086L237.916 276C237.831 275.994 237.765 275.92 237.772 275.834C237.779 275.749 237.854 275.687 237.938 275.69L239.18 275.776C239.265 275.783 239.331 275.856 239.324 275.942C239.319 276.023 239.251 276.087 239.169 276.087V276.086ZM259.271 275.96C259.194 275.96 259.127 275.902 259.117 275.823C259.107 275.738 259.166 275.66 259.252 275.649L259.747 275.585L260.429 275.361C260.51 275.336 260.599 275.38 260.624 275.46C260.652 275.542 260.605 275.63 260.525 275.656L259.815 275.886L259.293 275.955C259.286 275.955 259.279 275.955 259.273 275.955L259.271 275.96ZM235.03 275.8C235.03 275.8 235.024 275.8 235.02 275.8L233.778 275.715C233.692 275.708 233.627 275.634 233.634 275.549C233.64 275.463 233.715 275.411 233.8 275.404L235.041 275.49C235.127 275.497 235.192 275.57 235.185 275.656C235.18 275.738 235.112 275.802 235.03 275.802V275.8ZM230.892 275.514C230.892 275.514 230.885 275.514 230.881 275.514L229.639 275.429C229.554 275.422 229.488 275.348 229.495 275.263C229.502 275.177 229.575 275.124 229.661 275.118L230.903 275.204C230.988 275.211 231.054 275.284 231.047 275.37C231.042 275.452 230.974 275.516 230.892 275.516V275.514ZM226.753 275.229C226.753 275.229 226.747 275.229 226.743 275.229L225.501 275.143C225.415 275.136 225.35 275.063 225.357 274.977C225.364 274.891 225.445 274.838 225.523 274.833L226.764 274.918C226.85 274.925 226.915 274.999 226.908 275.084C226.903 275.166 226.835 275.23 226.753 275.23V275.229ZM263.234 274.767C263.169 274.767 263.108 274.725 263.086 274.66C263.059 274.578 263.105 274.49 263.185 274.464L264.368 274.079C264.45 274.054 264.538 274.098 264.564 274.178C264.591 274.26 264.545 274.348 264.465 274.374L263.282 274.759C263.265 274.765 263.249 274.767 263.234 274.767ZM267.178 273.484C267.113 273.484 267.052 273.442 267.03 273.376C267.003 273.295 267.049 273.206 267.129 273.181L268.312 272.795C268.393 272.771 268.482 272.814 268.508 272.895C268.535 272.976 268.489 273.065 268.409 273.091L267.226 273.476C267.21 273.481 267.193 273.484 267.178 273.484ZM224.961 272.349C224.885 272.349 224.82 272.295 224.807 272.217C224.745 271.824 224.682 271.411 224.618 270.983C224.606 270.898 224.664 270.818 224.75 270.806C224.832 270.792 224.915 270.852 224.927 270.938C224.989 271.364 225.053 271.776 225.115 272.168C225.128 272.252 225.07 272.333 224.985 272.346C224.977 272.346 224.969 272.349 224.961 272.349ZM271.122 272.201C271.057 272.201 270.996 272.158 270.974 272.093C270.947 272.012 270.993 271.923 271.073 271.897L272.256 271.512C272.339 271.488 272.426 271.531 272.452 271.611C272.48 271.693 272.433 271.781 272.353 271.807L271.17 272.193C271.154 272.198 271.137 272.201 271.122 272.201ZM275.066 270.917C275.001 270.917 274.94 270.875 274.918 270.81C274.891 270.728 274.937 270.64 275.017 270.614L276.2 270.229C276.282 270.204 276.37 270.248 276.396 270.328C276.424 270.41 276.377 270.498 276.297 270.524L275.114 270.909C275.098 270.915 275.081 270.917 275.066 270.917ZM279.01 269.634C278.945 269.634 278.884 269.592 278.862 269.526C278.835 269.445 278.881 269.356 278.961 269.331L280.145 268.945C280.226 268.921 280.315 268.964 280.34 269.045C280.368 269.126 280.321 269.215 280.241 269.241L279.058 269.626C279.042 269.631 279.025 269.634 279.01 269.634ZM282.954 268.351C282.889 268.351 282.828 268.308 282.806 268.243C282.787 268.185 282.806 268.125 282.845 268.084C282.806 267.729 282.763 267.375 282.715 267.021C282.704 266.935 282.764 266.858 282.848 266.845C282.935 266.832 283.011 266.894 283.024 266.979C283.077 267.371 283.124 267.765 283.168 268.159L283.181 268.285L283.003 268.342C282.987 268.348 282.972 268.351 282.956 268.351H282.954ZM224.38 268.235C224.303 268.235 224.236 268.176 224.227 268.099C224.176 267.689 224.129 267.276 224.084 266.859C224.074 266.773 224.137 266.697 224.221 266.688C224.312 266.682 224.383 266.741 224.392 266.825C224.437 267.24 224.485 267.652 224.535 268.061C224.546 268.146 224.485 268.224 224.401 268.234C224.394 268.234 224.388 268.234 224.382 268.234L224.38 268.235ZM282.399 264.288C282.326 264.288 282.261 264.237 282.247 264.162C282.168 263.752 282.087 263.345 282.002 262.944C281.985 262.859 282.038 262.776 282.122 262.759C282.21 262.742 282.289 262.795 282.307 262.878C282.393 263.283 282.474 263.691 282.553 264.102C282.569 264.186 282.514 264.268 282.429 264.284C282.42 264.287 282.409 264.287 282.401 264.287L282.399 264.288ZM223.976 264.103C223.895 264.103 223.827 264.041 223.821 263.958C223.793 263.537 223.768 263.121 223.749 262.71C223.745 262.624 223.812 262.55 223.897 262.548C223.991 262.531 224.057 262.61 224.059 262.696C224.078 263.103 224.103 263.518 224.131 263.936C224.137 264.022 224.073 264.095 223.987 264.102C223.983 264.102 223.98 264.102 223.976 264.102V264.103ZM281.494 260.237C281.424 260.237 281.36 260.191 281.343 260.12C281.238 259.709 281.131 259.307 281.024 258.918C281.001 258.835 281.05 258.749 281.133 258.728C281.219 258.703 281.302 258.755 281.324 258.836C281.431 259.228 281.537 259.631 281.643 260.042C281.665 260.125 281.615 260.211 281.532 260.231C281.518 260.234 281.506 260.237 281.492 260.237H281.494ZM223.88 259.954C223.88 259.954 223.876 259.954 223.873 259.954C223.787 259.951 223.721 259.878 223.723 259.792L223.734 259.526C223.741 259.379 223.851 259.258 223.994 259.238L224.761 259.13C224.847 259.111 224.926 259.177 224.936 259.262C224.949 259.348 224.889 259.426 224.805 259.438L224.039 259.546L224.033 259.804C224.031 259.887 223.961 259.954 223.878 259.954H223.88ZM227.662 259.038C227.586 259.038 227.519 258.981 227.508 258.903C227.496 258.819 227.556 258.74 227.641 258.728L228.875 258.557C228.968 258.543 229.038 258.605 229.05 258.691C229.063 258.777 229.003 258.854 228.917 258.866L227.684 259.037C227.677 259.037 227.67 259.038 227.662 259.038ZM231.772 258.473C231.694 258.473 231.629 258.416 231.618 258.338C231.606 258.253 231.666 258.175 231.751 258.163L232.985 257.994C233.073 257.983 233.148 258.043 233.16 258.127C233.171 258.212 233.113 258.291 233.027 258.303L231.794 258.47C231.785 258.47 231.779 258.472 231.772 258.472V258.473ZM235.885 257.918C235.807 257.918 235.74 257.861 235.731 257.783C235.72 257.697 235.78 257.62 235.864 257.608L237.099 257.443C237.181 257.432 237.262 257.492 237.273 257.578C237.284 257.662 237.224 257.741 237.138 257.752L235.905 257.917C235.898 257.917 235.891 257.917 235.885 257.917V257.918ZM239.997 257.371C239.92 257.371 239.853 257.314 239.843 257.235C239.833 257.149 239.892 257.071 239.978 257.06L241.213 256.899C241.299 256.885 241.376 256.948 241.387 257.033C241.398 257.119 241.338 257.197 241.252 257.207L240.018 257.369C240.011 257.369 240.004 257.369 239.997 257.369V257.371ZM244.113 256.836C244.035 256.836 243.968 256.779 243.959 256.7C243.948 256.614 244.008 256.537 244.094 256.526L245.328 256.366C245.418 256.354 245.492 256.417 245.502 256.501C245.513 256.586 245.454 256.664 245.368 256.675L244.134 256.835C244.134 256.835 244.121 256.835 244.114 256.835L244.113 256.836ZM248.254 256.309L248.214 256L249.441 255.847C249.529 255.836 249.604 255.897 249.615 255.981C249.626 256.067 249.565 256.145 249.48 256.155L248.254 256.309ZM280.359 256.244C280.293 256.244 280.232 256.2 280.211 256.135C280.079 255.712 279.951 255.317 279.832 254.951C279.805 254.869 279.849 254.781 279.931 254.755C280.013 254.728 280.101 254.773 280.127 254.854C280.248 255.222 280.376 255.619 280.509 256.043C280.535 256.124 280.489 256.213 280.407 256.237C280.392 256.243 280.376 256.244 280.361 256.244H280.359ZM252.343 255.802C252.266 255.802 252.199 255.743 252.19 255.666C252.179 255.58 252.24 255.502 252.324 255.493L253.56 255.342C253.643 255.332 253.722 255.392 253.733 255.478C253.744 255.562 253.683 255.641 253.597 255.651L252.362 255.802C252.362 255.802 252.35 255.802 252.343 255.802ZM256.461 255.306C256.384 255.306 256.316 255.248 256.308 255.169C256.298 255.083 256.358 255.006 256.444 254.996L257.68 254.852C257.771 254.841 257.843 254.903 257.853 254.988C257.862 255.074 257.802 255.151 257.717 255.161L256.48 255.305C256.48 255.305 256.468 255.305 256.463 255.305L256.461 255.306ZM260.582 254.831C260.503 254.831 260.437 254.773 260.427 254.693C260.418 254.607 260.479 254.531 260.565 254.521L261.801 254.384C261.886 254.377 261.964 254.435 261.972 254.521C261.982 254.607 261.92 254.683 261.835 254.693L260.599 254.83C260.599 254.83 260.588 254.83 260.581 254.83L260.582 254.831ZM264.706 254.381C264.627 254.381 264.559 254.321 264.551 254.242C264.541 254.156 264.604 254.08 264.689 254.071L265.927 253.941C266.011 253.933 266.089 253.994 266.098 254.08C266.108 254.166 266.045 254.242 265.96 254.252L264.723 254.381C264.723 254.381 264.713 254.381 264.707 254.381H264.706ZM268.833 253.964C268.753 253.964 268.686 253.903 268.678 253.823C268.67 253.737 268.733 253.661 268.818 253.653C269.241 253.612 269.655 253.574 270.057 253.537C270.147 253.526 270.219 253.593 270.226 253.677C270.234 253.763 270.17 253.839 270.086 253.846C269.682 253.883 269.27 253.922 268.847 253.962C268.841 253.962 268.837 253.962 268.832 253.962L268.833 253.964ZM272.965 253.597C272.885 253.597 272.817 253.534 272.81 253.454C272.803 253.368 272.867 253.293 272.953 253.287C273.381 253.253 273.795 253.22 274.194 253.191C274.294 253.198 274.355 253.25 274.362 253.336C274.369 253.421 274.303 253.496 274.218 253.503C273.818 253.532 273.406 253.564 272.977 253.598C272.973 253.598 272.969 253.598 272.965 253.598V253.597ZM277.104 253.322C277.021 253.322 276.953 253.257 276.949 253.174C276.944 253.088 277.011 253.015 277.097 253.01C277.541 252.989 277.958 252.972 278.343 252.961H278.348C278.432 252.961 278.502 253.028 278.503 253.113C278.506 253.198 278.438 253.27 278.352 253.273C277.967 253.284 277.554 253.3 277.112 253.322C277.109 253.322 277.106 253.322 277.104 253.322Z" fill="white"/>
<path d="M259.88 281.509L252.359 282.473C251.373 282.599 250.45 281.972 250.209 281.013L248.414 273.883C248.129 272.746 248.902 271.617 250.069 271.467L259.104 270.31C260.246 270.163 261.268 271.025 261.312 272.172L261.594 279.496C261.633 280.508 260.889 281.383 259.882 281.512L259.88 281.509Z" fill="url(#paint30_linear_57_205)"/>
<path d="M258.784 280.295L253.06 281.029C252.309 281.126 251.606 280.648 251.422 279.917L250.057 274.49C249.839 273.626 250.43 272.766 251.316 272.651L258.193 271.771C259.062 271.659 259.84 272.315 259.874 273.187L260.087 278.762C260.117 279.532 259.551 280.197 258.784 280.295Z" fill="url(#paint31_linear_57_205)"/>
<path d="M254.311 222.591C256.085 229.925 256.132 237.101 255.862 239.712C255.76 240.697 254.968 241.466 253.982 241.536C252.86 241.615 251.334 241.717 249.97 241.796C248.471 241.883 246.807 240.934 245.694 240.142C245.126 239.738 244.391 240.368 244.708 240.989C245.255 242.058 246.204 242.902 247.147 243.618C247.714 244.049 249.597 244.814 249.467 245.663C249.425 245.932 249.264 246.164 249.09 246.373C248.043 247.63 246.459 248.301 244.896 248.781C244.7 248.841 244.492 248.905 244.355 249.058C244.315 250.069 247.426 251.193 248.229 251.46C249.432 251.86 250.707 252.028 251.971 251.895C255.1 251.566 257.99 249.403 259.676 246.797C264.182 239.829 266.512 231.416 267.363 224.982C263.172 220.789 256.844 221.852 254.311 222.589V222.591Z" fill="#ED8373"/>
<path d="M267.363 225.646C270.706 200.377 251.246 180.946 251.246 180.946L239.667 194.453C248.458 205.418 252.636 215.464 254.545 223.356C257.076 222.618 263.172 221.453 267.363 225.646Z" fill="url(#paint32_linear_57_205)"/>
<path d="M254.269 223.232C253.945 223.232 253.652 223.012 253.573 222.684C251.22 212.956 246.26 203.326 238.833 194.061C238.586 193.752 238.635 193.3 238.943 193.052C239.252 192.805 239.703 192.854 239.951 193.163C247.511 202.594 252.564 212.411 254.967 222.346C255.059 222.731 254.823 223.119 254.439 223.212C254.382 223.225 254.326 223.232 254.269 223.232Z" fill="url(#paint33_linear_57_205)"/>
<path d="M97.4565 373.038C97.4579 372.914 97.4497 372.79 97.4185 372.663C95.5566 365.276 86.314 360.674 86.314 360.674L82.6515 360.961C80.5462 367.473 80.8169 371.466 81.1542 373.245C81.1637 373.295 81.1786 373.341 81.1922 373.39C84.2128 373.661 90.4321 373.837 97.4565 373.036V373.038Z" fill="url(#paint34_linear_57_205)"/>
<path d="M81.1921 373.39C81.3553 373.985 81.7933 374.446 82.3549 374.564C86.6526 375.469 93.4839 374.741 96.3508 374.366C96.9832 374.283 97.4456 373.698 97.4565 373.036C90.432 373.836 84.2141 373.659 81.1921 373.39Z" fill="url(#paint35_linear_57_205)"/>
<path d="M81.1786 355.502L82.7304 362.975C82.8447 363.522 83.2649 363.933 83.7736 363.98C84.3964 364.039 85.2845 364.073 86.1767 363.942C86.9764 363.825 87.534 363.011 87.3925 362.138L86.314 355.503H81.1786V355.502Z" fill="#FFAA5F"/>
<path d="M113.318 373.296C109.274 373.183 107.18 372.705 106.099 372.263C106.097 372.666 106.099 373.076 106.112 373.499C106.125 373.952 106.461 374.314 106.873 374.311L129.082 374.168C129.791 374.164 130.205 373.341 129.898 372.691C126.986 372.931 119.57 373.47 113.317 373.295L113.318 373.296Z" fill="url(#paint36_linear_57_205)"/>
<path d="M129.899 372.692C129.872 372.635 129.849 372.578 129.811 372.525C127.85 369.782 122.855 364.321 112.984 361.953L108.248 361.803C108.248 361.803 106.14 365.471 106.099 372.265C107.181 372.707 109.274 373.183 113.318 373.297C119.572 373.473 126.988 372.934 129.899 372.693V372.692Z" fill="url(#paint37_linear_57_205)"/>
<path d="M107.159 354.842C107.234 355.192 108.218 360.507 108.6 362.569C108.692 363.059 109.072 363.418 109.527 363.444C110.337 363.489 111.645 363.495 112.77 363.19C113.377 363.025 113.785 362.406 113.741 361.719L113.211 353.308L107.159 354.842Z" fill="#FFAA5F"/>
<path d="M103.571 256.671C103.571 256.671 110.085 301.463 114.786 354.766C114.873 355.758 114.082 356.622 113.109 356.828C111.673 357.13 109.562 357.489 107.814 357.44C106.881 357.414 106.102 356.721 105.944 355.801C104.342 346.403 92.9154 295.966 89.9152 284.865C89.9152 284.865 86.4703 332.02 87.5719 356.483C87.5991 357.092 87.1544 357.62 86.5492 357.689C85.6325 357.795 84.1651 357.876 82.2978 357.677C81.5892 357.602 81.018 357.066 80.916 356.359C79.775 348.406 73.2089 301.061 73.4891 266.957C73.5054 265.034 75.7439 249.232 75.7439 249.232L103.57 256.673L103.571 256.671Z" fill="url(#paint38_linear_57_205)"/>
<path d="M74.7661 259.252C74.097 259.014 73.6292 258.407 73.5571 257.7C72.6908 249.289 68.4965 197.146 94.9758 175.695C94.9758 175.695 96.4949 171.72 108.976 181.492C121.458 191.265 114.775 201.509 111.787 215.638C108.171 232.735 101.826 246.71 104.633 257.231C104.826 257.957 104.446 258.72 103.741 258.98C94.0456 262.557 84.3868 262.675 74.7661 259.254V259.252Z" fill="url(#paint39_linear_57_205)"/>
<path d="M105.304 160.07C105.295 160.812 94.7214 175.841 94.7214 175.841C94.7214 175.841 96.6186 179.58 105.68 182.618L113.502 166.526L105.304 160.07Z" fill="#F09F5F"/>
<path d="M113.63 151.459C113.63 151.459 117.391 160.108 117.644 164.646C117.897 169.185 118.874 172.131 113.63 173.044C108.384 173.959 103.965 171.343 101.572 166.822C101.572 166.822 97.821 159.854 98.6628 157.002C99.5046 154.148 113.63 151.459 113.63 151.459Z" fill="#FFB573"/>
<path d="M103.364 163.573L103.664 163.441C104.043 163.273 104.206 162.82 104.016 162.451C103.276 161.021 101.834 157.744 103.698 156.98C106.098 155.995 115.607 154.054 117.658 150.678C119.63 147.434 117.882 143.245 115.258 142.052C115.082 141.972 114.874 142.036 114.784 142.206L114.565 142.62C114.416 142.903 113.997 142.861 113.908 142.552C113.823 142.257 113.43 142.199 113.267 142.459C112.635 143.469 110.933 145.108 106.381 145.947C99.9099 147.142 95.6327 149.763 95.5252 154.237C95.5184 154.521 95.2165 154.679 94.9731 154.531C94.4957 154.239 93.7314 154.102 92.7087 154.962C90.9311 156.458 91.6588 160.336 95.5538 163.526C95.7388 163.677 95.7374 163.967 95.5375 164.098C94.8316 164.558 93.779 165.652 96.5058 167.112C99.3278 168.622 101.434 168.498 102.246 168.364C102.448 168.332 102.578 168.136 102.535 167.936L101.668 164.003C101.619 163.779 101.788 163.57 102.017 163.57H103.366L103.364 163.573Z" fill="url(#paint40_linear_57_205)"/>
<path d="M103.528 164.402C103.528 164.402 102.093 158.879 99.6175 160.427C97.1423 161.976 100.901 166.617 102.892 166.824L103.529 164.402H103.528Z" fill="#FFAA5F"/>
<path d="M112.99 186.026L113.719 205.618C115.791 206.331 117.761 206.885 119.638 207.3C120.812 203.517 123.398 198.875 125.515 195.422C117.735 192.67 112.989 186.026 112.989 186.026H112.99Z" fill="url(#paint41_linear_57_205)"/>
<path d="M151.827 185.693C141.156 197.222 132.52 197.901 125.516 195.423C123.399 198.875 120.813 203.517 119.639 207.301C148.134 213.587 154.845 187.374 154.845 187.374L151.827 185.693Z" fill="#FFAA5F"/>
<path d="M153.99 184.469C153.99 184.469 155.22 183.148 157.494 183.563C159.769 183.978 161.794 184.769 163.211 183.563C164.628 182.357 165.128 183.975 165.128 183.975L160.883 187.203L153.99 184.468V184.469Z" fill="#FFAA5F"/>
<path d="M151.453 186.727C151.453 186.727 152.295 183.203 154.832 183.687C157.37 184.17 163.132 187.305 164.618 186.727C166.103 186.15 168.001 184.767 168.975 185.256L167.259 187.391C167.259 187.391 171.671 184.845 172.429 186.41L165.089 190.543C165.089 190.543 154.351 189.466 151.451 186.728L151.453 186.727Z" fill="#FFAA5F"/>
<path d="M101.146 211.669C101.146 211.669 121.208 228.481 142.87 221.145C144.213 220.69 145.682 220.788 146.936 221.451L153.164 224.743C155.778 226.124 159.014 225.218 160.532 222.678C161.397 221.23 162.136 219.575 162.282 217.991L150.097 213.055L150.996 211.56C150.996 211.56 145.046 211.055 143.489 215.323C143.489 215.323 132.156 220.04 113.045 199.004C113.045 199.004 104.372 206.383 101.147 211.669H101.146Z" fill="#FFAA5F"/>
<path d="M100.066 211.496C99.9997 211.496 99.933 211.477 99.8745 211.438C91.4275 205.727 87.4536 196.51 87.4155 196.416C87.3421 196.24 87.4237 196.039 87.5978 195.965C87.7732 195.89 87.9731 195.972 88.0479 196.148C88.086 196.239 91.9865 205.274 100.259 210.869C100.417 210.975 100.458 211.188 100.352 211.346C100.285 211.444 100.178 211.497 100.068 211.497L100.066 211.496Z" fill="url(#paint42_linear_57_205)"/>
<path d="M112.648 198.719C112.535 198.719 112.425 198.663 112.358 198.561C112.332 198.522 109.752 194.502 104.837 185.695C103.326 182.987 101.339 181.272 98.9334 180.599C94.9486 179.484 91.1092 181.622 91.0712 181.644C90.9052 181.735 90.6972 181.681 90.6033 181.514C90.5095 181.35 90.5666 181.14 90.7325 181.046C90.8984 180.952 94.8479 178.741 99.1129 179.936C101.705 180.66 103.832 182.485 105.438 185.36C110.341 194.145 112.912 198.15 112.937 198.19C113.039 198.349 112.994 198.561 112.835 198.665C112.778 198.703 112.713 198.719 112.649 198.719H112.648Z" fill="url(#paint43_linear_57_205)"/>
<defs>
<linearGradient id="paint0_linear_57_205" x1="264.54" y1="230.93" x2="345.588" y2="230.93" gradientUnits="userSpaceOnUse">
<stop stop-color="#4F52FF"/>
<stop offset="1" stop-color="#4042E2"/>
</linearGradient>
<linearGradient id="paint1_linear_57_205" x1="272.575" y1="287.472" x2="320.355" y2="287.472" gradientUnits="userSpaceOnUse">
<stop stop-color="#DAE3FE"/>
<stop offset="1" stop-color="#E9EFFD"/>
</linearGradient>
<linearGradient id="paint2_linear_57_205" x1="275.74" y1="107.227" x2="160.065" y2="-133.058" gradientUnits="userSpaceOnUse">
<stop stop-color="#4042E2"/>
<stop offset="1" stop-color="#4F52FF"/>
</linearGradient>
<linearGradient id="paint3_linear_57_205" x1="216.51" y1="88.6667" x2="-91.6997" y2="482.816" gradientUnits="userSpaceOnUse">
<stop stop-color="white"/>
<stop offset="1" stop-color="white"/>
</linearGradient>
<linearGradient id="paint4_linear_57_205" x1="34.2679" y1="139.747" x2="66.2403" y2="139.747" gradientUnits="userSpaceOnUse">
<stop stop-color="#DAE3FE"/>
<stop offset="1" stop-color="#E9EFFD"/>
</linearGradient>
<linearGradient id="paint5_linear_57_205" x1="75.6257" y1="125.844" x2="211.104" y2="125.844" gradientUnits="userSpaceOnUse">
<stop stop-color="#DAE3FE"/>
<stop offset="1" stop-color="#E9EFFD"/>
</linearGradient>
<linearGradient id="paint6_linear_57_205" x1="78.1103" y1="147.607" x2="169.046" y2="147.607" gradientUnits="userSpaceOnUse">
<stop stop-color="#DAE3FE"/>
<stop offset="1" stop-color="#E9EFFD"/>
</linearGradient>
<linearGradient id="paint7_linear_57_205" x1="34.2679" y1="201.962" x2="66.2403" y2="201.962" gradientUnits="userSpaceOnUse">
<stop stop-color="#DAE3FE"/>
<stop offset="1" stop-color="#E9EFFD"/>
</linearGradient>
<linearGradient id="paint8_linear_57_205" x1="75.6257" y1="188.056" x2="211.104" y2="188.056" gradientUnits="userSpaceOnUse">
<stop stop-color="#DAE3FE"/>
<stop offset="1" stop-color="#E9EFFD"/>
</linearGradient>
<linearGradient id="paint9_linear_57_205" x1="34.2679" y1="264.175" x2="66.2403" y2="264.175" gradientUnits="userSpaceOnUse">
<stop stop-color="#DAE3FE"/>
<stop offset="1" stop-color="#E9EFFD"/>
</linearGradient>
<linearGradient id="paint10_linear_57_205" x1="75.6257" y1="250.27" x2="211.104" y2="250.27" gradientUnits="userSpaceOnUse">
<stop stop-color="#DAE3FE"/>
<stop offset="1" stop-color="#E9EFFD"/>
</linearGradient>
<linearGradient id="paint11_linear_57_205" x1="78.1103" y1="272.033" x2="169.046" y2="272.033" gradientUnits="userSpaceOnUse">
<stop stop-color="#DAE3FE"/>
<stop offset="1" stop-color="#E9EFFD"/>
</linearGradient>
<linearGradient id="paint12_linear_57_205" x1="185.095" y1="250.762" x2="142.48" y2="359.797" gradientUnits="userSpaceOnUse">
<stop stop-color="#09005D"/>
<stop offset="1" stop-color="#1A0F91"/>
</linearGradient>
<linearGradient id="paint13_linear_57_205" x1="153.85" y1="220.343" x2="146.267" y2="221.83" gradientUnits="userSpaceOnUse">
<stop stop-color="#FEBBBA"/>
<stop offset="1" stop-color="#FF928E"/>
</linearGradient>
<linearGradient id="paint14_linear_57_205" x1="251.971" y1="94.5288" x2="230.514" y2="136.81" gradientUnits="userSpaceOnUse">
<stop stop-color="#09005D"/>
<stop offset="1" stop-color="#1A0F91"/>
</linearGradient>
<linearGradient id="paint15_linear_57_205" x1="286.195" y1="111.898" x2="264.739" y2="154.178" gradientUnits="userSpaceOnUse">
<stop stop-color="#09005D"/>
<stop offset="1" stop-color="#1A0F91"/>
</linearGradient>
<linearGradient id="paint16_linear_57_205" x1="227.736" y1="168.874" x2="211.119" y2="151.234" gradientUnits="userSpaceOnUse">
<stop stop-color="#09005D"/>
<stop offset="1" stop-color="#1A0F91"/>
</linearGradient>
<linearGradient id="paint17_linear_57_205" x1="251.633" y1="373.78" x2="226.43" y2="373.78" gradientUnits="userSpaceOnUse">
<stop stop-color="#4042E2"/>
<stop offset="1" stop-color="#4F52FF"/>
</linearGradient>
<linearGradient id="paint18_linear_57_205" x1="312.465" y1="350.183" x2="221.198" y2="376.18" gradientUnits="userSpaceOnUse">
<stop stop-color="#09005D"/>
<stop offset="1" stop-color="#1A0F91"/>
</linearGradient>
<linearGradient id="paint19_linear_57_205" x1="301.877" y1="373.235" x2="292.22" y2="373.235" gradientUnits="userSpaceOnUse">
<stop stop-color="#4042E2"/>
<stop offset="1" stop-color="#4F52FF"/>
</linearGradient>
<linearGradient id="paint20_linear_57_205" x1="261.591" y1="344.893" x2="318.484" y2="381.916" gradientUnits="userSpaceOnUse">
<stop stop-color="#09005D"/>
<stop offset="1" stop-color="#1A0F91"/>
</linearGradient>
<linearGradient id="paint21_linear_57_205" x1="295.635" y1="368.479" x2="166.06" y2="189.454" gradientUnits="userSpaceOnUse">
<stop stop-color="#09005D"/>
<stop offset="1" stop-color="#1A0F91"/>
</linearGradient>
<linearGradient id="paint22_linear_57_205" x1="264.509" y1="345.157" x2="254.477" y2="273.104" gradientUnits="userSpaceOnUse">
<stop stop-color="#FF928E"/>
<stop offset="1" stop-color="#FE7062"/>
</linearGradient>
<linearGradient id="paint23_linear_57_205" x1="240.679" y1="259.763" x2="239.252" y2="251.385" gradientUnits="userSpaceOnUse">
<stop stop-color="#E1473D"/>
<stop offset="1" stop-color="#E9605A"/>
</linearGradient>
<linearGradient id="paint24_linear_57_205" x1="238.621" y1="247.174" x2="243.452" y2="271.086" gradientUnits="userSpaceOnUse">
<stop stop-color="#E1473D"/>
<stop offset="1" stop-color="#E9605A"/>
</linearGradient>
<linearGradient id="paint25_linear_57_205" x1="264.002" y1="255.792" x2="262.575" y2="247.413" gradientUnits="userSpaceOnUse">
<stop stop-color="#E1473D"/>
<stop offset="1" stop-color="#E9605A"/>
</linearGradient>
<linearGradient id="paint26_linear_57_205" x1="261.79" y1="242.496" x2="266.62" y2="266.407" gradientUnits="userSpaceOnUse">
<stop stop-color="#E1473D"/>
<stop offset="1" stop-color="#E9605A"/>
</linearGradient>
<linearGradient id="paint27_linear_57_205" x1="250.653" y1="231.978" x2="250.511" y2="249.465" gradientUnits="userSpaceOnUse">
<stop stop-color="#E1473D"/>
<stop offset="1" stop-color="#E9605A"/>
</linearGradient>
<linearGradient id="paint28_linear_57_205" x1="240.551" y1="244.146" x2="232.539" y2="198.684" gradientUnits="userSpaceOnUse">
<stop stop-color="#FEBBBA"/>
<stop offset="1" stop-color="#FF928E"/>
</linearGradient>
<linearGradient id="paint29_linear_57_205" x1="253.073" y1="245.275" x2="254.754" y2="326.589" gradientUnits="userSpaceOnUse">
<stop stop-color="#FF928E"/>
<stop offset="1" stop-color="#FE7062"/>
</linearGradient>
<linearGradient id="paint30_linear_57_205" x1="254.962" y1="255.094" x2="255.012" y2="282.352" gradientUnits="userSpaceOnUse">
<stop stop-color="#E1473D"/>
<stop offset="1" stop-color="#E9605A"/>
</linearGradient>
<linearGradient id="paint31_linear_57_205" x1="250.405" y1="277.071" x2="260.244" y2="275.811" gradientUnits="userSpaceOnUse">
<stop stop-color="#FF928E"/>
<stop offset="1" stop-color="#FE7062"/>
</linearGradient>
<linearGradient id="paint32_linear_57_205" x1="299.768" y1="118.786" x2="278.312" y2="161.066" gradientUnits="userSpaceOnUse">
<stop stop-color="#09005D"/>
<stop offset="1" stop-color="#1A0F91"/>
</linearGradient>
<linearGradient id="paint33_linear_57_205" x1="306.635" y1="140.378" x2="184.853" y2="278.023" gradientUnits="userSpaceOnUse">
<stop stop-color="#4042E2"/>
<stop offset="1" stop-color="#4F52FF"/>
</linearGradient>
<linearGradient id="paint34_linear_57_205" x1="80.923" y1="367.146" x2="97.4565" y2="367.146" gradientUnits="userSpaceOnUse">
<stop stop-color="#09005D"/>
<stop offset="1" stop-color="#1A0F91"/>
</linearGradient>
<linearGradient id="paint35_linear_57_205" x1="122.313" y1="347.628" x2="62.1337" y2="394.851" gradientUnits="userSpaceOnUse">
<stop stop-color="#4042E2"/>
<stop offset="1" stop-color="#4F52FF"/>
</linearGradient>
<linearGradient id="paint36_linear_57_205" x1="132.999" y1="361.226" x2="72.8191" y2="408.448" gradientUnits="userSpaceOnUse">
<stop stop-color="#4042E2"/>
<stop offset="1" stop-color="#4F52FF"/>
</linearGradient>
<linearGradient id="paint37_linear_57_205" x1="106.099" y1="367.567" x2="129.899" y2="367.567" gradientUnits="userSpaceOnUse">
<stop stop-color="#09005D"/>
<stop offset="1" stop-color="#1A0F91"/>
</linearGradient>
<linearGradient id="paint38_linear_57_205" x1="84.6493" y1="379.85" x2="108.061" y2="208.628" gradientUnits="userSpaceOnUse">
<stop stop-color="#4F52FF"/>
<stop offset="1" stop-color="#4042E2"/>
</linearGradient>
<linearGradient id="paint39_linear_57_205" x1="419.034" y1="-209.924" x2="333.509" y2="-96.0108" gradientUnits="userSpaceOnUse">
<stop stop-color="#FF928E"/>
<stop offset="1" stop-color="#FE7062"/>
</linearGradient>
<linearGradient id="paint40_linear_57_205" x1="91.7322" y1="137.978" x2="109.882" y2="159.221" gradientUnits="userSpaceOnUse">
<stop stop-color="#09005D"/>
<stop offset="1" stop-color="#1A0F91"/>
</linearGradient>
<linearGradient id="paint41_linear_57_205" x1="226.19" y1="85.0548" x2="126.198" y2="186.489" gradientUnits="userSpaceOnUse">
<stop stop-color="#FF928E"/>
<stop offset="1" stop-color="#FE7062"/>
</linearGradient>
<linearGradient id="paint42_linear_57_205" x1="137.876" y1="120.647" x2="16.8507" y2="348.948" gradientUnits="userSpaceOnUse">
<stop stop-color="#E1473D"/>
<stop offset="1" stop-color="#E9605A"/>
</linearGradient>
<linearGradient id="paint43_linear_57_205" x1="138.297" y1="120.871" x2="17.2721" y2="349.172" gradientUnits="userSpaceOnUse">
<stop stop-color="#E1473D"/>
<stop offset="1" stop-color="#E9605A"/>
</linearGradient>
</defs>
</svg>
