<svg xmlns="http://www.w3.org/2000/svg" width="239" height="59" fill="none"><path fill="#1A75BC" d="m51.109 27.595-4.213 4.552.52.562c.314.339.563.741.733 1.184a3.906 3.906 0 0 1 0 2.796c-.17.443-.42.845-.733 1.184l-.788.851a3.32 3.32 0 0 1-1.082.788c-.405.182-.84.276-1.28.276h-.228a3.92 3.92 0 0 1-.215 1.489 3.697 3.697 0 0 1-.754 1.268l-.787.85c-.31.338-.677.607-1.082.79a3.13 3.13 0 0 1-1.28.283 1.85 1.85 0 0 1-.228 0c.037.52-.03 1.042-.197 1.531-.167.49-.43.934-.772 1.302l-.787.851a3.243 3.243 0 0 1-2.362 1.072 3.732 3.732 0 0 1-.528-.06 3.924 3.924 0 0 1-1.008 2.553l-.787.851a3.343 3.343 0 0 1-2.362 1.09h-.071a3.01 3.01 0 0 1-1.24-.26 3.212 3.212 0 0 1-1.051-.753l-.3-.324-1.747 1.88c-.724.78-1.703 1.218-2.725 1.218-1.021 0-2-.438-2.724-1.217l-.315-.35a4.189 4.189 0 0 1-.905-1.566 4.441 4.441 0 0 1-.182-1.837 3.86 3.86 0 0 1-.44 0 3.558 3.558 0 0 1-1.476-.311 3.8 3.8 0 0 1-1.249-.905l-.315-.35a4.174 4.174 0 0 1-.902-1.567 4.424 4.424 0 0 1-.177-1.836c-.157 0-.299.051-.448.051-1.021-.002-2-.44-2.725-1.216l-.315-.35a4.2 4.2 0 0 1-.904-1.567 4.448 4.448 0 0 1-.182-1.836c-.15.009-.3.009-.449 0a3.594 3.594 0 0 1-1.474-.315 3.836 3.836 0 0 1-1.25-.902l-.307-.331a4.188 4.188 0 0 1-.839-1.35 4.445 4.445 0 0 1 0-3.189c.195-.505.48-.964.839-1.35l.346-.39-4.724-5.106L26.85 1.388l24.259 26.207Zm-5.441 3.259 3.008-3.26L30.818 8.264 19.795 20.235a3.418 3.418 0 0 0-.18 2.159c.177.72.581 1.35 1.143 1.782a2.786 2.786 0 0 0 1.934.578 2.851 2.851 0 0 0 1.827-.895l7.323-8.032L42.722 27.62l2.945 3.234Zm.551 5.735a1.9 1.9 0 0 0 .483-1.277 1.9 1.9 0 0 0-.483-1.276l-5.275-5.718-9.118-9.887-6.157 6.73a4.526 4.526 0 0 1-2.379 1.346 4.311 4.311 0 0 1-2.67-.307 4.734 4.734 0 0 1-2.062-1.857 5.298 5.298 0 0 1-.763-2.78 5.443 5.443 0 0 1 .504-2.281l.165-.23 11.15-12.091-2.764-2.987-21.866 23.62 3.56 3.89.464-.503a3.839 3.839 0 0 1 1.249-.906c.467-.21.969-.318 1.475-.318.506 0 1.008.108 1.475.318.468.21.892.518 1.25.906l.322.34c.406.443.715.979.903 1.568.188.59.251 1.217.184 1.836.148-.03.298-.047.448-.05a3.594 3.594 0 0 1 1.475.314c.467.209.892.515 1.25.902l.315.349a4.2 4.2 0 0 1 .9 1.568c.186.59.247 1.217.178 1.835a3.596 3.596 0 0 1 1.723.204 3.838 3.838 0 0 1 1.466.996l.315.349c.409.44.72.976.908 1.566.188.59.25 1.218.179 1.837a3.544 3.544 0 0 1 1.7.2 3.783 3.783 0 0 1 1.45.983l.322.332c.563.604.94 1.38 1.081 2.223.14.843.038 1.713-.294 2.49l.473.511c.147.16.323.285.516.367.194.082.402.12.61.11.447-.012.87-.214 1.181-.562l.787-.85c.321-.34.507-.8.52-1.285a1.77 1.77 0 0 0-.104-.658c-.076-.21-.19-.4-.337-.56l-3.031-3.267-2.339-2.484 1.173-1.302 2.835 3.063.047-.05 2.74 2.943c.315.335.74.522 1.181.522.442 0 .866-.187 1.181-.522l.788-.85c.312-.348.486-.814.486-1.298 0-.485-.174-.95-.486-1.298l-4.512-4.867-.787-.85 1.204-1.294 5.268 5.7c.32.326.742.506 1.181.506.439 0 .861-.18 1.181-.505l.787-.851a1.9 1.9 0 0 0 .484-1.276 1.9 1.9 0 0 0-.484-1.277l-5.322-5.752-.181-.195 1.228-1.209 5.512 5.957c.316.332.74.518 1.18.518a1.63 1.63 0 0 0 1.182-.518l.795-.851ZM27.322 50.713c.404-.44.631-1.035.631-1.655 0-.62-.227-1.215-.631-1.655l-.315-.34a2.086 2.086 0 0 0-1.527-.682c-.573 0-1.122.245-1.528.682l-2.016 2.187a2.45 2.45 0 0 0-.627 1.65c0 .618.225 1.212.627 1.651l.315.349c.41.433.96.675 1.532.675.572 0 1.122-.242 1.531-.675l2.008-2.187Zm-4.575-4.943a2.34 2.34 0 0 0 .472-.757 2.486 2.486 0 0 0 0-1.788 2.34 2.34 0 0 0-.472-.757l-.307-.34c-.2-.217-.438-.39-.7-.507a2.018 2.018 0 0 0-1.654 0c-.262.117-.5.29-.7.507l-2.064 2.178c-.206.218-.37.478-.48.765a2.504 2.504 0 0 0 0 1.814c.11.287.274.547.48.765l.323.332c.406.436.955.681 1.528.681.572 0 1.121-.245 1.527-.681l2.016-2.17.031-.042Zm-4.59-4.927a2.45 2.45 0 0 0 .627-1.65 2.45 2.45 0 0 0-.627-1.651l-.323-.332a2.117 2.117 0 0 0-.695-.511 1.982 1.982 0 0 0-.825-.178 2.01 2.01 0 0 0-.83.173c-.264.117-.504.29-.705.507l-2.024 2.153a2.45 2.45 0 0 0-.627 1.65c0 .619.226 1.212.627 1.651l.323.34c.2.219.438.392.7.51a2.012 2.012 0 0 0 1.655 0c.263-.118.5-.291.7-.51l2.024-2.152Zm-4.567-4.935a2.45 2.45 0 0 0 .628-1.65 2.45 2.45 0 0 0-.628-1.652l-.323-.348a2.163 2.163 0 0 0-.724-.509 2.03 2.03 0 0 0-.85-.164 2.07 2.07 0 0 0-1.52.673l-1.984 2.16a2.44 2.44 0 0 0-.63 1.652c0 .618.226 1.212.63 1.65l.315.35c.406.434.955.677 1.527.677s1.12-.243 1.528-.678l2.015-2.187.016.026ZM64.423 23.144c0-13.223 18.157-13.223 18.157 0 0 13.222-18.157 13.248-18.157 0Zm13.527 0a5.168 5.168 0 0 0-.24-1.945 4.895 4.895 0 0 0-.938-1.679 4.47 4.47 0 0 0-1.482-1.134 4.168 4.168 0 0 0-1.777-.4c-.611 0-1.216.136-1.777.4a4.47 4.47 0 0 0-1.48 1.134 4.895 4.895 0 0 0-.94 1.68 5.168 5.168 0 0 0-.24 1.944c0 6.934 8.874 6.934 8.874 0ZM94.005 13.334c3.661 0 7.629 2.161 8.314 7.267h-4.448a3.989 3.989 0 0 0-1.473-2.144 3.492 3.492 0 0 0-2.393-.664c-2.654 0-4.402 2.152-4.402 5.326 0 2.808 1.725 5.267 4.402 5.301a3.563 3.563 0 0 0 2.492-.765 4.096 4.096 0 0 0 1.445-2.324h4.448c-.661 5.412-4.63 7.54-8.393 7.54-4.504 0-9.055-3.251-9.079-9.752-.023-6.5 4.583-9.785 9.087-9.785ZM117.539 22.735a3.968 3.968 0 0 1 1.601 1.611c.378.694.56 1.491.525 2.295 0 3.335-1.897 6.033-5.511 6.033h-8.291v-19.12h7.558a5.07 5.07 0 0 1 2.105.42 5.4 5.4 0 0 1 1.79 1.267 5.883 5.883 0 0 1 1.198 1.917c.278.718.42 1.489.419 2.267a4.888 4.888 0 0 1-.38 1.811 4.556 4.556 0 0 1-1.014 1.5Zm-7.306-4.807v3.089h2.858c1.795 0 1.795-3.089 0-3.089h-2.858Zm0 7.156v3.25h3.614c1.818 0 1.795-3.25 0-3.25h-3.614ZM122.114 23.144c0-13.223 18.11-13.223 18.11 0 0 13.222-18.11 13.248-18.11 0Zm13.527 0a5.154 5.154 0 0 0-.24-1.945 4.885 4.885 0 0 0-.938-1.679 4.475 4.475 0 0 0-1.482-1.134 4.164 4.164 0 0 0-1.777-.4 4.17 4.17 0 0 0-1.777.4c-.56.264-1.064.65-1.481 1.134a4.904 4.904 0 0 0-.939 1.68 5.174 5.174 0 0 0-.239 1.944c0 6.934 8.873 6.934 8.873 0ZM151.467 20.251c8.465 0 8.465 12.397 0 12.423h-7.787v-19.12h12.716v4.374H148.2v2.323h3.267Zm-3.267 4.314v3.744h3.236c.241.025.485-.005.715-.088a1.72 1.72 0 0 0 .621-.393c.179-.176.323-.39.421-.63.098-.24.148-.499.148-.761s-.05-.521-.148-.76a1.888 1.888 0 0 0-.421-.631 1.722 1.722 0 0 0-.621-.393 1.62 1.62 0 0 0-.715-.088H148.2ZM160.136 23.144c0-13.223 18.149-13.223 18.149 0 0 13.222-18.149 13.248-18.149 0Zm13.52 0a5.192 5.192 0 0 0-.224-1.96 4.892 4.892 0 0 0-.934-1.698 4.477 4.477 0 0 0-1.487-1.148 4.162 4.162 0 0 0-1.788-.406 4.17 4.17 0 0 0-1.789.406 4.463 4.463 0 0 0-1.486 1.148 4.892 4.892 0 0 0-.934 1.697c-.2.63-.276 1.297-.224 1.96 0 6.935 8.866 6.935 8.866 0ZM183.238 34.835h-3.716v-6.39h1.795l6.078-15.137h1.945l6.299 15.137h1.843v6.39h-3.788v-2.102h-10.472l.016 2.102Zm2.63-6.45h5.008l-2.552-6.909-2.456 6.91ZM201.34 32.708h-1.614V13.555h4.622v9.36l8.952-9.445h1.654v19.204h-4.725v-9.36l-8.889 9.394ZM235.087 13.503h1.622v19.17h-4.63v-8.509l-3.764 4.255h-.504l-3.74-4.255v8.51h-4.629V13.502h1.669l6.929 8.305 7.047-8.305ZM65.699 43.344h.787c.243-.805.71-1.51 1.339-2.017a2.983 2.983 0 0 1 1.708-.553c.6.036 1.178.256 1.665.634.488.38.866.9 1.088 1.503a3.66 3.66 0 0 1 .169 1.9 3.508 3.508 0 0 1-.804 1.698 2.924 2.924 0 0 1-.985.729c-.371.166-.77.249-1.172.241a3.011 3.011 0 0 1-2.04-.8 2.891 2.891 0 0 1-.722-.957 3.112 3.112 0 0 1-.293-1.195h-.788v2.79h-1.086v-6.38h1.118l.016 2.407Zm5.748.791a2.314 2.314 0 0 0-.552-1.523 1.823 1.823 0 0 0-.63-.488c-.241-.112-.502-.166-.763-.158a1.78 1.78 0 0 0-.74.148 1.9 1.9 0 0 0-.63.447c-.19.209-.337.456-.435.728a2.3 2.3 0 0 0-.132.855c-.012.29.034.58.134.85s.254.514.448.715c.366.387.859.6 1.37.596.253.002.503-.053.735-.161.232-.109.44-.268.612-.468.187-.202.336-.442.436-.707.1-.264.15-.548.147-.834ZM75.273 40.935h1.197a3.66 3.66 0 0 1 1.394.188c.282.126.519.347.677.63.17.31.254.667.244 1.029.017.4-.097.796-.323 1.114a1.658 1.658 0 0 1-.874.621c-.392.077-.79.109-1.189.094v2.706h-1.126v-6.382Zm1.103 2.46h.362c.196.009.392-.014.582-.069a.51.51 0 0 0 .26-.212.677.677 0 0 0 .095-.366.609.609 0 0 0-.062-.31.552.552 0 0 0-.206-.226 1.382 1.382 0 0 0-.716-.128h-.316v1.31ZM85.824 40.935v6.382h-1.126v-3.999l-2.205 4h-.976v-6.383h1.157v4.161l2.237-4.126.913-.035ZM90.753 40.935h1.134l1.905 5.242h.693v2.102h-1.094v-.962h-4.063v.962h-1.142v-2.102h.654l1.913-5.242Zm.575 1.702-1.292 3.548h2.583l-1.291-3.548ZM101.123 40.935v6.382h-1.126v-3.999l-2.205 4h-.945v-6.383h1.126v4.161l2.236-4.126.914-.035ZM106.713 44.518h-.378a5.286 5.286 0 0 1-1.205-.094 1.785 1.785 0 0 1-.74-.383 1.704 1.704 0 0 1-.504-.723 3.635 3.635 0 0 1-.141-1.123v-1.26h1.141v1.243c-.03.32.046.643.213.91.269.21.601.3.929.255h.685v-2.408h1.157v6.382h-1.125l-.032-2.8ZM110.847 40.935h3.22v1.183h-2.11v1.157h2.11v1.166h-2.11v1.702h2.11v1.191h-3.22v-6.399ZM122.193 42.05l-.788.852a2.465 2.465 0 0 0-.814-.67 2.291 2.291 0 0 0-.997-.25 1.782 1.782 0 0 0-.774.153 1.91 1.91 0 0 0-.651.477c-.189.2-.339.44-.439.705-.1.265-.149.55-.143.835-.007.396.083.786.259 1.132.168.33.42.602.725.783a2 2 0 0 0 1.047.28c.306.003.609-.063.89-.195.335-.185.638-.43.897-.723l.788.85a4.257 4.257 0 0 1-1.236.962 3.132 3.132 0 0 1-1.331.264 2.854 2.854 0 0 1-1.249-.221 3.05 3.05 0 0 1-1.058-.75 3.287 3.287 0 0 1-.674-1.108 3.474 3.474 0 0 1-.208-1.308 3.518 3.518 0 0 1 .402-1.701 3.082 3.082 0 0 1 1.141-1.192 3.039 3.039 0 0 1 1.575-.45c.489 0 .972.114 1.416.334.445.22.84.542 1.159.942h.063ZM124.831 40.935h1.149v2.196l1.575-2.196h1.346l-2.063 2.851 2.292 3.531h-1.339l-1.811-2.833v2.833h-1.142l-.007-6.382ZM133.381 40.935h1.142l2.268 6.382h-1.166l-.464-1.31h-2.409l-.473 1.31h-1.181l2.283-6.382Zm.575 1.702-.787 2.187h1.575l-.788-2.187ZM142.791 40.935v6.382h-1.126v-2.553h-.284l-1.189 2.553h-1.228l1.338-2.765a1.467 1.467 0 0 1-.882-.611 1.683 1.683 0 0 1-.283-1.091c-.007-.29.036-.578.126-.85.08-.21.201-.396.355-.55.154-.152.336-.267.535-.336.152-.063.311-.108.472-.136h.984l1.182-.043Zm-1.126 2.63v-1.447h-.308a2.385 2.385 0 0 0-.606.06.491.491 0 0 0-.299.23.814.814 0 0 0-.118.45c-.01.105.006.21.046.306s.103.178.182.24c.231.126.49.182.748.16h.355ZM149.743 40.935h1.134v2.196l1.575-2.196h1.346l-2.063 2.851 2.268 3.531h-1.339l-1.819-2.833v2.833h-1.133l.031-6.382ZM159.27 40.775c.4-.004.797.081 1.165.25.368.168.701.416.977.728.293.312.524.684.679 1.095a3.5 3.5 0 0 1 .226 1.296c.006.44-.071.877-.226 1.284a3.264 3.264 0 0 1-.679 1.082c-.287.311-.628.559-1.004.728a2.884 2.884 0 0 1-2.37 0 3.084 3.084 0 0 1-1.004-.728 3.52 3.52 0 0 1-.853-1.938 3.626 3.626 0 0 1 .389-2.104 3.04 3.04 0 0 1 1.126-1.217 2.802 2.802 0 0 1 1.574-.476Zm0 1.19a1.753 1.753 0 0 0-.752.151 1.868 1.868 0 0 0-.633.462 2.172 2.172 0 0 0-.427.722 2.3 2.3 0 0 0-.132.844c-.017.324.039.648.163.944.123.296.31.556.545.758.35.319.794.49 1.252.485.255.004.508-.05.743-.158.235-.109.446-.27.619-.472.363-.417.566-.968.566-1.54a2.35 2.35 0 0 0-.566-1.54 1.855 1.855 0 0 0-.628-.488 1.72 1.72 0 0 0-.758-.167h.008ZM165.609 40.935h1.102l1.37 4.45 1.378-4.45h1.094l.993 6.382h-1.087l-.63-4.033-1.26 4.033h-.992l-1.244-4.033-.646 4.033h-1.125l1.047-6.382ZM174.081 40.935h4.252v6.382h-1.134v-5.25h-1.976v5.25h-1.142v-6.382ZM183.136 40.935h1.11l2.275 6.382h-1.173l-.464-1.31h-2.41l-.48 1.31h-1.173l2.315-6.382Zm.574 1.702-.787 2.187h1.575l-.788-2.187ZM189.065 40.935h1.141v2.408h1.969v-2.408h1.134v6.382h-1.134v-2.8h-1.969v2.8h-1.141v-6.382ZM200.608 40.935v6.382h-1.118v-3.999l-2.205 4h-.984v-6.383h1.126v4.161l2.236-4.126.945-.035ZM207.08 40.936v6.382h-1.126v-2.553h-.284l-1.189 2.553h-1.228l1.339-2.766a1.458 1.458 0 0 1-.88-.611 1.674 1.674 0 0 1-.278-1.09 2.547 2.547 0 0 1 .118-.851c.073-.222.192-.423.347-.587.15-.158.33-.28.527-.358.156-.062.317-.108.481-.136h.976l1.197.017Zm-1.126 2.63v-1.447h-.307a2.426 2.426 0 0 0-.606.06.51.51 0 0 0-.3.229.814.814 0 0 0-.118.451.623.623 0 0 0 .048.308.568.568 0 0 0 .188.236c.228.128.485.184.741.162h.354Z"/></svg>