<svg xmlns="http://www.w3.org/2000/svg" width="271" height="51" fill="none"><g clip-path="url(#a)"><path fill="#365D5B" fill-rule="evenodd" d="M20.805 27.621h10.117V.5H13.296c-3.434.014-6.722 1.327-9.15 3.654S.348 9.634.333 12.924v24.849c.002 3.294 1.369 6.453 3.8 8.783 2.43 2.33 5.726 3.639 9.163 3.641h17.547v-7.046H15.588a5.324 5.324 0 0 1-1.967-.372 5.15 5.15 0 0 1-1.668-1.068c-.477-.457-.856-1-1.114-1.598a4.741 4.741 0 0 1-.389-1.886V12.546a4.741 4.741 0 0 1 .39-1.886 4.908 4.908 0 0 1 1.113-1.599 5.15 5.15 0 0 1 1.668-1.067 5.324 5.324 0 0 1 1.967-.373h6.086a17.087 17.087 0 0 0-.87 5.379v14.621ZM46.018 37.85c0 1.825-.293 3.639-.87 5.378h6.087a5.324 5.324 0 0 0 1.967-.372 5.15 5.15 0 0 0 1.668-1.068c.477-.457.856-1 1.114-1.598a4.74 4.74 0 0 0 .389-1.886V12.546a4.741 4.741 0 0 0-.39-1.886A4.908 4.908 0 0 0 54.87 9.06a5.15 5.15 0 0 0-1.668-1.067 5.323 5.323 0 0 0-1.967-.373l-15.334-.076V.5h17.547c3.437.002 6.733 1.312 9.164 3.641 2.43 2.33 3.797 5.489 3.799 8.783v24.849c-.002 3.294-1.369 6.453-3.8 8.783-2.43 2.33-5.726 3.639-9.163 3.641H35.901V23.151h10.117V37.85Z" clip-rule="evenodd"/><path fill="#416F6E" fill-rule="evenodd" d="M97.078 43.151a2.373 2.373 0 0 0-.858-.586 2.462 2.462 0 0 0-1.039-.171 2.9 2.9 0 0 0-1.818.606 2.445 2.445 0 0 0-.79 1.742h-1.344v-2.197h-1.264v5.53h1.264v-2.424h1.265c-.002.339.068.674.203.986.136.312.336.595.587.833.235.23.52.41.832.528.314.118.65.17.986.153.367.02.735-.036 1.076-.167.342-.131.649-.333.9-.59a3.021 3.021 0 0 0 .711-2.121 3.44 3.44 0 0 0-.71-2.122Zm-3.004.682c.127-.142.285-.256.462-.335a1.402 1.402 0 0 1 1.132 0c.177.079.335.193.462.335.26.436.37.94.316 1.44.044.499-.066 1-.316 1.439a1.348 1.348 0 0 1-.462.335 1.402 1.402 0 0 1-1.132 0 1.348 1.348 0 0 1-.462-.335c-.25-.44-.36-.94-.316-1.44a3.282 3.282 0 0 1 .317-1.439ZM103.796 47.394a3.887 3.887 0 0 0 .633-2.12c0-.75-.219-1.486-.633-2.122a1.864 1.864 0 0 0-.727-.586 1.957 1.957 0 0 0-.932-.172 2.078 2.078 0 0 0-.983.2 1.977 1.977 0 0 0-.756.634h-.079a5.955 5.955 0 0 1-.158-.758h-1.028v8.03h1.265v-2.272a4.856 4.856 0 0 0-.079-.834h.079c.197.26.461.465.765.598.305.133.64.188.974.16.321.02.642-.04.932-.172.291-.133.541-.334.727-.586Zm-.948-3.56c.26.436.371.94.316 1.44.045.498-.065.999-.316 1.438a1.181 1.181 0 0 1-.407.376 1.243 1.243 0 0 1-.541.155 1.385 1.385 0 0 1-.611-.1 1.325 1.325 0 0 1-.496-.355 2.313 2.313 0 0 1-.316-1.44v-.15c-.06-.452.052-.91.316-1.288.237-.304.553-.38 1.107-.38a.821.821 0 0 1 .53-.01.784.784 0 0 1 .418.314ZM105.852 42.47V48h1.501l2.925-4.318c.002.254-.024.508-.079.757V48h1.185v-5.53h-1.501l-2.925 4.318c.057-.478.083-.959.079-1.44V42.47h-1.185ZM118.656 47.167h-.869v-4.621h-3.557a12.697 12.697 0 0 1-.395 2.576 6.288 6.288 0 0 1-.949 2.045h-.474v2.879h1.106v-1.97h3.952v1.97h1.186v-2.879Zm-4.505 0a8.34 8.34 0 0 0 .79-1.667c.208-.666.34-1.352.395-2.045h1.265v3.712h-2.45ZM119.763 42.47V48h1.501l2.925-4.318c.002.254-.024.508-.079.757V48h1.185v-5.53h-1.501l-2.925 4.318c.057-.478.083-.959.079-1.44V42.47h-1.185ZM126.876 42.47v2.045a1.724 1.724 0 0 0 .474 1.288c.194.163.419.287.664.365.244.078.502.108.759.09a4.178 4.178 0 0 0 1.028-.152 2.72 2.72 0 0 0 .948-.455V48h1.265v-5.53h-1.265v2.348a4.95 4.95 0 0 1-.948.379 3.38 3.38 0 0 1-.87.075c-.632 0-.948-.303-.948-.833v-2.045h-1.107v.075ZM137.388 48.075c.327-.066.646-.168.949-.303v-.984a4.591 4.591 0 0 1-.949.303c-.311.062-.63.088-.948.075a1.438 1.438 0 0 1-.651-.088 1.387 1.387 0 0 1-.535-.366 1.91 1.91 0 0 1-.474-1.212h3.873v-.606a2.693 2.693 0 0 0-.632-1.819 2.377 2.377 0 0 0-.833-.528 2.46 2.46 0 0 0-.985-.153 2.602 2.602 0 0 0-1.076.167c-.342.131-.649.333-.9.59a3.023 3.023 0 0 0-.712 2.121c-.029.376.026.753.163 1.106.136.353.351.673.628.94.278.266.612.471.981.602.368.13.761.184 1.153.155.311.076.637.076.948 0Zm-.395-4.47c.241.304.354.682.316 1.061h-2.608c.02-.383.157-.752.395-1.06.124-.121.271-.217.434-.282.163-.065.338-.098.515-.097.474.076.79.152.948.379ZM143.237 48.076c.251-.069.49-.17.712-.303v-1.06c-.49.24-1.031.37-1.581.378a1.378 1.378 0 0 1-.61-.1 1.32 1.32 0 0 1-.497-.354 2.208 2.208 0 0 1-.395-1.364c0-1.288.474-1.894 1.502-1.894.44.01.872.113 1.265.303l.395-.909a3.808 3.808 0 0 0-1.66-.303 2.674 2.674 0 0 0-1.117.157 2.575 2.575 0 0 0-.938.6 3.092 3.092 0 0 0-.712 2.198 3.023 3.023 0 0 0 .712 2.12c.245.266.551.472.894.604.343.131.714.184 1.082.154.311-.094.628-.17.948-.227ZM146.557 45.197V42.47h-1.265v5.606h1.265v-2.879l2.45 2.879h1.423l-2.608-2.879 2.371-2.727h-1.344l-2.292 2.727ZM155.884 48.075v-3.712c.033-.264 0-.533-.097-.783a1.677 1.677 0 0 0-.457-.656 2.67 2.67 0 0 0-1.659-.455 4.81 4.81 0 0 0-1.028.152c-.359.08-.705.207-1.027.379l.395.833c.237-.076.553-.227.79-.303.282-.087.574-.138.87-.151a.86.86 0 0 1 .438.047c.14.053.261.141.352.256.172.216.256.485.237.757v.303h-1.027a3.715 3.715 0 0 0-2.055.455 1.443 1.443 0 0 0-.497.563c-.11.226-.157.476-.136.725-.026.235.003.472.085.695.082.223.215.425.39.592.174.167.385.295.618.374.232.078.48.106.725.081a4.29 4.29 0 0 0 1.107-.151c.326-.18.62-.411.869-.682h.079l.237.757h.791v-.076Zm-3.399-1.06a.753.753 0 0 1-.19-.278.723.723 0 0 1-.047-.328.91.91 0 0 1 .395-.758 3.75 3.75 0 0 1 1.265-.303h.711v.455a1.26 1.26 0 0 1-.09.532c-.068.17-.172.324-.305.453a1.625 1.625 0 0 1-1.107.379.64.64 0 0 1-.632-.152ZM159.599 45.879h1.185v2.12h1.265v-5.53h-2.609a2.443 2.443 0 0 0-1.58.455 1.422 1.422 0 0 0-.435.54 1.366 1.366 0 0 0-.119.672c-.017.377.094.75.317 1.06.248.286.578.497.948.607l-1.581 2.273h1.344l1.265-2.197Zm-.949-2.273c.226-.165.507-.245.79-.227h1.344v1.666h-1.185a1.743 1.743 0 0 1-.949-.227.694.694 0 0 1-.241-.263.67.67 0 0 1-.075-.343c.039-.228.149-.44.316-.606ZM167.819 45.197V42.47h-1.265v5.606h1.265v-2.879l2.45 2.879h1.423l-2.609-2.879 2.451-2.727h-1.344l-2.371 2.727ZM177.066 43.151a2.506 2.506 0 0 0-.9-.59 2.6 2.6 0 0 0-1.076-.167 2.67 2.67 0 0 0-1.116.157 2.58 2.58 0 0 0-.939.6 3.023 3.023 0 0 0-.711 2.122 3.078 3.078 0 0 0 .316 1.515c.206.412.536.755.949.985.428.249.921.38 1.422.378.38.028.761-.026 1.117-.157.355-.13.676-.336.938-.6.462-.619.711-1.36.711-2.121 0-.761-.249-1.503-.711-2.122Zm-3.161.682c.129-.164.296-.298.488-.39.192-.092.404-.14.618-.14.949 0 1.502.606 1.502 1.894 0 1.288-.474 1.894-1.502 1.894-1.027 0-1.501-.606-1.501-1.894.036-.475.17-.939.395-1.364ZM182.125 45.424l-1.265-2.954h-1.66V48h1.107v-4.47c.158.53.316 1.06.474 1.44l1.265 3.03h.948l1.265-2.955c.079-.227.237-.681.395-1.212l.079-.303V48h1.107v-5.53h-1.66l-1.265 3.03c-.079.303-.237.682-.395 1.136l-.079.228a8.665 8.665 0 0 0-.316-1.44ZM187.658 42.47v5.606h1.264v-4.621h2.609v4.62h1.185V42.47h-5.058ZM199.039 48.075v-3.712c.033-.264 0-.533-.096-.783a1.687 1.687 0 0 0-.457-.656 2.674 2.674 0 0 0-1.66-.455 4.8 4.8 0 0 0-1.027.152c-.359.08-.705.207-1.028.379l.395.833c.238-.076.554-.227.791-.303.281-.087.574-.138.869-.151a.863.863 0 0 1 .439.047.83.83 0 0 1 .352.256c.172.216.256.485.237.757v.303h-1.028a3.715 3.715 0 0 0-2.055.455 1.44 1.44 0 0 0-.496.563 1.37 1.37 0 0 0-.136.725c-.026.235.003.472.085.695.082.223.215.425.389.592.175.167.386.295.618.374.233.078.481.106.726.081a4.283 4.283 0 0 0 1.106-.151c.327-.18.621-.411.87-.682h.079l.237.757h.79v-.076Zm-3.398-1.06a.753.753 0 0 1-.19-.278.723.723 0 0 1-.047-.328.899.899 0 0 1 .102-.424.944.944 0 0 1 .293-.334 3.745 3.745 0 0 1 1.264-.303h.712v.455a1.26 1.26 0 0 1-.09.532c-.068.17-.172.324-.305.453a1.625 1.625 0 0 1-1.107.379.593.593 0 0 1-.341.02.571.571 0 0 1-.291-.172ZM200.699 42.47v5.606h1.265V45.65h2.687v2.425h1.265V42.47h-1.265v2.273h-2.687V42.47h-1.265ZM207.655 42.47V48h1.502l2.924-4.318a3.33 3.33 0 0 1-.079.757V48h1.186v-5.53h-1.502l-2.925 4.318c.057-.478.083-.959.079-1.44V42.47h-1.185ZM216.902 45.879h1.186v2.12h1.265v-5.53h-2.609a2.443 2.443 0 0 0-1.58.455 1.422 1.422 0 0 0-.435.54 1.366 1.366 0 0 0-.119.672c-.017.377.094.75.316 1.06.249.286.579.497.949.607l-1.581 2.273h1.344l1.264-2.197Zm-.948-2.273c.226-.165.507-.245.79-.227h1.344v1.666h-1.186a1.742 1.742 0 0 1-.948-.227.694.694 0 0 1-.241-.263.66.66 0 0 1-.075-.343c.039-.228.149-.44.316-.606ZM265.828 9.515h.395a.956.956 0 0 0 .554-.151.675.675 0 0 0 .237-.53 1.076 1.076 0 0 0-.158-.53 1.271 1.271 0 0 0-.633-.152h-.316v1.363h-.079Zm2.134-.757a.986.986 0 0 1-.168.713 1.07 1.07 0 0 1-.622.423l1.264 1.97h-1.106l-1.028-1.743h-.474v1.743h-1.027V7.318h1.343a2.16 2.16 0 0 1 1.344.38c.154.133.276.297.358.48.082.183.122.38.116.58Z" clip-rule="evenodd"/><path fill="#252524" fill-rule="evenodd" d="M186.867 17.848h5.059v13.485h-8.853l3.794-13.485Zm9.643 13.485V13.984h-10.433a3.71 3.71 0 0 0-2.404.736 3.434 3.434 0 0 0-1.311 2.067c-.869 3.258-2.845 10.152-4.031 14.47h-2.845v7.652h4.584v-3.864h14.701v3.864h4.585v-7.576h-2.846Zm-74.771 3.788V17.848h6.481v-3.864h-15.255c-.611.005-1.2.22-1.66.607a2.184 2.184 0 0 0-.527.724 2.108 2.108 0 0 0-.184.866v1.667h6.56v17.273h4.585Zm128.913 0V17.848h10.75v-3.864h-12.963c-.611.005-1.2.22-1.66.607a2.184 2.184 0 0 0-.527.724 2.108 2.108 0 0 0-.184.866v18.94h4.584Zm-43.55-15.682a5.74 5.74 0 0 1 2.076-1.409 5.96 5.96 0 0 1 2.508-.41 6.074 6.074 0 0 1 2.503.42 5.856 5.856 0 0 1 2.081 1.399 7.75 7.75 0 0 1 1.66 5.227 7.54 7.54 0 0 1-1.66 5.152 6.633 6.633 0 0 1-4.584 1.817 6.633 6.633 0 0 1-4.584-1.817c-1.107-1.137-1.581-2.88-1.581-5.152a7.861 7.861 0 0 1 1.581-5.227Zm-3.32 12.879c1.897 1.894 4.584 2.803 7.904 2.803 3.319 0 5.928-.91 7.904-2.803a10.666 10.666 0 0 0 2.264-3.585c.502-1.326.726-2.733.66-4.143 0-3.257-.948-5.833-2.924-7.803-2.179-1.854-4.991-2.878-7.904-2.878-2.914 0-5.726 1.024-7.904 2.878-1.897 1.894-2.846 4.47-2.846 7.803 0 3.334.949 5.91 2.846 7.728Zm-45.211 2.803V17.848h9.09v17.273h4.584V13.984h-15.966c-.611.005-1.2.22-1.66.607a2.184 2.184 0 0 0-.527.724 2.092 2.092 0 0 0-.184.866v18.94h4.663Zm-22.763-15.682a5.63 5.63 0 0 1 2.071-1.42 5.85 5.85 0 0 1 2.513-.398 6.074 6.074 0 0 1 2.503.42 5.856 5.856 0 0 1 2.081 1.398 7.75 7.75 0 0 1 1.66 5.227 7.54 7.54 0 0 1-1.66 5.152 6.633 6.633 0 0 1-4.584 1.817 6.633 6.633 0 0 1-4.584-1.817c-1.107-1.137-1.581-2.88-1.581-5.152 0-2.273.474-4.015 1.581-5.227Zm-3.32 12.879c1.897 1.894 4.584 2.803 7.904 2.803 3.32 0 5.928-.91 7.904-2.803a10.65 10.65 0 0 0 2.264-3.585c.502-1.326.726-2.733.66-4.143 0-3.257-.948-5.833-2.924-7.803-2.179-1.854-4.991-2.878-7.904-2.878-2.913 0-5.726 1.024-7.904 2.878-1.897 1.894-2.846 4.47-2.846 7.803 0 3.334.949 5.91 2.846 7.728Zm-28.217-4.621a4.87 4.87 0 0 1-1.739 2.803 5.942 5.942 0 0 1-3.399.909 5.41 5.41 0 0 1-2.445-.39 5.195 5.195 0 0 1-1.981-1.428c-1.028-1.137-1.502-2.88-1.502-5 0-2.273.474-3.94 1.502-5.152a5.975 5.975 0 0 1 2.095-1.348c.79-.3 1.64-.435 2.49-.395a5.77 5.77 0 0 1 3.398.91c.43.405.802.864 1.106 1.363.196.395.513.723.908.94.396.216.852.311 1.306.272h2.766a7.03 7.03 0 0 0-.772-2.883 7.324 7.324 0 0 0-1.915-2.344c-1.66-1.288-3.873-1.894-6.719-1.894-3.478 0-6.086.91-7.983 2.727-1.897 1.819-2.687 4.394-2.687 7.88 0 3.484.87 5.984 2.608 7.802 1.739 1.818 4.268 2.727 7.667 2.727a11.691 11.691 0 0 0 6.956-1.893 7.642 7.642 0 0 0 2.063-2.431 7.33 7.33 0 0 0 .861-3.024h-4.584v-.151ZM242.59 13.984v21.137h-4.584V17.848h-5.058l-4.822 17.273h-4.742s3.715-13.334 5.058-18.334a3.366 3.366 0 0 1 1.296-2.084 3.64 3.64 0 0 1 2.419-.719h10.433Z" clip-rule="evenodd"/><path fill="#416F6E" d="M266.381 13.455a4.075 4.075 0 0 1-2.195-.639 3.827 3.827 0 0 1-1.456-1.7 3.646 3.646 0 0 1-.225-2.188 3.744 3.744 0 0 1 1.082-1.94 4.01 4.01 0 0 1 2.023-1.036 4.113 4.113 0 0 1 2.284.215 3.919 3.919 0 0 1 1.773 1.395c.435.623.666 1.356.666 2.105a3.71 3.71 0 0 1-1.157 2.678 4.04 4.04 0 0 1-2.795 1.11Zm0-7.008c-.664 0-1.313.189-1.866.543a3.254 3.254 0 0 0-1.237 1.445 3.095 3.095 0 0 0-.191 1.86c.129.624.449 1.198.919 1.649.47.45 1.068.756 1.72.88.652.125 1.327.061 1.941-.183a3.33 3.33 0 0 0 1.507-1.185 3.12 3.12 0 0 0 .313-3.024 3.195 3.195 0 0 0-.728-1.047 3.37 3.37 0 0 0-1.09-.7 3.488 3.488 0 0 0-1.288-.245v.007Z"/></g><defs><clipPath id="a"><path fill="#fff" d="M.333.5h270v50h-270z"/></clipPath></defs></svg>