<svg xmlns="http://www.w3.org/2000/svg" width="51" height="50" fill="none"><path fill="#DF2C56" d="M36.5 5.225c0 .125-.225.325-.5.4-.275.075-.5.325-.5.525s-.1.35-.25.35c-.125 0-.25.175-.25.375s-.1.375-.25.375c-.125 0-.25.15-.25.35 0 .45-.8 1.9-1.05 1.9-.125 0-.2.225-.2.5s-.1.5-.25.5c-.125 0-.25.175-.25.375s-.1.375-.25.375c-.125 0-.25.225-.25.5s-.075.5-.2.5c-.1 0-.4.4-.65.875-.275.475-.575.875-.7.875-.1 0-.2.325-.2.725 0 .4-.15.8-.3.875-.25.125-.25.175 0 .3.15.075.3.425.3.75s.1.6.2.6c.125 0 .425.45.7 1 .25.55.55 1 .675 1 .1 0 .175.175.175.375s.125.375.25.375c.15 0 .25.5.25 1.125s-.1 1.125-.25 1.125c-.125 0-.25.175-.25.4 0 .225-.5.9-1.125 1.5-.625.575-1.125 1.125-1.125 1.2 0 .45-3.7 4.15-4.15 4.15-.075 0-.625.5-1.2 1.125-.6.625-1.275 1.125-1.5 1.125-.225 0-.4.1-.4.25 0 .125-.5.25-1.125.25s-1.125-.1-1.125-.2c0-.125-.625-.55-1.375-.925-.75-.4-1.375-.825-1.375-.925 0-.1-.275-.2-.6-.2-.325 0-.675-.15-.75-.325-.125-.25-.175-.25-.3 0-.075.175-.425.325-.75.325-.35 0-.85.2-1.125.475-.275.25-.925.675-1.475.925s-1 .55-1 .65c0 .125-.25.2-.525.2-.3 0-.725.2-.95.45C9.7 33.325 8.6 34 8.125 34c-.2 0-.375.1-.375.25 0 .125-.175.25-.375.25S7 34.6 7 34.75c0 .125-.15.25-.35.25-.2 0-.45.225-.525.5-.075.275-.275.5-.4.5s-.225.275-.225.625.1.625.225.625.275.325.35.7c.075.375.475 1.05.9 1.5.425.425.775.875.775.975 0 .125.4.475.875.8.475.325.875.675.875.8s.225.225.5.225.5.1.5.25c0 .125.375.25.85.25s.95.1 1.025.25c.075.125.825.25 1.65.25s1.475-.1 1.475-.25.5-.25 1.125-.25 1.125-.125 1.125-.25c0-.15.15-.25.35-.25.2 0 1.05-.4 1.9-.875.85-.475 1.7-.875 1.9-.875.2 0 .35-.125.35-.25 0-.15.15-.25.35-.25.175 0 .75-.4 1.25-.875.525-.475 1.05-.875 1.175-.875s.7-.45 1.275-1c.6-.55 1.15-1 1.275-1 .25 0 9.175-8.925 9.175-9.175 0-.125.45-.675 1-1.275.55-.575 1-1.1 1-1.175 0-.35 1.175-1.875 1.45-1.875.15 0 .3-.225.3-.5s.125-.5.25-.5c.15 0 .25-.15.25-.35 0-.2.4-1.05.875-1.9.475-.85.875-1.7.875-1.9 0-.2.125-.35.25-.35.15 0 .25-.5.25-1.125S43.375 15 43.5 15c.15 0 .25-.7.25-1.625s-.1-1.625-.25-1.625c-.125 0-.25-.4-.25-.875S43.15 10 43 10c-.125 0-.25-.175-.25-.4 0-.6-3.45-3.85-4.275-4.025-.4-.075-.725-.225-.725-.35 0-.125-.275-.225-.625-.225s-.625.1-.625.225Z"/></svg>