<svg xmlns="http://www.w3.org/2000/svg" width="51" height="50" fill="none"><path fill="#DF2C56" d="M23.25 5.25c0 .125-.475.25-1.05.25-.6.025-1.35.175-1.7.375-.35.2-.875.35-1.15.375-.8 0-1.25.65-.775 1.1.2.2.525.875.7 1.5.175.65.425 1.15.525 1.15.1 0 .2.275.2.625s.125.625.25.625c.15 0 .25.325.25.75 0 .4.125.75.25.75.15 0 .25.2.25.425 0 .25.175.675.375.925.2.275.375.7.375.95s.125.45.25.45c.15 0 .25.275.25.625s.125.625.25.625c.15 0 .25.325.25.75 0 .4.125.75.25.75.15 0 .25.225.25.525 0 .275.175.675.375.875.2.225.375.6.375.85s.125.55.25.625c.15.075.25.375.25.65 0 .25.125.475.25.475.15 0 .25.325.25.75 0 .4.125.75.25.75.15 0 .25.275.25.625 0 .525-.125.625-.75.625-.4 0-.75-.125-.75-.25 0-.15-.55-.25-1.2-.25-.65 0-1.3-.1-1.425-.225-.15-.125-.7-.275-1.25-.35-.55-.075-1.775-.325-2.75-.55-.95-.225-2.275-.475-2.925-.55-.675-.075-1.2-.225-1.2-.35 0-.125-.625-.225-1.375-.225S10.5 22.125 10.5 22c0-.15-.45-.25-.975-.25-.55 0-1.075-.125-1.15-.25-.075-.15-.65-.25-1.275-.25-1.05 0-1.1.025-1.1.75 0 .4-.1.75-.25.75s-.25.925-.25 2.25.1 2.25.25 2.25.25.4.25.9c0 .85.55 2.925 1.025 3.9.125.25.225.625.225.825 0 .2.125.375.25.375.15 0 .25.275.25.6 0 .325.075.65.2.7.1.025.6.725 1.125 1.525 1.2 1.85 3.5 4.15 5.35 5.35.8.525 1.475 1.025 1.525 1.125.05.125.375.2.7.2.325 0 .6.1.6.2s.525.325 1.2.5c.65.2 1.55.5 2 .7.45.2 1.275.35 1.8.35.55 0 1 .1 1 .25s.925.25 2.25.25 2.25-.1 2.25-.25.45-.25 1-.25c.525 0 1.35-.15 1.8-.35.45-.2 1.35-.5 2.025-.7.65-.175 1.175-.4 1.175-.5 0-.1.225-.2.525-.2.275 0 .675-.15.85-.3.625-.575 1-.825 1.725-1.2 1.1-.575 3.975-3.5 5.05-5.15.55-.8 1.05-1.525 1.175-1.55.1-.05.175-.375.175-.7 0-.325.1-.6.2-.6s.325-.525.5-1.2c.2-.65.5-1.55.7-2 .2-.45.35-1.275.35-1.8 0-.55.125-1 .25-1 .15 0 .25-.925.25-2.25s-.1-2.25-.25-2.25c-.125 0-.25-.45-.25-1 0-.525-.15-1.35-.35-1.8-.2-.45-.5-1.35-.7-2.025-.175-.65-.4-1.175-.5-1.175-.1 0-.2-.275-.2-.625s-.1-.625-.25-.625c-.125 0-.25-.225-.25-.5s-.1-.5-.225-.5c-.1 0-.5-.45-.875-1-.975-1.475-3.4-3.85-5.075-4.925-.8-.525-1.475-1.025-1.525-1.15-.05-.1-.375-.175-.7-.175-.325 0-.6-.1-.6-.2s-.525-.325-1.175-.5c-.675-.2-1.575-.5-2.025-.7-.45-.2-1.275-.35-1.8-.35-.55 0-1-.125-1-.25 0-.15-.925-.25-2.25-.25s-2.25.1-2.25.25Z"/><path fill="#DF2C56" d="M13 5.975c-.35.225-.65.475-.7.575-.05.125-.25.2-.45.2s-.35.1-.35.25c0 .125-.175.25-.4.25-.45 0-1.1.575-1.1.975 0 .15-.075.275-.175.275-.4.025-2.075 1.725-2.075 2.1 0 .225-.1.4-.25.4-.125 0-.25.175-.25.375s-.1.375-.2.375c-.125 0-.425.45-.7 1-.25.55-.55 1-.65 1-.125 0-.2.275-.2.625S5.4 15 5.25 15c-.125 0-.25.225-.25.5 0 .35.25.55.95.725.5.15 1.425.375 2.05.55.625.15 1.65.35 2.325.4.65.075 1.175.225 1.175.35 0 .125.625.225 1.375.225s1.375.1 1.375.25c0 .125.5.25 1.1.25.625 0 1.2.1 1.275.25.075.125.625.25 1.225.25 1.05 0 1.05-.025.95-.75-.05-.425-.2-.75-.325-.75s-.225-.275-.225-.625S18.15 16 18 16c-.125 0-.25-.3-.25-.65 0-.35-.15-.8-.35-.975-.175-.2-.5-.85-.675-1.475-.175-.65-.425-1.15-.525-1.15-.1 0-.2-.275-.2-.625s-.1-.625-.25-.625c-.125 0-.25-.35-.25-.75 0-.425-.1-.75-.25-.75-.125 0-.25-.2-.25-.45 0-.225-.175-.65-.375-.9-.2-.275-.375-.675-.375-.875 0-.225-.15-.575-.325-.8-.275-.375-.35-.375-.925 0Z"/></svg>