<svg xmlns="http://www.w3.org/2000/svg" width="51" height="50" fill="none"><g fill="#DF2C56" clip-path="url(#a)"><path d="M11 5.25c0 .125-.175.25-.375.25-.225 0-.65.225-.95.525-.3.275-.925.675-1.375.85C7 7.45 6 8.7 6 9.8c0 .4-.1.7-.25.7s-.25.7-.25 1.625.1 1.625.25 1.625.25.5.25 1.125S5.9 16 5.75 16c-.125 0-.25.275-.25.625s.125.625.25.625c.15 0 .25.175.25.4 0 .225.275.625.625.9.4.325.625.725.625 1.225 0 .4.125.725.25.725.15 0 .25.175.25.375s.125.375.25.375c.15 0 .25.175.25.375 0 .225.175.45.375.525.275.125.375.55.375 1.7 0 1.3-.1 1.625-.625 2.15-1 1.025-1.325 1.25-1.875 1.25-.275 0-.5.1-.5.25 0 .125-.15.25-.35.25-.95 0-3.9 2.1-3.9 2.8 0 .175-.175.55-.375.8-.2.275-.375.8-.375 1.2 0 .375-.1.7-.25.7-.125 0-.25.4-.25.875V35h6.75c4.325 0 6.75-.1 6.75-.25s.125-.25.25-.25c.15 0 .7-.275 1.25-.625s1.15-.625 1.375-.625c.2 0 .375-.125.375-.25 0-.15.225-.25.5-.25.675 0 .625-.625-.125-1.45-.35-.375-.625-.775-.625-.925 0-.15-.225-.425-.5-.625s-.5-.55-.5-.8-.1-.45-.25-.45c-.125 0-.25-.275-.25-.625s-.1-.625-.2-.625c-.45 0-.825-2.525-.975-6.5-.125-3.675-.1-4.3.25-4.85.25-.35.425-.8.425-1.025 0-.2.125-.375.25-.375.15 0 .25-.225.25-.525 0-.275.6-1.075 1.375-1.85 1.15-1.15 1.375-1.5 1.375-2.25C18.25 9.4 18.15 9 18 9c-.125 0-.25-.175-.25-.4 0-.8-2.775-3.1-3.75-3.1-.275 0-.5-.125-.5-.25 0-.15-.55-.25-1.25-.25-.675 0-1.25.1-1.25.25ZM37.75 5.25c0 .125-.175.25-.4.25-.425 0-2.675 1.25-2.8 1.55-.05.1-.35.575-.7 1.075-.325.5-.6 1.1-.6 1.375 0 .25-.125.5-.3.55-.15.05.35.725 1.125 1.5s1.425 1.575 1.425 1.8c0 .225.1.4.2.4.25 0 .775 1.325 1.1 2.75.5 2.175.2 5.975-.525 6.85-.425.525-.175 1.15.475 1.15.425 0 .5.15.5 1.075 0 1.1-.125 1.3-1.925 2.9-.45.4-.825.85-.825 1.025 0 .15-.15.425-.3.6-1.525 1.575-1.9 2.65-.95 2.65.275 0 .5.1.5.25 0 .125.175.25.375.25.425 0 2.45 1.2 2.575 1.525.05.125 3.175.225 6.95.225h6.85v-.75c0-.425-.1-.75-.25-.75-.125 0-.25-.225-.25-.5 0-.525-.225-.85-1.175-1.825-.85-.85-1.275-1.175-1.575-1.175a.269.269 0 0 1-.25-.25c0-.15-.225-.25-.5-.25s-.5-.125-.5-.25c0-.15-.175-.25-.4-.25-.7 0-2.775-1.325-3.2-2.025-.225-.375-.4-1.075-.4-1.575 0-.875.025-.9 1-.9.55 0 1.425-.175 1.925-.375.475-.2 1.15-.375 1.475-.375.325 0 .6-.1.6-.225s.275-.3.625-.375c.45-.125.625-.325.625-.775 0-.35-.1-.625-.25-.625s-.25-1.525-.25-4.075c0-5.525-.625-8.075-2.4-9.85-.325-.325-.8-.575-1.075-.575-.275 0-.575-.125-.65-.25-.075-.15-.5-.25-.9-.25-.475 0-.95-.225-1.325-.625-.325-.35-.775-.625-1-.625-.225 0-.4-.125-.4-.25 0-.15-.5-.25-1.125-.25s-1.125.1-1.125.25Z"/><path d="M24.5 12c0 .125-.225.25-.5.25-.3 0-.8.275-1.15.625-.35.35-.85.625-1.125.625s-.75.125-1.05.3c-.9.475-2.425 2.275-2.425 2.875 0 .325-.1.575-.25.575-.35 0-.325 3.675.05 3.8.175.075.275.825.225 2.275 0 1.2.05 2.175.175 2.175.1 0 .525.625.925 1.375.425.75.825 1.375.95 1.375.1 0 .175.175.175.375 0 .225.4.775.875 1.225.85.825.875.925.875 2.65 0 1.55-.075 1.85-.625 2.375-.325.35-.725.625-.875.625-.125 0-.25.1-.25.2 0 .25-1.775 1.05-2.325 1.05-.25 0-.425.1-.425.25 0 .125-.275.25-.625.25s-.625.1-.625.25c0 .125-.175.25-.4.25-.2 0-.525.15-.7.325-.2.15-.6.55-.925.85-.9.825-1.225 1.275-1.225 1.7 0 .2-.1.375-.25.375-.125 0-.25.45-.25.975 0 .55-.1 1.075-.25 1.15-.15.075-.25.55-.25 1.025V45H38.8l-.15-1c-.075-.55-.225-1.45-.3-2-.075-.55-.25-1-.375-1s-.225-.175-.225-.4c0-.55-2.25-2.825-2.8-2.85-.25 0-.45-.125-.45-.25 0-.15-.275-.25-.625-.25s-.625-.125-.625-.25c0-.15-.175-.25-.425-.25-.55 0-2.325-.8-2.325-1.05 0-.1-.125-.2-.25-.2-.15 0-.55-.275-.875-.625-.55-.525-.625-.825-.625-2.375 0-1.725.025-1.825.875-2.65.475-.45.875-1 .875-1.225 0-.2.1-.375.225-.375s.35-.325.525-.725c.15-.4.55-.975.9-1.3.55-.5.6-.775.6-2.65 0-1.225.1-2.075.25-2.075s.25-1.05.25-2.625-.1-2.625-.25-2.625a.269.269 0 0 1-.25-.25c0-.55-2.625-3.25-3.125-3.25-.2 0-.375-.125-.375-.25 0-.15-.45-.25-.975-.25-.55 0-1.075-.125-1.15-.25-.075-.15-.7-.25-1.4-.25-.675 0-1.225.1-1.225.25Z"/></g><defs><clipPath id="a"><path fill="#fff" d="M.5 0h50v50H.5z"/></clipPath></defs></svg>