<svg xmlns="http://www.w3.org/2000/svg" width="51" height="50" fill="none"><path fill="#DF2C56" d="M5.5 5.875c0 .475.125.875.25.875.15 0 .25.65.25 1.475 0 .8.175 1.875.375 2.35.2.5.375 1.3.375 1.775 0 .475.125.95.25 1.025.15.075.25.475.25.9 0 .4.125.725.25.725.15 0 .25.4.25.875s.125.875.25.875c.15 0 .25.325.25.75 0 .4.1.75.225.75s.325.3.475.675c.5 1.425 1.175 2.825 1.35 2.825.125 0 .2.225.2.5s.125.5.25.5c.15 0 .25.15.25.35 0 .175.175.475.375.65.2.175.375.5.375.725 0 .225.225.575.5.775.275.2.5.55.5.8s.125.45.25.45c.15 0 .25.125.25.25 0 .15.25.55.575.875C14.625 28.5 15 28.95 15 29.1c0 .25 3.525 3.65 3.75 3.65.15 0 .25.75.25 1.65 0 1.65.3 3.15.85 4.35.275.625 1.25 1.75 1.525 1.75.075 0 .425.25.75.575 1.05.975 1.35 1.175 1.75 1.175.2 0 .375.1.375.25 0 .125.125.25.25.25.15 0 .725.2 1.325.45 1.55.675 2.725 1.1 3.5 1.225.375.075.675.225.675.35 0 .125.125.225.25.225.15 0 .25-.225.25-.5s-.1-.5-.25-.5c-.125 0-.25-.525-.25-1.175s-.175-1.875-.4-2.725c-.2-.85-.35-2-.3-2.525l.075-.95 1.325-.075c1.325-.075 1.35-.1 3.8-2.55 2.45-2.45 2.475-2.475 2.55-3.8l.075-1.325.95-.075c.525-.05 1.675.1 2.525.3.85.225 2.075.4 2.725.4.65 0 1.175.1 1.175.25 0 .125.225.25.5.25s.5-.125.5-.25c0-.15-.1-.25-.225-.25s-.275-.3-.35-.7c-.125-.75-.55-1.925-1.225-3.475-.25-.6-.45-1.175-.45-1.325a.25.25 0 0 0-.25-.25c-.125 0-.25-.175-.25-.375 0-.4-.2-.7-1.175-1.75-.325-.325-.575-.675-.575-.75 0-.275-1.125-1.25-1.75-1.525-1.2-.55-2.7-.85-4.35-.85-.9 0-1.65-.1-1.65-.25 0-.225-3.4-3.75-3.65-3.75-.15 0-.6-.375-1.475-1.2-.325-.3-.725-.55-.875-.55a.269.269 0 0 1-.25-.25c0-.15-.2-.25-.45-.25s-.6-.225-.8-.5c-.2-.275-.55-.5-.775-.5-.225 0-.55-.175-.725-.375-.175-.2-.475-.375-.65-.375-.2 0-.35-.125-.35-.25 0-.15-.225-.25-.5-.25s-.5-.125-.5-.25c0-.15-.225-.25-.5-.25s-.5-.1-.5-.2-.55-.4-1.25-.65c-.675-.25-1.25-.55-1.25-.675s-.325-.225-.75-.225c-.4 0-.75-.125-.75-.25 0-.15-.4-.25-.875-.25S15.5 7.125 15.5 7c0-.15-.325-.25-.725-.25-.425 0-.825-.125-.9-.25-.075-.15-.55-.25-1.025-.25-.475 0-1.275-.175-1.775-.375-.475-.2-1.55-.375-2.35-.375-.825 0-1.475-.1-1.475-.25S6.85 5 6.375 5c-.825 0-.875.05-.875.875Zm15.775 10.1c.9.9.975 1.075.975 2.4s-.075 1.5-.975 2.4c-.9.9-1.075.975-2.4.975s-1.5-.075-2.4-.975c-.925-.9-.975-1.05-.975-2.5 0-.85.1-1.525.25-1.525s.25-.125.25-.275c0-.35.625-.975.975-.975.15 0 .275-.125.275-.25 0-.15.675-.25 1.525-.25 1.45 0 1.6.05 2.5.975Z"/><path fill="#DF2C56" d="M38.25 33.975c0 .275.175.675.375.875.225.225.45.95.55 1.6.2 1.75-.475 2.425-2.225 2.225-.65-.1-1.375-.325-1.6-.55-.4-.375-1.35-.525-1.35-.2 0 .275.95 1.825 1.375 2.225.175.2.525.35.725.35.225 0 .6.1.85.225.7.375 2.675.775 3.9.775H42v-1.15c0-1.225-.4-3.2-.775-3.9-.125-.25-.225-.625-.225-.85 0-.475-.4-.9-1.525-1.575-1.05-.65-1.225-.65-1.225-.05Z"/></svg>