<svg xmlns="http://www.w3.org/2000/svg" width="48" height="48" fill="none"><path fill="#DF2C56" d="m16.725 6.42-6.597 5.915.029 2.983c0 1.643.085 2.831.17 2.654.056-.151.453-.303.82-.303.369 0 .68-.127.68-.253 0-.152.906-.253 2.124-.253 1.217 0 2.123.101 2.123.253 0 .127.141.253.283.253.481 0 2.548 1.947 2.548 2.376 0 .228.142.405.283.405.17 0 .283.455.283 1.011 0 .96.199 1.163 4.53 5.056 4.36 3.868 4.587 4.045 5.663 4.045.622 0 1.132.101 1.132.253 0 .126.198.252.453.252.481 0 2.661 1.846 2.661 2.276 0 .126.142.252.284.252.17 0 .283.885.283 2.15 0 1.263-.114 2.148-.283 2.148-.142 0-.284.127-.284.253 0 .253-2.123 2.326-4.926 4.828l-1.076.986h8.494c5.379 0 8.578-.1 8.691-.252.085-.152.369-.253.595-.253.566 0 1.246-.607 1.246-1.112 0-.203.141-.456.283-.531.198-.101.283-6.902.283-19.593 0-12.69-.085-19.49-.283-19.592-.142-.076-.283-.329-.283-.53 0-.506-.68-1.113-1.246-1.113-.226 0-.51-.127-.595-.253C44.98.58 41.045.478 34.108.504H23.294l-6.569 5.915Zm8.409 1.946c0 3.918-.057 4.651-.482 5.056-.396.404-.962.455-5.605.455-2.832 0-5.21-.076-5.323-.152-.226-.202 10.928-10.188 11.212-10.036.113.05.198 2.174.198 4.677Z"/><path fill="#DF2C56" d="M12.62 21.157c-.453.228-.793.557-.793.734 0 .177-.113.328-.255.328-.141 0-1.415 1.037-2.83 2.3-1.416 1.265-2.577 2.402-2.577 2.529 0 .126-.142.227-.312.227-.48 0-1.358 1.087-1.387 1.694 0 .303.283.784.623 1.087.651.531 1.642.683 1.642.253 0-.152.142-.253.312-.253.368 0 7.898-6.724 7.898-7.078 0-.127.142-.253.284-.253.17 0 .283-.228.283-.506s-.113-.505-.283-.505c-.142 0-.284-.152-.284-.354 0-.733-1.217-.834-2.321-.203ZM16.923 26.39c0 .203-.141.38-.283.38-.311 0-1.699 1.137-1.699 1.39 0 .203-1.925 1.896-2.123 1.896-.255 0-.99.683-.99.936 0 .126-.256.379-.567.581-.311.202-.566.531-.566.759 0 .227.255.556.566.758.311.202.566.455.566.581 0 .253.736.936.991.936.227 0 2.123 1.694 2.123 1.896 0 .227.765.885 1.048.885.142 0 .425.227.651.505.51.658 1.19.658 1.699 0 .226-.278.51-.505.651-.505.283 0 1.048-.658 1.048-.885 0-.202 1.896-1.896 2.123-1.896.255 0 .99-.683.99-.936 0-.126.256-.379.567-.581.312-.202.566-.53.566-.758 0-.228-.254-.557-.566-.759-.311-.202-.566-.455-.566-.581 0-.253-.736-.936-.991-.936-.085 0-.595-.404-1.133-.884-.537-.48-.99-.936-.99-1.012 0-.202-.765-.884-.991-.884-.085 0-.482-.279-.878-.633-.793-.707-1.246-.809-1.246-.252ZM28.248 34.354c0 .126-.142.253-.283.253-.396 0-7.927 6.724-7.927 7.053a.273.273 0 0 1-.284.278c-.141 0-.283.227-.283.506 0 .278.142.505.284.505.17 0 .283.152.283.354 0 .38.594.657 1.359.657.566-.025 1.755-.86 1.755-1.238 0-.152.113-.278.255-.278.255 0 2.293-1.72 2.293-1.947 0-.152.764-.834.934-.834.255 0 2.18-1.82 2.18-2.048 0-.126.142-.227.312-.227.424 0 1.359-1.062 1.387-1.568 0-.682-.311-1.213-.736-1.213-.227 0-.396-.127-.396-.253 0-.152-.255-.253-.567-.253-.311 0-.566.101-.566.253ZM4.976 41.407C.984 44.972-.092 46.236.786 46.236c.17 0 .283.177.283.38 0 .201.198.378.424.378.227 0 .425.102.425.253 0 .127.198.253.453.253.623 0 9.456-7.913 9.456-8.444 0-.581-1.274-1.668-1.897-1.668-.283.025-2.52 1.82-4.954 4.02Z"/></svg>