<svg xmlns="http://www.w3.org/2000/svg" width="196" height="163" fill="none"><rect width="196" height="163" fill="url(#a)" opacity=".2" rx="15"/><g opacity=".3"><path fill="#CFE9FF" d="M115.447 79.212 17 136.083V75.231l98.447-56.87v60.851Z" opacity=".7"/><path fill="#788EFF" d="M17 70.871v10.047l98.447-56.681V14L17 70.871Z"/></g><g opacity=".5"><path fill="#CFE9FF" d="m126.617 85.657-98.258 56.871V81.677l98.258-56.872v60.852Z" opacity=".7"/><path fill="#788EFF" d="M28.36 77.316v10.237l98.257-56.87V20.444L28.359 77.316Z"/></g><path fill="#95ACF4" d="m137.976 92.292-98.447 56.871V88.311l98.447-56.87v60.851Z" opacity=".9"/><path fill="#788EFF" d="M39.53 83.951V94l98.446-56.871V27.08L39.529 83.951Z"/><path fill="#455CBA" d="m124.912 40.73-3.597 2.085c-.189.19-.378 0-.378-.19v-3.602c0-.19.189-.569.378-.758l3.597-2.085c.19-.19.379 0 .379.19v3.601c.189.38 0 .569-.379.758ZM130.592 37.507l-3.597 2.085c-.189.19-.379 0-.379-.19v-3.601c0-.19.19-.57.379-.759l3.597-2.085c.189-.19.379 0 .379.19v3.601c0 .19-.19.57-.379.759Z"/><path fill="#FFFFF7" d="M127.185 35.99v2.275c0 .19.189.38.378.19l2.272-1.328c.189-.189.379-.379.379-.758v-2.275c0-.19-.19-.379-.379-.19l-2.272 1.328c-.189.19-.378.569-.378.758Zm2.082.948-1.136.758c-.189.19-.378 0-.378-.19V36.37c0-.19.189-.569.378-.758l1.136-.758c.189-.19.379 0 .379.19v1.137c.189.379 0 .568-.379.758Z"/><path fill="#455CBA" d="m136.272 34.284-3.597 2.085c-.19.19-.379 0-.379-.19v-3.79c0-.19.189-.57.379-.759l3.597-2.085c.189-.19.378 0 .378.19v3.601c0 .38-.189.758-.378.948Z"/><path fill="#FFFFF7" d="m133.053 32.767.947.38v.19l-.947 1.705v.19l.189.19h.19l.946-1.517.19-.19.946.38h.19l.189-.38v-.19l-.947-.758v-.19l.947-1.516v-.19l-.189-.189h-.19l-.946 1.517-.19.19-.946-.38h-.19l-.189.758c-.189 0-.189 0 0 0ZM121.504 41.488v.379s0 .19.189 0l2.84-1.706.189-.19v-.379s0-.19-.189 0l-2.84 1.706s-.189 0-.189.19ZM51.835 94.567l2.84-1.706v.758l-2.84 1.707v-.759Zm-3.597 7.393-4.354 2.465v.758l5.111-3.033 1.704-.948v-.758l-2.46 1.516Zm3.787-4.17v-.758l-2.272 1.327-1.515.758v.758l1.515-.758 2.272-1.327Zm-4.544 2.085-3.597 2.085v.759l3.597-2.086v-.758Zm1.893-3.222 1.515-.948v-.759l-2.65 1.517-4.355 2.464v.759l5.49-3.034Zm-4.354-.19 3.597-2.085v-.759l-3.597 2.086-1.136.568v.759l1.136-.57Zm7.005-3.981 1.136-.569v-.758l-1.515.948-2.083 1.137V94l2.462-1.517Zm2.65 5.877-2.84 1.706v.758l2.84-1.706v-.758Zm-5.49 12.701-5.301 3.033v.758l5.3-3.033v-.758Zm-5.301 5.687v.758l1.136-.569 4.543-2.653v-.759l-3.786 2.275-1.893.948Zm10.791-14.218-3.786 2.275-2.65 1.517v.568l2.65-1.516 3.786-2.275v-.569Zm-.568 8.341-.947.569-2.65 1.517v.758l2.083-1.138 1.514-.947v-.759Zm-7.005-1.327-3.218 1.896v.758l3.218-1.895 3.597-2.086v-.758l-3.597 2.085Zm4.544-2.654v.759l1.893-1.138v-.758l-1.893 1.137Zm-1.325 4.171 3.407-1.896v-.758l-3.407 1.896v.758Zm-6.437-1.706 3.408-1.896v-.569l-3.408 1.896v.569Zm9.655 8.341-3.408 1.895v.759l3.408-1.896v-.758Zm-.568 6.445 1.893-1.137v-.759l-1.893 1.138v.758Zm-4.922 2.844 3.786-2.086v-.758l-3.786 2.085v.759Zm6.058-6.825-3.218 1.896v.758l3.218-1.896v-.758Zm-10.223 1.138 1.325-.759 4.165-2.464v-.758l-3.786 2.274-1.704.948v.759Zm5.869 1.327-4.165 2.464-1.515.948v.758l2.083-1.137 3.786-2.086v-.947h-.19Zm-5.87 1.327 2.462-1.517 2.84-1.706v-.569l-3.976 2.275-1.325.758v.759Zm0 5.308 3.03-1.707v-.758l-3.03 1.706v.759Zm10.224-14.408-1.136.758-.19.19-2.082 1.137v.759l2.083-1.138.19-.189 1.135-.759v-.758Zm-2.272 12.701-2.082 1.138v.758l2.46-1.516 1.137-.569v-.758l-1.515.947Zm-3.218 1.896-3.597 2.085-1.136.569v.758l1.136-.568 3.597-2.086v-.758Zm-1.325 3.412-3.219 1.896v.758l3.219-1.895v-.759Zm4.543-2.654-3.597 2.086v.758l3.787-2.275 2.46-1.516v-.759l-2.65 1.706Zm-3.597 7.962 3.408-1.895v-.759l-3.408 1.896v.758Zm-4.354 2.654 3.408-1.895v-.759l-3.408 1.896v.758Zm6.815-7.203-2.082 1.137v.758l2.082-1.137 1.515-.948v-.758l-1.515.948Zm-6.815 4.549 3.597-2.085v-.758l-3.597 2.085v.758ZM63.005 93.43l-2.65 1.516v.759l2.65-1.517v-.758Zm-.19-7.773-1.514.948v.759l1.515-.948v-.759Zm-2.46 1.327-1.326.948v.759l1.326-.759v-.948Zm2.65 1.138-2.65 1.516v.759l2.65-1.517v-.758ZM59.03 93.05l-1.136.568v.759l1.136-.569v-.758Zm1.136.19 2.84-1.707v-.758l-2.84 1.706v.758Zm2.65 12.511-2.46 1.327v.758l2.46-1.327v-.758Zm.19-2.654-4.544 2.654v.758l4.544-2.654v-.758Zm-3.597 4.55-1.325.758v.758l1.325-.758v-.758Zm0-4.55 3.597-2.085v-.759l-3.597 2.086v.758Zm.947-3.223 2.65-1.516V97.6l-2.65 1.707v.568Zm-2.272 13.27 1.325-.758v-.758l-1.325.758v.758Zm2.461-1.327 2.461-1.327v-.758l-2.461 1.327v.758Zm-.379 5.498 2.65-1.517v-.758l-2.65 1.516v.759Zm-.378-2.465 3.218-1.895v-.759l-3.218 1.896v.758Zm-1.136 0-1.326.758v.759l1.326-.759v-.758Zm4.354 2.844-3.786 2.085v.758l3.786-2.085v-.758Zm-3.786-.569-1.325.758v.759l1.325-.759v-.758Zm.946 11.564 2.84-1.706v-.759l-2.84 1.707v.758Zm-2.271 1.327 1.135-.569v-.758l-1.136.569v.758Zm1.135-5.877 1.326-.758v-.758l-1.326.758v.758Zm3.976-.379-2.65 1.517v.758l2.65-1.517v-.758Zm-.19-1.896v-.758l-1.514.948v.758l1.515-.948Zm-2.46 9.479 2.65-1.517v-.758l-2.65 1.517v.758ZM75.5 81.677l2.84-1.707v-.758l-2.84 1.706v.758Zm-3.597 6.634-4.354 2.465v.758l5.111-3.033 1.704-.948v-.758l-2.46 1.516Zm3.787-4.17v-.758l-2.272 1.327-1.515.758v.758l1.515-.758 2.272-1.327Zm-4.544 2.085-3.597 2.085v.759l3.597-2.086v-.758Zm1.704-3.033 1.514-.948v-.758l-2.65 1.517-4.355 2.464v.758l5.49-3.033Zm-4.165-.38 3.597-2.084v-.759l-3.597 2.275-1.136.569v.758l1.136-.758Zm7.005-3.98 1.136-.569v-.758l-1.515.948-2.083 1.137v.759l2.462-1.517Zm2.65 5.877-2.84 1.706v.758l2.84-1.706v-.758Zm-5.49 12.7-5.301 3.034v.758l5.3-3.033v-.758Zm-5.301 5.688v.758l1.136-.758 4.543-2.654v-.758l-3.786 2.274-1.893 1.138ZM78.34 88.88l-3.786 2.275-2.65 1.516v.759l2.46-1.706 3.787-2.275v-.569h.19Zm-2.272 9.29-.946.568-1.136.569v.758l.568-.19 1.514-.948v-.758Zm-5.49-2.276-3.219 1.896v.758l3.219-1.895 3.597-2.086v-.758l-3.597 2.085Zm4.544-2.654V94l1.893-1.138v-.758l-1.893 1.137Zm-1.326 4.17 3.408-1.895v-.758l-3.408 1.895v.759Zm-6.247-1.705 3.408-1.896v-.758l-3.408 1.895v.759Zm8.898 8.72-2.65 1.516v.759l2.65-1.517v-.758Zm-4.733 8.91 3.786-2.086v-.758l-3.786 2.085v.759Zm-4.165-5.687 1.325-.759 4.165-2.464v-.758l-3.786 2.274-1.704.948v.759Zm5.68 1.327-4.166 2.464-1.514.948v.758l2.082-1.137 3.787-2.086v-.947h-.19Zm-5.68 1.327 2.461-1.517 2.84-1.706v-.758l-4.165 2.654-1.326.758v.569h.19Zm0 5.307 3.029-1.706v-.758l-3.03 1.706v.758Zm9.466-14.028-.568.379h-.19l-2.082 1.138v.758l1.515-.758.189-.19 1.136-.758v-.569Zm-1.704 12.322-2.083 1.138v.758l2.462-1.516 1.136-.569v-.758l-1.515.947Zm-3.03 1.896-3.596 2.085-1.136.569v.758l1.136-.568 3.597-2.086v-.758Zm-1.514 3.412-3.218 1.896v.758l3.218-1.895v-.759Zm4.733-2.654-3.597 2.086v.758l3.787-2.275 2.46-1.517v-.758l-2.65 1.706Zm-3.597 7.962 3.408-1.895v-.569l-3.408 1.896v.568Zm-4.354 2.654 3.408-1.895v-.759l-3.408 1.896v.758Zm6.626-7.203-2.082 1.137v.758l2.082-1.137 1.515-.948v-.758l-1.515.948Zm-6.626 4.549 3.597-2.085v-.758l-3.597 2.085v.758ZM86.48 79.781l-2.65 1.516v.759l2.65-1.517v-.758Zm0-7.773-1.515.759v.758l1.515-.948v-.569Zm-2.65 1.517-1.326.758v.758l1.325-.758v-.758Zm2.65.948-2.65 1.516v.759l2.65-1.517v-.758Zm-3.786 4.929-1.136.568v.759l1.136-.57v-.757Zm.946.19 2.84-1.707v-.758l-2.84 1.706v.758ZM99.733 66.89l2.84-1.706v.758l-2.84 1.706v-.758Zm-3.597 7.393-4.354 2.465v.758l5.112-3.033 1.703-.948v-.758l-2.46 1.516Zm3.787-4.17v-.759l-2.272 1.327-1.515.759v.758l1.515-.758 2.272-1.327Zm-4.733 2.085-3.597 2.085v.758l3.597-2.274v-.569Zm1.893-3.033 1.514-.948v-.758l-2.65 1.516-4.354 2.465v.758l5.49-3.033Zm-4.165-.19 3.597-2.085v-.758l-3.597 2.085-1.136.758v.759l1.136-.759Zm7.005-4.17 1.136-.569v-.758l-1.515.948-2.082 1.137v.758l2.46-1.516Zm2.461 5.876-2.84 1.707v.758l2.84-1.706v-.759Zm8.33-4.739-2.651 1.517v.758l2.651-1.517v-.758Zm0-7.962-1.515.948v.569l1.515-.948v-.569Zm-2.651 1.517-1.325.758v.758l1.325-.758v-.758Zm2.651 1.137-2.651 1.517v.758l2.651-1.517v-.758Zm-3.786 4.74-1.136.568v.758l1.136-.568v-.758Zm.946.189 2.84-1.706v-.569l-2.84 1.706v.569Zm2.84 12.512-2.461 1.327v.758l2.461-1.327v-.758Zm0-2.654-4.544 2.654v.758l4.544-2.654v-.758Zm-3.597.19 3.597-2.086v-.758l-3.597 2.085v.758Zm.946-3.224 2.651-1.516v-.758l-2.651 1.516v.758ZM123.209 54l2.84-1.706v-.758l-2.84 1.706v.758Zm-3.597 6.635-4.354 2.654v.758l5.111-3.033 1.704-.947v-.759l-2.461 1.327Zm3.976-4.17v-.759l-2.272 1.327-1.515.948v.759l1.515-.759 2.272-1.516Zm-4.733 2.085-3.597 2.085v.758l3.597-2.085v-.758Zm1.893-3.033 1.514-.948v-.758l-2.65 1.516-4.354 2.465v.758l5.49-3.033Zm-4.354-.19 3.597-2.085v-.758l-3.597 2.085-1.136.569v.758l1.136-.569Zm7.194-4.17 1.136-.569v-.758l-1.515.948-2.272 1.137v.758l2.651-1.516Zm2.461 5.876-2.84 1.707v.758l2.84-1.706v-.759Zm-5.49 12.702-5.301 3.033v.758l5.301-3.033v-.758Zm-5.301 5.687v.758l1.136-.569 4.543-2.654v-.758l-3.786 2.275-1.893.948Zm10.791-14.218-3.787 2.275-2.65 1.516v.759l2.65-1.517 3.787-2.275v-.758Zm-.568 8.341-.947.569-2.65 1.516v.758l2.082-1.137 1.515-.948v-.758Zm-7.005-1.327-3.218 1.896v.758l3.218-1.896 3.597-2.085v-.758l-3.597 2.085Zm4.544-2.464v.758l1.893-1.137v-.759l-1.893 1.138Zm-1.325 3.98 3.407-1.895v-.758l-3.407 1.895v.759Zm-6.437-1.516 3.407-1.896v-.758l-3.407 1.896v.758Zm9.655 8.151-3.218 2.086v.758l3.407-1.896v-.948h-.189Zm-.568 6.446 1.893-1.137v-.759l-1.893 1.138v.758Zm-4.922 2.843 3.786-2.085v-.758l-3.786 2.085v.758Zm6.058-6.824-3.219 1.896v.758l3.219-1.896v-.758Zm-10.223 1.137 1.325-.758 4.165-2.464v-.759l-3.786 2.275-1.704.948v.758Zm5.869 1.327-4.165 2.465-1.515.948v.758l2.082-1.138 3.787-2.085v-.948h-.189Zm-5.869 1.327 2.461-1.516 2.84-1.706v-.759l-3.976 2.275-1.325.758v.948Zm0 5.308 3.029-1.706v-.758l-3.029 1.706v.758Zm10.223-14.407-1.136.758-.189.19-2.083 1.137v.758l2.083-1.137.189-.19 1.136-.758v-.758Zm-2.272 12.89-2.082 1.138v.758l2.461-1.516 1.136-.569v-.758l-1.515.948Zm-3.218 1.707-3.597 2.085-1.136.569v.758l1.136-.569 3.597-2.085v-.758Zm-1.326 3.412-3.218 1.896v.758l3.218-1.896v-.758Zm4.544-2.654-3.597 2.085v.759l3.786-2.275 2.462-1.517v-.758l-2.651 1.706Zm-3.597 8.152 3.408-1.896v-.758l-3.408 1.895v.759Zm-4.354 2.464 3.407-1.896v-.758l-3.407 1.896v.758Zm6.815-7.204-2.272 1.138v.758l2.083-1.137 1.514-.948v-.758l-1.325.947Zm12.306-39.999-2.65 1.517v.758l2.65-1.517v-.758Zm-.189-7.962-1.515.948v.758l1.515-.947v-.759Zm-2.461 1.517-1.326.758v.758l1.326-.758v-.758Zm2.65 1.137-2.65 1.517v.758l2.65-1.517v-.758Zm-3.976 4.74-1.136.758v.758l1.136-.569v-.948Zm1.136.189 2.84-1.706v-.758l-2.84 1.706v.758Zm2.651 12.512-2.461 1.327v.758l2.461-1.327v-.758Zm.189-2.654-4.544 2.654v.758l4.544-2.654v-.758Zm-3.597 4.739-1.325.758v.758l1.325-.758v-.758Zm0-4.55 3.597-2.085v-.758l-3.597 2.085v.758Zm.947-3.222 2.65-1.517v-.758l-2.65 1.516v.759Zm-2.272 13.08 1.325-.758v-.759l-1.325.759v.758Zm2.461-1.327 2.461-1.327v-.758l-2.461 1.327v.758Zm-.379 5.497 2.651-1.516v-.758l-2.651 1.516v.758Zm-.378-2.464 3.218-1.896v-.758l-3.218 1.896v.758Zm-1.136 0-1.326.758v.758l1.326-.758v-.758Zm4.354 2.843-3.786 2.086v.758l3.786-2.085v-.758Zm-3.786-.568-1.326.758v.758l1.326-.758V75.8Zm.946 11.753 2.84-1.706v-.758l-2.84 1.706v.758Zm-2.272 1.138 1.136-.57v-.757l-1.136.758v.569Zm1.136-5.877 1.326-.758v-.759l-1.326.948v.569Zm3.976-.38-2.65 1.517v.759l2.65-1.517v-.758Zm-.189-1.895v-.758l-1.515.948v.758l1.515-.948Zm-2.461 9.479 2.65-1.517v-.758l-2.65 1.516v.759Z"/><path fill="#788EFF" d="m102.195 80.918-1.326-.758c-2.082-1.138-4.733-.948-7.951.758-6.248 3.602-11.36 12.322-11.36 19.526 0 3.602 1.326 6.256 3.408 7.393l1.326.758c2.082 1.138 4.922.948 7.951-.758 6.248-3.602 11.359-12.322 11.359-19.526.19-3.791-1.325-6.445-3.407-7.393Z"/><path fill="url(#b)" d="m106.549 85.089-2.84-1.706c-1.893-.948-4.354-.948-7.194.758-5.68 3.223-10.223 11.184-10.223 17.819 0 3.223 1.136 5.688 3.03 6.635l2.839 1.707c1.893 1.137 4.354.947 7.194-.759 5.68-3.222 10.223-11.184 10.223-17.82.19-3.412-1.136-5.686-3.029-6.634Z"/><path fill="#D3D3D1" d="M89.7 103.477c0 6.256 4.543 8.91 10.033 5.687 5.491-3.223 10.034-10.805 10.034-17.25 0-6.446-4.543-8.91-10.034-5.688C94.243 89.45 89.7 97.221 89.7 103.477Z"/><mask id="c" width="91" height="64" x="89" y="85" maskUnits="userSpaceOnUse" style="mask-type:luminance"><path fill="#fff" d="M89.7 103.477c0 3.223 1.135 5.498 3.218 6.635 1.704.948-1.136 24.265 21.582 33.175 6.626 2.654 58.5 8.909 64.18.758 5.869-8.531-9.277-43.222-17.039-48.34-8.519-5.688-53.199-9.29-55.282-10.237-1.703-.758-4.165-.569-6.626.948C94.243 89.449 89.7 97.22 89.7 103.477Z"/></mask><g mask="url(#c)"><path fill="#FFD2B1" d="M168.836 135.704c-.379-1.327-1.326-2.275-2.272-3.223.189-.189.378-.569.568-.758.378-.569.568-1.327.378-2.085 0-.759-.378-1.517-.568-2.086-.378-.568-.757-1.137-1.325-1.706-.568-.568-1.136-.948-1.704-1.327-.568-.379-1.325-.758-1.893-.948-.189-.189-.379-.189-.568-.379.189-.379.379-.948.379-1.516v-1.706c0-.19-.19-.569-.19-.759 0-.189-.189-.568-.378-.758-.19-.19-.379-.569-.568-.758l-.568-.569-.568-.569c-.189-.189-.379-.379-.757-.379-.947-.569-1.894-.948-2.84-1.327-.757-.948-1.515-1.706-2.272-2.654-.947-.758-1.704-1.706-2.651-2.275-.567-.379-.946-.758-1.514-1.137-.568-.379-.947-.758-1.515-.948-.189-.189-.568-.379-.757-.379-.189-.19-.568-.379-.757-.379-.568-.19-1.136-.569-1.515-.758-1.136-1.138-2.461-2.086-3.597-3.034l-1.893-1.516c-.568-.569-1.136-.948-1.704-1.517l-1.136-.948c-.379-.379-.757-.568-1.136-.947-.757-.57-1.514-1.138-2.272-1.706-1.514-1.138-3.218-1.896-5.111-2.654-.758-.38-1.136-.38-1.515-.57-.379-.189-.946-.378-1.325-.378-.379-.19-.947-.19-1.325-.38-.568 0-.947-.19-1.515-.19s-.947-.189-1.514-.189h-1.515c-.568 0-.947 0-1.515.19-.378 0-.757.19-1.325.38l-7.383-4.55c-2.462-1.517-5.112-3.034-7.573-4.55-.19 0-.19.19-.19 0-5.3-3.412-21.771 16.303-18.174 18.767h-.19v.19l7.384 4.929 7.194 4.739 1.893 7.962c.379 1.327.568 2.654.947 3.981l.568 2.085.189.948c0 .379.189.758.568 1.137.189.379.568.569.757.759l.758.758 1.514 1.327 3.029 2.843c.19.19.568.379.947.569.379.19.757.19 1.136.19l2.082.189 4.165.569c1.326.189 2.84.379 4.166.569 1.325.189 2.65.568 4.165.568.757 0 1.325.19 2.082.19h1.136c.189 0 .379 0 .568-.19.189 0 .379-.189.568-.379.568-.569.947-1.327.947-1.896 0-.379 0-.947-.19-1.327l2.272 1.138c1.325.758 2.84 1.327 4.165 1.896a79.858 79.858 0 0 0 8.52 3.412c1.514.569 2.839.948 4.354 1.327 1.515.379 3.029.758 4.544.948h1.136c.189 0 .378 0 .568-.19.189 0 .378-.189.567-.189l1.136-.569c.379-.19.568-.569.758-.948.189-.19.189-.569.189-.948 1.325.569 2.651.948 4.165 1.327.757.19 1.704.19 2.461.19.758 0 1.704-.19 2.461-.759.758-.379 1.515-.947 1.704-1.895.568-.569.379-1.517.19-2.275Z"/><path fill="#FFD2B1" d="M161.452 119.97c-.378-1.707-1.514-2.844-3.029-3.602-.568-.379-1.514-.759-2.839-1.327-1.326-1.138-2.462-2.844-3.976-3.602-1.136-1.137-3.219-3.033-7.005-4.929-2.272-1.137-5.869-4.739-7.384-6.066-1.135-.758-11.169-9.858-20.635-7.014l-14.957-9.29-17.796 18.389 29.345 17.63 12.306-4.55 6.626-3.033c.946.38 1.893.569 2.65 1.138 1.136.568 2.272 1.327 3.408 1.895 2.84 1.707 19.311 9.1 21.583 8.342 1.893-.569 2.082-2.465 1.703-3.981Z"/><path fill="#FFD2B1" d="M136.841 121.865c1.325.759 9.087 4.929 10.413 5.687 3.407 2.086 15.902 7.014 18.364 5.498 1.704-1.138 2.082-3.033 1.325-4.929-.757-1.896-4.733-4.17-6.437-5.118-1.704-.948-3.597-1.517-5.301-2.275-4.922-2.465-14.956-10.237-19.311-13.649-1.136-.948-2.461-1.706-3.786-2.654-1.515-.948-3.029-2.085-4.733-2.844-1.704-.758-3.597-.948-5.301-.379-1.704.758-3.029 2.465-2.651 4.36.19.759.379 1.327.758 2.086 1.514 3.033 3.029 7.203 5.679 9.478 3.029 2.464 7.573 3.033 10.981 4.739Z"/><path fill="#FFCCB5" d="M149.525 123.003c-1.136-.759-2.272-1.517-3.408-2.654-2.272-2.275-5.869-3.792-8.709-5.308-1.136-.569-3.786-2.844-4.543-3.412-.568.379-1.136.758-1.704.947 0 .379-.19.569-.568.759-.19 0-.568.189-.758.189 0 0-.189 0-.189.19-.189.189-.379.189-.568.189-.757.379-1.514.759-2.272 1.327-.568.569-1.136.948-1.893 1.327l.947.948c3.029 2.465 9.655 4.171 13.063 5.877 1.325.758 9.087 4.929 10.412 5.687 3.408 2.085 13.632 5.877 16.093 4.17 1.325-.947 1.893-2.085 1.704-3.412-1.894 3.981-7.384 2.465-10.413-.758-2.083-2.464-4.544-4.55-7.194-6.066Z" opacity=".4"/><path fill="#FFD2B1" d="M139.113 130.396c1.514.758 10.034 3.981 11.548 4.739 3.597 2.085 12.306 7.393 16.471 4.739 1.893-1.137 2.083-2.464 1.325-4.36-.757-1.895-2.461-3.222-4.354-4.17-1.893-.948-3.786-1.517-5.679-2.465-2.84-1.327-7.005-5.497-12.874-8.151-3.597-3.033-7.384-5.118-9.466-6.825-1.326-.947-2.84-2.464-4.165-3.412-1.704-1.137-3.219-2.275-4.923-3.033-1.704-.758-3.786-1.137-5.679-.379-1.894.758-3.219 2.654-2.84 4.55.189.758.568 1.516.757 2.085 1.704 3.222 3.219 7.772 6.058 10.047 3.219 3.033 10.224 4.739 13.821 6.635Z"/><path fill="#FFCCB5" d="M161.263 138.547c-3.408-1.137-5.111-3.412-8.519-6.445-1.136-.758-5.869-1.327-11.738-6.445-4.354-3.792-10.223-4.929-14.388-8.152 0 0-4.923-2.464-6.437-1.706 1.325 3.033 2.839 6.445 5.301 8.341 3.218 2.654 10.223 4.36 13.82 6.066 1.515.759 10.034 3.981 11.549 4.74 3.597 2.085 12.305 7.393 16.47 4.739.947-.569 1.515-1.327 1.704-2.085-2.65 1.895-4.733 1.895-7.762.947Z" opacity=".4"/><path fill="#FFD2B1" d="M126.428 130.965c1.325.758 2.651 1.516 4.165 2.274 3.597 2.086 20.825 9.858 24.991 8.342 2.65-.948 2.65-2.654 1.893-4.361-.758-1.895-2.461-3.222-4.165-3.981-1.704-.947-2.84-.568-4.544-1.327-1.136-.568-2.272-2.085-4.165-3.222-2.083-1.327-4.922-2.465-7.194-3.792-3.976-3.033-6.626-4.17-9.466-7.203-1.136-1.138-4.544-3.602-5.869-4.55-1.515-1.137-3.029-2.275-4.923-3.033-1.703-.758-3.786-.948-5.49-.379-1.704.758-3.218 2.654-2.84 4.36.19.758.379 1.516.758 2.085 1.514 3.033 3.029 7.583 5.869 9.858 2.839 2.654 7.572 3.223 10.98 4.929Z"/><path fill="#FFCCB5" d="M121.128 129.069c1.703.569 3.597 1.137 5.301 1.896 1.325.758 2.65 1.516 4.165 2.275 3.597 2.085 20.825 9.857 24.99 8.341 1.893-.759 2.461-1.707 2.272-2.844l-1.136.569c-.947.568-2.083.568-3.219.568-.378 0-.757 0-1.135-.189-.758 0-1.326-.19-2.083-.379-1.893-.569-3.029-1.896-4.354-3.223a1.445 1.445 0 0 0-.947-.379c-3.218.189-8.709-.948-11.549-5.308-5.111-.758-7.951-3.033-10.034-3.412-2.65-.569-3.786-1.517-6.247-1.517h-.379c-1.325.569.379 1.706.947 1.896.946.758 2.272 1.137 3.408 1.706Z" opacity=".4"/><path fill="#FFD2B1" d="m83.263 102.719 14.956 9.478s2.272 10.047 3.597 15.355l.568 1.138 6.058 5.497 1.136.569c2.083.19 6.248.758 8.33 1.137 3.029.38 8.898 1.707 10.413.948 1.893-.948 2.272-4.17-2.083-7.772-3.029-2.464-7.194-3.602-10.98-3.981-.757-5.877-2.083-9.668-2.083-9.668 1.136-3.223.568-6.256.758-8.152L89.7 97.032l-6.437 5.687Z"/><path fill="url(#d)" d="M168.835 135.704c-.378-1.327-1.325-2.275-2.271-3.223.189-.189.378-.569.568-.758.378-.569.568-1.327.378-2.085 0-.759-.378-1.517-.568-2.086-.378-.568-.757-1.137-1.325-1.706-.568-.568-1.136-.948-1.704-1.327-.568-.379-1.325-.758-1.893-.948-.189-.189-.379-.189-.568-.379.189-.379.379-.948.379-1.516v-1.706c0-.19-.19-.569-.19-.759 0-.189-.189-.568-.378-.758-.19-.19-.379-.569-.568-.758l-.568-.569-.568-.569c-.19-.189-.379-.379-.758-.379-.946-.569-1.893-.948-2.839-1.327-.758-.948-1.515-1.706-2.272-2.654-.947-.758-1.704-1.706-2.651-2.275-.568-.379-.946-.758-1.514-1.137-.568-.379-.947-.758-1.515-.948-.189-.189-.568-.379-.757-.379-.189-.19-.568-.379-.757-.379-.568-.19-1.136-.569-1.515-.758-1.136-1.138-2.461-2.086-3.597-3.034l-1.893-1.516c-.568-.569-1.136-.948-1.704-1.517l-1.136-.948c-.379-.379-.757-.568-1.136-.947-.757-.57-1.515-1.138-2.272-1.706-1.514-1.138-3.218-1.896-5.111-2.654-.758-.38-1.136-.38-1.515-.57-.379-.189-.947-.378-1.325-.378-.379-.19-.947-.19-1.326-.38-.567 0-.946-.19-1.514-.19-.568 0-.947-.189-1.515-.189h-1.514c-.568 0-.947 0-1.515.19-.378 0-.757.19-1.325.38l-7.384-4.55c-2.461-1.517-5.111-3.034-7.572-4.55h-.19v.379c2.462 1.516 4.923 3.222 7.384 4.74 2.461 1.516 4.922 3.032 7.383 4.738h.379c.379-.19.947-.19 1.325-.379.379 0 .947-.19 1.325-.19h2.651c.379 0 .947.19 1.325.19.379.19.947.19 1.325.38.379.189.947.189 1.326.379.378.19.946.379 1.325.568 1.704.759 3.408 1.517 4.922 2.465.758.568 1.515.948 2.272 1.516.379.19.757.569 1.136.758l1.136.948c.568.569 1.136 1.138 1.704 1.517l1.893 1.516c1.136.948 2.461 2.086 3.597 3.034.568.379 1.136.568 1.704.758.189.189.568.379.757.379.19.19.568.379.758.379.568.379.946.569 1.514.948.568.379.947.758 1.325 1.137.947.759 1.894 1.517 2.651 2.275.757.758 1.514 1.517 2.082 2.275-.378.19-.757.19-.946.379-.379.19-.568.379-.757.569l-.19.189v.38h.19v-.19l.189-.19c.189-.189.568-.379.757-.568.379-.19.568-.19.947-.379h.189c.947.379 2.083.947 2.84 1.327.189.189.379.189.568.379.189.189.378.379.568.379l.568.569c.189.189.378.379.378.568.19.19.19.379.379.759 0 .189.189.568.189.758.19.569.19.948.19 1.516 0 .38-.19.948-.379 1.327-.947-.568-1.704-.947-2.65-1.516-.19-.379-.568-.569-.947-.948s-.757-.569-.947-.948c-.757-.569-1.514-1.137-2.271-1.516-1.515-.948-3.03-1.707-4.734-2.275l-.189-.19c-.946-.948-2.272-1.896-3.408-2.654-1.136-.948-2.461-1.706-3.786-2.464 1.136.948 2.461 1.706 3.597 2.654 1.136.758 2.083 1.706 3.029 2.654h-.189l-1.136.568-1.515 1.138v.189h.19s.757-.568 1.514-.947l1.136-.569c.19 0 .19 0 .379-.19 1.893.569 3.408 1.327 4.733 2.275.757.569 1.514.948 2.082 1.517.379.189.568.568.947.948l.568.568h-.189c-.379.19-.758.379-1.136.759-.379.379-.758.568-.947.947l-.379.38v.189h.19l.378-.379c.19-.19.568-.569.947-.758l1.136-.569h.379c1.325.569 2.461 1.327 3.786 2.085.568.379 1.325.569 1.893.948l1.704 1.138c.947.947 1.704 2.085 1.893 3.412 0 .758 0 1.327-.378 1.896-.19.189-.379.568-.568.758-.19-.19-.379-.19-.568-.379-1.326-.948-2.84-1.896-4.355-2.654-1.514-.759-3.029-1.138-4.733-1.517-1.514-1.327-3.218-2.654-5.111-3.791a39.684 39.684 0 0 0-5.68-2.844s0-.189-.189-.189c-.568-.569-1.136-1.138-1.893-1.517-.758-.569-1.326-.948-2.083-1.517-1.515-.947-2.84-1.895-4.354-2.654 1.514.948 2.839 1.896 4.354 2.844.757.569 1.325.948 2.083 1.517.567.379 1.135.947 1.514 1.327h-.379c-.378.189-.946.379-1.514.758-.568.379-.947.758-1.325 1.137-.19.19-.19.379-.379.379 0 .19-.189.19-.189.19v.19h.189l.189-.19.379-.379c.379-.379.757-.758 1.325-.948.568-.379.947-.569 1.515-.569H144.981c2.083.759 3.976 1.706 5.68 2.844 1.704 1.137 3.218 2.275 4.543 3.602-.378.189-.946.379-1.325.568-.379.38-.757.569-.946.948l-.379.379v.19h.189l.379-.379c.189-.19.568-.569.946-.758l1.136-.569h.379c1.704.379 3.218.948 4.733 1.706 1.515.758 2.84 1.517 4.165 2.464 1.325.948 2.461 2.275 3.029 3.792.379.758.568 1.516.19 2.275-.19.758-.947 1.327-1.515 1.706-.757.379-1.515.568-2.272.568-.757 0-1.704 0-2.461-.189-1.515-.19-2.84-.758-4.165-1.327 0-.379-.189-.758-.189-1.138-.19-.379-.19-.758-.568-1.137-.19-.379-.568-.569-.758-.948-1.136-1.137-2.461-2.085-3.786-2.654-1.325-.758-2.84-1.137-4.354-1.516l-.568-.569-.568-.569c-.379-.379-.947-.758-1.326-1.137-.946-.758-1.893-1.327-2.839-1.896-1.894-1.137-3.787-2.085-5.869-2.843a27.043 27.043 0 0 0-3.787-2.654c-1.325-.948-2.65-1.707-3.976-2.465 1.326.948 2.651 1.706 3.787 2.654 1.136.758 2.272 1.706 3.408 2.654h-.19c-.378.19-.946.379-1.325.758l-.568.569c0 .19-.189.19-.189.379 0 .19-.189.19-.189.379-.19.19-.19.38-.19.38v.379h.19v-.19c0-.189.189-.189.189-.379l.189-.19.189-.189.568-.569c.379-.379.947-.569 1.326-.569.189 0 .378 0 .568-.189.946.379 2.082.948 3.029 1.327.946.569 1.893.948 2.84 1.516.946.569 1.893 1.138 2.65 1.896.379.379.947.758 1.325.948l.568.569.19.189h-.19c-.378.19-.946.379-1.325.569l-.568.569c-.189.189-.379.379-.379.568-.189.19-.189.379-.189.379v.38h.189v-.19s.19-.19.19-.379c.189-.19.189-.379.378-.569.19-.189.379-.379.568-.379l1.136-.569H147.442c1.515.379 3.029.759 4.355 1.517 1.325.758 2.65 1.516 3.786 2.654.568.569.947 1.137 1.136 1.896.189.758.379 1.516 0 2.085s-.947 1.137-1.704 1.327c-.757.379-1.325.379-2.082.379-1.515-.19-3.03-.379-4.544-.948-1.515-.379-2.84-.948-4.355-1.516-2.839-1.138-5.679-2.275-8.519-3.602a42.6 42.6 0 0 1-4.165-2.086c-.947-.379-1.893-.947-2.84-1.516-.568-1.327-1.514-2.464-2.65-3.412s-2.272-1.706-3.597-2.275c-2.651-1.517-7.763-2.085-7.952-2.275-.189-1.517-.379-3.033-.757-4.55-.189-.758-.379-1.706-.568-2.464-.189-.758-.379-1.517-.757-2.085v-.38c.568-.758.946-1.327 1.325-2.085.189-.379.378-.758.568-1.327.189-.189.189-.379.189-.568 0-.19.189-.38.189-.759 0-.189 0-.189-.189-.189s-.189 0-.189.189c0 .19-.189.379-.189.569 0 .19-.19.379-.19.569l-.568 1.137c-.378.758-.946 1.327-1.325 2.085h-.568c-.379 0-.947-.189-1.325-.189-.947-.19-2.083-.19-2.083-.19s-.189 0-.189.19c0 0 0 .189.189.189l1.893.379c.568.19.947.19 1.326.38.189 0 .378.189.568.189.189.758.378 1.517.568 2.085.189.759.378 1.517.568 2.465.378 1.516.568 4.55.378 4.55-.568 0-1.136.189-1.704.568-.568.19-1.136.569-1.514.759l-.758.379v.189h.19s.189-.189.757-.379c.379-.189.947-.379 1.515-.569.568-.189 1.136-.379 1.704-.379h.568c2.65.19 5.49.759 7.951 2.086 1.325.568 2.461 1.327 3.408 2.274.946.948 1.893 1.896 2.461 3.033.189.569.379 1.327.379 1.896s-.379 1.327-.758 1.706c-.568.379-1.136.379-1.893.379-.757 0-1.325 0-2.082-.189-1.326-.19-2.651-.379-4.166-.569l-2.082-.379-2.083-.19-4.165-.568-.568.379c-.378 0-.757 0-.946-.19-.379 0-.568-.189-.757-.379l-3.03-2.843-1.514-1.327-.757-.759-.758-.758c-.189-.189-.378-.569-.378-.758l-.19-.948-.378-2.085c-.379-1.327-.568-2.654-.947-3.981l-1.893-7.962v-.948c0-.569 0-1.137.19-1.896-.19-1.327 0-2.654 0-2.654s0-.189-.19-.189c0 0-.19 0-.19.189 0 0-.378 1.327-.567 2.654-.19.759-.19 1.327-.19 1.896v.379l-7.005-4.36-7.572-4.739h-.19v.189l7.384 4.929 7.194 4.739 1.893 7.962c.379 1.327.568 2.654.947 3.981l.568 2.086.189.947c0 .38.189.759.568 1.138.189.379.568.569.757.758l.758.758 1.514 1.327 3.029 2.844c.19.189.568.379.947.569.378.189.757.189 1.136.189l2.082.19 4.165.568c1.326.19 2.84.38 4.165.569 1.326.19 2.651.569 4.165.569.758 0 1.326.189 2.083.189h1.136c.189 0 .379 0 .568-.189.189 0 .379-.19.568-.379.568-.569.946-1.327.946-1.896 0-.379 0-.948-.189-1.327l2.272 1.137c1.325.759 2.84 1.327 4.165 1.896a79.717 79.717 0 0 0 8.519 3.412c1.515.569 2.84.948 4.355 1.327 1.514.38 3.029.759 4.544.948h1.135c.19 0 .379 0 .568-.189.19 0 .379-.19.568-.19l1.136-.569c.379-.189.568-.568.758-.947.189-.19.189-.569.189-.948 1.325.568 2.65.948 4.165 1.327.757.189 1.704.189 2.461.189.757 0 1.704-.189 2.461-.758.758-.379 1.515-.948 1.704-1.896.568-.758.379-1.706.189-2.464Z" opacity=".8"/><path fill="#FFE5D0" d="M129.457 135.704c.189-.379 0-.758-.19-1.138-1.136-.947-3.786-1.706-5.679-1.516-2.651.189-2.272 2.464-1.894 3.033 3.219.569 4.734.948 6.059.569.757 0 1.325-.379 1.704-.948Z"/><path fill="#FFE5D0" d="M122.83 133.429c-1.893.758-1.514 2.464-1.325 2.844h.568c.189-.759.947-2.654.757-2.844Z" opacity=".3"/><path fill="#FFE5D0" d="M128.511 136.462c-1.704.19-4.165 0-7.951-.569 0 .19.189.19.189.38 3.597.568 4.922.758 6.437.758.378 0 1.514 0 2.082-.948-.189.19-.568.19-.757.379Z" opacity=".6"/><path fill="#FFB18F" d="M98.598 108.216c-1.515-1.327-6.626-6.445-6.626-6.445.378-6.825 7.004-14.407 12.873-16.303l-2.65-1.706c-8.898-1.517-18.743 18.767-18.743 18.767l14.767 9.479c0-1.138.379-3.792.379-3.792Z" opacity=".6"/></g><path fill="#FFFFF7" d="m44.83 89.07-.946.568c-.568.38-.947.38-1.136.19-.379 0-.568-.19-.568-.758v-3.033c0-.57.189-.948.378-1.327.19-.38.568-.759 1.136-1.138l.947-.569c.568-.379.947-.379 1.136-.19.19.19.378.38.378.949v.379c0 .19 0 .19-.189.379l-.757.38h-.19v-.38c0-.19 0-.38-.189-.38 0 0-.19 0-.378.19l-.568.38c-.19.19-.38.19-.38.379 0 .19-.188.379-.188.569V88.5c0 .19 0 .38.189.38 0 0 .19 0 .379-.19l.568-.38c.189-.19.378-.19.378-.379 0-.19.19-.379.19-.568v-.38c0-.19 0-.19.189-.379l.757-.379h.19v.38c0 .568-.19.947-.38 1.326-.189.569-.567.948-.946 1.138ZM48.427 86.984l-.757.38h-.19v-5.688c0-.19 0-.19.19-.379l2.272-1.327c.568-.379.946-.379 1.136-.19.189.19.378.38.378.949v.758c0 .758-.19 1.327-.757 1.896l.947 1.516c0 .19 0 .19-.19.38l-.757.379c-.19 0-.19.189-.19.189h-.189l-.946-1.706-.568.38-.19.189v1.895c0 .19-.189.38-.189.38Zm.19-3.412.946-.569c.19-.19.379-.19.379-.379.189-.19.189-.379.189-.568v-.759c0-.19 0-.379-.19-.379-.189 0-.189 0-.378.19l-.947.569-.189.19.19 1.705ZM55.811 82.624l-3.029 1.707h-.19v-5.688c0-.19 0-.19.19-.379l3.03-1.706H56v.569c0 .19 0 .19-.19.379l-1.893 1.137-.19.19v1.327h.19l1.704-.948h.19v.569c0 .19 0 .19-.19.379l-1.704.948-.19.19v1.326h.19l1.893-1.137h.19v.569c0 .379 0 .568-.19.568ZM57.137 81.677v-5.688c0-.19 0-.19.189-.379l2.272-1.327c.568-.379.947-.379 1.136-.19.19.19.378.38.378.948v3.034c0 .568-.189.947-.378 1.327-.19.379-.568.758-1.136 1.137l-2.272 1.327c-.19 0-.19 0-.19-.19Zm1.325-1.517.947-.569c.189-.19.378-.19.378-.379 0-.19.19-.38.19-.569V75.8c0-.19 0-.38-.19-.38 0 0-.19 0-.378.19l-.947.569-.19.19.19 3.79c-.19 0-.19 0 0 0ZM63.572 72.198v5.687c0 .19 0 .19-.189.38l-.757.378h-.19v-5.687c0-.19 0-.19.19-.379l.757-.379h.19ZM66.791 76.368l-.757.38h-.19v-4.74h-.189l-1.136.57h-.189v-.57c0-.19 0-.19.19-.379l3.597-2.085h.189v.569c0 .19 0 .19-.19.379l-1.135.569-.19.19v4.738c.19.19.19.38 0 .38Z"/><defs><linearGradient id="a" x1="98" x2="98" y1="0" y2="163" gradientUnits="userSpaceOnUse"><stop stop-color="#21FFE4"/><stop offset="1" stop-color="#19EFD5"/></linearGradient><linearGradient id="b" x1="105.243" x2="90.752" y1="84.308" y2="109.375" gradientUnits="userSpaceOnUse"><stop stop-color="#FFFEFA"/><stop offset="1" stop-color="#F1F0EC"/></linearGradient><linearGradient id="d" x1="138.219" x2="123.463" y1="90.929" y2="126.565" gradientUnits="userSpaceOnUse"><stop stop-color="#FFD2B1"/><stop offset=".485" stop-color="#FFB59A"/><stop offset="1" stop-color="#ED9783"/></linearGradient></defs></svg>