<svg xmlns="http://www.w3.org/2000/svg" width="196" height="163" fill="none"><rect width="196" height="163" fill="url(#a)" opacity=".2" rx="15"/><path fill="#C0B9C8" d="M99.873 14.072c-.363 0-.727 0-.909.182l-73.76 42.64.544.181 73.762-42.64c.363-.181.726-.181.908-.181l-.545-.182ZM40.828 125.662l-16.17-65.684-.545-.181 16.17 65.684c.181.725.545 1.27 1.09 1.27l.545.181c-.545 0-.909-.544-1.09-1.27Z"/><path fill="#E0DBE1" d="m25.749 56.894-.545-.182c-.909.545-1.454 1.815-1.09 3.085l.545.181c-.363-1.088.181-2.54 1.09-3.084Z"/><path fill="#282525" d="m117.86 81.389-16.351-65.865c-.364-1.089-1.272-1.633-2.18-1.089l-73.58 42.459c-.909.544-1.454 1.814-1.09 3.084l16.17 65.684c.362 1.089 1.27 1.633 2.18 1.089l73.761-42.459c.726-.544 1.271-1.814 1.09-2.903Z"/><path fill="#6426DB" d="M114.59 76.308 99.874 16.431 26.294 58.89l14.716 59.877 73.58-42.459Z"/><path fill="url(#b)" d="M42.281 126.025v1.996c0 .363.182.726.727.907l51.778 29.939c.909.544 2.362.544 3.27 0l73.217-42.459c.363-.181.727-.544.727-.907v-1.996l-129.719 12.52Z"/><path fill="url(#c)" d="m171.092 112.416-51.779-29.938c-.908-.545-2.361-.545-3.27 0l-73.216 42.64c-.909.544-.909 1.451 0 1.814l51.778 29.939c.908.544 2.362.544 3.27 0l73.217-42.459c.908-.725.908-1.451 0-1.996Z"/><path fill="#C0B9C8" d="M111.32 91.55v-.181c0-.182 0-.363.181-.363l3.452-1.996c.364-.182.909-.182 1.272 0l2.907 1.633c.182.181.182.181.182.363v.363c0 .181 0 .362-.182.362l-3.452 1.996c-.363.182-.908.182-1.272 0l-2.907-1.633c-.181-.181-.181-.362-.181-.544Zm5.632-2.722 2.907 1.633c.363.182.908.182 1.271 0l3.452-1.995c.182-.182.182-.182.182-.363v-.363c0-.182 0-.363-.182-.363l-2.907-1.633a1.551 1.551 0 0 0-1.271 0l-3.452 1.996c-.182.181-.182.181-.182.363v.362c0 .182 0 .182.182.363Zm-10.901 6.351 2.907 1.633c.363.181.908.181 1.272 0l3.452-1.996c.181-.181.181-.181.181-.363v-.363c0-.181 0-.363-.181-.363l-3.089-1.633c-.363-.181-.908-.181-1.272 0l-3.27 1.996c-.182.182-.182.182-.182.363v.363c-.181.182 0 .363.182.363Zm-41.786 35.564 2.907 1.633c.363.181.908.181 1.272 0l3.451-1.996c.182-.182.182-.182.182-.363v-.363c0-.182 0-.363-.181-.363l-2.907-1.633a1.557 1.557 0 0 0-1.272 0l-3.452 1.996c-.182.181-.182.181-.182.363v.363c0 .181 0 .363.182.363Zm12.172-18.508 2.907 1.633c.364.181.909.181 1.272 0l3.452-1.996c.182-.181.182-.181.182-.363v-.363c0-.181 0-.363-.182-.363l-2.907-1.633a1.557 1.557 0 0 0-1.272 0l-3.451 1.996c-.182.182-.182.182-.182.363v.363c-.182 0 0 .182.181.363Zm11.083-6.351 2.907 1.633a1.55 1.55 0 0 0 1.271 0l3.452-1.996c.182-.181.182-.181.182-.362v-.363c0-.182 0-.363-.182-.363l-2.907-1.633a1.55 1.55 0 0 0-1.271 0l-3.452 1.996c-.182.181-.182.181-.182.363v.362c-.181 0 0 .182.182.363Zm11.082-6.35 2.907 1.633c.363.181.908.181 1.272 0l5.268-3.085c.182-.181.182-.181.182-.363v-.363c0-.181 0-.362-.182-.362l-2.906-1.634c-.364-.181-.909-.181-1.272 0l-5.269 3.085c-.181.181-.181.181-.181.363v.363c-.182 0 0 .181.181.363Zm-5.632 3.084 2.907 1.633a1.55 1.55 0 0 0 1.272 0l3.452-1.996c.181-.181.181-.181.181-.362v-.363c0-.182 0-.363-.181-.363l-2.907-1.633a1.554 1.554 0 0 0-1.272 0l-3.452 1.996c-.181.181-.181.181-.181.363v.362c0 .182 0 .182.181.363Zm-11.082 6.351 2.907 1.633c.363.181.908.181 1.271 0l3.452-1.996c.182 0 .182-.181.182-.363v-.363c0-.181 0-.363-.182-.363l-2.907-1.633a1.557 1.557 0 0 0-1.271 0l-3.452 1.996c-.182.182-.182.182-.182.363v.363c0 .181 0 .363.182.363Zm23.618-7.621 2.907 1.633c.363.182.908.182 1.272 0l3.451-1.996c.182-.181.182-.181.182-.363v-.362c0-.182 0-.363-.182-.363l-2.906-1.633c-.364-.182-.909-.182-1.272 0l-3.452 1.996c-.182.181-.182.181-.182.362v.363c-.181 0 0 .182.182.363Zm-44.33 25.403 2.907 1.633c.364.181.909.181 1.272 0l3.452-1.996c.182-.182.182-.182.182-.363v-.363c0-.181 0-.363-.182-.363l-2.907-1.633a1.557 1.557 0 0 0-1.272 0l-3.452 1.996c-.181.181-.181.181-.181.363v.363c0 .181 0 .363.181.363Zm38.698-22.318 2.907 1.633c.363.181.908.181 1.272 0l3.451-1.996c.182-.182.182-.182.182-.363v-.363c0-.181 0-.363-.182-.363l-2.906-1.633c-.364-.181-.909-.181-1.272 0l-3.452 1.996c-.182.182-.182.182-.182.363v.363c0 .181 0 .363.182.363Zm-5.45 3.266 2.906 1.633c.364.181.909.181 1.272 0l3.452-1.996c.182-.182.182-.182.182-.363v-.363c0-.181 0-.363-.182-.363l-2.907-1.633a1.557 1.557 0 0 0-1.272 0l-3.451 1.996c-.182.182-.182.182-.182.363v.363s0 .181.182.363Zm-5.45 3.266 2.906 1.633c.364.181.909.181 1.272 0l3.452-1.996c.181-.181.181-.181.181-.363v-.363c0-.181 0-.363-.181-.363l-2.907-1.633a1.557 1.557 0 0 0-1.272 0l-3.452 1.996c-.181.182-.181.182-.181.363v.363c-.182 0-.182.181.181.363Zm-22.166 12.701 2.907 1.633a1.55 1.55 0 0 0 1.272 0l3.452-1.996c.182-.181.182-.181.182-.363v-.363c0-.181 0-.362-.182-.362l-2.907-1.633a1.55 1.55 0 0 0-1.272 0l-3.452 1.995c-.181.182-.181.182-.181.363v.363c-.182 0 0 .182.181.363Zm5.45-3.266 2.908 1.633a1.55 1.55 0 0 0 1.272 0l3.451-1.996c.182-.181.182-.181.182-.363v-.363c0-.181 0-.362-.182-.362-4.178-2.359-2.725-2.359-7.448.362-.182.182-.182.182-.182.363v.363c-.182.182-.182.363 0 .363Zm5.633-3.085 2.907 1.634c.363.181.908.181 1.272 0l3.451-1.996c.182-.182.182-.182.182-.363v-.363c0-.182 0-.363-.182-.363l-3.088-1.633a1.55 1.55 0 0 0-1.272 0l-3.452 1.996c-.181.181-.181.181-.181.363v.363l.363.362Zm5.45-3.266c2.907 1.633 3.27 2.178 4.179 1.633l3.452-1.995c.181-.182.181-.182.181-.363v-.363c0-.182 0-.363-.181-.363l-2.907-1.633a1.55 1.55 0 0 0-1.272 0l-3.452 1.996c-.181.181-.181.181-.181.363v.363c0 .181 0 .181.181.362Zm-9.81 21.048v-.181c0-.182 0-.363-.182-.363l-2.907-1.633a1.55 1.55 0 0 0-1.272 0l-5.268 3.084c-.182.182-.182.182-.182.363v.363c0 .182 0 .363.182.363l2.906 1.633a1.55 1.55 0 0 0 1.272 0l5.269-3.084c.182-.182.182-.363.182-.545Zm-6.904-1.814v-.182c0-.181 0-.363-.182-.363l-2.907-1.633a1.557 1.557 0 0 0-1.271 0l-3.452 1.815c-.182.181-.182.181-.182.363v.363c0 .181 0 .363.182.363l2.907 1.633c.363.181.908.181 1.271 0l3.452-1.996c0-.182.182-.182.182-.363Zm4.178-17.963c4.179 2.358 2.726 2.54 7.45-.363.18-.182.18-.182.18-.363v-.363c0-.182 0-.363-.18-.363l-2.908-1.633a1.557 1.557 0 0 0-1.271 0l-3.452 1.996c-.182.181-.182.181-.182.363v.363c.182.181.182.363.363.363Zm58.137-12.157v-.182c0-.181 0-.363-.181-.363l-2.907-1.633c-.363-.181-.908-.181-1.272 0l-3.452 1.996c-.181.182-.181.182-.181.363v.363c0 .181 0 .363.181.363l2.907 1.633c.364.181.909.181 1.272 0l3.452-1.996c0-.181.181-.363.181-.544Zm-65.585 26.128v-.181c0-.182 0-.363-.182-.363l-2.907-1.633a1.55 1.55 0 0 0-1.272 0l-5.268 3.084c-.182.182-.182.182-.182.363v.363c0 .181 0 .363.182.363l2.907 1.633c.363.181.908.181 1.271 0l5.269-3.085c.182-.181.363-.363.182-.544Zm1.998-10.705 2.907 1.633c.363.181.908.181 1.272 0l3.452-1.996c.181-.182.181-.182.181-.363v-.363c0-.182 0-.363-.181-.363l-2.907-1.633a1.557 1.557 0 0 0-1.272 0l-3.452 1.996c-.182.181-.182.181-.182.363v.363c0 .181 0 .181.182.363Zm-5.632 3.266 2.907 1.633c.363.181.908.181 1.272 0l3.451-1.996c.182-.182.182-.182.182-.363v-.363c0-.181 0-.363-.181-.363l-2.907-1.633a1.557 1.557 0 0 0-1.272 0l-3.452 1.996c-.182.181-.182.181-.182.363v.363s0 .181.182.363Zm-3.27 5.625v-.182c0-.181 0-.363-.182-.363l-2.907-1.814a1.55 1.55 0 0 0-1.271 0l-3.452 1.996c-.182.181-.182.181-.182.363v.362c0 .182 0 .363.182.363l2.907 1.633a1.55 1.55 0 0 0 1.271 0l3.452-1.996c.182-.181.182-.181.182-.362Zm-2.18-2.541 2.906 1.633a1.55 1.55 0 0 0 1.272 0l3.452-1.996c.182-.181.182-.181.182-.363v-.362c0-.182 0-.363-.182-.363l-2.907-1.633a1.55 1.55 0 0 0-1.271 0l-3.452 1.996c-.182.181-.182.181-.182.362v.363c0 .182 0 .363.182.363Zm90.657-25.402c0-.182 0-.363-.181-.363l-2.907-1.633c-.364-.182-.909-.182-1.272 0l-3.27 1.814c-.182.182-.182.182-.182.363v.363c0 .182 0 .363.182.363l2.907 1.633c.363.181.908.181 1.271 0l3.452-1.996c.182-.181.182-.181.182-.363-.182 0-.182 0-.182-.181Zm-21.801 6.169-2.907-1.633c-.363-.182-.908-.182-1.272 0l-3.452 1.996c-.181.181-.181.181-.181.363v.363c0 .181 0 .362.181.362l2.907 1.634c.364.181.909.181 1.272 0l3.452-1.996c.181-.182.181-.182.181-.363v-.363s0-.182-.181-.363Zm11.082-6.35-2.907-1.634a1.551 1.551 0 0 0-1.271 0l-3.452 1.996c-.182.182-.182.182-.182.363v.363c0 .181 0 .363.182.363l2.907 1.633c.363.181.908.181 1.271 0l3.452-1.996c.182-.181.182-.181.182-.363v-.363s0-.181-.182-.363Zm-22.165 12.701-2.906-1.633c-.364-.182-.909-.182-1.272 0l-3.452 1.995c-.182.182-.182.363-.182.363v.363c0 .182 0 .363.182.363l2.907 1.633c.363.182.908.182 1.272 0l3.451-1.996c.182-.181.182-.181.182-.363v-.363s0-.181-.182-.362Zm19.985-15.06v.18c0 .182 0 .364.182.364l2.907 1.633c.363.181.908.181 1.271 0l3.452-1.996c.182-.181.182-.181.182-.363v-.363c0-.181 0-.363-.182-.363l-2.907-1.633a1.552 1.552 0 0 0-1.271 0l-3.452 1.996c-.182.182-.364.363-.182.544Zm-42.15 27.942-2.906-1.633a1.557 1.557 0 0 0-1.272 0l-3.452 1.996c-.181.182-.181.182-.181.363v.363c0 .181 0 .363.181.363l2.907 1.633c.363.181.908.181 1.272 0l3.452-1.996c.181-.182.181-.182.181-.363v-.363c0-.181 0-.363-.181-.363Zm11.083-6.35-2.907-1.633a1.55 1.55 0 0 0-1.272 0l-3.451 1.814c-.182.182-.182.182-.182.363v.363c0 .181 0 .363.181.363l2.907 1.633c.364.181.909.181 1.272 0l3.452-1.996c.182-.182.182-.182.182-.363v-.363s0-.181-.182-.181Zm-5.632 3.084-2.907-1.633a1.557 1.557 0 0 0-1.272 0l-3.27 1.996c-.181.182-.181.182-.181.363v.363c0 .181 0 .363.181.363l2.907 1.633c.363.181.908.181 1.272 0l3.452-1.996c.181-.182.181-.182.181-.363v-.363l-.363-.363Zm-11.082 6.351-2.907-1.633a1.55 1.55 0 0 0-1.272 0l-3.27 1.996c-.182.181-.182.181-.182.363v.363c0 .181 0 .362.182.362l2.907 1.633a1.55 1.55 0 0 0 1.271 0l3.452-1.995c.182-.182.182-.182.182-.363v-.363l-.363-.363Zm-5.45 3.266-2.908-1.633a1.55 1.55 0 0 0-1.271 0l-3.452 1.996c-.182.181-.182.181-.182.363v.363c0 .181 0 .362.182.362l2.907 1.633a1.55 1.55 0 0 0 1.271 0l3.452-1.995c.182-.182.182-.182.182-.363v-.363c0-.182 0-.182-.182-.363Zm27.614-15.967-2.906-1.633c-.364-.182-.909-.182-1.272 0l-3.27 1.995c-.182 0-.364.182-.182.363v.363c0 .182 0 .363.182.363l2.906 1.633c.364.182.909.182 1.272 0l3.452-1.996c.182-.181.182-.181.182-.363v-.363c0-.181-.182-.181-.364-.362Zm11.083-6.351-2.907-1.633c-.363-.182-.908-.182-1.272 0l-3.452 1.996c-.181.181-.181.181-.181.363v.363c0 .181 0 .363.181.363l2.907 1.633c.363.181.909.181 1.272 0l3.452-1.996c.181-.182.181-.182.181-.363v-.363c.182-.182 0-.363-.181-.363Zm-30.159 23.044-2.907-1.633a1.55 1.55 0 0 0-1.271 0l-3.452 1.996c-.182.181-.182.181-.182.362v.363c0 .182 0 .363.182.363l2.907 1.633a1.55 1.55 0 0 0 1.271 0l3.452-1.996c.182-.181.182-.181.182-.363v-.362c.181-.182.181-.182-.182-.363Zm5.632-3.266-2.907-1.633a1.55 1.55 0 0 0-1.271 0l-3.452 1.996c-.182.181-.182.181-.182.362v.363c0 .182 0 .363.182.363l2.906 1.633a1.55 1.55 0 0 0 1.272 0l3.452-1.996c.182-.181.182-.181.182-.363v-.362s0-.182-.182-.363Zm-11.082 6.532-2.907-1.633a1.55 1.55 0 0 0-1.272 0l-3.452 1.996c-.181.181-.181.181-.181.362v.363c0 .182 0 .363.181.363l2.907 1.633a1.55 1.55 0 0 0 1.272 0l3.452-1.996c.181-.181.181-.181.181-.363v-.362c0-.182 0-.363-.181-.363Zm-5.45 3.084-2.907-1.633a1.557 1.557 0 0 0-1.272 0l-3.452 1.996c-.182.182-.182.182-.182.363v.363c0 .181 0 .363.182.363l2.907 1.633c.363.181.908.181 1.272 0l3.451-1.996c.182-.181.182-.181.182-.363v-.363s0-.181-.181-.363ZM117.86 102.8l-2.907-1.633a1.548 1.548 0 0 0-1.271 0l-5.269 3.084c-.182.182-.182.182-.182.363v.363c0 .182 0 .363.182.363l2.907 1.633c.363.181.908.181 1.271 0l5.269-3.085c.182-.181.182-.181.182-.362v-.363c.181 0 0-.182-.182-.363Zm9.992 5.806-2.906-1.633c-.364-.181-.909-.181-1.272 0l-5.269 3.085c-.182.181-.182.181-.182.363v.362c0 .182 0 .363.182.363l2.907 1.633c.363.182.908.182 1.272 0l5.268-3.084c.182-.182.182-.182.182-.363v-.363c.182 0 0-.182-.182-.363Zm11.446-6.351-2.907-1.633a1.555 1.555 0 0 0-1.271 0l-3.452 1.996c-.182.182-.182.182-.182.363v.363c0 .182 0 .363.182.363l2.907 1.633c.363.181.908.181 1.271 0l3.452-1.996c.182-.181.182-.181.182-.363v-.363s0-.181-.182-.363Zm-5.632 3.266-2.907-1.633a1.555 1.555 0 0 0-1.271 0l-3.452 1.996c-.182.182-.182.182-.182.363v.363c0 .182 0 .363.182.363l2.906 1.633c.364.181.909.181 1.272 0l3.452-1.996c.182-.181.182-.181.182-.363v-.363c.181-.181 0-.363-.182-.363Zm-12.899 7.258-2.907-1.633c-.363-.181-.908-.181-1.272 0l-25.616 14.697c-.182.182-.182.182-.182.363v.363c0 .182 0 .363.182.363l2.907 1.633a1.55 1.55 0 0 0 1.271 0l25.617-14.697c.182-.181.182-.181.182-.363v-.363s0-.181-.182-.363Zm-21.256.726-2.907-1.633a1.557 1.557 0 0 0-1.272 0l-3.452 1.996c-.182.181-.182.181-.182.363v.363c0 .181 0 .363.182.363l2.907 1.633c.363.181.908.181 1.272 0l3.452-1.996c.181-.182.181-.182.181-.363v-.363c0-.181 0-.363-.181-.363Zm-5.45 3.085-2.908-1.633a1.55 1.55 0 0 0-1.271 0l-3.452 1.996c-.182.181-.182.181-.182.362v.363c0 .182 0 .363.182.363l2.907 1.633a1.55 1.55 0 0 0 1.271 0l3.452-1.996c.182-.181.182-.181.182-.363v-.362s0-.182-.182-.363Zm11.082-6.351-2.907-1.633c-.364-.181-.909-.181-1.272 0l-3.452 1.996c-.181.181-.181.181-.181.363v.363c0 .181 0 .363.181.363l2.907 1.633c.363.181.908.181 1.272 0l3.452-1.996c.181-.182.181-.182.181-.363v-.363s0-.181-.181-.363Zm16.714-19.233c0 .181 0 .181 0 0v.181c0 .182 0 .363.182.363l2.907 1.633c.363.181.908.181 1.271 0l3.452-1.996c.182-.181.182-.181.182-.363v-.363c0-.181 0-.362-.182-.362l-2.907-1.633a1.551 1.551 0 0 0-1.271 0l-3.452 1.995c-.182.363-.182.545-.182.545Zm-11.264 16.148-2.907-1.633c-.363-.181-.908-.181-1.272 0l-3.452 1.996c-.181.182-.181.182-.181.363v.363c0 .182 0 .363.181.363l2.907 1.633c.364.182.909.182 1.272 0l3.452-1.996c.182-.181.182-.181.182-.363v-.363c0-.181 0-.363-.182-.363Zm-22.165 12.702-2.907-1.633a1.55 1.55 0 0 0-1.271 0l-3.452 1.996c-.182.181-.182.181-.182.363v.362c0 .182 0 .363.182.363l2.907 1.633a1.55 1.55 0 0 0 1.271 0l3.452-1.996c.182-.181.182-.181.182-.362v-.363c.182-.182 0-.182-.182-.363Zm-11.082 6.35-2.907-1.633a1.557 1.557 0 0 0-1.272 0l-3.27 1.996c-.182 0-.363.182-.182.363v.363c0 .182 0 .363.182.363l2.907 1.633c.363.181.908.181 1.272 0l3.452-1.996c.181-.181.181-.181.181-.363v-.363l-.363-.363Zm5.632-3.084-2.907-1.633a1.55 1.55 0 0 0-1.272 0l-3.452 1.996c-.181 0-.181.181-.181.181v.363c0 .181 0 .363.181.363l2.907 1.633c.364.181.909.181 1.272 0l3.452-1.996c.181-.181.182-.181.182-.363v-.363s0-.181-.182-.181Z"/><path fill="#3D3838" d="m56.271 127.295-3.452 1.996a1.557 1.557 0 0 1-1.272 0l-2.906-1.633c-.364-.181-.364-.544 0-.726l3.452-1.996a1.557 1.557 0 0 1 1.271 0l2.907 1.633c.364.363.364.545 0 .726Zm5.45-3.81-2.906-1.633a1.55 1.55 0 0 0-1.272 0l-3.452 1.996c-.363.181-.363.544 0 .725l2.907 1.633a1.55 1.55 0 0 0 1.272 0l3.451-1.996c.364-.181.364-.544 0-.725Zm5.633-3.266-2.907-1.633a1.55 1.55 0 0 0-1.272 0l-3.452 1.996c-.363.181-.363.544 0 .725l2.907 1.633a1.55 1.55 0 0 0 1.272 0l3.451-1.996c.364-.181.364-.544 0-.725Zm5.45-3.085-2.907-1.633a1.557 1.557 0 0 0-1.272 0l-3.452 1.996c-.363.181-.363.544 0 .726l2.907 1.633c.364.181.909.181 1.272 0l3.452-1.996c.363-.363.363-.545 0-.726Zm5.632-3.266-2.907-1.633a1.557 1.557 0 0 0-1.272 0l-3.452 1.996c-.363.181-.363.544 0 .726l2.907 1.633c.364.181.909.181 1.272 0l3.452-1.996c.363-.182.363-.545 0-.726Zm5.45-3.085-2.907-1.633a1.557 1.557 0 0 0-1.271 0l-3.452 1.996c-.364.182-.364.545 0 .726l2.907 1.633a1.55 1.55 0 0 0 1.271 0l3.452-1.996c.364-.363.364-.544 0-.726Zm5.632-3.266-2.906-1.633a1.557 1.557 0 0 0-1.272 0l-3.452 1.996c-.364.182-.364.545 0 .726l2.907 1.633a1.55 1.55 0 0 0 1.271 0l3.452-1.996c.364-.181.364-.544 0-.726Zm5.45-3.266-2.906-1.633a1.557 1.557 0 0 0-1.272 0l-3.452 1.996c-.363.182-.363.545 0 .726l2.907 1.633c.363.181.908.181 1.272 0l3.452-1.996c.363-.181.363-.544 0-.726Zm5.633-3.084-2.907-1.633a1.554 1.554 0 0 0-1.272 0l-3.452 1.996c-.363.181-.363.544 0 .725l2.907 1.633a1.55 1.55 0 0 0 1.272 0l3.452-1.995c.181-.182.181-.545 0-.726Zm7.267-4.174-2.907-1.633c-.363-.181-.908-.181-1.272 0l-5.268 3.085c-.364.181-.364.544 0 .726l2.906 1.633c.364.181.909.181 1.272 0l5.269-3.266c.363-.182.363-.363 0-.544Zm20.711 5.444-2.907-1.633a1.548 1.548 0 0 0-1.271 0l-3.452 1.996c-.364.181-.364.544 0 .726l2.907 1.633c.363.181.908.181 1.271 0l3.452-1.996c.364-.182.364-.545 0-.726Zm5.632-3.266-2.907-1.633a1.552 1.552 0 0 0-1.271 0l-3.452 1.996c-.364.181-.364.544 0 .726l2.907 1.633c.363.181.908.181 1.271 0l3.452-1.996c.364-.182.364-.545 0-.726Zm5.451-3.085-2.907-1.633c-.364-.181-.909-.181-1.272 0l-3.452 1.996c-.363.182-.363.544 0 .726l2.907 1.633c.363.181.908.181 1.272 0l3.452-1.996c.363-.181.363-.544 0-.726Zm-5.996 9.254-2.907-1.633a1.555 1.555 0 0 0-1.271 0l-3.452 1.996c-.364.181-.364.544 0 .726l2.907 1.633c.363.181.908.181 1.271 0l3.452-1.996c.364-.182.364-.545 0-.726Zm5.632-3.266-2.907-1.633a1.555 1.555 0 0 0-1.271 0l-3.452 1.996c-.364.181-.364.544 0 .726l2.907 1.633c.363.181.908.181 1.271 0l3.452-1.996c.182-.182.182-.545 0-.726Zm5.451-3.085-2.907-1.633c-.364-.181-.909-.181-1.272 0l-3.27 1.996c-.364.182-.364.545 0 .726l2.907 1.633c.363.182.908.182 1.271 0l3.452-1.996c.182-.181.182-.544-.181-.726Zm-81.574 29.576-2.907-1.633a1.557 1.557 0 0 0-1.272 0l-5.268 3.085c-.364.181-.364.544 0 .726l2.907 1.633c.363.181.908.181 1.271 0l5.269-3.085c.363-.363.363-.544 0-.726Zm5.632-3.266-2.907-1.633a1.557 1.557 0 0 0-1.272 0l-3.452 1.996c-.363.181-.363.544 0 .726l2.907 1.633c.364.181.909.181 1.272 0l3.452-1.996c.182-.182.182-.544 0-.726Zm5.45-3.084-2.907-1.633a1.55 1.55 0 0 0-1.271 0l-3.452 1.995c-.364.182-.364.545 0 .726l3.088 1.452c.364.181.909.181 1.272 0l3.452-1.996c.182-.182.182-.363-.182-.544Zm5.632-3.266-2.906-1.634a1.557 1.557 0 0 0-1.272 0l-3.452 1.996c-.364.182-.364.545 0 .726l2.907 1.633a1.55 1.55 0 0 0 1.272 0l3.451-1.996c.182-.181.182-.544 0-.725Zm5.45-3.267-2.906-1.633a1.557 1.557 0 0 0-1.272 0l-3.452 1.996c-.363.182-.363.545 0 .726l2.907 1.633a1.55 1.55 0 0 0 1.272 0l3.452-1.996c.363-.181.363-.544 0-.726Zm5.451-3.084-2.907-1.633a1.55 1.55 0 0 0-1.271 0l-3.452 1.996c-.364.181-.364.544 0 .726l2.906 1.633c.364.181.909.181 1.272 0l3.452-1.996c.363-.182.363-.545 0-.726Zm5.632-3.266-2.907-1.633a1.55 1.55 0 0 0-1.272 0l-3.451 1.996c-.364.181-.364.544 0 .726l2.906 1.633c.364.181.909.181 1.272 0l3.452-1.996c.363-.182.363-.545 0-.726Zm5.45-3.085-2.906-1.633a1.557 1.557 0 0 0-1.272 0l-3.452 1.996c-.363.182-.363.544 0 .726l2.907 1.633c.363.181.908.181 1.272 0l3.451-1.996c.364-.363.364-.544 0-.726Zm5.632-3.266-2.906-1.633c-.364-.181-.909-.181-1.272 0l-3.452 1.996c-.363.182-.363.544 0 .726l2.907 1.633c.363.181.908.181 1.272 0l3.451-1.996c.364-.181.364-.544 0-.726Zm5.451-3.266-2.907-1.633c-.363-.181-.908-.181-1.272 0l-3.452 1.996c-.363.182-.363.544 0 .726l2.907 1.633c.364.181.909.181 1.272 0l3.452-1.996c.363-.181.363-.544 0-.726Zm-46.692 32.661-2.906-1.633a1.55 1.55 0 0 0-1.272 0l-3.27 1.995c-.364.182-.364.545 0 .726l2.907 1.633a1.55 1.55 0 0 0 1.271 0l3.452-1.996c.182-.181.182-.544-.181-.725Zm5.632-3.085-2.906-1.633a1.557 1.557 0 0 0-1.272 0l-3.452 1.996c-.363.181-.363.544 0 .726l2.907 1.633c.363.181.908.181 1.272 0l3.451-1.996c.364-.182.364-.545 0-.726Zm5.45-3.266-2.906-1.633a1.55 1.55 0 0 0-1.272 0l-3.452 1.996c-.363.181-.363.544 0 .726l2.907 1.633c.364.181.909.181 1.272 0l3.452-1.996c.363-.182.363-.545 0-.726Zm5.633-3.085-2.907-1.633a1.557 1.557 0 0 0-1.272 0l-3.452 1.996c-.363.182-.363.545 0 .726l2.907 1.633c.364.181.909.181 1.272 0l3.452-1.996c.363-.363.363-.544 0-.726Zm-6.54 15.242-2.907-1.633a1.55 1.55 0 0 0-1.272 0l-3.452 1.996c-.363.181-.363.544 0 .726l2.907 1.633c.363.181.908.181 1.272 0l3.451-1.996c.182-.182.182-.545 0-.726Zm5.45-3.085-2.907-1.633a1.557 1.557 0 0 0-1.272 0l-3.452 1.996c-.363.182-.363.545 0 .726l2.907 1.633c.364.181.909.181 1.272 0l3.452-1.996c.363-.181.363-.544 0-.726Zm5.45-3.266-2.725-1.633a1.557 1.557 0 0 0-1.272 0l-3.452 1.996c-.363.182-.363.544 0 .726l2.907 1.633c.364.181.909.181 1.272 0l3.452-1.996c.181-.181.181-.544-.182-.726Zm5.632-3.084-2.907-1.633a1.55 1.55 0 0 0-1.271 0l-3.452 1.996c-.364.181-.364.544 0 .725l2.907 1.633a1.55 1.55 0 0 0 1.271 0l3.452-1.996c.364-.362.364-.544 0-.725Zm34.882-20.322-2.906-1.633c-.364-.182-.909-.182-1.272 0l-5.269 3.084c-.363.182-.363.545 0 .726l2.907 1.633c.363.181.908.181 1.272 0l5.268-3.085c.364-.181.364-.362 0-.725Zm-39.424 11.249-2.907-1.633a1.557 1.557 0 0 0-1.271 0l-3.452 1.996c-.364.182-.364.545 0 .726l2.907 1.633c.363.181.908.181 1.271 0l3.452-1.996c.364-.181.364-.544 0-.726Zm5.632-3.266-2.907-1.633a1.557 1.557 0 0 0-1.271 0l-3.452 1.996c-.364.182-.364.544 0 .726l2.907 1.633c.363.181.908.181 1.271 0l3.452-1.996c.182-.181.182-.363 0-.726Zm5.45-3.084-2.906-1.633a1.55 1.55 0 0 0-1.272 0l-3.452 1.996c-.363.181-.363.544 0 .725l2.907 1.633a1.55 1.55 0 0 0 1.272 0l3.452-1.996c.363-.181.363-.544 0-.725Zm5.633-3.266-2.907-1.633c-.364-.182-.909-.182-1.272 0l-3.452 1.996c-.363.181-.363.544 0 .725l2.907 1.633c.363.182.908.182 1.272 0l3.452-1.996c.181-.181.181-.544 0-.725Zm5.45-3.085-2.907-1.633c-.363-.181-.908-.181-1.272 0l-3.451 1.996c-.364.181-.364.544 0 .726l2.906 1.633c.364.181.909.181 1.272 0l3.452-1.996c.363-.182.363-.545 0-.726Zm7.267-4.355-2.907-1.633a1.555 1.555 0 0 0-1.271 0l-5.269 3.085c-.363.181-.363.544 0 .726l2.907 1.633c.363.181.908.181 1.271 0l5.269-3.085c.363-.181.363-.363 0-.726Zm-44.693 31.753-2.907-1.633a1.557 1.557 0 0 0-1.271 0l-5.087 2.904c-.364.181-.364.544 0 .725L66.808 138a1.55 1.55 0 0 0 1.272 0l5.269-3.084c.182-.182.182-.363-.182-.545Zm5.632-3.266-2.907-1.633a1.557 1.557 0 0 0-1.271 0l-3.452 1.996c-.364.182-.364.545 0 .726l2.907 1.633a1.55 1.55 0 0 0 1.271 0l3.452-1.996c.364-.181.364-.544 0-.726Zm5.45-3.266-2.906-1.633a1.557 1.557 0 0 0-1.272 0l-3.452 1.996c-.363.182-.363.545 0 .726l2.907 1.633a1.55 1.55 0 0 0 1.272 0l3.452-1.996c.363-.181.363-.363 0-.726Zm5.633-3.084-2.907-1.633a1.55 1.55 0 0 0-1.272 0l-3.452 1.996c-.363.181-.363.544 0 .725l2.907 1.634c.363.181.908.181 1.272 0l3.452-1.996c.363-.182.363-.545 0-.726Zm5.45-3.266-2.907-1.633a1.55 1.55 0 0 0-1.272 0l-3.27 1.996c-.363.181-.363.544 0 .725l2.907 1.633a1.55 1.55 0 0 0 1.272 0l3.452-1.995c.181-.182.181-.545-.182-.726Zm25.435-8.71-2.907-1.633c-.363-.181-.908-.181-1.272 0l-25.616 14.697c-.364.182-.364.545 0 .726l2.907 1.633a1.55 1.55 0 0 0 1.271 0l25.617-14.697c.363-.363.363-.544 0-.726Zm-19.803 5.625-2.907-1.633a1.557 1.557 0 0 0-1.272 0l-3.451 1.815c-.364.181-.364.544 0 .725l2.906 1.633a1.55 1.55 0 0 0 1.272 0l3.452-1.995c.363 0 .363-.363 0-.545Zm5.45-3.266-2.906-1.633c-.364-.181-.909-.181-1.272 0l-3.452 1.996c-.364.181-.364.544 0 .726l2.907 1.633c.363.181.908.181 1.272 0l3.451-1.996c.364-.182.364-.544 0-.726Zm5.632-3.084-2.906-1.815c-.364-.181-.909-.181-1.272 0l-3.452 1.996c-.363.181-.363.544 0 .726l2.907 1.633c.363.181.908.181 1.272 0l3.451-1.996c.364-.182.364-.363 0-.544Zm5.451-3.266-2.907-1.634c-.363-.181-.908-.181-1.272 0l-3.452 1.996c-.363.182-.363.545 0 .726l2.907 1.633a1.55 1.55 0 0 0 1.272 0l3.452-1.996c.363-.181.363-.544 0-.725Zm5.632-3.267-2.907-1.633c-.363-.181-.908-.181-1.272 0l-3.452 1.996c-.363.182-.363.545 0 .726l2.907 1.633c.364.182.909.182 1.272 0l3.452-1.996c.181-.181.181-.544 0-.726ZM113.5 93.727l-2.907-1.633c-.363-.181-.908-.181-1.272 0l-3.27 1.996c-.363.182-.363.545 0 .726l2.907 1.633c.363.182.908.182 1.272 0l3.452-1.996c.181-.181.181-.544-.182-.726Zm5.45-3.266-2.907-1.633a1.551 1.551 0 0 0-1.271 0l-3.271 1.996c-.363.182-.363.545 0 .726l2.907 1.633c.364.181.909.181 1.272 0l3.452-1.996c.182-.181.182-.544-.182-.726Zm5.632-3.084-2.907-1.633a1.551 1.551 0 0 0-1.271 0l-3.452 1.814c-.364.182-.364.545 0 .726l2.907 1.633c.363.181.908.181 1.271 0l3.452-1.996c.364-.181.364-.363 0-.544Zm5.087 2.903-2.907-1.814a1.551 1.551 0 0 0-1.271 0l-3.452 1.995c-.364.182-.364.545 0 .726l2.907 1.633c.363.182.908.182 1.271 0l3.452-1.996c.182-.181.182-.363 0-.544Z"/><path fill="#E0DBE1" d="m144.385 125.843-25.435 14.698c-.545.363-1.454.363-1.999 0l-16.896-9.798c-.545-.363-.545-.908 0-1.271l25.435-14.697c.545-.363 1.454-.363 1.999 0l16.896 9.798c.545.363.545.908 0 1.27Z" opacity=".2"/><path fill="#E0DBE1" d="m100.056 129.835 25.435-14.697c.545-.363 1.453-.363 1.998 0l16.896 9.798.364.363c0-.181 0-.544-.364-.726l-16.896-9.798c-.545-.363-1.453-.363-1.998 0l-25.435 14.697c-.364.182-.545.545-.364.726l.364-.363Z"/><path fill="#C0B9C8" d="m116.951 83.385-72.127 41.551h-.181l2.543 1.452 72.126-41.552h.182l-2.543-1.451Zm-69.765 42.821-2.18-1.27 71.945-41.37 2.18 1.27-71.945 41.37Z" opacity=".4"/><path fill="#C0B9C8" d="m124.945 94.09-3.815-2.177c-.363-.181-1.09-.181-1.453 0l-8.721 5.08c-.182.182-.363.363-.363.545v.363c0 .181 0 .363.363.544l7.631 4.355c.363.181 1.09.181 1.453 0l14.353-8.347c.181-.181.363-.363.363-.544v-.363c0-.181 0-.363-.363-.544l-2.907-1.633c-.364-.182-.727-.182-.909 0l-4.905 2.721c0 .182-.363.182-.727 0Z"/><path fill="#3D3838" d="m134.574 92.82-2.907-1.633c-.363-.181-.726-.181-.908 0l-4.905 2.722c-.182.181-.545.181-.909 0l-3.815-2.178c-.363-.181-1.09-.181-1.453 0l-8.721 5.081c-.363.181-.363.544 0 .907l7.631 4.355c.363.181 1.09.181 1.453 0l14.353-8.347c.545-.181.545-.544.181-.907Z"/><path fill="#282525" d="m79.708 149.794 2.907 1.633c.363.182.544 0 .544-.181 0-.363-.363-.726-.544-.907l-2.907-1.633c-.364-.182-.545 0-.545.181-.182.182.181.726.545.907Z"/><mask id="d" width="5" height="4" x="79" y="148" maskUnits="userSpaceOnUse" style="mask-type:luminance"><path fill="#fff" d="m79.708 149.794 2.907 1.633c.363.182.544 0 .544-.181 0-.363-.363-.726-.544-.907l-2.907-1.633c-.364-.182-.545 0-.545.181-.182.182.181.726.545.907Z"/></mask><g mask="url(#d)"><path fill="#AD852C" d="m82.251 151.065.364.181 1.453-.907-.363-.182-1.454.908Zm-.908-.545.364.182 1.453-.908-.363-.181-1.454.907Zm-.908-.544.363.181 1.453-.907-.363-.181-1.453.907Zm-.909-.363.364.181 1.453-.907-.363-.181-1.454.907Z"/></g><path fill="#8F49FF" d="m33.197 56.53 11.083 61.511 74.306-42.821-11.082-61.692-74.307 43.003Z" opacity=".5"/><path fill="#9959FF" d="m40.102 54.172 7.267 63.143 75.396-43.365-7.449-63.325-75.214 43.547Z" opacity=".5"/><path fill="#A65AFF" d="m47.005 51.813 3.633 64.958 76.124-43.91-3.634-64.958-76.123 43.91Z" opacity=".5"/><path fill="#CFE9FF" d="M53.91 53.81v62.235l76.849-44.454V9.355l-76.85 44.454Z" opacity=".7"/><path fill="#282525" d="M130.759 71.59V9.719L106.232 23.87v61.874l24.527-14.153Z" opacity=".9"/><path fill="#DB3E3E" d="M108.595 29.314v1.996l-.364.181v-1.996l.364-.181Zm.363 1.451V28.77l.909-.545c.181-.181.363-.181.363-.181.182 0 .182.181.182.181v.907c0 .182 0 .363-.182.363l-.363.363-.909.907Zm.545-.544.364-.181s.181 0 .181-.182v-1.27h-.181l-.364.181v1.452Zm2.544-1.089-1.09.726v-1.996l1.09-.725v.362l-.727.363v.363l.545-.363v.363l-.545.363v.544l.727-.363v.363c.181 0 .181-.181 0 0Zm.908-.544-.363.181v-1.995l.181-.182h.182l.727.726v-1.27l.363-.182v1.996l-.182.182h-.181l-.727-.726v1.27Zm2.18-1.27-.363.181v-1.451l-.363.181v-.363l1.271-.725v.362l-.363.182s0 1.452-.182 1.633c.182 0 .182-.181 0 0Zm1.272-2.54v1.996h-.182v-1.996h.182c0-.182 0-.182 0 0Zm.908 1.27-.363.181v-1.996l1.09-.544v.363l-.727.363v.544l.545-.363v.363l-.545.363v.726Zm1.635-2.722v1.996l-.363.181v-1.995l.363-.182Zm1.272 1.089-.363.181c-.182.182-.363.182-.363.182-.182 0-.182-.182-.182-.182v-.907c0-.181 0-.363.182-.363l.363-.363.363-.181c.182-.182.364-.182.364-.182.181 0 .181.182.181.182v.363l-.181-.182v-.181h-.182l-.182.181s-.181 0-.181.182v1.27h.181l.182-.182s.182 0 .182-.181v-.544l.363-.182v.182c0 .181 0 .363-.182.363l-.545.544Zm1.272-.726-.363.181.545-2.177s0-.181.181-.181l.364-.182h.181l.545 1.452-.545.363-.181-.363-.545.363-.182.544Zm.545-1.814-.182.907.545-.363-.363-.544Zm1.817.544-.364.181v-1.633l-.363.182v-.363l1.09-.726v.363l-.363.181v1.815c0-.182 0-.182 0 0Zm1.272-2.722v1.996l-.364.181V19.88l.364-.182Zm1.271 1.089-.363.181c-.182.182-.363.182-.363.182-.182 0-.182-.182-.182-.182V19.88c0-.182 0-.363.182-.363l.363-.363.363-.182c.182-.181.364-.181.364-.181.181 0 .181.181.181.181v.908c0 .181 0 .362-.181.362 0 .363-.182.545-.364.545Zm-.181-.182.181-.181s.182 0 .182-.181v-1.089h-.182l-.181.181-.182.182v1.088s0 .182.182 0c-.182.182-.182.182 0 0Zm1.635-.544-.364.181v-1.995l.182-.182h.182l.726.726v-1.27l.364-.182v1.996l-.364.182h-.181l-.545-.726v1.27Z"/><path fill="url(#e)" d="M119.677 37.842c-1.09.363-2.361 1.633-3.997 3.447-3.088 3.63-4.178 11.613 1.636 12.339.181 0 0 .181 0 .181-5.996-.726-4.906-9.072-1.636-12.883 1.636-1.995 3.089-3.084 4.179-3.629 0 .363 0 .545-.182.545Zm-.726 1.633c-1.817 1.27-3.089 2.721-3.997 4.355 0 .181 0 .181.181 0 .727-1.633 1.999-3.085 3.816-4.174 3.088-1.996 2.543 1.452 3.997 2.36.181 0 .181-.182.181-.182-1.453-.908-.908-4.537-4.178-2.36Zm-1.635 10.16c.181-.18.181-.18 0-.18-.909-1.27-1.091-2.722-.545-4.537 0-.181-.182-.181-.182 0-.545 1.815-.364 3.448.727 4.718Zm2.361-7.62c.364 0 .727.544 1.09 1.27.182.363.364.726.545.908 0 .18.182-.182.182-.182-.182-.181-.363-.544-.545-.907-.363-.726-.727-1.27-1.272-1.27-.726 0-1.635.725-2.543 2.177-.182.181 0 .181.182.181.726-1.633 1.816-2.177 2.361-2.177Zm-2.543.363c.908-.907 1.998-1.996 2.907-1.996.181 0 .181-.363.181-.363-.908 0-2.18 1.089-3.088 2.359-1.635 1.452-2.18 3.266-1.999 5.08 0 .182.182 0 .182-.181 0-1.996.545-3.629 1.817-4.899Zm-2.544 3.085c0-.182-.181-.182-.181 0-1.09 4.173 1.271 6.713 1.453 6.713.182 0 .182-.181 0-.181-.545-.726-2.18-3.085-1.272-6.532Zm-1.998-2.722c.182-.182.182-.182 0 0 1.453-2.54 3.27-4.718 5.087-6.17.182-.18.182-.362 0-.18-1.817 1.45-3.452 3.447-4.724 5.624l-.363.726Zm1.817 11.612c-1.817-1.27-3.089-3.991-2.362-7.439.908-4.536 5.269-10.705 9.265-10.524 2.544 0 1.999 2.903 3.271 3.085.181 0 .545 0 .726-.182v-.181c-.181 0-.363.181-.726 0-1.09-.181-.909-3.085-3.452-3.085-4.179-.181-8.539 6.17-9.447 10.887-.727 3.63.545 6.35 2.361 7.802.545.363 1.272.726 2.18.726.364 0 .546-.181.909-.181-1.09-.182-1.999-.363-2.725-.908Zm4.178-18.689c-.181 0-.181.363 0 .182 1.454-.726 2.544-.907 3.452-.726 1.09.182 1.817.907 2.18 2.178 0 .18.182 0 .182-.182-.182-1.27-1.09-1.996-2.18-2.177-.909-.182-2.18.181-3.634.725Zm.545 9.254c.909.363 0 5.08 5.632.363.182-.181.182-.363 0-.181-3.997 3.266-4.542 1.814-4.905.544-.182-.726-.545-1.451-1.09-.726-1.272 1.452 1.09 3.992 1.453 3.63.182 0 .182-.182 0-.182-1.453-.545-1.816-2.178-1.816-2.722.181-.363.545-.907.726-.726Zm.727 4.9c.182 0 .182-.182 0-.182-.908-.363-1.998-1.815-2.18-2.54-.363-1.452.545-2.903 1.272-3.266 1.453-.363.908 2.903 2.907 2.358.181 0 .181-.363 0-.363-1.999.545-1.272-2.903-2.907-2.358-.909.363-1.999 1.996-1.635 3.629.545 1.451 2.361 2.903 2.543 2.721Zm-4.36-1.815c0-.182-.182 0-.182.181.545 2.903 2.907 4.355 5.814 3.992 0-.181.181-.181.181-.363-3.27.545-5.268-1.451-5.813-3.81Zm3.997 2.903c-.727 0-1.272-.363-1.817-.907h-.182v.181c.545.544 1.09.907 1.817.907a6.011 6.011 0 0 0 2.544 0c0-.181.181-.181.181-.363-.727.182-1.635.182-2.543.182Zm2.18-1.996c-.182 0-.182.363 0 .363 0 0 .908-.181 1.998-.544 0-.182.182-.182.182-.363-1.272.363-2.18.544-2.18.544Zm-1.09.907c-.182 0-.182.182-.182.363.727.182 1.635 0 2.362 0 0-.181.182-.181.182-.363-.727 0-1.636.182-2.362 0Zm2.907-7.802c-.182 0-.182.363-.182.363.727 0 1.272-.544 1.998-1.089v-.181c-.545.544-1.09.907-1.816.907Zm-2.726 6.35c-.181 0-.181.364 0 .364 1.091-.182 2.181-.726 3.634-1.815 0-.181 0-.181.182-.363-1.635 1.089-2.725 1.633-3.816 1.815Zm-4.178 3.993c-.182 0-.182.181-.182.181.909.544 1.817.907 3.452.907.182 0 .182-.181.363-.181-1.816-.182-2.725-.363-3.633-.907Zm8.357-9.254c-.727.726-1.453 1.27-2.18 1.451-.363.182-.727 0-.908-.181l-.182.181c.363.363.727.363 1.09.182.727-.182 1.635-.726 2.362-1.452 0-.181 0-.363-.182-.181Zm-.182.907c-.726.544-1.453 1.27-1.998 1.452-.182 0-.182.362 0 .181.727-.363 1.453-.907 2.18-1.633 0 .181 0 0-.182 0Zm.364-1.815c-1.09.908-2.362 1.452-2.907.726l-.545-1.088c-.182-.363-.182-.726-.364-1.089 0-.181-.181-.363-.363-.181-.182.181 0 .181.182.362.181.363.363.726.363 1.09.182.362.364.906.545 1.088.545.907 1.999.363 3.27-.726 0-.181 0-.363-.181-.181Zm-5.814 11.976c-.908 0-1.453-.181-1.453-.181-.182 0-.182.181-.182.362 0 0 .545.182 1.272.182a.39.39 0 0 1 .363-.363Zm5.814-13.79c.181-.181 0-.363 0-.181-1.999 1.814-1.635-2.904-4.361-2.722-.181 0-.181.363 0 .363 1.454 0 2.181 1.633 2.726 2.721 0 .363.726.545 1.635-.18Z"/><path fill="#070910" d="M109.684 51.813c-.727.363-1.09.182-1.09-.544s.545-1.452 1.09-1.815l17.623-10.16c.726-.363 1.09-.182 1.09.544 0 .725-.545 1.451-1.09 1.814l-17.623 10.161Z" opacity=".063"/><path fill="#0D1220" d="M109.866 51.632c-.545.363-1.09.181-1.09-.544 0-.545.545-1.452 1.09-1.815l17.442-10.161c.545-.363 1.09-.181 1.09.544 0 .545-.545 1.452-1.09 1.815l-17.442 10.16Z" opacity=".125"/><path fill="#141A30" d="M109.866 51.632c-.545.363-1.09.181-1.09-.363s.545-1.27 1.09-1.633l17.442-9.98c.545-.363 1.09-.181 1.09.363 0 .545-.545 1.27-1.09 1.633l-17.442 9.98Z" opacity=".188"/><path fill="#1A2340" d="M110.048 51.45c-.545.363-.908.182-.908-.363 0-.544.363-1.27.908-1.633l17.259-9.98c.546-.362.909-.18.909.364s-.363 1.27-.909 1.633l-17.259 9.98Z" opacity=".25"/><path fill="#212C50" d="M110.048 51.269c-.545.363-.908.181-.908-.363s.363-1.089.908-1.452l17.078-9.798c.545-.363.908-.181.908.363 0 .545-.363 1.089-.908 1.452l-17.078 9.798Z" opacity=".313"/><path fill="#273560" d="M110.048 51.269c-.545.363-.908.181-.908-.363s.363-1.089.908-1.452l16.896-9.798c.545-.363.909-.181.909.363 0 .545-.364 1.089-.909 1.452l-16.896 9.798Z" opacity=".375"/><path fill="#2E3E70" d="M110.229 51.087c-.545.182-.909.182-.909-.362 0-.545.364-1.09.909-1.27l16.714-9.617c.545-.182.908-.182.908.363 0 .544-.363 1.088-.908 1.27l-16.714 9.617Z" opacity=".438"/><path fill="#354780" d="M110.23 51.087c-.364.182-.727.182-.727-.362 0-.363.363-.908.727-1.27l16.532-9.617c.364-.182.727-.182.727.363 0 .363-.363.907-.727 1.27l-16.532 9.617Z" opacity=".5"/><path fill="#3B4F8F" d="M110.411 50.906c-.363.181-.726.181-.726-.363 0-.363.363-.907.726-1.089l16.533-9.435c.363-.181.727-.181.727.363 0 .363-.364.907-.727 1.089l-16.533 9.435Z" opacity=".563"/><path fill="#42589F" d="M110.411 50.906c-.363.181-.726 0-.726-.363s.363-.907.726-1.089l16.351-9.435c.364-.181.727 0 .727.363s-.363.907-.727 1.089l-16.351 9.435Z" opacity=".625"/><path fill="#4861AF" d="M110.593 50.725c-.363.181-.545 0-.545-.182 0-.363.182-.726.545-.907l16.169-9.254c.364-.181.545 0 .545.182a.997.997 0 0 1-.545.907l-16.169 9.254Z" opacity=".688"/><path fill="#4F6ABF" d="M110.593 50.725c-.363.181-.545 0-.545-.182 0-.363.182-.726.545-.907l15.988-9.254c.363-.181.545 0 .545.182a.998.998 0 0 1-.545.907l-15.988 9.254Z" opacity=".75"/><path fill="#5573CF" d="M110.593 50.543c-.182.182-.545 0-.545-.181 0-.182.182-.545.545-.726l15.806-9.072c.182-.182.545 0 .545.181s-.182.544-.545.726l-15.806 9.072Z" opacity=".813"/><path fill="#5C7BDF" d="M110.774 50.362c-.181.181-.363 0-.363-.182 0-.181.182-.544.363-.726l15.625-9.072c.181-.181.363 0 .363.182 0 .181-.182.544-.363.725l-15.625 9.073Z" opacity=".875"/><path fill="#6284EF" d="M110.774 50.362c-.181.181-.363 0-.363-.182 0-.181.182-.544.363-.544l15.443-8.891c.182-.181.364 0 .364.181 0 .182-.182.545-.364.545l-15.443 8.89Z" opacity=".938"/><path fill="#698DFF" d="m126.217 41.47-15.443 8.892c-.181.181-.363 0-.363-.182 0-.181.182-.363.363-.544l15.443-8.891c.182-.181.364 0 .364.181 0 .182-.182.363-.364.545Z"/><path fill="#6F92FF" d="m126.217 41.47-15.261 8.892c-.182.181-.363 0-.363-.182 0-.181.181-.363.363-.544l15.261-8.891c.182-.181.363 0 .363.181 0 .182-.181.363-.363.545Z"/><path fill="#7596FF" d="m126.217 41.47-15.261 8.71c-.182.182-.363 0-.363-.181 0-.182.181-.363.363-.545l15.261-8.709c.182-.181.363 0 .363.181 0 .182-.181.363-.363.545Z"/><path fill="#7B9BFF" d="m126.217 41.47-15.261 8.71c-.182 0-.363 0-.363-.181a.39.39 0 0 1 .363-.363l15.261-8.71c.182 0 .363 0 .363.182-.181 0-.181.181-.363.363Z"/><path fill="#81A0FF" d="m126.217 41.47-15.079 8.71c-.182 0-.182 0-.182-.181 0-.182.182-.363.182-.363l15.079-8.71c.182 0 .182 0 .182.182 0 0-.182.181-.182.363Z"/><path fill="#87A4FF" d="m126.035 41.47-15.079 8.71c-.182 0-.182 0-.182-.181 0-.182.182-.363.182-.363l15.079-8.71c.182 0 .182 0 .182.182.182 0 0 .181-.182.363Z"/><path fill="#8DA9FF" d="m126.035 41.47-15.079 8.71c-.182 0-.182 0-.182-.181 0-.182.182-.363.182-.363l15.079-8.71c.182 0 .182 0 .182.182 0 0 0 .181-.182.363Z"/><path fill="#93ADFF" d="m126.035 41.47-14.897 8.71c-.182 0-.182 0-.182-.181 0-.182.182-.363.182-.363l14.897-8.71c.182 0 .182 0 .182.182 0 .181 0 .181-.182.363Z"/><path fill="#9AB2FF" d="M126.035 41.47 111.138 50h-.182c0-.182.182-.182.182-.363l14.897-8.528h.182c0 .181-.182.363-.182.363Z"/><path fill="#A0B7FF" d="M126.035 41.47 111.138 50h-.182c0-.182 0-.182.182-.363l14.897-8.528h.182l-.182.363Z"/><path fill="#A6BBFF" d="M125.854 41.47 111.138 50h-.182c0-.182 0-.182.182-.363l14.716-8.528h.181c0 .181 0 .363-.181.363Z"/><path fill="#ACC0FF" d="M125.854 41.47 111.138 50h-.182c0-.182 0-.182.182-.182l14.716-8.528h.181s0 .182-.181.182Z"/><path fill="#B2C4FF" d="M125.854 41.47 111.138 50h-.182s0-.182.182-.182l14.716-8.528h.181l-.181.182Z"/><path fill="#B8C9FF" d="m125.854 41.47-14.716 8.347h-.182s0-.181.182-.181l14.716-8.347h.181l-.181.182Z"/><path fill="#BECEFF" d="m125.854 41.47-14.535 8.347h-.181s0-.181.181-.181l14.535-8.347h.181c-.181 0-.181.182-.181.182Z"/><path fill="#C4D2FF" d="m125.672 41.47-14.534 8.347h-.182s0-.181.182-.181l14.534-8.347h.182c0 .182 0 .182-.182.182Z"/><path fill="#CAD7FF" d="m125.672 41.47-14.534 8.347h-.182s0-.181.182-.181l14.534-8.347s.182 0 0 .182Z"/><path fill="#1B1B1E" d="M126.762 68.506v-2.54l-7.085 3.992v2.722l6.904-3.992.181-.182Z" opacity=".4"/><path fill="#788EFF" d="m119.858 72.498-8.72 5.08v-2.54l8.72-5.08v2.54ZM112.774 72.498l-.727.363v-.181l.727-.182c.181-.363.181-.363.181-.544 0-.182 0-.182-.181-.182l-.545.182h-.364v-.182c0-.181.182-.544.545-.725l.727-.363v.181l-.545.363c-.182 0-.182.181-.182.181v.182c0 .181 0 .181.182.181l.545-.181h.363v.181c-.181.363-.363.545-.726.726ZM114.953 71.047c-.181.181 0 .181 0 0l-.545.544c-.181.181-.363.181-.363.181-.182 0-.182-.181-.182-.181v-.544c0-.182 0-.182.182-.363l.363-.363.545-.363v.181l-.726.182c-.182.181-.364.181-.364.363v.544c0 .181.182.181.364 0l.726-.181ZM116.043 70.684l-.182.181c-.181.181-.363.181-.363.181-.182 0-.182-.18-.182-.18v-.545c0-.182 0-.182.182-.363l.363-.363.909-.544v1.451l-.364-.181v-.182c0 .182-.181.363-.363.545Zm.363-.726v-.907l-.545.362c-.181.182-.363.182-.363.363v.545c0 .181.182.181.363 0l.182-.182c.182 0 .182-.181.182-.181.181.181.181 0 .181 0ZM117.497 69.776c-.182.182-.182-1.27-.182-1.27l.182-.181v.181a.39.39 0 0 1 .363-.363l.182-.181a.565.565 0 0 1 .364-.181c.181 0 .181.181.181.181v1.089l-.181.181v-1.089c0-.181-.182-.181-.364 0l-.182.182c-.181 0-.181.181-.181.181l-.182.182v1.088ZM119.495 68.688c-.182.181-.182-1.27-.182-1.27l.182-.182v.182c0-.182.182-.363.364-.363l.181-.182c.182-.181.364-.181.364-.181.181 0 .181.181.181.181 0-.181-.181-.181-.363 0l-.182.182c-.181 0-.181.181-.181.181l-.182.182-.182 1.27c0-.182 0-.182 0 0ZM121.312 65.785v-.363l.182-.182v.363l-.182.182Zm0 1.814v-1.452l.182-.18v1.45l-.182.182ZM122.402 66.873c-.181.182-.181-1.27-.181-1.27l.181-.181v.181c0-.181.182-.363.364-.363l.181-.181c.182-.182.364-.182.364-.182.181 0 .181.182.181.182v1.088l-.181.182V65.24c0-.181-.182-.181-.364 0l-.181.182c-.182 0-.182.181-.182.181l-.182.182v1.088ZM124.945 65.422l-.181.181c-.182.182-.364.182-.364.182-.181 0-.181-.182-.181-.182v-.726c0-.181 0-.181.181-.362l.364-.363.908-.545v1.452c0 .181 0 .181-.182.363l-.363.363-.908.544v-.181l.726-.363.364-.363v-.182c-.182 0-.182 0-.364.182Zm.364-.726v-.726l-.545.363-.364.363v.544c0 .182.182.182.364 0l.181-.181c.182 0 .182-.182.182-.182.182 0 .182 0 .182-.181ZM53.91 49.454v5.262l76.849-44.273V5l-76.85 44.454Z"/><path fill="#7334EA" d="m91.334 62.7-20.53 11.975V51.27l20.53-11.794V62.7Z"/><path fill="#FFCA8C" d="M77.89 60.341s2.363-1.996 6.178-3.629c.363 1.27.363 2.722.363 2.722s-2.907 3.085-3.088 3.085c0 0-2.362 0-2.362.181l-.727-1.089-1.09.182.727-1.452Z"/><path fill="#FCB67C" d="M78.617 57.075v2.903c.727 1.815 4.542-.544 4.542-2.721v-3.81l-4.542 3.628Z"/><path fill="#FFCA8C" d="M84.431 51.269c0 2.54-1.635 6.895-3.633 7.983-1.999 1.09-3.634-1.451-3.634-3.81 0-2.54 1.635-5.443 3.634-6.532 1.998-1.089 3.633 0 3.633 2.359Z"/><path fill="#788EFF" d="m87.156 55.986-3.089.908c-.182 3.084-4.724 6.169-6.177 3.629l-2.907 2.54c-.727.544-1.272 1.27-1.635 2.177-.727 1.633-1.635 4.536-1.635 8.891l2.362-1.27L87.7 65.059l2.361-1.452c0-4.355-.908-6.169-1.453-7.076-.363-.544-.908-.726-1.453-.544Z"/><path fill="#282525" d="M81.888 48.003c1.998-.907 2.543.363 2.725 1.089.363 1.633 0 3.81-.545 4.899.182-.908.182-2.54 0-3.085-.182-.181-.364-.181-.545-.181-1.09.362-2.362.725-3.634 1.451-.908.363-1.816.907-2.18 2.359-.363 1.452-.181 2.722 0 3.629 0 0-1.09-1.452-.181-5.262.181-.363.181-.726.544-1.27.182-.182.182-.363.364-.544 0-.182.363-.363.545-.363.182-1.27 1.453-1.996 2.907-2.722Z"/><path fill="#7334EA" d="M70.441 75.038v-23.95h.182L91.698 38.93v23.95l-.182.182-21.075 11.975Zm.545-23.588v22.681L90.971 62.52V39.838L70.986 51.45Z"/><path fill="#fff" d="M93.879 71.41 69.352 85.561c-1.272.726-2.362.363-2.362-.907s1.09-2.903 2.362-3.629L93.88 66.873c1.271-.726 2.361-.363 2.361.907 0 1.452-1.09 2.904-2.361 3.63ZM93.879 79.575 69.352 93.727c-1.272.726-2.362.363-2.362-.907s1.09-2.903 2.362-3.629L93.88 75.038c1.271-.725 2.361-.362 2.361.908s-1.09 2.903-2.361 3.629Z"/><path fill="#CFE9FF" d="m86.793 91.55-6.904 4.173c-1.272.726-2.362.363-2.362-.907s1.09-2.903 2.362-3.629l6.904-3.992c1.272-.725 2.362-.363 2.362.908 0 1.088-1.09 2.721-2.362 3.447Z"/><path fill="#CFE9FF" d="M65.173 24.233 31.2 43.83v53.89l34.156-19.597-.182-53.89Z" opacity=".7"/><path fill="#788EFF" d="M65.173 24.233 31.2 43.83v4.899l33.974-19.597v-4.899Z"/><path fill="#fff" d="M55.18 50.362v-4.174c0-4.354-3.451-5.806-7.812-3.266-4.36 2.54-7.812 7.984-7.812 12.157v4.173c-1.453 1.09-2.543 2.904-2.543 4.537v10.16c0 1.634 1.271 2.178 3.088 1.27l14.353-8.346c1.635-.907 3.088-3.084 3.088-4.717V51.995c0-1.452-.908-1.996-2.361-1.633Zm-7.63-5.625c3.27-1.815 5.995-.726 5.995 2.54v4.173l-11.809 6.895v-4.173c-.181-3.266 2.544-7.62 5.814-9.435Zm.545 17.056v4.899l-1.272.726v-4.9c-.545 0-1.09-.18-1.09-.907 0-.907.727-1.996 1.635-2.54.909-.544 1.636-.181 1.636.726 0 .544-.364 1.27-.909 1.996ZM47.005 77.579l2.725-1.452v.544l-2.725 1.452v-.544Zm-3.27 6.895-4.179 2.358v.545l4.906-2.722 1.635-.907v-.726l-2.362 1.452Zm3.634-3.992v-.545l-1.999 1.27-1.272.726v.545l1.272-.726 1.999-1.27Zm-4.542 1.996-3.452 1.996v.544l3.452-1.996v-.544Zm1.816-2.903 1.454-.908v-.544l-2.362 1.452-3.997 2.358v.545l4.905-2.903Zm-3.996-.182 3.27-1.996v-.544l-3.27 1.814-1.09.726v.544l1.09-.544Zm6.722-3.81 1.09-.545v-.544l-1.454.726-1.998 1.088v.545l2.362-1.27Zm2.361 5.443-2.725 1.452v.544l2.725-1.452v-.544Zm7.813-4.536-2.544 1.452v.544l2.544-1.452v-.544Zm0-7.44-1.454.908v.544l1.454-.907v-.544Zm-2.544 1.452-1.272.726v.544L55 71.047v-.545Zm2.544 1.089-2.362 1.452v.544l2.362-1.452v-.544Zm-3.634 4.536-1.09.544v.545l1.09-.545v-.544Zm.908 0 2.726-1.633v-.544l-2.726 1.633v.544Zm6.54-1.814-1.09.544v.544l1.09-.544v-.544Zm0-7.44-1.453.907v.545l1.454-.907v-.545Zm0 2.36-1.09.543v.545l1.09-.545v-.544Zm-1.27 3.265v.544l1.27-.725v-.545l-1.27.726ZM35.922 89.554l1.09-.544v-.545l-1.09.545v.544Zm0-7.44.727-.362v-.544l-.727.362v.545Zm0 2.541 1.09-.726v-.544l-1.09.726v.544Zm0 1.814v.545l.908-.544v-.545l-.908.544Z"/><path fill="#CFCAD4" d="M70.623 90.643a.998.998 0 0 1-.545.907c-.363.181-.545 0-.545-.181 0-.363.182-.726.545-.908.182-.181.545 0 .545.182Zm1.817-1.633a.998.998 0 0 0-.545.907c0 .363.182.363.545.181a.998.998 0 0 0 .545-.907c0-.363-.182-.363-.545-.181Zm2.362-1.27a.998.998 0 0 0-.545.907c0 .363.181.363.545.181a.998.998 0 0 0 .545-.907c0-.363-.182-.363-.545-.181Zm2.362-1.452a.997.997 0 0 0-.545.907c0 .363.181.363.545.182a.998.998 0 0 0 .545-.907c0-.363-.182-.363-.545-.182Zm2.543-1.451a.997.997 0 0 0-.545.907c0 .363.182.363.545.181a.998.998 0 0 0 .545-.907c0-.181-.363-.363-.545-.181Zm2.362-1.27a.997.997 0 0 0-.545.907c0 .362.182.362.545.181a.998.998 0 0 0 .545-.907c0-.363-.182-.363-.545-.182Zm2.362-1.452a.998.998 0 0 0-.545.907c0 .363.181.363.545.181a.998.998 0 0 0 .545-.907c0-.363-.182-.363-.545-.181Zm2.362-1.452a.998.998 0 0 0-.545.907c0 .363.181.363.545.182a.998.998 0 0 0 .545-.907c.181-.182-.182-.363-.545-.182ZM69.715 82.478v1.451c0 .363.182.363.363.182.364-.182.545-.545.545-.726v-1.452l.182-.181v1.996l-.182.181v-.181c-.181.181-.363.544-.726.726-.364.181-.545 0-.545-.363v-1.452l.363-.181ZM72.621 82.296c0-.363-.181-.181-.545 0-.545.182-.545.182-.545-.181s.364-.726.727-1.089c.545-.363.727-.181.727.182l-.182.181c0-.363-.182-.363-.545-.181-.363.181-.545.362-.545.544 0 .181.182.363.545 0 .545-.181.727-.181.727.181 0 .363-.364.726-.727 1.09-.545.362-.727.18-.727-.182l.182-.182c0 .182.182.363.545.182.363 0 .363-.363.363-.545ZM73.712 81.389c0 .363.182.544.545.363.363-.182.545-.544.545-.726l.182-.181c0 .362-.182.907-.909 1.088-.545.363-.908 0-.908-.544 0-.726.182-1.27.908-1.633.545-.363.909 0 .909.544v.182l-1.272.907Zm0-.181 1.09-.726c0-.363-.182-.545-.545-.363-.363.181-.545.544-.545 1.088ZM76.437 78.667v.182c-.364.181-.545.544-.545.726v1.451l-.364.182v-1.996l.182-.182v.182c.182-.182.363-.363.727-.545ZM77.89 79.756l-.363.181v-3.084l.364-.182v3.085ZM79.344 79.03l-.727.363v-3.085l.727-.362c.727-.363 1.09-.182 1.09.725v.182c0 1.089-.363 1.814-1.09 2.177Zm0-.181c.545-.363.908-.907.908-1.633v-.182c0-.907-.363-1.088-.908-.726l-.545.182v2.54l.545-.181Z"/><defs><linearGradient id="a" x1="98" x2="98" y1="0" y2="163" gradientUnits="userSpaceOnUse"><stop stop-color="#21FFE4"/><stop offset="1" stop-color="#19EFD5"/></linearGradient><linearGradient id="b" x1="94.081" x2="99.308" y1="136.262" y2="136.262" gradientUnits="userSpaceOnUse"><stop stop-color="#C0B9C8"/><stop offset="1" stop-color="#E0DBE1"/></linearGradient><linearGradient id="c" x1="42.194" x2="159.135" y1="119.646" y2="119.646" gradientUnits="userSpaceOnUse"><stop stop-color="#F8F6FA"/><stop offset="1" stop-color="#FBF8FC"/></linearGradient><linearGradient id="e" x1="114.599" x2="122.723" y1="38.04" y2="52.129" gradientUnits="userSpaceOnUse"><stop offset=".517" stop-color="#788EFF"/><stop offset=".518" stop-color="#7084F5"/><stop offset=".524" stop-color="#4C54C3"/><stop offset=".527" stop-color="#3E42B0"/></linearGradient></defs></svg>