<svg xmlns="http://www.w3.org/2000/svg" width="196" height="163" fill="none"><rect width="196" height="163" fill="url(#a)" opacity=".2" rx="15"/><path fill="url(#b)" d="M103.848 17.521 63.023 40.128c-.67.485-1.171 1.13-1.171 1.938v97.21c0 1.776 1.004 4.522 4.517 3.876l37.646-20.67c2.844-1.614 5.856-4.521 7.195-7.428.502-1.291 1.171-3.068 1.171-3.875l.167-91.074c0-3.875-5.354-4.521-8.7-2.584Z"/><path fill="url(#c)" d="M110.875 16.391c-1.338-.807-3.346-.646-5.521.484L68.712 37.383c-4.183 2.422-7.697 8.074-7.697 12.757v94.142c0 2.422.837 4.037 2.175 4.844l-3.346-1.937c-1.339-.808-2.175-2.423-2.175-4.845V48.202c0-4.683 3.346-10.496 7.697-12.756l36.642-20.347c2.175-1.13 4.015-1.292 5.521-.484l3.346 1.776Z"/><path fill="#353131" d="M105.354 16.875 68.712 37.383c-4.183 2.422-7.696 8.074-7.696 12.757v94.142c0 4.683 3.513 6.621 7.696 4.198l36.642-20.507c4.183-2.422 7.697-8.074 7.697-12.757V21.074c0-4.683-3.514-6.46-7.697-4.199Zm6.693 94.788a3.911 3.911 0 0 1-2.008 3.391l-10.876 6.137-22.587 12.595-12.214 6.782c-.837.484-2.008-.161-2.008-1.13V51.755c0-5.975 3.347-11.304 8.533-14.372l5.354-2.906c.335-.162.67-.162.837-.162l3.68.969c.336 0 .503 0 .837-.161l11.21-6.298c.168-.162.335-.162.502-.323l5.522-6.62.502-.485 7.362-4.199c2.509-.968 5.354.646 5.354 3.23v91.235Z"/><path fill="#262424" d="M91.468 127.65c-.335 0-.837.161-1.172.323l-4.182 2.26c-1.172.808-2.175 2.261-2.175 3.391v2.1c0 .969.501 1.453 1.338 1.453.335 0 .837-.162 1.171-.323l4.183-2.261c1.171-.646 2.175-2.099 2.175-3.391v-2.099c0-.807-.502-1.453-1.338-1.453Z"/><path fill="#353131" d="M90.129 134.432c1.17-.646 2.175-2.099 2.175-3.391v-2.099c0-.485-.168-.969-.502-1.131-.168 0-.335-.161-.502-.161-.335 0-.837.161-1.171.323l-4.183 2.26c-1.172.646-2.175 2.1-2.175 3.391v2.1c0 .484.167.969.501 1.13.168 0 .335.162.502.162.335 0 .837-.162 1.172-.323l4.183-2.261Z"/><path fill="#191414" d="m91.3 28.017-6.525 3.715c-.502.161-.837.161-.837-.323 0-.485.335-.97.837-1.13l6.525-3.715c.502-.161.837-.161.837.323 0 .323-.335.808-.837 1.13Z"/><path fill="#F6F4F7" d="M59.51 66.288c.167.161.335.323.335.484.167.162.167.485.167.646v7.751c0 .323-.167.485-.335.646l-.669.323c.167-.161.335-.323.335-.646v-7.75c0-.162 0-.485-.168-.647-.167-.161-.167-.323-.334-.484-.168-.162-.335-.323-.502-.323l-.335-.162c-.334-.161-.502-.161-.669 0l.67-.323c.166-.161.334-.161.668 0l.335.162c.167 0 .335.161.502.323Z"/><path fill="#CBC6CF" d="M59.342 67.903v7.75c0 .647-.502.808-1.003.485l-.335-.161c-.502-.323-1.004-.97-1.004-1.615V66.61c0-.646.502-.808 1.004-.485l.335.162c.502.323 1.003.969 1.003 1.615Z"/><path fill="#F6F4F7" d="M59.51 54.339c.167.161.335.322.335.484.167.161.167.484.167.646v7.75c0 .324-.167.485-.335.647l-.669.323c.167-.162.335-.323.335-.646v-7.751c0-.162 0-.485-.168-.646-.167-.162-.167-.323-.334-.485-.168-.161-.335-.322-.502-.322l-.335-.162c-.334-.161-.502-.161-.669 0l.67-.323c.166-.161.334-.161.668 0l.335.162c.167 0 .335.161.502.323Z"/><path fill="#CBC6CF" d="M59.342 55.953v7.751c0 .646-.502.808-1.003.485l-.335-.162c-.502-.323-1.004-.969-1.004-1.614V54.66c0-.645.502-.807 1.004-.484l.335.162c.502.322 1.003.968 1.003 1.614Z"/><path fill="#191414" d="M81.596 31.732c-.502.322-1.004.968-1.004 1.614 0 .646.502.808 1.004.485.502-.323 1.004-.97 1.004-1.615 0-.646-.502-.808-1.004-.485Z"/><path fill="#CFD5D5" d="M80.927 33.185c0-.485.334-.97.669-1.13.335-.162.67 0 .67.484s-.335.969-.67 1.13c-.502.162-.67 0-.67-.484Z" opacity=".1"/><path fill="#CFD5D5" d="M81.263 33.023c0-.161.167-.484.334-.646.168-.161.335 0 .335.162 0 .161-.167.484-.335.646-.167.161-.334.161-.334-.162Z" opacity=".1"/><path fill="#CFD5D5" d="M81.429 32.862c0-.162 0-.162.167-.162 0 0 .167 0 .167.162 0 0-.167.161-.334 0 0 .161 0 .161 0 0Z" opacity=".2"/><path fill="#CFE9FF" d="M73.063 58.052v82.677l51.198-28.42V29.471L73.063 58.052Z" opacity=".7"/><path fill="#DD5CD2" d="M124.261 29.794 73.063 58.375v-9.042L124.26 20.75v9.043Z"/><path fill="#455CBA" d="m124.261 56.6-12.716-4.038-27.44 38.11v32.456l40.156-22.445V56.599Z" opacity=".5"/><path fill="#FFC522" d="m114.891 65.158-27.44 19.054v32.296c3.012-1.615 30.954-17.278 53.541-29.874V54.34l-26.101 10.819Z"/><path fill="#DD5CD2" d="m87.451 84.212 2.008.807 27.44-.484 22.922-27.128 1.171-3.068-26.101-8.236-27.44 38.11Z"/><path fill="#EB9A1E" d="M87.451 84.212v32.457l2.008-2.745V85.019l-2.008-.807Z" opacity=".7"/><path fill="#EB9A1E" d="m139.821 85.988-50.362 27.936-2.008 2.745 53.541-29.873-1.171-.808Z" opacity=".3"/><path fill="#EB9A1E" d="M139.82 57.407v28.581l1.172.808V54.339l-1.172 3.068Z" opacity=".1"/><path fill="#EB9A1E" d="m139.821 85.827-22.755-1.453-.168.161 22.923 1.453 1.171.808h.167v-.162l-1.338-.807ZM89.459 113.924l-2.008 2.584v.161l.168-.161 1.84-2.584 27.44-29.227h-.335l-27.105 29.227Z" opacity=".7"/><mask id="d" width="57" height="73" x="86" y="13" maskUnits="userSpaceOnUse" style="mask-type:luminance"><path fill="#fff" d="m87.45 84.212 2.009.807 27.439-.484 22.923-27.128 1.171-3.068L143 13 86.112 42.066l1.339 42.146Z"/></mask><g mask="url(#d)"><path fill="#FFFAEB" d="M135.805 74.846 93.307 98.422V65.965l42.498-23.737v32.618Z"/></g><mask id="e" width="57" height="73" x="86" y="13" maskUnits="userSpaceOnUse" style="mask-type:luminance"><path fill="#fff" d="m87.45 84.212 2.009.807 27.439-.484 22.923-27.128 1.171-3.068L143 13 86.112 42.066l1.339 42.146Z"/></mask><g mask="url(#e)"><path fill="#A072CC" d="m128.444 63.866-27.942 15.502c-1.506.807-2.677.323-2.677-1.13v-5.33c0-1.453 1.171-3.229 2.677-4.036l27.942-15.502c1.506-.808 2.677-.323 2.677 1.13v5.329c-.167 1.453-1.339 3.23-2.677 4.037Z"/></g><path fill="#FFFAEB" d="M74.736 54.016v-.323s0-.162.167-.162l.335-.161h.167v.161c0 .485.167.485.67.323l.668-.323c.502-.323.67-.646.67-1.13v-.323c0-.323-.335-.485-1.004-.162-.335.162-.502.162-.837.323-.334.162-.502.162-.669 0-.167 0-.335-.323-.335-.646v-.323c0-.323.168-.646.335-.968.167-.323.502-.646.837-.808l.836-.484c.335-.162.67-.323.837-.162.167.162.334.323.334.646v.162s0 .161-.167.161v.323h-.167v-.161c0-.485-.168-.646-.67-.323l-.669.323c-.502.323-.67.645-.67 1.13v.323c0 .323.168.323.503.161.167 0 .335-.161.502-.161.167 0 .334-.162.502-.162.167 0 .334-.161.502-.161.167 0 .334 0 .334.161.168.162.168.323.168.485v.323c0 .323-.168.646-.335.969a1.982 1.982 0 0 1-.837.807l-.836.485c-.335.161-.67.322-.837.161-.167.161-.334 0-.334-.484Zm7.194-2.745-1.673.968c-.335.162-.67.323-.837.162-.167-.162-.334-.323-.334-.646V50.14c0-.323.167-.646.335-.969.167-.323.501-.646.836-.807l.67-.323c.334-.162.669-.323.836-.162.167.162.335.323.335.646v.97s0 .16-.168.16l-2.175 1.292v.646c0 .485.168.485.67.323l1.673-.968h.167v.322c-.168-.161-.168-.161-.335 0Zm-2.175-.97 1.673-.968v-.808c0-.484-.167-.484-.669-.323l-.502.323c-.502.323-.67.646-.67.97l.168.807Zm5.689-1.453v.323s0 .162-.168.162l-1.17.646c-.168.161-.503.323-.67.161-.167-.161-.335-.323-.335-.646V47.88c0-.323.168-.645.335-.968.167-.323.502-.646.837-.808l1.17-.646h.168v.323s0 .162-.167.162l-1.171.646c-.502.322-.67.645-.67.968v1.615c0 .485.168.485.67.323l1.17-.646Zm2.51-.969-.502.323c-.335.162-.67.323-.837.162-.167-.162-.335-.323-.335-.646v-2.745s0-.162.168-.162l.334-.161h.168v2.584c0 .484.167.484.669.322l.502-.322c.167-.162.502-.324.502-.485.167-.161.167-.484.167-.646v-2.422s0-.161.167-.161l.335-.162h.167v3.714s0 .161-.167.161l-.335.162h-.167v-.323a1.983 1.983 0 0 1-.836.807Zm2.844-1.614-.335.161h-.167v-3.714s0-.161.167-.161l.335-.162h.167v.323c.168-.161.168-.323.335-.484l.502-.485.334-.161h.168v.484l-.502.162c-.168.161-.502.323-.502.484-.167.162-.167.484-.167.646v2.584c-.168.161-.168.323-.335.323Zm5.02-2.745-1.674.968c-.334.162-.669.323-.836.162-.168-.162-.335-.323-.335-.646v-1.615c0-.323.167-.646.335-.969.167-.323.502-.646.836-.807l.67-.323c.334-.162.669-.323.836-.162.167.162.335.323.335.646v.97s0 .16-.168.16l-2.175 1.292v.485c0 .484.168.484.67.323l1.673-.969h.167v.323l-.335.162Zm-2.343-.808 1.673-.969v-.807c0-.485-.167-.485-.67-.323l-.501.323c-.502.323-.67.646-.67.969l.168.807Zm7.864-2.584v.323s0 .162-.167.162l-1.172.646c-.334.161-.669.323-.836.161-.168-.161-.335-.323-.335-.646V39.16c0-.323.167-.646.335-.97.167-.322.502-.645.836-.807l1.172-.646h.167v.323s0 .162-.167.162l-1.172.646c-.502.323-.669.646-.669.969v1.614c0 .485.167.485.669.323l1.339-.646c0-.161 0-.161 0 0Zm2.51-1.13-.67.323c-.334.162-.669.323-.836.162-.168-.162-.335-.323-.335-.646v-1.615c0-.323.167-.646.335-.97.167-.322.502-.645.836-.806l.67-.323c.334-.162.669-.323.836-.162.167.162.335.323.335.646v1.615c0 .323-.168.646-.335.969-.167.323-.335.646-.836.807Zm-.502-.161.502-.323c.501-.323.669-.646.669-.97V35.93c0-.484-.168-.484-.669-.323l-.502.323c-.502.323-.67.646-.67.969v1.615c0 .484.168.646.67.323Zm4.35-1.938-.502.323c-.335.161-.669.323-.837.161-.167-.161-.334-.323-.334-.646v-1.614c0-.323.167-.646.334-.97.168-.322.502-.645.837-.807l.502-.323c.334-.161.669-.323.836 0v-1.776s0-.161.168-.161l.334-.323h.168v5.167s0 .162-.168.162l-.334.16h-.168v-.322a1.672 1.672 0 0 1-.836.969Zm.836-1.615v-1.453c0-.162 0-.323-.167-.485-.167 0-.335 0-.502.162l-.502.323c-.502.323-.669.646-.669.969v1.614c0 .485.167.485.669.323l.502-.323c.167-.161.502-.322.502-.484 0-.323.167-.484.167-.646Zm4.351-1.292-1.674.97c-.334.16-.669.322-.836.16-.167-.16-.335-.322-.335-.645v-1.615c0-.323.168-.646.335-.969.167-.323.502-.646.836-.807l.67-.323c.334-.162.669-.323.836-.162.168.162.335.323.335.646v.969s0 .161-.167.161l-2.176 1.13v.647c0 .484.168.484.67.323l1.673-.97h.167v.324c-.167 0-.167.161-.334.161Zm-2.176-.969 1.674-.969v-.807c0-.484-.168-.484-.67-.323l-.502.323c-.502.323-.669.646-.669.969l.167.807c0 .162 0 .162 0 0Z"/><path fill="#DB3E3E" d="M143 37.222c0 2.906-2.342 6.62-5.354 8.235-3.012 1.615-5.354.646-5.354-2.26 0-2.907 2.342-6.621 5.354-8.236 3.012-1.615 5.354-.646 5.354 2.26Z"/><path fill="#FFFAEB" d="M135.807 39.644v-.969c0-.161 0-.323.167-.484l1.171-1.292.502-.485 1.004-.484c.167-.162.335 0 .335.161v7.106l-.168.16-1.338.808c-.168.162-.335 0-.335-.161v-5.652l-1.171 1.292c-.167.161-.167.161-.167 0ZM103.179 72.101c.335.485.167 1.454-.502 2.26-.669.808-1.506.97-2.008.647-.334-.485-.167-1.453.502-2.26.669-.808 1.506-1.131 2.008-.647Zm3.012-2.26c-.67.807-1.004 1.776-.502 2.26.334.485 1.338.162 2.008-.646.669-.807 1.003-1.776.501-2.26-.501-.323-1.338-.162-2.007.646Zm4.852-2.746c-.669.808-1.004 1.777-.502 2.261.335.485 1.338.162 2.008-.646.669-.807 1.004-1.776.502-2.26-.335-.324-1.339-.162-2.008.645Zm5.019-2.745c-.669.808-1.004 1.776-.502 2.26.335.485 1.339.162 2.008-.645s1.004-1.776.502-2.26c-.502-.324-1.338-.162-2.008.645Zm5.02-2.745c-.67.807-1.004 1.776-.502 2.26.502.485 1.338.162 2.008-.645.669-.808 1.003-1.776.502-2.26-.502-.485-1.339-.162-2.008.645Zm4.852-2.745c-.669.807-1.004 1.776-.502 2.26.335.485 1.338.162 2.008-.645.669-.808 1.004-1.777.502-2.261-.335-.484-1.339-.161-2.008.646Z"/><defs><linearGradient id="a" x1="98" x2="98" y1="0" y2="163" gradientUnits="userSpaceOnUse"><stop stop-color="#21FFE4"/><stop offset="1" stop-color="#19EFD5"/></linearGradient><linearGradient id="b" x1="56.359" x2="113.134" y1="36.778" y2="122.027" gradientUnits="userSpaceOnUse"><stop stop-color="#5917FF"/><stop offset=".159" stop-color="#6D22F8"/><stop offset=".485" stop-color="#A13DE7"/><stop offset=".946" stop-color="#F569CA"/><stop offset="1" stop-color="#FF6EC7"/></linearGradient><linearGradient id="c" x1="80.149" x2="86.491" y1="63.934" y2="52.552" gradientUnits="userSpaceOnUse"><stop stop-color="#C0B9C8"/><stop offset="1" stop-color="#F6F4F7"/></linearGradient></defs></svg>