<svg xmlns="http://www.w3.org/2000/svg" width="1440" height="409" fill="none"><mask id="a" width="1440" height="409" x="0" y="0" maskUnits="userSpaceOnUse" style="mask-type:alpha"><path fill="#fff" stroke="#F5F7FA" d="M.5.5h1439v408H.5z"/></mask><g mask="url(#a)"><path fill="#7A6BDE" d="M0 0h1440v409H0z"/><circle cx="1256.5" cy="250.5" r="233.5" fill="#F5F7FA" fill-opacity=".2"/><circle cx="869" cy="394" r="61" fill="#F5F7FA" fill-opacity=".1"/><circle cx="869.5" cy="46.5" r="15.5" fill="#F5F7FA" fill-opacity=".1"/><rect width="177.065" height="313.057" fill="#DBD9D9" rx="12" transform="matrix(.96589 .25894 -.2374 .9714 1009.4 48.984)"/><rect width="176.421" height="312.413" fill="#181240" rx="12" transform="matrix(.96589 .25894 -.2374 .9714 1005.65 42.644)"/><rect width="155.817" height="293.088" fill="#fff" rx="12" transform="matrix(.96589 .25894 -.2374 .9714 1013.31 54.697)"/><ellipse fill="#171332" rx="10.302" ry="10.307" transform="matrix(.96589 .25894 -.2374 .9714 1088.41 75.497)"/><ellipse fill="#1F1A44" rx="5.151" ry="5.153" transform="matrix(.96589 .25894 -.2374 .9714 1088.4 75.498)"/><ellipse fill="#392F79" rx="1.932" ry="1.933" transform="matrix(.96589 .25894 -.2374 .9714 1088.4 75.498)"/><rect width="26.399" height="26.41" fill="#E9EAF2" rx="12" transform="matrix(.96589 .25894 -.2374 .9714 1014.67 87.066)"/><rect width="104.951" height="26.41" fill="#E9EAF2" rx="12" transform="matrix(.96589 .25894 -.2374 .9714 1045.77 95.402)"/><rect width="26.399" height="26.41" fill="#E9EAF2" rx="12" transform="matrix(.96589 .25894 -.2374 .9714 1005.96 122.733)"/><rect width="104.951" height="26.41" fill="#E9EAF2" rx="12" transform="matrix(.96589 .25894 -.2374 .9714 1037.05 131.068)"/><rect width="26.399" height="26.41" fill="#F7F7FA" rx="12" transform="matrix(.96589 .25894 -.2374 .9714 997.239 158.397)"/><rect width="104.951" height="26.41" fill="#F7F7FA" rx="12" transform="matrix(.96589 .25894 -.2374 .9714 1028.34 166.733)"/><rect width="26.399" height="26.41" fill="#E9EAF2" rx="12" transform="matrix(.96589 .25894 -.2374 .9714 988.523 194.065)"/><rect width="104.951" height="26.41" fill="#E9EAF2" rx="12" transform="matrix(.96589 .25894 -.2374 .9714 1019.62 202.402)"/><rect width="26.399" height="26.41" fill="#E9EAF2" rx="12" transform="matrix(.96589 .25894 -.2374 .9714 979.806 229.732)"/><rect width="104.951" height="26.41" fill="#E9EAF2" rx="12" transform="matrix(.96589 .25894 -.2374 .9714 1010.9 238.07)"/><rect width="26.399" height="26.41" fill="#F7F7FA" rx="12" transform="matrix(.96589 .25894 -.2374 .9714 971.089 265.398)"/><rect width="104.951" height="26.41" fill="#F7F7FA" rx="12" transform="matrix(.96589 .25894 -.2374 .9714 1002.19 273.734)"/><rect width="26.399" height="26.41" fill="#E9EAF2" rx="12" transform="matrix(.96589 .25894 -.2374 .9714 962.373 301.066)"/><rect width="104.951" height="26.41" fill="#E9EAF2" rx="12" transform="matrix(.96589 .25894 -.2374 .9714 993.468 309.403)"/><rect width="3.219" height="7.73" fill="#E9EAF2" rx="1.61" transform="matrix(.96589 .25894 -.2374 .9714 1141.45 97.052)"/><rect width="3.219" height="7.73" fill="#E9EAF2" rx="1.61" transform="matrix(.96589 .25894 -.2374 .9714 1145.18 98.05)"/><rect width="3.219" height="7.73" fill="#E9EAF2" rx="1.61" transform="matrix(.96589 .25894 -.2374 .9714 1148.91 99.05)"/><rect width="3.219" height="11.595" fill="#B7B7B9" rx="1.61" transform="matrix(.96589 .25894 -.2374 .9714 1166.74 131.834)"/><rect width="3.219" height="11.595" fill="#B7B7B9" rx="1.61" transform="matrix(.96589 .25894 -.2374 .9714 1163.38 145.602)"/><rect width="1.288" height="9.663" fill="#E9EAF2" rx=".644" transform="matrix(.96589 .25894 -.2374 .9714 1136.31 93.674)"/><rect width="1.288" height="7.086" fill="#E9EAF2" rx=".644" transform="matrix(.96589 .25894 -.2374 .9714 1133.83 95.676)"/><rect width="1.288" height="4.51" fill="#E9EAF2" rx=".644" transform="matrix(.96589 .25894 -.2374 .9714 1131.36 97.679)"/><rect width="1.288" height="2.577" fill="#E9EAF2" rx=".644" transform="matrix(.96589 .25894 -.2374 .9714 1129.03 99.055)"/><rect width="3.221" height="16.741" fill="#B7B7B9" rx="1.611" transform="matrix(-.2374 .9714 -.96589 -.25894 1024.46 372.384)"/><rect width="3.221" height="3.219" fill="#B7B7B9" rx="1.61" transform="matrix(-.2374 .9714 -.96589 -.25894 1046.23 378.218)"/><rect width="3.221" height="3.219" fill="#B7B7B9" rx="1.61" transform="matrix(-.2374 .9714 -.96589 -.25894 979.685 360.379)"/><rect width="3.221" height="3.219" fill="#B7B7B9" rx="1.61" transform="matrix(-.2374 .9714 -.96589 -.25894 1051.2 379.552)"/><rect width="3.221" height="3.219" fill="#B7B7B9" rx="1.61" transform="matrix(-.2374 .9714 -.96589 -.25894 984.66 361.712)"/><rect width="3.221" height="3.219" fill="#B7B7B9" rx="1.61" transform="matrix(-.2374 .9714 -.96589 -.25894 1056.18 380.884)"/><rect width="3.221" height="3.219" fill="#B7B7B9" rx="1.61" transform="matrix(-.2374 .9714 -.96589 -.25894 989.635 363.046)"/><rect width="164.831" height="181.65" fill="#fff" fill-opacity=".5" rx="20" transform="matrix(.96589 .25894 -.2374 .9714 913.036 112.491)"/><rect width="164.831" height="181.65" fill="#F5F7FA" rx="20" transform="matrix(.96589 .25894 -.2374 .9714 909.285 106.152)"/><rect width="164.831" height="181.65" fill="url(#b)" rx="20" transform="matrix(.96589 .25894 -.2374 .9714 909.285 106.152)"/><g filter="url(#c)"><rect width="39.335" height="43.348" fill="#F3EEFF" rx="10" transform="matrix(.96588 .25895 -.2374 .9714 948.689 12.707)"/></g><g filter="url(#d)"><rect width="51.51" height="56.766" fill="#7A6BDE" rx="10" transform="matrix(.96589 .25894 -.2374 .9714 1050.91 180.122)"/></g><g filter="url(#e)"><rect width="85.635" height="69.568" fill="#9789EF" rx="10" transform="matrix(.96589 .25894 -.2374 .9714 1006.44 288.879)"/></g><rect width="70.826" height="26.41" fill="#181240" rx="13.205" transform="matrix(.96589 .25894 -.2374 .9714 921.336 252.062)"/><path fill="#fff" d="M939.39 267.75c-.649-.174-1.205-.063-1.668.333-.462.396-.797 1.018-1.005 1.867-.209.856-.214 1.562-.017 2.119.208.552.662.922 1.363 1.11a4.42 4.42 0 0 0 1.002.148c.347.013.727.003 1.14-.03l-.349 1.43a5.799 5.799 0 0 1-1.118.037 6.247 6.247 0 0 1-1.178-.208c-.821-.22-1.459-.571-1.914-1.053a3.264 3.264 0 0 1-.823-1.757c-.101-.691-.051-1.45.151-2.276.198-.811.519-1.489.962-2.034.444-.545.985-.92 1.623-1.125.646-.203 1.372-.197 2.178.02a4.83 4.83 0 0 1 1.148.475 6.36 6.36 0 0 1 1.054.715l-.887 1.238a9.255 9.255 0 0 0-.816-.614 2.773 2.773 0 0 0-.846-.395ZM945.118 276.462l-1.69-.453 1.618-6.623-2.171-.582.346-1.419 6.034 1.617-.347 1.419-2.171-.582-1.619 6.623ZM953.187 278.625l-.114-2.071-2.911-.78-1.05 1.759-1.825-.489 4.795-7.32 2.071.555.859 8.836-1.825-.49Zm-.293-5.635a40.574 40.574 0 0 0-.027-.523 57.78 57.78 0 0 1-.033-.645c-.01-.219-.016-.408-.016-.569a13.44 13.44 0 0 1-.295.522 37.67 37.67 0 0 1-.333.582c-.1.182-.175.309-.225.384l-1.028 1.717 2.082.558-.125-2.026ZM961.101 272.178c1.03.276 1.725.702 2.085 1.279.37.571.459 1.247.268 2.028a3.094 3.094 0 0 1-.613 1.24c-.293.353-.698.593-1.214.719-.508.127-1.15.087-1.926-.121l-.728-.195-.699 2.861-1.69-.453 1.965-8.042 2.552.684Zm-.431 1.373-.772-.207-.584 2.387.56.15c.478.129.878.136 1.2.022.331-.119.549-.393.653-.821.191-.781-.161-1.291-1.057-1.531ZM967.251 282.396l-1.69-.453 1.618-6.624-2.171-.582.346-1.419 6.034 1.618-.347 1.419-2.171-.582-1.619 6.623ZM965.664 227.952c14.723-5.954 26.436-18.69 30.541-35.487 3.975-16.278-.06-32.808-9.581-45.309a1.906 1.906 0 0 0-2.278-.611c-14.085 6.173-25.209 18.638-29.188 34.917-4.104 16.796.325 33.86 10.506 46.49Z"/><path fill="#F5F7FA" d="M985.624 146.283c.259.07.498.224.674.45 9.755 12.55 13.932 29.27 9.907 45.733-4.105 16.796-15.817 29.533-30.541 35.486l19.96-81.669Z"/><ellipse fill="#7A6BDE" rx="7.726" ry="7.73" transform="matrix(.96589 .25894 -.2374 .9714 978.357 176.015)"/><ellipse fill="#E7EEF1" rx="5.795" ry="5.798" transform="matrix(.96589 .25894 -.2374 .9714 978.357 176.011)"/><path fill="#fff" d="m960.526 224.57 11.195 3.001-1.377 5.632-11.194-3z"/><path fill="#7A6BDE" d="m959.578 220.312 14.926 4.001-1.835 7.51-14.926-4.002z"/><path fill="#7A6BDE" d="m968.233 209.3 3.11.834-7.188 29.409-3.11-.834zM947.521 208.503c1.539-2.04 9.298-6.143 12.986-7.94l-.248 14.154c.043.011.036.039-.001.073l.001-.073c-.161-.043-1.029.141-3.692 1.083-4.216 1.492-10.764 13.399-11.637 14.986-.873 1.588-1.756.819-2.817-.576-1.062-1.395 3.483-19.157 5.408-21.707ZM989.77 219.829c-.415-2.564-5.338-10.067-7.747-13.498l-6.276 12.537c-.043-.011-.049.017-.032.065l.032-.065c.161.044.837.642 2.741 2.808 3.013 3.43 3.294 17.168 3.331 18.999.038 1.832 1.165 1.601 2.736.912 1.57-.689 5.733-18.554 5.215-21.758Z"/><path fill="#F2F2F3" d="m1004.42 346.801 6.28-25.682c6.27 5.305 10.53 4.091 18.75 1.402s9.31 6.121 14.94 10.349c5.63 4.227 11.44.348 15.93-7.691 3.59-6.432 11.45-4.602 14.93-2.883l-9.97 40.818-60.86-16.313Z"/><ellipse fill="#7A6BDE" rx="1.4" ry="1.401" transform="matrix(.96589 .25894 -.2374 .9714 1033.67 322.2)"/><ellipse fill="#7A6BDE" rx="1.05" ry="1.051" transform="matrix(.96589 .25894 -.2374 .9714 1033.67 322.201)"/><ellipse fill="#7A6BDE" rx="1.4" ry="1.401" transform="matrix(.96589 .25894 -.2374 .9714 1047.31 334.193)"/><ellipse fill="#7A6BDE" rx="1.05" ry="1.051" transform="matrix(.96589 .25894 -.2374 .9714 1047.31 334.194)"/><ellipse fill="#7A6BDE" rx="1.4" ry="1.401" transform="matrix(.96589 .25894 -.2374 .9714 1016.54 324.496)"/><ellipse fill="#7A6BDE" rx="1.05" ry="1.051" transform="matrix(.96589 .25894 -.2374 .9714 1016.54 324.496)"/><ellipse fill="#7A6BDE" rx="1.4" ry="1.401" transform="matrix(.96589 .25894 -.2374 .9714 1069.38 320.536)"/><ellipse fill="#7A6BDE" rx="1.05" ry="1.051" transform="matrix(.96589 .25894 -.2374 .9714 1069.38 320.536)"/><path fill="#DFDEDE" d="m1015.87 325.765.338.09-5.487 22.45-.338-.09zM1046.64 335.462l.338.09-5.154 21.09-.338-.09zM1069.05 321.899l.338.09-9.643 39.458-.338-.09zM1033 323.471l.338.09-7.066 28.914-.338-.091z"/><g filter="url(#f)"><rect width="41.114" height="33.4" fill="#9789EF" rx="10" transform="matrix(.96589 .25894 -.2374 .9714 1288.93 130.013)"/></g><path fill="#F2F2F3" fill-opacity=".4" d="m1287.96 157.821 3.02-12.33c3.01 2.547 5.05 1.964 9 .673s4.47 2.939 7.17 4.969c2.71 2.029 5.5.167 7.65-3.693 1.72-3.088 5.5-2.209 7.17-1.384l-4.79 19.597-29.22-7.832Z"/><ellipse fill="#7A6BDE" rx=".672" ry=".673" transform="matrix(.96589 .25894 -.2374 .9714 1302 146.01)"/><circle r=".504" fill="#7A6BDE" transform="matrix(.96589 .25894 -.2374 .9714 1302 146.01)"/><ellipse fill="#7A6BDE" rx=".672" ry=".673" transform="matrix(.96589 .25894 -.2374 .9714 1308.55 151.769)"/><circle r=".504" fill="#7A6BDE" transform="matrix(.96589 .25894 -.2374 .9714 1308.55 151.769)"/><ellipse fill="#7A6BDE" rx=".672" ry=".673" transform="matrix(.96589 .25894 -.2374 .9714 1293.78 147.113)"/><circle r=".504" fill="#7A6BDE" transform="matrix(.96589 .25894 -.2374 .9714 1293.78 147.113)"/><ellipse fill="#7A6BDE" rx=".672" ry=".673" transform="matrix(.96589 .25894 -.2374 .9714 1319.15 145.211)"/><circle r=".504" fill="#7A6BDE" transform="matrix(.96589 .25894 -.2374 .9714 1319.15 145.21)"/><path fill="#DFDEDE" d="m1293.46 147.722.162.044-2.634 10.778-.162-.043zM1308.23 152.378l.162.044-2.474 10.124-.162-.043zM1318.99 145.866l.162.044-4.63 18.944-.162-.044zM1301.68 146.62l.162.044-3.392 13.88-.163-.043z"/><rect width="39.276" height="23.034" fill="#fff" rx="3" transform="matrix(.96589 .25894 -.2374 .9714 1051.76 201.022)"/><rect width="39.276" height="23.034" fill="#fff" fill-opacity=".2" rx="3" transform="matrix(.96589 .25894 -.2374 .9714 1054.86 199.186)"/><ellipse fill="#C4C4C4" fill-opacity=".3" rx="1.862" ry="1.863" transform="matrix(.96589 .25894 -.2374 .9714 1081.99 213.507)"/><ellipse fill="#C4C4C4" fill-opacity=".3" rx="1.862" ry="1.863" transform="matrix(.96589 .25894 -.2374 .9714 1084.28 214.121)"/><rect width="6.772" height="1.355" fill="#D8D8D8" rx=".678" transform="matrix(.96589 .25894 -.2374 .9714 1053.82 204.028)"/><rect width="6.772" height="1.355" fill="#D8D8D8" rx=".678" transform="matrix(.96589 .25894 -.2374 .9714 1049.8 220.479)"/><rect width="6.772" height="1.355" fill="#D8D8D8" rx=".678" transform="matrix(.96589 .25894 -.2374 .9714 1058.3 222.758)"/><rect width="6.772" height="1.355" fill="#D8D8D8" rx=".678" transform="matrix(.96589 .25894 -.2374 .9714 1066.8 225.038)"/><rect width="6.772" height="1.355" fill="#D8D8D8" rx=".678" transform="matrix(.96589 .25894 -.2374 .9714 1075.3 227.318)"/><rect width="39.276" height="23.034" fill="#7A6BDE" rx="3" transform="matrix(.96589 .25894 -.2374 .9714 1323.47 345.503)"/><rect width="39.276" height="23.034" fill="#fff" fill-opacity=".2" rx="3" transform="matrix(.96589 .25894 -.2374 .9714 1326.57 343.666)"/><ellipse fill="#C4C4C4" fill-opacity=".3" rx="1.862" ry="1.863" transform="matrix(.96589 .25894 -.2374 .9714 1353.7 357.988)"/><ellipse fill="#C4C4C4" fill-opacity=".3" rx="1.862" ry="1.863" transform="matrix(.96589 .25894 -.2374 .9714 1355.99 358.602)"/><rect width="6.772" height="1.355" fill="#D8D8D8" rx=".678" transform="matrix(.96589 .25894 -.2374 .9714 1325.52 348.509)"/><rect width="6.772" height="1.355" fill="#D8D8D8" rx=".678" transform="matrix(.96589 .25894 -.2374 .9714 1321.5 364.959)"/><rect width="6.772" height="1.355" fill="#D8D8D8" rx=".678" transform="matrix(.96589 .25894 -.2374 .9714 1330 367.238)"/><rect width="6.772" height="1.355" fill="#D8D8D8" rx=".678" transform="matrix(.96589 .25894 -.2374 .9714 1338.51 369.519)"/><rect width="6.772" height="1.355" fill="#D8D8D8" rx=".678" transform="matrix(.96589 .25894 -.2374 .9714 1347.01 371.799)"/><g filter="url(#g)"><rect width="41.266" height="34.33" fill="#F5F7FA" rx="10" transform="matrix(.96589 .25894 -.2374 .9714 854.14 226.048)"/></g><path fill="#958BDF" d="m860.267 244.362 4.975 1.334-2.905 11.889-4.976-1.334z"/><path fill="#5A528E" d="m869.718 238.226 4.975 1.334-4.894 20.024-4.975-1.333z"/><path fill="#7A6BDE" d="m875.652 246.485 4.975 1.334-3.364 13.767-4.976-1.334z"/><g filter="url(#h)"><rect width="41.266" height="34.33" fill="#F5F7FA" fill-opacity=".8" rx="10" transform="matrix(.96589 .25894 -.2374 .9714 1198.15 226.013)"/></g><path fill="#958BDF" d="m1204.28 244.327 4.975 1.334-2.905 11.889-4.976-1.334z"/><path fill="#5A528E" d="m1213.73 238.19 4.975 1.334-4.894 20.024-4.975-1.333z"/><path fill="#7A6BDE" d="m1219.66 246.45 4.975 1.334-3.364 13.767-4.976-1.334zM974.585 42.318a12.006 12.006 0 0 1-4.31 6.66 11.88 11.88 0 0 1-7.508 2.474 12.302 12.302 0 0 1-7.507-2.768 12.63 12.63 0 0 1-4.308-6.829 12.363 12.363 0 0 1 .725-7.981 11.909 11.909 0 0 1 5.451-5.734 11.96 11.96 0 0 1 7.854-1.043 12.438 12.438 0 0 1 6.911 4.092l-9.125 7.961 11.817 3.168Z"/></g><defs><filter id="c" width="90.115" height="93.799" x="925.482" y="2.955" color-interpolation-filters="sRGB" filterUnits="userSpaceOnUse"><feFlood flood-opacity="0" result="BackgroundImageFix"/><feColorMatrix in="SourceAlpha" result="hardAlpha" values="0 0 0 0 0 0 0 0 0 0 0 0 0 0 0 0 0 0 127 0"/><feOffset dx="8" dy="11"/><feGaussianBlur stdDeviation="11.5"/><feColorMatrix values="0 0 0 0 0 0 0 0 0 0 0 0 0 0 0 0 0 0 0.1 0"/><feBlend in2="BackgroundImageFix" result="effect1_dropShadow_680_8019"/><feBlend in="SourceGraphic" in2="effect1_dropShadow_680_8019" result="shape"/></filter><filter id="d" width="105.061" height="109.984" x="1024.51" y="170.37" color-interpolation-filters="sRGB" filterUnits="userSpaceOnUse"><feFlood flood-opacity="0" result="BackgroundImageFix"/><feColorMatrix in="SourceAlpha" result="hardAlpha" values="0 0 0 0 0 0 0 0 0 0 0 0 0 0 0 0 0 0 127 0"/><feOffset dx="8" dy="11"/><feGaussianBlur stdDeviation="11.5"/><feColorMatrix values="0 0 0 0 0 0 0 0 0 0 0 0 0 0 0 0 0 0 0.1 0"/><feBlend in2="BackgroundImageFix" result="effect1_dropShadow_680_8019"/><feBlend in="SourceGraphic" in2="effect1_dropShadow_680_8019" result="shape"/></filter><filter id="e" width="141.061" height="131.257" x="977.005" y="279.127" color-interpolation-filters="sRGB" filterUnits="userSpaceOnUse"><feFlood flood-opacity="0" result="BackgroundImageFix"/><feColorMatrix in="SourceAlpha" result="hardAlpha" values="0 0 0 0 0 0 0 0 0 0 0 0 0 0 0 0 0 0 127 0"/><feOffset dx="8" dy="11"/><feGaussianBlur stdDeviation="11.5"/><feColorMatrix values="0 0 0 0 0 0 0 0 0 0 0 0 0 0 0 0 0 0 0.1 0"/><feBlend in2="BackgroundImageFix" result="effect1_dropShadow_680_8019"/><feBlend in="SourceGraphic" in2="effect1_dropShadow_680_8019" result="shape"/></filter><filter id="f" width="89.472" height="84.595" x="1268.08" y="120.261" color-interpolation-filters="sRGB" filterUnits="userSpaceOnUse"><feFlood flood-opacity="0" result="BackgroundImageFix"/><feColorMatrix in="SourceAlpha" result="hardAlpha" values="0 0 0 0 0 0 0 0 0 0 0 0 0 0 0 0 0 0 127 0"/><feOffset dx="8" dy="11"/><feGaussianBlur stdDeviation="11.5"/><feColorMatrix values="0 0 0 0 0 0 0 0 0 0 0 0 0 0 0 0 0 0 0.1 0"/><feBlend in2="BackgroundImageFix" result="effect1_dropShadow_680_8019"/><feBlend in="SourceGraphic" in2="effect1_dropShadow_680_8019" result="shape"/></filter><filter id="g" width="89.84" height="85.538" x="833.074" y="216.296" color-interpolation-filters="sRGB" filterUnits="userSpaceOnUse"><feFlood flood-opacity="0" result="BackgroundImageFix"/><feColorMatrix in="SourceAlpha" result="hardAlpha" values="0 0 0 0 0 0 0 0 0 0 0 0 0 0 0 0 0 0 127 0"/><feOffset dx="8" dy="11"/><feGaussianBlur stdDeviation="11.5"/><feColorMatrix values="0 0 0 0 0 0 0 0 0 0 0 0 0 0 0 0 0 0 0.1 0"/><feBlend in2="BackgroundImageFix" result="effect1_dropShadow_680_8019"/><feBlend in="SourceGraphic" in2="effect1_dropShadow_680_8019" result="shape"/></filter><filter id="h" width="89.84" height="85.538" x="1177.08" y="216.261" color-interpolation-filters="sRGB" filterUnits="userSpaceOnUse"><feFlood flood-opacity="0" result="BackgroundImageFix"/><feColorMatrix in="SourceAlpha" result="hardAlpha" values="0 0 0 0 0 0 0 0 0 0 0 0 0 0 0 0 0 0 127 0"/><feOffset dx="8" dy="11"/><feGaussianBlur stdDeviation="11.5"/><feColorMatrix values="0 0 0 0 0 0 0 0 0 0 0 0 0 0 0 0 0 0 0.1 0"/><feBlend in2="BackgroundImageFix" result="effect1_dropShadow_680_8019"/><feBlend in="SourceGraphic" in2="effect1_dropShadow_680_8019" result="shape"/></filter><linearGradient id="b" x1="225.83" x2="-35.637" y1="-93.017" y2="268.309" gradientUnits="userSpaceOnUse"><stop stop-color="#9C73FF"/><stop offset="1" stop-color="#fff" stop-opacity="0"/></linearGradient></defs></svg>