<svg xmlns="http://www.w3.org/2000/svg" width="317" height="284" fill="none"><g fill="#42E8E0" opacity=".3"><path d="M248.091 127.981c.956 5.387 4.953 19.03 21.55 28.415 23.549 10.862 39.886 25.2 45.36 41.189.348 1.043.956 2.433 1.391 3.476.608-.956.608-.956.608-3.302v-26.851c0-15.729-.869-19.205-1.999-23.636-5.474-15.989-21.811-30.24-45.36-41.19-18.856-5.995-23.375 11.558-21.55 21.899ZM75.253 95.829c24.939-7.213 54.484-11.297 85.941-11.036 4.171 0 8.255.174 12.339.347 27.633 2.52 37.453 31.718 20.855 44.492-7.646 5.822-16.858 5.822-20.855 5.735-4.084-.174-8.168-.261-12.339-.348-31.457-.26-61.002 3.824-85.941 11.036-25.2 6.17-26.678-19.465-17.901-35.106 3.041-5.214 8.516-12.079 17.9-15.12ZM0 209.49c.695-7.995 1.217-14.251 9.385-25.287 17.119-25.287 13.643-54.571 4.17-53.268-1.563.261-3.127 1.825-4.17 2.955C3.563 141.45.348 149.444 0 157.873V209.49Z"/></g><path fill="url(#a)" d="M152.678 193.153a7.533 7.533 0 0 1 7.647 0l45.447 26.156c.695.435.695 1.478 0 1.825l-45.882 26.591c-2.085 1.216-4.692 1.216-6.691 0l-45.881-26.417c-.696-.435-.696-1.477 0-1.825l45.36-26.33Z" opacity=".11"/><path fill="url(#b)" d="M152.678 185.506a7.533 7.533 0 0 1 7.647 0l45.447 26.156c.695.435.695 1.478 0 1.825l-45.882 26.591c-2.085 1.216-4.692 1.216-6.691 0l-45.881-26.417c-.696-.434-.696-1.477 0-1.825l45.36-26.33Z" opacity=".11"/><path fill="url(#c)" d="M152.678 177.86a7.528 7.528 0 0 1 7.647 0l45.447 26.156c.695.434.695 1.477 0 1.824l-45.882 26.504c-2.085 1.216-4.692 1.216-6.691 0l-45.881-26.417c-.696-.434-.696-1.477 0-1.825l45.36-26.242Z" opacity=".11"/><path fill="url(#d)" d="M152.678 170.212a7.533 7.533 0 0 1 7.647 0l45.447 26.156c.695.435.695 1.478 0 1.825l-45.882 26.504c-2.085 1.216-4.692 1.216-6.691 0l-45.968-26.417c-.695-.434-.695-1.477 0-1.825l45.447-26.243Z" opacity=".11"/><path fill="url(#e)" d="m107.231 196.455 45.36-26.243a7.533 7.533 0 0 1 7.647 0l45.447 26.156c.348.174.522.609.522.956v22.941c0 .348-.174.695-.522.956l-45.795 26.504c-2.085 1.216-4.692 1.216-6.691 0l-45.881-26.417c-.348-.174-.522-.608-.522-.956v-22.941c-.086-.434.087-.782.435-.956Z" opacity=".11"/><path fill="url(#f)" d="M151.809 151.443c2.867-1.651 6.43-1.651 9.211 0l55.093 31.717a1.305 1.305 0 0 1 0 2.259l-55.614 32.065a8.08 8.08 0 0 1-8.169 0l-55.7-32.065a1.305 1.305 0 0 1 0-2.259l55.179-31.717Z" opacity=".11"/><path fill="url(#g)" d="M151.809 142.145c2.867-1.651 6.43-1.651 9.211 0l55.093 31.717a1.305 1.305 0 0 1 0 2.259l-55.614 32.065a8.08 8.08 0 0 1-8.169 0l-55.7-32.065a1.305 1.305 0 0 1 0-2.259l55.179-31.717Z" opacity=".11"/><path fill="url(#h)" d="M151.809 132.847c2.867-1.651 6.43-1.651 9.211 0l55.093 31.717a1.305 1.305 0 0 1 0 2.26l-55.614 32.064a8.08 8.08 0 0 1-8.169 0l-55.7-32.064a1.306 1.306 0 0 1 0-2.26l55.179-31.717Z" opacity=".11"/><path fill="url(#i)" d="M151.809 123.549c2.867-1.651 6.43-1.651 9.211 0l55.093 31.717a1.305 1.305 0 0 1 0 2.26l-55.614 32.065a8.084 8.084 0 0 1-8.169 0l-55.7-32.065a1.306 1.306 0 0 1 0-2.26l55.179-31.717Z" opacity=".11"/><path fill="url(#j)" d="m96.803 155.353 55.093-31.804c2.867-1.651 6.43-1.651 9.211 0l55.093 31.717c.434.261.608.695.608 1.13v27.894c0 .434-.174.869-.608 1.129l-55.615 32.065a8.078 8.078 0 0 1-8.168 0l-55.7-32.065c-.435-.26-.609-.695-.609-1.129v-27.894c0-.348.26-.782.695-1.043Z" opacity=".5"/><path fill="url(#k)" d="M151.809 123.549c2.867-1.651 6.43-1.651 9.211 0l55.093 31.717a1.305 1.305 0 0 1 0 2.26l-55.614 32.065a8.084 8.084 0 0 1-8.169 0l-55.7-32.065a1.306 1.306 0 0 1 0-2.26l55.179-31.717Z" opacity=".11"/><path fill="url(#l)" d="m96.803 156.309 55.701 32.065a8.082 8.082 0 0 0 8.168 0l55.614-32.065c.174-.087.348-.261.522-.521.347.608.174 1.39-.522 1.738l-55.614 32.064a8.078 8.078 0 0 1-8.168 0l-55.7-32.064c-.696-.348-.783-1.217-.522-1.738.087.26.26.434.521.521Z"/><path fill="#180D5B" d="M156.501 174.123c16.75 0 30.327-7.859 30.327-17.553 0-9.695-13.577-17.554-30.327-17.554-16.749 0-30.327 7.859-30.327 17.554 0 9.694 13.578 17.553 30.327 17.553Z" opacity=".2"/><path fill="#160A5B" d="M240.531 187.592s-.696.782-1.478 1.651-2.954 2.173-3.823 2.694c-.869.521-5.04 3.736-5.909 6.778-.869 3.128 2.085 3.476 5.127 2.954 3.041-.521 5.822-3.302 6.691-4.345.782-1.042 3.65-3.302 7.386-5.213 3.737-1.912 1.477-4.519 1.477-4.519h-9.471ZM268.164 196.803s.608 1.39.782 3.215c.174 1.825.435 5.649.521 6.778.087 1.13.087 3.911-1.824 6.604-1.912 2.694-3.042 3.737-5.649 2.694-2.694-1.043-2.607-5.474-2.085-7.821.434-2.259.869-7.386.869-7.994-.087-.521.174-.869.174-.869l7.212-2.607Z"/><path fill="#24126A" d="M231.406 135.019s.522 20.421 5.301 31.283c0 0 3.389 9.559 3.824 20.942 0 0-.782 1.912.347 3.563 1.13 1.651 8.082 3.042 9.298-2.172 1.13-5.214.695-15.033-.521-19.031-1.304-4.084.434-15.294.434-15.294s1.912 1.217 4.432 9.298c2.52 8.082 4.345 11.123 5.214 13.383.869 2.259 1.651 15.902 1.13 22.593 0 0 5.648.782 7.299-1.912 1.651-2.694 2.172-16.684 1.738-21.116-.435-4.432-2.259-18.77-1.999-23.201.261-4.432 1.217-7.995.174-12.427-1.043-4.431-30.848-14.251-30.848-14.251l-5.823 8.342Z"/><path fill="url(#m)" d="M231.406 135.019s.522 20.421 5.301 31.283c0 0 3.389 9.559 3.824 20.942 0 0-.782 1.912.347 3.563 1.13 1.651 8.082 3.042 9.298-2.172 1.13-5.214.695-15.033-.521-19.031-1.304-4.084.434-15.294.434-15.294s1.912 1.217 4.432 9.298c2.52 8.082 4.345 11.123 5.214 13.383.869 2.259 1.651 15.902 1.13 22.593 0 0 5.648.782 7.299-1.912 1.651-2.694 2.172-16.684 1.738-21.116-.435-4.432-2.259-18.77-1.999-23.201.261-4.432 1.217-7.995.174-12.427-1.043-4.431-30.848-14.251-30.848-14.251l-5.823 8.342Z"/><path fill="#160A5B" d="M267.816 153.181c.261-4.432 1.217-7.995.174-12.426-.347-1.652-4.866-4.085-10.254-6.431-9.124-.869-20.681-1.825-21.55-1.651-.695.087-2.607.869-4.171 1.477l-.609.956s.001 1.217.174 3.302c2.173.609 6.257 0 6.257 0 .608 1.391 4.171 6.518 8.603 8.69 4.431 2.172 17.379 1.477 18.161 2.259.782.869.869 11.992.782 13.469-.087 1.391 1.217 10.341 2.433 18.249 1.217 7.82-.608 17.205-.695 17.553a2.993 2.993 0 0 0 1.043-1.043c1.651-2.694 2.172-16.684 1.738-21.116-.522-4.518-2.346-18.856-2.086-23.288Z"/><path fill="url(#n)" d="M241.4 68.282s-6.604 1.478-8.864 2c-.347.086-.695.347-.782.694-.608 1.651-2.259 6.691-1.043 14.078 1.478 9.037 1.043 15.207 1.043 15.207l-3.041 15.902s-3.824 15.207-3.476 15.641c.347.435 8.863 6.952 11.557 5.996 2.694-.956 1.825-2.433 1.825-2.433s2.172 11.036 11.731 10.862c9.559-.087 17.379-.087 19.031-3.91 1.651-3.911-.435-20.16-2.173-26.591-1.651-6.43-5.735-19.29-5.735-19.29l13.99-15.469-11.991-9.124s-2.868-5.3-3.998-5.996c-1.216-.695-1.825-.087-1.825-.087l-16.249 2.52Z"/><path fill="url(#o)" d="M236.794 134.324c0 .522-.347 1.391-1.999 1.999-1.824.608-6.43-2.173-9.384-4.171 1.477 1.216 8.863 6.604 11.296 5.735.522-.174.956-.348 1.217-.608a20.415 20.415 0 0 1-1.13-2.955Z"/><path fill="#F0F6FF" d="M259.127 65.762s2.433 2.955-1.043 6.952c-2.173 2.433-5.909 7.734-9.037 13.295-1.999 3.476-3.824 5.301-4.867 8.256 0 0-.173-3.476-.26-8.95-.174-5.128-.174-10.428 0-11.732.434-2.867 12.513-9.21 15.207-7.82Z"/><path fill="#FCD1C5" d="M249.916 74.626s-1.217.782-1.652.695c-.434-.087-1.824-1.39-1.824-1.39s-3.476-.087-3.824-1.564c-.347-1.478-.608-2.955-.956-3.737-.347-.782-1.825-4.518-1.825-5.996 0-1.477.087-4.17-.608-5.648-.608-1.39-1.564-15.642 12.253-15.294 13.729.434 9.471 14.686 9.471 14.686s1.043.434.435 2.259c-.608 1.825-.782 1.999-1.043 2.954-.347.956-.434 1.478-1.303 2.26l-.261 1.738s.695 2.607-1.043 5.127c-1.825 2.433-7.82 3.91-7.82 3.91Z"/><path fill="#24126A" d="M232.189 70.455s-1.478.26-6.257 12.166c-2.694 6.69-6.778 13.642-7.647 18.595-.869 4.954-.348 10.254.608 10.689.956.347 18.075 6.778 23.376 8.776.26.087.608-.087.695-.347l1.477-8.255-10.601-4.085s-1.999-2.433-3.911-3.389c0 0 2.086-3.91 1.999-4.953-.174-1.042.174-12.165-1.043-16.684-1.303-4.605 1.304-12.513 1.304-12.513Z"/><path fill="url(#p)" d="M232.189 70.455s-1.478.26-6.257 12.166c-2.694 6.69-6.778 13.642-7.647 18.595-.869 4.954-.348 10.254.608 10.689.956.347 18.075 6.778 23.376 8.776.26.087.608-.087.695-.347l1.477-8.255-10.601-4.085s-1.999-2.433-3.911-3.389c0 0 2.086-3.91 1.999-4.953-.174-1.042.174-12.165-1.043-16.684-1.303-4.605 1.304-12.513 1.304-12.513Z"/><path fill="#FCD1C5" d="M238.358 102.085s-1.477-.956-1.825-1.129c-.347-.174-2.346-.782-2.693-.956-.261-.087-1.391 0-1.999 0-.174 0-.348.174-.521.347-.435.869-1.738 3.302-1.565 4.171 0 0 3.563 2.26 3.911 3.216l.521.087c.087.086 2.52-4.954 4.171-5.736Z"/><path fill="#24126A" d="M267.034 115.728c-.434-1.564-.956-3.476-1.564-5.474l-21.463 9.211s6.43 7.907 17.726 7.386c3.129-.174 5.301-1.217 6.952-2.172-.434-3.476-1.043-6.778-1.651-8.951Z"/><path fill="#24126A" d="M275.376 80.97s-5.648.782-10.253 8.081c-4.606 7.3-7.908 15.641-7.908 15.641l-.174.956c-.434 2.433-3.041 3.911-5.301 2.868-4.866-2.172-11.991-5.388-13.295-6.43 0 0-4.258 2.346-5.474 7.994-.956 4.432-.696 4.519-.696 4.519s19.118 8.95 26.504 8.863c7.386-.087 16.684-24.33 17.727-29.371.956-5.04 2.086-11.644-1.13-13.121Z"/><path fill="url(#q)" d="M275.376 80.97s-5.648.782-10.253 8.081c-4.606 7.3-7.908 15.641-7.908 15.641l-.174.956c-.434 2.433-3.041 3.911-5.301 2.868-4.866-2.172-11.991-5.388-13.295-6.43 0 0-4.258 2.346-5.474 7.994-.956 4.432-.696 4.519-.696 4.519s19.118 8.95 26.504 8.863c7.386-.087 16.684-24.33 17.727-29.371.956-5.04 2.086-11.644-1.13-13.121Z"/><path fill="#453C9E" d="M254.434 109.646s2.433 2.259 3.476 1.042c1.043-1.216.782-1.39.782-1.39s2.173 0 2.433-1.39c.261-1.391 1.304-.609 1.391-2.173.086-1.477-1.738-1.216-1.738-1.216l-6.344 5.127Z"/><path fill="#FCD1C5" d="M251.567 108.429s.695-.608 1.477-1.304c.869-.695 2.259-3.736 2.433-3.997.261-.261 3.128-2.433 4.519-2.52 1.39 0 .347 1.477 0 1.738-.348.261-1.651.869-1.651.869s-1.391 1.13-1.565 1.304c-.173.173 3.911-.261 4.519.086.608.435.521 1.391 0 1.738-.434.261-.782.261-.782.261s.434 1.217-.782 1.738c-1.217.521-1.477.261-1.477.261s-.087 2.085-2.086 1.651l-4.605-1.825Z"/><path fill="#AA8383" d="M238.88 49.687s-1.825 5.735 2.954 4.084c4.693-1.651 9.037-4.345 10.515-3.302 1.129.782 1.042 3.215.955 4.344 0 .348.087.783.261 1.043l1.391 1.999c.173.26.26.521.26.782l.087 1.39c0 .348.348.609.695.695h.348c.347 0 .695-.26.782-.608l.348-2.085s1.129-2.781 3.475-1.738c0 0 1.565-2.086 1.043-6.604-.521-4.52-2.52-9.212-11.383-9.994-8.951-.608-11.731 9.994-11.731 9.994Z"/><path fill="#C4CCD6" d="m252.349 79.666-1.304-1.043s-1.216 1.043-1.738 2.086c-.521 1.042 0 4.518 0 4.518l-.434.695-.522-.868-.434-4.085s.434-3.041.521-3.041c.087-.087 2.52.26 2.52.26s1.043.609 1.391 1.478ZM246.005 75.582s-1.39.087-2.085.608c0 0 1.477.087 1.738.087.26.087.347-.695.347-.695Z"/><path fill="#24126A" d="m248.699 75.93 2.346 2.259s-2.085.956-2.694 2.867c0 0-2.606.522-2.867-.434-.261-.956 0-3.302-.261-4.345-.261-1.13 3.476-.348 3.476-.348Z"/><path fill="#24126A" d="M245.658 80.448s-.435 1.912-.956 2.78c-.522.783-.956 1.739-.956 1.739l.087 11.383s4.171-8.69 5.127-10.427c0 0-.174-4.172-.522-4.954-.434-.782-2.78-.521-2.78-.521Z"/><path fill="#E2B1A6" d="M256.954 63.59c-2.78 7.995-10.514 10.34-10.514 10.34s1.39 1.391 1.825 1.391c.434.087 1.651-.695 1.651-.695s5.909-1.477 7.646-3.997c1.738-2.52 1.043-5.127 1.043-5.127l.261-1.738c-1.217.521-1.912-.174-1.912-.174Z"/><path fill="#24126A" d="M263.298 72.888s-1.13 3.737-1.217 3.91c-.174.174-2.781-.173-2.781-.173l1.304 2.346s-13.035 13.99-15.815 21.55c0 0 6.169-9.558 17.031-20.942l-1.564-2.346 2.694.521.348-4.866ZM241.834 69.586l-.695.782.782.782-2.433 2.172s-.695 15.294 2.172 25.461c0 0-3.997-9.298-3.128-25.895l2.607-1.738-.869-.869 1.564-.695Z"/><path fill="#160A5B" d="m250.089 154.224.087.086-3.389-3.562c1.564 2.172-.26 12.252-.434 14.598-.174 2.347 1.825 7.039 2.52 12.687.782 5.562-.782 13.556-.782 13.556.956-.521 1.738-1.477 2.085-2.954 1.13-5.214.695-15.033-.521-19.031-1.304-4.171.434-15.38.434-15.38Z"/><path fill="#936D6D" d="M256.259 60.81c.348 0 .695-.261.782-.609l.348-2.086s1.129-2.78 3.476-1.738c0 0 1.477-1.998 1.042-6.256-2.607 3.91-8.429 5.735-8.429 5.735l1.391 1.999c.173.26.26.521.26.782l.087 1.39c0 .348.348.608.695.695l.348.087Z"/><path fill="#160A5B" d="M53.702 253.894s3.042.782 5.996.869c2.955.087 10.95 1.738 10.689 4.693-.174 2.954-4.345 7.299-9.56 7.907-5.213.609-11.99-.869-15.38-.782-3.389.087-5.735-3.389-4.432-6.691 1.304-3.302 12.687-5.996 12.687-5.996ZM36.062 245.9s-1.13 1.825-.608 2.867c.521 1.13 1.999 3.824 6.778 1.217 4.78-2.607 13.904-6.43 13.904-6.43s5.3-2.781 4.953-6.083c-.261-3.302-5.127-2.781-5.127-2.781l-19.9 11.21Z"/><path fill="#24126A" d="M67.084 199.062s-1.998 21.464-6.343 29.632c-4.345 8.255-5.561 23.375-6.517 26.33-.956 2.867-3.737 7.125-8.255 7.994-4.52.869-5.214-2.172-4.954-3.997.261-1.825 1.478-4.779 1.478-6.778 0-1.998-.435-2.867-.522-3.823 0 0-5.127 1.477-5.909-2.433 0 0 .435-1.13.522-1.738.086-.609-.435-14.947-.522-16.685-.087-1.737.782-11.122 2.26-15.728 1.39-4.605.955-14.338.955-14.338l14.6-1.998 13.207 3.562Z"/><path fill="url(#r)" d="M67.084 199.062s-1.998 21.464-6.343 29.632c-4.345 8.255-5.561 23.375-6.517 26.33-.956 2.867-3.737 7.125-8.255 7.994-4.52.869-5.214-2.172-4.954-3.997.261-1.825 1.478-4.779 1.478-6.778 0-1.998-.435-2.867-.522-3.823 0 0-5.127 1.477-5.909-2.433 0 0 .435-1.13.522-1.738.086-.609-.435-14.947-.522-16.685-.087-1.737.782-11.122 2.26-15.728 1.39-4.605.955-14.338.955-14.338l14.6-1.998 13.207 3.562Z"/><path fill="#160A5B" d="M43.449 198.889s.086 3.389 1.477 6.169c0 0 0 11.384 1.13 17.206 0 0-1.912 11.644-3.042 15.294-1.217 3.649-1.043 10.862-1.043 10.862s-.608.174-1.39.261c-.87 0-.87-14.165.347-16.685 1.304-2.52 2.26-13.556 1.738-16.945-.521-3.389-.347-12.947-.955-14.685-.609-1.651.782-2.607.782-2.607l.956 1.13ZM55.788 121.463s4.258 3.042 3.997 8.342l-3.128-.695c0 .087.956-5.822-.87-7.647Z"/><path fill="#160A5B" d="M54.137 203.581c-9.646.261-14.86-3.997-14.86-3.997 0-1.391-.086-2.26-.086-2.26l14.598-1.998 13.296 3.736s-.435 4.258-1.217 9.646c-2.346.261-4.692-5.561-4.692-5.561l-6.605.434c-.087-.087 9.211-.261-.434 0Z"/><path fill="#453C9E" d="M65.26 199.323s-21.03 8.603-31.196-7.734a3.251 3.251 0 0 1-.435-1.564l.087-3.823c0-.522-.087-.956-.174-1.391a5.166 5.166 0 0 1-.174-3.041c.782-4.258 2.955-15.815 3.39-18.944.608-3.91-1.478-19.552-4.954-26.329-3.476-6.692 5.388-21.638 5.388-21.638s2.172-3.476 6.43-2.259c0 0-4.084 2.867-1.825 5.822 2.26 3.041 8.864 5.388 8.864 5.388s12.252 6.343 16.51 14.164c0 0 1.478 3.997 1.564 9.124.087 5.127-.434 17.553-.26 19.291.174 1.738.869 13.556.782 14.077 0 .522-3.997 18.857-3.997 18.857Z"/><path fill="url(#s)" d="M65.26 199.323s-21.03 8.603-31.196-7.734a3.251 3.251 0 0 1-.435-1.564l.087-3.823c0-.522-.087-.956-.174-1.391a5.166 5.166 0 0 1-.174-3.041c.782-4.258 2.955-15.815 3.39-18.944.608-3.91-1.478-19.552-4.954-26.329-3.476-6.692 5.388-21.638 5.388-21.638s2.172-3.476 6.43-2.259c0 0-4.084 2.867-1.825 5.822 2.26 3.041 8.864 5.388 8.864 5.388s12.252 6.343 16.51 14.164c0 0 1.478 3.997 1.564 9.124.087 5.127-.434 17.553-.26 19.291.174 1.738.869 13.556.782 14.077 0 .522-3.997 18.857-3.997 18.857Z"/><path fill="url(#t)" d="M41.624 114.772c-.348-.869-.261-1.651.087-2.346.608 0 1.216 0 1.911.174 0 0-1.303.869-1.998 2.172Z"/><path fill="#24126A" d="M58.83 201.148s-12.427-33.455-11.819-45.621c.609-11.818 18.075 23.984 18.075 23.984l.087 19.812c.087 0-3.91 1.477-6.344 1.825Z"/><path fill="#4846A5" d="M65.52 161.61a64.94 64.94 0 0 1-.782-8.169c-.087-4.779-1.39-12.687-9.993-11.296-12.165 1.912-6.952 18.943-5.648 21.985 1.303 2.954 6.69 16.51 6.951 17.292.261.695 8.69 17.553 11.645 21.638.26.347.782.434 1.13.173 1.216-1.042 3.997-3.476 4.344-5.04.435-1.998-1.303-9.298-1.303-9.298s-4.78-18.248-5.127-19.03c-.26-.869-.521-3.824-1.217-8.255Z"/><path fill="#FCD1C5" d="M55.527 121.898s.956-2.172 3.215-2.433c2.26-.261 3.476-.869 3.737-1.651.26-.782.26-1.825.782-3.042.521-1.216.956-4.258.956-4.344 0-.087 1.651-.609 1.738-1.304.087-.782-.782-3.389-.695-3.65.087-.173 1.042-1.824.869-3.128-.087-1.303-.261-3.128-.956-4.692s-5.388-10.95-17.727-6.17c-12.426 4.953-2.955 15.381-4.171 22.159 0 0-1.13 1.39.956 3.823 2.085 2.52 7.907 3.042 11.296 4.432Z"/><path fill="#E2B1A6" d="M44.23 117.553c-1.998-2.433-.955-3.823-.955-3.823.174-.956.087-1.912 0-3.042l4.866.956s7.212-6.43 6.691-2.954c-.521 3.475 1.217 4.084 1.217 4.084l-1.478 1.911c-.347.522-.173 1.043.174 1.565 2.086 3.562 7.039 2.433 7.039 2.433-.608.434-1.651.695-3.042.869-2.259.26-3.215 2.433-3.215 2.433-3.389-1.477-9.21-1.999-11.296-4.432Z"/><path fill="#AA8383" d="M65.781 94.09s.869 2.521-.521 3.564c-1.39 1.043-2.694 2.085-2.694 2.085v3.215c0 .435-.174.956-.348 1.304l-1.738 2.694a3.13 3.13 0 0 0-.521 1.738v1.303c0 .348-.26.695-.695.782l-.435.087c-.434.087-.782-.261-.782-.695l-.174-1.825s-.956-1.477-2.954.261l-1.825.782c-.521.174-.869.608-1.13 1.129-.521 1.391-1.564 4.172-2.433 4.606-1.13.608-5.387-1.564-5.909-2.52-.608-.956-1.998-7.473-2.867-10.515-.87-3.04-.348-10.688 8.776-12.6 9.125-1.998 14.947 1.825 16.25 4.606Z"/><path fill="#936D6D" d="M43.622 112.6c-.608-.956-1.998-7.473-2.867-10.515 0 0 3.562 2.347 8.168 3.042 4.605.695 13.73-4.519 13.73-4.519v2.346c0 .435-.174.956-.348 1.304l-1.738 2.694a3.13 3.13 0 0 0-.521 1.738v1.303c0 .348-.26.695-.695.782l-.435.087c-.434.087-.782-.261-.782-.695l-.174-1.825s-.956-1.477-2.954.261l-2.607 1.042s-1.564 4.78-2.694 5.475c-1.303.608-5.561-1.564-6.083-2.52Z"/><path fill="#F0F6FF" d="M43.449 112.861s-3.563 2.172-1.825 5.3c1.825 3.129 14.685 8.69 15.38 9.559 0 0 .522-4.692-1.216-6.256 0 0-9.906-1.912-11.47-4.432-1.478-2.52-.87-4.171-.87-4.171Z"/><path fill="#C4CCD6" d="M43.449 112.861s-.609 1.651.955 4.171c1.13 1.912 7.126 3.476 9.907 4.171 0 0-1.043.608-2.781 3.563-3.997-2.086-8.777-4.693-9.82-6.518-1.824-3.128 1.739-5.387 1.739-5.387Z"/><path fill="#24126A" d="M41.015 122.854s5.736 3.302 8.603 4.779c2.78 1.477 5.91 3.476 5.91 3.476l1.042-1.043 1.303 2.868s4.432 2.694 6.518 4.866c2.085 2.259 3.65 5.127 3.91 5.822 0 0-5.561-7.212-9.906-9.385l-1.13-.608-.695-2.259-1.043 1.129c-.087-.087-12.774-7.647-14.512-9.645Z"/><path fill="#453C9E" d="M55.875 220.526c.173-.521.434-.956.782-1.217l23.636-19.899c.608-.521 1.216-.087 1.39.869l2.78 23.114c.088 1.043-.26 2.347-.955 2.955l-19.9 17.206.696 6.691-5.91-2.694c-.26-.174-.434-.522-.52-1.13l-2.26-24.244c0-.521.087-1.13.26-1.651Z"/><path fill="#453C9E" d="m86.723 201.669-5.561-2.433-.174-.087c-.174-.087-.435 0-.695.174l-23.636 19.899c-.348.261-.608.696-.782 1.217l.869.434 4.779 2.347 20.768-17.727 4.432-3.824Z"/><path fill="#24126A" d="m89.33 228.955-24.244 21.116c-.695.608-1.304.174-1.39-.956l-2.347-24.331c-.087-1.043.348-2.346.956-2.955l23.636-19.986c.608-.521 1.217-.087 1.39.869L90.2 226c.174 1.043-.26 2.433-.869 2.955Z"/><path fill="url(#u)" d="m89.33 228.955-24.244 21.116c-.695.608-1.304.174-1.39-.956l-2.347-24.331c-.087-1.043.348-2.346.956-2.955l23.636-19.986c.608-.521 1.217-.087 1.39.869L90.2 226c.174 1.043-.26 2.433-.869 2.955Z"/><path fill="#160A5B" d="m60.74 247.638-2.258-24.244c-.087-1.043.347-2.347.956-2.955l23.635-19.899c.174-.174.348-.261.522-.261-.26-.087-.522 0-.782.174l-23.636 19.899c-.608.522-1.13 1.825-.956 2.955l2.26 24.244c.086.782.347 1.216.781 1.303-.26-.087-.521-.608-.521-1.216Z"/><path fill="#160A5B" d="m69.344 211.923-1.217-.608c-.26-.174-.521-.174-.782-.174h-.087c-.087 0-.174.174-.174.348v.26l3.476 1.738v-.26a.94.94 0 0 0-.26-.609l-.087-.087a3.137 3.137 0 0 0-.87-.608Z"/><path fill="#160A5B" d="m68.91 214.965 1.737-1.478-3.476-2.172-1.65 1.39 3.388 2.26Z"/><path fill="url(#v)" d="m67.693 213.313-1.217-.608c-.26-.174-.521-.174-.782-.174h-.087c-.087 0-.174.174-.174.348v.261l3.476 1.738v-.261a.936.936 0 0 0-.26-.608l-.087-.087c-.261-.174-.609-.435-.87-.609Z"/><path fill="#722318" d="m66.998 213.922-.174-.956h.174l.086 1.043-.087-.087ZM66.824 212.966l1.738-1.391h.087l-1.651 1.391h-.174Z"/><path fill="#160A5B" d="m76.904 205.58-1.217-.609c-.26-.173-.521-.173-.782-.173h-.087c-.087 0-.174.173-.174.347v.261l3.476 1.738v-.261c0-.174-.087-.434-.26-.521l-.087-.087c-.348-.261-.608-.522-.87-.695Z"/><path fill="#160A5B" d="m76.47 208.621 1.65-1.477-3.476-2.173-1.564 1.391 3.39 2.259Z"/><path fill="url(#w)" d="m75.253 206.97-1.217-.608c-.26-.174-.521-.174-.782-.174h-.087c-.087 0-.174.174-.174.347v.261l3.476 1.738v-.261c0-.173-.087-.434-.26-.521l-.087-.087c-.348-.261-.609-.521-.87-.695Z"/><path fill="#722318" d="m74.47 207.578-.086-.956h.087l.173 1.043-.173-.087ZM74.384 206.622l1.738-1.39h.087l-1.738 1.39h-.087Z"/><path fill="#453C9E" d="m66.215 208.1.435 4.345 1.13-.956-.435-4.171c-.087-.609.26-1.391.695-1.738l4.78-3.998c.434-.347.869-.173.869.435l.434 4.171 1.13-.956-.522-4.258c-.173-1.303-1.042-1.738-1.998-.956l-5.127 4.258c-.87.695-1.564 2.433-1.39 3.824Z"/><path fill="#453C9E" d="m74.47 201.148-1.998-.174-5.735 5.388-.26 3.302.086 2.78 1.303.609v-3.476l.087-2.346 1.217-1.738s2.172-1.738 2.172-1.825c.087 0 3.129-2.52 3.129-2.52ZM75.427 206.709l-1.217-.608-.348-3.128 1.217.174h.348v3.562ZM75.427 200.279l-1.39-.695.347.782.434.174c.087-.087.609-.261.609-.261Z"/><path fill="#160A5B" d="m67.432 208.708.434 4.345 1.13-.956-.434-4.171c-.087-.609.26-1.391.695-1.738l4.78-3.997c.434-.348.868-.174.868.434l.435 4.171 1.13-.956-.522-4.258c-.174-1.303-1.043-1.738-1.999-.956l-5.127 4.258c-.869.782-1.477 2.52-1.39 3.824Z"/><path fill="#FCD1C5" d="M72.82 197.846s.782 4.258.608 5.301c-.26 1.042-2.26 3.128-3.476 3.475-1.216.348-.695-1.042-.956-1.998-.26-.869-.26-2.868-.26-2.868l4.084-3.91Z"/><path fill="#E2B1A6" d="m68.736 201.756 4.084-3.91s.173.869.347 1.912c0 0-1.564 3.128-4.345 4.344-.087-.955-.087-2.346-.087-2.346Z"/><path fill="#4846A5" d="M73.167 198.193s-1.477 4.519-5.127 4.953l1.217-4.953s3.041-.869 3.128-.869c.087 0 .782.869.782.869Z"/><path fill="url(#x)" d="M118.788 130.24c-3.91 3.997-14.164 9.298-17.379 6.17-3.216-3.128 1.911-13.469 5.822-17.466 3.91-3.998 9.645-4.693 12.861-1.565 3.128 3.129 2.606 8.864-1.304 12.861Z"/><path fill="url(#y)" d="M118.788 130.24c-3.91 3.997-14.164 9.298-17.379 6.17-3.216-3.128 1.911-13.469 5.822-17.466 3.91-3.998 9.645-4.693 12.861-1.565 3.128 3.129 2.606 8.864-1.304 12.861Z"/><path fill="#42E8E0" d="M119.223 119.465c-.261 0-.522-.087-.696-.174-.955-.434-1.39-1.477-1.042-2.433l5.822-13.817c.434-.956 1.477-1.39 2.433-1.042.956.434 1.39 1.477 1.043 2.433l-5.823 13.816c-.347.782-1.042 1.217-1.737 1.217ZM192.86 114.372l-3.464 1.402 12.031 29.724 3.464-1.402-12.031-29.724Z"/><path fill="url(#z)" d="M128.868 108.255c6.431 0 11.644-5.213 11.644-11.644 0-6.43-5.213-11.644-11.644-11.644s-11.644 5.213-11.644 11.644 5.213 11.644 11.644 11.644Z"/><path fill="url(#A)" d="M128.868 108.255c6.431 0 11.644-5.213 11.644-11.644 0-6.43-5.213-11.644-11.644-11.644s-11.644 5.213-11.644 11.644 5.213 11.644 11.644 11.644Z"/><path fill="url(#B)" d="M187.002 117.814c0 22.593-13.469 40.928-30.066 40.928s-30.066-18.335-30.066-40.928c0-22.593 13.469-29.371 30.066-29.371 16.51-.087 30.066 6.69 30.066 29.371Z"/><path fill="url(#C)" d="M187.002 117.814c0 22.593-13.469 40.928-30.066 40.928s-30.066-18.335-30.066-40.928c0-22.593 13.469-29.371 30.066-29.371 16.51-.087 30.066 6.69 30.066 29.371Z"/><path fill="#393091" d="M156.849 112.339c11.326 0 20.508-5.291 20.508-11.818 0-6.527-9.182-11.818-20.508-11.818-11.326 0-20.508 5.291-20.508 11.818 0 6.527 9.182 11.818 20.508 11.818Z"/><path fill="#42E8E0" d="M142.337 95.308c7.995-4.606 21.029-4.606 29.024 0 3.302 1.911 5.214 4.344 5.822 6.777.782-3.562-1.13-7.212-5.822-9.993-7.995-4.605-21.029-4.605-29.024 0-4.692 2.694-6.691 6.43-5.822 9.993.608-2.433 2.52-4.866 5.822-6.777Z"/><path fill="url(#D)" d="m133.126 72.367 3.737-6.43c2.172-2.26 3.91-5.301 4.779-8.343l3.737-6.517-5.388-3.128c-.174-.087-.348-.261-.521-.348-1.565-.695-3.563-.521-5.822.782-4.78 2.78-8.69 9.472-8.69 15.033 0 2.781.956 4.693 2.52 5.649l5.648 3.302Z"/><path fill="#BCBEFF" d="M145.345 65.3c3.383-5.86 3.397-12.186.031-14.13-3.367-1.943-8.839 1.232-12.222 7.092-3.383 5.86-3.397 12.186-.031 14.13 3.367 1.944 8.839-1.231 12.222-7.091Z"/><path fill="url(#E)" d="M158.066 102.954c16.941 0 30.674-13.733 30.674-30.674s-13.733-30.675-30.674-30.675c-16.942 0-30.675 13.734-30.675 30.675 0 16.941 13.733 30.674 30.675 30.674Z"/><path fill="url(#F)" d="M158.066 102.954c16.941 0 30.674-13.733 30.674-30.674s-13.733-30.675-30.674-30.675c-16.942 0-30.675 13.734-30.675 30.675 0 16.941 13.733 30.674 30.675 30.674Z"/><path fill="url(#G)" d="m175.271 92.961 3.737-6.43c2.172-2.26 3.91-5.3 4.779-8.342l3.737-6.517-5.388-3.129c-.174-.087-.348-.26-.521-.347-1.565-.696-3.563-.522-5.822.782-4.78 2.78-8.69 9.471-8.69 15.033 0 2.78.956 4.692 2.52 5.648l5.648 3.302Z"/><path fill="url(#H)" d="m175.271 92.961 3.737-6.43c2.172-2.26 3.91-5.3 4.779-8.342l3.737-6.517-5.388-3.129c-.174-.087-.348-.26-.521-.347-1.565-.696-3.563-.522-5.822.782-4.78 2.78-8.69 9.471-8.69 15.033 0 2.78.956 4.692 2.52 5.648l5.648 3.302Z"/><path fill="#BCBEFF" d="M189.957 77.407c0 5.561-3.911 12.252-8.69 15.033-4.779 2.78-8.69.521-8.69-5.04 0-5.562 3.911-12.253 8.69-15.033 4.866-2.78 8.69-.522 8.69 5.04Z"/><path fill="#fff" d="M173.099 87.4c0-5.562 3.91-12.253 8.689-15.033 1.651-.956 3.216-1.304 4.519-1.13-1.39-.348-3.128 0-4.953 1.043-4.779 2.78-8.69 9.472-8.69 15.033 0 3.65 1.651 5.822 4.171 6.17-2.259-.435-3.736-2.607-3.736-6.083Z"/><path fill="#393091" d="M185.692 84.858c2.424-4.198 2.434-8.73.024-10.121-2.411-1.392-6.33.883-8.753 5.08-2.424 4.198-2.434 8.73-.024 10.121 2.411 1.392 6.33-.883 8.753-5.08Z"/><path fill="#453C9E" d="M184.917 74.452c.608.782 1.043 1.912 1.043 3.302 0 3.91-2.781 8.777-6.17 10.689-1.304.782-2.52.955-3.563.782 1.13 1.303 3.041 1.477 5.214.26 3.389-1.998 6.17-6.778 6.17-10.688-.087-2.433-1.13-3.997-2.694-4.345Z"/><path fill="#393091" d="M144.911 92.532c3.988-1.66 4.903-8.572 2.044-15.44-2.859-6.867-8.409-11.089-12.396-9.429-3.988 1.66-4.903 8.573-2.044 15.44 2.859 6.868 8.409 11.09 12.396 9.43Z"/><path fill="#42E8E0" d="M144.51 81.578c-.261 2.172-1.912 2.867-3.737 1.564-1.738-1.304-2.954-4.171-2.694-6.43.261-2.173 1.912-2.868 3.737-1.565 1.738 1.304 2.954 4.171 2.694 6.43Z"/><path fill="#453C9E" d="M140.599 90.094c-4.866-3.737-8.081-11.558-7.299-17.64.348-2.434 1.303-4.258 2.607-5.214-2.52.26-4.432 2.346-4.953 6.083-.782 5.995 2.52 13.903 7.299 17.64 2.868 2.172 5.648 2.433 7.56.956-1.477.26-3.302-.348-5.214-1.825Z"/><path fill="#42E8E0" d="M138.688 90.789c-4.867-3.737-8.082-11.558-7.3-17.64.348-2.781 1.564-4.693 3.128-5.562-1.824.782-3.215 2.781-3.562 5.736-.782 5.995 2.52 13.903 7.299 17.64 2.607 1.998 5.127 2.346 7.039 1.303-1.825.869-4.171.434-6.604-1.477Z"/><path fill="url(#I)" d="M202.557 117.379c-1.217 6.344-7.386 10.428-13.73 9.211-6.343-1.216-10.428-7.386-9.211-13.729 1.217-6.344 7.386-10.428 13.73-9.211 6.343 1.216 10.427 7.386 9.211 13.729Z"/><path fill="url(#J)" d="M202.557 117.379c-1.217 6.344-7.386 10.428-13.73 9.211-6.343-1.216-10.428-7.386-9.211-13.729 1.217-6.344 7.386-10.428 13.73-9.211 6.343 1.216 10.427 7.386 9.211 13.729Z"/><path fill="url(#K)" d="M209.682 153.702c-.695 5.562-5.561 15.989-9.993 15.468-4.432-.521-6.691-11.905-6.083-17.38.696-5.561 4.78-9.558 9.211-9.037 4.519.522 7.561 5.388 6.865 10.949Z"/><path fill="url(#L)" d="M209.682 153.702c-.695 5.562-5.561 15.989-9.993 15.468-4.432-.521-6.691-11.905-6.083-17.38.696-5.561 4.78-9.558 9.211-9.037 4.519.522 7.561 5.388 6.865 10.949Z"/><g fill="#42E8E0" opacity=".5"><path d="M18.422 224.263c-1.13 9.211-5.909 14.685-10.949 7.82C1.043 223.307.434 214.617 0 209.49v-50.313c0 7.907 2.607 15.467 7.473 22.593 10.602 17.64 11.905 34.933 10.95 42.493ZM167.711 233.474c-3.997.087-7.994.174-11.992.087-31.63-.261-60.914-4.867-85.332-12.513-24.419-6.518-25.896 19.03-17.38 34.845 6.083 11.21 14.251 14.338 17.38 15.468 24.418 7.734 53.702 12.252 85.332 12.513 3.998 0 8.082 0 11.992-.087 28.676-2.085 36.236-29.632 22.767-42.579-3.736-3.65-10.688-7.908-22.767-7.734ZM316.913 193.327c-.174 21.724-1.39 25.722-3.041 30.675-6.691 15.815-24.158 29.892-48.576 40.32-21.376 6.344-27.285-15.902-18.596-32.326 5.909-11.209 15.12-16.076 18.596-17.9 24.418-10.428 41.798-24.505 48.576-40.321.521-1.042 1.216-2.433 1.825-3.389.173 0 .347-.086.521-.086.434 1.129.608 1.651.608 7.56v15.467h.087Z"/></g><path fill="#25BFEC" d="M55.875 50.208 10.167 23.791c-.869-.521-1.651-.521-2.172-.173l-1.912 1.13.956.173c-.174.435-.261.869-.261 1.477v21.29c0 2.52 1.564 5.475 3.389 6.517l18.509 10.689 3.65 10.514-1.304 3.129 1.999-1.13 4.345-7.473 18.509 10.688c.087.087.26.174.347.174l-.26 1.216 1.998-1.13c.782-.347 1.304-1.39 1.304-2.867v-21.29c0-2.52-1.565-5.474-3.39-6.517Z"/><path fill="#05A4C9" d="M53.79 51.338 8.167 25.008c-1.911-1.13-3.389.087-3.389 2.607v21.203c0 2.52 1.564 5.474 3.39 6.517l18.508 10.688 4.345 12.513 4.345-7.473 18.51 10.689c1.91 1.13 3.388-.087 3.388-2.607v-21.29c0-2.52-1.564-5.475-3.476-6.517Z"/><path fill="#fff" d="M29.371 57.16v-3.128c2.26-.956 3.476-2.434 3.476-4.606v-.26c0-.522-.174-1.043-.434-1.478-.261-.434-.609-.782-.956-.956-.348-.26-.695-.26-.87-.087-.173.174-.26.435-.26.782v.174c0 .348.087.782.174 1.303l-2.868-.955c-.174-.87-.26-1.478-.26-1.912v-.695c0-1.13.26-1.912.868-2.346.696-.522 1.739-.348 3.216.52 1.477.87 2.607 1.913 3.389 3.216a8.395 8.395 0 0 1 1.216 4.345c0 1.39-.347 2.52-1.042 3.476-.696.869-1.565 1.477-2.694 1.912v2.346L29.37 57.16Zm-.087 5.04v-3.476l3.129 1.825v3.476L29.284 62.2Z"/><path fill="#00AFA2" d="M308.832 26.746 263.211.416c-.869-.521-1.651-.521-2.173-.174l-1.911 1.13.955.174c-.173.434-.26.869-.26 1.477v21.29c0 2.52 1.564 5.474 3.389 6.517l18.509 10.688 3.649 10.515-1.303 3.128 1.999-1.13 4.345-7.473 18.509 10.689c.086.087.26.173.347.173l-.261 1.217 1.999-1.13c.782-.347 1.304-1.39 1.304-2.867V33.263c0-2.52-1.565-5.474-3.476-6.517Z"/><path fill="#42E8E0" d="m306.833 27.875-45.621-26.33c-1.912-1.129-3.389.088-3.389 2.608v21.29c0 2.52 1.564 5.474 3.389 6.517l18.509 10.688 4.345 12.513 4.345-7.473 18.509 10.688c1.912 1.13 3.389-.087 3.389-2.607V34.393c-.087-2.52-1.564-5.388-3.476-6.518Z"/><path fill="#fff" d="M283.371 38.564v-3.302l2.867 1.65v3.303l-2.867-1.651Zm.956-3.997-.869-14.686 3.041 1.738-1.043 13.556-1.129-.608Z"/><defs><linearGradient id="t" x1="43.504" x2="41.416" y1="113.687" y2="113.504" gradientUnits="userSpaceOnUse"><stop stop-color="#5761D7"/><stop offset=".073" stop-color="#5472D8"/><stop offset=".279" stop-color="#4E9CDB"/><stop offset=".48" stop-color="#49BDDD"/><stop offset=".671" stop-color="#45D5DF"/><stop offset=".849" stop-color="#43E3E0"/><stop offset="1" stop-color="#42E8E0"/></linearGradient><linearGradient id="a" x1="206.281" x2="106.708" y1="220.385" y2="220.385" gradientUnits="userSpaceOnUse"><stop stop-color="#5761D7"/><stop offset=".073" stop-color="#5472D8"/><stop offset=".279" stop-color="#4E9CDB"/><stop offset=".48" stop-color="#49BDDD"/><stop offset=".671" stop-color="#45D5DF"/><stop offset=".849" stop-color="#43E3E0"/><stop offset="1" stop-color="#42E8E0"/></linearGradient><linearGradient id="c" x1="206.281" x2="106.708" y1="205.065" y2="205.065" gradientUnits="userSpaceOnUse"><stop stop-color="#5761D7"/><stop offset=".073" stop-color="#5472D8"/><stop offset=".279" stop-color="#4E9CDB"/><stop offset=".48" stop-color="#49BDDD"/><stop offset=".671" stop-color="#45D5DF"/><stop offset=".849" stop-color="#43E3E0"/><stop offset="1" stop-color="#42E8E0"/></linearGradient><linearGradient id="d" x1="206.281" x2="106.708" y1="197.406" y2="197.406" gradientUnits="userSpaceOnUse"><stop stop-color="#5761D7"/><stop offset=".073" stop-color="#5472D8"/><stop offset=".279" stop-color="#4E9CDB"/><stop offset=".48" stop-color="#49BDDD"/><stop offset=".671" stop-color="#45D5DF"/><stop offset=".849" stop-color="#43E3E0"/><stop offset="1" stop-color="#42E8E0"/></linearGradient><linearGradient id="e" x1="206.281" x2="106.708" y1="208.895" y2="208.895" gradientUnits="userSpaceOnUse"><stop stop-color="#5761D7"/><stop offset=".073" stop-color="#5472D8"/><stop offset=".279" stop-color="#4E9CDB"/><stop offset=".48" stop-color="#49BDDD"/><stop offset=".671" stop-color="#45D5DF"/><stop offset=".849" stop-color="#43E3E0"/><stop offset="1" stop-color="#42E8E0"/></linearGradient><linearGradient id="f" x1="216.863" x2="96.126" y1="184.404" y2="184.404" gradientUnits="userSpaceOnUse"><stop stop-color="#5761D7"/><stop offset=".073" stop-color="#5472D8"/><stop offset=".279" stop-color="#4E9CDB"/><stop offset=".48" stop-color="#49BDDD"/><stop offset=".671" stop-color="#45D5DF"/><stop offset=".849" stop-color="#43E3E0"/><stop offset="1" stop-color="#42E8E0"/></linearGradient><linearGradient id="g" x1="216.863" x2="96.126" y1="175.117" y2="175.117" gradientUnits="userSpaceOnUse"><stop stop-color="#5761D7"/><stop offset=".073" stop-color="#5472D8"/><stop offset=".279" stop-color="#4E9CDB"/><stop offset=".48" stop-color="#49BDDD"/><stop offset=".671" stop-color="#45D5DF"/><stop offset=".849" stop-color="#43E3E0"/><stop offset="1" stop-color="#42E8E0"/></linearGradient><linearGradient id="h" x1="216.863" x2="96.126" y1="165.829" y2="165.829" gradientUnits="userSpaceOnUse"><stop stop-color="#5761D7"/><stop offset=".073" stop-color="#5472D8"/><stop offset=".279" stop-color="#4E9CDB"/><stop offset=".48" stop-color="#49BDDD"/><stop offset=".671" stop-color="#45D5DF"/><stop offset=".849" stop-color="#43E3E0"/><stop offset="1" stop-color="#42E8E0"/></linearGradient><linearGradient id="i" x1="216.863" x2="96.126" y1="156.541" y2="156.541" gradientUnits="userSpaceOnUse"><stop stop-color="#5761D7"/><stop offset=".073" stop-color="#5472D8"/><stop offset=".279" stop-color="#4E9CDB"/><stop offset=".48" stop-color="#49BDDD"/><stop offset=".671" stop-color="#45D5DF"/><stop offset=".849" stop-color="#43E3E0"/><stop offset="1" stop-color="#42E8E0"/></linearGradient><linearGradient id="j" x1="216.863" x2="96.126" y1="170.473" y2="170.473" gradientUnits="userSpaceOnUse"><stop stop-color="#5761D7"/><stop offset=".073" stop-color="#5472D8"/><stop offset=".279" stop-color="#4E9CDB"/><stop offset=".48" stop-color="#49BDDD"/><stop offset=".671" stop-color="#45D5DF"/><stop offset=".849" stop-color="#43E3E0"/><stop offset="1" stop-color="#42E8E0"/></linearGradient><linearGradient id="k" x1="216.863" x2="96.126" y1="156.541" y2="156.541" gradientUnits="userSpaceOnUse"><stop stop-color="#5761D7"/><stop offset=".073" stop-color="#5472D8"/><stop offset=".279" stop-color="#4E9CDB"/><stop offset=".48" stop-color="#49BDDD"/><stop offset=".671" stop-color="#45D5DF"/><stop offset=".849" stop-color="#43E3E0"/><stop offset="1" stop-color="#42E8E0"/></linearGradient><linearGradient id="l" x1="216.862" x2="96.126" y1="173.281" y2="173.281" gradientUnits="userSpaceOnUse"><stop stop-color="#5761D7"/><stop offset=".073" stop-color="#5472D8"/><stop offset=".279" stop-color="#4E9CDB"/><stop offset=".48" stop-color="#49BDDD"/><stop offset=".671" stop-color="#45D5DF"/><stop offset=".849" stop-color="#43E3E0"/><stop offset="1" stop-color="#42E8E0"/></linearGradient><linearGradient id="m" x1="214.66" x2="270.012" y1="154.393" y2="168.278" gradientUnits="userSpaceOnUse"><stop stop-color="#42E8E0"/><stop offset=".005" stop-color="#42E6DF"/><stop offset=".136" stop-color="#40B6CB"/><stop offset=".271" stop-color="#3E8DB9"/><stop offset=".407" stop-color="#3C6BAA"/><stop offset=".547" stop-color="#3B519F"/><stop offset=".689" stop-color="#3A3F97"/><stop offset=".838" stop-color="#393493"/><stop offset="1" stop-color="#393091"/></linearGradient><linearGradient id="n" x1="213.109" x2="262.718" y1="113.322" y2="105.239" gradientUnits="userSpaceOnUse"><stop stop-color="#42E8E0"/><stop offset=".005" stop-color="#42E6DF"/><stop offset=".136" stop-color="#40B6CB"/><stop offset=".271" stop-color="#3E8DB9"/><stop offset=".407" stop-color="#3C6BAA"/><stop offset=".547" stop-color="#3B519F"/><stop offset=".689" stop-color="#3A3F97"/><stop offset=".838" stop-color="#393493"/><stop offset="1" stop-color="#393091"/></linearGradient><linearGradient id="o" x1="225.248" x2="237.967" y1="134.646" y2="135.384" gradientUnits="userSpaceOnUse"><stop stop-color="#5761D7"/><stop offset=".073" stop-color="#5472D8"/><stop offset=".279" stop-color="#4E9CDB"/><stop offset=".48" stop-color="#49BDDD"/><stop offset=".671" stop-color="#45D5DF"/><stop offset=".849" stop-color="#43E3E0"/><stop offset="1" stop-color="#42E8E0"/></linearGradient><linearGradient id="p" x1="210.278" x2="234.208" y1="108.73" y2="97.103" gradientUnits="userSpaceOnUse"><stop stop-color="#42E8E0"/><stop offset=".005" stop-color="#42E6DF"/><stop offset=".136" stop-color="#40B6CB"/><stop offset=".271" stop-color="#3E8DB9"/><stop offset=".407" stop-color="#3C6BAA"/><stop offset=".547" stop-color="#3B519F"/><stop offset=".689" stop-color="#3A3F97"/><stop offset=".838" stop-color="#393493"/><stop offset="1" stop-color="#393091"/></linearGradient><linearGradient id="q" x1="223.983" x2="266.112" y1="119.275" y2="102.588" gradientUnits="userSpaceOnUse"><stop stop-color="#42E8E0"/><stop offset=".005" stop-color="#42E6DF"/><stop offset=".136" stop-color="#40B6CB"/><stop offset=".271" stop-color="#3E8DB9"/><stop offset=".407" stop-color="#3C6BAA"/><stop offset=".547" stop-color="#3B519F"/><stop offset=".689" stop-color="#3A3F97"/><stop offset=".838" stop-color="#393493"/><stop offset="1" stop-color="#393091"/></linearGradient><linearGradient id="r" x1="82.869" x2="36.31" y1="213.831" y2="232.775" gradientUnits="userSpaceOnUse"><stop stop-color="#42E8E0"/><stop offset=".005" stop-color="#42E6DF"/><stop offset=".136" stop-color="#40B6CB"/><stop offset=".271" stop-color="#3E8DB9"/><stop offset=".407" stop-color="#3C6BAA"/><stop offset=".547" stop-color="#3B519F"/><stop offset=".689" stop-color="#3A3F97"/><stop offset=".838" stop-color="#393493"/><stop offset="1" stop-color="#393091"/></linearGradient><linearGradient id="s" x1="79.332" x2="29.539" y1="150.561" y2="161.03" gradientUnits="userSpaceOnUse"><stop stop-color="#42E8E0"/><stop offset=".005" stop-color="#42E6DF"/><stop offset=".136" stop-color="#40B6CB"/><stop offset=".271" stop-color="#3E8DB9"/><stop offset=".407" stop-color="#3C6BAA"/><stop offset=".547" stop-color="#3B519F"/><stop offset=".689" stop-color="#3A3F97"/><stop offset=".838" stop-color="#393493"/><stop offset="1" stop-color="#393091"/></linearGradient><linearGradient id="b" x1="206.281" x2="106.708" y1="212.725" y2="212.725" gradientUnits="userSpaceOnUse"><stop stop-color="#5761D7"/><stop offset=".073" stop-color="#5472D8"/><stop offset=".279" stop-color="#4E9CDB"/><stop offset=".48" stop-color="#49BDDD"/><stop offset=".671" stop-color="#45D5DF"/><stop offset=".849" stop-color="#43E3E0"/><stop offset="1" stop-color="#42E8E0"/></linearGradient><linearGradient id="u" x1="114.735" x2="67.174" y1="208.518" y2="229.68" gradientUnits="userSpaceOnUse"><stop stop-color="#42E8E0"/><stop offset=".107" stop-color="#40C1CF"/><stop offset=".255" stop-color="#3E91BB"/><stop offset=".396" stop-color="#3C6CAB"/><stop offset=".526" stop-color="#3B519F"/><stop offset=".642" stop-color="#3A4198"/><stop offset=".73" stop-color="#3A3B96"/><stop offset=".839" stop-color="#393493"/><stop offset="1" stop-color="#393091"/></linearGradient><linearGradient id="v" x1="69.025" x2="65.358" y1="213.9" y2="213.578" gradientUnits="userSpaceOnUse"><stop stop-color="#5761D7"/><stop offset=".073" stop-color="#5472D8"/><stop offset=".279" stop-color="#4E9CDB"/><stop offset=".48" stop-color="#49BDDD"/><stop offset=".671" stop-color="#45D5DF"/><stop offset=".849" stop-color="#43E3E0"/><stop offset="1" stop-color="#42E8E0"/></linearGradient><linearGradient id="w" x1="76.569" x2="72.911" y1="207.552" y2="207.232" gradientUnits="userSpaceOnUse"><stop stop-color="#5761D7"/><stop offset=".073" stop-color="#5472D8"/><stop offset=".279" stop-color="#4E9CDB"/><stop offset=".48" stop-color="#49BDDD"/><stop offset=".671" stop-color="#45D5DF"/><stop offset=".849" stop-color="#43E3E0"/><stop offset="1" stop-color="#42E8E0"/></linearGradient><linearGradient id="J" x1="181.68" x2="200.539" y1="121.928" y2="108.225" gradientUnits="userSpaceOnUse"><stop stop-color="#42E8E0"/><stop offset=".005" stop-color="#42E6DF"/><stop offset=".136" stop-color="#40B6CB"/><stop offset=".271" stop-color="#3E8DB9"/><stop offset=".407" stop-color="#3C6BAA"/><stop offset=".547" stop-color="#3B519F"/><stop offset=".689" stop-color="#3A3F97"/><stop offset=".838" stop-color="#393493"/><stop offset="1" stop-color="#393091"/></linearGradient><linearGradient id="y" x1="121.655" x2="103.256" y1="123.265" y2="124.057" gradientUnits="userSpaceOnUse"><stop stop-color="#42E8E0"/><stop offset=".005" stop-color="#42E6DF"/><stop offset=".136" stop-color="#40B6CB"/><stop offset=".271" stop-color="#3E8DB9"/><stop offset=".407" stop-color="#3C6BAA"/><stop offset=".547" stop-color="#3B519F"/><stop offset=".689" stop-color="#3A3F97"/><stop offset=".838" stop-color="#393493"/><stop offset="1" stop-color="#393091"/></linearGradient><linearGradient id="H" x1="171.841" x2="180.498" y1="91.763" y2="67.978" gradientUnits="userSpaceOnUse"><stop stop-color="#42E8E0"/><stop offset=".005" stop-color="#42E6DF"/><stop offset=".136" stop-color="#40B6CB"/><stop offset=".271" stop-color="#3E8DB9"/><stop offset=".407" stop-color="#3C6BAA"/><stop offset=".547" stop-color="#3B519F"/><stop offset=".689" stop-color="#3A3F97"/><stop offset=".838" stop-color="#393493"/><stop offset="1" stop-color="#393091"/></linearGradient><linearGradient id="A" x1="122.574" x2="135.098" y1="106.452" y2="86.79" gradientUnits="userSpaceOnUse"><stop stop-color="#42E8E0"/><stop offset=".005" stop-color="#42E6DF"/><stop offset=".136" stop-color="#40B6CB"/><stop offset=".271" stop-color="#3E8DB9"/><stop offset=".407" stop-color="#3C6BAA"/><stop offset=".547" stop-color="#3B519F"/><stop offset=".689" stop-color="#3A3F97"/><stop offset=".838" stop-color="#393493"/><stop offset="1" stop-color="#393091"/></linearGradient><linearGradient id="F" x1="153.79" x2="162.334" y1="102.641" y2="41.844" gradientUnits="userSpaceOnUse"><stop stop-color="#42E8E0"/><stop offset=".005" stop-color="#42E6DF"/><stop offset=".136" stop-color="#40B6CB"/><stop offset=".271" stop-color="#3E8DB9"/><stop offset=".407" stop-color="#3C6BAA"/><stop offset=".547" stop-color="#3B519F"/><stop offset=".689" stop-color="#3A3F97"/><stop offset=".838" stop-color="#393493"/><stop offset="1" stop-color="#393091"/></linearGradient><linearGradient id="C" x1="156.868" x2="156.868" y1="158.754" y2="88.381" gradientUnits="userSpaceOnUse"><stop stop-color="#42E8E0"/><stop offset=".005" stop-color="#42E6DF"/><stop offset=".136" stop-color="#40B6CB"/><stop offset=".271" stop-color="#3E8DB9"/><stop offset=".407" stop-color="#3C6BAA"/><stop offset=".547" stop-color="#3B519F"/><stop offset=".689" stop-color="#3A3F97"/><stop offset=".838" stop-color="#393493"/><stop offset="1" stop-color="#393091"/></linearGradient><linearGradient id="L" x1="193.284" x2="209.316" y1="154.997" y2="156.909" gradientUnits="userSpaceOnUse"><stop stop-color="#42E8E0"/><stop offset=".005" stop-color="#42E6DF"/><stop offset=".136" stop-color="#40B6CB"/><stop offset=".271" stop-color="#3E8DB9"/><stop offset=".407" stop-color="#3C6BAA"/><stop offset=".547" stop-color="#3B519F"/><stop offset=".689" stop-color="#3A3F97"/><stop offset=".838" stop-color="#393493"/><stop offset="1" stop-color="#393091"/></linearGradient><radialGradient id="D" cx="0" cy="0" r="1" gradientTransform="translate(126.567 24.6) scale(36.4205)" gradientUnits="userSpaceOnUse"><stop stop-color="#C0BFF6"/><stop offset="1" stop-color="#393091"/></radialGradient><radialGradient id="E" cx="0" cy="0" r="1" gradientTransform="matrix(51.8769 0 0 51.877 177.216 67.695)" gradientUnits="userSpaceOnUse"><stop stop-color="#C0BFF6"/><stop offset="1" stop-color="#393091"/></radialGradient><radialGradient id="B" cx="0" cy="0" r="1" gradientTransform="matrix(51.7185 0 0 70.4025 174.624 111.648)" gradientUnits="userSpaceOnUse"><stop stop-color="#C0BFF6"/><stop offset="1" stop-color="#393091"/></radialGradient><radialGradient id="G" cx="0" cy="0" r="1" gradientTransform="translate(176.801 67.143) scale(24.6367)" gradientUnits="userSpaceOnUse"><stop stop-color="#C0BFF6"/><stop offset="1" stop-color="#393091"/></radialGradient><radialGradient id="z" cx="0" cy="0" r="1" gradientTransform="rotate(11.198 -210.59 971.166) scale(67.2826)" gradientUnits="userSpaceOnUse"><stop stop-color="#C0BFF6"/><stop offset="1" stop-color="#393091"/></radialGradient><radialGradient id="I" cx="0" cy="0" r="1" gradientTransform="matrix(23.85457 4.7223 -4.72228 23.85448 198.016 107.469)" gradientUnits="userSpaceOnUse"><stop stop-color="#C0BFF6"/><stop offset="1" stop-color="#393091"/></radialGradient><radialGradient id="x" cx="0" cy="0" r="1" gradientTransform="rotate(44.404 -73.891 213.787) scale(20.6728 34.0543)" gradientUnits="userSpaceOnUse"><stop stop-color="#C0BFF6"/><stop offset="1" stop-color="#393091"/></radialGradient><radialGradient id="K" cx="0" cy="0" r="1" gradientTransform="matrix(20.52716 2.44875 -4.03379 33.81405 212.723 144.498)" gradientUnits="userSpaceOnUse"><stop stop-color="#C0BFF6"/><stop offset="1" stop-color="#393091"/></radialGradient></defs></svg>