<svg xmlns="http://www.w3.org/2000/svg" width="346" height="283" fill="none"><path fill="#20293A" d="M36.04 67.262c0-7.965 6.454-14.42 14.416-14.42h243.262c7.962 0 14.417 6.456 14.417 14.42v161.506c0 7.964-6.455 14.42-14.417 14.42H50.456c-7.962 0-14.417-6.456-14.417-14.42V67.262Z"/><g filter="url(#a)"><path fill="#2096EC" fill-opacity=".14" d="M99.699 108.664c-5.632-5.631-5.632-14.758 0-20.388l78.106-78.082c5.632-5.63 14.763-5.63 20.394 0L335.8 147.758c5.631 5.63 5.631 14.758-.001 20.388l-78.106 78.081c-5.632 5.63-14.762 5.63-20.394 0l-137.6-137.563Z"/></g><g fill-rule="evenodd" clip-rule="evenodd" filter="url(#b)"><path fill="#fff" d="M178.23 10.619 100.124 88.7c-5.397 5.396-5.397 14.143 0 19.539l137.6 137.563c5.397 5.396 14.147 5.396 19.544.001l78.107-78.082c5.397-5.395 5.397-14.143 0-19.539L197.774 10.619c-5.397-5.396-14.147-5.396-19.544 0ZM99.699 88.276c-5.632 5.63-5.632 14.757 0 20.388l137.6 137.563c5.632 5.63 14.762 5.63 20.394 0l78.106-78.081c5.632-5.63 5.632-14.758.001-20.388L198.199 10.194c-5.631-5.63-14.762-5.63-20.394 0L99.699 88.276Z"/><path fill="url(#c)" d="M178.23 10.619 100.124 88.7c-5.397 5.396-5.397 14.143 0 19.539l137.6 137.563c5.397 5.396 14.147 5.396 19.544.001l78.107-78.082c5.397-5.395 5.397-14.143 0-19.539L197.774 10.619c-5.397-5.396-14.147-5.396-19.544 0ZM99.699 88.276c-5.632 5.63-5.632 14.757 0 20.388l137.6 137.563c5.632 5.63 14.762 5.63 20.394 0l78.106-78.081c5.632-5.63 5.632-14.758.001-20.388L198.199 10.194c-5.631-5.63-14.762-5.63-20.394 0L99.699 88.276Z"/></g><path fill="#F4F7FE" d="M258.66 119.353a.21.21 0 0 1-.066-.136.212.212 0 0 1 .066-.137l3.331-3.33-1.749-.226a.192.192 0 0 1-.125-.054c-.035-.035-.049-.089-.041-.16l.041-.351a.2.2 0 0 1 .054-.113.183.183 0 0 1 .172-.053l2.296.297a.397.397 0 0 1 .197.113l.303.303c.04.04.057.085.053.137a.168.168 0 0 1-.053.137l-3.89 3.889a.197.197 0 0 1-.143.059.184.184 0 0 1-.131-.059l-.315-.316ZM261.204 121.897a.215.215 0 0 1-.065-.137.218.218 0 0 1 .065-.137l3.331-3.33-1.749-.226a.191.191 0 0 1-.125-.053c-.035-.036-.049-.089-.041-.161l.041-.351a.197.197 0 0 1 .054-.112.185.185 0 0 1 .173-.054l2.296.297a.407.407 0 0 1 .196.113l.303.304c.04.039.058.085.054.136a.168.168 0 0 1-.054.137l-3.89 3.889a.194.194 0 0 1-.143.06.183.183 0 0 1-.131-.06l-.315-.315ZM262.642 123.334a.208.208 0 0 1-.065-.136.208.208 0 0 1 .065-.137l.428-.428c.04-.04.084-.06.131-.06.056 0 .103.02.143.06l.428.428c.04.039.06.087.06.143a.166.166 0 0 1-.054.136l-.428.428a.194.194 0 0 1-.143.06.214.214 0 0 1-.137-.066l-.428-.428ZM265.344 126.155c-.511-.512-.737-1.035-.678-1.57.06-.535.323-1.053.791-1.552.104-.111.274-.286.512-.523.246-.246.426-.423.541-.53.488-.463 1.002-.723 1.541-.779.543-.059 1.069.165 1.576.672.512.512.738 1.039.678 1.582-.055.539-.315 1.053-.779 1.54-.214.23-.389.412-.523.547-.131.131-.308.3-.53.506-.499.467-1.017.731-1.552.791-.536.059-1.061-.169-1.577-.684Zm.512-.512c.297.298.621.423.97.375.352-.044.713-.242 1.082-.595.238-.222.409-.384.512-.487.111-.111.269-.278.476-.5.348-.364.549-.723.6-1.076.052-.353-.073-.68-.374-.981-.298-.298-.625-.422-.982-.375-.353.052-.712.252-1.077.601l-.493.481-.494.506c-.353.369-.553.727-.601 1.076-.043.353.084.678.381.975ZM268.936 129.626a.212.212 0 0 1-.066-.137.21.21 0 0 1 .066-.136l3.331-3.33-1.749-.226a.19.19 0 0 1-.125-.054c-.036-.036-.049-.089-.042-.161l.042-.35a.197.197 0 0 1 .054-.113.183.183 0 0 1 .172-.054l2.296.297a.398.398 0 0 1 .196.113l.304.304a.168.168 0 0 1 .053.136.169.169 0 0 1-.053.137l-3.89 3.889a.196.196 0 0 1-.143.06.181.181 0 0 1-.131-.06l-.315-.315ZM270.374 131.064a.214.214 0 0 1-.066-.137.212.212 0 0 1 .066-.137l.428-.428c.04-.04.083-.06.131-.06.055 0 .103.02.143.06l.428.428c.039.04.059.087.059.143a.168.168 0 0 1-.053.136l-.428.429a.199.199 0 0 1-.143.059.215.215 0 0 1-.137-.065l-.428-.428ZM271.765 132.455a.218.218 0 0 1-.065-.137.215.215 0 0 1 .065-.137l.191-.19c.091-.091.228-.129.41-.113h2.522c.559.051.976.055 1.249.012.278-.048.506-.161.684-.339.23-.23.345-.476.345-.738.004-.257-.117-.509-.363-.755-.23-.23-.483-.345-.761-.345-.274-.004-.539.092-.797.286a.228.228 0 0 1-.167.047.22.22 0 0 1-.124-.065l-.31-.309a.196.196 0 0 1-.059-.119c0-.048.016-.087.047-.119a1.92 1.92 0 0 1 .786-.44c.305-.091.622-.095.951-.012.337.083.653.272.946.565.448.448.668.902.66 1.362 0 .459-.178.868-.535 1.225-.25.249-.539.412-.869.487-.321.076-.727.097-1.219.066l-2.302.017 1.856 1.856a.175.175 0 0 1 .059.142.166.166 0 0 1-.053.137l-.244.244a.193.193 0 0 1-.143.059.213.213 0 0 1-.137-.065l-2.623-2.622ZM276.654 137.461c-.511-.511-.737-1.035-.678-1.57.06-.535.323-1.052.791-1.552.103-.111.274-.285.512-.523a23.6 23.6 0 0 1 .541-.529c.488-.464 1.001-.724 1.541-.779.543-.06 1.068.164 1.576.672.512.511.738 1.038.678 1.581-.055.54-.315 1.053-.779 1.54-.214.23-.389.413-.524.548-.13.13-.307.299-.529.505-.5.468-1.017.731-1.552.791-.536.059-1.061-.169-1.577-.684Zm.512-.511c.297.297.62.422.969.374.353-.043.714-.242 1.083-.594.238-.222.408-.385.512-.488.111-.111.269-.277.475-.499.349-.365.55-.724.601-1.077.052-.353-.073-.68-.375-.981-.297-.297-.624-.422-.981-.375-.353.052-.712.252-1.077.601l-.493.482-.494.505c-.353.369-.553.728-.601 1.076-.043.353.083.678.381.976ZM279.032 139.719a.213.213 0 0 1-.065-.136.213.213 0 0 1 .065-.137l.191-.191c.091-.091.228-.128.41-.113h2.522c.559.052.976.056 1.249.012.278-.047.506-.16.684-.339.23-.229.345-.475.345-.737.004-.258-.117-.509-.363-.755-.23-.23-.483-.345-.761-.345-.274-.004-.539.091-.797.285a.226.226 0 0 1-.167.048.233.233 0 0 1-.125-.065l-.309-.31a.186.186 0 0 1-.059-.119c0-.047.016-.087.047-.118.222-.207.484-.353.785-.441.306-.091.623-.095.952-.011.337.083.652.271.946.564.448.448.668.902.66 1.362 0 .46-.178.868-.535 1.225a1.77 1.77 0 0 1-.869.488c-.321.075-.727.097-1.219.065l-2.302.018 1.856 1.855a.18.18 0 0 1 .059.143.17.17 0 0 1-.053.137l-.244.244a.197.197 0 0 1-.143.059.218.218 0 0 1-.137-.065l-2.623-2.623ZM283.921 144.726c-.511-.512-.737-1.035-.678-1.57.06-.535.323-1.053.791-1.552.103-.111.274-.286.512-.523.246-.246.426-.423.541-.53.488-.464 1.001-.723 1.541-.779.543-.059 1.068.165 1.576.672.511.512.738 1.039.678 1.582-.055.539-.315 1.052-.779 1.54-.214.23-.389.412-.524.547-.131.131-.307.299-.529.506-.5.467-1.017.731-1.553.79-.535.06-1.06-.168-1.576-.683Zm.512-.512c.297.298.62.422.969.375.353-.044.714-.242 1.083-.595.238-.222.408-.384.511-.487.111-.111.27-.278.476-.5.349-.365.55-.723.601-1.076.052-.353-.073-.68-.375-.981-.297-.298-.624-.423-.981-.375-.353.052-.712.252-1.077.601l-.493.481-.494.506c-.353.368-.553.727-.601 1.076-.044.353.083.678.381.975ZM291.887 152.57a.214.214 0 0 1-.066-.137.212.212 0 0 1 .066-.137l3.331-3.33-1.749-.226a.194.194 0 0 1-.125-.053c-.036-.036-.05-.09-.042-.161l.042-.351a.188.188 0 0 1 .226-.166l2.296.297a.402.402 0 0 1 .196.113l.304.303c.039.04.057.086.053.137a.17.17 0 0 1-.053.137l-3.891 3.889a.195.195 0 0 1-.142.059.184.184 0 0 1-.131-.059l-.315-.315ZM293.217 153.9a.215.215 0 0 1-.065-.137.213.213 0 0 1 .065-.136l.191-.191c.091-.091.228-.129.41-.113h2.522c.559.052.976.056 1.249.012.278-.047.506-.16.684-.339.23-.23.345-.475.345-.737.004-.258-.117-.51-.362-.755-.23-.23-.484-.345-.762-.345-.273-.004-.539.091-.797.285a.224.224 0 0 1-.166.048.222.222 0 0 1-.125-.066l-.31-.309a.193.193 0 0 1-.059-.119c0-.047.016-.087.048-.119.222-.206.483-.353.785-.44.305-.091.622-.095.951-.012.337.084.653.272.946.565.448.448.668.902.66 1.362 0 .46-.178.868-.535 1.225-.25.25-.539.412-.868.488-.322.075-.728.097-1.22.065l-2.302.018 1.856 1.855c.044.044.064.091.06.143a.169.169 0 0 1-.054.137l-.244.243a.193.193 0 0 1-.143.06.21.21 0 0 1-.136-.066l-2.624-2.622ZM298.909 155.428a.215.215 0 0 1-.065-.137.215.215 0 0 1 .065-.137l.417-.416a.179.179 0 0 1 .131-.059c.055 0 .103.019.142.059l.429.428a.17.17 0 0 1 .053.137.171.171 0 0 1-.053.137l-.417.416a.191.191 0 0 1-.142.059.179.179 0 0 1-.131-.059l-.429-.428Zm-2.081 2.081a.212.212 0 0 1-.066-.137.214.214 0 0 1 .066-.137l.416-.416a.184.184 0 0 1 .131-.059c.055 0 .103.02.143.059l.428.428c.039.04.057.086.053.137a.17.17 0 0 1-.053.137l-.417.416a.192.192 0 0 1-.142.06.18.18 0 0 1-.131-.06l-.428-.428ZM298.23 158.912a.218.218 0 0 1-.065-.137.215.215 0 0 1 .065-.137l.191-.19c.091-.091.228-.129.41-.113h2.522c.559.051.976.055 1.249.012.278-.048.506-.161.685-.339.23-.23.345-.476.345-.738.003-.257-.117-.509-.363-.755-.23-.23-.484-.345-.762-.345-.273-.004-.539.091-.797.286a.227.227 0 0 1-.166.047.22.22 0 0 1-.125-.065l-.31-.309a.196.196 0 0 1-.059-.119c0-.048.016-.088.048-.119.222-.206.483-.353.785-.44.305-.091.622-.095.951-.012.338.083.653.271.946.565.448.448.668.902.66 1.361 0 .46-.178.869-.535 1.225-.25.25-.539.413-.868.488-.322.075-.728.097-1.22.065l-2.302.018 1.856 1.856a.176.176 0 0 1 .06.142.168.168 0 0 1-.054.137l-.244.244a.192.192 0 0 1-.143.059.208.208 0 0 1-.136-.065l-2.624-2.622ZM303.119 163.918c-.511-.511-.737-1.035-.678-1.57.06-.535.324-1.052.791-1.552.104-.111.274-.285.512-.523a23.6 23.6 0 0 1 .541-.529c.488-.464 1.002-.724 1.541-.779.543-.06 1.069.164 1.576.671.512.512.738 1.039.678 1.582-.055.539-.315 1.053-.779 1.54-.214.23-.389.413-.523.547-.131.131-.308.3-.53.506-.499.468-1.017.731-1.552.791-.536.059-1.061-.169-1.577-.684Zm.512-.511c.297.297.621.422.97.374.353-.043.713-.242 1.082-.594.238-.222.409-.385.512-.488.111-.111.269-.278.476-.5.349-.364.549-.723.6-1.076.052-.353-.073-.68-.374-.981-.298-.297-.625-.422-.982-.375-.353.052-.712.252-1.076.601l-.494.482-.494.505c-.353.369-.553.727-.601 1.076-.043.353.084.678.381.976Z"/><path fill="#fff" d="M128.053 108.528a.576.576 0 0 1-.168-.383.574.574 0 0 1 .168-.382l1.728-1.728-4.757-4.755a.528.528 0 0 1-.168-.383c0-.142.056-.27.168-.382l1.454-1.452c.152-.153.367-.255.642-.306l10.477-1.575a.984.984 0 0 1 .826.306l2.234 2.232c.112.112.168.24.168.382a.528.528 0 0 1-.168.383l-5.935 5.932 1.346 1.346a.52.52 0 0 1 .168.413.5.5 0 0 1-.153.367l-1.514 1.514a.528.528 0 0 1-.383.168.528.528 0 0 1-.382-.168l-1.361-1.361-1.729 1.728a.574.574 0 0 1-.382.168.526.526 0 0 1-.382-.168l-1.897-1.896Zm3.962-4.603 3.609-3.609-6.179 1.04 2.57 2.569ZM134.327 114.8a.44.44 0 0 1-.137-.321.516.516 0 0 1 .153-.337.437.437 0 0 1 .168-.107l11.456-4.388-4.573-4.572a.604.604 0 0 1-.184-.398.604.604 0 0 1 .184-.397l1.529-1.529a.53.53 0 0 1 .383-.168.6.6 0 0 1 .397.183l7.143 7.141a.553.553 0 0 1 .184.397.528.528 0 0 1-.168.383l-1.362 1.361c-.214.214-.499.387-.856.519l-11.441 4.374c-.357.132-.658.076-.903-.169l-1.973-1.972ZM145.971 126.746c-1.397-1.417-2.091-2.855-2.08-4.312.02-1.468.601-2.834 1.743-4.098a58.083 58.083 0 0 1 1.438-1.499c.439-.438.954-.932 1.545-1.483.806-.724 1.667-1.218 2.585-1.483.938-.265 1.902-.25 2.891.046.999.285 1.963.892 2.891 1.819 1.366 1.387 2.054 2.819 2.065 4.297.01 1.478-.546 2.839-1.668 4.083a60.342 60.342 0 0 1-1.483 1.544 58.12 58.12 0 0 1-1.499 1.437c-1.275 1.132-2.646 1.708-4.115 1.728-1.458.01-2.896-.683-4.313-2.079Zm2.218-2.217c.499.499 1.035.708 1.606.626.591-.081 1.198-.412 1.82-.993.316-.276.8-.74 1.453-1.392.653-.652 1.106-1.126 1.361-1.422.561-.601.887-1.193.979-1.774.092-.581-.112-1.131-.612-1.651-.509-.489-1.06-.693-1.651-.612-.582.092-1.173.418-1.775.979-.285.265-.754.724-1.407 1.376a64.436 64.436 0 0 0-1.407 1.437c-1.214 1.315-1.336 2.457-.367 3.426ZM153.476 133.943a.603.603 0 0 1-.183-.398c0-.142.056-.27.168-.382l1.407-1.407-1.132-1.131a.576.576 0 0 1-.168-.383.576.576 0 0 1 .168-.382l.581-.581a.53.53 0 0 1 .383-.168c.143 0 .27.056.382.168l1.132 1.132.78-.78-1.132-1.132a.574.574 0 0 1-.168-.382.574.574 0 0 1 .168-.382l1.163-1.162a.526.526 0 0 1 .382-.168c.153.01.281.066.383.168l1.131 1.131 4.482-4.48a.528.528 0 0 1 .382-.168c.153.01.286.071.398.183l4.283 4.282c1.305 1.305 2.029 2.63 2.172 3.975.153 1.336-.352 2.584-1.514 3.747-1.081 1.08-2.269 1.524-3.564 1.33-1.275-.194-2.57-.948-3.885-2.263l-1.821-1.82-.78.78 2.05 2.049c.112.112.168.24.168.382a.53.53 0 0 1-.168.383l-.581.581a.576.576 0 0 1-.383.168.528.528 0 0 1-.382-.168l-2.05-2.049-1.407 1.406a.488.488 0 0 1-.397.153.528.528 0 0 1-.383-.168l-2.065-2.064Zm10.049-1.636c.449.448.908.683 1.377.703.489.021.959-.194 1.407-.642.418-.418.632-.867.643-1.346.02-.489-.209-.973-.689-1.452l-1.805-1.805-2.737 2.737 1.804 1.805ZM184.771 43.11c-.782-.782-1.187-1.59-1.215-2.422-.023-.827.317-1.62 1.019-2.378.148-.159.394-.41.74-.756.351-.352.609-.604.773-.756.753-.697 1.547-1.031 2.379-1.003.844.029 1.652.428 2.422 1.198.504.504.856 1.03 1.054 1.58.204.544.258 1.068.161 1.572-.09.498-.317.94-.68 1.325l-.017.017a.214.214 0 0 1-.178.06.253.253 0 0 1-.161-.077l-.808-.807c-.068-.068-.105-.133-.11-.196-.006-.062.02-.144.076-.246.267-.447.366-.847.298-1.198-.063-.357-.269-.71-.621-1.062-.815-.815-1.696-.784-2.642.094-.159.147-.397.38-.714.696-.317.318-.555.561-.714.731-.878.946-.909 1.826-.093 2.642.351.351.705.558 1.062.62.362.068.762-.031 1.198-.297.096-.063.176-.09.238-.085a.386.386 0 0 1 .204.119l.807.807c.051.05.077.11.077.178a.197.197 0 0 1-.077.178c-.385.363-.83.592-1.334.689-.499.09-1.023.036-1.572-.162-.544-.204-1.068-.558-1.572-1.062ZM189.62 47.786a.277.277 0 0 1-.085-.203c0-.08.028-.148.085-.204l3.314-3.313-1.386-1.385a.28.28 0 0 1-.085-.204c0-.08.032-.15.094-.212l.484-.484a.256.256 0 0 1 .204-.085c.08 0 .148.028.204.085l3.858 3.856a.295.295 0 0 1 .094.213.28.28 0 0 1-.085.204l-.485.484a.318.318 0 0 1-.212.093.294.294 0 0 1-.213-.093l-1.376-1.376-3.314 3.313a.28.28 0 0 1-.204.084.254.254 0 0 1-.204-.084l-.688-.689ZM194.644 52.98c-.663-.663-1.006-1.346-1.028-2.048-.017-.708.257-1.373.824-1.996l.365-.383.383-.365c.617-.56 1.283-.83 1.997-.807.713.023 1.396.36 2.048 1.011.651.651.988 1.334 1.011 2.047.022.714-.247 1.38-.807 1.996a8.187 8.187 0 0 1-.366.383 7.824 7.824 0 0 1-.382.365c-.623.566-1.289.841-1.997.824-.703-.023-1.385-.365-2.048-1.028Zm.841-.842c.3.3.626.44.977.416.357-.028.728-.218 1.114-.569.062-.05.175-.158.339-.322a5.55 5.55 0 0 0 .323-.34c.352-.385.539-.754.561-1.105.029-.356-.107-.685-.408-.985-.3-.3-.629-.436-.985-.408-.352.023-.72.21-1.105.56l-.34.324-.323.34c-.351.385-.541.755-.569 1.112-.023.351.116.677.416.977ZM206.87 56.197a.232.232 0 0 1 .068.17c.006.074-.011.13-.051.17l-4.079 4.077a.244.244 0 0 1-.178.077.26.26 0 0 1-.187-.085l-.731-.73a.258.258 0 0 1-.085-.188.274.274 0 0 1 .085-.17l2.379-2.378-2.583.764a.845.845 0 0 1-.272.034c-.068 0-.136-.034-.204-.102l-.28-.28a.324.324 0 0 1-.102-.204.677.677 0 0 1 .042-.263l.731-2.548-2.345 2.344a.246.246 0 0 1-.357 0l-.731-.73a.262.262 0 0 1-.085-.187c0-.068.026-.128.077-.179l4.079-4.077a.216.216 0 0 1 .161-.06.23.23 0 0 1 .17.068l.714.714c.096.096.122.218.076.365l-1.07 3.687 3.687-1.07c.148-.046.27-.02.366.076l.705.705ZM204.976 63.308a2.653 2.653 0 0 1-.629-.968 2.142 2.142 0 0 1-.093-1.045c.062-.334.212-.62.45-.858.386-.385.853-.54 1.402-.467.55.073 1.139.34 1.768.798l1.334.994.178-.178c.25-.25.374-.498.374-.748 0-.249-.138-.512-.416-.79-.187-.187-.377-.303-.569-.348a2.004 2.004 0 0 0-.476-.068 8.807 8.807 0 0 1-.281.008c-.09.046-.167.037-.229-.025l-.654-.654a.284.284 0 0 1-.085-.187c0-.068.028-.13.085-.187.147-.136.376-.23.688-.28.317-.045.68.005 1.088.153.407.147.813.422 1.215.824.668.668 1.005 1.305 1.011 1.911.006.606-.235 1.153-.722 1.64l-2.669 2.667a.276.276 0 0 1-.204.085.253.253 0 0 1-.203-.085l-.689-.688a.28.28 0 0 1-.085-.204.28.28 0 0 1 .085-.204l.332-.331a2 2 0 0 1-.986-.085c-.34-.113-.68-.34-1.02-.68Zm1.096-.518c.312.312.669.465 1.071.459.402-.006.799-.204 1.19-.595l.178-.178-.986-.714c-.379-.277-.71-.444-.994-.501-.277-.05-.498.006-.663.17a.684.684 0 0 0-.195.654c.051.255.184.49.399.705ZM209.984 68.144a.277.277 0 0 1-.085-.204c0-.079.028-.147.085-.203l3.314-3.313-1.385-1.385a.277.277 0 0 1-.085-.204c0-.08.031-.15.093-.212l.485-.484a.253.253 0 0 1 .203-.086c.08 0 .148.029.204.086l3.858 3.856a.29.29 0 0 1 .094.212.28.28 0 0 1-.085.204l-.485.485a.317.317 0 0 1-.212.093.292.292 0 0 1-.212-.093l-1.377-1.377-3.314 3.313a.28.28 0 0 1-.204.085.254.254 0 0 1-.204-.085l-.688-.688ZM215.008 73.337c-.663-.663-1.005-1.345-1.028-2.047-.017-.708.258-1.374.824-1.997l.366-.382.382-.365c.617-.56 1.283-.83 1.997-.807.714.022 1.396.36 2.048 1.01.651.652.988 1.335 1.011 2.048.023.714-.246 1.379-.807 1.996a7.626 7.626 0 0 1-.366.383 7.377 7.377 0 0 1-.382.365c-.623.566-1.289.84-1.997.824-.702-.023-1.385-.365-2.048-1.028Zm.841-.841c.301.3.626.439.978.416.356-.028.728-.218 1.113-.569.062-.05.175-.159.34-.323.164-.164.272-.277.323-.34.351-.385.538-.753.56-1.104.029-.357-.107-.685-.407-.985-.301-.3-.629-.436-.986-.408-.351.023-.72.21-1.105.56l-.34.324-.323.34c-.351.384-.541.755-.569 1.112-.023.351.116.677.416.977ZM217.957 76.115a.32.32 0 0 1-.094-.212.32.32 0 0 1 .094-.213l.527-.526a.259.259 0 0 1 .187-.085.291.291 0 0 1 .212.076c.261.238.609.246 1.045.025.448-.22 1.043-.702 1.785-1.444l1.147-1.147a.254.254 0 0 1 .204-.084.28.28 0 0 1 .204.085l3.016 3.015a.277.277 0 0 1 .085.204c0 .08-.028.147-.085.204l-4.01 4.01a.28.28 0 0 1-.204.085.276.276 0 0 1-.204-.086l-.706-.705a.28.28 0 0 1-.085-.203.28.28 0 0 1 .085-.204l3.314-3.313-1.249-1.249-.569.57c-.736.735-1.374 1.26-1.912 1.57-.532.318-1.023.445-1.47.383-.436-.062-.875-.314-1.317-.756ZM225.082 83.408c-.662-.662-1.005-1.345-1.028-2.047-.017-.708.258-1.374.824-1.996l.366-.383.382-.365c.618-.56 1.283-.83 1.997-.807.714.023 1.397.36 2.048 1.01.652.652.989 1.335 1.011 2.048.023.714-.246 1.38-.807 1.996a7.552 7.552 0 0 1-.365.383 7.704 7.704 0 0 1-.383.365c-.623.566-1.289.84-1.997.824-.702-.023-1.385-.365-2.048-1.028Zm.842-.84c.3.3.626.438.977.415.357-.028.728-.218 1.113-.569.062-.05.176-.158.34-.323.164-.164.272-.277.323-.34.351-.385.538-.753.561-1.104.028-.357-.108-.685-.408-.985-.3-.3-.629-.436-.986-.408-.351.023-.719.21-1.105.56l-.34.324-.322.34c-.352.384-.541.755-.57 1.112-.022.351.116.677.417.977ZM228.446 86.6a.277.277 0 0 1-.085-.203c0-.08.028-.148.085-.204l4.01-4.01a.28.28 0 0 1 .204-.085c.08 0 .148.028.204.085l2.694 2.693c.062.062.091.13.085.204.006.073-.023.141-.085.204l-.484.484a.294.294 0 0 1-.213.093.28.28 0 0 1-.204-.085l-1.784-1.783-3.314 3.313a.28.28 0 0 1-.204.084.254.254 0 0 1-.204-.085l-.705-.705ZM240.472 89.789c.051.05.077.116.077.195a.23.23 0 0 1-.068.187l-4.028 4.026a.28.28 0 0 1-.204.085.28.28 0 0 1-.204-.084l-.705-.706a.277.277 0 0 1-.085-.204c0-.079.028-.147.085-.203l2.728-2.727-4.836.756a.35.35 0 0 1-.365-.094l-.646-.645a.289.289 0 0 1-.085-.187.28.28 0 0 1 .085-.204l4.02-4.018a.276.276 0 0 1 .204-.085c.079 0 .147.028.203.085l.706.705c.062.062.09.13.085.204a.258.258 0 0 1-.085.204l-2.736 2.735 4.843-.764c.153-.029.275.002.366.093l.645.646ZM245.265 94.58c.063.062.091.13.085.204a.251.251 0 0 1-.085.204l-4.01 4.01a.28.28 0 0 1-.204.084.254.254 0 0 1-.204-.084l-.723-.723a.28.28 0 0 1-.085-.204.28.28 0 0 1 .085-.203l1.3-1.3-.756-.756-2.218.535a.335.335 0 0 1-.34-.085l-.705-.705a.244.244 0 0 1-.076-.178c0-.068.022-.125.068-.17a.287.287 0 0 1 .187-.085l2.294-.51c-.153-.38-.19-.745-.111-1.096.085-.356.278-.685.578-.985.476-.476.98-.685 1.513-.629.544.057 1.102.371 1.674.943l1.733 1.733Zm-1.716-.102-.799-.798c-.266-.267-.51-.414-.731-.442-.215-.023-.436.08-.663.306-.209.21-.314.433-.314.67 0 .239.119.477.357.714l.85.85 1.3-1.3ZM163.018 63.805c-.398-.397-.683-.81-.856-1.238a2.285 2.285 0 0 1-.138-1.27c.076-.412.278-.782.604-1.108.301-.3.637-.49 1.01-.566a2.05 2.05 0 0 1 1.132.077 1.814 1.814 0 0 1-.016-.933c.087-.3.258-.579.513-.833.448-.449.963-.637 1.544-.566.592.071 1.163.382 1.714.933.545.545.851 1.11.917 1.697.077.586-.107 1.1-.55 1.544a1.867 1.867 0 0 1-.842.505 1.832 1.832 0 0 1-.925.008c.133.377.158.754.077 1.131a1.987 1.987 0 0 1-.566 1.01 2.089 2.089 0 0 1-1.109.603 2.293 2.293 0 0 1-1.278-.145c-.428-.173-.838-.456-1.231-.849Zm3.205-3.203c.311.3.647.479 1.009.535.362.056.668-.04.918-.29a1.02 1.02 0 0 0 .298-.926c-.046-.361-.224-.698-.535-1.009-.316-.316-.655-.502-1.017-.558a1.04 1.04 0 0 0-.926.314c-.255.254-.357.56-.306.917.056.362.242.7.559 1.017Zm-2.593 2.592c.357.356.747.563 1.17.619.423.056.785-.066 1.086-.367.301-.3.421-.66.36-1.078-.062-.418-.271-.805-.628-1.162-.362-.362-.752-.574-1.17-.635a1.203 1.203 0 0 0-1.078.36 1.23 1.23 0 0 0-.367 1.085c.056.423.265.816.627 1.178ZM168.201 64.889a.272.272 0 0 1-.084-.176.272.272 0 0 1 .084-.176l.291-.29a.234.234 0 0 1 .168-.077.25.25 0 0 1 .184.077l2.294 2.293c.051.051.074.11.069.176a.217.217 0 0 1-.069.176l-.29.29a.252.252 0 0 1-.184.077.234.234 0 0 1-.168-.076l-2.295-2.294ZM171.585 72.369c-.398-.398-.684-.81-.857-1.239a2.303 2.303 0 0 1-.138-1.269c.077-.413.278-.782.605-1.108.3-.301.637-.49 1.009-.566a2.049 2.049 0 0 1 1.132.076 1.802 1.802 0 0 1-.015-.932c.086-.301.257-.579.512-.834.449-.448.964-.637 1.545-.565.591.07 1.162.382 1.713.932.546.546.851 1.111.918 1.698.076.586-.107 1.1-.551 1.544a1.864 1.864 0 0 1-.841.505 1.836 1.836 0 0 1-.926.007c.133.377.159.755.077 1.132a1.98 1.98 0 0 1-.566 1.009 2.085 2.085 0 0 1-1.109.604 2.289 2.289 0 0 1-1.277-.145c-.428-.174-.839-.457-1.231-.849Zm3.204-3.203c.311.3.648.479 1.01.535.362.056.667-.041.917-.29a1.02 1.02 0 0 0 .299-.926c-.046-.362-.225-.698-.536-1.01-.316-.315-.655-.501-1.017-.557a1.038 1.038 0 0 0-.925.313c-.255.255-.357.561-.306.918.056.362.242.7.558 1.017Zm-2.593 2.591c.357.357.747.564 1.171.62.423.056.785-.067 1.086-.367.3-.301.42-.66.359-1.078-.061-.418-.27-.806-.627-1.162-.362-.362-.752-.574-1.17-.635a1.205 1.205 0 0 0-1.079.36c-.3.3-.423.662-.367 1.085.056.423.265.816.627 1.177ZM175.567 76.197a.22.22 0 0 1-.069-.16.294.294 0 0 1 .084-.16.25.25 0 0 1 .13-.07l2.8-.458a2.745 2.745 0 0 1-1.171-1.583 2.382 2.382 0 0 1 .016-1.284c.122-.418.336-.78.642-1.086a2.644 2.644 0 0 1 1.086-.657c.428-.133.875-.14 1.338-.023.464.117.903.382 1.316.795.413.413.681.848.803 1.307.127.464.127.907 0 1.33-.128.423-.347.79-.658 1.101a2.489 2.489 0 0 1-.879.589 6.656 6.656 0 0 1-1.094.283l-3.533.58c-.082.011-.156.014-.222.009-.056-.005-.115-.039-.176-.1l-.413-.413Zm3.212-1.728c.214.215.457.365.727.452.28.086.561.096.841.03.286-.071.543-.222.772-.45.23-.23.378-.485.444-.766a1.477 1.477 0 0 0-.031-.84 1.711 1.711 0 0 0-.443-.734 1.717 1.717 0 0 0-.734-.444 1.495 1.495 0 0 0-.834-.023 1.653 1.653 0 0 0-.757.451c-.23.23-.382.484-.459.765-.066.28-.059.558.023.833.087.27.237.512.451.727ZM180.98 81.761c-.398-.397-.683-.81-.857-1.238a2.294 2.294 0 0 1-.137-1.27c.076-.412.278-.782.604-1.108.301-.3.637-.49 1.01-.566a2.046 2.046 0 0 1 1.131.077 1.824 1.824 0 0 1-.015-.933c.087-.3.258-.578.512-.833.449-.449.964-.637 1.545-.566.592.071 1.163.382 1.713.933.546.545.852 1.11.918 1.697.077.586-.107 1.101-.55 1.544a1.867 1.867 0 0 1-.842.505 1.832 1.832 0 0 1-.925.008c.132.377.158.754.076 1.131a1.972 1.972 0 0 1-.566 1.01 2.086 2.086 0 0 1-1.108.603 2.293 2.293 0 0 1-1.278-.145c-.428-.173-.838-.456-1.231-.849Zm3.204-3.203c.311.3.648.48 1.01.535.362.056.668-.04.918-.29a1.02 1.02 0 0 0 .298-.925c-.046-.362-.224-.699-.535-1.01-.316-.316-.656-.502-1.018-.558a1.038 1.038 0 0 0-.925.314c-.255.255-.357.56-.306.917.056.362.242.701.558 1.017Zm-2.592 2.592c.357.357.747.563 1.17.62.423.055.785-.067 1.086-.368a1.2 1.2 0 0 0 .359-1.078c-.061-.418-.27-.805-.627-1.162-.362-.362-.752-.573-1.17-.635a1.203 1.203 0 0 0-1.078.36 1.23 1.23 0 0 0-.367 1.085c.056.424.265.816.627 1.178ZM186.163 82.845a.272.272 0 0 1-.084-.176.272.272 0 0 1 .084-.176l.291-.29a.234.234 0 0 1 .168-.077.25.25 0 0 1 .184.077l2.294 2.293c.051.052.074.11.069.176a.217.217 0 0 1-.069.176l-.291.29a.25.25 0 0 1-.183.077.234.234 0 0 1-.168-.076l-2.295-2.294ZM189.229 90.008c-.403-.403-.688-.816-.856-1.239-.158-.423-.209-.815-.153-1.177.061-.357.201-.655.42-.894a.187.187 0 0 1 .153-.062c.061 0 .115.023.161.07l.375.374c.107.107.122.234.045.382-.188.321-.226.645-.114.971.117.321.324.63.619.925.362.362.734.566 1.117.612.387.04.742-.1 1.063-.42.617-.617.551-1.3-.199-2.05l-.727-.726a.277.277 0 0 1-.084-.176.277.277 0 0 1 .084-.176l.207-.206a.447.447 0 0 1 .291-.122l3.105-.138-2.257-2.255a.277.277 0 0 1-.084-.176.273.273 0 0 1 .085-.176l.29-.29a.274.274 0 0 1 .176-.085c.071 0 .133.026.184.077l3.051 3.05a.23.23 0 0 1 .077.184.23.23 0 0 1-.077.183l-.275.275c-.061.062-.148.092-.26.092l-3.121.168.115.13c.505.535.78 1.08.826 1.636.046.556-.176 1.078-.665 1.568-.332.331-.704.535-1.117.611a2.31 2.31 0 0 1-1.262-.13 3.546 3.546 0 0 1-1.193-.81ZM193.899 94.676c-.408-.408-.681-.843-.818-1.307a2.472 2.472 0 0 1-.016-1.361c.123-.438.349-.823.681-1.154.27-.27.579-.472.925-.605a5.312 5.312 0 0 1 1.025-.275l3.48-.573.099-.008a.264.264 0 0 1 .153.016.344.344 0 0 1 .153.091l.405.406c.046.045.064.099.054.16a.22.22 0 0 1-.069.16.25.25 0 0 1-.13.07l-2.677.443c.148.076.311.204.49.382.362.372.602.78.719 1.223.122.449.122.887 0 1.315a2.51 2.51 0 0 1-.666 1.14 2.637 2.637 0 0 1-1.154.68 2.4 2.4 0 0 1-1.354-.008c-.464-.127-.897-.392-1.3-.795Zm.642-.657c.219.219.467.374.742.466.28.097.563.11.849.038.296-.071.568-.232.818-.481.245-.245.401-.513.467-.803a1.471 1.471 0 0 0-.038-.849 1.89 1.89 0 0 0-.467-.741 1.923 1.923 0 0 0-.742-.467 1.548 1.548 0 0 0-.849-.038c-.29.066-.558.222-.803.466-.25.25-.41.523-.482.818-.066.291-.053.574.039.85.091.274.247.521.466.74ZM197.128 97.752a.223.223 0 0 1-.068-.16.288.288 0 0 1 .084-.161l.084-.054 6.355-2.546-2.508-2.507a.272.272 0 0 1-.084-.176.272.272 0 0 1 .084-.176l.306-.306c.056-.056.114-.084.175-.084a.25.25 0 0 1 .184.077l3.136 3.134a.229.229 0 0 1 .076.183.229.229 0 0 1-.076.184l-.283.283c-.092.092-.212.17-.36.237l-6.279 2.515a.654.654 0 0 1-.229.046.23.23 0 0 1-.184-.076l-.413-.413ZM202.318 98.995a.272.272 0 0 1-.084-.176.272.272 0 0 1 .084-.176l.29-.29a.234.234 0 0 1 .169-.077.25.25 0 0 1 .183.076l2.294 2.294a.216.216 0 0 1 .069.176.217.217 0 0 1-.069.176l-.29.29a.25.25 0 0 1-.184.077.234.234 0 0 1-.168-.077l-2.294-2.293ZM207.521 101.337c-.015-.077.008-.145.069-.207a.236.236 0 0 1 .122-.061.314.314 0 0 1 .1-.007l1.055.045-.665-.833-.046-.076c-.031-.051-.033-.11-.008-.176a.23.23 0 0 1 .061-.107.226.226 0 0 1 .054-.038l.543-.268c.051-.03.11-.033.176-.008.041.01.076.03.107.061.01.01.02.026.03.046l.031.092.283 1.032.589-.894.053-.07a.24.24 0 0 1 .337 0l.421.421a.209.209 0 0 1 .061.169.23.23 0 0 1-.061.168l-.069.053-.895.589 1.04.291.092.03a.12.12 0 0 1 .046.031.262.262 0 0 1 .076.137.161.161 0 0 1-.023.146l-.267.542-.039.054a.254.254 0 0 1-.145.069.21.21 0 0 1-.145-.023l-.069-.038-.841-.673.053 1.063a.305.305 0 0 1-.007.099.233.233 0 0 1-.062.122.219.219 0 0 1-.206.069l-.589-.084a.298.298 0 0 1-.122-.077c-.067-.066-.092-.132-.077-.198a.032.032 0 0 0 .008-.023.25.25 0 0 1 .015-.061l.375-1.017-1.017.374a.227.227 0 0 1-.062.016c-.01 0-.017.002-.022.007-.067.016-.133-.01-.199-.076a.323.323 0 0 1-.077-.122l-.084-.589ZM210.934 104.749c-.015-.077.008-.145.069-.207a.243.243 0 0 1 .122-.061.319.319 0 0 1 .1-.007l1.055.046-.665-.834-.046-.076c-.031-.051-.033-.11-.008-.176a.228.228 0 0 1 .115-.145l.543-.268c.051-.031.11-.033.176-.008a.233.233 0 0 1 .107.062c.01.01.02.025.031.045l.03.092.283 1.032.589-.894.054-.069a.237.237 0 0 1 .336 0l.421.42a.206.206 0 0 1 .061.169.23.23 0 0 1-.061.168l-.069.053-.895.589 1.04.291.092.03a.113.113 0 0 1 .046.031.262.262 0 0 1 .076.137.158.158 0 0 1-.023.146l-.267.542-.039.054a.254.254 0 0 1-.145.069.21.21 0 0 1-.145-.023l-.069-.038-.841-.673.053 1.063a.305.305 0 0 1-.007.099.233.233 0 0 1-.062.122.219.219 0 0 1-.206.069l-.589-.084a.306.306 0 0 1-.122-.076c-.067-.067-.092-.133-.077-.199a.032.032 0 0 0 .008-.023.25.25 0 0 1 .015-.061l.375-1.017-1.017.374a.232.232 0 0 1-.061.016c-.011 0-.018.002-.023.007-.067.016-.133-.01-.199-.076a.323.323 0 0 1-.077-.122l-.084-.589ZM214.347 108.161a.218.218 0 0 1 .069-.206.24.24 0 0 1 .123-.062.305.305 0 0 1 .099-.007l1.055.046-.665-.834-.046-.076a.196.196 0 0 1-.008-.176.228.228 0 0 1 .115-.145l.543-.268a.196.196 0 0 1 .176-.008.228.228 0 0 1 .107.062c.01.01.021.025.031.045l.03.092.283 1.032.589-.894.054-.069a.237.237 0 0 1 .336 0l.421.421a.202.202 0 0 1 .061.168c0 .071-.02.127-.061.168l-.069.053-.895.589 1.04.291.092.03a.125.125 0 0 1 .046.031.262.262 0 0 1 .076.137.16.16 0 0 1-.022.146l-.268.543-.038.053a.26.26 0 0 1-.146.069.21.21 0 0 1-.145-.023l-.069-.038-.841-.673.053 1.063a.305.305 0 0 1-.007.099.232.232 0 0 1-.061.122c-.062.061-.13.084-.207.069l-.589-.084a.313.313 0 0 1-.122-.076c-.066-.067-.092-.133-.077-.199a.032.032 0 0 0 .008-.023.25.25 0 0 1 .015-.061l.375-1.017-1.017.374a.232.232 0 0 1-.061.016c-.01 0-.018.002-.023.007-.066.016-.133-.01-.199-.076a.316.316 0 0 1-.077-.122l-.084-.589ZM217.76 111.573a.219.219 0 0 1 .069-.206.24.24 0 0 1 .123-.062.305.305 0 0 1 .099-.007l1.055.046-.665-.834-.046-.076a.193.193 0 0 1-.007-.176.222.222 0 0 1 .114-.145l.543-.268a.196.196 0 0 1 .176-.008.228.228 0 0 1 .107.062c.01.01.021.025.031.046l.03.091.283 1.032.589-.894.054-.069a.237.237 0 0 1 .336 0l.421.421a.204.204 0 0 1 .061.168c0 .071-.02.127-.061.168l-.069.053-.895.589 1.04.291.092.03a.117.117 0 0 1 .046.031.275.275 0 0 1 .077.137.164.164 0 0 1-.023.146l-.268.543-.038.053a.257.257 0 0 1-.146.069.21.21 0 0 1-.145-.023l-.069-.038-.841-.673.054 1.063c0 .061-.003.094-.008.099a.232.232 0 0 1-.061.122.218.218 0 0 1-.207.069l-.589-.084a.313.313 0 0 1-.122-.076c-.066-.067-.092-.133-.076-.199.005-.005.007-.013.007-.023a.25.25 0 0 1 .015-.061l.375-1.017-1.017.375a.26.26 0 0 1-.061.015c-.01 0-.018.002-.023.007-.066.016-.133-.01-.199-.076a.302.302 0 0 1-.076-.122l-.085-.589ZM150.358 80.257a.173.173 0 0 1-.054.095.213.213 0 0 1-.157.061.191.191 0 0 1-.156-.06l-.7-.7a.309.309 0 0 1-.095-.15.713.713 0 0 1 .006-.17l.701-3.038-.646-.645-1.822 1.82a.222.222 0 0 1-.163.069.203.203 0 0 1-.163-.068l-.619-.619a.224.224 0 0 1-.068-.163c0-.063.023-.117.068-.163l4.426-4.424a.254.254 0 0 1 .163-.082c.063 0 .12.025.17.075l.618.619c.05.05.073.104.068.163 0 .063-.025.12-.074.17l-1.754 1.753.591.605 2.91-.707c.127-.036.249.005.367.122l.673.673c.045.046.065.093.061.143a.198.198 0 0 1-.061.143.299.299 0 0 1-.109.054l-3.358.788-.823 3.636ZM152.096 82.592c-.53-.53-.805-1.076-.823-1.638-.013-.566.207-1.098.66-1.596l.292-.306.306-.293c.494-.448 1.026-.663 1.598-.645.571.018 1.117.287 1.638.809.521.52.791 1.067.809 1.637.018.571-.197 1.104-.646 1.597-.05.06-.147.161-.292.306a5.986 5.986 0 0 1-.306.292c-.499.454-1.031.673-1.598.66-.562-.019-1.108-.293-1.638-.823Zm.673-.672c.24.24.501.35.782.332.285-.022.582-.174.89-.455.05-.04.141-.127.272-.258a4.14 4.14 0 0 0 .258-.272c.281-.308.431-.602.449-.883.023-.286-.086-.549-.326-.789-.24-.24-.503-.349-.789-.326-.281.018-.575.168-.883.449l-.272.258-.259.272c-.281.308-.433.605-.455.89-.018.28.093.541.333.781ZM161.877 85.167a.185.185 0 0 1 .054.135c.005.06-.009.105-.041.136l-3.263 3.263a.194.194 0 0 1-.142.06.207.207 0 0 1-.15-.067l-.585-.585a.204.204 0 0 1-.067-.15.217.217 0 0 1 .067-.135l1.904-1.903-2.067.612a.675.675 0 0 1-.217.027c-.055 0-.109-.027-.163-.082l-.225-.224a.252.252 0 0 1-.081-.163.543.543 0 0 1 .034-.21l.584-2.04-1.876 1.876a.196.196 0 0 1-.285 0l-.585-.584a.209.209 0 0 1-.068-.15c0-.054.02-.102.061-.143l3.263-3.262a.175.175 0 0 1 .129-.047c.055 0 .1.018.136.054l.571.571c.077.077.098.174.062.292l-.857 2.95 2.95-.857c.118-.036.216-.016.293.062l.564.564ZM166.657 89.945a.185.185 0 0 1 .054.136c.005.059-.009.104-.041.136l-3.263 3.262a.193.193 0 0 1-.142.061.207.207 0 0 1-.15-.068l-.585-.584a.21.21 0 0 1-.068-.15.224.224 0 0 1 .068-.136l1.904-1.903-2.067.612a.67.67 0 0 1-.217.027c-.055 0-.109-.027-.163-.081l-.225-.225a.252.252 0 0 1-.081-.163.525.525 0 0 1 .034-.21l.584-2.04-1.876 1.876a.197.197 0 0 1-.286 0l-.584-.584a.205.205 0 0 1-.068-.15c0-.054.02-.102.061-.142l3.263-3.262a.175.175 0 0 1 .129-.048c.055 0 .1.018.136.055l.571.57c.077.077.098.175.061.293l-.856 2.949 2.95-.856c.118-.036.215-.016.293.06l.564.565ZM165.638 96.13c-.503-.503-.759-1.049-.768-1.638 0-.589.256-1.157.768-1.706l.163-.176.177-.163c.539-.494 1.103-.741 1.693-.741.593.004 1.139.256 1.638.754.535.535.784 1.11.748 1.727-.032.62-.32 1.202-.864 1.746l-.142.143a.225.225 0 0 1-.164.068.235.235 0 0 1-.17-.075l-2.257-2.256-.054.054c-.24.258-.383.537-.428.836-.036.299.059.562.285.788.268.268.587.379.959.333.09-.009.154-.009.19 0a.373.373 0 0 1 .136.095l.585.585c.041.04.061.088.061.143a.148.148 0 0 1-.041.135c-.109.11-.303.173-.584.19-.272.019-.583-.038-.932-.17a2.839 2.839 0 0 1-.999-.672Zm2.896-1.386.02-.02c.268-.268.415-.551.442-.85.032-.295-.07-.56-.306-.795-.235-.236-.501-.338-.795-.306-.295.032-.576.181-.843.448l-.021.02 1.503 1.503ZM168.27 98.625a.22.22 0 0 1-.068-.163.22.22 0 0 1 .068-.163l3.208-3.208a.225.225 0 0 1 .164-.068c.063 0 .117.023.163.068l.564.564c.05.05.072.105.068.163a.205.205 0 0 1-.068.164l-1.217 1.216 1.536 1.536 1.217-1.217a.205.205 0 0 1 .163-.067c.064 0 .118.022.164.067l.564.565c.05.05.072.104.068.163a.205.205 0 0 1-.068.163l-3.209 3.207a.22.22 0 0 1-.163.068c-.059.005-.113-.018-.163-.068l-.564-.564a.218.218 0 0 1-.068-.163.22.22 0 0 1 .068-.163l1.278-1.277-1.537-1.536-1.278 1.277a.22.22 0 0 1-.163.068.203.203 0 0 1-.163-.068l-.564-.564ZM173.423 103.777a.225.225 0 0 1-.068-.163c0-.064.023-.118.068-.163l2.651-2.651-1.108-1.108a.224.224 0 0 1-.068-.163c0-.063.025-.12.075-.17l.387-.387a.206.206 0 0 1 .164-.068c.063 0 .117.023.163.068l3.086 3.085c.05.05.075.107.075.17a.222.222 0 0 1-.068.163l-.388.388a.26.26 0 0 1-.17.075.235.235 0 0 1-.17-.075l-1.101-1.101-2.651 2.65a.22.22 0 0 1-.163.068.2.2 0 0 1-.163-.068l-.551-.55ZM176.905 107.394a2.123 2.123 0 0 1-.503-.775 1.71 1.71 0 0 1-.074-.836c.049-.267.17-.496.36-.686a1.269 1.269 0 0 1 1.122-.374c.439.059.911.272 1.414.639l1.067.795.143-.143c.199-.199.299-.398.299-.598 0-.199-.111-.41-.333-.632a.977.977 0 0 0-.456-.278 1.616 1.616 0 0 0-.381-.055 6.028 6.028 0 0 1-.224.007c-.072.036-.134.03-.183-.02l-.524-.523a.232.232 0 0 1-.068-.15c0-.054.023-.104.068-.149.118-.109.302-.184.551-.225.254-.036.544.005.87.123.326.117.65.337.972.659.535.534.804 1.044.809 1.529.005.485-.188.922-.578 1.311l-2.134 2.134a.222.222 0 0 1-.164.068c-.058.005-.113-.018-.163-.068l-.55-.55a.22.22 0 0 1-.068-.163c0-.064.022-.118.068-.163l.265-.265a1.612 1.612 0 0 1-.789-.068c-.272-.091-.544-.272-.816-.544Zm.877-.414c.25.249.535.371.857.366.322-.004.639-.163.952-.475l.142-.143-.788-.571c-.304-.222-.569-.355-.796-.401-.222-.041-.398.005-.53.136a.546.546 0 0 0-.156.523c.041.204.147.392.319.565ZM178.709 111.643a.222.222 0 0 1-.068-.163c-.005-.059.018-.113.068-.163l4.5-4.499a.208.208 0 0 1 .163-.068c.064 0 .118.023.163.068l.538.537c.049.05.072.104.068.163a.207.207 0 0 1-.068.163l-.272.272c.589-.081 1.119.114 1.59.585.458.457.664.953.619 1.488-.041.53-.297 1.049-.768 1.556-.05.059-.127.141-.231.245a4.55 4.55 0 0 1-.252.238c-.494.457-1.011.711-1.55.761-.535.045-1.031-.161-1.489-.618-.457-.458-.645-.968-.564-1.53l-1.543 1.543c-.05.05-.104.073-.163.068-.059.005-.113-.018-.163-.068l-.578-.578Zm3.487-.414c.49.489 1.052.448 1.686-.122.05-.041.12-.107.211-.197.091-.091.156-.161.197-.211.571-.634.612-1.196.122-1.686-.262-.262-.541-.373-.836-.333a1.56 1.56 0 0 0-.829.408l-.265.252-.259.271a1.367 1.367 0 0 0-.373.796c-.023.294.092.568.346.822ZM190.764 114.044c.04.041.061.093.061.156a.185.185 0 0 1-.055.15l-3.222 3.221a.22.22 0 0 1-.163.068.218.218 0 0 1-.163-.068l-.564-.564a.22.22 0 0 1-.068-.163.22.22 0 0 1 .068-.163l2.182-2.182-3.868.605a.281.281 0 0 1-.293-.074l-.516-.517a.227.227 0 0 1-.068-.149c0-.064.022-.118.068-.164l3.215-3.214a.224.224 0 0 1 .163-.068c.064 0 .118.023.163.068l.565.564c.05.05.072.104.068.163a.205.205 0 0 1-.068.163l-2.189 2.189 3.875-.612c.122-.023.219.002.292.075l.517.516ZM194.999 118.278a.212.212 0 0 1 .061.157.179.179 0 0 1-.054.149l-3.222 3.221a.222.222 0 0 1-.164.068.221.221 0 0 1-.163-.068l-.564-.564a.222.222 0 0 1-.068-.163c0-.063.023-.118.068-.163l2.182-2.181-3.868.604a.28.28 0 0 1-.292-.074l-.517-.517a.23.23 0 0 1-.068-.149c0-.064.023-.118.068-.163l3.216-3.215a.222.222 0 0 1 .163-.068c.063 0 .118.023.163.068l.564.564c.05.05.073.104.068.163a.2.2 0 0 1-.068.163l-2.189 2.189 3.875-.612c.122-.023.22.002.292.075l.517.516Zm-1.033-1.957c-.385-.385-.583-.75-.592-1.094-.004-.349.127-.657.395-.924a.166.166 0 0 1 .122-.055.167.167 0 0 1 .136.055l.387.387a.167.167 0 0 1 .055.136.166.166 0 0 1-.055.122c-.258.259-.233.542.075.85.308.308.592.333.85.075a.166.166 0 0 1 .122-.055.167.167 0 0 1 .136.055l.395.394a.17.17 0 0 1 .054.136.169.169 0 0 1-.054.122 1.233 1.233 0 0 1-.932.387c-.344-.009-.709-.206-1.094-.591ZM194.999 120.589a.222.222 0 0 1-.068-.163c0-.063.023-.118.068-.163l.646-.646a.238.238 0 0 1 .17-.074c.064 0 .118.022.163.068l.673.672c.05.05.075.107.075.17 0 .064-.025.12-.075.17l-.646.646a.222.222 0 0 1-.163.068.235.235 0 0 1-.17-.075l-.673-.673Zm-2.379 2.379a.225.225 0 0 1-.068-.163c0-.064.023-.118.068-.163l.646-.646a.233.233 0 0 1 .17-.075c.063 0 .118.023.163.068l.673.673c.05.05.075.106.075.17 0 .063-.025.12-.075.17l-.646.645a.22.22 0 0 1-.163.068.238.238 0 0 1-.17-.074l-.673-.673ZM197.31 127.792c-.485-.484-.729-1.001-.734-1.549.005-.548.245-1.078.721-1.59l.265-.279.278-.265c.513-.476 1.041-.714 1.584-.714.553 0 1.072.243 1.557.728.326.326.544.661.653 1.005.109.345.131.657.068.938-.059.286-.17.519-.333.7a.168.168 0 0 1-.15.068.236.236 0 0 1-.156-.075l-.327-.326c-.045-.045-.07-.088-.074-.129a.396.396 0 0 1 .04-.177c.141-.294.186-.557.136-.788-.045-.235-.174-.46-.387-.673-.281-.281-.594-.417-.938-.407-.336.009-.689.185-1.061.53l-.251.237-.225.238c-.349.376-.528.732-.537 1.067-.009.336.13.646.415.931.213.213.435.345.666.394.236.046.501-.002.796-.142a.386.386 0 0 1 .176-.041c.046 0 .091.023.136.068l.327.326c.045.045.068.1.068.163a.173.173 0 0 1-.068.15 1.525 1.525 0 0 1-.701.333c-.281.063-.593.041-.938-.068-.34-.104-.675-.322-1.006-.653ZM198.573 131.501a.222.222 0 0 1-.068-.163c0-.054.023-.104.068-.149l4.514-4.513a.208.208 0 0 1 .149-.068c.064 0 .118.023.164.068l.312.313a.188.188 0 0 1 .061.156.188.188 0 0 1-.061.156l-.299.299c.603-.095 1.149.102 1.639.592.475.475.682.981.618 1.515-.059.539-.315 1.054-.768 1.543a3.97 3.97 0 0 1-.224.238 4.306 4.306 0 0 1-.238.224c-.485.449-1 .705-1.543.768-.54.059-1.045-.147-1.516-.618-.472-.472-.669-1.009-.592-1.611l-1.577 1.577a.207.207 0 0 1-.15.067.189.189 0 0 1-.156-.061l-.333-.333Zm3.215-.333c.322.322.655.456 1 .401.349-.05.693-.231 1.033-.543.05-.041.118-.105.204-.191.857-.856.968-1.601.333-2.236-.313-.312-.652-.444-1.02-.394-.358.05-.686.211-.985.483l-.265.251-.259.272a1.612 1.612 0 0 0-.442.958c-.036.363.098.696.401.999ZM205.131 135.611c-.498-.499-.745-1.026-.741-1.584.009-.552.238-1.071.687-1.556l.285-.299.299-.285c.481-.444 1-.669 1.557-.673.562-.009 1.09.233 1.584.727s.736 1.022.727 1.583c-.004.558-.228 1.077-.673 1.557-.045.054-.14.154-.285.299-.145.145-.245.24-.299.285-.485.449-1.006.675-1.564.68-.553.009-1.078-.236-1.577-.734Zm.524-.523c.285.285.6.419.944.4.349-.013.701-.183 1.054-.509.05-.041.138-.125.265-.252s.211-.215.252-.265c.326-.353.496-.704.51-1.053.018-.344-.116-.659-.401-.945-.286-.285-.603-.421-.952-.407-.349.013-.698.185-1.047.516l-.265.252-.252.265c-.331.348-.503.697-.516 1.046-.014.349.122.666.408.952ZM209.884 140.227a.243.243 0 0 1-.074-.157.241.241 0 0 1 .074-.156l1.278-1.278c-.448-.013-.904-.251-1.366-.713-.412-.412-.634-.816-.666-1.21-.032-.394.145-.784.53-1.169l1.149-1.148a.208.208 0 0 1 .149-.068c.064 0 .118.023.164.068l.333.333a.194.194 0 0 1 .061.156.194.194 0 0 1-.061.156l-1.108 1.108c-.204.204-.295.412-.272.625.027.209.167.44.421.694.295.294.558.484.789.57a.53.53 0 0 0 .605-.129l1.217-1.216a.208.208 0 0 1 .149-.068c.064 0 .118.023.163.068l.34.34a.188.188 0 0 1 .061.156.188.188 0 0 1-.061.156l-3.222 3.222a.223.223 0 0 1-.163.067.209.209 0 0 1-.15-.067l-.34-.34ZM211.549 141.89a.236.236 0 0 1-.075-.156.236.236 0 0 1 .075-.156l3.222-3.221a.204.204 0 0 1 .149-.068c.064 0 .118.022.164.068l.326.326a.19.19 0 0 1 .061.156.19.19 0 0 1-.061.156l-1.305 1.305 1.849 1.849 1.305-1.305a.208.208 0 0 1 .149-.068c.064 0 .118.023.164.068l.319.319a.194.194 0 0 1 .061.157.192.192 0 0 1-.061.156l-3.222 3.221a.224.224 0 0 1-.163.068.209.209 0 0 1-.15-.068l-.319-.319a.24.24 0 0 1-.075-.157.236.236 0 0 1 .075-.156l1.373-1.373-1.849-1.848-1.373 1.373a.226.226 0 0 1-.164.068.208.208 0 0 1-.149-.068l-.326-.327ZM216.915 147.391c-.499-.499-.746-1.026-.741-1.584.009-.552.238-1.071.686-1.556l.286-.299.299-.285c.48-.444.999-.669 1.557-.673.562-.009 1.09.233 1.584.727s.736 1.022.727 1.583c-.004.558-.229 1.076-.673 1.557-.045.054-.14.154-.285.299a5.11 5.11 0 0 1-.3.285c-.484.449-1.006.675-1.563.68-.553.009-1.079-.236-1.577-.734Zm.523-.523c.286.285.601.419.945.4.349-.013.7-.183 1.054-.509.05-.041.138-.125.265-.252s.211-.215.252-.265c.326-.353.496-.704.509-1.053.018-.344-.115-.659-.401-.945-.285-.285-.602-.421-.951-.407-.349.013-.698.185-1.047.516l-.265.251-.252.266c-.331.348-.503.697-.517 1.046-.013.349.123.666.408.952Z"/><g filter="url(#d)"><path fill="#2096EC" fill-opacity=".14" d="M13.927 228.912c-7.69-2.06-12.254-9.966-10.192-17.659l28.587-106.655C34.384 96.906 42.29 92.34 49.98 94.4l187.976 50.357c7.691 2.061 12.254 9.967 10.192 17.659l-28.587 106.655c-2.061 7.693-9.968 12.258-17.659 10.198L13.927 228.912Z"/></g><g fill-rule="evenodd" clip-rule="evenodd" filter="url(#e)"><path fill="#fff" d="M32.902 104.754 4.315 211.409c-1.976 7.372 2.397 14.948 9.768 16.923l187.976 50.357c7.37 1.974 14.947-2.401 16.923-9.773l28.587-106.655c1.976-7.372-2.397-14.949-9.768-16.923L49.826 94.981c-7.371-1.975-14.948 2.4-16.924 9.773ZM3.735 211.253c-2.062 7.693 2.501 15.599 10.192 17.659l187.976 50.357c7.691 2.06 15.598-2.505 17.659-10.198l28.587-106.655c2.062-7.692-2.501-15.598-10.192-17.659L49.981 94.4c-7.691-2.06-15.597 2.506-17.66 10.198L3.736 211.253Z"/><path fill="url(#f)" d="M32.902 104.754 4.315 211.409c-1.976 7.372 2.397 14.948 9.768 16.923l187.976 50.357c7.37 1.974 14.947-2.401 16.923-9.773l28.587-106.655c1.976-7.372-2.397-14.949-9.768-16.923L49.826 94.981c-7.371-1.975-14.948 2.4-16.924 9.773ZM3.735 211.253c-2.062 7.693 2.501 15.599 10.192 17.659l187.976 50.357c7.691 2.06 15.598-2.505 17.659-10.198l28.587-106.655c2.062-7.692-2.501-15.598-10.192-17.659L49.981 94.4c-7.691-2.06-15.597 2.506-17.66 10.198L3.736 211.253Z"/></g><path fill="#F4F7FE" d="M183.176 165.744a.213.213 0 0 1-.125-.086.217.217 0 0 1-.012-.151l1.22-4.55-1.627.679a.196.196 0 0 1-.135.016c-.049-.013-.088-.053-.117-.119l-.139-.324a.203.203 0 0 1-.01-.125.183.183 0 0 1 .122-.132l2.137-.891a.398.398 0 0 1 .227 0l.414.111a.17.17 0 0 1 .115.091.17.17 0 0 1 .022.145l-1.425 5.314a.193.193 0 0 1-.093.123.18.18 0 0 1-.143.014l-.431-.115ZM186.651 166.674a.212.212 0 0 1-.125-.085.206.206 0 0 1-.012-.151l1.219-4.55-1.627.678a.185.185 0 0 1-.135.016c-.048-.013-.087-.052-.116-.118l-.139-.324a.197.197 0 0 1-.01-.125.186.186 0 0 1 .122-.133l2.137-.89a.403.403 0 0 1 .226-.001l.415.111a.167.167 0 0 1 .114.092c.03.043.037.091.022.145l-1.424 5.314a.195.195 0 0 1-.094.123.183.183 0 0 1-.143.014l-.43-.116ZM188.614 167.2a.215.215 0 0 1-.125-.085.211.211 0 0 1-.011-.151l.156-.585a.18.18 0 0 1 .084-.117.19.19 0 0 1 .153-.02l.585.156a.198.198 0 0 1 .123.094.167.167 0 0 1 .022.145l-.157.585a.187.187 0 0 1-.094.123.206.206 0 0 1-.151.012l-.585-.157ZM192.364 168.292c-.698-.187-1.156-.527-1.372-1.021-.216-.493-.246-1.073-.09-1.739.033-.148.094-.385.181-.71.09-.335.158-.578.204-.729.19-.645.505-1.127.945-1.445.44-.323 1.007-.392 1.7-.206.699.187 1.158.531 1.378 1.031.222.495.254 1.069.096 1.724-.071.306-.131.551-.18.735-.048.179-.117.413-.206.703-.199.655-.515 1.142-.949 1.461-.434.319-1.003.385-1.707.196Zm.188-.699c.406.109.748.056 1.027-.16.283-.214.497-.566.64-1.056.095-.312.161-.538.199-.679.041-.151.095-.375.162-.67.12-.491.114-.901-.018-1.233-.131-.331-.403-.552-.815-.662-.406-.109-.752-.054-1.037.166-.28.221-.49.574-.632 1.059l-.187.664-.174.684c-.122.496-.116.907.018 1.233.138.327.411.546.817.654ZM197.21 169.503a.21.21 0 0 1-.125-.086.206.206 0 0 1-.012-.151l1.219-4.55-1.627.679a.195.195 0 0 1-.135.016c-.048-.013-.087-.053-.116-.118l-.139-.325a.204.204 0 0 1-.011-.125.186.186 0 0 1 .123-.132l2.137-.891a.395.395 0 0 1 .226 0l.415.111a.166.166 0 0 1 .114.091c.03.043.037.091.022.146l-1.424 5.313a.195.195 0 0 1-.094.123.179.179 0 0 1-.143.014l-.43-.115ZM199.173 170.029a.216.216 0 0 1-.125-.086.211.211 0 0 1-.011-.151l.156-.585a.186.186 0 0 1 .084-.117.195.195 0 0 1 .153-.02l.585.157a.195.195 0 0 1 .123.094.167.167 0 0 1 .022.145l-.157.585a.191.191 0 0 1-.094.123.216.216 0 0 1-.151.012l-.585-.157ZM201.074 170.538a.213.213 0 0 1-.125-.086.216.216 0 0 1-.012-.151l.07-.26c.033-.125.133-.226.299-.303l2.184-1.261c.51-.235.872-.44 1.087-.615.217-.18.358-.392.423-.635.084-.314.061-.585-.07-.811-.125-.226-.356-.383-.692-.473-.314-.084-.591-.057-.831.082-.239.133-.422.349-.548.646a.225.225 0 0 1-.12.124.226.226 0 0 1-.141.006l-.423-.113a.193.193 0 0 1-.11-.073.165.165 0 0 1-.019-.127c.09-.29.243-.548.46-.774.219-.232.492-.394.818-.486.334-.097.701-.091 1.102.016.612.164 1.029.447 1.252.849.23.399.28.842.149 1.329a1.77 1.77 0 0 1-.508.857c-.241.226-.582.448-1.023.666l-1.985 1.167 2.535.679a.18.18 0 0 1 .123.094.17.17 0 0 1 .022.145l-.09.333a.193.193 0 0 1-.093.123.219.219 0 0 1-.152.012l-3.582-.96ZM207.81 172.429c-.698-.187-1.156-.527-1.372-1.02-.216-.494-.246-1.073-.091-1.74.034-.148.095-.384.182-.709.09-.336.158-.579.204-.729.19-.646.505-1.128.944-1.445.441-.323 1.008-.392 1.701-.207.699.188 1.158.531 1.378 1.031.222.495.253 1.07.095 1.724-.07.306-.13.551-.179.736-.048.178-.117.413-.206.702-.199.655-.515 1.142-.949 1.461-.434.32-1.003.385-1.707.196Zm.187-.698c.407.108.749.055 1.027-.161.284-.214.497-.566.64-1.056.095-.311.162-.537.2-.678.04-.152.094-.375.162-.671.12-.49.114-.901-.018-1.232-.132-.332-.403-.553-.815-.663-.406-.109-.752-.053-1.037.166-.28.222-.491.574-.632 1.059l-.187.664-.175.685c-.121.496-.115.906.018 1.232.139.328.411.546.817.655ZM210.998 173.196a.212.212 0 0 1-.125-.085.219.219 0 0 1-.012-.152l.07-.26c.034-.124.133-.225.299-.303l2.184-1.261c.51-.235.872-.44 1.087-.614a1.23 1.23 0 0 0 .423-.636c.085-.314.061-.584-.07-.811-.125-.225-.356-.383-.691-.473-.314-.084-.592-.057-.832.082-.239.134-.421.349-.547.646a.232.232 0 0 1-.121.125.226.226 0 0 1-.141.005l-.422-.113a.187.187 0 0 1-.111-.073.16.16 0 0 1-.018-.127c.089-.289.242-.547.459-.774.219-.231.492-.393.819-.486.333-.096.7-.091 1.101.017.612.163 1.029.447 1.253.849.229.398.279.841.148 1.329-.091.341-.26.626-.508.856-.24.226-.581.448-1.023.667l-1.984 1.166 2.534.679c.06.016.101.047.123.094a.167.167 0 0 1 .022.145l-.089.333a.198.198 0 0 1-.094.123.211.211 0 0 1-.151.012l-3.583-.96ZM217.734 175.088c-.698-.187-1.155-.528-1.372-1.021-.216-.493-.246-1.073-.09-1.74.033-.147.094-.384.181-.709.09-.336.158-.579.204-.729.191-.645.505-1.127.945-1.445.44-.323 1.007-.392 1.7-.206.699.187 1.158.531 1.378 1.031.222.495.254 1.069.096 1.723-.071.307-.131.552-.18.736-.048.179-.117.413-.206.703-.199.655-.515 1.142-.949 1.461-.434.319-1.002.384-1.707.196Zm.188-.699c.406.109.748.055 1.027-.16.283-.215.497-.567.64-1.057.095-.311.161-.537.199-.678.041-.152.095-.375.162-.67.12-.491.114-.902-.018-1.233-.131-.331-.403-.552-.815-.663-.406-.108-.752-.053-1.037.167-.28.221-.49.574-.632 1.058l-.186.664-.175.685c-.122.496-.116.907.018 1.233.138.327.411.545.817.654ZM199.279 182.498a.217.217 0 0 1-.125-.086.217.217 0 0 1-.012-.151l1.22-4.55-1.628.678a.188.188 0 0 1-.134.017c-.049-.014-.088-.053-.117-.119l-.139-.324a.204.204 0 0 1-.01-.125.186.186 0 0 1 .122-.133l2.137-.89a.406.406 0 0 1 .227-.001l.414.111a.171.171 0 0 1 .115.092.17.17 0 0 1 .022.145l-1.425 5.314a.191.191 0 0 1-.094.123.183.183 0 0 1-.143.014l-.43-.115ZM201.096 182.984a.215.215 0 0 1-.125-.085.213.213 0 0 1-.011-.152l.069-.26c.034-.124.133-.225.299-.303l2.184-1.261c.51-.235.873-.44 1.088-.614.216-.18.357-.392.423-.636.084-.314.06-.584-.07-.811-.126-.225-.356-.383-.692-.473-.314-.084-.591-.056-.832.082-.239.134-.421.349-.547.646a.232.232 0 0 1-.121.125.219.219 0 0 1-.141.005l-.422-.113a.187.187 0 0 1-.111-.073.159.159 0 0 1-.018-.127c.089-.289.242-.547.46-.774.218-.231.491-.393.818-.486.333-.096.7-.091 1.101.017.612.164 1.03.447 1.253.849.23.398.279.841.149 1.329a1.768 1.768 0 0 1-.509.856c-.24.226-.581.448-1.023.667l-1.984 1.166 2.534.679c.06.016.101.047.123.094a.167.167 0 0 1 .022.145l-.089.333a.198.198 0 0 1-.094.123.211.211 0 0 1-.151.012l-3.583-.96ZM206.789 181.461a.212.212 0 0 1-.125-.085.219.219 0 0 1-.012-.152l.153-.568a.176.176 0 0 1 .083-.117.19.19 0 0 1 .153-.02l.585.156a.17.17 0 0 1 .115.092.167.167 0 0 1 .022.145l-.152.569a.198.198 0 0 1-.094.123.183.183 0 0 1-.143.014l-.585-.157Zm-.762 2.844a.206.206 0 0 1-.125-.086.206.206 0 0 1-.012-.151l.152-.569a.186.186 0 0 1 .237-.136l.585.156a.17.17 0 0 1 .115.092.17.17 0 0 1 .022.145l-.153.569a.193.193 0 0 1-.093.123.184.184 0 0 1-.143.014l-.585-.157ZM210.615 185.534a.209.209 0 0 1-.125-.086.21.21 0 0 1-.011-.151l.313-1.17-2.632-.705a.209.209 0 0 1-.125-.086.216.216 0 0 1-.012-.151l.087-.325a.434.434 0 0 1 .155-.22l3.358-2.784a.254.254 0 0 1 .148-.064.396.396 0 0 1 .19.007l.585.156a.174.174 0 0 1 .115.092.17.17 0 0 1 .022.145l-.922 3.437.732.196a.194.194 0 0 1 .122.094c.03.043.037.091.022.145l-.089.333a.195.195 0 0 1-.094.123.179.179 0 0 1-.143.014l-.739-.198-.314 1.17a.185.185 0 0 1-.237.137l-.406-.109Zm.37-2.095.747-2.787-2.704 2.262 1.957.525ZM214.754 186.73c-.412-.111-.747-.279-1.006-.505a1.802 1.802 0 0 1-.536-.762 1.524 1.524 0 0 1-.047-.831l.004-.016a.14.14 0 0 1 .078-.093.182.182 0 0 1 .124-.01l.439.118c.114.03.171.109.171.237-.001.308.088.561.267.76.179.199.409.336.691.411.362.097.692.069.988-.083.304-.157.508-.431.612-.821.094-.352.049-.669-.137-.951-.18-.28-.452-.469-.814-.566a1.2 1.2 0 0 0-.493-.045 1.593 1.593 0 0 0-.414.115 1.49 1.49 0 0 1-.201.068.328.328 0 0 1-.155-.006l-.423-.113a.199.199 0 0 1-.117-.084.16.16 0 0 1-.014-.143l.988-2.644a.235.235 0 0 1 .096-.131.203.203 0 0 1 .161-.018l2.835.76a.168.168 0 0 1 .115.091.169.169 0 0 1 .022.146l-.085.316a.19.19 0 0 1-.094.123.179.179 0 0 1-.143.014l-2.339-.626-.584 1.559c.342-.106.719-.104 1.13.006.358.096.666.257.924.483.265.228.446.503.546.825.104.324.106.673.006 1.047-.107.401-.289.724-.547.968a1.75 1.75 0 0 1-.907.463 2.545 2.545 0 0 1-1.141-.062Z"/><path fill="#fff" d="M35.486 214.067c-1.35-.362-2.43-.875-3.236-1.539-.794-.661-1.33-1.357-1.612-2.089-.264-.743-.326-1.431-.186-2.065a.441.441 0 0 1 .21-.28.522.522 0 0 1 .367-.036l2.737.733a.777.777 0 0 1 .354.185c.082.081.145.21.187.386.084.799.746 1.364 1.986 1.696.71.19 1.303.177 1.779-.038.493-.227.817-.625.97-1.196.298-1.115-.276-1.866-1.725-2.254l-2.319-.621a.572.572 0 0 1-.336-.247.575.575 0 0 1-.046-.415l.314-1.17c.082-.306.257-.513.525-.621l4.204-1.986-5.807-1.556a.571.571 0 0 1-.337-.247.575.575 0 0 1-.046-.415l.527-1.964a.53.53 0 0 1 .247-.337.575.575 0 0 1 .415-.045l9.609 2.574a.525.525 0 0 1 .337.247.492.492 0 0 1 .066.42l-.476 1.776c-.07.265-.244.465-.519.6l-3.965 2.096.135.081c1.237.51 2.13 1.212 2.682 2.106.57.884.682 1.967.338 3.248-.25.934-.733 1.677-1.449 2.232-.715.555-1.59.895-2.624 1.021-1.034.126-2.136.033-3.306-.28ZM49.146 217.748c-1.253-.336-2.273-.818-3.06-1.447-.783-.642-1.322-1.362-1.616-2.157a4.165 4.165 0 0 1-.149-2.369.439.439 0 0 1 .21-.279.44.44 0 0 1 .346-.042l2.8.75c.32.086.507.278.562.576.126 1.034.704 1.689 1.734 1.965.613.164 1.179.114 1.697-.15.536-.274.896-.753 1.079-1.435.164-.613.09-1.171-.223-1.673-.3-.498-.77-.833-1.41-1.004-.362-.097-.668-.127-.917-.089-.231.028-.48.095-.748.203-.285.117-.498.157-.637.12l-2.736-.733a.513.513 0 0 1-.301-.215.517.517 0 0 1-.036-.368l2.707-7.09a.67.67 0 0 1 .332-.403.771.771 0 0 1 .525-.039l8.376 2.244a.525.525 0 0 1 .337.247.494.494 0 0 1 .066.421l-.526 1.964a.495.495 0 0 1-.268.331.524.524 0 0 1-.415.045l-6.058-1.622-.994 2.622a3.874 3.874 0 0 1 1.29-.214c.45-.014 1.01.069 1.679.248a5.515 5.515 0 0 1 2.323 1.272 4.75 4.75 0 0 1 1.411 2.169c.28.851.294 1.744.044 2.677-.265.989-.746 1.808-1.442 2.457-.693.636-1.557 1.046-2.592 1.232-1.02.189-2.15.118-3.39-.214ZM63.053 221.451c-1.918-.529-3.237-1.427-3.957-2.695-.716-1.282-.896-2.755-.539-4.421.174-.76.34-1.432.496-2.017.16-.599.36-1.285.596-2.057.336-1.03.835-1.889 1.497-2.578.68-.698 1.522-1.167 2.526-1.406 1.008-.252 2.146-.209 3.413.131 1.876.517 3.188 1.414 3.936 2.689.748 1.275.947 2.732.597 4.37a61.08 61.08 0 0 1-.512 2.079c-.157.585-.35 1.25-.58 1.995-.538 1.617-1.437 2.802-2.698 3.554-1.258.738-2.85.856-4.775.356Zm.812-3.03c.682.183 1.25.096 1.704-.26.471-.366.831-.957 1.08-1.771.135-.396.323-1.04.562-1.932.239-.891.395-1.529.468-1.912.185-.802.171-1.477-.04-2.026-.21-.549-.662-.924-1.355-1.124-.686-.169-1.265-.071-1.736.296-.457.37-.806.948-1.047 1.735a61.22 61.22 0 0 0-.53 1.895 66.014 66.014 0 0 0-.5 1.949c-.394 1.746.071 2.796 1.394 3.15ZM73.15 223.931a.604.604 0 0 1-.358-.252.527.527 0 0 1-.045-.415l.515-1.923-1.546-.414a.572.572 0 0 1-.337-.247.575.575 0 0 1-.045-.415l.213-.794a.53.53 0 0 1 .247-.337.529.529 0 0 1 .415-.045l1.546.414.285-1.066-1.545-.414a.572.572 0 0 1-.337-.247.575.575 0 0 1-.046-.415l.426-1.588a.53.53 0 0 1 .247-.337.575.575 0 0 1 .415-.045l1.546.414 1.64-6.122a.53.53 0 0 1 .248-.337.607.607 0 0 1 .436-.04l5.849 1.567c1.782.478 3.072 1.263 3.868 2.358.8 1.08.987 2.414.562 4.002-.396 1.476-1.203 2.454-2.421 2.934-1.2.47-2.699.464-4.495-.017l-2.486-.666-.286 1.065 2.8.75a.526.526 0 0 1 .336.247.527.527 0 0 1 .046.415l-.213.794a.577.577 0 0 1-.247.337.529.529 0 0 1-.415.046l-2.8-.75-.515 1.922a.492.492 0 0 1-.268.331.525.525 0 0 1-.415.046l-2.82-.756Zm7.884-6.442c.612.164 1.127.138 1.543-.079.434-.227.734-.647.898-1.26.153-.571.114-1.067-.117-1.487-.227-.434-.667-.738-1.322-.914l-2.465-.66-1.002 3.74 2.465.66ZM56.38 129.916a.278.278 0 0 1-.176-.134.278.278 0 0 1-.028-.219l.734-2.739c-.216.124-.514.186-.895.183a4.851 4.851 0 0 1-1.125-.164c-.952-.255-1.598-.673-1.94-1.254-.342-.581-.39-1.328-.146-2.241l.7-2.612a.254.254 0 0 1 .134-.175.28.28 0 0 1 .22-.029l1.044.28a.295.295 0 0 1 .187.137.254.254 0 0 1 .028.219l-.678 2.531c-.124.464-.1.836.074 1.114.184.274.547.483 1.089.628a2.69 2.69 0 0 0 1.138.068c.364-.06.592-.26.683-.6l.781-2.914a.254.254 0 0 1 .134-.175.28.28 0 0 1 .22-.029l1.044.28a.295.295 0 0 1 .187.137c.04.069.049.142.028.219l-2.028 7.568a.279.279 0 0 1-.134.176.294.294 0 0 1-.23.025l-1.045-.28ZM61.139 131.315a2.633 2.633 0 0 1-1.029-.524 2.147 2.147 0 0 1-.603-.858 1.603 1.603 0 0 1-.04-.969c.142-.526.469-.894.981-1.105.513-.211 1.156-.275 1.93-.193l1.652.194.066-.244c.09-.34.074-.618-.05-.834-.125-.216-.377-.375-.756-.476-.255-.068-.478-.074-.667-.017-.18.051-.328.111-.446.179-.12.076-.2.125-.239.148-.056.084-.126.115-.211.092l-.894-.239a.292.292 0 0 1-.167-.119.26.26 0 0 1-.02-.205c.06-.191.212-.387.456-.587.252-.198.592-.335 1.019-.411.426-.077.914-.041 1.464.106.913.244 1.523.628 1.83 1.15.309.522.373 1.115.195 1.781l-.977 3.645a.28.28 0 0 1-.134.175.253.253 0 0 1-.219.028l-.94-.251a.28.28 0 0 1-.175-.134.278.278 0 0 1-.029-.219l.122-.453a1.994 1.994 0 0 1-.896.419c-.351.072-.759.046-1.223-.079Zm.69-.997c.425.114.811.068 1.156-.138.346-.206.59-.576.733-1.11l.066-.243-1.21-.125c-.468-.051-.839-.03-1.112.063-.266.094-.429.254-.49.478a.683.683 0 0 0 .159.664c.171.196.404.333.698.411ZM65.746 134.789a.278.278 0 0 1-.175-.134.254.254 0 0 1-.028-.219l2.06-7.684a.256.256 0 0 1 .133-.176.28.28 0 0 1 .22-.028l.916.245a.255.255 0 0 1 .176.135.254.254 0 0 1 .028.219l-.124.464c.586-.457 1.282-.577 2.087-.362.78.21 1.314.618 1.6 1.225.286.599.333 1.321.14 2.165-.017.095-.05.232-.097.41-.05.185-.091.324-.124.414-.248.804-.649 1.402-1.202 1.793-.55.384-1.216.471-1.997.261-.782-.209-1.304-.643-1.567-1.303l-.706 2.635a.256.256 0 0 1-.134.176.256.256 0 0 1-.22.028l-.986-.264Zm3.516-2.629c.836.224 1.418-.171 1.748-1.186a3.89 3.89 0 0 0 .105-.345c.042-.155.069-.272.082-.351.222-1.044-.085-1.678-.92-1.902-.45-.12-.82-.066-1.114.162-.293.229-.507.549-.643.96l-.13.438-.11.456c-.088.391-.057.756.093 1.095.16.333.456.557.889.673ZM72.602 135.63a.278.278 0 0 1-.176-.134.254.254 0 0 1-.028-.219l.522-1.95a.278.278 0 0 1 .135-.176.28.28 0 0 1 .218-.028l.093.025c.302.081.587-.1.855-.543.268-.442.537-1.17.81-2.184l.42-1.567c.022-.085.067-.144.133-.175a.276.276 0 0 1 .22-.029l4.13 1.107c.086.023.144.067.176.134a.254.254 0 0 1 .028.219l-1.21 4.515.523.14c.085.023.143.067.175.134a.254.254 0 0 1 .028.219l-.525 1.962a.254.254 0 0 1-.135.175.253.253 0 0 1-.219.029l-.951-.255a.295.295 0 0 1-.187-.137.278.278 0 0 1-.029-.219l.268-.999-3.69-.988-.268.998a.256.256 0 0 1-.134.176.256.256 0 0 1-.22.028l-.962-.258Zm4.818-1.409.955-3.563-1.718-.46-.208.777c-.357 1.331-.789 2.215-1.296 2.651l2.267.595ZM89.437 138.386c.02.047.023.101.006.163a.193.193 0 0 1-.11.132c-.049.028-.112.032-.19.012l-1.16-.311a.384.384 0 0 1-.278-.261l-.908-2.694-.72-.193-.584 2.182a.281.281 0 0 1-.134.176.256.256 0 0 1-.22.028l-.94-.252a.274.274 0 0 1-.175-.134.279.279 0 0 1-.028-.219l.585-2.182-.72-.193-2.133 1.88c-.124.091-.248.12-.371.087l-1.172-.314a.274.274 0 0 1-.159-.105.194.194 0 0 1-.03-.17.276.276 0 0 1 .1-.135l2.658-2.261-.99-2.99a.241.241 0 0 1-.006-.163.21.21 0 0 1 .098-.135.29.29 0 0 1 .202-.009l1.032.277a.346.346 0 0 1 .174.096.616.616 0 0 1 .102.177l.81 2.543.731.196.557-2.077a.254.254 0 0 1 .135-.176.276.276 0 0 1 .219-.028l.94.251a.256.256 0 0 1 .175.134.256.256 0 0 1 .028.22l-.556 2.077.707.19 1.998-1.791c.11-.104.232-.137.363-.102l1.045.28c.07.018.122.053.158.104a.194.194 0 0 1 .03.17.276.276 0 0 1-.1.135l-2.352 2.094 1.183 3.291ZM96.877 137.38c-.015.087-.047.22-.094.398-.046.17-.083.293-.112.368-.246.764-.677 1.303-1.292 1.62-.608.318-1.368.355-2.28.11-.96-.257-1.61-.696-1.949-1.318-.33-.627-.383-1.433-.16-2.419l.175-.699.198-.694c.318-1.092.71-1.871 1.174-2.335a2.838 2.838 0 0 1 1.704-.837c.672-.094 1.725-.123 3.158-.087l.061.003a.275.275 0 0 1 .156.117c.043.053.06.115.049.187l-.055.807-.007.072a.255.255 0 0 1-.101.147.323.323 0 0 1-.173.041l-.393-.018c-.977-.038-1.686-.037-2.128.002-.431.034-.791.17-1.079.408-.288.238-.526.647-.714 1.227.248-.183.541-.303.88-.362a2.44 2.44 0 0 1 1.03.052c.813.218 1.384.611 1.712 1.18.329.569.408 1.246.24 2.03Zm-1.768.285a2.6 2.6 0 0 0 .092-.298c.044-.163.07-.28.082-.352.113-.483.095-.882-.053-1.196-.146-.321-.405-.531-.776-.63-.425-.114-.797-.073-1.115.124-.316.189-.546.521-.69.997l-.105.345-.07.305c-.115.491-.095.895.061 1.21.156.316.44.529.85.638.41.11.76.071 1.05-.116.301-.193.525-.535.674-1.027ZM99.895 141.697c-.859-.23-1.477-.661-1.855-1.293-.368-.638-.446-1.414-.235-2.327l.067-.293.089-.288c.275-.871.731-1.491 1.37-1.86.645-.366 1.393-.435 2.244-.207.913.245 1.542.712 1.888 1.401.354.692.406 1.503.157 2.431l-.065.244a.28.28 0 0 1-.134.175.292.292 0 0 1-.231.026l-3.853-1.032-.025.093c-.099.429-.079.82.059 1.172.148.347.415.572.802.675.456.123.871.043 1.245-.238a.795.795 0 0 1 .206-.119.461.461 0 0 1 .207.018l.998.267c.07.019.121.057.155.116a.184.184 0 0 1 .041.173c-.05.186-.221.376-.514.571-.283.19-.654.323-1.114.399-.46.075-.961.041-1.502-.104Zm2.268-3.311.009-.035c.123-.457.105-.855-.052-1.196-.15-.339-.426-.562-.828-.67-.403-.108-.753-.052-1.052.166-.3.219-.51.556-.632 1.013l-.01.035 2.565.687ZM109.68 143.808a.21.21 0 0 1 .017.166.19.19 0 0 1-.11.132.272.272 0 0 1-.19.012l-1.172-.314c-.123-.033-.216-.12-.278-.261l-.899-2.679-.859-.23-.581 2.17a.284.284 0 0 1-.134.176.282.282 0 0 1-.22.028l-.951-.255a.278.278 0 0 1-.176-.134.28.28 0 0 1-.028-.219l1.468-5.479a.28.28 0 0 1 .135-.175.279.279 0 0 1 .219-.029l.951.255a.281.281 0 0 1 .176.134.282.282 0 0 1 .028.22l-.557 2.077.859.23 1.974-1.797a.587.587 0 0 1 .177-.102.335.335 0 0 1 .198.003l1.033.277c.077.02.134.056.17.108a.191.191 0 0 1 .029.169.266.266 0 0 1-.098.135l-2.344 2.109 1.163 3.273ZM46.329 158.417c-.543-.145-.997-.36-1.36-.644a2.297 2.297 0 0 1-.755-1.031 2.085 2.085 0 0 1-.03-1.262 1.98 1.98 0 0 1 .59-.995 2.051 2.051 0 0 1 1.019-.5 1.805 1.805 0 0 1-.48-.8 1.935 1.935 0 0 1 .027-.978c.165-.613.516-1.034 1.055-1.262.548-.234 1.198-.251 1.95-.049.745.199 1.293.536 1.643 1.011.36.469.458 1.007.295 1.613a1.869 1.869 0 0 1-.476.858 1.833 1.833 0 0 1-.797.469c.303.261.514.574.632.942.12.36.124.746.014 1.157-.12.446-.339.805-.658 1.078-.32.272-.712.443-1.178.513-.458.064-.955.024-1.491-.12Zm1.173-4.377c.42.105.8.091 1.142-.041a1.01 1.01 0 0 0 .65-.711 1.018 1.018 0 0 0-.205-.95c-.22-.291-.543-.493-.968-.606-.432-.116-.818-.108-1.16.025-.334.134-.55.379-.644.734-.094.348-.03.664.193.948.23.285.56.486.992.601Zm-.949 3.542c.487.13.928.114 1.323-.049.394-.163.647-.45.757-.861.11-.411.034-.782-.228-1.114-.262-.331-.637-.562-1.124-.693-.494-.132-.938-.12-1.33.036-.393.156-.644.44-.755.85-.11.411-.035.786.225 1.124.26.339.638.574 1.132.707ZM51.359 156.764a.273.273 0 0 1-.16-.11.274.274 0 0 1-.016-.195l.106-.397a.236.236 0 0 1 .108-.15.252.252 0 0 1 .197-.026l3.133.84c.07.018.12.058.148.118a.214.214 0 0 1 .028.186l-.106.397a.248.248 0 0 1-.12.158.23.23 0 0 1-.185.018l-3.133-.839ZM56.618 161.061a.216.216 0 0 1-.14-.104.29.29 0 0 1-.007-.181.248.248 0 0 1 .078-.125l2.194-1.797a2.413 2.413 0 0 1-.58-.089 2.728 2.728 0 0 1-1.224-.697 2.385 2.385 0 0 1-.63-1.12 2.505 2.505 0 0 1 .014-1.261c.112-.418.316-.789.612-1.113a2.427 2.427 0 0 1 1.148-.689c.46-.131.972-.12 1.536.031.564.151 1.014.394 1.349.731.342.338.564.722.665 1.152.101.43.095.857-.02 1.282-.1.376-.256.693-.466.95-.21.25-.478.514-.806.792l-2.769 2.27c-.065.05-.128.089-.188.117-.051.024-.118.025-.202.002l-.564-.151Zm1.917-3.102c.293.078.578.087.855.027.286-.065.534-.197.744-.394.211-.205.36-.464.443-.777.084-.314.085-.608.002-.884a1.473 1.473 0 0 0-.447-.713 1.71 1.71 0 0 0-.751-.414 1.71 1.71 0 0 0-.857-.017 1.49 1.49 0 0 0-.734.397 1.653 1.653 0 0 0-.43.769 1.714 1.714 0 0 0-.015.892c.083.276.228.512.437.71.21.191.461.325.753.404ZM64.076 163.171c-.898-.241-1.486-.678-1.764-1.312-.277-.634-.316-1.38-.117-2.237.044-.19.122-.494.234-.912.115-.432.203-.744.262-.937.245-.83.65-1.45 1.215-1.858.566-.416 1.295-.504 2.186-.265.898.24 1.489.682 1.772 1.325.285.636.325 1.375.122 2.216-.09.394-.167.709-.23.946-.062.23-.15.531-.265.903-.256.842-.662 1.469-1.22 1.879-.558.411-1.29.495-2.195.252Zm.241-.898c.522.14.962.071 1.32-.206.365-.276.64-.729.823-1.359.123-.4.208-.691.256-.872.053-.195.122-.482.21-.862.153-.63.145-1.159-.024-1.585-.17-.426-.519-.71-1.048-.851-.522-.14-.966-.069-1.333.213-.36.285-.63.738-.813 1.362l-.24.853-.225.881c-.156.637-.148 1.165.023 1.584.179.421.529.702 1.051.842ZM71.611 165.078a.274.274 0 0 1-.16-.111.272.272 0 0 1-.015-.194l.403-1.504-3.384-.907a.269.269 0 0 1-.161-.11.272.272 0 0 1-.015-.194l.112-.418a.546.546 0 0 1 .199-.283l4.318-3.579a.323.323 0 0 1 .19-.084.519.519 0 0 1 .244.01l.752.201c.07.019.118.058.147.118a.217.217 0 0 1 .028.187l-1.184 4.418.94.252a.25.25 0 0 1 .158.121.217.217 0 0 1 .028.187l-.114.428a.24.24 0 0 1-.305.176l-.95-.255-.404 1.504a.248.248 0 0 1-.12.158.23.23 0 0 1-.184.018l-.523-.139Zm.476-2.695.96-3.583-3.477 2.909 2.517.674ZM75.594 163.256a.275.275 0 0 1-.161-.111.272.272 0 0 1-.015-.194l.106-.397a.23.23 0 0 1 .108-.15.248.248 0 0 1 .197-.026l3.133.839c.07.019.119.058.147.118a.217.217 0 0 1 .029.187l-.107.397a.25.25 0 0 1-.12.158.235.235 0 0 1-.184.018l-3.133-.839ZM82.263 168.043c-.544-.146-.997-.361-1.361-.645a2.294 2.294 0 0 1-.754-1.03 2.088 2.088 0 0 1-.031-1.263c.11-.411.307-.742.591-.994.286-.26.626-.426 1.019-.5a1.817 1.817 0 0 1-.48-.8 1.94 1.94 0 0 1 .027-.979c.164-.612.516-1.033 1.055-1.262.548-.234 1.198-.25 1.95-.049.745.2 1.292.537 1.643 1.011.36.47.457 1.007.295 1.613a1.865 1.865 0 0 1-.476.858 1.824 1.824 0 0 1-.798.469c.304.261.514.575.632.942.12.361.125.746.015 1.157-.12.446-.339.805-.658 1.078-.32.273-.713.444-1.179.513-.457.064-.954.024-1.49-.119Zm1.173-4.377c.42.104.8.091 1.141-.042.342-.132.558-.369.65-.71a1.021 1.021 0 0 0-.204-.951c-.221-.29-.544-.492-.968-.606-.432-.116-.819-.107-1.16.025-.335.134-.55.379-.645.734-.093.349-.028.664.194.948.23.285.56.486.992.602Zm-.95 3.541c.488.13.929.114 1.323-.049.395-.163.647-.45.757-.861.11-.411.034-.782-.227-1.113-.262-.332-.637-.563-1.124-.693-.495-.133-.938-.121-1.33.035-.394.156-.645.44-.755.851-.11.411-.035.785.225 1.124.26.338.637.573 1.132.706ZM88.694 169.765c-.55-.147-1.004-.362-1.361-.644-.349-.288-.589-.602-.721-.944a1.724 1.724 0 0 1-.083-.985.188.188 0 0 1 .102-.129.218.218 0 0 1 .173-.021l.512.137c.146.039.223.142.23.308-.002.373.127.672.387.899.262.219.595.383.999.491.494.133.918.123 1.272-.028.356-.159.593-.457.71-.896.227-.843-.172-1.401-1.196-1.675l-.992-.266a.278.278 0 0 1-.16-.11.274.274 0 0 1-.016-.195l.076-.282a.449.449 0 0 1 .19-.251l2.62-1.672-3.081-.825a.275.275 0 0 1-.161-.111.271.271 0 0 1-.015-.194l.106-.397a.273.273 0 0 1 .11-.161.252.252 0 0 1 .198-.025l4.167 1.116a.23.23 0 0 1 .158.121c.038.055.046.12.026.197l-.101.376c-.023.084-.082.153-.18.209l-2.617 1.706.164.056c.705.211 1.216.546 1.533 1.004.318.458.387 1.021.208 1.69-.122.453-.342.815-.661 1.088-.32.273-.706.446-1.158.519-.45.065-.93.03-1.438-.106ZM93.438 170.924a.22.22 0 0 1-.14-.104.294.294 0 0 1-.007-.182l.046-.088 4.23-5.383-3.425-.918a.269.269 0 0 1-.161-.11.272.272 0 0 1-.015-.194l.112-.418a.249.249 0 0 1 .11-.161.252.252 0 0 1 .197-.026l4.282 1.147a.23.23 0 0 1 .158.121.23.23 0 0 1 .026.197l-.104.387a1.202 1.202 0 0 1-.192.385l-4.18 5.318a.65.65 0 0 1-.175.155.23.23 0 0 1-.198.025l-.564-.151ZM98.553 169.406a.274.274 0 0 1-.16-.111.272.272 0 0 1-.016-.194l.107-.397a.23.23 0 0 1 .107-.15.248.248 0 0 1 .197-.026l3.134.839a.218.218 0 0 1 .147.118.214.214 0 0 1 .028.187l-.106.397a.251.251 0 0 1-.121.158.23.23 0 0 1-.184.018l-3.133-.839ZM104.23 168.832c-.052-.058-.066-.129-.044-.213a.228.228 0 0 1 .075-.114.296.296 0 0 1 .083-.056l.937-.488-.993-.389-.078-.044c-.052-.029-.084-.078-.095-.148a.233.233 0 0 1 .027-.183l.336-.504c.029-.052.079-.083.149-.094a.223.223 0 0 1 .123-.001.178.178 0 0 1 .05.025l.072.064.761.752.063-1.069.012-.086a.241.241 0 0 1 .291-.169l.574.154a.207.207 0 0 1 .138.115.232.232 0 0 1 .031.177l-.033.08-.481.958 1.046-.269.095-.019a.132.132 0 0 1 .055.003.265.265 0 0 1 .135.081.162.162 0 0 1 .053.138l.039.604-.006.065a.26.26 0 0 1-.091.132.205.205 0 0 1-.138.053l-.078.002-1.065-.163.577.894c.031.053.045.083.043.09.017.049.02.095.009.137a.22.22 0 0 1-.145.162l-.552.222a.306.306 0 0 1-.144-.005c-.09-.024-.146-.069-.165-.134a.037.037 0 0 0-.005-.024.26.26 0 0 1-.018-.06l-.184-1.068-.693.833a.273.273 0 0 1-.045.044c-.009.005-.015.011-.016.018-.05.046-.12.057-.211.033a.307.307 0 0 1-.127-.068l-.367-.468ZM108.891 170.081a.218.218 0 0 1-.044-.213.237.237 0 0 1 .076-.114.294.294 0 0 1 .082-.057l.937-.488-.993-.389-.078-.043c-.052-.029-.083-.078-.094-.149a.223.223 0 0 1 .026-.183l.337-.503c.029-.052.078-.084.148-.095a.233.233 0 0 1 .123 0 .202.202 0 0 1 .05.024l.072.064.761.753.063-1.069.012-.087a.238.238 0 0 1 .291-.168l.575.154a.207.207 0 0 1 .137.115.23.23 0 0 1 .031.176l-.033.081-.48.957 1.045-.268.095-.02a.119.119 0 0 1 .055.004.265.265 0 0 1 .135.081.159.159 0 0 1 .053.137l.04.604-.007.066a.258.258 0 0 1-.091.132.21.21 0 0 1-.137.053l-.079.001-1.065-.162.578.894c.03.053.045.083.043.09a.238.238 0 0 1 .008.136.218.218 0 0 1-.144.163l-.552.222a.324.324 0 0 1-.145-.005c-.09-.025-.145-.069-.165-.134.002-.007 0-.015-.005-.024a.24.24 0 0 1-.017-.061l-.184-1.068-.694.833a.209.209 0 0 1-.045.044c-.009.005-.014.011-.016.018-.05.047-.12.058-.211.034a.325.325 0 0 1-.127-.068l-.367-.468ZM113.552 171.33a.22.22 0 0 1-.043-.214.237.237 0 0 1 .075-.114c.002-.007.029-.026.082-.056l.937-.488-.993-.389-.078-.044c-.052-.028-.083-.078-.094-.148a.224.224 0 0 1-.001-.123.205.205 0 0 1 .028-.06l.336-.503c.029-.052.078-.084.148-.095a.227.227 0 0 1 .124-.001c.014.004.03.012.049.025l.072.064.761.752.063-1.069.012-.086a.243.243 0 0 1 .105-.14.236.236 0 0 1 .187-.028l.574.153a.206.206 0 0 1 .137.116c.036.061.046.12.031.176l-.033.081-.48.957 1.046-.269.094-.019a.118.118 0 0 1 .055.004.272.272 0 0 1 .136.081c.041.04.058.086.052.137l.04.604-.006.065a.269.269 0 0 1-.092.133.203.203 0 0 1-.137.052l-.079.002-1.065-.162.578.893c.031.053.045.083.043.09a.233.233 0 0 1 .008.137.218.218 0 0 1-.144.163l-.552.221a.305.305 0 0 1-.144-.005c-.091-.024-.146-.069-.166-.134.002-.007 0-.015-.005-.023a.24.24 0 0 1-.017-.061l-.184-1.068-.693.833a.266.266 0 0 1-.046.044c-.009.005-.014.011-.016.018-.05.046-.12.057-.21.033a.305.305 0 0 1-.128-.068l-.367-.467ZM118.213 172.578a.217.217 0 0 1-.043-.213.228.228 0 0 1 .075-.114.31.31 0 0 1 .083-.057l.936-.488-.992-.389-.078-.043c-.052-.029-.084-.078-.095-.148a.227.227 0 0 1 .027-.184l.336-.503c.029-.052.079-.083.149-.094a.223.223 0 0 1 .123-.001c.014.004.03.012.049.024l.073.065.761.752.062-1.069.012-.087a.244.244 0 0 1 .105-.139.237.237 0 0 1 .187-.029l.574.154a.203.203 0 0 1 .137.115.226.226 0 0 1 .031.176l-.032.081-.481.958 1.046-.269.095-.019a.117.117 0 0 1 .055.003c.055.015.1.042.135.081a.161.161 0 0 1 .053.137l.039.604-.006.066a.256.256 0 0 1-.092.132.203.203 0 0 1-.137.053l-.079.001-1.064-.162.577.894c.031.053.045.083.043.09.017.049.02.095.008.136a.217.217 0 0 1-.144.163l-.552.222a.306.306 0 0 1-.144-.005c-.091-.024-.146-.069-.166-.134.002-.007.001-.015-.005-.024a.297.297 0 0 1-.017-.06l-.184-1.069-.693.834a.246.246 0 0 1-.046.043c-.008.006-.014.012-.016.019-.049.046-.119.057-.21.033a.307.307 0 0 1-.127-.068l-.368-.468ZM43.594 178.993a.171.171 0 0 1 0 .109.21.21 0 0 1-.105.131.193.193 0 0 1-.166.026l-.956-.257a.313.313 0 0 1-.157-.082.726.726 0 0 1-.08-.15l-.912-2.981-.882-.237-.666 2.489a.22.22 0 0 1-.108.14c-.048.034-.107.041-.175.023l-.845-.226a.225.225 0 0 1-.14-.108.221.221 0 0 1-.023-.175L40 171.65a.256.256 0 0 1 .1-.152.234.234 0 0 1 .185-.02l.845.226a.203.203 0 0 1 .14.107.236.236 0 0 1 .02.185l-.641 2.396.814.228 2.166-2.067c.092-.095.218-.121.38-.078l.918.246c.062.017.104.048.125.093a.195.195 0 0 1 .018.154.293.293 0 0 1-.067.102l-2.514 2.362 1.106 3.561ZM46.266 180.146c-.724-.194-1.235-.53-1.531-1.007-.295-.484-.37-1.055-.228-1.713l.1-.411.12-.406c.203-.636.556-1.088 1.06-1.358s1.111-.31 1.823-.119 1.218.529 1.52 1.014c.3.485.38 1.054.238 1.706a6.033 6.033 0 0 1-.1.411 5.973 5.973 0 0 1-.119.406c-.205.642-.556 1.099-1.053 1.37-.496.266-1.106.301-1.83.107Zm.246-.919c.328.088.61.054.844-.103.236-.162.417-.442.543-.839a4.72 4.72 0 0 0 .107-.36c.048-.179.077-.301.087-.365.09-.407.072-.737-.053-.989-.123-.259-.349-.432-.676-.52-.328-.088-.61-.05-.846.112-.235.156-.415.433-.541.83l-.107.36-.087.365c-.09.407-.073.74.05.999.125.252.351.422.68.51ZM56.022 177.485c.05.013.088.043.115.09.034.049.045.095.033.139l-1.195 4.457a.196.196 0 0 1-.093.124.207.207 0 0 1-.163.016l-.799-.214a.209.209 0 0 1-.133-.095.218.218 0 0 1-.01-.152l.697-2.6-1.483 1.563a.655.655 0 0 1-.175.132c-.047.028-.108.031-.182.011l-.306-.082a.254.254 0 0 1-.153-.1.546.546 0 0 1-.075-.2l-.513-2.058-.687 2.563a.194.194 0 0 1-.093.124.196.196 0 0 1-.155.019l-.798-.214a.21.21 0 0 1-.134-.096.195.195 0 0 1-.018-.154l1.195-4.457a.176.176 0 0 1 .088-.106.186.186 0 0 1 .145-.021l.78.209c.105.028.171.103.199.223l.732 2.983 2.127-2.217c.084-.091.178-.122.284-.094l.77.207ZM62.55 179.233c.05.014.088.044.115.091.034.049.044.095.033.138l-1.195 4.457a.198.198 0 0 1-.093.125.207.207 0 0 1-.163.015l-.799-.213a.21.21 0 0 1-.133-.096.218.218 0 0 1-.01-.152l.697-2.6-1.483 1.564a.702.702 0 0 1-.175.132c-.047.027-.108.031-.182.011l-.306-.082a.255.255 0 0 1-.153-.101.54.54 0 0 1-.076-.199l-.513-2.058-.687 2.562a.196.196 0 0 1-.247.143l-.798-.214a.206.206 0 0 1-.134-.095.196.196 0 0 1-.018-.154l1.195-4.457a.172.172 0 0 1 .088-.106.186.186 0 0 1 .144-.021l.78.209c.105.028.172.102.2.222l.732 2.983 2.127-2.217c.084-.09.178-.121.283-.093l.771.206ZM64.76 185.1c-.687-.184-1.182-.529-1.484-1.034-.294-.51-.357-1.131-.188-1.862l.053-.235.072-.229c.22-.698.585-1.194 1.095-1.488.517-.293 1.115-.348 1.796-.166.73.196 1.234.569 1.51 1.121.283.554.325 1.202.126 1.945l-.052.195a.225.225 0 0 1-.107.14.234.234 0 0 1-.185.02l-3.082-.825-.02.074c-.079.344-.063.656.047.938a.913.913 0 0 0 .641.54c.365.098.698.034.997-.191a.635.635 0 0 1 .165-.095.37.37 0 0 1 .165.014l.798.214a.196.196 0 0 1 .125.093.147.147 0 0 1 .032.138c-.04.149-.177.301-.41.458-.227.151-.524.257-.892.318s-.769.033-1.202-.083Zm1.815-2.649.007-.028c.098-.365.084-.684-.042-.956-.12-.271-.34-.45-.662-.536-.322-.086-.603-.042-.842.133-.24.175-.408.445-.506.81l-.007.028 2.052.549ZM68.286 185.945a.22.22 0 0 1-.14-.107.222.222 0 0 1-.023-.175l1.175-4.383a.224.224 0 0 1 .107-.141.223.223 0 0 1 .176-.022l.77.206a.203.203 0 0 1 .14.107c.034.049.041.108.023.176l-.445 1.662 2.098.562.445-1.662a.206.206 0 0 1 .108-.141.224.224 0 0 1 .175-.023l.77.207a.203.203 0 0 1 .141.107c.033.049.04.107.023.175l-1.175 4.383a.224.224 0 0 1-.107.141.202.202 0 0 1-.176.022l-.77-.206a.223.223 0 0 1-.14-.107.224.224 0 0 1-.023-.176l.468-1.745-2.099-.562-.468 1.745a.224.224 0 0 1-.107.141.205.205 0 0 1-.175.023l-.77-.207ZM75.324 187.83a.22.22 0 0 1-.14-.107.222.222 0 0 1-.023-.175l.97-3.622-1.513-.405a.223.223 0 0 1-.14-.107.236.236 0 0 1-.02-.185l.142-.529a.202.202 0 0 1 .107-.14.22.22 0 0 1 .175-.023l4.215 1.129a.234.234 0 0 1 .15.11c.032.055.04.113.022.175l-.141.529a.257.257 0 0 1-.11.15.234.234 0 0 1-.185.02l-1.504-.403-.97 3.622a.222.222 0 0 1-.108.14.206.206 0 0 1-.175.023l-.752-.202ZM80.148 189.222a2.122 2.122 0 0 1-.823-.419 1.723 1.723 0 0 1-.483-.687c-.09-.257-.1-.515-.03-.775.112-.421.374-.716.784-.884.41-.169.924-.22 1.543-.154l1.322.155.052-.195c.073-.273.06-.495-.04-.668-.1-.172-.3-.299-.604-.381a.976.976 0 0 0-.534-.013 1.61 1.61 0 0 0-.356.143c-.096.061-.16.1-.191.118-.045.068-.101.093-.17.074l-.714-.191a.23.23 0 0 1-.134-.096.206.206 0 0 1-.016-.163c.048-.153.17-.31.365-.47.201-.158.473-.268.814-.329.342-.061.732-.033 1.172.085.73.196 1.218.502 1.465.92.246.417.298.892.155 1.425l-.781 2.915a.224.224 0 0 1-.108.141.206.206 0 0 1-.175.023l-.752-.202a.22.22 0 0 1-.14-.107.222.222 0 0 1-.023-.175l.097-.362c-.19.161-.428.273-.717.335-.28.058-.607.037-.978-.063Zm.552-.798c.34.092.649.055.925-.11.277-.165.472-.461.587-.888l.052-.195-.968-.1c-.374-.041-.67-.024-.89.05-.212.076-.343.204-.39.383a.548.548 0 0 0 .125.532 1.1 1.1 0 0 0 .56.328ZM83.834 192.001a.227.227 0 0 1-.14-.107.205.205 0 0 1-.023-.176l1.648-6.147c.018-.068.054-.115.107-.14a.22.22 0 0 1 .175-.023l.734.196c.068.019.115.054.14.108a.203.203 0 0 1 .023.175l-.1.371c.47-.365 1.026-.461 1.67-.289.625.168 1.052.494 1.28.98.23.479.267 1.057.112 1.732-.013.076-.04.185-.078.328-.04.148-.072.259-.098.331-.2.644-.52 1.122-.962 1.435-.44.306-.973.376-1.598.208-.625-.167-1.043-.514-1.253-1.042l-.565 2.108c-.019.068-.054.115-.108.14-.048.034-.107.041-.175.023l-.789-.211Zm2.813-2.103c.668.179 1.134-.137 1.398-.949.023-.06.051-.152.084-.276a3.22 3.22 0 0 0 .066-.281c.177-.835-.069-1.342-.737-1.521-.359-.096-.656-.053-.89.129a1.56 1.56 0 0 0-.515.768l-.104.351-.087.364c-.071.313-.046.605.073.876.128.266.365.446.712.539ZM95.472 188.052c.056.015.1.05.132.105a.182.182 0 0 1 .027.157l-1.18 4.401a.224.224 0 0 1-.107.141.223.223 0 0 1-.175.022l-.77-.206a.227.227 0 0 1-.141-.107.224.224 0 0 1-.023-.176l.8-2.98-3.048 2.458a.28.28 0 0 1-.29.081l-.706-.189a.232.232 0 0 1-.133-.095.224.224 0 0 1-.023-.176l1.177-4.392a.222.222 0 0 1 .107-.14.224.224 0 0 1 .176-.023l.77.207a.203.203 0 0 1 .14.107.203.203 0 0 1 .023.175l-.801 2.99 3.05-2.467c.094-.081.19-.108.29-.082l.706.189ZM101.257 189.602a.21.21 0 0 1 .131.104.184.184 0 0 1 .028.157l-1.18 4.401a.225.225 0 0 1-.107.141.225.225 0 0 1-.176.023l-.77-.207a.22.22 0 0 1-.14-.107.222.222 0 0 1-.023-.175l.799-2.981-3.047 2.458a.282.282 0 0 1-.29.082l-.707-.189a.23.23 0 0 1-.133-.096.222.222 0 0 1-.023-.175l1.177-4.392a.224.224 0 0 1 .108-.141.223.223 0 0 1 .175-.022l.77.206a.203.203 0 0 1 .141.107c.033.049.04.107.023.175l-.802 2.99 3.05-2.467c.094-.081.191-.108.29-.081l.706.189Zm-1.873-1.179c-.526-.141-.88-.358-1.06-.652-.178-.3-.218-.632-.12-.998a.17.17 0 0 1 .079-.108.165.165 0 0 1 .144-.021l.53.142a.165.165 0 0 1 .115.091.168.168 0 0 1 .014.133c-.095.353.068.585.49.698.42.113.678-.007.772-.36a.17.17 0 0 1 .079-.108.165.165 0 0 1 .145-.021l.539.144a.166.166 0 0 1 .115.091.172.172 0 0 1 .014.133 1.23 1.23 0 0 1-.613.801c-.303.164-.717.176-1.243.035ZM102.412 191.603a.225.225 0 0 1-.14-.107.224.224 0 0 1-.023-.175l.237-.883a.23.23 0 0 1 .11-.149.22.22 0 0 1 .175-.023l.919.246a.235.235 0 0 1 .15.11.237.237 0 0 1 .02.184l-.237.883a.222.222 0 0 1-.107.14.233.233 0 0 1-.184.02l-.92-.246Zm-.871 3.25a.223.223 0 0 1-.14-.107.226.226 0 0 1-.023-.176l.237-.882a.232.232 0 0 1 .109-.149.221.221 0 0 1 .176-.023l.919.246a.235.235 0 0 1 .15.11.237.237 0 0 1 .02.184l-.237.883a.222.222 0 0 1-.107.14.235.235 0 0 1-.185.02l-.919-.246ZM108.015 196.687c-.663-.178-1.133-.503-1.411-.975-.27-.478-.327-1.057-.171-1.738l.09-.374.109-.369c.206-.668.544-1.138 1.015-1.41.479-.277 1.049-.326 1.712-.149.445.12.801.301 1.068.545.266.244.442.503.527.778.092.277.112.535.062.773a.17.17 0 0 1-.096.134.244.244 0 0 1-.173.013l-.445-.119c-.062-.017-.105-.041-.129-.074a.392.392 0 0 1-.053-.174c-.026-.325-.118-.576-.277-.751-.157-.181-.381-.311-.672-.389-.383-.102-.722-.064-1.016.116-.286.176-.504.506-.653.99l-.099.331-.075.319c-.115.5-.092.897.068 1.192.16.295.435.495.825.599.29.078.548.081.773.009.227-.079.433-.253.618-.522a.393.393 0 0 1 .132-.123c.04-.023.09-.026.152-.009l.446.119a.22.22 0 0 1 .14.107.167.167 0 0 1 .016.164 1.51 1.51 0 0 1-.44.638c-.211.196-.493.332-.846.41-.346.08-.746.06-1.197-.061ZM110.962 199.268a.224.224 0 0 1-.14-.108.206.206 0 0 1-.016-.163l1.653-6.166a.208.208 0 0 1 .095-.134.223.223 0 0 1 .175-.022l.427.114a.197.197 0 0 1 .132.105.196.196 0 0 1 .025.166l-.11.408c.475-.383 1.046-.486 1.714-.307.65.174 1.081.509 1.294 1.004.218.496.254 1.069.106 1.72-.012.07-.037.176-.075.318-.039.142-.07.247-.094.313-.196.631-.513 1.11-.953 1.437-.437.321-.978.395-1.622.223-.643-.173-1.082-.539-1.317-1.1l-.577 2.155a.21.21 0 0 1-.096.133.19.19 0 0 1-.166.025l-.455-.121Zm2.618-1.897c.44.118.795.067 1.066-.152.277-.218.485-.547.623-.988.023-.06.05-.149.081-.267.314-1.17.037-1.871-.829-2.103-.427-.114-.787-.058-1.08.169a1.822 1.822 0 0 0-.612.911l-.104.35-.088.365c-.086.368-.053.718.096 1.05.15.333.432.554.847.665ZM118.695 199.548c-.68-.183-1.158-.516-1.433-1.001-.268-.484-.329-1.047-.183-1.692l.097-.401.117-.397c.194-.625.531-1.079 1.011-1.361.482-.289 1.061-.343 1.735-.163.675.181 1.149.517 1.422 1.008.275.485.34 1.046.195 1.685a5.248 5.248 0 0 1-.098.401 5.288 5.288 0 0 1-.116.397c-.195.631-.534 1.088-1.014 1.371-.474.284-1.052.335-1.733.153Zm.192-.715c.39.104.73.062 1.019-.126.295-.186.514-.509.657-.968.023-.06.058-.177.104-.35.047-.174.075-.292.086-.356.105-.469.077-.858-.086-1.167-.156-.307-.429-.513-.819-.618-.39-.104-.733-.063-1.028.123-.296.186-.512.51-.648.971l-.104.35-.086.356c-.112.467-.086.855.076 1.164.163.309.439.516.829.621ZM125.119 201.169a.25.25 0 0 1-.143-.098.244.244 0 0 1-.013-.173l.468-1.746c-.396.213-.909.235-1.54.065-.563-.15-.957-.389-1.182-.714-.224-.326-.266-.752-.125-1.278l.421-1.569a.208.208 0 0 1 .095-.134.223.223 0 0 1 .175-.022l.455.121a.193.193 0 0 1 .131.105.19.19 0 0 1 .025.166l-.405 1.514c-.075.278-.049.504.077.677.128.167.365.297.711.39.403.108.725.141.969.1a.53.53 0 0 0 .459-.414l.446-1.662a.206.206 0 0 1 .095-.134.223.223 0 0 1 .175-.023l.464.124a.197.197 0 0 1 .132.105.196.196 0 0 1 .025.166l-1.18 4.402a.223.223 0 0 1-.107.14.208.208 0 0 1-.164.016l-.464-.124ZM127.392 201.777a.238.238 0 0 1-.143-.098.236.236 0 0 1-.013-.172l1.179-4.402a.208.208 0 0 1 .096-.133.22.22 0 0 1 .175-.023l.446.119a.195.195 0 0 1 .131.105.192.192 0 0 1 .025.166l-.478 1.783 2.525.676.478-1.783a.21.21 0 0 1 .096-.133.223.223 0 0 1 .175-.023l.436.117a.193.193 0 0 1 .131.105.193.193 0 0 1 .026.166l-1.18 4.401a.212.212 0 0 1-.271.157l-.436-.117a.246.246 0 0 1-.143-.098.244.244 0 0 1-.014-.173l.503-1.876-2.525-.676-.503 1.875a.212.212 0 0 1-.271.157l-.445-.12ZM134.788 203.858c-.68-.182-1.158-.516-1.433-1.001-.268-.483-.33-1.047-.183-1.691l.097-.402.117-.397c.194-.624.531-1.078 1.011-1.361.482-.289 1.061-.343 1.735-.162.675.181 1.149.517 1.422 1.008.274.485.34 1.046.195 1.684-.012.07-.045.204-.098.402-.053.198-.091.33-.116.397-.196.631-.534 1.088-1.014 1.37-.474.285-1.052.336-1.733.153Zm.192-.715c.39.105.729.063 1.019-.125.295-.186.514-.509.657-.968.023-.061.058-.177.104-.351a3.96 3.96 0 0 0 .085-.355c.106-.469.078-.858-.085-1.167-.156-.308-.429-.514-.819-.618-.39-.104-.733-.064-1.028.123-.296.186-.512.51-.649.971l-.103.35-.086.355c-.112.468-.086.856.076 1.165.163.309.439.516.829.62ZM140.656 205.33a.238.238 0 0 1-.143-.098.24.24 0 0 1-.013-.172l1.179-4.402a.208.208 0 0 1 .096-.133.22.22 0 0 1 .175-.023l3.686.987a.193.193 0 0 1 .131.105.192.192 0 0 1 .025.166l-1.179 4.401a.226.226 0 0 1-.108.141.21.21 0 0 1-.163.016l-.446-.12a.204.204 0 0 1-.133-.095.244.244 0 0 1-.014-.173l1.038-3.872-2.377-.637-1.038 3.872a.221.221 0 0 1-.107.141.21.21 0 0 1-.163.016l-.446-.12ZM147.843 207.355c-.638-.171-1.096-.502-1.375-.995-.272-.498-.335-1.092-.189-1.783l.075-.318.092-.304c.222-.657.575-1.133 1.059-1.428.49-.293 1.047-.356 1.673-.189.687.184 1.16.547 1.42 1.087.261.535.292 1.174.093 1.916l-.042.158a.213.213 0 0 1-.271.157l-3.212-.861-.023.084c-.089.407-.06.783.086 1.127.155.34.417.56.789.659.284.077.532.083.741.02a1.45 1.45 0 0 0 .505-.253.543.543 0 0 1 .156-.098.34.34 0 0 1 .165.015l.455.122a.221.221 0 0 1 .127.083c.029.041.036.09.021.145-.037.137-.167.277-.392.423-.219.147-.502.25-.849.31a2.63 2.63 0 0 1-1.104-.077Zm2.038-2.519.008-.028c.114-.427.09-.805-.074-1.135-.156-.333-.429-.552-.819-.657-.39-.104-.736-.051-1.038.16-.294.207-.498.523-.613.951l-.007.027 2.543.682ZM150.882 209.961a.226.226 0 0 1-.141-.108.21.21 0 0 1-.016-.163l1.653-6.166a.21.21 0 0 1 .096-.134.222.222 0 0 1 .175-.022l.427.114a.195.195 0 0 1 .131.105.192.192 0 0 1 .025.166l-.109.408c.474-.383 1.045-.486 1.714-.307.65.174 1.081.509 1.293 1.004.219.496.254 1.069.106 1.72-.012.07-.037.176-.075.318-.038.142-.07.247-.094.313-.196.631-.513 1.11-.952 1.437-.438.321-.978.395-1.622.223-.644-.173-1.083-.539-1.317-1.1l-.578 2.155a.206.206 0 0 1-.095.133.19.19 0 0 1-.166.025l-.455-.121Zm2.617-1.897c.44.118.795.067 1.066-.152.278-.218.485-.547.623-.988.023-.06.05-.149.082-.267.313-1.17.037-1.871-.83-2.103-.427-.114-.787-.058-1.08.169a1.822 1.822 0 0 0-.612.911l-.104.35-.088.365c-.085.368-.053.718.097 1.05.15.333.432.554.846.665ZM158.568 210.228c-.637-.171-1.095-.502-1.375-.995-.271-.498-.334-1.092-.189-1.783l.076-.318.091-.304c.223-.657.576-1.133 1.06-1.428.49-.293 1.047-.356 1.672-.189.687.184 1.161.547 1.42 1.087.262.535.293 1.174.094 1.916l-.043.158a.221.221 0 0 1-.107.141.21.21 0 0 1-.163.016l-3.213-.861-.022.084c-.089.407-.061.783.086 1.127.154.34.417.56.788.659.285.077.532.083.741.02.218-.068.386-.152.506-.253a.53.53 0 0 1 .156-.098.34.34 0 0 1 .165.015l.455.122a.225.225 0 0 1 .127.083c.028.041.035.09.02.145-.036.137-.167.277-.391.423-.219.147-.502.25-.85.31a2.631 2.631 0 0 1-1.104-.077Zm2.039-2.519.007-.028c.115-.427.09-.805-.074-1.135-.156-.333-.429-.552-.819-.657-.389-.104-.735-.051-1.037.16-.295.207-.499.523-.613.951l-.008.027 2.544.682ZM163.513 211.553c-.452-.121-.807-.293-1.066-.515-.253-.22-.42-.451-.502-.692a1.234 1.234 0 0 1-.042-.658l.005-.018a.155.155 0 0 1 .088-.106.204.204 0 0 1 .142-.012l.437.117c.111.03.17.109.175.236a.8.8 0 0 0 .265.609c.18.147.433.265.761.353.316.084.593.089.832.014a.664.664 0 0 0 .461-.494c.07-.26.047-.472-.068-.635-.108-.169-.313-.293-.617-.374l-.51-.137a.199.199 0 0 1-.125-.093.208.208 0 0 1-.015-.164l.067-.25a.206.206 0 0 1 .095-.134.2.2 0 0 1 .154-.019l.455.122c.526.141.845.004.956-.41a.752.752 0 0 0-.092-.622c-.115-.19-.349-.333-.701-.427-.341-.091-.604-.099-.79-.023-.179.072-.335.223-.47.452a.349.349 0 0 1-.13.114c-.037.017-.087.017-.149 0l-.418-.112a.217.217 0 0 1-.127-.083.182.182 0 0 1-.02-.145c.074-.252.211-.468.411-.646.201-.179.461-.295.78-.349.32-.053.687-.025 1.102.086.433.116.771.28 1.013.491.242.21.397.434.466.672.069.237.074.468.014.69-.068.254-.167.45-.296.588-.122.133-.306.223-.551.27.24.171.387.376.442.616.061.242.051.515-.03.818-.121.452-.4.752-.838.9-.436.142-.958.132-1.564-.03ZM166.822 212.339a.238.238 0 0 1-.143-.098.241.241 0 0 1-.014-.172l1.18-4.402a.208.208 0 0 1 .096-.133.22.22 0 0 1 .175-.023l1.931.517c.569.153.971.386 1.205.701.242.31.309.667.201 1.069-.071.266-.176.46-.315.582a1.263 1.263 0 0 1-.555.25c.198.153.33.354.396.604.072.251.075.501.008.748-.119.446-.368.744-.747.895-.373.152-.844.152-1.413-.001l-2.005-.537Zm2.619-2.274c.303.081.559.08.767-.003a.67.67 0 0 0 .407-.478c.062-.23.021-.413-.121-.55-.141-.144-.369-.258-.684-.343l-1.235-.331-.369 1.375 1.235.33Zm-.507 2.114c.31.083.567.088.772.017a.6.6 0 0 0 .408-.448c.067-.247.034-.448-.097-.603-.129-.161-.364-.286-.704-.378l-1.291-.345-.378 1.411 1.29.346ZM173.765 214.299c-.681-.183-1.159-.516-1.433-1.001-.269-.484-.33-1.047-.184-1.692l.098-.401.116-.397c.194-.625.531-1.079 1.012-1.361.482-.289 1.06-.343 1.735-.163.674.181 1.148.517 1.421 1.008.275.485.34 1.047.196 1.685a5.802 5.802 0 0 1-.098.401 5.66 5.66 0 0 1-.116.397c-.196.631-.534 1.088-1.015 1.371-.474.284-1.051.335-1.732.153Zm.191-.715c.39.104.73.062 1.019-.126.296-.186.515-.509.658-.968.023-.06.057-.177.104-.35.046-.174.074-.292.085-.356.106-.469.077-.858-.085-1.167-.157-.307-.43-.513-.82-.618-.39-.104-.732-.063-1.028.123-.295.186-.511.51-.648.971l-.104.35-.085.356c-.112.467-.087.856.076 1.165.162.309.439.515.828.62ZM177.357 215.161a.238.238 0 0 1-.143-.098.236.236 0 0 1-.013-.172l1.179-4.402a.208.208 0 0 1 .096-.133.22.22 0 0 1 .175-.023l.446.119a.195.195 0 0 1 .131.105.192.192 0 0 1 .025.166l-.478 1.783 2.525.676.478-1.783a.208.208 0 0 1 .096-.133.22.22 0 0 1 .175-.023l.436.117a.188.188 0 0 1 .131.105.192.192 0 0 1 .026.166l-1.18 4.401a.22.22 0 0 1-.107.14.204.204 0 0 1-.164.016l-.436-.116a.246.246 0 0 1-.143-.098.244.244 0 0 1-.014-.173l.503-1.876-2.525-.676-.503 1.875a.212.212 0 0 1-.271.157l-.445-.12ZM188.198 212.89c.05.013.088.044.116.091a.174.174 0 0 1 .03.147l-1.188 4.429a.221.221 0 0 1-.107.141.21.21 0 0 1-.163.016l-.437-.117a.245.245 0 0 1-.143-.098.244.244 0 0 1-.013-.173l.904-3.371-3.496 2.757c-.093.074-.185.099-.278.074l-.418-.112a.23.23 0 0 1-.134-.095.222.222 0 0 1-.018-.154l1.185-4.42a.206.206 0 0 1 .095-.134.224.224 0 0 1 .175-.023l.446.12a.189.189 0 0 1 .131.104.19.19 0 0 1 .025.166l-.898 3.352 3.481-2.74c.093-.074.186-.099.278-.074l.427.114ZM189.934 218.53a.24.24 0 0 1-.143-.098.24.24 0 0 1-.013-.172l1.038-3.872-1.616-.433a.243.243 0 0 1-.142-.098.244.244 0 0 1-.014-.173l.085-.316a.204.204 0 0 1 .095-.133.221.221 0 0 1 .176-.023l4.085 1.094a.197.197 0 0 1 .131.105.196.196 0 0 1 .025.166l-.085.316a.22.22 0 0 1-.107.14.208.208 0 0 1-.164.016l-1.615-.433-1.038 3.872a.238.238 0 0 1-.098.143.202.202 0 0 1-.163.016l-.437-.117ZM193.422 219.465a.243.243 0 0 1-.142-.098.244.244 0 0 1-.014-.173l1.18-4.401a.209.209 0 0 1 .095-.134.226.226 0 0 1 .176-.023l.445.12a.189.189 0 0 1 .131.104.193.193 0 0 1 .026.166l-.366 1.365 1.04.279c.612.164 1.028.431 1.247.802.227.366.27.812.129 1.338-.146.545-.415.904-.806 1.078-.385.175-.903.176-1.553.002l-1.588-.425Zm1.812-.261c.377.101.668.106.872.014.209-.09.358-.299.446-.627.088-.328.066-.592-.066-.794-.125-.199-.377-.349-.754-.451l-.975-.261-.498 1.857.975.262Z"/><defs><filter id="a" width="270.548" height="270.478" x="82.475" y="-7.029" color-interpolation-filters="sRGB" filterUnits="userSpaceOnUse"><feFlood flood-opacity="0" result="BackgroundImageFix"/><feGaussianBlur in="BackgroundImage" stdDeviation="6.5"/><feComposite in2="SourceAlpha" operator="in" result="effect1_backgroundBlur"/><feBlend in="SourceGraphic" in2="effect1_backgroundBlur" result="shape"/></filter><filter id="b" width="270.548" height="270.478" x="82.475" y="-7.029" color-interpolation-filters="sRGB" filterUnits="userSpaceOnUse"><feFlood flood-opacity="0" result="BackgroundImageFix"/><feGaussianBlur in="BackgroundImage" stdDeviation="6.5"/><feComposite in2="SourceAlpha" operator="in" result="effect1_backgroundBlur"/><feBlend in="SourceGraphic" in2="effect1_backgroundBlur" result="shape"/></filter><filter id="d" width="271.405" height="211.858" x="-9.761" y="80.906" color-interpolation-filters="sRGB" filterUnits="userSpaceOnUse"><feFlood flood-opacity="0" result="BackgroundImageFix"/><feGaussianBlur in="BackgroundImage" stdDeviation="6.5"/><feComposite in2="SourceAlpha" operator="in" result="effect1_backgroundBlur"/><feBlend in="SourceGraphic" in2="effect1_backgroundBlur" result="shape"/></filter><filter id="e" width="271.405" height="211.858" x="-9.761" y="80.906" color-interpolation-filters="sRGB" filterUnits="userSpaceOnUse"><feFlood flood-opacity="0" result="BackgroundImageFix"/><feGaussianBlur in="BackgroundImage" stdDeviation="6.5"/><feComposite in2="SourceAlpha" operator="in" result="effect1_backgroundBlur"/><feBlend in="SourceGraphic" in2="effect1_backgroundBlur" result="shape"/></filter><linearGradient id="c" x1="138.752" x2="296.7" y1="49.235" y2="207.233" gradientUnits="userSpaceOnUse"><stop stop-color="#5C687E"/><stop offset="1" stop-color="#fff" stop-opacity="0"/></linearGradient><linearGradient id="f" x1="18.028" x2="233.848" y1="157.926" y2="215.773" gradientUnits="userSpaceOnUse"><stop stop-color="#5C687E"/><stop offset="1" stop-color="#fff" stop-opacity="0"/></linearGradient></defs></svg>