<svg xmlns="http://www.w3.org/2000/svg" width="256" height="196" fill="none"><path fill="#78A1B3" fill-opacity=".18" d="M31.644 12.356c0-5.523 4.402-9.183 9.833-8.176l194.772 36.13c10.861 2.015 19.665 12.603 19.665 23.648v107.723c0 5.523-4.402 9.183-9.832 8.176L51.309 143.726c-10.86-2.014-19.665-12.602-19.665-23.647V12.356Z"/><path fill="#EAEAEA" fill-opacity=".3" d="M18.933 24.324c0-5.523 4.402-9.184 9.832-8.176l194.773 36.126c10.86 2.014 19.665 12.602 19.665 23.647v107.723c0 5.523-4.402 9.184-9.833 8.176L38.598 155.694c-10.861-2.014-19.665-12.602-19.665-23.648V24.324Z"/><path fill="#fff" d="M50.011 130.262c-.525.041-.841.528-.705 1.088s.672.981 1.198.94l-.493-2.028Zm26.578-1.034.246 1.014a.801.801 0 0 0 .369-.119l-.615-.895Zm23.835-14.987-.468-.967a.775.775 0 0 0-.147.072l.615.895Zm37-13.47.467.966a.956.956 0 0 0 .048-.019l-.515-.947Zm38.362-16.915.515.948.013-.006-.528-.942Zm39.095-17.255c.117-.517-.218-1.113-.748-1.331l-8.64-3.548c-.53-.218-1.055.025-1.172.542-.118.518.217 1.114.747 1.331l7.68 3.154-1.7 7.496c-.118.517.217 1.113.747 1.331.53.218 1.055-.025 1.173-.543l1.913-8.432ZM50.504 132.29l26.331-2.048-.492-2.027-26.332 2.047.493 2.028Zm26.7-2.167 23.834-14.988-1.229-1.789-23.834 14.988 1.229 1.789Zm23.687-14.916 37-13.47-.935-1.933-37 13.47.935 1.933Zm37.048-13.489 38.362-16.915-1.031-1.894-38.362 16.914 1.031 1.895Zm38.375-16.92 38.135-17.65-1.057-1.882-38.135 17.65 1.057 1.882Z"/><path stroke="#EEE" d="M0-.5h204.542" transform="matrix(.98325 .1824 0 1 33.46 128.622)"/><path stroke="#EEE" stroke-dasharray="3 6" stroke-linecap="round" stroke-linejoin="round" d="M.5-.5h5.932" transform="matrix(0 -1 .98325 .1824 76.59 136.16)"/><path stroke="#EEE" stroke-dasharray="3 6" stroke-linecap="round" stroke-linejoin="round" d="M.5-.5h24.417" transform="matrix(0 -1 .98325 .1824 99.743 140.455)"/><path stroke="#EEE" stroke-dasharray="3 6" stroke-linecap="round" stroke-linejoin="round" d="M.5-.5h41.978" transform="matrix(0 -1 .98325 .1824 131.068 146.266)"/><path stroke="#EEE" stroke-dasharray="3 6" stroke-linecap="round" stroke-linejoin="round" d="M.5-.5h64.622" transform="matrix(0 -1 .98325 .1824 168.295 153.172)"/><path stroke="#EEE" stroke-dasharray="3 6" stroke-linecap="round" stroke-linejoin="round" d="M.5-.5h87.728" transform="matrix(0 -1 .98325 .1824 202.798 159.572)"/><g filter="url(#a)" opacity=".8"><ellipse fill="#fff" rx="3.232" ry="3.235" transform="matrix(.98325 .1824 0 1 49.804 130.73)"/></g><ellipse fill="#fff" rx="1.847" ry="1.849" transform="matrix(.98325 .1824 0 1 49.805 130.73)"/><g filter="url(#b)" opacity=".8"><ellipse fill="#fff" rx="3.232" ry="3.235" transform="matrix(.98325 .1824 0 1 76.135 128.682)"/></g><ellipse fill="#fff" rx="1.847" ry="1.849" transform="matrix(.98325 .1824 0 1 76.136 128.682)"/><g filter="url(#c)" opacity=".8"><ellipse fill="#fff" rx="3.232" ry="3.235" transform="matrix(.98325 .1824 0 1 99.742 115.039)"/></g><ellipse fill="#fff" rx="1.847" ry="1.849" transform="matrix(.98325 .1824 0 1 99.742 115.039)"/><g filter="url(#d)" opacity=".8"><ellipse fill="#fff" rx="3.232" ry="3.235" transform="matrix(.98325 .1824 0 1 131.068 103.289)"/></g><ellipse fill="#fff" rx="1.847" ry="1.849" transform="matrix(.98325 .1824 0 1 131.068 103.289)"/><g filter="url(#e)" opacity=".8"><ellipse fill="#fff" rx="3.232" ry="3.235" transform="matrix(.98325 .1824 0 1 168.295 86.626)"/></g><ellipse fill="#fff" rx="1.847" ry="1.849" transform="matrix(.98325 .1824 0 1 168.296 86.626)"/><g filter="url(#f)" opacity=".8"><ellipse fill="#fff" rx="3.232" ry="3.235" transform="matrix(.98325 .1824 0 1 202.798 70.844)"/></g><ellipse fill="#fff" rx="1.847" ry="1.849" transform="matrix(.98325 .1824 0 1 202.799 70.844)"/><path fill="#fff" d="m46.536 139.051-2.36-.438v-.41l.905-.767c.177-.15.324-.281.442-.393.118-.115.207-.228.266-.341a.849.849 0 0 0 .088-.393.617.617 0 0 0-.157-.439.718.718 0 0 0-.408-.216.931.931 0 0 0-.433.01c-.128.036-.26.098-.398.186l-.28-.407c.14-.094.301-.168.481-.221.18-.056.395-.061.645-.015.334.062.596.197.786.406.193.209.29.458.29.748 0 .19-.038.36-.113.509a1.645 1.645 0 0 1-.32.421c-.137.135-.3.276-.486.425l-.654.524v.025l1.706.316v.47Zm2.818-1.267c0 .387-.04.709-.123.967-.078.259-.205.445-.378.56-.174.114-.403.145-.689.092a1.222 1.222 0 0 1-.894-.651c-.19-.362-.285-.831-.285-1.408 0-.383.037-.704.113-.964.078-.262.205-.448.378-.56.174-.114.403-.145.688-.092.4.074.699.291.895.651.197.357.295.825.295 1.405Zm-1.848-.343c0 .467.049.826.147 1.077.099.249.269.395.511.44.24.045.41-.039.512-.25.101-.211.152-.552.152-1.022 0-.463-.05-.819-.152-1.068-.102-.252-.272-.4-.512-.445-.242-.045-.413.04-.51.255-.1.212-.148.55-.148 1.013Zm4.657 2.654-2.36-.438v-.41l.905-.767c.177-.151.324-.282.442-.393.118-.115.206-.228.265-.341a.855.855 0 0 0 .089-.393.621.621 0 0 0-.157-.44.723.723 0 0 0-.408-.215.932.932 0 0 0-.433.01c-.128.036-.26.098-.398.186l-.28-.407c.14-.094.301-.168.481-.221.18-.057.395-.062.644-.016.335.063.597.198.787.406.193.21.29.459.29.749 0 .19-.038.36-.113.509a1.663 1.663 0 0 1-.32.421c-.137.134-.3.276-.486.425l-.654.523v.025l1.706.317v.47Zm2.818-1.267c0 .386-.04.709-.123.967-.078.259-.205.445-.378.56-.174.114-.404.145-.689.092a1.222 1.222 0 0 1-.894-.651c-.19-.362-.286-.831-.286-1.408 0-.383.038-.705.114-.964.078-.262.204-.449.378-.56.174-.114.403-.145.688-.092.4.074.698.291.895.651.197.356.295.825.295 1.405Zm-1.849-.343c0 .466.05.826.148 1.077.098.248.269.395.511.44.24.044.41-.039.512-.25.101-.211.152-.552.152-1.022 0-.463-.05-.819-.152-1.068-.102-.252-.272-.401-.512-.445-.242-.045-.413.04-.511.255-.098.212-.148.549-.148 1.013ZM73.322 144.02l-2.36-.438v-.41l.904-.767c.177-.151.325-.282.443-.393.118-.115.206-.228.265-.341a.855.855 0 0 0 .089-.393.621.621 0 0 0-.158-.44.723.723 0 0 0-.408-.215.946.946 0 0 0-.432.009c-.128.037-.26.099-.399.187l-.28-.407c.141-.094.302-.168.482-.221.18-.057.395-.062.644-.016.334.062.597.198.787.406.193.21.29.459.29.749 0 .19-.038.36-.113.509a1.663 1.663 0 0 1-.32.421c-.138.134-.3.276-.487.425l-.653.523v.025l1.706.317v.47Zm2.818-1.267c0 .386-.041.709-.123.967-.079.259-.205.445-.379.56-.173.114-.403.145-.688.092a1.222 1.222 0 0 1-.895-.651c-.19-.362-.285-.831-.285-1.408 0-.383.038-.705.113-.964.079-.262.205-.449.379-.56.174-.114.403-.145.688-.092.4.074.698.291.895.651.197.356.295.825.295 1.405Zm-1.849-.343c0 .466.05.825.148 1.077.098.248.269.395.511.44.24.044.41-.039.511-.25.102-.211.153-.552.153-1.022 0-.463-.051-.819-.153-1.068-.101-.252-.272-.401-.51-.445-.243-.045-.414.04-.512.255-.098.212-.148.549-.148 1.013Zm4.657 2.654-2.36-.438v-.41l.905-.767c.177-.151.325-.282.443-.393.118-.115.206-.229.265-.341a.856.856 0 0 0 .089-.394.62.62 0 0 0-.158-.439.716.716 0 0 0-.408-.215.946.946 0 0 0-.432.009c-.128.037-.261.099-.399.186l-.28-.407c.141-.093.302-.167.482-.22.18-.057.395-.062.644-.016.334.062.596.198.787.406.193.209.29.459.29.749 0 .19-.038.36-.114.509a1.662 1.662 0 0 1-.319.421c-.138.134-.3.276-.487.424l-.654.524v.025l1.706.317v.47Zm2.057.381-.517-.096v-2.37a10.64 10.64 0 0 1 .02-.636c-.042.035-.087.07-.133.105a8.188 8.188 0 0 1-.157.106l-.383.244-.266-.389 1.003-.614.433.08v3.57ZM96.475 148.315l-2.36-.438v-.41l.905-.767c.177-.151.324-.282.442-.393.118-.115.207-.228.266-.341a.855.855 0 0 0 .088-.393.622.622 0 0 0-.157-.44.722.722 0 0 0-.408-.215.946.946 0 0 0-.433.009 1.54 1.54 0 0 0-.398.187l-.28-.407c.14-.094.301-.168.481-.221.18-.057.395-.062.644-.016.335.062.597.198.787.406.193.21.29.459.29.749 0 .19-.038.36-.113.509a1.665 1.665 0 0 1-.32.421c-.137.134-.3.276-.486.425l-.654.523v.025l1.706.317v.47Zm2.818-1.267c0 .386-.04.709-.123.967-.078.259-.205.445-.378.56-.174.114-.403.145-.689.092a1.222 1.222 0 0 1-.894-.651c-.19-.362-.285-.831-.285-1.408 0-.383.037-.705.113-.964.078-.262.204-.449.378-.56.174-.114.403-.145.688-.092.4.074.699.291.895.651.197.356.295.825.295 1.405Zm-1.848-.343c0 .466.049.825.147 1.077.099.248.269.395.511.44.24.044.41-.039.512-.25.101-.211.152-.552.152-1.022 0-.463-.05-.819-.152-1.068-.102-.252-.272-.401-.512-.445-.242-.045-.412.04-.51.255-.1.212-.148.549-.148 1.013Zm4.657 2.654-2.36-.438v-.41l.904-.767c.177-.151.325-.282.443-.393.118-.115.206-.229.265-.341a.856.856 0 0 0 .089-.394.623.623 0 0 0-.157-.439.719.719 0 0 0-.408-.216.96.96 0 0 0-.433.01 1.555 1.555 0 0 0-.398.186l-.28-.407c.14-.093.301-.167.481-.22.18-.057.395-.062.644-.016.335.062.597.198.787.406.193.209.29.459.29.749 0 .19-.038.36-.113.509a1.672 1.672 0 0 1-.32.421c-.137.134-.3.276-.486.424l-.654.524v.025l1.706.317v.47Zm2.813.521-2.36-.437v-.41l.905-.767c.177-.151.324-.282.442-.393.118-.115.207-.229.266-.341a.856.856 0 0 0 .088-.394.618.618 0 0 0-.157-.439.719.719 0 0 0-.408-.216.96.96 0 0 0-.433.01c-.128.036-.26.098-.398.186l-.28-.407c.141-.094.301-.167.482-.22.18-.057.395-.062.644-.016.334.062.596.197.786.406.194.209.29.459.29.749 0 .19-.037.36-.113.509a1.667 1.667 0 0 1-.319.421c-.138.134-.3.276-.487.424l-.654.524v.025l1.706.316v.47ZM127.8 154.126l-2.36-.438v-.41l.905-.767c.177-.151.324-.282.442-.393.118-.115.207-.229.266-.341a.856.856 0 0 0 .088-.394.618.618 0 0 0-.157-.439.717.717 0 0 0-.408-.215.948.948 0 0 0-.433.009 1.57 1.57 0 0 0-.398.186l-.28-.407c.141-.093.301-.167.482-.22.18-.057.395-.062.644-.016.334.062.596.198.786.406.194.209.29.459.29.749 0 .19-.037.36-.113.509a1.667 1.667 0 0 1-.319.421c-.138.134-.3.276-.487.424l-.654.524v.025l1.706.317v.47Zm2.818-1.268c0 .387-.041.71-.123.968-.078.258-.204.445-.378.559-.174.115-.403.146-.688.093a1.22 1.22 0 0 1-.895-.651c-.19-.362-.285-.831-.285-1.408 0-.383.037-.705.113-.964.078-.262.205-.449.378-.56.174-.114.403-.145.689-.092.399.074.698.291.894.651.197.356.295.824.295 1.404Zm-1.848-.342c0 .466.049.825.147 1.077.099.248.269.395.512.44.239.044.409-.039.511-.25.102-.212.152-.552.152-1.022 0-.463-.05-.82-.152-1.068-.102-.253-.272-.401-.511-.445-.243-.045-.413.04-.512.255-.098.212-.147.549-.147 1.013Zm4.657 2.653-2.36-.437v-.41l.905-.768c.177-.15.324-.281.442-.392.118-.115.207-.229.266-.341a.856.856 0 0 0 .088-.394.618.618 0 0 0-.157-.439.719.719 0 0 0-.408-.216.96.96 0 0 0-.433.01c-.128.036-.26.098-.398.186l-.28-.407c.141-.094.301-.167.481-.22.181-.057.395-.062.644-.016.335.062.597.197.787.406.193.209.29.459.29.749 0 .19-.038.359-.113.509a1.649 1.649 0 0 1-.32.421 6.198 6.198 0 0 1-.486.424l-.654.524v.025l1.706.316v.47Zm2.676-2.248c0 .243-.069.424-.207.541a.805.805 0 0 1-.526.188v.02c.279.085.488.214.629.387a.92.92 0 0 1 .212.609.91.91 0 0 1-.148.527.744.744 0 0 1-.447.297c-.2.053-.457.051-.772-.008a3.144 3.144 0 0 1-.521-.141 2.172 2.172 0 0 1-.457-.235v-.48a2.527 2.527 0 0 0 .958.413c.299.055.513.038.644-.051.132-.092.197-.242.197-.448 0-.2-.079-.362-.236-.484-.157-.123-.393-.213-.708-.271l-.319-.06v-.435l.324.06c.298.056.515.039.649-.049.134-.089.202-.224.202-.408a.544.544 0 0 0-.158-.399c-.101-.109-.249-.181-.442-.217a1.171 1.171 0 0 0-.472-.003 1.73 1.73 0 0 0-.369.137l-.256-.412a1.44 1.44 0 0 1 .468-.169c.186-.038.401-.035.644.01.363.067.639.2.825.398a.946.946 0 0 1 .286.683ZM165.027 161.031l-2.36-.437v-.41l.905-.768c.177-.15.324-.281.442-.393.118-.114.207-.228.266-.34a.856.856 0 0 0 .088-.394.618.618 0 0 0-.157-.439.719.719 0 0 0-.408-.216.947.947 0 0 0-.433.01c-.128.036-.26.098-.398.186l-.28-.407c.141-.094.301-.167.482-.22.18-.057.395-.062.644-.016.334.062.596.197.786.406.194.209.29.459.29.749 0 .19-.037.359-.113.509a1.645 1.645 0 0 1-.319.42c-.138.135-.3.277-.487.425l-.654.524v.025l1.706.316v.47Zm2.818-1.267c0 .387-.041.709-.122.967-.079.259-.205.446-.379.56-.174.115-.403.145-.688.092a1.217 1.217 0 0 1-.895-.651c-.19-.361-.285-.831-.285-1.407 0-.384.037-.705.113-.964.079-.263.205-.449.378-.56.174-.115.404-.145.689-.093.4.075.698.292.894.651.197.357.295.825.295 1.405Zm-1.848-.343c0 .467.049.826.147 1.078.099.248.269.394.512.439.239.045.409-.039.511-.25.102-.211.152-.551.152-1.021 0-.464-.05-.82-.152-1.069-.102-.252-.272-.4-.511-.445-.243-.045-.413.041-.512.256-.098.211-.147.549-.147 1.012Zm4.657 2.654-2.36-.438v-.41l.905-.767c.177-.15.324-.281.442-.393.118-.115.207-.228.266-.34a.856.856 0 0 0 .088-.394.618.618 0 0 0-.157-.439.719.719 0 0 0-.408-.216.947.947 0 0 0-.433.01c-.128.036-.26.098-.398.186l-.28-.407c.141-.094.301-.167.481-.221.181-.056.395-.061.645-.015.334.062.596.197.786.406.193.209.29.459.29.749 0 .19-.038.359-.113.509a1.645 1.645 0 0 1-.319.42c-.138.135-.3.276-.487.425l-.654.524v.025l1.706.316v.47Zm2.946-.243-.487-.091v.79l-.506-.094v-.79l-1.627-.301v-.42l1.617-2.075.516.095v2.345l.487.091v.45Zm-.993-1.605c0-.156.003-.302.01-.438l.015-.347-.02-.004a1.346 1.346 0 0 1-.098.187 1.024 1.024 0 0 1-.114.164l-.929 1.198 1.136.21v-.97ZM199.53 167.432l-2.36-.438v-.41l.905-.767c.177-.151.324-.282.442-.393.118-.115.207-.229.266-.341a.856.856 0 0 0 .088-.394.618.618 0 0 0-.157-.439.717.717 0 0 0-.408-.215.948.948 0 0 0-.433.009 1.57 1.57 0 0 0-.398.186l-.28-.407c.141-.093.301-.167.482-.22.18-.057.395-.062.644-.016.334.062.596.198.786.406.194.209.29.459.29.749 0 .19-.037.36-.113.509a1.667 1.667 0 0 1-.319.421c-.138.134-.3.276-.487.424l-.654.524v.025l1.706.317v.47Zm2.818-1.268c0 .387-.041.709-.123.968-.078.258-.204.445-.378.559-.174.115-.403.146-.688.093a1.22 1.22 0 0 1-.895-.651c-.19-.362-.285-.831-.285-1.408 0-.383.037-.705.113-.964.078-.262.205-.449.378-.56.174-.114.403-.145.689-.092.399.074.698.291.894.651.197.356.295.824.295 1.404Zm-1.848-.342c0 .466.049.825.147 1.077.099.248.269.395.512.44.239.044.409-.039.511-.25.102-.212.152-.552.152-1.022 0-.464-.05-.82-.152-1.068-.102-.253-.272-.401-.511-.445-.243-.045-.413.04-.512.255-.098.212-.147.549-.147 1.013Zm4.657 2.653-2.36-.437v-.41l.905-.768c.177-.15.324-.281.442-.392.118-.115.207-.229.266-.341a.856.856 0 0 0 .088-.394.618.618 0 0 0-.157-.439.719.719 0 0 0-.408-.216.96.96 0 0 0-.433.01 1.49 1.49 0 0 0-.398.186l-.28-.407c.141-.094.301-.167.481-.22.181-.057.395-.062.644-.016.335.062.597.197.787.406.193.209.29.459.29.749 0 .19-.038.359-.113.509a1.649 1.649 0 0 1-.32.421 6.198 6.198 0 0 1-.486.424l-.654.524v.025l1.706.316v.47Zm1.614-1.915c.347.064.627.208.84.431.213.223.32.504.32.844 0 .373-.116.647-.349.82-.233.17-.562.216-.988.137a2.822 2.822 0 0 1-.517-.146 1.723 1.723 0 0 1-.403-.22v-.485c.118.092.261.175.428.25.171.075.333.126.487.155.246.046.442.025.59-.061.147-.089.221-.255.221-.499a.73.73 0 0 0-.202-.532c-.131-.141-.339-.238-.624-.291a2.998 2.998 0 0 0-.58-.032l-.241-.19.133-1.7 1.804.334v.47l-1.352-.25-.079.92c.056 0 .127.003.212.009.085.003.185.014.3.036Z"/><path fill="#6867A2" fill-opacity=".5" d="M0 132.37c0-5.523 4.391-9.126 9.808-8.049l53.301 10.602c5.417 1.078 9.808 6.428 9.808 11.951v24.792c0 5.523-4.391 9.127-9.808 8.049l-52.32-10.407C4.83 168.123 0 162.237 0 156.162V132.37Z"/><g filter="url(#g)" opacity=".5"><path fill="#fff" d="M51.63 155.036c0 3.367-1.077 6.428-3.068 8.717-1.991 2.29-4.787 3.684-7.964 3.971-3.177.287-6.56-.549-9.639-2.382-3.077-1.832-5.68-4.561-7.414-7.771-1.733-3.21-2.503-6.727-2.191-10.017.312-3.29 1.687-6.173 3.918-8.212 2.23-2.038 5.195-3.121 8.443-3.084 3.247.037 6.601 1.192 9.552 3.29l-2.781 5.094c-1.746-1.241-3.73-1.924-5.65-1.946-1.922-.022-3.675.618-4.995 1.824-1.32 1.206-2.133 2.911-2.317 4.857-.185 1.946.27 4.027 1.296 5.926a12.04 12.04 0 0 0 4.386 4.597c1.82 1.084 3.822 1.578 5.701 1.409 1.88-.17 3.533-.994 4.711-2.349 1.178-1.355 1.815-3.165 1.815-5.157l6.197 1.233Z"/></g><path fill="#EEE" d="M49.82 154.676c0 2.965-.95 5.66-2.703 7.676-1.753 2.017-4.215 3.244-7.013 3.497-2.797.252-5.777-.484-8.488-2.098-2.71-1.613-5.002-4.016-6.529-6.843-1.526-2.827-2.204-5.924-1.93-8.821.275-2.897 1.487-5.436 3.451-7.231 1.965-1.795 4.575-2.749 7.435-2.716 2.86.033 5.813 1.05 8.412 2.897l-2.45 4.486c-1.537-1.093-3.284-1.695-4.976-1.714-1.691-.02-3.235.545-4.397 1.606-1.162 1.062-1.879 2.564-2.041 4.278-.163 1.713.238 3.545 1.141 5.218a10.606 10.606 0 0 0 3.862 4.048c1.603.954 3.366 1.39 5.021 1.24 1.655-.149 3.111-.875 4.149-2.068 1.037-1.193 1.598-2.787 1.598-4.541l5.457 1.086Z"/><defs><filter id="a" width="14.356" height="14.577" x="42.627" y="123.441" color-interpolation-filters="sRGB" filterUnits="userSpaceOnUse"><feFlood flood-opacity="0" result="BackgroundImageFix"/><feBlend in="SourceGraphic" in2="BackgroundImageFix" result="shape"/><feGaussianBlur result="effect1_foregroundBlur" stdDeviation="2"/></filter><filter id="b" width="14.356" height="14.577" x="68.957" y="121.393" color-interpolation-filters="sRGB" filterUnits="userSpaceOnUse"><feFlood flood-opacity="0" result="BackgroundImageFix"/><feBlend in="SourceGraphic" in2="BackgroundImageFix" result="shape"/><feGaussianBlur result="effect1_foregroundBlur" stdDeviation="2"/></filter><filter id="c" width="14.356" height="14.577" x="92.564" y="107.75" color-interpolation-filters="sRGB" filterUnits="userSpaceOnUse"><feFlood flood-opacity="0" result="BackgroundImageFix"/><feBlend in="SourceGraphic" in2="BackgroundImageFix" result="shape"/><feGaussianBlur result="effect1_foregroundBlur" stdDeviation="2"/></filter><filter id="d" width="14.356" height="14.577" x="123.89" y="96" color-interpolation-filters="sRGB" filterUnits="userSpaceOnUse"><feFlood flood-opacity="0" result="BackgroundImageFix"/><feBlend in="SourceGraphic" in2="BackgroundImageFix" result="shape"/><feGaussianBlur result="effect1_foregroundBlur" stdDeviation="2"/></filter><filter id="e" width="14.356" height="14.577" x="161.117" y="79.338" color-interpolation-filters="sRGB" filterUnits="userSpaceOnUse"><feFlood flood-opacity="0" result="BackgroundImageFix"/><feBlend in="SourceGraphic" in2="BackgroundImageFix" result="shape"/><feGaussianBlur result="effect1_foregroundBlur" stdDeviation="2"/></filter><filter id="f" width="14.356" height="14.577" x="195.62" y="63.556" color-interpolation-filters="sRGB" filterUnits="userSpaceOnUse"><feFlood flood-opacity="0" result="BackgroundImageFix"/><feBlend in="SourceGraphic" in2="BackgroundImageFix" result="shape"/><feGaussianBlur result="effect1_foregroundBlur" stdDeviation="2"/></filter><filter id="g" width="46.344" height="47.522" x="13.286" y="128.257" color-interpolation-filters="sRGB" filterUnits="userSpaceOnUse"><feFlood flood-opacity="0" result="BackgroundImageFix"/><feBlend in="SourceGraphic" in2="BackgroundImageFix" result="shape"/><feGaussianBlur result="effect1_foregroundBlur" stdDeviation="4"/></filter></defs></svg>