<svg xmlns="http://www.w3.org/2000/svg" width="24" height="24" fill="none"><path fill="#010101" fill-rule="evenodd" d="M8.25 6v-.75A2.25 2.25 0 0 1 10.5 3h3a2.25 2.25 0 0 1 2.25 2.25V6h3.75a2.25 2.25 0 0 1 2.25 2.25v2.781a2.25 2.25 0 0 1-.751 1.678.78.78 0 0 1 .001.041v6A2.25 2.25 0 0 1 18.75 21H5.25A2.25 2.25 0 0 1 3 18.75v-6l.001-.04a2.25 2.25 0 0 1-.751-1.679V8.25A2.25 2.25 0 0 1 4.5 6h3.75Zm1.5-.75a.75.75 0 0 1 .75-.75h3a.75.75 0 0 1 .75.75V6h-4.5v-.75Zm4.436 10.286L19.5 13.45v5.301a.75.75 0 0 1-.75.75H5.25a.75.75 0 0 1-.75-.75v-5.301l5.314 2.087a2.25 2.25 0 0 0 4.372 0Zm-1.436-.553v.03a.75.75 0 1 1-1.5-.03v-.733h1.5v.733Zm1.5-1.083 5.524-2.17a.75.75 0 0 0 .476-.699V8.25a.75.75 0 0 0-.75-.75h-15a.75.75 0 0 0-.75.75v2.781a.75.75 0 0 0 .476.698L9.75 13.9V13.5a.75.75 0 0 1 .75-.75h3a.75.75 0 0 1 .75.75v.4Z" clip-rule="evenodd"/></svg>