<svg xmlns="http://www.w3.org/2000/svg" width="24" height="24" fill="none"><path fill="#010101" fill-rule="evenodd" d="M19.408 2.47a.75.75 0 0 0-1.06 0l-7.956 7.955a.752.752 0 0 0-.181.293L9.151 13.9a.75.75 0 0 0 .948.948l3.182-1.06a.75.75 0 0 0 .293-.181l7.955-7.955a.75.75 0 0 0 0-1.061L19.408 2.47Zm-7.83 8.89 7.3-7.3 1.06 1.061-7.3 7.3-1.59.53.53-1.59Z" clip-rule="evenodd"/><path fill="#010101" d="M3 3.75a.75.75 0 0 0-.75.75V21c0 .414.336.75.75.75h16.5a.75.75 0 0 0 .75-.75V10.5a.75.75 0 0 0-1.5 0v9.75h-15v-15h9.75a.75.75 0 0 0 0-1.5H3Z"/></svg>