<svg width="24" height="24" viewBox="0 0 24 24" fill="none" xmlns="http://www.w3.org/2000/svg">
<path fill-rule="evenodd" clip-rule="evenodd" d="M8.25 6V5.25C8.25 4.00736 9.25736 3 10.5 3H13.5C14.7426 3 15.75 4.00736 15.75 5.25V6H19.5C20.7426 6 21.75 7.00736 21.75 8.25V11.0313C21.75 11.6843 21.4678 12.2904 20.9989 12.7094C20.9996 12.7228 21 12.7364 21 12.75V18.75C21 19.9926 19.9926 21 18.75 21H5.25C4.00736 21 3 19.9926 3 18.75V12.75C3 12.7364 3.00036 12.7228 3.00108 12.7094C2.53219 12.2904 2.25 11.6843 2.25 11.0313V8.25C2.25 7.00736 3.25736 6 4.5 6H8.25ZM9.75 5.25C9.75 4.83579 10.0858 4.5 10.5 4.5H13.5C13.9142 4.5 14.25 4.83579 14.25 5.25V6H9.75V5.25ZM14.1857 15.5364L19.5 13.4487V18.75C19.5 19.1642 19.1642 19.5 18.75 19.5H5.25C4.83579 19.5 4.5 19.1642 4.5 18.75V13.4487L9.81434 15.5364C10.0549 16.5201 10.9422 17.25 12 17.25C13.0578 17.25 13.9451 16.5201 14.1857 15.5364ZM12.75 14.9829C12.7498 14.9927 12.7497 15.0026 12.7499 15.0124C12.7433 15.4209 12.4101 15.75 12 15.75C11.5899 15.75 11.2567 15.4209 11.2501 15.0124C11.2503 15.0026 11.2502 14.9927 11.25 14.9829V14.25H12.75V14.9829ZM14.25 13.8996L19.7742 11.7293C20.0613 11.6166 20.25 11.3396 20.25 11.0313V8.25C20.25 7.83579 19.9142 7.5 19.5 7.5H4.5C4.08579 7.5 3.75 7.83579 3.75 8.25V11.0313C3.75 11.3396 3.93875 11.6166 4.22576 11.7293L9.75 13.8996V13.5C9.75 13.0858 10.0858 12.75 10.5 12.75H13.5C13.9142 12.75 14.25 13.0858 14.25 13.5V13.8996Z" fill="#43419E"/>
</svg>
