<svg xmlns="http://www.w3.org/2000/svg" width="24" height="24" fill="none"><path fill="#43419E" fill-rule="evenodd" d="M5.25 10.125c0-1.036.84-1.875 1.875-1.875h2.25c1.036 0 1.875.84 1.875 1.875v2.25c0 1.036-.84 1.875-1.875 1.875h-2.25a1.875 1.875 0 0 1-1.875-1.875v-2.25Zm1.875-.375a.375.375 0 0 0-.375.375v2.25c0 .207.168.375.375.375h2.25a.375.375 0 0 0 .375-.375v-2.25a.375.375 0 0 0-.375-.375h-2.25Z" clip-rule="evenodd"/><path fill="#43419E" d="M15.75 8.25a.75.75 0 0 0 0 1.5H18a.75.75 0 0 0 0-1.5h-2.25ZM12.75 12.75a.75.75 0 0 1 .75-.75H18a.75.75 0 0 1 0 1.5h-4.5a.75.75 0 0 1-.75-.75ZM6 15.75a.75.75 0 0 0 0 1.5h12a.75.75 0 0 0 0-1.5H6Z"/><path fill="#43419E" fill-rule="evenodd" d="M2.25 7.5A2.25 2.25 0 0 1 4.5 5.25h15a2.25 2.25 0 0 1 2.25 2.25V18a2.25 2.25 0 0 1-2.25 2.25h-15A2.25 2.25 0 0 1 2.25 18V7.5Zm2.25-.75a.75.75 0 0 0-.75.75V18c0 .414.336.75.75.75h15a.75.75 0 0 0 .75-.75V7.5a.75.75 0 0 0-.75-.75h-15Z" clip-rule="evenodd"/></svg>