<svg width="32" height="32" viewBox="0 0 32 32" fill="none" xmlns="http://www.w3.org/2000/svg">
<path fill-rule="evenodd" clip-rule="evenodd" d="M1.59998 15.9996C1.59998 8.04761 8.04798 1.59961 16 1.59961C23.952 1.59961 30.4 8.04761 30.4 15.9996C30.4 23.9516 23.952 30.3996 16 30.3996C8.04798 30.3996 1.59998 23.9516 1.59998 15.9996ZM20 24.7996C22.656 24.7996 24.8 22.6556 24.8 19.9996V11.9996C24.8 9.34361 22.656 7.19961 20 7.19961H12C9.34398 7.19961 7.19998 9.34361 7.19998 11.9996V19.9996C7.19998 22.6556 9.34398 24.7996 12 24.7996H20ZM20.0003 9.11953H12.0003C10.4163 9.11953 9.1203 10.4155 9.1203 11.9995V19.9995C9.1203 21.5835 10.4163 22.8795 12.0003 22.8795H20.0003C21.5843 22.8795 22.8803 21.5835 22.8803 19.9995V11.9995C22.8803 10.4155 21.5843 9.11953 20.0003 9.11953ZM16.0003 20.3195C13.6163 20.3195 11.6803 18.3835 11.6803 15.9995C11.6803 13.6155 13.6163 11.6795 16.0003 11.6795C18.3843 11.6795 20.3203 13.6155 20.3203 15.9995C20.3203 18.3835 18.3843 20.3195 16.0003 20.3195ZM20.8003 12.0155C20.3523 12.0155 20.0003 11.6635 20.0003 11.2155C20.0003 10.7675 20.3523 10.4155 20.8003 10.4155C21.2483 10.4155 21.6003 10.7675 21.6003 11.2155C21.6003 11.6635 21.2483 12.0155 20.8003 12.0155ZM16 18.3996C17.3255 18.3996 18.4 17.3251 18.4 15.9996C18.4 14.6741 17.3255 13.5996 16 13.5996C14.6745 13.5996 13.6 14.6741 13.6 15.9996C13.6 17.3251 14.6745 18.3996 16 18.3996Z" fill="#3D3D4B"/>
</svg>
