<svg width="73" height="64" fill="none" xmlns="http://www.w3.org/2000/svg"><path d="m31.877 52.606-2.277 9.2M41.123 52.606l2.277 9.2M23.248 61.806h26.504M2 43.406h63.304" stroke="#fff" stroke-width="3" stroke-miterlimit="10" stroke-linecap="round"/><path d="m61.805 22.7-6.9-4.6v9.206l6.9-4.606ZM40.094 17.083a3.595 3.595 0 1 0-3.594-3.594 3.6 3.6 0 0 0 3.594 3.594ZM36.5 13.5h-6.9c-4.6 0-4.6 9.2-9.2 9.2M43.406 31.906h-6.9c-4.6 0-4.6-9.2-9.2-9.2" stroke="#fff" stroke-width="3" stroke-linecap="round" stroke-linejoin="round"/><path d="M54.905 22.7H13.5a11.484 11.484 0 0 1-9.2-4.6M50.051 28.577h-6.646v6.646h6.646v-6.646Z" stroke="#fff" stroke-width="3" stroke-linecap="round" stroke-linejoin="round"/><path d="M2 11.2S2 2 11.2 2h50.6S71 2 71 11.2v32.211s0 9.2-9.2 9.2H11.2s-9.2 0-9.2-9.2" stroke="#fff" stroke-width="3" stroke-miterlimit="10" stroke-linecap="round"/></svg>