<svg width="85" height="66" fill="none" xmlns="http://www.w3.org/2000/svg"><path d="m37.642 54.418-2.36 9.529M47.213 54.418l2.36 9.529M25.752 63.947h33.35M17.404 54.413s-9.529 0-9.529-9.529V34.111L2 28.151l5.875-5.903v-10.72S7.875 2 17.404 2M67.755 54.413s9.529 0 9.529-9.529V34.111l5.875-5.96-5.876-5.903v-10.72S77.284 2 67.755 2" stroke="#fff" stroke-width="3" stroke-linecap="round" stroke-linejoin="round"/><path d="M30.383 54.418H54.47" stroke="#fff" stroke-width="3" stroke-miterlimit="10" stroke-linecap="round"/><path d="m32.392 38.4 20.37-20.377" stroke="#fff" stroke-width="3" stroke-linecap="round" stroke-linejoin="round"/><path d="M16.624 23.391a3.12 3.12 0 1 0 0-6.238 3.12 3.12 0 0 0 0 6.238ZM68.61 23.391a3.12 3.12 0 1 0 0-6.238 3.12 3.12 0 0 0 0 6.238Z" stroke="#fff" stroke-width="3" stroke-miterlimit="10"/><path d="M7.875 41.824s8.135.139 11.868-4.23M77.21 41.824s-8.14.139-11.874-4.23" stroke="#fff" stroke-width="3" stroke-linecap="round" stroke-linejoin="round"/></svg>