<svg width="75" height="75" fill="none" xmlns="http://www.w3.org/2000/svg"><path d="m61.533 24.533 4.374-8.817-6.63-6.63-8.786 4.374a26.871 26.871 0 0 0-5.186-2.13L42.18 2h-9.373l-3.125 9.33a26.585 26.585 0 0 0-5.155 2.13L15.71 9.086l-6.58 6.63 4.374 8.817a26.585 26.585 0 0 0-2.13 5.156l-7.5 2.5a2.737 2.737 0 0 0-1.668 3.63 2.726 2.726 0 0 0 2.519 1.687h5.355m3.38 12.992-4.374 8.785 6.63 6.63 8.817-4.374a26.172 26.172 0 0 0 5.156 2.125L32.813 73h9.373l3.125-9.336a26.45 26.45 0 0 0 5.187-2.125l8.785 4.374 6.63-6.63-4.374-8.785a26.875 26.875 0 0 0 2.131-5.187l7.468-2.5a2.738 2.738 0 0 0 1.874-2.593 2.725 2.725 0 0 0-2.73-2.693h-5.356" stroke="#fff" stroke-width="3" stroke-linecap="round" stroke-linejoin="round"/><path d="m25.896 28.92-8.574 8.574 8.574 8.58M49.179 46.074l8.573-8.58-8.573-8.574M33.757 46.074 42.33 28.92" stroke="#fff" stroke-width="3" stroke-linecap="round" stroke-linejoin="round"/></svg>