<svg width="153" height="24" fill="none" xmlns="http://www.w3.org/2000/svg"><path d="M1.04 23a.852.852 0 0 1-.576-.224.852.852 0 0 1-.224-.576V1.4A.78.78 0 0 1 .464.824.852.852 0 0 1 1.04.6h3.456c.363 0 .63.096.8.288.17.17.277.31.32.416l5.632 10.08 5.632-10.08c.064-.107.17-.245.32-.416.17-.192.437-.288.8-.288h3.424A.78.78 0 0 1 22 .824a.73.73 0 0 1 .256.576v20.8a.796.796 0 0 1-.256.576.78.78 0 0 1-.576.224h-3.808a.893.893 0 0 1-.608-.224.852.852 0 0 1-.224-.576v-12L13.2 16.888a1.908 1.908 0 0 1-.416.512c-.17.15-.405.224-.704.224h-1.664c-.299 0-.533-.075-.704-.224-.17-.15-.31-.32-.416-.512L5.68 10.2v12a.852.852 0 0 1-.224.576.78.78 0 0 1-.576.224H1.04Zm32.26 0a.852.852 0 0 1-.576-.224.852.852 0 0 1-.224-.576v-6.88L25.076 1.624a1.242 1.242 0 0 0-.064-.16.614.614 0 0 1 .16-.64c.15-.15.32-.224.512-.224h4c.32 0 .565.085.736.256.192.15.32.288.384.416l4.576 8.256 4.608-8.256c.064-.128.181-.267.352-.416.192-.17.448-.256.768-.256h4c.192 0 .352.075.48.224a.614.614 0 0 1 .16.64c0 .043-.01.096-.032.16L38.292 15.32v6.88a.796.796 0 0 1-.256.576.78.78 0 0 1-.576.224H33.3Zm16.021 0a.78.78 0 0 1-.576-.224.852.852 0 0 1-.224-.576V1.4a.78.78 0 0 1 .224-.576.78.78 0 0 1 .576-.224h14.72a.78.78 0 0 1 .576.224.78.78 0 0 1 .224.576v3.232a.78.78 0 0 1-.224.576.78.78 0 0 1-.576.224h-9.888v4.704h9.248a.73.73 0 0 1 .576.256.78.78 0 0 1 .224.576v3.2a.852.852 0 0 1-.224.576.78.78 0 0 1-.576.224h-9.248V22.2a.852.852 0 0 1-.224.576.78.78 0 0 1-.576.224h-4.032Zm27.977.32c-1.962 0-3.67-.32-5.12-.96-1.45-.64-2.581-1.6-3.392-2.88-.81-1.301-1.258-2.923-1.344-4.864a117.995 117.995 0 0 1 0-5.536c.086-1.92.534-3.53 1.344-4.832.832-1.323 1.974-2.315 3.424-2.976C73.682.611 75.378.28 77.298.28c1.942 0 3.638.33 5.088.992 1.45.661 2.592 1.653 3.424 2.976.832 1.301 1.28 2.912 1.344 4.832a60.01 60.01 0 0 1 0 5.536c-.064 1.941-.512 3.563-1.344 4.864-.81 1.28-1.941 2.24-3.392 2.88-1.45.64-3.157.96-5.12.96Zm0-4.608c1.13 0 2.048-.341 2.752-1.024.726-.683 1.11-1.77 1.152-3.264a54.634 54.634 0 0 0 0-5.248c-.042-1.003-.234-1.813-.576-2.432-.32-.64-.768-1.11-1.344-1.408-.576-.299-1.237-.448-1.984-.448-.725 0-1.376.15-1.952.448-.576.299-1.034.768-1.376 1.408-.341.619-.533 1.43-.576 2.432a108.652 108.652 0 0 0 0 5.248c.064 1.493.448 2.581 1.152 3.264.726.683 1.643 1.024 2.752 1.024ZM91.728 23a.78.78 0 0 1-.576-.224.852.852 0 0 1-.225-.576V1.4a.78.78 0 0 1 .224-.576.78.78 0 0 1 .577-.224h8.704c2.773 0 4.949.64 6.528 1.92 1.578 1.259 2.368 3.05 2.368 5.376 0 1.515-.363 2.795-1.088 3.84a6.82 6.82 0 0 1-2.88 2.368l4.384 7.872a.796.796 0 0 1 .096.352c0 .17-.075.33-.224.48a.615.615 0 0 1-.448.192h-4.256c-.406 0-.704-.096-.896-.288a2.706 2.706 0 0 1-.416-.576l-3.648-7.04h-3.264V22.2a.796.796 0 0 1-.257.576.78.78 0 0 1-.575.224h-4.128Zm4.96-12.448h3.68c1.002 0 1.749-.245 2.24-.736.512-.49.768-1.152.768-1.984 0-.832-.246-1.504-.736-2.016-.47-.512-1.227-.768-2.272-.768h-3.68v5.504Zm25.455 12.768c-2.006 0-3.734-.33-5.184-.992-1.451-.661-2.582-1.632-3.392-2.912-.79-1.28-1.227-2.87-1.312-4.768-.022-.875-.032-1.813-.032-2.816s.01-1.963.032-2.88c.085-1.856.533-3.435 1.344-4.736.81-1.301 1.941-2.283 3.392-2.944 1.45-.661 3.168-.992 5.152-.992 1.408 0 2.709.181 3.904.544 1.194.341 2.24.853 3.136 1.536a6.895 6.895 0 0 1 2.08 2.432c.512.939.778 2.005.8 3.2a.525.525 0 0 1-.192.48.651.651 0 0 1-.48.192h-4.32c-.278 0-.491-.053-.64-.16-.15-.128-.278-.352-.384-.672-.299-1.13-.79-1.899-1.472-2.304-.662-.427-1.483-.64-2.464-.64-1.174 0-2.102.33-2.784.992-.683.64-1.056 1.717-1.12 3.232a75.277 75.277 0 0 0 0 5.376c.064 1.515.437 2.603 1.12 3.264.682.64 1.61.96 2.784.96.981 0 1.813-.213 2.496-.64.682-.427 1.162-1.195 1.44-2.304.085-.32.202-.533.352-.64.17-.128.394-.192.672-.192h4.32c.192 0 .352.064.48.192a.525.525 0 0 1 .192.48c-.022 1.195-.288 2.272-.8 3.232-.491.939-1.184 1.75-2.08 2.432-.896.661-1.942 1.173-3.136 1.536-1.195.341-2.496.512-3.904.512Zm14.085-.32a.779.779 0 0 1-.576-.224.849.849 0 0 1-.224-.576V1.4c0-.235.074-.427.224-.576a.779.779 0 0 1 .576-.224h14.944c.234 0 .426.075.576.224.149.15.224.341.224.576v3.008a.781.781 0 0 1-.224.576.782.782 0 0 1-.576.224h-10.208v4.32h9.504c.234 0 .426.085.576.256a.78.78 0 0 1 .223.576v2.784a.853.853 0 0 1-.223.576.782.782 0 0 1-.576.224h-9.504v4.448h10.464c.234 0 .426.075.575.224.15.15.225.341.225.576V22.2a.85.85 0 0 1-.225.576.778.778 0 0 1-.575.224h-15.2Z" fill="#fff"/></svg>