<svg width="388" height="286" fill="none" xmlns="http://www.w3.org/2000/svg"><g opacity=".2"><path d="M97.03 118.376c-1.053-12.957-11.574-28.015-23.381-33.502-5.962-2.801-10.99-2.684-14.496-.233l-3.624 2.568h1.169c-1.87 2.685-2.689 6.42-2.338 11.09 1.169 12.956 11.573 28.014 23.38 33.501 4.092 1.867 7.716 2.451 10.755 1.751v1.05l3.741-2.568.117-.116c3.39-2.452 5.26-7.121 4.676-13.541Z" fill="#9FFFF8"/><path d="M88.54 134.646c7.573-5.273 6.317-20.137-2.804-33.199-9.122-13.062-22.656-19.376-30.23-14.103-7.573 5.273-6.318 20.137 2.804 33.199 9.121 13.062 22.656 19.377 30.23 14.103Z" fill="#42E8E0"/><path d="M81.014 133.901c-2.221 0-4.793-.584-7.365-1.868-10.522-4.902-19.874-18.326-20.809-29.882-.468-5.603 1.052-10.04 4.442-12.374 3.274-2.334 7.95-2.218 13.094.117 10.52 4.903 19.873 18.326 20.808 29.883.468 5.603-1.052 10.039-4.442 12.373-1.637 1.167-3.507 1.751-5.728 1.751Zm-18.12-45.174c-2.105 0-3.858.583-5.378 1.634-3.156 2.218-4.676 6.42-4.208 11.79.935 11.322 10.17 24.513 20.574 29.415 4.91 2.335 9.353 2.335 12.51.234 3.156-2.218 4.675-6.42 4.208-11.79-.936-11.323-10.17-24.513-20.575-29.416-2.455-1.284-4.91-1.867-7.131-1.867Z" fill="#18B2A3"/></g><path d="M131.165 262.654c-3.157 0-6.196-.7-8.534-1.984L10.989 196.352c-2.221-1.284-3.507-3.035-3.507-5.02 0-2.334 1.753-4.786 4.91-6.536l212.88-122.684c5.845-3.385 14.612-3.735 19.639-.817l111.642 64.318c2.221 1.284 3.507 3.035 3.507 5.02 0 2.334-1.753 4.786-4.91 6.537l-212.879 122.8c-3.157 1.751-7.248 2.684-11.106 2.684ZM236.377 59.778c-3.741 0-7.715.934-10.872 2.685L12.625 185.262c-2.922 1.751-4.676 3.969-4.676 6.07 0 1.751 1.17 3.386 3.274 4.67l111.642 64.318c4.91 2.801 13.444 2.451 19.172-.817l212.88-122.683c2.922-1.751 4.676-3.969 4.676-6.07 0-1.751-1.169-3.386-3.274-4.67L244.677 61.762c-2.221-1.4-5.143-1.984-8.3-1.984Z" fill="#42E8E0"/><path d="m359.71 100.983-16.016 2.685-98.9-57.081c-4.91-2.919-13.677-2.452-19.406.817L36.123 156.546l-28.29 4.903v10.039c0 1.867 1.052 3.618 3.39 4.902l111.642 64.319c4.91 2.918 13.677 2.451 19.406-.818l212.762-122.683c3.04-1.751 4.677-4.085 4.677-6.186v-10.039Z" fill="url(#a)"/><path d="M122.748 230.67 11.106 166.235c-4.91-2.918-4.326-7.821 1.403-11.206L225.388 32.346c5.729-3.268 14.379-3.619 19.406-.817l111.642 64.318c4.91 2.918 4.326 7.821-1.402 11.206l-212.88 122.8c-5.729 3.268-14.379 3.619-19.406.817Z" fill="#24126A"/><path d="m355.034 107.053-212.88 122.8c-5.729 3.268-14.379 3.619-19.406.817L11.106 166.235c-1.988-1.167-3.04-2.685-3.273-4.202-.351 2.101.818 4.086 3.273 5.486l111.642 64.435c4.91 2.918 13.677 2.451 19.406-.817l212.88-122.683c3.39-1.984 5.026-4.553 4.676-6.887-.351 1.868-1.871 3.969-4.676 5.486Z" fill="#fff"/><path opacity=".51" d="m122.982 228.102-107.668-62.1c-4.793-2.802-4.208-7.588 1.403-10.856L225.622 34.797c5.495-3.151 13.912-3.502 18.705-.817l107.667 62.1c4.793 2.802 4.208 7.588-1.403 10.856L141.686 227.402c-5.494 3.151-13.911 3.502-18.704.7Z" fill="#453C9E"/><path opacity=".5" d="m122.982 225.417-107.668-62.1c-4.793-2.801-4.208-7.587 1.403-10.856L225.622 32.113c5.495-3.152 13.912-3.502 18.705-.817l107.667 62.1c4.793 2.802 4.208 7.587-1.403 10.856L141.686 224.6c-5.494 3.152-13.911 3.502-18.704.817Z" fill="url(#b)"/><path opacity=".8" d="M131.165 227.518c-3.157 0-6.079-.583-8.3-1.867L15.197 163.55c-2.22-1.284-3.39-3.034-3.39-5.019 0-2.334 1.754-4.669 4.793-6.42L225.505 31.762c5.612-3.268 14.146-3.618 19.055-.817l107.668 62.1c2.221 1.285 3.39 3.036 3.39 5.02 0 2.335-1.754 4.669-4.793 6.42L141.92 224.834c-3.04 1.867-7.014 2.684-10.755 2.684Zm-7.95-2.451c4.677 2.685 12.977 2.335 18.354-.817l208.905-120.348c2.806-1.635 4.443-3.736 4.443-5.837 0-1.634-1.053-3.268-3.04-4.436L244.21 31.53c-4.676-2.685-12.976-2.335-18.354.817L16.834 152.811c-2.806 1.635-4.442 3.736-4.442 5.837 0 1.634 1.052 3.268 3.04 4.436l107.783 61.983Z" fill="url(#c)"/><path d="M131.165 227.518c-3.04 0-6.079-.583-8.3-1.867L15.197 163.55c-2.22-1.284-3.39-3.035-3.39-4.902 0-2.335 1.754-4.553 4.676-6.304L225.505 31.879c5.612-3.268 14.146-3.619 18.939-.817l107.667 62.1c2.221 1.284 3.39 3.035 3.39 4.903 0 2.335-1.753 4.552-4.676 6.303L141.803 224.834c-3.039 1.751-6.897 2.684-10.638 2.684Zm-8.066-2.334c4.676 2.685 12.976 2.334 18.47-.817l209.022-120.349c2.806-1.634 4.443-3.735 4.443-5.953 0-1.751-1.053-3.268-3.157-4.436L244.21 31.53c-4.676-2.685-12.976-2.335-18.471.817L16.834 152.695c-2.806 1.634-4.442 3.735-4.442 5.953 0 1.751 1.052 3.268 3.156 4.436l107.551 62.1Z" fill="#42E8E0"/><path d="M172.548 77.054a3.198 3.198 0 0 1-1.636-.467l-11.106-6.42.234-.467 11.106 6.42c.818.467 1.519.584 2.104.233.584-.35.818-1.05.818-1.984v-2.685c0-1.167.351-1.984 1.169-2.334.702-.467 1.637-.35 2.689.233l2.338 1.284-.234.467-2.338-1.284c-.818-.467-1.52-.584-2.104-.233-.585.35-.818 1.05-.818 1.984v2.568c0 1.167-.351 1.984-1.169 2.451-.351.117-.702.234-1.053.234Z" fill="#42E8E0"/><path d="M168.223 79.505a3.202 3.202 0 0 1-1.637-.467l-11.105-6.42.233-.467 11.106 6.42c.818.467 1.52.584 2.104.234.585-.35.819-1.05.819-1.985v-2.685c0-1.167.35-1.984 1.169-2.45.701-.468 1.636-.351 2.689.233l2.338 1.284-.234.466-2.338-1.284c-.819-.466-1.52-.583-2.105-.233-.584.35-.818 1.05-.818 1.984v2.685c0 1.168-.351 1.985-1.169 2.452-.351.116-.701.233-1.052.233Z" fill="#42E8E0"/><path d="M163.898 81.957a3.2 3.2 0 0 1-1.637-.467l-11.106-6.42.234-.467 11.106 6.42c.818.467 1.52.584 2.104.233.585-.35.818-1.05.818-1.984v-2.685c0-1.167.351-1.984 1.169-2.451.702-.467 1.637-.35 2.689.233l2.338 1.284-.234.467-2.338-1.284c-.818-.467-1.519-.584-2.104-.233-.584.35-.818 1.05-.818 1.984v2.685c0 1.167-.351 1.984-1.169 2.334-.351.234-.702.35-1.052.35Z" fill="#42E8E0"/><path d="M159.572 84.408a3.198 3.198 0 0 1-1.636-.467l-11.106-6.42.234-.467 11.105 6.42c.819.467 1.52.584 2.105.233.584-.35.818-1.05.818-1.984v-2.685c0-1.167.351-1.984 1.169-2.451.701-.467 1.637-.35 2.689.233l2.338 1.284-.234.467-2.338-1.284c-.818-.467-1.52-.583-2.104-.233-.585.35-.819 1.05-.819 1.984v2.685c0 1.167-.35 1.984-1.169 2.451-.35.117-.701.234-1.052.234Z" fill="#42E8E0"/><path d="M155.247 86.859a3.202 3.202 0 0 1-1.637-.467l-11.106-6.42.234-.467 11.106 6.42c.818.467 1.52.584 2.104.234.585-.35.819-1.05.819-1.985V81.49c0-1.167.35-1.984 1.169-2.45.701-.468 1.636-.351 2.688.233l2.338 1.284-.233.466-2.338-1.284c-.819-.466-1.52-.583-2.105-.233-.584.35-.818 1.05-.818 1.984v2.685c0 1.167-.351 1.985-1.169 2.452-.351.116-.585.233-1.052.233Z" fill="#42E8E0"/><path d="M151.038 89.31a3.198 3.198 0 0 1-1.636-.466l-11.106-6.42.234-.467 11.105 6.42c.819.467 1.52.583 2.105.233.584-.35.818-1.05.818-1.984V83.94c0-1.167.351-1.984 1.169-2.335.701-.466 1.637-.35 2.689.234l2.338 1.284-.234.467-2.338-1.284c-.818-.467-1.52-.584-2.104-.234-.585.35-.819 1.051-.819 1.985v2.685c0 1.167-.35 1.984-1.169 2.45-.35.118-.701.118-1.052.118Z" fill="#42E8E0"/><path d="M146.713 91.879a3.202 3.202 0 0 1-1.637-.467l-11.105-6.42.233-.467 11.106 6.42c.818.467 1.52.583 2.104.233.585-.35.819-1.05.819-1.984v-2.685c0-1.167.35-1.984 1.169-2.451.701-.467 1.636-.35 2.688.233l2.338 1.284-.233.467-2.338-1.284c-.819-.467-1.52-.584-2.105-.233-.584.35-.818 1.05-.818 1.984v2.685c0 1.167-.351 1.984-1.169 2.451-.351.117-.701.234-1.052.234Z" fill="#42E8E0"/><path d="M142.388 94.33a3.2 3.2 0 0 1-1.637-.467l-11.106-6.42.234-.467 11.106 6.42c.818.467 1.519.584 2.104.233.584-.35.818-1.05.818-1.984V88.96c0-1.167.351-1.984 1.169-2.451.702-.467 1.637-.35 2.689.233l2.338 1.284-.234.467-2.338-1.284c-.818-.467-1.52-.584-2.104-.233-.585.35-.818 1.05-.818 1.984v2.685c0 1.167-.351 1.984-1.169 2.451-.351.117-.702.234-1.052.234Z" fill="#42E8E0"/><path d="M138.062 96.781a3.202 3.202 0 0 1-1.637-.467l-11.105-6.42.234-.467 11.105 6.42c.819.468 1.52.584 2.105.234.584-.35.818-1.05.818-1.984v-2.685c0-1.168.351-1.985 1.169-2.452.701-.466 1.637-.35 2.689.234l2.338 1.284-.234.467-2.338-1.284c-.818-.467-1.52-.584-2.104-.234-.585.35-.819 1.051-.819 1.985v2.685c0 1.167-.35 1.984-1.169 2.45-.35.118-.701.234-1.052.234Z" fill="#42E8E0"/><path d="M133.737 99.233a3.202 3.202 0 0 1-1.637-.467l-11.106-6.42.234-.468 11.106 6.42c.818.468 1.52.584 2.104.234.585-.35.818-1.05.818-1.984v-2.685c0-1.167.351-1.984 1.169-2.335.702-.467 1.637-.35 2.689.234l2.338 1.284-.234.467-2.338-1.284c-.818-.467-1.519-.584-2.104-.234-.584.35-.818 1.05-.818 1.985v2.568c0 1.167-.351 1.984-1.169 2.451-.351.117-.585.234-1.052.234Z" fill="#42E8E0"/><path d="M129.528 101.684a3.2 3.2 0 0 1-1.636-.467l-11.106-6.42.234-.467 11.105 6.42c.819.467 1.52.584 2.105.233.584-.35.818-1.05.818-1.984v-2.685c0-1.167.351-1.984 1.169-2.451.701-.467 1.637-.35 2.689.233l2.338 1.284-.234.467-2.338-1.284c-.818-.467-1.52-.584-2.104-.233-.585.35-.819 1.05-.819 1.984V99c0 1.167-.35 1.984-1.169 2.451-.35.117-.701.234-1.052.234Z" fill="#42E8E0"/><path d="M125.203 104.135a3.194 3.194 0 0 1-1.637-.467l-11.106-6.42.234-.467 11.106 6.421c.818.466 1.52.583 2.104.233.585-.35.819-1.051.819-1.984v-2.569c0-1.167.35-1.984 1.169-2.45.701-.468 1.636-.351 2.688.233l2.338 1.284-.233.467-2.338-1.284c-.819-.467-1.52-.584-2.105-.234-.584.35-.818 1.05-.818 1.984v2.685c0 1.168-.351 1.985-1.169 2.335-.351.233-.701.233-1.052.233Z" fill="#42E8E0"/><path d="M120.877 106.703a3.19 3.19 0 0 1-1.636-.467l-11.106-6.42.234-.467 11.106 6.42c.818.467 1.519.584 2.104.234.584-.35.818-1.051.818-1.985v-2.684c0-1.168.351-1.985 1.169-2.452.702-.467 1.637-.35 2.689.234l2.338 1.284-.234.467-2.338-1.284c-.818-.467-1.52-.584-2.104-.234-.585.35-.818 1.051-.818 1.985v2.684c0 1.168-.351 1.985-1.169 2.452-.351.117-.702.233-1.053.233Z" fill="#42E8E0"/><path d="M116.552 109.154a3.202 3.202 0 0 1-1.637-.466l-11.105-6.421.233-.467 11.106 6.421c.818.467 1.52.583 2.104.233.585-.35.819-1.051.819-1.984v-2.685c0-1.167.35-1.985 1.169-2.451.701-.467 1.636-.351 2.689.233l2.338 1.284-.234.467-2.338-1.284c-.819-.467-1.52-.584-2.105-.234-.584.351-.818 1.051-.818 1.985v2.685c0 1.167-.351 1.984-1.169 2.451-.351.117-.701.233-1.052.233Z" fill="#42E8E0"/><path d="M112.227 111.606a3.201 3.201 0 0 1-1.637-.467l-10.989-6.42.234-.467 11.106 6.42c.818.467 1.519.584 2.104.234.584-.351.818-1.051.818-1.985v-2.685c0-1.167.351-1.984 1.169-2.334.702-.467 1.637-.35 2.689.233l2.338 1.284-.234.467-2.338-1.284c-.818-.467-1.52-.583-2.104-.233-.585.35-.818 1.05-.818 1.984v2.685c0 1.167-.351 1.984-1.169 2.451-.468 0-.702.117-1.169.117Z" fill="#42E8E0"/><path d="M108.018 114.057a3.197 3.197 0 0 1-1.637-.467l-11.105-6.42.234-.467 11.105 6.42c.819.467 1.52.584 2.105.234.584-.35.818-1.051.818-1.985v-2.684c0-1.168.351-1.985 1.169-2.452.701-.467 1.637-.35 2.689.234l2.338 1.284-.234.467-2.338-1.284c-.818-.467-1.52-.584-2.104-.234-.585.35-.819 1.051-.819 1.985v2.684c0 1.168-.35 1.985-1.169 2.452-.35.117-.701.233-1.052.233Z" fill="#42E8E0"/><path d="M103.693 116.508a3.202 3.202 0 0 1-1.637-.466l-11.106-6.421.234-.467 11.106 6.421c.818.467 1.52.583 2.104.233.585-.35.818-1.051.818-1.984v-2.685c0-1.167.351-1.985 1.169-2.451.702-.467 1.637-.351 2.689.233l2.338 1.284-.35.584-2.338-1.284c-.819-.467-1.52-.584-2.105-.234-.584.35-.818 1.051-.818 1.985v2.684c0 1.168-.351 1.985-1.169 2.335-.234.233-.585.233-.935.233Z" fill="#42E8E0"/><path d="M99.367 118.96a3.202 3.202 0 0 1-1.636-.467l-11.106-6.42.234-.467 11.106 6.42c.818.467 1.52.583 2.104.233.584-.35.818-1.05.818-1.984v-2.685c0-1.167.351-1.984 1.169-2.451.701-.467 1.637-.35 2.689.233l2.338 1.284-.234.467-2.338-1.284c-.818-.467-1.52-.584-2.104-.233-.585.35-.819 1.05-.819 1.984v2.802c0 1.167-.35 1.984-1.169 2.451-.35.117-.701.117-1.052.117Z" fill="#42E8E0"/><path d="M95.042 121.528a3.202 3.202 0 0 1-1.637-.467l-11.106-6.42.234-.467 11.106 6.42c.818.467 1.52.584 2.104.234.585-.351.819-1.051.819-1.985v-2.685c0-1.167.35-1.984 1.169-2.451.701-.467 1.636-.35 2.688.234l2.338 1.284-.233.466-2.338-1.284c-.819-.466-1.52-.583-2.105-.233-.584.35-.818 1.051-.818 1.984v2.685c0 1.167-.35 1.985-1.169 2.451-.35.117-.701.234-1.052.234Z" fill="#42E8E0"/><path d="M90.716 123.979a3.202 3.202 0 0 1-1.636-.467l-11.106-6.42.234-.467 11.106 6.42c.818.467 1.52.584 2.104.234.584-.35.818-1.051.818-1.985v-2.684c0-1.168.351-1.985 1.17-2.335.7-.467 1.636-.35 2.688.233l2.338 1.284-.234.467-2.338-1.284c-.818-.467-1.52-.583-2.104-.233-.585.35-.818 1.05-.818 1.984v2.685c0 1.167-.351 1.984-1.17 2.451-.35 0-.584.117-1.052.117ZM190.084 77.17c-.351 0-.702-.116-1.052-.233-.702-.467-1.169-1.284-1.169-2.451V71.8c0-.934-.351-1.635-.819-1.985-.584-.35-1.286-.233-2.104.234l-2.338 1.284-.234-.467 2.338-1.284c.935-.584 1.871-.7 2.689-.234.701.467 1.169 1.284 1.169 2.335v2.685c0 .934.351 1.634.818 1.984.585.35 1.286.234 2.105-.233l65.114-37.704.234.467-65.115 37.82c-.584.35-1.052.467-1.636.467Z" fill="#42E8E0"/><path d="M194.409 79.621c-.35 0-.701-.116-1.052-.233-.701-.467-1.169-1.284-1.169-2.451v-2.568c0-.934-.351-1.635-.818-1.985-.585-.35-1.286-.233-2.105.234l-2.338 1.284-.233-.467 2.338-1.284c.935-.584 1.87-.7 2.688-.234.702.467 1.169 1.284 1.169 2.452v2.684c0 .934.351 1.635.819 1.985.584.35 1.286.233 2.104-.234l65.115-37.703.234.467-65.115 37.703c-.585.234-1.052.35-1.637.35Z" fill="#42E8E0"/><path d="M198.735 82.19c-.351 0-.702-.117-1.053-.234-.701-.467-1.169-1.284-1.169-2.334v-2.685c0-.934-.35-1.634-.818-1.984-.584-.35-1.286-.234-2.104.233l-2.338 1.284-.234-.467 2.338-1.284c.935-.584 1.871-.7 2.689-.233.701.467 1.169 1.284 1.169 2.451v2.685c0 .934.351 1.634.818 1.984.585.35 1.286.234 2.104-.233l65.115-37.704.234.467-65.115 37.704c-.584.116-1.169.35-1.636.35Z" fill="#42E8E0"/><path d="M203.06 84.641c-.351 0-.701-.117-1.052-.234-.702-.466-1.169-1.283-1.169-2.45V79.27c0-.933-.351-1.634-.818-1.984-.585-.35-1.286-.233-2.105.233l-2.338 1.285-.234-.467 2.338-1.284c.936-.584 1.871-.7 2.689-.234.702.467 1.169 1.284 1.169 2.451v2.685c0 .934.351 1.634.819 1.985.584.35 1.286.233 2.104-.234l65.115-37.704.233.467-65.114 37.704c-.585.233-1.169.467-1.637.467Z" fill="#42E8E0"/><path d="M207.385 87.092c-.35 0-.701-.117-1.052-.233-.701-.467-1.169-1.284-1.169-2.452v-2.684c0-.934-.35-1.635-.818-1.985-.585-.35-1.286-.233-2.104.234l-2.338 1.284-.234-.467 2.338-1.284c.935-.584 1.87-.7 2.689-.234.701.467 1.169 1.284 1.169 2.452v2.684c0 .934.35 1.635.818 1.985.585.35 1.286.233 2.104-.234l65.115-37.703.234.467-65.115 37.703a3.2 3.2 0 0 1-1.637.467Z" fill="#42E8E0"/><path d="M211.594 89.544c-.351 0-.701-.117-1.052-.234-.702-.466-1.169-1.284-1.169-2.45v-2.686c0-.934-.351-1.634-.819-1.984-.584-.35-1.285-.234-2.104.233l-2.338 1.284-.234-.466 2.338-1.285c.936-.583 1.871-.7 2.689-.233.702.467 1.169 1.284 1.169 2.335v2.684c0 .934.351 1.635.818 1.985.585.35 1.286.233 2.105-.234l65.115-37.703.233.467-65.114 37.703c-.585.467-1.053.584-1.637.584Z" fill="#42E8E0"/><path d="M215.919 91.995c-.35 0-.701-.117-1.052-.233-.701-.467-1.169-1.284-1.169-2.452v-2.685c0-.933-.351-1.634-.818-1.984-.585-.35-1.286-.233-2.104.233l-2.338 1.285-.234-.467 2.338-1.284c.935-.584 1.87-.7 2.689-.234.701.467 1.169 1.284 1.169 2.451v2.685c0 .934.35 1.634.818 1.985.584.35 1.286.233 2.104-.234l65.115-37.704.234.467-65.115 37.704c-.585.35-1.052.467-1.637.467Z" fill="#42E8E0"/><path d="M220.245 94.446c-.351 0-.702-.117-1.052-.233-.702-.467-1.169-1.284-1.169-2.335v-2.685c0-.933-.351-1.634-.819-1.984-.584-.35-1.286-.234-2.104.233l-2.338 1.284-.234-.466 2.338-1.285c.935-.583 1.871-.7 2.689-.233.701.467 1.169 1.284 1.169 2.451v2.685c0 .934.351 1.634.818 1.984.585.35 1.286.234 2.105-.233l65.114-37.704.234.467-65.115 37.704c-.584.233-1.169.35-1.636.35Z" fill="#42E8E0"/><path d="M224.57 97.015c-.351 0-.701-.117-1.052-.234-.701-.467-1.169-1.284-1.169-2.451v-2.685c0-.934-.351-1.634-.818-1.984-.585-.35-1.286-.234-2.105.233l-2.338 1.284-.233-.467 2.338-1.284c.935-.584 1.87-.7 2.688-.233.702.467 1.169 1.284 1.169 2.451v2.685c0 .934.351 1.634.819 1.984.584.35 1.286.234 2.104-.233l65.115-37.82.234.466-65.115 37.704c-.585.35-1.169.584-1.637.584Z" fill="#42E8E0"/><path d="M228.895 99.466c-.35 0-.701-.117-1.052-.234-.701-.467-1.169-1.284-1.169-2.451v-2.685c0-.934-.35-1.634-.818-1.984-.584-.35-1.286-.234-2.104.233l-2.338 1.284-.234-.467 2.338-1.284c.935-.583 1.87-.7 2.689-.233.701.467 1.169 1.284 1.169 2.451v2.685c0 .934.35 1.634.818 1.984.585.35 1.286.234 2.104-.233l65.115-37.704.234.467-65.115 37.704c-.584.233-1.169.467-1.637.467Z" fill="#42E8E0"/><path d="M233.104 101.917c-.351 0-.701-.117-1.052-.234-.702-.466-1.169-1.284-1.169-2.45v-2.686c0-.933-.351-1.634-.818-1.984-.585-.35-1.286-.234-2.105.233l-2.338 1.284-.234-.466 2.338-1.285c.936-.583 1.871-.7 2.689-.233.702.467 1.169 1.284 1.169 2.451v2.685c0 .934.351 1.634.819 1.985.584.35 1.286.233 2.104-.234l65.115-37.704.233.467-65.114 37.704c-.585.35-1.052.467-1.637.467Z" fill="#42E8E0"/><path d="M237.429 104.369c-.35 0-.701-.117-1.052-.234-.701-.467-1.169-1.284-1.169-2.335v-2.684c0-.934-.35-1.635-.818-1.985-.585-.35-1.286-.233-2.104.234l-2.338 1.284-.234-.467 2.338-1.284c.935-.584 1.87-.7 2.689-.234.701.467 1.169 1.284 1.169 2.452v2.684c0 .934.35 1.635.818 1.985.584.35 1.286.233 2.104-.234l65.115-37.82.234.467-65.115 37.704c-.584.35-1.052.467-1.637.467Z" fill="#42E8E0"/><path d="M241.755 106.82c-.351 0-.702-.117-1.052-.234-.702-.467-1.169-1.284-1.169-2.451v-2.685c0-.934-.351-1.634-.819-1.984-.584-.35-1.286-.234-2.104.233l-2.338 1.284-.234-.467 2.338-1.284c.935-.583 1.871-.7 2.689-.233.701.467 1.169 1.284 1.169 2.451v2.685c0 .934.351 1.634.818 1.984.585.351 1.286.234 2.105-.233l65.114-37.704.234.467-65.115 37.704a3.2 3.2 0 0 1-1.636.467Z" fill="#42E8E0"/><path d="M246.08 109.271c-.351 0-.701-.117-1.052-.234-.701-.466-1.169-1.284-1.169-2.451v-2.685c0-.934-.351-1.634-.818-1.984-.585-.35-1.286-.234-2.105.233l-2.338 1.284-.233-.467 2.338-1.284c.935-.583 1.87-.7 2.688-.233.819.467 1.169 1.284 1.169 2.451v2.685c0 .934.351 1.634.819 1.985.584.35 1.286.233 2.104-.234l65.115-37.704.234.467-65.115 37.704a3.204 3.204 0 0 1-1.637.467Z" fill="#42E8E0"/><path d="M250.406 111.839c-.351 0-.702-.116-1.053-.233-.701-.467-1.169-1.284-1.169-2.452v-2.684c0-.934-.35-1.635-.818-1.985-.584-.35-1.286-.233-2.104.234l-2.338 1.284-.234-.467 2.338-1.284c.935-.584 1.871-.701 2.689-.234.701.467 1.169 1.284 1.169 2.335v2.685c0 .934.351 1.634.818 1.984.585.35 1.286.234 2.104-.233l65.115-37.704.234.467-65.115 37.704c-.584.35-1.169.583-1.636.583Z" fill="#42E8E0"/><path d="M254.614 114.29c-.351 0-.701-.116-1.052-.233-.701-.467-1.169-1.284-1.169-2.451v-2.685c0-.934-.351-1.634-.818-1.985-.585-.35-1.286-.233-2.105.234l-2.338 1.284-.234-.467 2.339-1.284c.935-.584 1.87-.7 2.688-.233.702.466 1.169 1.284 1.169 2.451v2.685c0 .933.351 1.634.819 1.984.584.35 1.286.234 2.104-.233l65.115-37.704.233.467-65.114 37.704c-.585.233-1.052.466-1.637.466Z" fill="#42E8E0"/><path d="M258.939 116.742c-.35 0-.701-.117-1.052-.234-.701-.467-1.169-1.284-1.169-2.334v-2.685c0-.934-.35-1.634-.818-1.985-.584-.35-1.286-.233-2.104.234l-2.338 1.284-.117-.467 2.338-1.284c.935-.584 1.87-.701 2.689-.234.701.467 1.169 1.284 1.169 2.452v2.568c0 .934.35 1.634.818 1.984.584.35 1.286.234 2.104-.233l65.115-37.704.234.467-65.115 37.704c-.701.35-1.169.467-1.754.467Z" fill="#42E8E0"/><path d="M263.265 119.193c-.351 0-.702-.116-1.052-.233-.702-.467-1.169-1.284-1.169-2.452v-2.684c0-.934-.351-1.635-.819-1.985-.584-.35-1.286-.233-2.104.234l-2.338 1.284-.234-.467 2.338-1.284c.936-.584 1.871-.701 2.689-.234.702.467 1.169 1.284 1.169 2.452v2.684c0 .934.351 1.635.818 1.985.585.35 1.286.233 2.105-.234l65.115-37.703.233.467-65.114 37.703a3.197 3.197 0 0 1-1.637.467Z" fill="#42E8E0"/><path d="M267.59 121.644c-.35 0-.701-.116-1.052-.233-.701-.467-1.169-1.284-1.169-2.451v-2.568c0-.934-.351-1.635-.818-1.985-.585-.35-1.286-.233-2.104.234l-2.338 1.284-.234-.467 2.338-1.284c.935-.584 1.87-.701 2.689-.234.701.467 1.169 1.284 1.169 2.452v2.684c0 .934.35 1.635.818 1.985.584.35 1.286.233 2.104-.234l65.115-37.703.234.467-65.115 37.703c-.585.234-1.169.35-1.637.35Z" fill="#42E8E0"/><path d="M271.916 124.096c-.351 0-.702-.117-1.052-.234-.702-.467-1.169-1.284-1.169-2.451v-2.685c0-.934-.351-1.634-.819-1.984-.584-.351-1.286-.234-2.104.233l-2.338 1.284-.234-.467 2.338-1.284c.935-.583 1.871-.7 2.689-.233.701.467 1.169 1.284 1.169 2.334v2.685c0 .934.351 1.634.818 1.985.585.35 1.286.233 2.105-.234l65.114-37.704.234.467-65.115 37.821a3.2 3.2 0 0 1-1.636.467Z" fill="#42E8E0"/><path d="M266.304 119.193v9.805l-84.988 49.027-84.988-49.027v-9.805h169.976Z" fill="url(#d)"/><path d="m181.316 168.22-84.988-49.027 84.988-49.026 84.988 49.026-84.988 49.027Z" fill="#BCBEFF"/><path d="M181.316 167.052 97.38 118.609l-1.052.584 84.988 49.027 84.988-49.027-.935-.584-84.053 48.443Z" fill="#fff"/><path d="m181.316 156.897-65.349-37.704 65.349-37.704 65.466 37.704-65.466 37.704Z" fill="#0F054C"/><path opacity=".5" d="m181.316 156.897-65.349-37.704 65.349-37.704 65.466 37.704-65.466 37.704Z" fill="url(#e)"/><path opacity=".5" d="m181.316 72.034 65.466 37.704v9.455l-65.466-37.704v-9.455Z" fill="url(#f)"/><path opacity=".5" d="m181.316 81.49-65.349 37.703v-9.455l65.349-37.704v9.455Z" fill="url(#g)"/><path opacity=".5" d="m181.316 147.325-65.349-37.587 65.349-37.704 65.466 37.704-65.466 37.587Z" fill="url(#h)"/><path opacity=".7" d="m181.316 136.236-46.06-26.498 46.06-26.614 46.177 26.614-46.177 26.498Z" fill="#42E8E0"/><path opacity=".5" d="m181.316 124.796-26.069-15.058 26.069-15.058 26.186 15.058-26.186 15.058Z" fill="#42E8E0"/><path opacity=".5" d="m181.316 95.964 24.9 14.474 1.286-.7-26.186-15.058-26.069 15.058 1.169.7 24.9-14.474Z" fill="#42E8E0"/><path opacity=".5" d="M181.316 147.325v9.572l65.466-37.704v-9.455l-65.466 37.587Z" fill="url(#i)"/><path opacity=".5" d="M115.967 109.738v9.455l65.349 37.704v-9.572l-65.349-37.587Z" fill="url(#j)"/><path opacity=".8" d="m181.316 146.391-64.413-37.237-.936.584 65.349 37.587 65.466-37.587-.936-.584-64.53 37.237Z" fill="#42E8E0"/><path d="m202.592 189.581-11.105-6.42c-1.871-1.167-3.507-3.852-3.507-6.07v-2.685c0-2.101-1.403-4.552-3.274-5.603l-2.338-1.284.234-.467 2.338 1.284c1.871 1.168 3.507 3.852 3.507 6.07v2.685c0 2.101 1.403 4.552 3.273 5.603l11.106 6.42-.234.467Z" fill="#42E8E0"/><path d="m206.918 187.13-11.106-6.42c-1.87-1.051-3.507-3.852-3.507-6.07v-2.685c0-2.101-1.403-4.552-3.273-5.603l-2.338-1.284.233-.467 2.338 1.284c1.871 1.051 3.508 3.852 3.508 6.07v2.685c0 2.101 1.402 4.552 3.273 5.603l11.106 6.42-.234.467Z" fill="#42E8E0"/><path d="m211.126 184.679-11.105-6.42c-1.871-1.168-3.508-3.852-3.508-6.07v-2.685c0-2.101-1.402-4.553-3.273-5.603l-2.338-1.284.234-.467 2.338 1.284c1.87 1.167 3.507 3.852 3.507 6.07v2.685c0 2.101 1.403 4.552 3.273 5.603l11.106 6.42-.234.467Z" fill="#42E8E0"/><path d="m215.452 182.11-11.106-6.42c-1.871-1.05-3.507-3.852-3.507-6.07v-2.684c0-2.102-1.403-4.553-3.273-5.604l-2.338-1.284.233-.466 2.338 1.284c1.871 1.167 3.507 3.852 3.507 6.07v2.684c0 2.101 1.403 4.553 3.274 5.603l11.105 6.42-.233.467Z" fill="#42E8E0"/><path d="m219.777 179.659-11.106-6.42c-1.87-1.05-3.507-3.852-3.507-6.07v-2.685c0-2.101-1.403-4.552-3.273-5.603l-2.338-1.284.234-.467 2.338 1.284c1.87 1.051 3.507 3.852 3.507 6.07v2.685c0 2.101 1.403 4.553 3.273 5.603l11.106 6.42-.234.467Z" fill="#42E8E0"/><path d="m224.102 177.208-11.105-6.42c-1.871-1.167-3.507-3.852-3.507-6.07v-2.685c0-2.101-1.403-4.552-3.274-5.603l-2.338-1.284.234-.467 2.338 1.284c1.871 1.168 3.507 3.852 3.507 6.07v2.685c0 2.101 1.403 4.552 3.274 5.603l11.105 6.42-.234.467Z" fill="#42E8E0"/><path d="m228.428 174.756-11.106-6.42c-1.87-1.05-3.507-3.852-3.507-6.07v-2.684c0-2.102-1.403-4.553-3.273-5.604l-2.338-1.284.234-.466 2.338 1.284c1.87 1.05 3.507 3.852 3.507 6.07v2.684c0 2.101 1.403 4.553 3.273 5.603l11.106 6.42-.234.467Z" fill="#42E8E0"/><path d="m232.636 172.305-11.105-6.42c-1.871-1.167-3.507-3.852-3.507-6.07v-2.568c0-2.101-1.403-4.552-3.274-5.603l-2.338-1.284.234-.467 2.338 1.284c1.871 1.167 3.507 3.852 3.507 6.07v2.685c0 2.101 1.403 4.552 3.273 5.603l11.106 6.42-.234.35Z" fill="#42E8E0"/><path d="m236.962 169.737-11.106-6.42c-1.87-1.05-3.507-3.852-3.507-6.07v-2.685c0-2.101-1.403-4.552-3.273-5.603l-2.338-1.284.233-.467 2.338 1.285c1.871 1.05 3.508 3.852 3.508 6.069v2.685c0 2.101 1.402 4.553 3.273 5.603l11.106 6.42-.234.467Z" fill="#42E8E0"/><path d="m241.287 167.286-11.106-6.42c-1.87-1.168-3.507-3.853-3.507-6.07v-2.685c0-2.101-1.402-4.553-3.273-5.603l-2.338-1.284.234-.467 2.338 1.284c1.87 1.05 3.507 3.852 3.507 6.07v2.685c0 2.101 1.403 4.552 3.273 5.603l11.106 6.42-.234.467Z" fill="#42E8E0"/><path d="m245.613 164.835-11.106-6.421c-1.871-1.167-3.507-3.852-3.507-6.07v-2.684c0-2.101-1.403-4.553-3.274-5.603l-2.338-1.284.234-.467 2.338 1.284c1.871 1.05 3.507 3.852 3.507 6.07v2.684c0 2.102 1.403 4.553 3.274 5.603l11.105 6.421-.233.467Z" fill="#42E8E0"/><path d="m249.938 162.383-11.106-6.42c-1.87-1.05-3.507-3.852-3.507-6.07v-2.685c0-2.101-1.403-4.552-3.273-5.603l-2.338-1.284.234-.467 2.338 1.285c1.87 1.05 3.507 3.852 3.507 6.069v2.685c0 2.101 1.403 4.553 3.273 5.603l11.106 6.42-.234.467Z" fill="#42E8E0"/><path d="m254.146 159.932-11.105-6.42c-1.871-1.168-3.507-3.853-3.507-6.07v-2.685c0-2.101-1.403-4.553-3.274-5.603l-2.338-1.284.234-.467 2.338 1.284c1.871 1.167 3.507 3.852 3.507 6.07v2.685c0 2.101 1.403 4.552 3.274 5.603l11.105 6.42-.234.467Z" fill="#42E8E0"/><path d="m258.472 157.364-11.106-6.42c-1.87-1.051-3.507-3.852-3.507-6.07v-2.685c0-2.101-1.403-4.553-3.273-5.603l-2.338-1.284.234-.467 2.338 1.284c1.87 1.051 3.507 3.852 3.507 6.07v2.685c0 2.101 1.402 4.552 3.273 5.603l11.106 6.42-.234.467Z" fill="#42E8E0"/><path d="m262.797 154.913-11.105-6.42c-1.871-1.168-3.508-3.853-3.508-6.07v-2.685c0-2.101-1.402-4.553-3.273-5.603l-2.338-1.284.234-.467 2.338 1.284c1.87 1.167 3.507 3.852 3.507 6.07v2.685c0 2.101 1.403 4.552 3.273 5.603l11.106 6.42-.234.467Z" fill="#42E8E0"/><path d="m267.123 152.461-11.106-6.42c-1.871-1.051-3.507-3.852-3.507-6.07v-2.568c0-2.101-1.403-4.553-3.273-5.603l-2.339-1.284.234-.467 2.338 1.284c1.871 1.167 3.507 3.852 3.507 6.07v2.685c0 2.101 1.403 4.552 3.274 5.603l11.105 6.42-.233.35Z" fill="#42E8E0"/><path d="m271.448 150.01-11.106-6.42c-1.87-1.051-3.507-3.852-3.507-6.07v-2.685c0-2.101-1.403-4.553-3.273-5.603l-2.338-1.284.234-.467 2.338 1.284c1.87 1.051 3.507 3.852 3.507 6.07v2.685c0 2.101 1.403 4.552 3.273 5.603l11.106 6.42-.234.467Z" fill="#42E8E0"/><path d="m275.657 147.559-11.106-6.42c-1.871-1.168-3.507-3.853-3.507-6.07v-2.685c0-2.101-1.403-4.553-3.274-5.603l-2.338-1.284.234-.467 2.338 1.284c1.871 1.05 3.507 3.852 3.507 6.07v2.685c0 2.101 1.403 4.552 3.274 5.603l11.105 6.42-.233.467Z" fill="#42E8E0"/><path d="m279.982 144.99-11.106-6.42c-1.87-1.05-3.507-3.852-3.507-6.07v-2.685c0-2.101-1.403-4.552-3.273-5.603l-2.338-1.284.234-.467 2.338 1.284c1.87 1.051 3.507 3.853 3.507 6.07v2.685c0 2.101 1.403 4.553 3.273 5.603l11.106 6.42-.234.467Z" fill="#42E8E0"/><path d="m284.307 142.539-11.105-6.42c-1.871-1.167-3.507-3.852-3.507-6.07v-2.685c0-2.101-1.403-4.552-3.274-5.603l-2.338-1.284.234-.467 2.338 1.284c1.871 1.051 3.507 3.852 3.507 6.07v2.685c0 2.101 1.403 4.552 3.273 5.603l11.106 6.42-.234.467ZM110.59 218.18l-.234-.467 60.322-35.019c1.753-1.051 3.273-3.502 3.273-5.603v-2.685c0-2.218 1.52-4.902 3.507-6.07l2.338-1.284.234.467-2.338 1.284c-1.753 1.051-3.273 3.502-3.273 5.603v2.685c0 2.218-1.52 4.903-3.507 6.07L110.59 218.18Z" fill="#42E8E0"/><path d="m106.265 215.729-.234-.467 60.322-35.019c1.753-1.051 3.273-3.502 3.273-5.603v-2.685c0-2.218 1.52-4.903 3.507-6.07l2.338-1.284.234.467-2.338 1.284c-1.754 1.051-3.274 3.502-3.274 5.603v2.685c0 2.218-1.519 4.903-3.507 6.07l-60.321 35.019Z" fill="#42E8E0"/><path d="m101.939 213.278-.234-.467 60.322-35.019c1.754-1.051 3.273-3.502 3.273-5.603v-2.685c0-2.218 1.52-4.903 3.507-6.07l2.339-1.284.233.467-2.338 1.284c-1.753 1.05-3.273 3.502-3.273 5.603v2.685c0 2.218-1.52 4.902-3.507 6.07l-60.322 35.019Z" fill="#42E8E0"/><path d="m97.614 210.826-.234-.467 60.322-35.019c1.753-1.051 3.273-3.502 3.273-5.603v-2.685c0-2.218 1.52-4.902 3.507-6.07l2.338-1.284.234.467-2.338 1.284c-1.754 1.051-3.273 3.502-3.273 5.603v2.685c0 2.218-1.52 4.903-3.507 6.07l-60.322 35.019Z" fill="#42E8E0"/><path d="m93.288 208.258-.233-.467 60.321-35.019c1.754-1.05 3.274-3.502 3.274-5.603v-2.685c0-2.218 1.519-4.902 3.507-6.07l2.338-1.284.234.467-2.338 1.284c-1.754 1.051-3.274 3.502-3.274 5.603v2.685c0 2.218-1.519 4.903-3.507 6.07l-60.322 35.019Z" fill="#42E8E0"/><path d="m89.08 205.807-.234-.467 60.322-35.019c1.753-1.051 3.273-3.502 3.273-5.603v-2.685c0-2.218 1.52-4.902 3.507-6.07l2.338-1.284.234.467-2.338 1.284c-1.754 1.051-3.273 3.502-3.273 5.603v2.685c0 2.218-1.52 4.903-3.507 6.07L89.08 205.807Z" fill="#42E8E0"/><path d="m84.754 203.355-.233-.467 60.321-35.019c1.754-1.05 3.274-3.502 3.274-5.603v-2.684c0-2.218 1.519-4.903 3.507-6.07l2.338-1.284.234.466-2.338 1.284c-1.754 1.051-3.274 3.502-3.274 5.604v2.684c0 2.218-1.519 4.903-3.507 6.07l-60.322 35.019Z" fill="#42E8E0"/><path d="m80.43 200.904-.235-.467 60.322-35.019c1.754-1.05 3.273-3.502 3.273-5.603v-2.568c0-2.218 1.52-4.903 3.507-6.07l2.338-1.284.234.467-2.338 1.284c-1.753 1.051-3.273 3.502-3.273 5.603v2.685c0 2.218-1.52 4.902-3.507 6.07l-60.322 34.902Z" fill="#42E8E0"/><path d="m76.104 198.453-.234-.467 60.322-35.019c1.753-1.051 3.273-3.502 3.273-5.603v-2.685c0-2.218 1.52-4.902 3.507-6.07l2.338-1.284.234.467-2.338 1.284c-1.754 1.051-3.273 3.502-3.273 5.603v2.685c0 2.218-1.52 4.903-3.508 6.07l-60.321 35.019Z" fill="#42E8E0"/><path d="m71.778 195.885-.234-.467 60.322-35.019c1.754-1.051 3.274-3.502 3.274-5.603v-2.685c0-2.218 1.519-4.903 3.507-6.07l2.338-1.284.233.467-2.338 1.284c-1.753 1.05-3.273 3.502-3.273 5.603v2.685c0 2.217-1.52 4.902-3.507 6.07l-60.322 35.019Z" fill="#42E8E0"/><path d="m67.57 193.433-.234-.467 60.322-35.019c1.753-1.05 3.273-3.501 3.273-5.603v-2.684c0-2.218 1.52-4.903 3.507-6.07l2.338-1.284.234.467-2.338 1.284c-1.754 1.05-3.273 3.502-3.273 5.603v2.684c0 2.218-1.52 4.903-3.507 6.07L67.57 193.433Z" fill="#42E8E0"/><path d="m63.244 190.982-.233-.467 60.321-35.019c1.754-1.05 3.274-3.502 3.274-5.603v-2.685c0-2.217 1.519-4.902 3.507-6.069l2.338-1.285.234.467-2.338 1.284c-1.754 1.051-3.274 3.502-3.274 5.603v2.685c0 2.218-1.519 4.903-3.507 6.07l-60.322 35.019Z" fill="#42E8E0"/><path d="m58.919 188.531-.234-.467 60.322-35.019c1.754-1.051 3.273-3.502 3.273-5.603v-2.685c0-2.218 1.52-4.903 3.507-6.07l2.338-1.284.234.467-2.338 1.284c-1.753 1.05-3.273 3.502-3.273 5.603v2.685c0 2.217-1.52 4.902-3.507 6.07l-60.322 35.019Z" fill="#42E8E0"/><path d="m54.594 186.079-.234-.467 60.322-35.019c1.753-1.05 3.273-3.501 3.273-5.603v-2.684c0-2.218 1.52-4.903 3.507-6.07l2.338-1.284.234.467-2.338 1.284c-1.754 1.05-3.274 3.501-3.274 5.603v2.684c0 2.218-1.519 4.903-3.507 6.07l-60.321 35.019Z" fill="#42E8E0"/><path d="m50.268 183.511-.234-.466 60.322-35.019c1.754-1.051 3.273-3.502 3.273-5.603v-2.685c0-2.218 1.52-4.903 3.508-6.07l2.338-1.284.233.467-2.338 1.284c-1.753 1.05-3.273 3.502-3.273 5.603v2.685c0 2.217-1.52 4.902-3.507 6.07l-60.322 35.018Z" fill="#42E8E0"/><path d="m46.06 181.06-.234-.467 60.322-35.019c1.753-1.051 3.273-3.502 3.273-5.603v-2.568c0-2.218 1.52-4.903 3.507-6.07l2.338-1.284.234.467-2.338 1.284c-1.754 1.05-3.273 3.502-3.273 5.603v2.685c0 2.217-1.52 4.902-3.508 6.07L46.06 181.06Z" fill="#42E8E0"/><path d="m41.734 178.609-.233-.467 60.321-35.019c1.754-1.051 3.274-3.502 3.274-5.603v-2.685c0-2.218 1.519-4.903 3.507-6.07l2.338-1.284.233.467-2.338 1.284c-1.753 1.05-3.273 3.502-3.273 5.603v2.685c0 2.218-1.52 4.902-3.507 6.07l-60.322 35.019Z" fill="#42E8E0"/><path d="m37.409 176.157-.234-.466 60.322-35.019c1.753-1.051 3.273-3.502 3.273-5.603v-2.685c0-2.218 1.52-4.903 3.507-6.07l2.338-1.284.234.467-2.338 1.284c-1.753 1.05-3.273 3.502-3.273 5.603v2.685c0 2.217-1.52 4.902-3.507 6.07l-60.322 35.018Z" fill="#42E8E0"/><path d="m33.084 173.589-.234-.467 60.321-35.019c1.754-1.05 3.274-3.502 3.274-5.603v-2.685c0-2.217 1.52-4.902 3.507-6.07l2.338-1.284.234.467-2.338 1.284c-1.754 1.051-3.274 3.502-3.274 5.603v2.685c0 2.218-1.52 4.903-3.507 6.07l-60.322 35.019Z" fill="#42E8E0"/><path d="m28.758 171.138-.234-.467 60.322-35.019c1.754-1.051 3.273-3.502 3.273-5.603v-2.685c0-2.218 1.52-4.902 3.507-6.07l2.338-1.284.234.467-2.338 1.284c-1.753 1.051-3.273 3.502-3.273 5.603v2.685c0 2.218-1.52 4.903-3.507 6.07l-60.322 35.019Z" fill="#42E8E0"/><g opacity=".1"><path d="m228.545 270.942-13.093-7.471v15.058L228.545 286l12.976-7.471v-15.058l-12.976 7.471Z" fill="#42E8E0"/><path d="m228.545 286-13.093-7.471v-15.058l13.093 7.471V286Z" fill="#42E8E0"/><path d="M241.521 278.529 228.545 286v-15.058l12.976-7.471v15.058Z" fill="#2FD3C7"/><path d="m228.545 270.942-13.093-7.471L228.545 256l12.976 7.471-12.976 7.471Z" fill="#42E8E0"/><path d="m228.545 270.942-13.093-7.471v.701l13.093 7.47 12.976-7.47v-.701l-12.976 7.471Z" fill="#fff"/></g><path opacity=".2" d="m228.545 261.837-13.093-7.471 13.093-7.47 12.976 7.47-12.976 7.471Z" fill="#03002D"/><path d="m228.545 235.456-13.093-7.471v15.058l13.093 7.471 12.976-7.471v-15.058l-12.976 7.471Z" fill="#42E8E0"/><path d="m228.545 250.514-13.093-7.471v-15.058l13.093 7.471v15.058Z" fill="#42E8E0"/><path d="m241.521 243.043-12.976 7.471v-15.058l12.976-7.471v15.058Z" fill="#2FD3C7"/><path d="m228.545 235.456-13.093-7.471 13.093-7.47 12.976 7.47-12.976 7.471Z" fill="#42E8E0"/><path d="m228.545 235.456-13.093-7.471v.584l13.093 7.587 12.976-7.587v-.584l-12.976 7.471Z" fill="#fff"/><g opacity=".1"><path d="m37.292 269.892-13.093-7.588v15.058l13.093 7.471 12.976-7.471v-15.058l-12.976 7.588Z" fill="#42E8E0"/><path d="m37.292 284.833-13.093-7.471v-15.058l13.093 7.588v14.941Z" fill="#42E8E0"/><path d="m50.268 277.362-12.976 7.471v-14.941l12.976-7.588v15.058Z" fill="#2FD3C7"/><path d="m37.292 269.892-13.093-7.588 13.093-7.471 12.976 7.471-12.976 7.588Z" fill="#42E8E0"/><path d="m37.292 269.892-13.093-7.588v.701l13.093 7.47 12.976-7.47v-.701l-12.976 7.588Z" fill="#fff"/></g><path opacity=".2" d="m37.292 260.787-13.093-7.588 13.093-7.47 12.976 7.47-12.976 7.588Z" fill="#03002D"/><path d="m37.292 234.289-13.093-7.471v15.059l13.093 7.47 12.976-7.47v-15.059l-12.976 7.471Z" fill="#42E8E0"/><path d="m37.292 249.347-13.093-7.47v-15.059l13.093 7.471v15.058Z" fill="#42E8E0"/><path d="m50.268 241.877-12.976 7.47v-15.058l12.976-7.471v15.059Z" fill="#2FD3C7"/><path d="m37.292 234.289-13.093-7.471 13.093-7.47 12.976 7.47-12.976 7.471Z" fill="#42E8E0"/><path d="m37.292 234.289-13.093-7.471v.701l13.093 7.47 12.976-7.47v-.701l-12.976 7.471Z" fill="#fff"/><g opacity=".1"><path d="M12.976 127.014 0 119.427v15.058l12.976 7.471 13.093-7.471v-15.058l-13.093 7.587Z" fill="#42E8E0"/><path d="M12.976 141.956 0 134.485v-15.058l12.976 7.587v14.942Z" fill="#42E8E0"/><path d="m26.07 134.485-13.094 7.471v-14.942l13.093-7.587v15.058Z" fill="#2FD3C7"/><path d="M12.976 127.014 0 119.427l12.976-7.471 13.093 7.471-13.093 7.587Z" fill="#42E8E0"/><path d="M12.976 127.014 0 119.427v.7l12.976 7.471 13.093-7.471v-.7l-13.093 7.587Z" fill="#fff"/></g><path opacity=".2" d="M12.976 117.909 0 110.322l12.976-7.471 13.093 7.471-13.093 7.587Z" fill="#03002D"/><path d="M12.976 91.528 0 83.941v15.058l12.976 7.471L26.07 99V83.94l-13.093 7.588Z" fill="#42E8E0"/><path d="M12.976 106.47 0 99V83.94l12.976 7.588v14.942Z" fill="#42E8E0"/><path d="m26.07 99-13.094 7.47V91.528l13.093-7.587v15.058Z" fill="#2FD3C7"/><path d="M12.976 91.528 0 83.941l12.976-7.47 13.093 7.47-13.093 7.587Z" fill="#42E8E0"/><path d="M12.976 91.528 0 83.941v.7l12.976 7.471 13.093-7.47v-.701l-13.093 7.587Z" fill="#fff"/><path opacity=".4" d="m197.449 160.866-89.665-51.712c-2.338-1.284-1.987-3.618.702-5.252l52.372-30.117c2.689-1.517 6.78-1.75 9.002-.35l89.664 51.711c2.338 1.284 1.987 3.619-.701 5.253l-52.373 30.117c-2.689 1.517-6.663 1.75-9.001.35Z" fill="#24126A"/><path d="m283.255 84.874-1.52-.233c-.116-.117-.35-.234-.467-.35l-115.5-66.536c-3.039-1.751-8.183-1.518-11.69.467l-67.336 38.87c-.935.468-1.637 1.051-2.105 1.752l-.818-.234v2.335c0 1.05.702 2.101 1.988 2.918L201.306 130.4c3.04 1.751 8.184 1.518 11.691-.467l67.336-38.87c1.87-1.168 2.922-2.569 2.805-3.853v-2.335h.117Z" fill="#9FFFF8"/><path d="m201.423 128.065-115.5-66.536c-3.039-1.751-2.571-4.67.819-6.654l67.453-38.871c3.39-1.985 8.65-2.218 11.69-.467l115.5 66.536c3.039 1.751 2.572 4.67-.819 6.654l-67.336 38.871c-3.624 1.984-8.767 2.218-11.807.467Z" fill="#42E8E0"/><path d="m201.423 128.065-115.5-66.536c-3.039-1.751-2.571-4.67.819-6.654l67.453-38.871c3.39-1.985 8.65-2.218 11.69-.467l115.5 66.536c3.039 1.751 2.572 4.67-.819 6.654l-67.336 38.871c-3.624 1.984-8.767 2.218-11.807.467Z" fill="url(#k)"/><path opacity=".7" d="M220.011 123.629 93.756 50.789l13.444-7.704 126.255 72.723-13.444 7.821Z" fill="#453C9E"/><path opacity=".7" d="M218.024 91.528 180.03 69.583l9.352-5.37 37.994 21.946-9.352 5.37Z" fill="#fff"/><path d="M68.505 58.26c12.626-3.151 25.836-15.875 29.343-28.365 1.753-6.303.818-11.323-2.105-14.358l-3.156-3.152.117 1.168c-2.923-1.401-6.78-1.635-11.34-.467C68.856 16.12 55.763 28.844 52.14 41.334c-1.286 4.32-1.17 8.055 0 10.973l-1.053.117 3.157 3.268.117.117c3.04 2.918 7.95 3.969 14.145 2.451Z" fill="#9FFFF8"/><path d="M83.49 44.345c11.464-11.07 15.553-25.416 9.134-32.043-6.418-6.626-20.914-3.024-32.377 8.046-11.463 11.07-15.552 25.416-9.133 32.043 6.418 6.626 20.914 3.024 32.377-8.046Z" fill="#42E8E0"/><path d="M61.374 53.357c-3.273 0-6.079-1.05-8.066-3.035-2.806-2.918-3.507-7.47-1.988-12.957 3.157-11.206 14.964-22.529 26.187-25.33 5.494-1.4 10.053-.584 12.976 2.335 2.805 2.918 3.507 7.47 1.987 12.957-3.273 11.206-14.963 22.528-26.303 25.33-1.637.467-3.273.7-4.793.7Zm21.042-41.322c-1.52 0-3.04.233-4.793.584-10.988 2.801-22.562 13.89-25.718 24.863-1.52 5.253-.819 9.689 1.753 12.373 2.69 2.802 7.014 3.502 12.392 2.218 11.106-2.684 22.68-13.89 25.835-24.863 1.52-5.253.819-9.572-1.87-12.374-1.754-1.867-4.442-2.801-7.599-2.801Z" fill="#18B2A3"/><g opacity=".1"><path d="M124.852 185.73c0-13.074-9.118-28.833-20.458-35.369-5.611-3.269-10.755-3.619-14.496-1.401l-3.858 2.218 1.17.116c-1.988 2.452-3.274 6.187-3.274 10.856 0 13.074 9.118 28.833 20.458 35.369 3.858 2.218 7.482 3.035 10.638 2.685l-.117 1.051 3.975-2.335.117-.116c3.624-2.102 5.845-6.654 5.845-13.074Z" fill="#9FFFF8"/><path d="M120.877 188.064c0 13.074-9.118 18.327-20.458 11.79-11.34-6.537-20.458-22.295-20.458-35.369 0-13.074 9.119-18.327 20.458-11.79 11.34 6.537 20.458 22.296 20.458 35.369Z" fill="#42E8E0"/></g><path opacity=".4" d="M101.822 206.974c-14.145 0-28.173-3.151-38.928-9.338-10.405-6.07-16.133-14.007-16.133-22.529 0-8.521 5.728-16.575 16.133-22.529 21.51-12.373 56.464-12.373 77.857 0 10.404 6.07 16.132 14.008 16.132 22.529 0 8.522-5.728 16.576-16.132 22.529-10.755 6.304-24.9 9.338-38.929 9.338Zm0-63.267c-14.028 0-28.056 3.035-38.695 9.222-10.287 5.953-16.015 13.774-16.015 22.178 0 8.405 5.728 16.226 16.015 22.179 21.394 12.373 56.114 12.373 77.507 0 10.287-5.953 16.016-13.774 16.016-22.179 0-8.404-5.729-16.225-16.016-22.178-10.755-6.187-24.783-9.222-38.812-9.222Z" fill="#42E8E0"/><path opacity=".2" d="M101.822 215.496c-17.886 0-35.772-3.969-49.45-11.79-13.21-7.587-20.575-17.743-20.575-28.599 0-10.856 7.248-21.011 20.575-28.599 27.239-15.758 71.545-15.758 98.783 0 13.21 7.588 20.575 17.743 20.575 28.599 0 10.856-7.248 21.012-20.575 28.599-13.561 7.938-31.447 11.79-49.333 11.79Zm0-80.31c-17.769 0-35.655 3.852-49.216 11.789-13.093 7.588-20.34 17.626-20.34 28.249 0 10.622 7.247 20.661 20.34 28.249 27.122 15.641 71.311 15.641 98.432 0 13.093-7.588 20.341-17.627 20.341-28.249 0-10.623-7.248-20.661-20.341-28.249-13.56-7.937-31.447-11.789-49.216-11.789Z" fill="#42E8E0"/><path d="M101.822 200.321c-11.106 0-22.211-2.451-30.745-7.354-8.183-4.786-12.743-11.089-12.743-17.86 0-6.77 4.56-13.074 12.743-17.859 16.95-9.806 44.423-9.806 61.374 0 8.183 4.785 12.742 11.089 12.742 17.859 0 6.771-4.559 13.074-12.742 17.86-8.417 4.903-19.523 7.354-30.629 7.354Zm0-49.844c-10.989 0-22.094 2.452-30.511 7.237-8.067 4.67-12.626 10.856-12.626 17.51 0 6.537 4.442 12.84 12.626 17.509 16.834 9.689 44.189 9.689 61.023 0 8.066-4.669 12.625-10.855 12.625-17.509 0-6.537-4.442-12.84-12.625-17.51-8.417-4.902-19.523-7.237-30.512-7.237Z" fill="#42E8E0"/><mask id="l" style="mask-type:luminance" maskUnits="userSpaceOnUse" x="69" y="101" width="65" height="87"><path d="m133.854 180.593-12.86 7.354-51.203-29.415v-56.731l64.063 36.886v41.906Z" fill="#fff"/></mask><g mask="url(#l)"><path d="M124.852 185.73c0-13.074-9.118-28.833-20.458-35.369-5.611-3.269-10.755-3.619-14.496-1.401l-3.858 2.218 1.17.116c-1.988 2.452-3.274 6.187-3.274 10.856 0 13.074 9.118 28.833 20.458 35.369 3.858 2.218 7.482 3.035 10.638 2.685l-.117 1.051 3.975-2.335.117-.116c3.624-2.102 5.845-6.654 5.845-13.074Z" fill="#9FFFF8"/><path d="M120.877 188.064c0 13.074-9.118 18.327-20.458 11.79-11.34-6.537-20.458-22.295-20.458-35.369 0-13.074 9.119-18.327 20.458-11.79 11.34 6.537 20.458 22.296 20.458 35.369Z" fill="#42E8E0"/><path d="M108.719 200.321c-2.571 0-5.377-.817-8.417-2.568-10.287-5.953-18.587-20.311-18.587-32.101 0-5.72 1.987-10.039 5.494-12.14 3.624-2.101 8.3-1.634 13.327 1.284 10.288 5.954 18.588 20.311 18.588 32.101 0 5.837-1.988 10.039-5.495 12.14-1.402.817-3.156 1.284-4.91 1.284Zm-16.483-47.509c-1.753 0-3.273.35-4.676 1.167-3.39 1.985-5.26 6.07-5.26 11.673 0 11.556 8.183 25.797 18.236 31.634 4.793 2.802 9.352 3.268 12.743 1.284 3.39-1.984 5.26-6.07 5.26-11.673 0-11.556-8.183-25.797-18.237-31.634-2.805-1.634-5.61-2.451-8.066-2.451Z" fill="#18B2A3"/></g><g opacity=".1"><path d="M295.062 228.803c0-13.074 9.119-28.833 20.458-35.37 5.612-3.268 10.755-3.618 14.496-1.4l3.858 2.217-1.169.117c1.987 2.452 3.273 6.187 3.273 10.856 0 13.074-9.118 28.832-20.458 35.369-3.857 2.218-7.481 3.035-10.638 2.685l.117 1.051-3.975-2.335-.116-.117c-3.624-2.218-5.846-6.653-5.846-13.073Z" fill="#9FFFF8"/><path d="M333.806 227.594c7.974-13.79 7.956-28.705-.039-33.315-7.996-4.609-20.941 2.833-28.915 16.623-7.973 13.79-7.956 28.705.04 33.315 7.995 4.609 20.941-2.833 28.914-16.623Z" fill="#42E8E0"/></g><path opacity=".4" d="M318.092 250.047c-14.145 0-28.173-3.151-38.928-9.338-10.405-6.07-16.133-14.008-16.133-22.529s5.728-16.576 16.133-22.529c21.51-12.373 56.464-12.373 77.857 0 10.404 6.07 16.132 14.008 16.132 22.529s-5.728 16.576-16.132 22.529c-10.755 6.187-24.9 9.338-38.929 9.338Zm0-63.384c-14.028 0-28.056 3.035-38.695 9.222-10.287 5.953-16.015 13.89-16.015 22.178 0 8.405 5.728 16.226 16.015 22.179 21.394 12.373 56.114 12.373 77.507 0 10.287-5.953 16.016-13.891 16.016-22.179 0-8.404-5.729-16.225-16.016-22.178-10.755-6.07-24.783-9.222-38.812-9.222Z" fill="#42E8E0"/><path opacity=".2" d="M318.092 258.568c-17.886 0-35.772-3.968-49.45-11.789-13.21-7.588-20.574-17.743-20.574-28.599 0-10.856 7.247-21.011 20.574-28.599 27.239-15.758 71.545-15.758 98.783 0C380.635 197.169 388 207.324 388 218.18c0 10.856-7.248 21.011-20.575 28.599-13.561 7.821-31.447 11.789-49.333 11.789Zm0-80.426c-17.769 0-35.655 3.852-49.216 11.789-13.093 7.588-20.341 17.627-20.341 28.249s7.248 20.661 20.341 28.249c27.122 15.641 71.311 15.641 98.432 0 13.093-7.588 20.341-17.627 20.341-28.249s-7.248-20.661-20.341-28.249c-13.56-7.821-31.447-11.789-49.216-11.789Z" fill="#42E8E0"/><path d="M318.092 243.277c-11.106 0-22.211-2.451-30.745-7.354-8.183-4.786-12.743-11.089-12.743-17.86 0-6.77 4.56-13.073 12.743-17.859 16.951-9.806 44.423-9.806 61.374 0 8.183 4.786 12.742 11.089 12.742 17.859 0 6.771-4.559 13.074-12.742 17.86-8.417 4.903-19.523 7.354-30.629 7.354Zm0-49.844c-10.989 0-22.094 2.452-30.511 7.238-8.067 4.669-12.626 10.855-12.626 17.509s4.442 12.84 12.626 17.509c16.834 9.689 44.189 9.689 61.023 0 8.066-4.669 12.625-10.855 12.625-17.509s-4.442-12.84-12.625-17.509c-8.417-4.786-19.523-7.238-30.512-7.238Z" fill="#42E8E0"/><mask id="m" style="mask-type:luminance" maskUnits="userSpaceOnUse" x="286" y="144" width="65" height="88"><path d="m286.061 223.666 12.859 7.354 51.087-29.532v-56.731l-63.946 36.886v42.023Z" fill="#fff"/></mask><g mask="url(#m)"><path d="M295.062 228.803c0-13.074 9.119-28.833 20.458-35.37 5.612-3.268 10.755-3.618 14.496-1.4l3.858 2.217-1.169.117c1.987 2.452 3.273 6.187 3.273 10.856 0 13.074-9.118 28.832-20.458 35.369-3.857 2.218-7.481 3.035-10.638 2.685l.117 1.051-3.975-2.335-.116-.117c-3.624-2.218-5.846-6.653-5.846-13.073Z" fill="#9FFFF8"/><path d="M333.806 227.594c7.974-13.79 7.956-28.705-.039-33.315-7.996-4.609-20.941 2.833-28.915 16.623-7.973 13.79-7.955 28.705.04 33.315 7.995 4.609 20.941-2.833 28.914-16.623Z" fill="#42E8E0"/><path d="M311.195 243.277c-1.754 0-3.507-.467-4.91-1.284-3.624-2.101-5.494-6.42-5.494-12.14 0-11.79 8.3-26.147 18.587-32.101 5.027-2.918 9.703-3.385 13.327-1.284 3.624 2.101 5.494 6.42 5.494 12.14 0 11.79-8.3 26.148-18.587 32.101-3.04 1.751-5.845 2.568-8.417 2.568Zm16.366-47.509c-2.455 0-5.26.817-8.066 2.451-10.054 5.837-18.237 19.961-18.237 31.634 0 5.603 1.871 9.689 5.261 11.673s7.949 1.518 12.742-1.284c10.054-5.836 18.237-19.961 18.237-31.634 0-5.603-1.87-9.688-5.261-11.673-1.402-.7-2.922-1.167-4.676-1.167Z" fill="#18B2A3"/></g><defs><linearGradient id="f" x1="181.353" y1="95.601" x2="246.728" y2="95.601" gradientUnits="userSpaceOnUse"><stop stop-color="#42E8E0"/><stop offset=".151" stop-color="#43E3E0"/><stop offset=".329" stop-color="#45D5DF"/><stop offset=".52" stop-color="#49BDDD"/><stop offset=".721" stop-color="#4E9CDB"/><stop offset=".927" stop-color="#5472D8"/><stop offset="1" stop-color="#5761D7"/></linearGradient><linearGradient id="a" x1="7.809" y1="143.702" x2="359.749" y2="143.702" gradientUnits="userSpaceOnUse"><stop stop-color="#BCBEFF"/><stop offset=".151" stop-color="#A3A7F5"/><stop offset=".387" stop-color="#8289E8"/><stop offset=".612" stop-color="#6A73DF"/><stop offset=".822" stop-color="#5C66D9"/><stop offset="1" stop-color="#5761D7"/></linearGradient><linearGradient id="c" x1="232.798" y1="193.419" x2="134.743" y2="63.103" gradientUnits="userSpaceOnUse"><stop stop-color="#42E8E0"/><stop offset=".105" stop-color="#37B6BF"/><stop offset=".22" stop-color="#2C87A1"/><stop offset=".338" stop-color="#235F87"/><stop offset=".459" stop-color="#1C3F72"/><stop offset=".582" stop-color="#162561"/><stop offset=".711" stop-color="#121355"/><stop offset=".846" stop-color="#10084E"/><stop offset="1" stop-color="#0F054C"/></linearGradient><linearGradient id="d" x1="54.332" y1="148.589" x2="272.165" y2="148.589" gradientUnits="userSpaceOnUse"><stop stop-color="#706EC4"/><stop offset=".022" stop-color="#6D6BC2"/><stop offset=".251" stop-color="#5651AC"/><stop offset=".486" stop-color="#463F9D"/><stop offset=".731" stop-color="#3C3494"/><stop offset="1" stop-color="#393091"/></linearGradient><linearGradient id="e" x1="115.979" y1="119.197" x2="246.728" y2="119.197" gradientUnits="userSpaceOnUse"><stop stop-color="#42E8E0"/><stop offset=".151" stop-color="#43E3E0"/><stop offset=".329" stop-color="#45D5DF"/><stop offset=".52" stop-color="#49BDDD"/><stop offset=".721" stop-color="#4E9CDB"/><stop offset=".927" stop-color="#5472D8"/><stop offset="1" stop-color="#5761D7"/></linearGradient><linearGradient id="j" x1="115.979" y1="133.289" x2="181.355" y2="133.289" gradientUnits="userSpaceOnUse"><stop stop-color="#42E8E0"/><stop offset=".151" stop-color="#43E3E0"/><stop offset=".329" stop-color="#45D5DF"/><stop offset=".52" stop-color="#49BDDD"/><stop offset=".721" stop-color="#4E9CDB"/><stop offset=".927" stop-color="#5472D8"/><stop offset="1" stop-color="#5761D7"/></linearGradient><linearGradient id="g" x1="115.979" y1="95.601" x2="181.355" y2="95.601" gradientUnits="userSpaceOnUse"><stop stop-color="#42E8E0"/><stop offset=".151" stop-color="#43E3E0"/><stop offset=".329" stop-color="#45D5DF"/><stop offset=".52" stop-color="#49BDDD"/><stop offset=".721" stop-color="#4E9CDB"/><stop offset=".927" stop-color="#5472D8"/><stop offset="1" stop-color="#5761D7"/></linearGradient><linearGradient id="h" x1="115.979" y1="109.694" x2="246.728" y2="109.694" gradientUnits="userSpaceOnUse"><stop stop-color="#42E8E0"/><stop offset=".151" stop-color="#43E3E0"/><stop offset=".329" stop-color="#45D5DF"/><stop offset=".52" stop-color="#49BDDD"/><stop offset=".721" stop-color="#4E9CDB"/><stop offset=".927" stop-color="#5472D8"/><stop offset="1" stop-color="#5761D7"/></linearGradient><linearGradient id="i" x1="181.355" y1="133.289" x2="246.728" y2="133.289" gradientUnits="userSpaceOnUse"><stop stop-color="#42E8E0"/><stop offset=".151" stop-color="#43E3E0"/><stop offset=".329" stop-color="#45D5DF"/><stop offset=".52" stop-color="#49BDDD"/><stop offset=".721" stop-color="#4E9CDB"/><stop offset=".927" stop-color="#5472D8"/><stop offset="1" stop-color="#5761D7"/></linearGradient><radialGradient id="b" cx="0" cy="0" r="1" gradientUnits="userSpaceOnUse" gradientTransform="matrix(330.658 0 0 330.169 195.919 63.195)"><stop stop-color="#42E8E0"/><stop offset=".105" stop-color="#37B6BF"/><stop offset=".22" stop-color="#2C87A1"/><stop offset=".338" stop-color="#235F87"/><stop offset=".459" stop-color="#1C3F72"/><stop offset=".582" stop-color="#162561"/><stop offset=".711" stop-color="#121355"/><stop offset=".846" stop-color="#10084E"/><stop offset="1" stop-color="#0F054C"/></radialGradient><radialGradient id="k" cx="0" cy="0" r="1" gradientUnits="userSpaceOnUse" gradientTransform="matrix(217.797 0 0 217.475 145.807 14.205)"><stop stop-color="#42E8E0"/><stop offset=".017" stop-color="#43E0DE"/><stop offset=".112" stop-color="#47BAD1"/><stop offset=".214" stop-color="#4B9AC7"/><stop offset=".324" stop-color="#4E7FBE"/><stop offset=".443" stop-color="#506BB7"/><stop offset=".578" stop-color="#525CB3"/><stop offset=".739" stop-color="#5354B0"/><stop offset="1" stop-color="#5351AF"/></radialGradient></defs></svg>