<svg width="32" height="32" fill="none" xmlns="http://www.w3.org/2000/svg"><path fill-rule="evenodd" clip-rule="evenodd" d="M1.6 16C1.6 8.048 8.048 1.6 16 1.6S30.4 8.048 30.4 16 23.952 30.4 16 30.4 1.6 23.952 1.6 16Zm18.56-4.16A4.172 4.172 0 0 0 16 7.68a4.172 4.172 0 0 0-4.16 4.16A4.172 4.172 0 0 0 16 16a4.172 4.172 0 0 0 4.16-4.16Zm-1.728 8.304a9.767 9.767 0 0 0 1.728-.64c.624-.32.88-1.088.528-1.712a1.264 1.264 0 0 0-1.712-.576 6.71 6.71 0 0 1-6 0 1.276 1.276 0 0 0-1.712.56 1.29 1.29 0 0 0 .56 1.728c.56.288 1.136.496 1.728.656l-1.664 1.664a1.284 1.284 0 0 0 0 1.808c.256.24.592.368.912.368a1.3 1.3 0 0 0 .912-.384L16 21.328l2.288 2.304c.256.24.592.368.912.368.32 0 .656-.128.896-.384a1.284 1.284 0 0 0 0-1.808l-1.664-1.664ZM17.6 11.84c0 .88-.72 1.6-1.6 1.6-.88 0-1.6-.72-1.6-1.6 0-.88.72-1.6 1.6-1.6.88 0 1.6.72 1.6 1.6Z" fill="#A1C6B9"/></svg>