<svg xmlns="http://www.w3.org/2000/svg" width="93" height="31" fill="none"><g clip-path="url(#a)"><path fill="#AB0101" fill-rule="evenodd" d="M12.76 6.245 13.548.5l.72 5.745h.454l.181-1.396.175 1.396.007.748v2.93h1.09v5.143h.47v-1.473h1.697v8.927h.288v-1.58h3.287v1.58h.257v-3.785h.75v-.732h2.651v.732h.758v11.4H.725v-11.4h.75v-.732h2.65v.732h.75v3.785h.258v-1.58H8.42v1.58h.257v-8.927h1.697v1.473h.47V9.922h1.09v-2.93l.008-.748.19-1.396.173 1.396h.455Z" clip-rule="evenodd"/><path fill="#2B2A29" d="m37.848 27.549 1.027-2.651h4.59l1.003 2.65h4.638L43.3 13.284h-4.118l-5.795 14.266h4.46Zm3.316-9.285 1.027 3.364h-2.065l1.038-3.364ZM57.78 27.834c1.51 0 2.762-.261 3.718-.773V22.89c-.944.665-2.09 1.01-3.47 1.01-1.133 0-2.053-.321-2.785-.951-.72-.654-1.086-1.474-1.086-2.497 0-.986.343-1.795 1.05-2.449.709-.665 1.594-.986 2.656-.986 1.145 0 2.29.297 3.434.927V13.83c-.98-.5-2.171-.75-3.552-.75-2.313 0-4.249.69-5.76 2.07-1.498 1.354-2.265 3.138-2.265 5.301 0 2.176.767 3.96 2.29 5.338 1.534 1.355 3.457 2.045 5.77 2.045ZM68.65 27.549V17.11h4.141v10.438h4.296V13.366H64.318v14.183h4.331ZM86.61 27.549c1.7 0 3.057-.452 4.084-1.344 1.015-.891 1.546-2.02 1.546-3.423 0-1.391-.508-2.545-1.534-3.424-1.027-.868-2.396-1.308-4.095-1.308H84.51v-1.141h6.479v-3.543H80.167v14.183h6.444Zm-2.1-6.42h1.758c.956 0 1.64.606 1.64 1.438 0 .809-.684 1.368-1.64 1.368H84.51v-2.806Z"/></g><defs><clipPath id="a"><path fill="#fff" d="M.725.5h92v30h-92z"/></clipPath></defs></svg>