<svg xmlns="http://www.w3.org/2000/svg" width="124" height="35" fill="none"><g clip-path="url(#a)"><path fill="#fff" d="M20.904 35c11.144 0 20.179-7.835 20.179-17.5S32.048 0 20.903 0C9.76 0 .726 7.835.726 17.5S9.759 35 20.904 35Z"/><path fill="#14A9CC" d="M32.985 32.705Z"/><path fill="#039BE6" d="M15.36 12.969c.009.006.064.076.092.032-.309-1.756-.654-3.481-1.121-5.098-.013-.063-.038-.112-.054-.175v-.014c-.027-.043-.026-.11-.05-.155v-.012c-.054-.144-.096-.29-.148-.43v-.016c-.137-.318-.221-.634-.396-.97-.128-.243-.384-.709-.705-.708-.32.002-.49.446-.615.692-.172.3-.282.623-.324.956v.613c.086.758.349 1.372.633 1.96.108.15.188.326.285.486v.017a16.571 16.571 0 0 0 2.404 2.822Z"/><path fill="#039BE6" d="M35.166 5.1C31.376 1.83 26.242-.005 20.896 0 15.548.006 10.42 1.85 6.64 5.13 2.859 8.41.731 12.856.725 17.494c-.007 4.638 2.108 9.088 5.88 12.376 2.246 1.954 4.997 3.418 8.023 4.269.082-.503.133-1.042.168-1.587.01-.047-.023-.133.014-.153v-.183c.011-.066-.02-.176.02-.217v-.294c.01-.217-.025-.47.019-.658v-.016c-.044-.194-.009-.454-.019-.674v-.27c-.04-.045-.009-.16-.02-.229v-.169c-.037-.02 0-.108-.014-.154v-.091c.765.165 1.575.286 2.314.474-.396.085-.488.423-.532.811-.01.051.026.133-.015.153.027 1.466.402 2.635.733 3.836 4.669.736 9.487.02 13.607-2.021a.435.435 0 0 0 .035-.033c.021-.101.033-.204.034-.307.042-.316.066-.632.072-.95v-.292c-.036-.912-.261-1.881-1.22-1.972-.663-.069-1.129.205-1.63.365 1.08-1.069 1.913-2.357 2.016-4.274v-.555c-.19-2.336-1.285-3.891-2.455-5.376a2.787 2.787 0 0 1-.302-.326 2.424 2.424 0 0 1-.28-.337v-.031h.126c.602-.166.87-.622 1.08-1.133.094-.333.158-.671.192-1.012.012-.07-.025-.182.02-.23v-.031c-.045-.04-.008-.148-.02-.218-.018-.132-.046-.255-.071-.381a.67.67 0 0 1-.072-.17v-.015a2.843 2.843 0 0 0-.387-.522c-.172-.18-.402-.352-.46-.564-.125-.944.175-1.77.478-2.438.04-.102.094-.2.161-.29 0-.072.047-.1.068-.155a1.04 1.04 0 0 1 .105-.217c.05-.155.085-.313.107-.473v-.345c-.094-.93-.331-1.74-.53-2.575-.03-.04-.027-.108-.053-.153v-.016c-.712-2.032-1.83-3.714-3.903-4.567-.012 0-.022 0-.018-.017-.217-.055-.403-.14-.637-.184-.012 0-.022 0-.017-.013-.125 0-.18.057-.284.076-.015.033-.08.023-.11.045H22.9c-.053.188-.125.382-.053.583.078.17.186.33.319.475a24.087 24.087 0 0 1 2.191 3.25c.053.085.1.172.14.262.06.055.076.15.125.217.023.061.069.109.086.17.045.041.054.108.09.154.538 1.028 1.129 2.013 1.218 3.432a.989.989 0 0 1 0 .428c.003.182-.027.363-.09.537a.341.341 0 0 1-.068.17c0 .058-.04.08-.054.123a1.097 1.097 0 0 1-.285.36 1.288 1.288 0 0 1-.425.234.503.503 0 0 1-.193.047c-.2.028-.484-.175-.672-.243-.067 0-.088-.034-.139-.046a1.19 1.19 0 0 1-.25-.094c-.252-.065-.483-.136-.725-.199a1.45 1.45 0 0 1-.32-.075c-.477-.086-.96-.148-1.446-.184-.06-.011-.166.018-.195-.016h-.916c-.028.034-.126 0-.178.015-.78.044-1.555.14-2.317.286-.084.03-.172.05-.261.061-.15.035-.286.083-.444.11a2.388 2.388 0 0 1-.355.108.713.713 0 0 1-.21.06c-.222.097-.463.171-.69.263-.021 0-.024.02-.052.015-1.722.746-3.023 1.848-3.815 3.402-.033.1-.075.197-.126.291-.02.075-.05.148-.087.218-.028.13-.073.241-.107.366v.047c-.49.242-.955.52-1.389.833-.159.119-.316.247-.478.366-.125.125-.264.24-.406.354-.293.302-.732.693-.983 1.12-.096.162-.282.552.05.567h.197c.275-.046.552-.078.83-.094h.303c.06.013.161-.018.191.018a7.93 7.93 0 0 1 2.016.368c.332.108.648.258 1.11.228-.333.087-.672.06-.986.092-.964.109-1.607.544-2.192.95a4.888 4.888 0 0 1-.377.327c-.125.17-.305.217-.282.459.024.241.343.382.6.489.67.283 1.496.435 2.278.551.174.034.352.055.531.062.13-.018.26-.044.386-.076.408-.067 1.003-.102 1.15.182.147.284-.098.652-.213.827-.116.175-.15.225-.086.416.107.332.35.578.58.843.115.083.222.174.32.273.986.735 2.19 1.274 3.48 1.733a39.96 39.96 0 0 0 3.551 1.088c.182.03.36.075.53.135a4.365 4.365 0 0 1-1.024.123c-.035.037-.148.007-.213.018h-.425c-.076-.011-.198.02-.25-.018a22.742 22.742 0 0 1-3.906-.537 45.273 45.273 0 0 1-3.054-.783 4.075 4.075 0 0 0-.422-.137 2.19 2.19 0 0 0-.443.093 7.079 7.079 0 0 1-1.431.2 1.47 1.47 0 0 1-.458 0c-1.497-.073-2.336-.715-2.561-1.882-.21.071-.43.116-.655.134-1.24.021-1.345-1.47-.902-2.267.125-.238.352-.38.53-.55.355-.344.493-.933.16-1.502-.102-.174-.324-.28-.46-.52-.213-.377-.092-.769.088-1.087.183-.295.385-.58.604-.856.408-.577 1.051-1.05 1.463-1.488a.976.976 0 0 1 .178-.154c.026-.044.08-.062.104-.109a1.12 1.12 0 0 1 .177-.153c.043-.06.118-.092.16-.151.055-.165.44-.288.477-.475v-.264c.013-.047-.023-.132.019-.151.01-.18.057-.357.14-.522.542-1.178 1.608-1.906 2.702-2.61a11.433 11.433 0 0 1-1.89-2.542v-.015a1.073 1.073 0 0 1-.14-.245 7.786 7.786 0 0 1-.515-1.15.498.498 0 0 1-.07-.184 7.603 7.603 0 0 1-.458-2.329v-.53c0-.048-.012-.108.016-.139.012-.062-.022-.163.02-.2v-.015c.06-.723.256-1.432.581-2.1.078-.206.178-.406.301-.595.008-.008.011-.026.02-.033.41-.358 1.143-.74 1.784-.365.525.309.78.898.99 1.547.19.656.344 1.321.458 1.99.148.645.366 1.276.652 1.884.04.045.07.098.088.153v.017c.111.157.199.338.3.503v.013c.057.063.105.13.142.203v.021c.383.54.853 1.03 1.395 1.455.157.114.398.334.585.366.22.043.445-.031.653 0h.529c.094-.036.266-.006.39-.014h.3c.076-.036.229 0 .335-.017h.212c.054-.036.183 0 .265-.015h.16c.04-.034.158 0 .23-.012h.14c.036-.037.148-.01.213-.017 1.202-.075 2.433-.127 3.41-.4.096-.045.185-.101.264-.167v-.277c-.038-.036 0-.136-.017-.2a10.922 10.922 0 0 0-.814-3.277c-.039-.053-.056-.126-.09-.184v-.015c-.05-.093-.088-.197-.14-.292v-.015a13.32 13.32 0 0 0-1.023-1.716c-.376-.519-.878-1.013-.937-1.777V3.6a.604.604 0 0 1 0-.32v-.02a.74.74 0 0 1 .053-.257c.024-.038.03-.096.07-.123.05-.095.12-.18.208-.251a.93.93 0 0 1 .303-.162c.179-.095.448-.109.709-.138h.25a3.767 3.767 0 0 1 1.571.384c.927.425 1.641 1.053 2.28 1.73.657.696 1.225 1.451 1.696 2.253v.01c.164.26.311.528.441.803v.013a.798.798 0 0 1 .073.14c.452.86.58 2.005.635 3.215.042.036 0 .137.018.2v.14c.043.043.007.157.019.228v.245c.02.122.025.245.014.367v1.011c.011.164.006.328-.014.49v.186c-.012.078.024.193-.02.243v.109c-.01.055.025.152-.017.182v.093c-.012.045.025.131-.02.154a6.554 6.554 0 0 1-.263 1.67.597.597 0 0 1-.07.217c-.023.11-.058.217-.105.32a1.38 1.38 0 0 1-.14.353c0 .02-.006.041-.017.06-.025.053-.03.119-.074.153-.09.264-.207.502-.319.751-.021.074-.05.147-.085.218a1.07 1.07 0 0 1-.056.217v.184c.006.021.025.03.019.063.077.108.14.217.211.335 1.219 1.522 2.316 3.167 3.11 5.072.796 1.905 1.297 4.034 1.555 6.42l-1.63 1.176a19.856 19.856 0 0 0 2.517-1.864c1.876-1.626 3.364-3.557 4.379-5.682a15.518 15.518 0 0 0 1.538-6.703c0-2.3-.523-4.578-1.538-6.704-1.015-2.125-2.504-4.055-4.38-5.682v.002ZM23.078 18c-.376-.06-.74-.166-1.042-.2-.376-.043-.627.145-.971.217.09-.19.215-.366.37-.521.195-.207.435-.38.707-.507.082-.028.136-.083.244-.09a.487.487 0 0 1 .216-.062c.143-.039.293-.054.442-.045.016-.026.158-.026.177 0 .73.044 1.286.241 2.048.261h.335c.16-.01.287-.035.444-.047a.632.632 0 0 1 .212-.06.356.356 0 0 1-.054.167.349.349 0 0 1-.052.154.55.55 0 0 1-.125.2.645.645 0 0 1-.14.182.862.862 0 0 1-.176.153 2.11 2.11 0 0 1-1.168.356h-.286c-.397-.03-.792-.083-1.181-.158Z"/><path fill="#1C1C1C" d="M56.177 19.702c-1.535 0-3.055 1.026-3.055 2.34 0 2.684 4.282 2.57 6.845 2.284v1.227c-1.264.742-2.534 1.114-3.828 1.114-5.03 0-7.367-3.969-7.367-7.79 0-3.489 2.63-7.54 7.175-7.54 3.7 0 6.781 2.914 6.781 6.14 0 1.024-1.78 2.568-2.884 2.568-1.243.003-2.44-.343-3.667-.343Zm-2.602-3.6c0 .484 1.492 1.568 2.24 1.568.906 0 2.367-1.11 2.367-1.853 0-.914-1.297-1.884-2.367-1.884-1.36.005-2.24.917-2.24 2.177v-.008ZM70.88 25.9c-2.011 0-3.862-.571-4.094-2.885-.256-2.34-.357-4.768-.357-7.137 0-2.595.165-6.506.649-9.218.358-.337.974-.827 1.492-.827l.423.142c.944 1.941 1.202 5.138 1.202 6.938 0 2.08-.29 4.138-.29 6.188 0 3.253 1.558 3.969 3.113 4.163.844.145 1.69.088 2.34.145.94.087 1.46.401 1.494 1.085.128.716-.91 1.226-2.402 1.341-1.195.12-2.66.064-3.57.064ZM88.836 25.9c-.785.285-2.892.368-3.64.368-3.473 0-5.81.2-6.909-3.625a3.64 3.64 0 0 1-.098-1.026c0-2.941 1.785-4.223 3.47-5.024.78-.4 1.59-.686 2.21-.999.55-.286.779-.544.779-.855 0-.656-1.267-.742-1.818-.917-.715-.225-1.296-.57-1.296-1.34 0-.971 1.847-1.283 2.687-1.283 4.616 0 5.49 3.398 5.49 6.478 0 1.688.52 3.37.52 5.053a8.297 8.297 0 0 1-.23 1.912c-.487.401-.457.967-1.165 1.257Zm-7.245-4.456c0 .911.683 1.824 1.596 1.824 1.783 0 2.982-1.254 2.917-2.882-.063-1.456-1.423-1.63-2.077-1.63-1.003 0-2.436 1.689-2.436 2.688ZM107.369 25.868c-.326 0-.712-.171-1.038-.225-1.882-2.114-1.041-4.51-1.041-6.937 0-.51.128-2.88-.582-2.88-2.791 0-1.791 4.736-1.791 6.163 0 .83-.585 3.796-1.944 3.796-2.528 0-1.851-5.25-1.851-6.591 0-.773.23-3.482-1.105-3.482-1.265 0-1.624 1.913-1.624 2.767 0 1.286.327 2.57.327 3.88 0 1.116-.522 3.513-2.208 3.513-.945 0-1.653-2.712-1.792-5.707-.128-2.768-.033-5.739-.033-6.536 0-1.4 1.17-1.77 2.303-1.77 2.499 0 4.966-.543 7.466-.543 6.002 0 6.751 3.795 6.751 7.962 0 .573.094 2.114-.033 3.542-.151 1.65-.769 3.048-1.805 3.048ZM122.334 25.9c-.782.285-2.889.368-3.636.368-3.472 0-5.806.2-6.909-3.625a3.625 3.625 0 0 1-.099-1.026c0-2.941 1.791-4.223 3.471-5.024.777-.4 1.592-.686 2.209-.999.554-.286.776-.544.776-.855 0-.656-1.265-.742-1.813-.917-.717-.225-1.3-.57-1.3-1.34 0-.971 1.848-1.283 2.687-1.283 4.606 0 5.486 3.398 5.486 6.478 0 1.688.519 3.37.519 5.053a8.296 8.296 0 0 1-.228 1.912c-.482.401-.452.967-1.163 1.257Zm-7.239-4.456c0 .911.68 1.824 1.59 1.824 1.79 0 2.986-1.254 2.921-2.882-.062-1.456-1.428-1.63-2.07-1.63-1.011 0-2.441 1.689-2.441 2.688Z"/></g><defs><clipPath id="a"><path fill="#fff" d="M.725 0h123v35h-123z"/></clipPath></defs></svg>