<svg width="167" height="52" viewBox="0 0 167 52" fill="none" xmlns="http://www.w3.org/2000/svg">
<path d="M112.273 29.0448V29.9921C112.273 31.2777 111.818 32.2701 110.816 32.8114C109.904 33.3076 108.651 33.5557 107.079 33.5557C105.826 33.5557 104.55 33.4655 103.297 33.285L102.91 33.2399V32.8565V31.3003V30.7815L103.434 30.8717C105.211 31.1649 106.441 31.3003 107.125 31.3003C108.013 31.3003 108.606 31.2101 108.97 31.0747C109.13 31.007 109.198 30.9845 109.243 30.8492C109.312 30.7364 109.357 30.6236 109.334 30.4206V29.2704C109.334 28.9095 109.221 28.7516 109.084 28.6614C108.879 28.5261 108.492 28.4359 107.808 28.4359H106.578C105.393 28.4359 104.414 28.1877 103.708 27.6239C103.001 27.06 102.66 26.2707 102.66 25.3234V24.3084C102.66 23.271 103.161 22.4815 104.118 21.9853C105.029 21.5117 106.328 21.2862 107.968 21.2862C108.332 21.2862 109.448 21.3538 111.294 21.4666L111.726 21.4892V21.9177V23.3837V23.925L111.203 23.8348C110.109 23.6318 109.016 23.5416 107.899 23.519C106.829 23.519 106.213 23.6318 105.94 23.7671C105.735 23.8799 105.598 24.0603 105.598 24.4437V25.3685C105.598 25.5714 105.666 25.7068 105.872 25.797C106.099 25.9323 106.51 26.0225 107.147 26.0225H107.945H108.4C109.585 26.0225 110.564 26.2481 111.248 26.7668C111.932 27.2856 112.273 28.075 112.273 29.0448ZM97.8752 17.5422H97.4195V18.2188V32.879V33.3301H97.8752H99.9029H100.359V32.879V18.2188V17.5422H99.9029H97.8752ZM124.598 25.4587V27.872V28.3682H124.143H117.308V29.5185C117.308 30.1725 117.536 30.556 117.901 30.759C118.333 31.0296 119.04 31.1874 120.065 31.1874C121.067 31.1874 122.229 31.007 123.596 30.6687L124.165 30.5334V31.1198V32.6535V33.0144L123.801 33.1046C122.48 33.3978 121.113 33.5557 119.768 33.5782C118.06 33.5782 116.716 33.3076 115.782 32.676C114.802 32.0219 114.346 31.0296 114.346 29.7891V25.4587C114.346 24.0378 114.757 22.9326 115.668 22.2335C116.556 21.5794 117.901 21.2862 119.609 21.2862C121.204 21.2862 122.48 21.5568 123.323 22.2109C124.211 22.865 124.598 24.0152 124.598 25.4587ZM121.66 24.8272C121.66 24.2633 121.477 23.9701 121.272 23.8573C120.976 23.6769 120.429 23.5641 119.495 23.5641C118.629 23.5641 118.06 23.6769 117.718 23.8573C117.49 23.9927 117.308 24.2633 117.308 24.8498V26.1353H121.66V24.8272ZM92.4533 21.5117H91.9975V21.9628V30.1951C91.9975 30.6236 91.8611 30.8266 91.6106 30.9394C91.2683 31.0972 90.6079 31.2101 89.4689 31.2101C89.0813 31.2101 88.7174 31.1875 88.3298 31.0747C88.1245 31.0296 88.0111 30.9619 87.874 30.804C87.7829 30.6913 87.7147 30.5785 87.6687 30.4206C87.6235 30.2176 87.6006 30.0597 87.6235 29.8567V21.9628V21.5117H87.1677H85.1401H84.6843V21.9628V29.9695C84.6843 31.0972 84.9807 32.0219 85.6418 32.6535C86.3251 33.3076 87.4642 33.5557 88.9219 33.5557C90.0381 33.5557 90.9496 33.4203 91.6329 33.1271C91.77 33.0595 91.9064 32.9918 92.0434 32.9016V33.3301H92.4985H94.5262H94.982V32.879V21.9628V21.5117H94.5262H92.4533ZM145.124 25.3234C144.214 25.3234 143.416 25.8196 143.029 26.5639H140.364L139.179 16.64H136.718L133.278 29.8117L132.39 26.1128H127.15V28.3682H130.339L132.002 35.36H134.372L137.447 23.7897L138.108 28.4359L138.177 28.8193H143.029C143.439 29.5636 144.214 30.0597 145.124 30.0597C146.446 30.0597 147.517 28.9997 147.517 27.6916C147.517 26.3834 146.446 25.3234 145.124 25.3234ZM81.9963 19.6172C82.2245 20.0683 82.3609 21.1283 82.3609 21.1283V24.1731C82.3609 25.5489 81.814 26.609 80.6749 27.2179C79.604 27.7818 78.1692 28.0524 76.3691 28.0524H74.6149V32.879V33.3301H74.1598H71.9721H71.5171V32.879V18.2413V17.7902H71.9721H76.7337C77.3488 17.7902 77.8728 17.8128 78.3056 17.8354C78.7843 17.8805 79.2853 17.9481 79.7411 18.0609C80.1969 18.1511 80.6749 18.3541 81.0625 18.6022C81.4494 18.8729 81.7688 19.2338 81.9963 19.6172ZM79.3083 21.3764C79.3313 21.1058 79.2624 20.8802 79.103 20.6772C78.9207 20.4517 78.7384 20.3389 78.465 20.2938C78.1692 20.2036 77.8728 20.1585 77.5771 20.1133C77.3259 20.0908 77.0301 20.0908 76.6426 20.0908H74.6608V25.797H76.6885C77.5082 25.797 78.1233 25.6617 78.6932 25.3685C79.126 25.143 79.3535 24.7595 79.3535 24.0829L79.3083 21.3764ZM26.2495 24.0378H24.4953C23.584 24.0378 23.0829 23.925 22.8322 23.7671C22.6272 23.6318 22.4905 23.4288 22.4905 23.0228V21.3538C22.4905 20.8125 22.6728 20.4968 22.969 20.3389C23.1284 20.2487 23.4018 20.1585 23.8347 20.0908C24.2675 20.0231 24.8143 20.0006 25.4977 20.0006C26.409 20.0006 27.6848 20.1359 29.3251 20.384L29.849 20.4742V19.9555V18.2639V17.8579L29.439 17.8128C28.186 17.655 26.9102 17.5647 25.6344 17.5647C23.4474 17.5647 21.8298 17.8354 20.8731 18.4895C19.939 19.1435 19.4833 20.1359 19.4833 21.4215V22.5943C19.4833 23.8123 19.7795 24.8272 20.4629 25.5264C21.1692 26.2481 22.3539 26.5639 23.8574 26.5639H25.566C26.4773 26.5639 26.9558 26.6992 27.1836 26.857C27.3886 26.9924 27.5253 27.2856 27.5253 27.8269V29.7215C27.5253 30.0147 27.4797 30.1951 27.3886 30.3755C27.2975 30.556 27.2063 30.6236 26.9785 30.7138C26.5229 30.9168 25.7939 31.0296 24.7915 31.0296C23.5385 31.0296 22.0576 30.8492 20.3034 30.4658L19.7567 30.353V30.9168V32.7437V33.1271L20.1668 33.1948C21.6476 33.4203 23.174 33.5331 24.6776 33.5557C26.5685 33.5557 28.0721 33.2625 29.0517 32.5858C30.1224 31.8641 30.5781 30.6236 30.5781 28.9772V27.9171C30.5781 26.6766 30.3047 25.6617 29.644 25.0076C28.9605 24.3084 27.7759 24.0378 26.2495 24.0378ZM68.3274 17.5422H68.783V18.2188V32.879V33.3301H68.3274H66.3454H65.8897V32.879C65.7758 32.9467 65.6847 32.9918 65.5708 33.0595C64.8418 33.3978 63.8621 33.5557 62.723 33.5557C61.1283 33.5557 59.8981 33.3076 59.1236 32.7212C58.3034 32.0896 57.9845 31.007 57.9845 29.6312V24.8272C57.9845 23.6318 58.349 22.6845 59.1919 22.0981C59.9893 21.5342 61.2422 21.2862 62.837 21.2862C63.6799 21.2862 64.5456 21.399 65.343 21.647C65.5252 21.7147 65.7075 21.7824 65.8897 21.8726C65.8897 21.2636 65.867 20.7449 65.867 20.384V18.2188V17.5422H66.3226H67.8946H68.3274ZM65.867 24.6242C65.867 24.331 65.7302 24.1055 65.3658 23.925C64.9557 23.7221 64.295 23.6092 63.3382 23.6092C62.7459 23.6092 62.2902 23.6318 61.9029 23.6769C61.5156 23.7221 61.3106 23.7897 61.1967 23.8348C61.06 23.9025 60.9005 24.0829 60.9005 24.6242V30.0147C60.9005 30.5334 61.06 30.7815 61.3106 30.9394C61.6068 31.1198 62.1991 31.2551 63.1559 31.2551C64.2494 31.2551 64.9557 31.1198 65.3658 30.9168C65.7075 30.759 65.867 30.4883 65.867 30.0147V24.6242ZM43.0397 25.4587V27.872V28.3682H42.584H35.7495V29.5185C35.7495 30.1725 35.9773 30.556 36.3418 30.759C36.7747 31.0296 37.4809 31.1874 38.5061 31.1874C39.5084 31.1874 40.6704 31.007 42.0372 30.6687L42.6068 30.5334V31.1198V32.6535V33.0144L42.2423 33.1046C40.9209 33.3978 39.554 33.5557 38.21 33.5782C36.5241 33.5782 35.1572 33.3076 34.2231 32.676C33.2435 32.0219 32.7879 31.0296 32.7879 29.7891V25.4587C32.7879 24.0378 33.1979 22.9326 34.1092 22.2335C34.9977 21.5794 36.3419 21.2862 38.0505 21.2862C39.6452 21.2862 40.9209 21.5568 41.7639 22.2109C42.6751 22.865 43.0397 24.0152 43.0397 25.4587ZM40.1236 26.1128L40.1008 24.8272C40.1008 24.2633 39.9186 23.9701 39.7135 23.8573C39.4174 23.6769 38.8706 23.5641 37.9366 23.5641C37.0708 23.5641 36.5013 23.6769 36.1595 23.8573C35.9317 23.9927 35.7495 24.2633 35.7495 24.8498L35.7723 26.1353H40.1236V26.1128ZM51.4917 21.2862C50.3753 21.2862 49.4641 21.4215 48.7806 21.7147C48.644 21.7824 48.5072 21.8501 48.3706 21.9403V21.5117H47.915H45.9101H45.4545V21.9628V32.879V33.3301H45.9101H47.9377H48.3933V32.879V24.985C48.3933 24.3761 48.5756 24.0829 48.7806 23.9476C49.054 23.7671 49.7147 23.6318 50.9221 23.6318C51.3094 23.6318 51.6739 23.6544 52.0612 23.7671C52.2663 23.8123 52.3802 23.8799 52.5168 24.0378C52.608 24.1505 52.6763 24.2633 52.6991 24.4212C52.7447 24.6242 52.7675 24.7821 52.7447 24.985V32.879V33.3301H53.2003H55.2279H55.6835V32.879V24.8723C55.6835 23.7446 55.3874 22.8199 54.7495 22.1883C54.0888 21.5342 52.9497 21.2862 51.4917 21.2862Z" fill="#199FC0"/>
</svg>
