<svg width="120" height="38" viewBox="0 0 120 38" fill="none" xmlns="http://www.w3.org/2000/svg">
<g clip-path="url(#clip0_437_440)">
<path d="M12.4392 35.7198V25.1574H16.4334V35.7198H12.4392Z" fill="#80C41D"/>
<path d="M28.2951 33.2974H0V37.329H28.2951V33.2974Z" fill="#80C41D"/>
<path d="M0 28.7247V0.5H13.3971L15.396 4.5316H3.99424V24.6931H24.3009V10.5808H9.98732V18.644H17.9758V16.6264H12.3182V12.5948H21.97V22.6756H5.99308V6.54915H28.2951V28.7247H0Z" fill="#80C41D"/>
<path d="M33.97 12.7414C33.9596 12.2543 34.0503 11.7704 34.2363 11.3208C34.3992 10.939 34.6464 10.5999 34.9591 10.3294C35.2783 10.0579 35.6489 9.8548 36.0484 9.73255C36.488 9.59257 36.9466 9.52307 37.4075 9.52661H45.683C45.7481 9.51836 45.8134 9.54121 45.8595 9.58842C45.9056 9.63563 45.9273 9.70181 45.9181 9.76745V12.3924C45.9273 12.458 45.9056 12.5242 45.8595 12.5714C45.8134 12.6186 45.7481 12.6415 45.683 12.6332H38.5383C38.2035 12.5971 37.8721 12.7272 37.6496 12.9823C37.4658 13.2783 37.3787 13.625 37.4006 13.9736V16.2425C37.4006 16.417 37.4801 16.5042 37.6392 16.5042H44.9014C44.9669 16.4945 45.0331 16.5168 45.0796 16.5644C45.1261 16.612 45.1472 16.6791 45.1366 16.7451V19.37C45.1472 19.436 45.1261 19.5031 45.0796 19.5507C45.0331 19.5983 44.9669 19.6206 44.9014 19.6108H37.6392C37.4801 19.6108 37.4006 19.6981 37.4006 19.8726V26.4279C37.41 26.4933 37.3882 26.5594 37.3419 26.6061C37.2956 26.6528 37.2302 26.6748 37.1654 26.6653H34.2052C34.1404 26.6748 34.0749 26.6528 34.0286 26.6061C33.9823 26.5594 33.9606 26.4933 33.97 26.4279V12.7414Z" fill="#161616"/>
<path d="M46.9833 18.0925C46.9833 17.1616 46.9914 16.3472 47.0075 15.6491C47.0108 15.0888 47.0582 14.5297 47.1493 13.9771C47.2738 13.3558 47.4087 12.8008 47.5504 12.3051C47.6669 11.8685 47.8589 11.4561 48.1176 11.0869C48.4501 10.6607 48.8511 10.2938 49.3038 10.0013C49.7652 9.69421 50.2768 9.47203 50.815 9.3451C51.3078 9.25289 51.8077 9.20499 52.3089 9.20199C52.9222 9.1857 53.6553 9.17755 54.5084 9.17755C55.3614 9.17755 56.0968 9.19384 56.7147 9.22642C57.2148 9.22921 57.7136 9.27711 58.2052 9.36953C59.2726 9.63003 60.2224 10.2446 60.9026 11.1148C61.1627 11.4832 61.3548 11.8958 61.4698 12.333C61.615 12.8287 61.7464 13.3802 61.8744 14.005C61.962 14.5581 62.0094 15.1169 62.0161 15.677C62.0161 16.3751 62.0404 17.1744 62.0404 18.1204V18.2635C62.0404 19.2025 62.0404 20.0088 62.0161 20.7069C62.0094 21.267 61.962 21.8258 61.8744 22.3789C61.7464 23.0002 61.615 23.5552 61.4698 24.0509C61.3548 24.488 61.1627 24.9007 60.9026 25.2691C60.2224 26.1393 59.2726 26.7538 58.2052 27.0143C57.7136 27.1068 57.2148 27.1547 56.7147 27.1575C56.0991 27.1761 55.366 27.1842 54.5153 27.1819C53.6646 27.1796 52.9314 27.1714 52.3159 27.1575C51.8147 27.1544 51.3147 27.1066 50.8219 27.0143C50.2795 26.8796 49.7653 26.6479 49.3038 26.3302C48.8511 26.0378 48.4501 25.6708 48.1176 25.2446C47.8589 24.8754 47.6669 24.463 47.5504 24.0264C47.4087 23.5308 47.2738 22.9792 47.1493 22.3544C47.0582 21.8018 47.0108 21.2427 47.0075 20.6825C46.9891 19.9983 46.981 19.1838 46.9833 18.2391V18.0925ZM53.1112 12.5076C52.7291 12.5237 52.3493 12.5763 51.977 12.6646C51.4744 12.7612 51.0359 13.0682 50.77 13.5093C50.5006 14.1048 50.3817 14.7585 50.4242 15.4117V20.9093C50.3808 21.5615 50.4997 22.2143 50.77 22.8082C51.0345 23.2513 51.4734 23.5598 51.977 23.6564C52.3491 23.7451 52.7291 23.7966 53.1112 23.81C53.5539 23.8344 54.0173 23.8484 54.4945 23.8484C54.9718 23.8484 55.449 23.8484 55.8778 23.81C56.26 23.7966 56.6399 23.7451 57.0121 23.6564C57.5151 23.5586 57.9536 23.2504 58.219 22.8082C58.4877 22.2137 58.6065 21.5614 58.5649 20.9093V15.4187C58.6056 14.7656 58.4869 14.1123 58.219 13.5163C57.9522 13.0761 57.5142 12.7694 57.0121 12.6716C56.6398 12.5833 56.26 12.5307 55.8778 12.5145C55.4352 12.4901 54.9683 12.4796 54.4945 12.4796C54.0208 12.4796 53.5539 12.4901 53.1112 12.5145V12.5076Z" fill="#161616"/>
<path d="M64.0911 9.54056H72.8922C73.3386 9.54258 73.7804 9.63269 74.1925 9.80584C74.6688 10.0172 75.0963 10.3262 75.4478 10.7134C76.1579 11.4604 76.536 12.5902 76.5821 14.1027V14.6542C76.5821 16.0505 76.4173 17.0685 76.0876 17.7085C75.877 18.0149 75.6459 18.3065 75.396 18.5811C75.1157 18.877 74.7884 19.1236 74.4277 19.3107C74.4058 19.3319 74.3861 19.3553 74.3689 19.3805C74.3451 19.4153 74.333 19.4569 74.3343 19.4991C74.3342 19.5329 74.3412 19.5662 74.355 19.5969C74.6615 19.9815 74.9205 20.4023 75.1262 20.85C75.2749 21.1991 75.4133 21.5795 75.5377 21.96L76.8415 25.9986C76.873 26.1271 76.9333 26.2465 77.0179 26.3476C77.1043 26.4524 77.1493 26.5187 77.1493 26.5501C77.1493 26.5815 77.1009 26.6688 77.0075 26.6688H73.7429C73.6461 26.6688 73.5424 26.585 73.4317 26.4174C73.3418 26.29 73.2707 26.1501 73.2207 26.0021L71.7545 21.8134C71.5331 20.9233 71.0836 20.4172 70.4058 20.3334H67.5182C67.4534 20.3239 67.3879 20.3458 67.3416 20.3926C67.2953 20.4393 67.2736 20.5053 67.283 20.5708V26.4279C67.2912 26.4937 67.2685 26.5595 67.2218 26.6061C67.175 26.6526 67.1094 26.6745 67.0444 26.6653H64.0876C64.0226 26.6745 63.957 26.6526 63.9102 26.6061C63.8635 26.5595 63.8408 26.4937 63.849 26.4279V9.78141C63.8394 9.71438 63.8619 9.64672 63.9097 9.59918C63.9575 9.55163 64.0248 9.52987 64.0911 9.54056ZM67.5216 12.6472C67.4568 12.6377 67.3914 12.6596 67.3451 12.7063C67.2988 12.7531 67.277 12.8191 67.2865 12.8845V16.78C67.2865 16.9371 67.3695 17.0174 67.5458 17.0174H71.8271C72.1043 16.9906 72.3635 16.8672 72.5602 16.6683C72.8 16.4505 72.9759 16.1703 73.0686 15.8585C73.1931 15.4648 73.2538 15.0535 73.2484 14.6403C73.2483 14.4362 73.2368 14.2322 73.2138 14.0294C73.1905 13.8509 73.1379 13.6775 73.0582 13.5163C72.8058 12.9927 72.5049 12.7065 72.1591 12.6576L67.5216 12.6472Z" fill="#161616"/>
<path d="M78.8784 13.066C78.8693 12.5283 78.925 11.9915 79.0444 11.4674C79.1333 11.0596 79.3291 10.6834 79.6115 10.3783C79.9114 10.0824 80.2819 9.86963 80.687 9.76048C81.2392 9.61049 81.8099 9.54114 82.3816 9.55453C83.3752 9.55453 84.0968 9.71394 84.5464 10.0327C84.988 10.3431 85.3094 10.7982 85.4559 11.3208L88.6271 23.1189C88.6755 23.276 88.7516 23.3562 88.8622 23.3562C88.9729 23.3562 89.0282 23.276 89.0282 23.1189V9.78142C89.0191 9.71578 89.0408 9.64959 89.0869 9.60238C89.133 9.55517 89.1982 9.53232 89.2634 9.54057H92.2236C92.2891 9.53079 92.3553 9.55315 92.4018 9.60074C92.4483 9.64834 92.4694 9.71546 92.4588 9.78142V23.9182C92.4573 24.2461 92.394 24.5707 92.272 24.8746C92.145 25.1919 91.9738 25.4892 91.7637 25.7577C91.5563 26.0245 91.299 26.2474 91.0063 26.414C90.7212 26.5793 90.398 26.6659 90.0692 26.6653H87.8939C87.6835 26.6596 87.4768 26.6072 87.2888 26.5117C87.0713 26.4028 86.869 26.2655 86.687 26.1033C86.498 25.9394 86.3307 25.7517 86.189 25.5448C86.0521 25.348 85.9481 25.1299 85.8813 24.8991L82.6893 13.0311C82.6409 12.888 82.5683 12.8182 82.4749 12.8182C82.3816 12.8182 82.3089 12.888 82.3089 13.0311V26.4279C82.3183 26.4933 82.2966 26.5594 82.2503 26.6061C82.204 26.6529 82.1386 26.6748 82.0738 26.6653H79.117C79.052 26.6745 78.9864 26.6526 78.9396 26.6061C78.8928 26.5596 78.8702 26.4937 78.8784 26.4279V13.066Z" fill="#161616"/>
<path d="M94.3781 13.1952C94.3356 12.2365 94.6474 11.2961 95.253 10.5563C95.834 9.87914 96.6778 9.54056 97.7845 9.54056H105.821C106.025 9.54056 106.129 9.62084 106.129 9.78141V12.4063C106.138 12.472 106.117 12.5381 106.07 12.5853C106.024 12.6326 105.959 12.6554 105.894 12.6472H98.0438C97.8847 12.6472 97.8087 12.7344 97.8087 12.909V16.1587C97.7992 16.2241 97.821 16.2901 97.8673 16.3369C97.9136 16.3836 97.979 16.4055 98.0438 16.396H105.306C105.371 16.3878 105.436 16.4106 105.483 16.4578C105.529 16.5051 105.55 16.5712 105.541 16.6369V19.3805C105.55 19.4461 105.529 19.5123 105.483 19.5595C105.436 19.6067 105.371 19.6296 105.306 19.6213H98.0438C97.979 19.6118 97.9136 19.6337 97.8673 19.6805C97.821 19.7272 97.7992 19.7933 97.8087 19.8587V23.3213C97.798 23.3873 97.8192 23.4544 97.8657 23.502C97.9121 23.5496 97.9783 23.5719 98.0438 23.5622H105.877C105.941 23.5527 106.007 23.5746 106.053 23.6213C106.1 23.6681 106.121 23.7341 106.112 23.7995V26.4279C106.121 26.4933 106.1 26.5594 106.053 26.6061C106.007 26.6528 105.941 26.6748 105.877 26.6653H96.7193C96.4214 26.6627 96.1289 26.5846 95.8686 26.4384C95.581 26.2908 95.3211 26.0935 95.1009 25.8555C94.8807 25.6193 94.7008 25.348 94.5683 25.0526C94.4369 24.7734 94.3684 24.4682 94.3677 24.159L94.3781 13.1952Z" fill="#161616"/>
<path d="M111.354 26.4279C111.275 26.5536 111.202 26.6269 111.13 26.6409C111.056 26.6582 110.981 26.6664 110.905 26.6653H108.28C108.188 26.6678 108.097 26.6596 108.007 26.6409C107.934 26.6409 107.9 26.571 107.9 26.4768C107.918 26.3916 107.951 26.3102 107.997 26.236L111.946 18.452C111.986 18.3904 112.021 18.3263 112.053 18.26C112.082 18.2081 112.102 18.1514 112.112 18.0925C112.103 18.0367 112.083 17.9833 112.053 17.9354C112.015 17.8656 111.977 17.8062 111.946 17.7574L108.007 9.96991C107.962 9.89678 107.929 9.81656 107.91 9.73256C107.91 9.63831 107.945 9.58246 108.017 9.56501C108.107 9.54801 108.199 9.53983 108.29 9.54057H110.915C110.991 9.54123 111.066 9.54942 111.14 9.56501C111.213 9.58246 111.285 9.65227 111.365 9.78142L113.803 14.4867L113.862 14.6159C113.887 14.6717 113.915 14.6996 113.945 14.6996C113.975 14.6996 114.002 14.6717 114.028 14.6159C114.052 14.5635 114.069 14.5181 114.086 14.4867L116.542 9.78142C116.621 9.65227 116.694 9.58246 116.767 9.56501C116.841 9.54942 116.916 9.54123 116.991 9.54057H119.616C119.708 9.54 119.799 9.54818 119.889 9.56501C119.959 9.58246 119.997 9.63831 119.997 9.73256C119.976 9.81598 119.943 9.89593 119.9 9.96991L115.93 17.7574C115.897 17.8062 115.863 17.8656 115.826 17.9354C115.795 17.9824 115.774 18.0362 115.767 18.0925C115.775 18.1518 115.795 18.2089 115.826 18.26C115.857 18.3261 115.891 18.3902 115.93 18.452L119.882 26.236C119.926 26.311 119.959 26.3922 119.979 26.4768C119.979 26.571 119.941 26.6269 119.872 26.6409C119.782 26.6594 119.691 26.6676 119.599 26.6653H116.974C116.898 26.6664 116.823 26.6582 116.749 26.6409C116.677 26.6409 116.604 26.5536 116.525 26.4279L114.086 21.7226C114.086 21.6912 114.052 21.6459 114.028 21.59C114.003 21.5342 113.976 21.5062 113.945 21.5062C113.914 21.5062 113.886 21.5342 113.862 21.59L113.803 21.7226L111.354 26.4279Z" fill="#161616"/>
</g>
<defs>
<clipPath id="clip0_437_440">
<rect width="120" height="37" fill="white" transform="translate(0 0.5)"/>
</clipPath>
</defs>
</svg>
