<svg width="57" height="57" viewBox="0 0 57 57" fill="none" xmlns="http://www.w3.org/2000/svg">
<g clip-path="url(#clip0)">
<path d="M28.5188 57.0376C44.2693 57.0376 57.0376 44.2693 57.0376 28.5188C57.0376 12.7683 44.2693 0 28.5188 0C12.7683 0 0 12.7683 0 28.5188C0 44.2693 12.7683 57.0376 28.5188 57.0376Z" fill="url(#paint0_linear)"/>
<path d="M41.3866 16.2158L11.3252 28.5188L38.1509 55.3445C48.1965 51.7327 55.6084 42.6277 56.8123 31.6416L41.3866 16.2158Z" fill="#007AAE"/>
<path d="M19.0752 30.7762L22.3485 39.6931L36.9089 19.4515L19.0752 30.7762Z" fill="#C2DAEC"/>
<path d="M22.7244 32.7703L22.3857 39.7683L30.061 33.2594L22.7244 32.7703Z" fill="#9FCDE2"/>
<path d="M40.4454 16.0653L11.7761 26.9762C10.9484 27.2772 10.986 28.4436 11.8138 28.7069L19.188 31.1901L36.0435 20.3168L22.7246 32.7703L33.1088 40.6336C34.1999 41.4614 35.7425 40.897 36.0811 39.5802L41.687 17.1188C41.8751 16.4039 41.1603 15.802 40.4454 16.0653Z" fill="#ECF8FD"/>
</g>
<defs>
<linearGradient id="paint0_linear" x1="8.34815" y1="8.34811" x2="48.6565" y2="48.6564" gradientUnits="userSpaceOnUse">
<stop stop-color="#00AFE5"/>
<stop offset="1" stop-color="#0094D4"/>
</linearGradient>
<clipPath id="clip0">
<rect width="57" height="57" fill="white"/>
</clipPath>
</defs>
</svg>
