<svg xmlns="http://www.w3.org/2000/svg" width="32" height="32" fill="none"><path fill="#A1C6B9" d="M16 1.6C8.048 1.6 1.6 8.048 1.6 16S8.048 30.4 16 30.4 30.4 23.952 30.4 16 23.952 1.6 16 1.6Zm7.536 19.872h-1.872c-1.088 0-2.496-3.04-3.92-3.04-.368 0-.496.112-.496.64v1.68c0 .464-.144.72-1.328.72-5.36 0-8.816-8.448-8.816-9.744 0-.272.112-.528.64-.528h1.872c.48 0 .656.208.832.72.912 2.656 2.624 5.12 3.264 5.12.24 0 .352-.112.352-.72 0-.72.016-2.16 0-2.88-.048-1.264-.752-1.36-.752-1.808 0-.208.176-.432.48-.432h2.928c.4 0 .528.208.528.688v3.824c0 .4.176.528.288.528 1.152 0 3.008-4.352 3.104-4.528.16-.256.352-.512.816-.512h1.872c.56 0 .688.288.56.688-.24 1.088-1.872 3.36-2.576 4.432-.208.304-.272.464 0 .832.144.192 2.512 2.416 2.864 3.536.16.512-.112.784-.64.784Z"/></svg>