<svg xmlns="http://www.w3.org/2000/svg" width="32" height="32" fill="none"><path fill="#A1C6B9" fill-rule="evenodd" d="M1.6 16C1.6 8.048 8.048 1.6 16 1.6S30.4 8.048 30.4 16 23.952 30.4 16 30.4 1.6 23.952 1.6 16Zm10.176 6.768C13.008 23.536 14.448 24 16 24c4.416 0 8-3.584 8-8s-3.584-8-8-8-8 3.584-8 8c0 1.664.512 3.2 1.376 4.48L8 24l3.776-1.232Zm6.592-5.68 1.408 1.008c.272.207.272.448.128.735a2.64 2.64 0 0 1-.624.736l-.007.006c-.164.149-.577.52-1.177.395-3.456-.672-5.216-2.593-6.064-6.225-.096-.447.032-.688.352-1.04.24-.255.48-.463.752-.623.304-.145.56-.097.752.127l1.008 1.393c.192.335.064.688-.096.832l-.304.24a1.518 1.518 0 0 1-.05.039c-.089.069-.19.146-.19.28.24 1.425 1.28 2.352 2.576 2.753.192.064.288 0 .416-.16.064-.096.288-.369.288-.369.144-.192.512-.32.832-.128Z" clip-rule="evenodd"/></svg>