<svg width="152" height="24" viewBox="0 0 152 24" fill="none" xmlns="http://www.w3.org/2000/svg">
<g clip-path="url(#clip0_1701_71444)">
<path d="M18.501 20.991L17.6563 14.4429L21.9981 9.61452L15.5873 8.28028L12.3015 2.52553L9.18402 8.24898L2.81151 9.52075L7.29559 14.3923L6.64299 20.9331L12.5318 18.2204L18.501 20.991Z" fill="white" stroke="#A5AABE" stroke-width="2" stroke-linecap="round" stroke-linejoin="round"/>
</g>
<g clip-path="url(#clip1_1701_71444)">
<path d="M50.501 20.991L49.6563 14.4429L53.9981 9.61452L47.5873 8.28028L44.3015 2.52553L41.184 8.24898L34.8115 9.52075L39.2956 14.3923L38.643 20.9331L44.5318 18.2204L50.501 20.991Z" fill="white" stroke="#A5AABE" stroke-width="2" stroke-linecap="round" stroke-linejoin="round"/>
</g>
<g clip-path="url(#clip2_1701_71444)">
<path d="M82.501 20.991L81.6563 14.4429L85.9981 9.61452L79.5873 8.28028L76.3015 2.52553L73.184 8.24898L66.8115 9.52075L71.2956 14.3923L70.643 20.9331L76.5318 18.2204L82.501 20.991Z" fill="white" stroke="#A5AABE" stroke-width="2" stroke-linecap="round" stroke-linejoin="round"/>
</g>
<g clip-path="url(#clip3_1701_71444)">
<path d="M114.501 20.991L113.656 14.4429L117.998 9.61452L111.587 8.28028L108.302 2.52553L105.184 8.24898L98.8115 9.52075L103.296 14.3923L102.643 20.9331L108.532 18.2204L114.501 20.991Z" fill="white" stroke="#A5AABE" stroke-width="2" stroke-linecap="round" stroke-linejoin="round"/>
</g>
<g clip-path="url(#clip4_1701_71444)">
<path d="M146.501 20.991L145.656 14.4429L149.998 9.61452L143.587 8.28028L140.302 2.52553L137.184 8.24898L130.812 9.52075L135.296 14.3923L134.643 20.9331L140.532 18.2204L146.501 20.991Z" fill="white" stroke="#A5AABE" stroke-width="2" stroke-linecap="round" stroke-linejoin="round"/>
</g>
<defs>
<clipPath id="clip0_1701_71444">
<rect width="24" height="24" fill="white"/>
</clipPath>
<clipPath id="clip1_1701_71444">
<rect width="24" height="24" fill="white" transform="translate(32)"/>
</clipPath>
<clipPath id="clip2_1701_71444">
<rect width="24" height="24" fill="white" transform="translate(64)"/>
</clipPath>
<clipPath id="clip3_1701_71444">
<rect width="24" height="24" fill="white" transform="translate(96)"/>
</clipPath>
<clipPath id="clip4_1701_71444">
<rect width="24" height="24" fill="white" transform="translate(128)"/>
</clipPath>
</defs>
</svg>
