<svg width="264" height="161" viewBox="0 0 264 161" fill="none" xmlns="http://www.w3.org/2000/svg">
<circle cx="184" cy="80" r="80" fill="#FFCCCC"/>
<path d="M258.986 159.991H0" stroke="#2B3048" stroke-miterlimit="10"/>
<path d="M230.626 93.1677H247.214C247.325 93.1685 247.436 93.1472 247.538 93.1054C247.64 93.0633 247.732 93.0014 247.811 92.9231C247.888 92.845 247.95 92.7519 247.993 92.6495C248.035 92.547 248.057 92.4373 248.054 92.3268C248.057 92.216 248.035 92.1063 247.993 92.0039C247.95 91.9014 247.888 91.8084 247.811 91.7302C247.732 91.6519 247.64 91.59 247.538 91.548C247.436 91.5061 247.325 91.485 247.214 91.4859H230.626V93.1677Z" fill="#3A3D57"/>
<path d="M245.06 92.354H228.325V143.89H245.06V92.354Z" fill="#3A3D57"/>
<path d="M228.844 92.354H177.655V143.89H228.844V92.354Z" fill="#5C687E"/>
<path d="M226.25 139.959H180.052V99.521L226.248 99.5701V139.959H226.25ZM180.423 139.588H225.883V99.9372H180.423V139.588Z" fill="#3A3D57"/>
<path d="M175.753 93.1677H230.65C230.761 93.1685 230.872 93.1472 230.974 93.1054C231.077 93.0633 231.168 93.0014 231.247 92.9231C231.326 92.845 231.388 92.7519 231.429 92.6495C231.471 92.547 231.493 92.4373 231.491 92.3268C231.493 92.216 231.471 92.1063 231.429 92.0039C231.388 91.9014 231.326 91.8084 231.247 91.7302C231.168 91.6519 231.077 91.59 230.974 91.548C230.872 91.5061 230.761 91.485 230.65 91.4859H175.755C175.644 91.485 175.535 91.5061 175.432 91.548C175.33 91.59 175.237 91.6519 175.158 91.7302C175.08 91.8084 175.018 91.9014 174.976 92.0039C174.934 92.1063 174.913 92.216 174.914 92.3268C174.917 92.5483 175.007 92.76 175.163 92.9169C175.32 93.0738 175.531 93.1636 175.753 93.1677Z" fill="#5C687E"/>
<path d="M226.248 119.492H180.052V119.863H226.248V119.492Z" fill="#3A3D57"/>
<path d="M201.162 106.022C201.872 106.022 202.447 105.447 202.447 104.737C202.447 104.028 201.872 103.453 201.162 103.453C200.453 103.453 199.877 104.028 199.877 104.737C199.877 105.447 200.453 106.022 201.162 106.022Z" fill="#3A3D57"/>
<path opacity="0.15" d="M201.632 104.737C201.634 104.472 201.551 104.212 201.399 103.995C201.246 103.778 201.028 103.614 200.778 103.525C200.915 103.473 201.06 103.448 201.205 103.45C201.545 103.45 201.871 103.585 202.11 103.825C202.351 104.065 202.486 104.391 202.486 104.731C202.486 105.07 202.351 105.396 202.11 105.636C201.871 105.877 201.545 106.011 201.205 106.011C201.06 106.012 200.915 105.988 200.778 105.939C201.026 105.85 201.241 105.687 201.393 105.472C201.547 105.257 201.63 105.001 201.632 104.737Z" fill="#23213D"/>
<path d="M201.162 125.92C201.872 125.92 202.447 125.345 202.447 124.635C202.447 123.925 201.872 123.35 201.162 123.35C200.453 123.35 199.877 123.925 199.877 124.635C199.877 125.345 200.453 125.92 201.162 125.92Z" fill="#3A3D57"/>
<path opacity="0.15" d="M201.632 124.635C201.634 124.37 201.551 124.11 201.399 123.893C201.246 123.676 201.028 123.511 200.778 123.423C200.915 123.372 201.06 123.347 201.205 123.35C201.545 123.35 201.871 123.485 202.11 123.726C202.351 123.966 202.486 124.291 202.486 124.631C202.486 124.971 202.351 125.296 202.11 125.536C201.871 125.777 201.545 125.911 201.205 125.911C201.06 125.912 200.915 125.888 200.778 125.839C201.026 125.75 201.241 125.586 201.395 125.371C201.547 125.156 201.63 124.899 201.632 124.635Z" fill="#23213D"/>
<path d="M231.49 94.8962L228.844 93.1675H177.655V93.9614L231.49 94.8962Z" fill="#3A3D57"/>
<path d="M241.771 143.888L243.052 158.15C243.075 158.271 243.073 158.397 243.043 158.517C243.011 158.636 242.956 158.749 242.879 158.845C242.8 158.941 242.704 159.02 242.593 159.076C242.48 159.131 242.358 159.161 242.234 159.163C242.061 159.161 241.891 159.106 241.75 159.003C241.609 158.901 241.504 158.758 241.447 158.593L237.714 143.886L241.771 143.888Z" fill="#5C687E"/>
<path d="M241.304 152.195L239.746 151.824L237.748 143.914H241.803L243.084 158.175C243.12 158.365 243.09 158.559 243 158.73C242.911 158.901 242.766 159.035 242.591 159.114L241.304 152.195Z" fill="#3A3D57"/>
<path d="M227.215 143.888L228.496 158.15C228.519 158.271 228.515 158.397 228.485 158.517C228.455 158.636 228.4 158.749 228.323 158.845C228.244 158.941 228.148 159.02 228.037 159.076C227.926 159.129 227.804 159.159 227.681 159.163C227.506 159.161 227.337 159.104 227.196 159.001C227.055 158.901 226.948 158.758 226.891 158.593L223.16 143.886L227.215 143.888Z" fill="#5C687E"/>
<path d="M225.854 145.472L223.53 145.026L223.135 143.891H227.19L228.47 158.152C228.505 158.342 228.475 158.536 228.385 158.707C228.295 158.877 228.15 159.012 227.975 159.091L225.854 145.472Z" fill="#3A3D57"/>
<path d="M195.131 143.888L193.85 158.15C193.827 158.271 193.831 158.397 193.861 158.517C193.891 158.636 193.946 158.749 194.025 158.845C194.102 158.941 194.2 159.02 194.311 159.076C194.422 159.131 194.544 159.161 194.667 159.163C194.842 159.161 195.011 159.106 195.152 159.003C195.293 158.901 195.4 158.758 195.455 158.593L199.188 143.886L195.131 143.888Z" fill="#5C687E"/>
<path d="M195.848 151.476L194.465 151.13L195.133 143.886H199.188L195.457 158.593C195.4 158.758 195.293 158.901 195.152 159.001C195.011 159.104 194.843 159.161 194.668 159.163H194.619L195.848 151.476Z" fill="#3A3D57"/>
<path d="M180.178 143.888L178.898 158.15C178.874 158.271 178.879 158.397 178.909 158.517C178.938 158.636 178.994 158.749 179.071 158.845C179.148 158.941 179.246 159.02 179.357 159.076C179.468 159.129 179.589 159.159 179.713 159.163C179.886 159.161 180.057 159.104 180.198 159.001C180.339 158.901 180.445 158.758 180.503 158.593L184.234 143.886L180.178 143.888Z" fill="#5C687E"/>
<path d="M181.758 145.124L179.98 144.804L180.178 143.888H184.234L180.503 158.595C180.445 158.76 180.338 158.903 180.198 159.003C180.057 159.106 179.888 159.161 179.713 159.165H179.664L181.758 145.124Z" fill="#3A3D57"/>
<path d="M213.162 63.1724C211.851 62.3509 210.37 61.84 208.831 61.6784C208.123 61.6058 207.337 61.625 206.782 62.0562C206.663 62.1479 206.543 62.2803 206.569 62.4275C206.601 62.5357 206.671 62.6284 206.767 62.6879C207.687 63.3423 208.769 63.7333 209.894 63.8182C211.021 63.9032 212.148 63.6791 213.157 63.1703" fill="url(#paint0_linear_576_96646)"/>
<path d="M213.05 63.0486C212.049 62.3112 211.114 61.4884 210.254 60.5899C209.394 59.6809 208.79 58.5611 208.502 57.3437C208.444 57.1631 208.427 56.9725 208.453 56.7849C208.476 56.5973 208.543 56.4172 208.643 56.2573C210.871 58.001 212.634 60.2505 213.035 63.0443" fill="url(#paint1_linear_576_96646)"/>
<path d="M213.138 63.1572C212.931 61.9398 212.95 60.6951 213.191 59.4842C213.439 58.2629 214.136 57.1794 215.146 56.4492C215.545 57.352 215.359 58.3893 215.095 59.3305C214.672 60.788 214.017 62.1674 213.155 63.4155" fill="url(#paint2_linear_576_96646)"/>
<path d="M215.323 67.0825C214.01 67.2921 212.796 67.9061 211.848 68.839C210.847 69.7457 210.152 70.9377 209.851 72.2539C211.152 72.1728 212.247 71.255 213.052 70.2242C213.857 69.1933 214.409 68.0686 215.289 67.106" fill="url(#paint3_linear_576_96646)"/>
<path d="M215.797 67.7098C215.276 66.3821 215.092 64.9453 215.265 63.5295C215.438 62.1136 215.961 60.7628 216.787 59.5996C217.184 60.9476 217.301 62.3624 217.131 63.7572C216.96 65.1517 216.507 66.4969 215.797 67.7098Z" fill="url(#paint4_linear_576_96646)"/>
<path d="M218.689 71.1395C217.477 71.0654 216.267 71.3495 215.215 71.9567C214.16 72.5637 213.309 73.4669 212.762 74.5543C212.717 74.6213 212.69 74.6994 212.681 74.7807C212.675 74.8618 212.69 74.9436 212.724 75.0174C212.775 75.0693 212.839 75.1075 212.909 75.128C212.978 75.1485 213.052 75.1508 213.123 75.1348C214.288 75.058 215.323 74.3558 216.177 73.5576C217.031 72.7594 217.773 71.8331 218.717 71.1416" fill="url(#paint5_linear_576_96646)"/>
<path d="M218.597 70.9518C217.974 68.9507 217.936 66.8128 218.484 64.7902C218.698 63.9919 219.067 63.1617 219.803 62.7946C219.833 62.7748 219.865 62.7613 219.899 62.7549C219.933 62.7487 219.97 62.7498 220.002 62.7583C220.064 62.7886 220.108 62.8416 220.13 62.9056C220.377 63.4599 220.482 64.066 220.437 64.6706C220.397 65.2749 220.305 65.8746 220.162 66.4634C219.931 67.5583 219.808 68.7322 219.208 69.6648C219.061 69.8921 218.928 70.128 218.809 70.3713C218.693 70.6103 218.693 70.6936 218.595 70.8856" fill="url(#paint6_linear_576_96646)"/>
<path d="M226.243 72.0894C225.986 70.9647 225.98 69.7974 226.219 68.6692C226.46 67.5411 226.945 66.4788 227.636 65.5564C227.679 65.4845 227.737 65.4236 227.807 65.379C227.875 65.3344 227.956 65.3075 228.037 65.3003C228.285 65.3259 228.351 65.661 228.341 65.9086C228.238 68.1273 227.512 70.2723 226.247 72.0979" fill="url(#paint7_linear_576_96646)"/>
<path d="M226.929 72.5609C228.269 72.8744 229.659 72.8941 231.005 72.6179C232.354 72.3419 233.624 71.7772 234.732 70.9623C233.426 70.309 231.934 70.1259 230.508 70.4437C229.1 70.6964 227.825 71.4423 226.914 72.5481" fill="url(#paint8_linear_576_96646)"/>
<path d="M227.504 71.1248C228.279 69.9326 229.322 68.9404 230.554 68.229C231.785 67.5177 233.166 67.1072 234.585 67.0312C234.393 67.5928 234.088 68.1093 233.689 68.5496C233.29 68.9897 232.808 69.3446 232.268 69.5924C231.186 70.0775 230.042 70.4121 228.87 70.5869C228.42 70.6744 227.803 70.7705 227.504 71.1248Z" fill="url(#paint9_linear_576_96646)"/>
<path d="M226.388 64.1624C226.831 62.8189 227.135 61.4325 227.29 60.0262C227.446 58.6007 227.156 57.162 226.458 55.9092C225.762 57.1929 225.387 58.6265 225.365 60.0872C225.344 61.5479 225.679 62.9918 226.338 64.2947" fill="url(#paint10_linear_576_96646)"/>
<path d="M230.999 61.8365C232.595 58.9254 235.869 56.5969 239.175 56.2725C237.895 59.4483 234.42 61.9027 230.999 61.8365Z" fill="url(#paint11_linear_576_96646)"/>
<path d="M229.992 62.4061C232.389 62.7689 234.417 64.2949 236.649 65.202C237.119 65.428 237.637 65.5279 238.154 65.4923C238.391 65.479 238.617 65.3964 238.807 65.2547C238.995 65.113 239.138 64.9186 239.217 64.696C239.295 64.4734 239.306 64.2324 239.249 64.0034C239.191 63.7744 239.065 63.5678 238.89 63.4092C238.576 63.117 238.205 62.8912 237.799 62.7455C235.366 61.7317 232.76 61.7082 230.212 62.3186" fill="url(#paint12_linear_576_96646)"/>
<path d="M228.611 64.0815C229.149 64.2373 229.335 64.5083 229.766 64.8797C231.224 66.1238 232.95 67.0123 234.811 67.475C235.003 67.5241 235.255 67.5433 235.351 67.3683C235.447 67.1933 235.351 67.0332 235.219 66.8966C234.408 65.9447 233.356 65.2299 232.173 64.8285C231.006 64.4016 230.001 63.8702 228.611 63.9748" fill="url(#paint13_linear_576_96646)"/>
<path d="M227.049 53.9608C228.028 54.8638 229.185 55.5521 230.447 55.9815C231.708 56.4107 233.046 56.5716 234.374 56.4536C234.495 56.4536 234.611 56.4105 234.704 56.3319C234.892 56.1334 234.668 55.8218 234.453 55.6532C232.301 53.9778 229.693 53.2821 227.049 53.9608Z" fill="url(#paint14_linear_576_96646)"/>
<path d="M228.899 53.2863C230.196 52.3304 231.701 51.6953 233.289 51.433C234.879 51.1706 236.507 51.2887 238.042 51.7774C236.847 52.8881 235.312 53.5647 233.686 53.6983C232.079 53.8459 230.457 53.7109 228.895 53.2992" fill="url(#paint15_linear_576_96646)"/>
<path d="M228.163 48.6336C227.95 46.4865 228.088 44.7919 227.95 42.6448C227.95 42.4741 227.901 42.2649 227.736 42.2009C227.572 42.1369 227.337 42.393 227.254 42.6277C226.938 43.6296 226.857 44.6901 227.015 45.7282C227.173 46.7663 227.568 47.7543 228.167 48.6165" fill="url(#paint16_linear_576_96646)"/>
<path d="M228.007 48.8748C229.411 47.9664 230.621 46.79 231.569 45.413C232.273 44.4504 232.862 43.2958 232.704 42.1177C232.209 42.132 231.725 42.2541 231.283 42.4752C230.839 42.6963 230.451 43.0113 230.143 43.3982C229.529 44.1766 229.083 45.0741 228.833 46.0341C228.549 46.9753 228.35 47.9549 228.035 48.8812" fill="url(#paint17_linear_576_96646)"/>
<path d="M231.506 47.9168C234.709 46.7227 237.674 44.964 240.256 42.7241C239.21 42.325 238.013 42.5576 236.965 42.9802C234.59 43.8783 232.628 45.6178 231.452 47.8677" fill="url(#paint18_linear_576_96646)"/>
<path d="M228.997 50.0485C230.609 50.2771 232.246 50.285 233.859 50.072C235.426 49.7459 236.95 49.2396 238.399 48.5631C238.529 48.5266 238.64 48.4418 238.71 48.3262C238.736 48.2566 238.74 48.1804 238.719 48.1087C238.7 48.037 238.657 47.9734 238.599 47.927C238.482 47.8355 238.345 47.774 238.2 47.7478C236.572 47.3519 234.862 47.4537 233.292 48.0402C231.789 48.552 230.344 49.2208 228.982 50.0357" fill="url(#paint19_linear_576_96646)"/>
<path d="M219.758 54.0335C219.235 52.9213 218.958 51.7104 218.945 50.4821C218.932 49.2538 219.182 48.0368 219.679 46.9136C220.349 47.9359 220.432 49.2378 220.319 50.4565C220.206 51.6751 219.824 52.9237 219.801 54.1445" fill="url(#paint20_linear_576_96646)"/>
<path d="M215.351 51.8139C213.971 51.7947 212.6 52.0643 211.328 52.6053C210.056 53.1462 208.912 53.9467 207.967 54.9556C209.36 55.1218 210.769 54.8598 212.009 54.2043C213.241 53.5536 214.402 52.7776 215.475 51.8886" fill="url(#paint21_linear_576_96646)"/>
<path d="M212.386 50.8193C211.037 50.7105 209.74 50.544 208.446 50.9431C207.791 51.1256 207.185 51.4475 206.666 51.8867C206.148 52.3257 205.731 52.8717 205.443 53.4872C206.72 53.5922 207.998 53.3519 209.148 52.7914C210.288 52.2324 211.374 51.5723 212.397 50.8193" fill="url(#paint22_linear_576_96646)"/>
<path d="M216.777 50.8663C215.578 50.0681 214.316 49.2699 212.908 48.9348C211.499 48.5997 209.856 48.8473 208.874 49.9123C210.016 50.5824 211.401 50.6635 212.729 50.6593C214.056 50.655 215.678 50.6593 216.925 51.0861" fill="url(#paint23_linear_576_96646)"/>
<path d="M216.778 50.9301C214.706 48.894 213.921 45.2359 214.755 42.457C216.392 44.9612 217.107 47.9564 216.778 50.9301Z" fill="url(#paint24_linear_576_96646)"/>
<path d="M222.469 45.1657C222.87 44.2543 223.133 43.3003 223.485 42.3698C223.807 41.4341 224.298 40.5657 224.934 39.8087C225.583 39.0478 226.5 38.5706 227.495 38.479C227.177 39.881 226.569 41.2008 225.711 42.3544C224.853 43.508 223.764 44.4699 222.511 45.1785" fill="url(#paint25_linear_576_96646)"/>
<path d="M221.448 46.367C220.808 45.477 220.054 44.2668 219.179 43.5924C218.755 43.2432 218.257 42.991 217.724 42.8533C217.188 42.7154 216.631 42.6952 216.089 42.7942C216.642 43.7693 217.412 44.6019 218.343 45.226C219.273 45.85 220.338 46.2481 221.448 46.3883" fill="url(#paint26_linear_576_96646)"/>
<path d="M221.67 45.2361C221.2 44.1753 220.852 43.0649 220.633 41.9258C220.419 40.7776 220.603 39.5909 221.151 38.5601C222.289 40.7093 222.645 43.0164 221.715 45.2595" fill="url(#paint27_linear_576_96646)"/>
<path d="M222.49 38.5598C223.131 36.4255 225.09 34.8547 227.198 34.1354C227.459 34.0285 227.741 33.986 228.02 34.0116C228.159 34.0262 228.293 34.0823 228.4 34.173C228.509 34.2635 228.588 34.3841 228.626 34.5196C228.707 34.8824 228.413 35.2068 228.125 35.4501C226.475 36.8558 224.558 37.9135 222.49 38.5598Z" fill="url(#paint28_linear_576_96646)"/>
<path d="M222.514 36.816C222.535 35.4366 222.742 34.0662 223.128 32.7417C223.577 31.4398 224.439 30.219 225.689 29.647C225.903 31.0364 225.29 32.4215 224.552 33.6124C223.813 34.8034 222.923 35.9367 222.479 37.2663" fill="url(#paint29_linear_576_96646)"/>
<path d="M222.469 37.7618C221.936 36.2081 221.882 34.2317 220.954 32.8786C220.314 31.931 219.259 31.28 218.696 30.2876C218.361 31.2487 218.408 32.3017 218.828 33.2286C219.253 34.1457 219.835 34.9802 220.55 35.6937C221.24 36.4322 221.831 36.9743 222.471 37.7618" fill="url(#paint30_linear_576_96646)"/>
<path d="M222.49 83.5206C222.449 83.5206 222.413 73.1395 222.409 60.3616C222.404 47.5837 222.438 37.2026 222.481 37.2026C222.524 37.2026 222.558 47.5837 222.562 60.3616C222.566 73.1395 222.532 83.5206 222.49 83.5206Z" fill="url(#paint31_linear_576_96646)"/>
<path d="M231.559 52.4712C231.431 52.5312 231.296 52.5796 231.16 52.6163L230.093 52.9791C229.188 53.2865 227.946 53.7347 226.597 54.2853C225.248 54.836 224.004 55.3226 223.287 55.9458C222.998 56.1823 222.77 56.4836 222.623 56.8251C222.518 57.0684 222.499 57.2242 222.486 57.2242C222.473 57.2242 222.486 57.1837 222.486 57.1154C222.501 57.0119 222.527 56.9103 222.563 56.8123C222.695 56.451 222.915 56.1285 223.203 55.8732C223.634 55.5078 224.119 55.2067 224.637 54.979C225.212 54.7122 225.835 54.4326 226.524 54.1573C227.879 53.6023 229.128 53.1712 230.044 52.8767C230.502 52.7337 230.874 52.6291 231.132 52.5566C231.271 52.5128 231.414 52.4842 231.559 52.4712Z" fill="url(#paint32_linear_576_96646)"/>
<path d="M234.521 45.1763C234.487 45.2183 234.451 45.257 234.408 45.2915L234.078 45.6074L232.852 46.7172L228.718 50.3988C227.122 51.8331 225.713 53.1947 224.727 54.2405C224.239 54.7549 223.861 55.1839 223.6 55.4827L223.302 55.8263C223.229 55.901 223.193 55.9415 223.188 55.9373C223.212 55.8899 223.242 55.8455 223.276 55.8049C223.34 55.7217 223.428 55.5915 223.556 55.4421C223.803 55.1348 224.17 54.6951 224.646 54.1616C225.895 52.7997 227.214 51.5044 228.599 50.2815C230.197 48.8472 231.689 47.5624 232.761 46.6318L234.041 45.5412L234.391 45.251C234.432 45.2207 234.475 45.1955 234.521 45.1763Z" fill="url(#paint33_linear_576_96646)"/>
<path d="M226.961 51.8737C226.918 51.8737 227.253 51.0734 227.601 50.0916C227.949 49.1098 228.096 48.2796 228.139 48.2882C228.105 48.9229 227.97 49.5482 227.74 50.1407C227.599 50.5654 227.432 50.981 227.238 51.385C227.172 51.5608 227.078 51.7256 226.961 51.8737Z" fill="url(#paint34_linear_576_96646)"/>
<path d="M222.501 58.1503C222.411 58.0594 222.328 57.9616 222.251 57.8579L221.611 57.0597C221.075 56.3682 220.33 55.4142 219.507 54.3684C218.683 53.3226 217.91 52.3728 217.372 51.7091L216.732 50.9109C216.651 50.8163 216.578 50.7132 216.519 50.6035C216.615 50.6857 216.704 50.7764 216.785 50.8746C216.954 51.0538 217.184 51.3185 217.477 51.6493C218.047 52.3088 218.826 53.2457 219.656 54.2851C220.486 55.3245 221.21 56.2807 221.724 57.0042C221.984 57.3585 222.187 57.6445 222.324 57.8579C222.392 57.9488 222.452 58.047 222.501 58.1503Z" fill="url(#paint35_linear_576_96646)"/>
<path d="M220.513 55.5978C220.112 55.156 219.826 54.6214 219.683 54.042C219.525 53.5342 219.461 53.0017 219.495 52.4711H219.559C219.532 52.5906 219.506 52.6547 219.495 52.6547C219.485 52.6547 219.495 52.5842 219.495 52.4604H219.559C219.591 52.9767 219.681 53.4879 219.826 53.9843C220.014 54.539 220.242 55.0786 220.513 55.5978Z" fill="url(#paint36_linear_576_96646)"/>
<path d="M217.95 52.3728C217.771 52.2379 217.575 52.1248 217.37 52.0356C216.849 51.8828 216.303 51.842 215.765 51.9161C215.216 51.9571 214.674 52.0435 214.141 52.1743C213.921 52.2428 213.699 52.2977 213.473 52.3387C213.671 52.217 213.887 52.1278 214.113 52.074C214.647 51.9095 215.197 51.8051 215.754 51.7624C216.315 51.6896 216.887 51.752 217.421 51.9438C217.641 52.023 217.827 52.1741 217.95 52.3728Z" fill="url(#paint37_linear_576_96646)"/>
<path d="M217.343 51.5939C217.343 51.6131 217.003 51.4573 216.453 51.2653C215.733 51.0237 214.989 50.8711 214.233 50.8107C213.478 50.7549 212.716 50.7936 211.969 50.9259C211.395 51.0305 211.047 51.1393 211.038 51.1094C211.113 51.0661 211.192 51.0333 211.275 51.0113C211.495 50.9338 211.721 50.8711 211.949 50.8235C212.703 50.6572 213.475 50.6034 214.244 50.6634C215.014 50.7189 215.77 50.8894 216.489 51.1692C216.709 51.2518 216.922 51.3481 217.129 51.4573C217.279 51.5342 217.347 51.5811 217.343 51.5939Z" fill="url(#paint38_linear_576_96646)"/>
<path d="M222.469 48.2879C222.209 47.5501 221.995 46.7964 221.829 46.032C221.611 45.2798 221.443 44.5141 221.325 43.7397C221.586 44.4774 221.799 45.231 221.965 45.9957C222.181 46.7484 222.35 47.514 222.469 48.2879Z" fill="url(#paint39_linear_576_96646)"/>
<path d="M222.522 48.288C222.315 47.8206 222.076 47.369 221.802 46.937C221.495 46.5285 221.137 46.1614 220.735 45.8442C220.885 45.8807 221.021 45.9542 221.134 46.0577C221.435 46.2781 221.698 46.5481 221.909 46.8559C222.236 47.2716 222.445 47.7653 222.522 48.288Z" fill="url(#paint40_linear_576_96646)"/>
<path d="M222.49 77.995C222.49 77.995 222.445 77.7474 222.325 77.3035C222.154 76.6848 221.922 76.0844 221.634 75.5107C220.637 73.6302 219.403 71.8857 217.961 70.3202C217.139 69.3832 216.345 68.4996 215.664 67.6523C215.062 66.9064 214.514 66.1167 214.027 65.2897C213.703 64.7307 213.425 64.1444 213.201 63.5375C213.126 63.324 213.069 63.1362 213.037 63.0338C213.02 62.9751 213.005 62.9151 212.994 62.8545L213.252 63.5119C213.502 64.1071 213.79 64.684 214.119 65.2385C214.614 66.0525 215.167 66.8298 215.773 67.5648C216.452 68.4036 217.25 69.2723 218.074 70.2241C219.529 71.7967 220.763 73.5611 221.74 75.468C222.024 76.0522 222.244 76.6656 222.396 77.2971C222.436 77.4681 222.468 77.6414 222.487 77.8157C222.498 77.8751 222.498 77.9355 222.49 77.995Z" fill="url(#paint41_linear_576_96646)"/>
<path d="M230.675 68.7515C230.538 68.8385 230.395 68.9184 230.248 68.9905C229.859 69.2084 229.488 69.4539 229.134 69.7247C228.609 70.1366 228.118 70.5882 227.661 71.0757C227.149 71.6178 226.617 72.2453 226.062 72.9197C224.995 74.2728 223.979 75.4808 223.375 76.4263C223.068 76.9001 222.844 77.3014 222.697 77.5788C222.631 77.7271 222.552 77.8699 222.462 78.0057C222.47 77.9638 222.483 77.9231 222.5 77.884C222.532 77.805 222.577 77.6898 222.645 77.5447C222.835 77.1334 223.051 76.7336 223.286 76.3473C224.107 75.1176 224.995 73.9354 225.949 72.8066C226.489 72.1279 227.016 71.5004 227.546 70.9562C228.007 70.476 228.506 70.034 229.04 69.6351C229.403 69.3691 229.789 69.1341 230.19 68.9329C230.333 68.8603 230.448 68.8176 230.525 68.7856C230.572 68.763 230.623 68.7513 230.675 68.7515Z" fill="url(#paint42_linear_576_96646)"/>
<path d="M230.855 71.7499C230.556 71.8155 230.255 71.8596 229.95 71.8823C229.222 71.957 228.503 72.1 227.801 72.3091C227.109 72.536 226.461 72.8771 225.88 73.3186C225.434 73.6623 225.227 73.9461 225.206 73.9312C225.184 73.9162 225.242 73.8458 225.338 73.7178C225.483 73.544 225.643 73.3827 225.814 73.2354C226.388 72.7584 227.047 72.396 227.758 72.1683C228.471 71.9523 229.203 71.8185 229.946 71.7692C230.249 71.7333 230.552 71.7267 230.855 71.7499Z" fill="url(#paint43_linear_576_96646)"/>
<path d="M225.444 73.5938C225.397 73.5661 225.809 72.9429 226.123 72.0998C226.437 71.2568 226.49 70.5034 226.55 70.5034C226.58 70.6641 226.58 70.8291 226.55 70.99C226.509 71.3812 226.419 71.766 226.285 72.1361C226.153 72.5047 225.976 72.8571 225.762 73.1862C225.683 73.3403 225.574 73.4784 225.444 73.5938Z" fill="url(#paint44_linear_576_96646)"/>
<path d="M233.326 60.6924C233.283 60.7246 233.234 60.7504 233.183 60.7692L232.756 60.9656C232.568 61.0445 232.357 61.1448 232.088 61.2793C231.819 61.4138 231.533 61.5482 231.221 61.736L230.728 62.0156C230.555 62.1159 230.385 62.2291 230.203 62.3464C229.84 62.5599 229.473 62.8373 229.087 63.1169C227.42 64.3595 225.962 65.8629 224.774 67.569C224.507 67.9681 224.246 68.3438 224.039 68.7151C223.931 68.8987 223.826 69.0715 223.728 69.2466L223.463 69.7502C223.288 70.0682 223.16 70.3734 223.036 70.6317C222.912 70.8899 222.823 71.1226 222.746 71.3104L222.565 71.7372C222.55 71.7902 222.526 71.8399 222.494 71.8845C222.503 71.8314 222.518 71.7793 222.537 71.7287C222.577 71.6135 222.629 71.4662 222.688 71.2869C222.767 71.0517 222.859 70.821 222.962 70.5954C223.081 70.3329 223.196 70.0213 223.361 69.6969C223.444 69.5368 223.527 69.3661 223.619 69.1868C223.711 69.0075 223.82 68.8346 223.924 68.6468C224.138 68.2712 224.387 67.8892 224.65 67.4858C225.834 65.7525 227.305 64.2334 228.997 62.9931C229.396 62.7178 229.763 62.4468 230.135 62.2312C230.314 62.1181 230.489 62.0028 230.662 61.9025L231.164 61.6315C231.479 61.4479 231.782 61.3156 232.047 61.1918C232.312 61.068 232.538 60.9784 232.726 60.8973L233.166 60.7287C233.219 60.7114 233.272 60.6994 233.326 60.6924Z" fill="url(#paint45_linear_576_96646)"/>
<path d="M226.863 65.0377C226.925 64.8283 227.049 64.6428 227.22 64.5062C227.619 64.1607 228.127 63.9658 228.654 63.9556C229.173 63.9537 229.687 64.0538 230.167 64.2501C230.37 64.3142 230.562 64.4085 230.737 64.5297C230.53 64.4872 230.327 64.4273 230.131 64.3504C229.657 64.1897 229.16 64.1076 228.66 64.1071C228.163 64.1159 227.683 64.2843 227.288 64.5873C227.136 64.7276 226.993 64.878 226.863 65.0377Z" fill="url(#paint46_linear_576_96646)"/>
<path d="M225.879 66.0365C226.306 65.2005 226.415 64.2384 226.186 63.3281C226.267 63.45 226.325 63.5851 226.359 63.7272C226.444 64.0596 226.468 64.4044 226.43 64.7453C226.389 65.0848 226.287 65.4139 226.126 65.7164C226.009 65.9277 225.896 66.0472 225.879 66.0365Z" fill="url(#paint47_linear_576_96646)"/>
<path d="M215.338 79.4805C215.551 83.4417 216.757 87.4669 218.593 91.5434H226.579C228.327 87.5096 229.441 83.4886 229.638 79.4805H215.338Z" fill="#61656D"/>
<path d="M228.336 85.8895C228.336 85.9321 225.708 85.9642 222.466 85.9642C219.224 85.9642 216.593 85.9321 216.593 85.8895C216.593 85.8468 219.22 85.8169 222.466 85.8169C225.713 85.8169 228.336 85.851 228.336 85.8895Z" fill="white"/>
<path d="M228.157 87.3262C228.157 87.3667 225.692 87.403 222.655 87.403C219.618 87.403 217.148 87.3667 217.148 87.3262C217.148 87.2856 219.611 87.2515 222.655 87.2515C225.698 87.2515 228.157 87.2835 228.157 87.3262Z" fill="white"/>
<path d="M218.713 82.0801C218.813 83.3052 218.813 84.5366 218.713 85.7617C218.617 84.5364 218.617 83.3054 218.713 82.0801Z" fill="white"/>
<path d="M222.994 82.0801C223.094 83.348 223.094 84.6218 222.994 85.8897C222.891 84.622 222.891 83.3478 222.994 82.0801Z" fill="white"/>
<path d="M227.01 82.0479C227.106 83.3408 227.106 84.6391 227.01 85.9322C226.908 84.6395 226.908 83.3406 227.01 82.0479Z" fill="white"/>
<path d="M229.377 82.0799C229.377 82.1247 226.291 82.1567 222.49 82.1567C218.689 82.1567 215.603 82.1247 215.603 82.0799C215.603 82.0351 218.684 82.0073 222.49 82.0073C226.295 82.0073 229.377 82.0393 229.377 82.0799Z" fill="white"/>
<path d="M204.438 0H55.4323C53.4071 0 51.7656 1.64168 51.7656 3.66668V114.559C51.7656 116.584 53.4071 118.226 55.4323 118.226H204.438C206.463 118.226 208.104 116.584 208.104 114.559V3.66668C208.104 1.64168 206.463 0 204.438 0Z" fill="#D83333"/>
<path opacity="0.6" d="M204.438 0H55.4323C53.4071 0 51.7656 1.64168 51.7656 3.66668V114.559C51.7656 116.584 53.4071 118.226 55.4323 118.226H204.438C206.463 118.226 208.104 116.584 208.104 114.559V3.66668C208.104 1.64168 206.463 0 204.438 0Z" fill="white"/>
<path d="M202.673 0H53.6667C51.6417 0 50 1.64168 50 3.66668V114.559C50 116.584 51.6417 118.226 53.6667 118.226H202.673C204.698 118.226 206.34 116.584 206.34 114.559V3.66668C206.34 1.64168 204.698 0 202.673 0Z" fill="white"/>
<path d="M53.6667 0H62.1739V118.228H53.6667C52.6943 118.228 51.7616 117.842 51.074 117.154C50.3863 116.466 50 115.534 50 114.561V3.66668C50 2.6943 50.3863 1.76163 51.074 1.07397C51.7616 0.386306 52.6943 0 53.6667 0Z" fill="#D83333"/>
<path d="M58.6092 4.81494H53.5638C53.1679 4.81494 52.8467 5.13551 52.8467 5.53099C52.8467 5.92626 53.1679 6.24704 53.5638 6.24704H58.6092C59.0053 6.24704 59.3263 5.92626 59.3263 5.53099C59.3263 5.13551 59.0053 4.81494 58.6092 4.81494Z" fill="white"/>
<path d="M57.4107 15.0146H54.7621C54.4167 15.0146 54.1367 15.2945 54.1367 15.64V18.2886C54.1367 18.6339 54.4167 18.914 54.7621 18.914H57.4107C57.756 18.914 58.036 18.6339 58.036 18.2886V15.64C58.036 15.2945 57.756 15.0146 57.4107 15.0146Z" fill="#D83333"/>
<path opacity="0.4" d="M57.4107 15.0146H54.7621C54.4167 15.0146 54.1367 15.2945 54.1367 15.64V18.2886C54.1367 18.6339 54.4167 18.914 54.7621 18.914H57.4107C57.756 18.914 58.036 18.6339 58.036 18.2886V15.64C58.036 15.2945 57.756 15.0146 57.4107 15.0146Z" fill="white"/>
<path d="M57.4107 27.6753H54.7621C54.4167 27.6753 54.1367 27.9553 54.1367 28.3006V30.9493C54.1367 31.2946 54.4167 31.5746 54.7621 31.5746H57.4107C57.756 31.5746 58.036 31.2946 58.036 30.9493V28.3006C58.036 27.9553 57.756 27.6753 57.4107 27.6753Z" fill="#D83333"/>
<path opacity="0.4" d="M57.4107 27.6753H54.7621C54.4167 27.6753 54.1367 27.9553 54.1367 28.3006V30.9493C54.1367 31.2946 54.4167 31.5746 54.7621 31.5746H57.4107C57.756 31.5746 58.036 31.2946 58.036 30.9493V28.3006C58.036 27.9553 57.756 27.6753 57.4107 27.6753Z" fill="white"/>
<path d="M57.4107 40.3379H54.7621C54.4167 40.3379 54.1367 40.6179 54.1367 40.9632V43.6119C54.1367 43.9572 54.4167 44.2372 54.7621 44.2372H57.4107C57.756 44.2372 58.036 43.9572 58.036 43.6119V40.9632C58.036 40.6179 57.756 40.3379 57.4107 40.3379Z" fill="#D83333"/>
<path opacity="0.4" d="M57.4107 40.3379H54.7621C54.4167 40.3379 54.1367 40.6179 54.1367 40.9632V43.6119C54.1367 43.9572 54.4167 44.2372 54.7621 44.2372H57.4107C57.756 44.2372 58.036 43.9572 58.036 43.6119V40.9632C58.036 40.6179 57.756 40.3379 57.4107 40.3379Z" fill="white"/>
<path d="M57.4107 52.998H54.7621C54.4167 52.998 54.1367 53.2781 54.1367 53.6234V56.272C54.1367 56.6174 54.4167 56.8974 54.7621 56.8974H57.4107C57.756 56.8974 58.036 56.6174 58.036 56.272V53.6234C58.036 53.2781 57.756 52.998 57.4107 52.998Z" fill="#D83333"/>
<path opacity="0.4" d="M57.4107 52.998H54.7621C54.4167 52.998 54.1367 53.2781 54.1367 53.6234V56.272C54.1367 56.6174 54.4167 56.8974 54.7621 56.8974H57.4107C57.756 56.8974 58.036 56.6174 58.036 56.272V53.6234C58.036 53.2781 57.756 52.998 57.4107 52.998Z" fill="white"/>
<path d="M56.0304 110.323H54.7605C54.5385 110.322 54.3257 110.234 54.1688 110.076C54.012 109.919 53.9238 109.706 53.9238 109.484V106.835C53.9238 106.613 54.012 106.4 54.1688 106.243C54.3257 106.086 54.5385 105.997 54.7605 105.997H56.0304C56.0869 105.997 56.1413 106.019 56.1812 106.059C56.2214 106.099 56.2438 106.153 56.2438 106.21C56.2438 106.267 56.2214 106.321 56.1812 106.361C56.1413 106.401 56.0869 106.423 56.0304 106.423H54.7605C54.6516 106.424 54.5475 106.468 54.4706 106.545C54.3938 106.622 54.3507 106.727 54.3507 106.835V109.484C54.3507 109.593 54.3938 109.697 54.4706 109.774C54.5475 109.852 54.6516 109.895 54.7605 109.896H56.0304C56.0869 109.896 56.1413 109.918 56.1812 109.958C56.2214 109.998 56.2438 110.053 56.2438 110.109C56.2438 110.166 56.2214 110.22 56.1812 110.26C56.1413 110.3 56.0869 110.323 56.0304 110.323Z" fill="white"/>
<path d="M57.2422 108.186C57.2422 108.186 57.2422 108.173 57.2422 108.165C57.2422 108.165 57.2422 108.152 57.2422 108.145C57.2444 108.134 57.2444 108.122 57.2422 108.111C57.2422 108.111 57.2422 108.096 57.2422 108.088L57.2294 108.064C57.2294 108.064 57.2294 108.051 57.2294 108.047L56.8026 107.394C56.7716 107.347 56.7232 107.314 56.6681 107.302C56.6128 107.291 56.5554 107.302 56.508 107.332C56.4844 107.348 56.4641 107.367 56.4481 107.391C56.4323 107.414 56.421 107.44 56.4152 107.468C56.4094 107.495 56.4092 107.524 56.4146 107.551C56.4199 107.579 56.4306 107.605 56.4461 107.629L56.6596 107.951H55.108C55.0514 107.951 54.997 107.974 54.9571 108.014C54.9169 108.054 54.8945 108.108 54.8945 108.165C54.8945 108.221 54.9169 108.275 54.9571 108.315C54.997 108.356 55.0514 108.378 55.108 108.378H56.7108L56.4974 108.805C56.485 108.83 56.4777 108.858 56.476 108.885C56.4741 108.914 56.4779 108.942 56.4871 108.968C56.4961 108.995 56.5104 109.019 56.5292 109.04C56.5477 109.061 56.5704 109.079 56.5955 109.091C56.625 109.104 56.657 109.111 56.6895 109.112C56.7294 109.112 56.7686 109.101 56.8026 109.08C56.8365 109.059 56.864 109.029 56.8815 108.993L57.2422 108.258C57.2422 108.258 57.2422 108.241 57.2422 108.233C57.2444 108.217 57.2444 108.201 57.2422 108.186Z" fill="white"/>
<path d="M199.286 14.9722H168.273C167.725 14.9722 167.28 15.4165 167.28 15.9646V27.1802C167.28 27.7285 167.725 28.1726 168.273 28.1726H199.286C199.835 28.1726 200.279 27.7285 200.279 27.1802V15.9646C200.279 15.4165 199.835 14.9722 199.286 14.9722Z" fill="#D83333"/>
<path opacity="0.85" d="M199.286 14.9722H168.273C167.725 14.9722 167.28 15.4165 167.28 15.9646V27.1802C167.28 27.7285 167.725 28.1726 168.273 28.1726H199.286C199.835 28.1726 200.279 27.7285 200.279 27.1802V15.9646C200.279 15.4165 199.835 14.9722 199.286 14.9722Z" fill="white"/>
<path d="M190.788 25.8377C193.061 25.8377 194.903 23.9954 194.903 21.7228C194.903 19.4502 193.061 17.6079 190.788 17.6079C188.515 17.6079 186.673 19.4502 186.673 21.7228C186.673 23.9954 188.515 25.8377 190.788 25.8377Z" fill="white"/>
<path d="M190.794 21.7227C190.489 21.7224 190.194 21.6087 189.97 21.4034C189.744 21.1983 189.603 20.9163 189.575 20.6128L189.494 19.7335C189.477 19.5641 189.498 19.3931 189.552 19.2317C189.605 19.0704 189.693 18.9221 189.808 18.7964C189.923 18.6704 190.062 18.5701 190.218 18.5014C190.373 18.4327 190.542 18.3975 190.713 18.3975H190.877C191.046 18.3972 191.214 18.4327 191.37 18.5014C191.526 18.5701 191.667 18.6706 191.78 18.7964C191.895 18.9223 191.983 19.0706 192.036 19.232C192.089 19.3933 192.109 19.5643 192.094 19.7335L192.012 20.6128C191.983 20.9163 191.842 21.1983 191.618 21.4034C191.391 21.6087 191.099 21.7224 190.794 21.7227Z" fill="#D83333"/>
<path opacity="0.3" d="M190.794 21.7227C190.489 21.7224 190.194 21.6087 189.97 21.4034C189.744 21.1983 189.603 20.9163 189.575 20.6128L189.494 19.7335C189.477 19.5641 189.498 19.3931 189.552 19.2317C189.605 19.0704 189.693 18.9221 189.808 18.7964C189.923 18.6704 190.062 18.5701 190.218 18.5014C190.373 18.4327 190.542 18.3975 190.713 18.3975H190.877C191.046 18.3972 191.214 18.4327 191.37 18.5014C191.526 18.5701 191.667 18.6706 191.78 18.7964C191.895 18.9223 191.983 19.0706 192.036 19.232C192.089 19.3933 192.109 19.5643 192.094 19.7335L192.012 20.6128C191.983 20.9163 191.842 21.1983 191.618 21.4034C191.391 21.6087 191.099 21.7224 190.794 21.7227Z" fill="white"/>
<path d="M194.377 23.8549C194.209 24.1249 194.008 24.3741 193.782 24.5976C193.331 25.0484 192.785 25.3915 192.185 25.6022C191.583 25.8126 190.943 25.885 190.309 25.8135C189.677 25.7422 189.067 25.529 188.529 25.1899C187.989 24.8507 187.535 24.3944 187.195 23.8549C187.3 23.387 187.56 22.9687 187.934 22.6689C188.307 22.369 188.773 22.2053 189.251 22.2051H192.32C192.8 22.2044 193.265 22.3677 193.639 22.6678C194.012 22.9677 194.275 23.3866 194.377 23.8549Z" fill="#D83333"/>
<path opacity="0.3" d="M194.377 23.8549C194.209 24.1249 194.008 24.3741 193.782 24.5976C193.331 25.0484 192.785 25.3915 192.185 25.6022C191.583 25.8126 190.943 25.885 190.309 25.8135C189.677 25.7422 189.067 25.529 188.529 25.1899C187.989 24.8507 187.535 24.3944 187.195 23.8549C187.3 23.387 187.56 22.9687 187.934 22.6689C188.307 22.369 188.773 22.2053 189.251 22.2051H192.32C192.8 22.2044 193.265 22.3677 193.639 22.6678C194.012 22.9677 194.275 23.3866 194.377 23.8549Z" fill="white"/>
<path d="M178.285 21.6802H170.839C170.687 21.6802 170.563 21.8035 170.563 21.9555V22.3866C170.563 22.5388 170.687 22.6619 170.839 22.6619H178.285C178.437 22.6619 178.56 22.5388 178.56 22.3866V21.9555C178.56 21.8035 178.437 21.6802 178.285 21.6802Z" fill="#61656D"/>
<path d="M180.093 18.9717H171.385C170.931 18.9717 170.563 19.3394 170.563 19.7934C170.563 20.2471 170.931 20.6151 171.385 20.6151H180.093C180.547 20.6151 180.914 20.2471 180.914 19.7934C180.914 19.3394 180.547 18.9717 180.093 18.9717Z" fill="#61656D"/>
<path d="M179.442 6.83594H163.125C161.757 6.83594 160.647 7.94534 160.647 9.31383V9.31596C160.647 10.6845 161.757 11.7939 163.125 11.7939H179.442C180.81 11.7939 181.92 10.6845 181.92 9.31596V9.31383C181.92 7.94534 180.81 6.83594 179.442 6.83594Z" fill="#5C687E"/>
<path d="M179.378 10.0569L178.966 9.64712C179.073 9.49751 179.127 9.31631 179.118 9.13276C179.107 8.94921 179.039 8.77399 178.917 8.63505C178.798 8.49611 178.633 8.40156 178.454 8.36656C178.273 8.33156 178.087 8.35823 177.923 8.44232C177.761 8.52641 177.63 8.66301 177.554 8.82991C177.477 8.99702 177.458 9.18505 177.502 9.36369C177.545 9.54212 177.647 9.70112 177.79 9.81487C177.936 9.92863 178.113 9.99052 178.298 9.99074C178.469 9.99031 178.638 9.93653 178.779 9.83707L179.188 10.2469C179.199 10.259 179.214 10.2688 179.231 10.2755C179.246 10.2821 179.263 10.2853 179.282 10.2853C179.316 10.2851 179.351 10.2714 179.378 10.2469C179.402 10.2215 179.417 10.1873 179.417 10.1519C179.417 10.1164 179.402 10.0823 179.378 10.0569ZM177.908 9.55962C177.831 9.48193 177.778 9.38354 177.756 9.27618C177.735 9.16904 177.746 9.05806 177.788 8.95711C177.829 8.85616 177.901 8.76972 177.991 8.70868C178.081 8.64786 178.187 8.61477 178.298 8.61413C178.388 8.61349 178.48 8.63548 178.561 8.67838C178.642 8.72106 178.71 8.78316 178.762 8.85893C178.813 8.93491 178.845 9.02221 178.853 9.11334C178.862 9.20447 178.849 9.29625 178.815 9.38098C178.779 9.46549 178.723 9.53998 178.653 9.59803C178.582 9.65608 178.499 9.69578 178.407 9.71349C178.318 9.73121 178.226 9.7263 178.138 9.69941C178.051 9.67273 177.972 9.6245 177.908 9.55962Z" fill="#61656D"/>
<path d="M190.577 6.83594H186.754C186.44 6.83594 186.187 7.09013 186.187 7.40365V11.2261C186.187 11.5397 186.44 11.7939 186.754 11.7939H190.577C190.89 11.7939 191.144 11.5397 191.144 11.2261V7.40365C191.144 7.09013 190.89 6.83594 190.577 6.83594Z" fill="#5C687E"/>
<path d="M199.804 6.83594H195.982C195.668 6.83594 195.414 7.09013 195.414 7.40365V11.2261C195.414 11.5397 195.668 11.7939 195.982 11.7939H199.804C200.118 11.7939 200.372 11.5397 200.372 11.2261V7.40365C200.372 7.09013 200.118 6.83594 199.804 6.83594Z" fill="#5C687E"/>
<path d="M83.4393 8.07373H68.7685C68.0823 8.07373 67.5264 8.62992 67.5264 9.31588C67.5264 10.0018 68.0823 10.558 68.7685 10.558H83.4393C84.1255 10.558 84.6817 10.0018 84.6817 9.31588C84.6817 8.62992 84.1255 8.07373 83.4393 8.07373Z" fill="white"/>
<path d="M107.019 34.5005H68.5335C67.9854 34.5005 67.541 34.9448 67.541 35.4929V55.3502C67.541 55.8985 67.9854 56.3426 68.5335 56.3426H107.019C107.567 56.3426 108.011 55.8985 108.011 55.3502V35.4929C108.011 34.9448 107.567 34.5005 107.019 34.5005Z" fill="#D83333"/>
<path d="M107.019 34.5005H68.5335C67.9854 34.5005 67.541 34.9448 67.541 35.4929V55.3502C67.541 55.8985 67.9854 56.3426 68.5335 56.3426H107.019C107.567 56.3426 108.011 55.8985 108.011 55.3502V35.4929C108.011 34.9448 107.567 34.5005 107.019 34.5005Z" fill="#D83333"/>
<path d="M101.959 41.0592C103.273 41.0592 104.339 39.9938 104.339 38.6795C104.339 37.3652 103.273 36.2998 101.959 36.2998C100.645 36.2998 99.5791 37.3652 99.5791 38.6795C99.5791 39.9938 100.645 41.0592 101.959 41.0592Z" fill="white"/>
<path d="M98.8875 41.0592C100.202 41.0592 101.267 39.9938 101.267 38.6795C101.267 37.3652 100.202 36.2998 98.8875 36.2998C97.5732 36.2998 96.5078 37.3652 96.5078 38.6795C96.5078 39.9938 97.5732 41.0592 98.8875 41.0592Z" fill="#D83333"/>
<path opacity="0.3" d="M98.8875 41.0592C100.202 41.0592 101.267 39.9938 101.267 38.6795C101.267 37.3652 100.202 36.2998 98.8875 36.2998C97.5732 36.2998 96.5078 37.3652 96.5078 38.6795C96.5078 39.9938 97.5732 41.0592 98.8875 41.0592Z" fill="white"/>
<path d="M77.2286 42.7666H72.674C71.9102 42.7666 71.291 43.3858 71.291 44.1496V46.7427C71.291 47.5066 71.9102 48.1258 72.674 48.1258H77.2286C77.9924 48.1258 78.6116 47.5066 78.6116 46.7427V44.1496C78.6116 43.3858 77.9924 42.7666 77.2286 42.7666Z" fill="white"/>
<path d="M81.7105 38.0947H71.8758C71.5529 38.0947 71.291 38.3566 71.291 38.6795C71.291 39.0027 71.5529 39.2643 71.8758 39.2643H81.7105C82.0335 39.2643 82.2953 39.0027 82.2953 38.6795C82.2953 38.3566 82.0335 38.0947 81.7105 38.0947Z" fill="#D83333"/>
<path d="M76.17 50.7832H72.5502C71.8549 50.7832 71.291 51.3467 71.291 52.0414C71.291 52.7363 71.8549 53.2995 72.5502 53.2995H76.17C76.8655 53.2995 77.4292 52.7363 77.4292 52.0414C77.4292 51.3467 76.8655 50.7832 76.17 50.7832Z" fill="#D83333"/>
<path d="M84 50.7832H80.3803C79.6848 50.7832 79.1211 51.3467 79.1211 52.0414C79.1211 52.7363 79.6848 53.2995 80.3803 53.2995H84C84.6954 53.2995 85.2593 52.7363 85.2593 52.0414C85.2593 51.3467 84.6954 50.7832 84 50.7832Z" fill="#D83333"/>
<path d="M91.8321 50.7832H88.2124C87.5168 50.7832 86.9531 51.3467 86.9531 52.0414C86.9531 52.7363 87.5168 53.2995 88.2124 53.2995H91.8321C92.5274 53.2995 93.0913 52.7363 93.0913 52.0414C93.0913 51.3467 92.5274 50.7832 91.8321 50.7832Z" fill="#D83333"/>
<path d="M99.6621 50.7832H96.0424C95.3471 50.7832 94.7832 51.3467 94.7832 52.0414C94.7832 52.7363 95.3471 53.2995 96.0424 53.2995H99.6621C100.358 53.2995 100.921 52.7363 100.921 52.0414C100.921 51.3467 100.358 50.7832 99.6621 50.7832Z" fill="#D83333"/>
<path opacity="0.3" d="M81.7105 38.0947H71.8758C71.5529 38.0947 71.291 38.3566 71.291 38.6795C71.291 39.0027 71.5529 39.2643 71.8758 39.2643H81.7105C82.0335 39.2643 82.2953 39.0027 82.2953 38.6795C82.2953 38.3566 82.0335 38.0947 81.7105 38.0947Z" fill="white"/>
<path opacity="0.3" d="M76.17 50.7832H72.5502C71.8549 50.7832 71.291 51.3467 71.291 52.0414C71.291 52.7363 71.8549 53.2995 72.5502 53.2995H76.17C76.8655 53.2995 77.4292 52.7363 77.4292 52.0414C77.4292 51.3467 76.8655 50.7832 76.17 50.7832Z" fill="white"/>
<path opacity="0.3" d="M84 50.7832H80.3803C79.6848 50.7832 79.1211 51.3467 79.1211 52.0414C79.1211 52.7363 79.6848 53.2995 80.3803 53.2995H84C84.6954 53.2995 85.2593 52.7363 85.2593 52.0414C85.2593 51.3467 84.6954 50.7832 84 50.7832Z" fill="white"/>
<path opacity="0.3" d="M91.8321 50.7832H88.2124C87.5168 50.7832 86.9531 51.3467 86.9531 52.0414C86.9531 52.7363 87.5168 53.2995 88.2124 53.2995H91.8321C92.5274 53.2995 93.0913 52.7363 93.0913 52.0414C93.0913 51.3467 92.5274 50.7832 91.8321 50.7832Z" fill="white"/>
<path opacity="0.3" d="M99.6621 50.7832H96.0424C95.3471 50.7832 94.7832 51.3467 94.7832 52.0414C94.7832 52.7363 95.3471 53.2995 96.0424 53.2995H99.6621C100.358 53.2995 100.921 52.7363 100.921 52.0414C100.921 51.3467 100.358 50.7832 99.6621 50.7832Z" fill="white"/>
<path d="M107.019 61.5078H68.5335C67.9854 61.5078 67.541 61.9522 67.541 62.5003V82.3575C67.541 82.9058 67.9854 83.35 68.5335 83.35H107.019C107.567 83.35 108.011 82.9058 108.011 82.3575V62.5003C108.011 61.9522 107.567 61.5078 107.019 61.5078Z" fill="#5C687E"/>
<path d="M103.392 64.0967H98.4132C97.904 64.0967 97.4912 64.5094 97.4912 65.0187V66.3547C97.4912 66.864 97.904 67.2767 98.4132 67.2767H103.392C103.902 67.2767 104.314 66.864 104.314 66.3547V65.0187C104.314 64.5094 103.902 64.0967 103.392 64.0967Z" fill="white"/>
<path d="M77.2286 69.7734H72.674C71.9102 69.7734 71.291 70.3926 71.291 71.1565V73.7496C71.291 74.5134 71.9102 75.1326 72.674 75.1326H77.2286C77.9924 75.1326 78.6116 74.5134 78.6116 73.7496V71.1565C78.6116 70.3926 77.9924 69.7734 77.2286 69.7734Z" fill="white"/>
<path d="M81.7105 65.1016H71.8758C71.5529 65.1016 71.291 65.3634 71.291 65.6864C71.291 66.0095 71.5529 66.2711 71.8758 66.2711H81.7105C82.0335 66.2711 82.2953 66.0095 82.2953 65.6864C82.2953 65.3634 82.0335 65.1016 81.7105 65.1016Z" fill="#2B3048"/>
<path d="M76.17 77.792H72.5502C71.8549 77.792 71.291 78.3554 71.291 79.0501C71.291 79.7451 71.8549 80.3083 72.5502 80.3083H76.17C76.8655 80.3083 77.4292 79.7451 77.4292 79.0501C77.4292 78.3554 76.8655 77.792 76.17 77.792Z" fill="white"/>
<path d="M84 77.792H80.3803C79.6848 77.792 79.1211 78.3554 79.1211 79.0501C79.1211 79.7451 79.6848 80.3083 80.3803 80.3083H84C84.6954 80.3083 85.2593 79.7451 85.2593 79.0501C85.2593 78.3554 84.6954 77.792 84 77.792Z" fill="white"/>
<path d="M91.8321 77.792H88.2124C87.5168 77.792 86.9531 78.3554 86.9531 79.0501C86.9531 79.7451 87.5168 80.3083 88.2124 80.3083H91.8321C92.5274 80.3083 93.0913 79.7451 93.0913 79.0501C93.0913 78.3554 92.5274 77.792 91.8321 77.792Z" fill="white"/>
<path d="M99.6621 77.792H96.0424C95.3471 77.792 94.7832 78.3554 94.7832 79.0501C94.7832 79.7451 95.3471 80.3083 96.0424 80.3083H99.6621C100.358 80.3083 100.921 79.7451 100.921 79.0501C100.921 78.3554 100.358 77.792 99.6621 77.792Z" fill="white"/>
<path d="M107.019 88.2671H68.5335C67.9854 88.2671 67.541 88.7114 67.541 89.2595V109.117C67.541 109.665 67.9854 110.109 68.5335 110.109H107.019C107.567 110.109 108.011 109.665 108.011 109.117V89.2595C108.011 88.7114 107.567 88.2671 107.019 88.2671Z" fill="#2B3048"/>
<path d="M103.392 90.856H98.4132C97.904 90.856 97.4912 91.2687 97.4912 91.778V93.114C97.4912 93.6233 97.904 94.036 98.4132 94.036H103.392C103.902 94.036 104.314 93.6233 104.314 93.114V91.778C104.314 91.2687 103.902 90.856 103.392 90.856Z" fill="white"/>
<path d="M77.2286 96.5332H72.674C71.9102 96.5332 71.291 97.1524 71.291 97.9162V100.509C71.291 101.273 71.9102 101.892 72.674 101.892H77.2286C77.9924 101.892 78.6116 101.273 78.6116 100.509V97.9162C78.6116 97.1524 77.9924 96.5332 77.2286 96.5332Z" fill="white"/>
<path d="M81.7105 91.8613H71.8758C71.5529 91.8613 71.291 92.1232 71.291 92.4461C71.291 92.769 71.5529 93.0309 71.8758 93.0309H81.7105C82.0335 93.0309 82.2953 92.769 82.2953 92.4461C82.2953 92.1232 82.0335 91.8613 81.7105 91.8613Z" fill="white"/>
<path d="M76.17 104.552H72.5502C71.8549 104.552 71.291 105.115 71.291 105.81C71.291 106.505 71.8549 107.068 72.5502 107.068H76.17C76.8655 107.068 77.4292 106.505 77.4292 105.81C77.4292 105.115 76.8655 104.552 76.17 104.552Z" fill="white"/>
<path d="M84 104.552H80.3803C79.6848 104.552 79.1211 105.115 79.1211 105.81C79.1211 106.505 79.6848 107.068 80.3803 107.068H84C84.6954 107.068 85.2593 106.505 85.2593 105.81C85.2593 105.115 84.6954 104.552 84 104.552Z" fill="white"/>
<path d="M91.8321 104.552H88.2124C87.5168 104.552 86.9531 105.115 86.9531 105.81C86.9531 106.505 87.5168 107.068 88.2124 107.068H91.8321C92.5274 107.068 93.0913 106.505 93.0913 105.81C93.0913 105.115 92.5274 104.552 91.8321 104.552Z" fill="white"/>
<path d="M99.6621 104.552H96.0424C95.3471 104.552 94.7832 105.115 94.7832 105.81C94.7832 106.505 95.3471 107.068 96.0424 107.068H99.6621C100.358 107.068 100.921 106.505 100.921 105.81C100.921 105.115 100.358 104.552 99.6621 104.552Z" fill="white"/>
<path d="M199.463 34.5625H168.273C167.725 34.5625 167.28 35.0069 167.28 35.5549V64.9417C167.28 65.49 167.725 65.9342 168.273 65.9342H199.463C200.012 65.9342 200.456 65.49 200.456 64.9417V35.5549C200.456 35.0069 200.012 34.5625 199.463 34.5625Z" fill="#D83333"/>
<path opacity="0.85" d="M199.463 34.5625H168.273C167.725 34.5625 167.28 35.0069 167.28 35.5549V64.9417C167.28 65.49 167.725 65.9342 168.273 65.9342H199.463C200.012 65.9342 200.456 65.49 200.456 64.9417V35.5549C200.456 35.0069 200.012 34.5625 199.463 34.5625Z" fill="white"/>
<g opacity="0.2">
<path opacity="0.2" d="M198.921 49.9849H169.004V50.0916H198.921V49.9849Z" fill="#D83333"/>
</g>
<g opacity="0.2">
<path opacity="0.2" d="M198.968 54.458H169.046V54.5647H198.968V54.458Z" fill="#D83333"/>
</g>
<g opacity="0.2">
<path opacity="0.2" d="M199.017 58.9316H169.004V59.0384H199.017V58.9316Z" fill="#D83333"/>
</g>
<path d="M198.123 37.4546H191.827C191.588 37.4546 191.396 37.6477 191.396 37.8857V38.5772C191.396 38.8154 191.588 39.0083 191.827 39.0083H198.123C198.362 39.0083 198.554 38.8154 198.554 38.5772V37.8857C198.554 37.6477 198.362 37.4546 198.123 37.4546Z" fill="#61656D"/>
<path d="M173.568 62.6284H170.811C170.72 62.6284 170.646 62.7021 170.646 62.7928V63.0211C170.646 63.112 170.72 63.1855 170.811 63.1855H173.568C173.659 63.1855 173.733 63.112 173.733 63.0211V62.7928C173.733 62.7021 173.659 62.6284 173.568 62.6284Z" fill="#61656D"/>
<path d="M177.382 62.6284H174.855C174.7 62.6284 174.575 62.7533 174.575 62.9069C174.575 63.0608 174.7 63.1855 174.855 63.1855H177.382C177.536 63.1855 177.662 63.0608 177.662 62.9069C177.662 62.7533 177.536 62.6284 177.382 62.6284Z" fill="#D83333"/>
<path d="M187.681 62.6284H184.923C184.831 62.6284 184.759 62.7021 184.759 62.7928V63.0211C184.759 63.112 184.831 63.1855 184.923 63.1855H187.681C187.77 63.1855 187.845 63.112 187.845 63.0211V62.7928C187.845 62.7021 187.77 62.6284 187.681 62.6284Z" fill="#61656D"/>
<path d="M191.494 62.6284H188.965C188.811 62.6284 188.686 62.7533 188.686 62.9069C188.686 63.0608 188.811 63.1855 188.965 63.1855H191.494C191.648 63.1855 191.772 63.0608 191.772 62.9069C191.772 62.7533 191.648 62.6284 191.494 62.6284Z" fill="#D83333"/>
<path opacity="0.37" d="M199.017 59.038H169.004L169.053 53.4227C169.36 52.6309 169.813 51.7879 170.449 51.7879C171.202 51.7879 171.565 53.9072 173.236 53.9008C175.844 53.9008 176.651 49.8799 177.868 49.7731C179.706 49.6109 180.511 53.0599 182.267 53.0898C183.855 53.1154 184.44 51.5553 185.242 50.6269C185.543 50.2813 185.944 50.0387 186.391 49.9332C186.975 49.7945 187.097 49.9866 187.912 49.707C190.418 48.8533 189.833 45.5793 192.083 45.8653C193.814 46.0894 193.809 50.3729 195.596 50.6781C196.535 50.8381 198.157 49.8927 198.917 49.8735L199.017 59.038Z" fill="#D83333"/>
<path d="M173.233 54.0973C172.166 54.0973 171.624 53.3055 171.18 52.6695C170.917 52.2896 170.691 51.963 170.45 51.963C169.998 51.963 169.566 52.4923 169.169 53.5381L168.956 53.4549C169.4 52.2917 169.893 51.7261 170.45 51.7261C170.813 51.7261 171.073 52.1018 171.374 52.535C171.786 53.1262 172.296 53.8625 173.233 53.8625C174.727 53.8625 175.638 52.4134 176.364 51.2545C176.872 50.4434 177.31 49.7413 177.858 49.6943C178.872 49.6025 179.566 50.5288 180.253 51.4209C180.882 52.2469 181.476 53.028 182.27 53.0408C183.422 53.0686 184.015 52.1871 184.594 51.3526C184.782 51.0816 184.959 50.8255 185.153 50.5971C185.469 50.2304 185.892 49.972 186.363 49.8586C186.557 49.8121 186.758 49.7906 186.959 49.7946C187.272 49.8017 187.582 49.7466 187.874 49.6324C189.035 49.2333 189.516 48.2686 189.94 47.4192C190.408 46.4801 190.852 45.5922 192.098 45.7566C193.031 45.8782 193.485 47.067 193.925 48.2174C194.352 49.3251 194.779 50.4712 195.615 50.6142C196.134 50.7038 196.913 50.42 197.6 50.1681C198.018 49.9871 198.46 49.8636 198.913 49.801V50.0358C198.486 50.1005 198.07 50.2195 197.675 50.3901C196.96 50.6505 196.151 50.945 195.568 50.8468C194.606 50.6803 194.145 49.4702 193.697 48.3006C193.27 47.1652 192.843 46.0938 192.062 45.9892C190.98 45.8462 190.61 46.5868 190.141 47.5237C189.697 48.4159 189.193 49.4254 187.94 49.8565C187.625 49.9782 187.287 50.0377 186.948 50.0315C186.767 50.0268 186.585 50.0454 186.408 50.087C185.985 50.1888 185.606 50.421 185.322 50.7508C185.127 50.987 184.946 51.2327 184.777 51.4871C184.193 52.3408 183.518 53.2991 182.255 53.2777C181.348 53.2628 180.69 52.3984 180.054 51.5703C179.384 50.6889 178.75 49.8629 177.869 49.9355C177.442 49.9739 177.032 50.6291 176.556 51.3868C175.801 52.5948 174.849 54.0994 173.229 54.1037L173.233 54.0973Z" fill="#D83333"/>
<path d="M183.975 52.8704C184.256 52.8704 184.483 52.6429 184.483 52.3625C184.483 52.082 184.256 51.8545 183.975 51.8545C183.695 51.8545 183.467 52.082 183.467 52.3625C183.467 52.6429 183.695 52.8704 183.975 52.8704Z" fill="white" stroke="#61656D" stroke-miterlimit="10"/>
<path d="M186.924 47.1099H180.891C180.79 47.1099 180.694 47.1501 180.622 47.2213C180.551 47.2926 180.511 47.3891 180.511 47.4898V50.4223C180.511 50.5231 180.551 50.6197 180.622 50.691C180.694 50.7623 180.79 50.8022 180.891 50.8022H183.599L183.812 51.1565C183.823 51.1764 183.838 51.193 183.857 51.2045C183.876 51.2161 183.898 51.2222 183.919 51.2222C183.941 51.2222 183.964 51.2161 183.981 51.2045C184 51.193 184.015 51.1764 184.026 51.1565L184.239 50.8022H186.948C187.048 50.8018 187.144 50.7615 187.214 50.6902C187.285 50.6191 187.325 50.5228 187.325 50.4223V47.4898C187.325 47.4382 187.315 47.387 187.296 47.3394C187.274 47.292 187.244 47.2491 187.206 47.2135C187.17 47.1778 187.125 47.1503 187.076 47.1326C187.027 47.1148 186.975 47.1072 186.924 47.1099Z" fill="#61656D"/>
<path d="M185.879 47.8208H181.937C181.869 47.8208 181.815 47.8752 181.815 47.9425V48.5742C181.815 48.6412 181.869 48.6959 181.937 48.6959H185.879C185.945 48.6959 186.001 48.6412 186.001 48.5742V47.9425C186.001 47.8752 185.945 47.8208 185.879 47.8208Z" fill="#D83333"/>
<path d="M184.84 49.4131H182.974C182.906 49.4131 182.853 49.4675 182.853 49.5347V49.8015C182.853 49.8685 182.906 49.923 182.974 49.923H184.84C184.906 49.923 184.961 49.8685 184.961 49.8015V49.5347C184.961 49.4675 184.906 49.4131 184.84 49.4131Z" fill="#D83333"/>
<path opacity="0.5" d="M185.879 47.8208H181.937C181.869 47.8208 181.815 47.8752 181.815 47.9425V48.5742C181.815 48.6412 181.869 48.6959 181.937 48.6959H185.879C185.945 48.6959 186.001 48.6412 186.001 48.5742V47.9425C186.001 47.8752 185.945 47.8208 185.879 47.8208Z" fill="white"/>
<path opacity="0.5" d="M184.84 49.4131H182.974C182.906 49.4131 182.853 49.4675 182.853 49.5347V49.8015C182.853 49.8685 182.906 49.923 182.974 49.923H184.84C184.906 49.923 184.961 49.8685 184.961 49.8015V49.5347C184.961 49.4675 184.906 49.4131 184.84 49.4131Z" fill="white"/>
<g opacity="0.2">
<path opacity="0.2" d="M198.944 45.5112H169.004V45.6179H198.944V45.5112Z" fill="#D83333"/>
</g>
<path d="M199.668 70.8452H168.294C167.746 70.8452 167.302 71.2896 167.302 71.8377V108.923C167.302 109.471 167.746 109.915 168.294 109.915H199.668C200.216 109.915 200.66 109.471 200.66 108.923V71.8377C200.66 71.2896 200.216 70.8452 199.668 70.8452Z" fill="#D83333"/>
<path opacity="0.85" d="M199.668 70.8452H168.294C167.746 70.8452 167.302 71.2896 167.302 71.8377V108.923C167.302 109.471 167.746 109.915 168.294 109.915H199.668C200.216 109.915 200.66 109.471 200.66 108.923V71.8377C200.66 71.2896 200.216 70.8452 199.668 70.8452Z" fill="white"/>
<path d="M183.35 73.415H170.011C169.773 73.415 169.58 73.6082 169.58 73.8462V75.3359C169.58 75.5741 169.773 75.767 170.011 75.767H183.35C183.589 75.767 183.781 75.5741 183.781 75.3359V73.8462C183.781 73.6082 183.589 73.415 183.35 73.415Z" fill="#61656D"/>
<path d="M175.714 80.0586H169.872C169.711 80.0586 169.58 80.1896 169.58 80.351V80.7672C169.58 80.9287 169.711 81.0596 169.872 81.0596H175.714C175.875 81.0596 176.006 80.9287 176.006 80.7672V80.351C176.006 80.1896 175.875 80.0586 175.714 80.0586Z" fill="#D83333"/>
<path d="M195.846 82.1055H170.015C169.775 82.1055 169.58 82.2999 169.58 82.5398C169.58 82.7797 169.775 82.9741 170.015 82.9741H195.846C196.087 82.9741 196.282 82.7797 196.282 82.5398C196.282 82.2999 196.087 82.1055 195.846 82.1055Z" fill="#D83333"/>
<path opacity="0.5" d="M195.846 82.1055H170.015C169.775 82.1055 169.58 82.2999 169.58 82.5398C169.58 82.7797 169.775 82.9741 170.015 82.9741H195.846C196.087 82.9741 196.282 82.7797 196.282 82.5398C196.282 82.2999 196.087 82.1055 195.846 82.1055Z" fill="white"/>
<path d="M178.398 82.1055H170.015C169.775 82.1055 169.58 82.2999 169.58 82.5398C169.58 82.7797 169.775 82.9741 170.015 82.9741H178.398C178.64 82.9741 178.834 82.7797 178.834 82.5398C178.834 82.2999 178.64 82.1055 178.398 82.1055Z" fill="#61656D"/>
<path d="M175.714 89.0059H169.872C169.711 89.0059 169.58 89.1369 169.58 89.2983V89.7144C169.58 89.876 169.711 90.0068 169.872 90.0068H175.714C175.875 90.0068 176.006 89.876 176.006 89.7144V89.2983C176.006 89.1369 175.875 89.0059 175.714 89.0059Z" fill="#D83333"/>
<path d="M195.846 91.0503H170.015C169.775 91.0503 169.58 91.2447 169.58 91.4846C169.58 91.7245 169.775 91.9189 170.015 91.9189H195.846C196.087 91.9189 196.282 91.7245 196.282 91.4846C196.282 91.2447 196.087 91.0503 195.846 91.0503Z" fill="#D83333"/>
<path opacity="0.5" d="M195.846 91.0503H170.015C169.775 91.0503 169.58 91.2447 169.58 91.4846C169.58 91.7245 169.775 91.9189 170.015 91.9189H195.846C196.087 91.9189 196.282 91.7245 196.282 91.4846C196.282 91.2447 196.087 91.0503 195.846 91.0503Z" fill="white"/>
<path d="M187.145 91.0503H170.015C169.775 91.0503 169.58 91.2447 169.58 91.4846C169.58 91.7245 169.775 91.9189 170.015 91.9189H187.145C187.386 91.9189 187.58 91.7245 187.58 91.4846C187.58 91.2447 187.386 91.0503 187.145 91.0503Z" fill="#61656D"/>
<path d="M175.714 97.9502H169.872C169.711 97.9502 169.58 98.0812 169.58 98.2426V98.6588C169.58 98.8203 169.711 98.9512 169.872 98.9512H175.714C175.875 98.9512 176.006 98.8203 176.006 98.6588V98.2426C176.006 98.0812 175.875 97.9502 175.714 97.9502Z" fill="#D83333"/>
<path d="M195.846 99.9951H170.015C169.775 99.9951 169.58 100.19 169.58 100.429C169.58 100.669 169.775 100.864 170.015 100.864H195.846C196.087 100.864 196.282 100.669 196.282 100.429C196.282 100.19 196.087 99.9951 195.846 99.9951Z" fill="#D83333"/>
<path opacity="0.5" d="M195.846 99.9951H170.015C169.775 99.9951 169.58 100.19 169.58 100.429C169.58 100.669 169.775 100.864 170.015 100.864H195.846C196.087 100.864 196.282 100.669 196.282 100.429C196.282 100.19 196.087 99.9951 195.846 99.9951Z" fill="white"/>
<path d="M182.21 99.9951H170.015C169.775 99.9951 169.58 100.19 169.58 100.429C169.58 100.669 169.775 100.864 170.015 100.864H182.21C182.451 100.864 182.646 100.669 182.646 100.429C182.646 100.19 182.451 99.9951 182.21 99.9951Z" fill="#61656D"/>
<path d="M161.232 14.9951H69.2746C68.3457 14.9951 67.5928 15.7481 67.5928 16.6769V26.4903C67.5928 27.4191 68.3457 28.1721 69.2746 28.1721H161.232C162.161 28.1721 162.914 27.4191 162.914 26.4903V16.6769C162.914 15.7481 162.161 14.9951 161.232 14.9951Z" fill="#D83333"/>
<path opacity="0.85" d="M161.232 14.9951H69.2746C68.3457 14.9951 67.5928 15.7481 67.5928 16.6769V26.4903C67.5928 27.4191 68.3457 28.1721 69.2746 28.1721H161.232C162.161 28.1721 162.914 27.4191 162.914 26.4903V16.6769C162.914 15.7481 162.161 14.9951 161.232 14.9951Z" fill="white"/>
<path d="M73.5847 22.5059C74.9366 22.5059 76.0327 21.4097 76.0327 20.0579C76.0327 18.7058 74.9366 17.6099 73.5847 17.6099C72.2327 17.6099 71.1367 18.7058 71.1367 20.0579C71.1367 21.4097 72.2327 22.5059 73.5847 22.5059Z" fill="#61656D"/>
<path d="M75.1892 24.4014H71.9771C71.6813 24.4014 71.4414 24.6413 71.4414 24.9371C71.4414 25.2329 71.6813 25.4728 71.9771 25.4728H75.1892C75.4852 25.4728 75.7249 25.2329 75.7249 24.9371C75.7249 24.6413 75.4852 24.4014 75.1892 24.4014Z" fill="#D83333"/>
<path d="M87.4421 22.5059C88.7942 22.5059 89.8902 21.4097 89.8902 20.0579C89.8902 18.7058 88.7942 17.6099 87.4421 17.6099C86.0903 17.6099 84.9941 18.7058 84.9941 20.0579C84.9941 21.4097 86.0903 22.5059 87.4421 22.5059Z" fill="#61656D"/>
<path d="M89.0486 24.4014H85.8365C85.5407 24.4014 85.3008 24.6413 85.3008 24.9371C85.3008 25.2329 85.5407 25.4728 85.8365 25.4728H89.0486C89.3444 25.4728 89.5843 25.2329 89.5843 24.9371C89.5843 24.6413 89.3444 24.4014 89.0486 24.4014Z" fill="#D83333"/>
<path d="M101.302 22.5059C102.653 22.5059 103.75 21.4097 103.75 20.0579C103.75 18.7058 102.653 17.6099 101.302 17.6099C99.9495 17.6099 98.8535 18.7058 98.8535 20.0579C98.8535 21.4097 99.9495 22.5059 101.302 22.5059Z" fill="#61656D"/>
<path d="M102.906 24.4014H99.6939C99.3981 24.4014 99.1582 24.6413 99.1582 24.9371C99.1582 25.2329 99.3981 25.4728 99.6939 25.4728H102.906C103.202 25.4728 103.442 25.2329 103.442 24.9371C103.442 24.6413 103.202 24.4014 102.906 24.4014Z" fill="#D83333"/>
<path d="M115.159 22.5059C116.511 22.5059 117.607 21.4097 117.607 20.0579C117.607 18.7058 116.511 17.6099 115.159 17.6099C113.807 17.6099 112.711 18.7058 112.711 20.0579C112.711 21.4097 113.807 22.5059 115.159 22.5059Z" fill="#61656D"/>
<path d="M116.767 24.4014H113.555C113.259 24.4014 113.02 24.6413 113.02 24.9371C113.02 25.2329 113.259 25.4728 113.555 25.4728H116.767C117.063 25.4728 117.303 25.2329 117.303 24.9371C117.303 24.6413 117.063 24.4014 116.767 24.4014Z" fill="#D83333"/>
<path d="M129.017 22.5059C130.369 22.5059 131.465 21.4097 131.465 20.0579C131.465 18.7058 130.369 17.6099 129.017 17.6099C127.665 17.6099 126.569 18.7058 126.569 20.0579C126.569 21.4097 127.665 22.5059 129.017 22.5059Z" fill="#61656D"/>
<path d="M130.626 24.4014H127.414C127.118 24.4014 126.878 24.6413 126.878 24.9371C126.878 25.2329 127.118 25.4728 127.414 25.4728H130.626C130.922 25.4728 131.161 25.2329 131.161 24.9371C131.161 24.6413 130.922 24.4014 130.626 24.4014Z" fill="#D83333"/>
<path d="M142.878 22.5059C144.23 22.5059 145.326 21.4097 145.326 20.0579C145.326 18.7058 144.23 17.6099 142.878 17.6099C141.526 17.6099 140.43 18.7058 140.43 20.0579C140.43 21.4097 141.526 22.5059 142.878 22.5059Z" fill="#61656D"/>
<path d="M144.485 24.4014H141.273C140.977 24.4014 140.737 24.6413 140.737 24.9371C140.737 25.2329 140.977 25.4728 141.273 25.4728H144.485C144.781 25.4728 145.021 25.2329 145.021 24.9371C145.021 24.6413 144.781 24.4014 144.485 24.4014Z" fill="#D83333"/>
<path d="M156.736 22.5059C158.088 22.5059 159.184 21.4097 159.184 20.0579C159.184 18.7058 158.088 17.6099 156.736 17.6099C155.384 17.6099 154.288 18.7058 154.288 20.0579C154.288 21.4097 155.384 22.5059 156.736 22.5059Z" fill="#61656D"/>
<path d="M158.343 24.4014H155.13C154.834 24.4014 154.595 24.6413 154.595 24.9371C154.595 25.2329 154.834 25.4728 155.13 25.4728H158.343C158.638 25.4728 158.878 25.2329 158.878 24.9371C158.878 24.6413 158.638 24.4014 158.343 24.4014Z" fill="#D83333"/>
<path d="M161.85 34.4834L112.555 34.5694C112.007 34.5705 111.563 35.0155 111.564 35.5636L111.693 108.989C111.694 109.537 112.139 109.981 112.687 109.98L161.982 109.894C162.53 109.893 162.974 109.448 162.973 108.9L162.844 35.4741C162.844 34.926 162.398 34.4825 161.85 34.4834Z" fill="#D83333"/>
<path opacity="0.85" d="M161.85 34.4834L112.555 34.5694C112.007 34.5705 111.563 35.0155 111.564 35.5636L111.693 108.989C111.694 109.537 112.139 109.981 112.687 109.98L161.982 109.894C162.53 109.893 162.974 109.448 162.973 108.9L162.844 35.4741C162.844 34.926 162.398 34.4825 161.85 34.4834Z" fill="white"/>
<path d="M164.705 42.6621H109.792C109.364 42.6621 109.018 43.0089 109.018 43.4369V51.5172C109.018 51.9449 109.364 52.2919 109.792 52.2919H164.705C165.133 52.2919 165.48 51.9449 165.48 51.5172V43.4369C165.48 43.0089 165.133 42.6621 164.705 42.6621Z" fill="#D83333"/>
<path opacity="0.5" d="M164.705 42.6621H109.792C109.364 42.6621 109.018 43.0089 109.018 43.4369V51.5172C109.018 51.9449 109.364 52.2919 109.792 52.2919H164.705C165.133 52.2919 165.48 51.9449 165.48 51.5172V43.4369C165.48 43.0089 165.133 42.6621 164.705 42.6621Z" fill="white" stroke="white" stroke-width="2" stroke-miterlimit="10"/>
<path d="M156.748 45.8423H149.752C149.391 45.8423 149.099 46.1347 149.099 46.4954V46.6277C149.099 46.9884 149.391 47.2808 149.752 47.2808H156.748C157.109 47.2808 157.401 46.9884 157.401 46.6277V46.4954C157.401 46.1347 157.109 45.8423 156.748 45.8423Z" fill="#61656D"/>
<path d="M154.915 54.8276H148.675C148.314 54.8276 148.021 55.12 148.021 55.4807V55.4829C148.021 55.8436 148.314 56.1359 148.675 56.1359H154.915C155.276 56.1359 155.568 55.8436 155.568 55.4829V55.4807C155.568 55.12 155.276 54.8276 154.915 54.8276Z" fill="#61656D"/>
<path d="M154.915 63.7681H148.675C148.314 63.7681 148.021 64.0605 148.021 64.4212V64.4233C148.021 64.784 148.314 65.0764 148.675 65.0764H154.915C155.276 65.0764 155.568 64.784 155.568 64.4233V64.4212C155.568 64.0605 155.276 63.7681 154.915 63.7681Z" fill="#61656D"/>
<path d="M154.915 72.7104H148.675C148.314 72.7104 148.021 73.0028 148.021 73.3635V73.3657C148.021 73.7264 148.314 74.0187 148.675 74.0187H154.915C155.276 74.0187 155.568 73.7264 155.568 73.3657V73.3635C155.568 73.0028 155.276 72.7104 154.915 72.7104Z" fill="#61656D"/>
<path d="M154.915 81.4375H148.675C148.314 81.4375 148.021 81.7299 148.021 82.0906V82.0927C148.021 82.4534 148.314 82.7458 148.675 82.7458H154.915C155.276 82.7458 155.568 82.4534 155.568 82.0927V82.0906C155.568 81.7299 155.276 81.4375 154.915 81.4375Z" fill="#61656D"/>
<path d="M154.915 90.3804H148.675C148.314 90.3804 148.021 90.6728 148.021 91.0335V91.0356C148.021 91.3963 148.314 91.6887 148.675 91.6887H154.915C155.276 91.6887 155.568 91.3963 155.568 91.0356V91.0335C155.568 90.6728 155.276 90.3804 154.915 90.3804Z" fill="#61656D"/>
<path d="M154.915 99.3228H148.675C148.314 99.3228 148.021 99.6152 148.021 99.9759V99.978C148.021 100.339 148.314 100.631 148.675 100.631H154.915C155.276 100.631 155.568 100.339 155.568 99.978V99.9759C155.568 99.6152 155.276 99.3228 154.915 99.3228Z" fill="#61656D"/>
<path d="M135.793 45.8418H122.65C122.412 45.8418 122.219 46.0347 122.219 46.2729V46.6208C122.219 46.859 122.412 47.0519 122.65 47.0519H135.793C136.031 47.0519 136.224 46.859 136.224 46.6208V46.2729C136.224 46.0347 136.031 45.8418 135.793 45.8418Z" fill="#D83333"/>
<path opacity="0.2" d="M135.793 45.8418H122.65C122.412 45.8418 122.219 46.0347 122.219 46.2729V46.6208C122.219 46.859 122.412 47.0519 122.65 47.0519H135.793C136.031 47.0519 136.224 46.859 136.224 46.6208V46.2729C136.224 46.0347 136.031 45.8418 135.793 45.8418Z" fill="white"/>
<path d="M136.022 54.9316H124.151C123.913 54.9316 123.72 55.1246 123.72 55.3628V55.5997C123.72 55.8379 123.913 56.0308 124.151 56.0308H136.022C136.26 56.0308 136.453 55.8379 136.453 55.5997V55.3628C136.453 55.1246 136.26 54.9316 136.022 54.9316Z" fill="#D83333"/>
<path opacity="0.3" d="M136.022 54.9316H124.151C123.913 54.9316 123.72 55.1246 123.72 55.3628V55.5997C123.72 55.8379 123.913 56.0308 124.151 56.0308H136.022C136.26 56.0308 136.453 55.8379 136.453 55.5997V55.3628C136.453 55.1246 136.26 54.9316 136.022 54.9316Z" fill="white"/>
<path d="M130.449 57.6699H124.151C123.913 57.6699 123.72 57.8629 123.72 58.101V58.338C123.72 58.5761 123.913 58.7691 124.151 58.7691H130.449C130.687 58.7691 130.88 58.5761 130.88 58.338V58.101C130.88 57.8629 130.687 57.6699 130.449 57.6699Z" fill="#D83333"/>
<path opacity="0.3" d="M130.449 57.6699H124.151C123.913 57.6699 123.72 57.8629 123.72 58.101V58.338C123.72 58.5761 123.913 58.7691 124.151 58.7691H130.449C130.687 58.7691 130.88 58.5761 130.88 58.338V58.101C130.88 57.8629 130.687 57.6699 130.449 57.6699Z" fill="white"/>
<path d="M129.665 48.8535H122.65C122.412 48.8535 122.219 49.0467 122.219 49.2846V49.6325C122.219 49.8707 122.412 50.0636 122.65 50.0636H129.665C129.903 50.0636 130.096 49.8707 130.096 49.6325V49.2846C130.096 49.0467 129.903 48.8535 129.665 48.8535Z" fill="#D83333"/>
<path d="M138.233 63.8726H124.284C124.045 63.8726 123.853 64.0655 123.853 64.3035V64.5406C123.853 64.7786 124.045 64.9715 124.284 64.9715H138.233C138.471 64.9715 138.664 64.7786 138.664 64.5406V64.3035C138.664 64.0655 138.471 63.8726 138.233 63.8726Z" fill="#D83333"/>
<path opacity="0.3" d="M138.233 63.8726H124.284C124.045 63.8726 123.853 64.0655 123.853 64.3035V64.5406C123.853 64.7786 124.045 64.9715 124.284 64.9715H138.233C138.471 64.9715 138.664 64.7786 138.664 64.5406V64.3035C138.664 64.0655 138.471 63.8726 138.233 63.8726Z" fill="white"/>
<path d="M130.582 66.6104H124.284C124.045 66.6104 123.853 66.8033 123.853 67.0415V67.2784C123.853 67.5164 124.045 67.7095 124.284 67.7095H130.582C130.82 67.7095 131.013 67.5164 131.013 67.2784V67.0415C131.013 66.8033 130.82 66.6104 130.582 66.6104Z" fill="#D83333"/>
<path opacity="0.3" d="M130.582 66.6104H124.284C124.045 66.6104 123.853 66.8033 123.853 67.0415V67.2784C123.853 67.5164 124.045 67.7095 124.284 67.7095H130.582C130.82 67.7095 131.013 67.5164 131.013 67.2784V67.0415C131.013 66.8033 130.82 66.6104 130.582 66.6104Z" fill="white"/>
<path d="M131.022 72.7617H124.284C124.045 72.7617 123.853 72.9547 123.853 73.1928V73.4297C123.853 73.6679 124.045 73.8609 124.284 73.8609H131.022C131.26 73.8609 131.453 73.6679 131.453 73.4297V73.1928C131.453 72.9547 131.26 72.7617 131.022 72.7617Z" fill="#D83333"/>
<path opacity="0.3" d="M131.022 72.7617H124.284C124.045 72.7617 123.853 72.9547 123.853 73.1928V73.4297C123.853 73.6679 124.045 73.8609 124.284 73.8609H131.022C131.26 73.8609 131.453 73.6679 131.453 73.4297V73.1928C131.453 72.9547 131.26 72.7617 131.022 72.7617Z" fill="white"/>
<path d="M134.966 81.6528H124.284C124.045 81.6528 123.853 81.8458 123.853 82.0839V82.3209C123.853 82.559 124.045 82.752 124.284 82.752H134.966C135.204 82.752 135.397 82.559 135.397 82.3209V82.0839C135.397 81.8458 135.204 81.6528 134.966 81.6528Z" fill="#D83333"/>
<path opacity="0.3" d="M134.966 81.6528H124.284C124.045 81.6528 123.853 81.8458 123.853 82.0839V82.3209C123.853 82.559 124.045 82.752 124.284 82.752H134.966C135.204 82.752 135.397 82.559 135.397 82.3209V82.0839C135.397 81.8458 135.204 81.6528 134.966 81.6528Z" fill="white"/>
<path d="M131.022 90.5425H124.284C124.045 90.5425 123.853 90.7356 123.853 90.9736V91.2105C123.853 91.4487 124.045 91.6416 124.284 91.6416H131.022C131.26 91.6416 131.453 91.4487 131.453 91.2105V90.9736C131.453 90.7356 131.26 90.5425 131.022 90.5425Z" fill="#D83333"/>
<path opacity="0.3" d="M131.022 90.5425H124.284C124.045 90.5425 123.853 90.7356 123.853 90.9736V91.2105C123.853 91.4487 124.045 91.6416 124.284 91.6416H131.022C131.26 91.6416 131.453 91.4487 131.453 91.2105V90.9736C131.453 90.7356 131.26 90.5425 131.022 90.5425Z" fill="white"/>
<path d="M134.966 99.4316H124.284C124.045 99.4316 123.853 99.6246 123.853 99.8628V100.1C123.853 100.338 124.045 100.531 124.284 100.531H134.966C135.204 100.531 135.397 100.338 135.397 100.1V99.8628C135.397 99.6246 135.204 99.4316 134.966 99.4316Z" fill="#D83333"/>
<path opacity="0.3" d="M134.966 99.4316H124.284C124.045 99.4316 123.853 99.6246 123.853 99.8628V100.1C123.853 100.338 124.045 100.531 124.284 100.531H134.966C135.204 100.531 135.397 100.338 135.397 100.1V99.8628C135.397 99.6246 135.204 99.4316 134.966 99.4316Z" fill="white"/>
<path d="M129.665 48.8535H122.65C122.412 48.8535 122.219 49.0467 122.219 49.2846V49.6325C122.219 49.8707 122.412 50.0636 122.65 50.0636H129.665C129.903 50.0636 130.096 49.8707 130.096 49.6325V49.2846C130.096 49.0467 129.903 48.8535 129.665 48.8535Z" fill="#D83333"/>
<path opacity="0.3" d="M129.665 48.8535H122.65C122.412 48.8535 122.219 49.0467 122.219 49.2846V49.6325C122.219 49.8707 122.412 50.0636 122.65 50.0636H129.665C129.903 50.0636 130.096 49.8707 130.096 49.6325V49.2846C130.096 49.0467 129.903 48.8535 129.665 48.8535Z" fill="white"/>
<path d="M130.582 75.5H124.284C124.045 75.5 123.853 75.6929 123.853 75.9311V76.168C123.853 76.4062 124.045 76.5992 124.284 76.5992H130.582C130.82 76.5992 131.013 76.4062 131.013 76.168V75.9311C131.013 75.6929 130.82 75.5 130.582 75.5Z" fill="#D83333"/>
<path opacity="0.3" d="M130.582 75.5H124.284C124.045 75.5 123.853 75.6929 123.853 75.9311V76.168C123.853 76.4062 124.045 76.5992 124.284 76.5992H130.582C130.82 76.5992 131.013 76.4062 131.013 76.168V75.9311C131.013 75.6929 130.82 75.5 130.582 75.5Z" fill="white"/>
<path d="M130.582 84.3911H124.284C124.045 84.3911 123.853 84.5843 123.853 84.8222V85.0591C123.853 85.2973 124.045 85.4903 124.284 85.4903H130.582C130.82 85.4903 131.013 85.2973 131.013 85.0591V84.8222C131.013 84.5843 130.82 84.3911 130.582 84.3911Z" fill="#D83333"/>
<path opacity="0.3" d="M130.582 84.3911H124.284C124.045 84.3911 123.853 84.5843 123.853 84.8222V85.0591C123.853 85.2973 124.045 85.4903 124.284 85.4903H130.582C130.82 85.4903 131.013 85.2973 131.013 85.0591V84.8222C131.013 84.5843 130.82 84.3911 130.582 84.3911Z" fill="white"/>
<path d="M130.582 93.2808H124.284C124.045 93.2808 123.853 93.4737 123.853 93.7119V93.9488C123.853 94.1868 124.045 94.3799 124.284 94.3799H130.582C130.82 94.3799 131.013 94.1868 131.013 93.9488V93.7119C131.013 93.4737 130.82 93.2808 130.582 93.2808Z" fill="#D83333"/>
<path opacity="0.3" d="M130.582 93.2808H124.284C124.045 93.2808 123.853 93.4737 123.853 93.7119V93.9488C123.853 94.1868 124.045 94.3799 124.284 94.3799H130.582C130.82 94.3799 131.013 94.1868 131.013 93.9488V93.7119C131.013 93.4737 130.82 93.2808 130.582 93.2808Z" fill="white"/>
<path d="M130.582 102.17H124.284C124.045 102.17 123.853 102.363 123.853 102.601V102.838C123.853 103.076 124.045 103.269 124.284 103.269H130.582C130.82 103.269 131.013 103.076 131.013 102.838V102.601C131.013 102.363 130.82 102.17 130.582 102.17Z" fill="#D83333"/>
<path opacity="0.3" d="M130.582 102.17H124.284C124.045 102.17 123.853 102.363 123.853 102.601V102.838C123.853 103.076 124.045 103.269 124.284 103.269H130.582C130.82 103.269 131.013 103.076 131.013 102.838V102.601C131.013 102.363 130.82 102.17 130.582 102.17Z" fill="white"/>
<path d="M116.915 50.4479C118.275 50.4479 119.378 49.3451 119.378 47.9849C119.378 46.6248 118.275 45.522 116.915 45.522C115.555 45.522 114.452 46.6248 114.452 47.9849C114.452 49.3451 115.555 50.4479 116.915 50.4479Z" fill="white"/>
<path d="M118.763 59.0832C120 59.0832 121.002 58.0807 121.002 56.8443C121.002 55.6077 120 54.6055 118.763 54.6055C117.527 54.6055 116.524 55.6077 116.524 56.8443C116.524 58.0807 117.527 59.0832 118.763 59.0832Z" fill="white"/>
<path d="M118.763 67.9914C120 67.9914 121.002 66.9889 121.002 65.7525C121.002 64.5159 120 63.5137 118.763 63.5137C117.527 63.5137 116.524 64.5159 116.524 65.7525C116.524 66.9889 117.527 67.9914 118.763 67.9914Z" fill="white"/>
<path d="M118.763 76.9001C120 76.9001 121.002 75.8978 121.002 74.6612C121.002 73.4248 120 72.4224 118.763 72.4224C117.527 72.4224 116.524 73.4248 116.524 74.6612C116.524 75.8978 117.527 76.9001 118.763 76.9001Z" fill="white"/>
<path d="M118.763 85.8063C120 85.8063 121.002 84.8039 121.002 83.5675C121.002 82.3309 120 81.3286 118.763 81.3286C117.527 81.3286 116.524 82.3309 116.524 83.5675C116.524 84.8039 117.527 85.8063 118.763 85.8063Z" fill="white"/>
<path d="M118.763 94.7145C120 94.7145 121.002 93.7121 121.002 92.4757C121.002 91.2391 120 90.2368 118.763 90.2368C117.527 90.2368 116.524 91.2391 116.524 92.4757C116.524 93.7121 117.527 94.7145 118.763 94.7145Z" fill="white"/>
<path d="M118.763 103.621C120 103.621 121.002 102.619 121.002 101.382C121.002 100.146 120 99.1436 118.763 99.1436C117.527 99.1436 116.524 100.146 116.524 101.382C116.524 102.619 117.527 103.621 118.763 103.621Z" fill="white"/>
<path d="M134.721 38.3936H116.75C116.512 38.3936 116.319 38.5865 116.319 38.8247V39.9089C116.319 40.1469 116.512 40.34 116.75 40.34H134.721C134.959 40.34 135.152 40.1469 135.152 39.9089V38.8247C135.152 38.5865 134.959 38.3936 134.721 38.3936Z" fill="#61656D"/>
<path d="M12.7012 57.8177H38.6304V24.7983H12.7012V57.8177Z" fill="white"/>
<path d="M16.1592 54.4966H35.1734V28.1191H16.1592V54.4966Z" fill="#C3C4C5"/>
<path d="M39.3833 24.8003H38.6299V57.8196H39.3833V24.8003Z" fill="#5C687E"/>
<path d="M22.5156 44.9307C24.7905 44.9307 26.6348 43.0864 26.6348 40.8115C26.6348 38.5366 24.7905 36.6924 22.5156 36.6924C20.2407 36.6924 18.3965 38.5366 18.3965 40.8115C18.3965 43.0864 20.2407 44.9307 22.5156 44.9307Z" fill="#D83333"/>
<path d="M32.8083 51.6427L28.5184 44.9307L24.2285 51.5704L32.8083 51.6427Z" fill="#F4F7FE"/>
<path opacity="0.4" d="M23.459 39.8982H32.3674V30.9897H23.459V39.8982Z" fill="#F4F7FE"/>
<path d="M84.8213 29.3461C84.7231 29.361 84.689 29.4656 84.7018 29.5595C84.7146 29.6534 84.8213 29.6918 84.9152 29.679L85.6942 29.5168C85.7864 29.4938 85.8731 29.453 85.9495 29.3965C86.0259 29.3399 86.0906 29.2688 86.1394 29.1875C86.1883 29.106 86.2208 29.0157 86.2348 28.9218C86.2489 28.8277 86.2442 28.7318 86.2214 28.6396C86.1896 28.5218 86.1296 28.4134 86.0468 28.3238C85.9638 28.2341 85.8605 28.1661 85.7455 28.1253C85.599 28.0706 85.4721 27.974 85.3803 27.8476C85.2883 27.7213 85.2358 27.5706 85.229 27.4146C85.226 27.3196 85.2181 27.2248 85.2055 27.1307C84.7893 25.5129 84.8213 29.3461 84.8213 29.3461Z" fill="#D7B1AE"/>
<g opacity="0.15">
<path opacity="0.15" d="M86.2257 28.653C86.1734 28.4647 86.0513 28.3036 85.8842 28.2026C85.8842 28.224 85.8991 28.2453 85.9055 28.2688C85.9284 28.3606 85.9331 28.4562 85.9192 28.5499C85.9053 28.6438 85.8729 28.7339 85.8242 28.815C85.7755 28.8963 85.7111 28.9671 85.6351 29.0235C85.5589 29.08 85.4723 29.1208 85.3805 29.1439L84.8213 29.2612V29.3551C84.7231 29.3701 84.689 29.4747 84.7018 29.5686C84.7146 29.6625 84.8213 29.7009 84.9152 29.6881L85.6942 29.5259C85.8803 29.4802 86.0406 29.3628 86.1403 29.1991C86.24 29.0356 86.2707 28.8391 86.2257 28.653Z" fill="#23213D"/>
</g>
<path d="M67.6885 157.258H73.1074L74.1084 148.091L67.7674 148.11L67.6885 157.258Z" fill="#D7B1AE"/>
<path d="M68.2469 153.781L68.4112 153.638C69.6384 152.571 71.7535 152.586 72.9465 153.687L73.0383 153.779C73.1817 153.905 73.2974 154.058 73.3783 154.231C73.4592 154.404 73.5032 154.592 73.5079 154.782V155.379C73.5057 155.727 73.5663 156.071 73.6871 156.398L74.2463 158.013C74.3885 158.399 74.4608 158.809 74.4597 159.221V159.435C74.4597 159.75 74.1353 160 73.7554 160H67.2736C66.8745 160 66.5693 159.746 66.5693 159.435V159.358C66.5698 158.88 66.662 158.404 66.8404 157.96L67.4807 156.378C67.6316 156.02 67.7112 155.638 67.7154 155.249L67.7346 154.795C67.7492 154.6 67.8019 154.411 67.8898 154.238C67.9777 154.063 68.099 153.907 68.2469 153.781Z" fill="#25282F"/>
<path opacity="0.2" d="M67.7227 150.985V151.73H71.9763C72.1178 151.73 72.2576 151.759 72.3867 151.817C72.5158 151.875 72.6315 151.96 72.7258 152.065C72.8201 152.169 72.8914 152.293 72.9348 152.427C72.9781 152.562 72.9926 152.705 72.9772 152.846L72.6208 156.103H73.2846L73.8437 150.98L67.7227 150.985Z" fill="#23213D"/>
<path d="M87.6533 150.434L88.029 156.003L99.0674 156.517L95.3922 152.814C94.6943 152.31 94.2632 151.207 94.1223 150.368L87.6533 150.434Z" fill="#D7B1AE"/>
<path opacity="0.2" d="M91.7435 151.8C92.2534 151.8 92.7541 151.939 93.1907 152.201C93.6276 152.464 93.984 152.842 94.2214 153.294C94.4034 153.659 94.6662 153.977 94.9895 154.227L97.6445 156.88L99.2858 156.954L95.7514 153.2C94.9703 152.577 94.4226 151.706 94.1979 150.733H87.6689L87.7479 151.828L91.7435 151.8Z" fill="#23213D"/>
<path d="M87.8051 153.649C87.8051 153.649 90.3065 155.209 93.1152 153.862C93.0588 153.572 93.0812 153.271 93.1805 152.993C93.2795 152.714 93.4515 152.468 93.6786 152.278C94.146 151.913 95.0936 151.792 95.3476 152.131C95.6016 152.47 96.005 153.027 96.6751 153.839C97.6078 154.963 98.8692 156.259 99.8445 156.464C101.633 156.837 105.244 155.012 105.494 158.833C105.494 158.833 101.966 160.16 98.6813 159.827C96.5409 159.58 94.4374 159.078 92.4151 158.333V159.868H87.3035C87.3035 159.868 86.1446 155.561 87.8051 153.649Z" fill="#25282F"/>
<path d="M86.9297 157.43C86.9792 158.256 87.1049 159.074 87.3053 159.876H92.4169V158.342C94.4389 159.086 96.5425 159.588 98.6831 159.836C101.968 160.168 105.494 158.843 105.494 158.843C105.477 158.549 105.431 158.254 105.357 157.968C102.789 159.272 99.8196 159.541 97.0589 158.724C95.1829 158.177 93.6719 157.802 92.3465 157.422C92.3465 157.417 87.952 157.323 86.9297 157.43Z" fill="#23213D"/>
<path d="M99.3882 156.632C99.3882 156.632 96.7844 157.402 94.8358 155.911C93.393 154.807 92.6589 154.163 93.2415 152.842C93.3497 152.583 93.5294 152.363 93.7595 152.206C93.9894 152.045 94.26 151.958 94.5392 151.947C94.5392 151.947 96.3554 156.201 99.3882 156.632Z" fill="#23213D"/>
<path d="M94.3946 78.0952V150.748H87.6695L81.8131 91.5134C81.7986 91.3264 81.7136 91.1518 81.5753 91.0251C81.437 90.8983 81.2558 90.8287 81.0682 90.8304C80.8834 90.8321 80.7058 90.9032 80.5709 91.0298C80.4363 91.1563 80.3539 91.329 80.3404 91.5134L73.8245 150.946H67.6885L69.7139 78.5114L94.3946 78.0995V78.0952Z" fill="#D83333"/>
<path d="M94.6157 150.737H87.4467L87.3037 149.265H94.5987L94.6157 150.737Z" fill="#D83333"/>
<path opacity="0.2" d="M94.6157 150.748L87.4467 150.737L87.3037 149.265H94.5987L94.6157 150.748Z" fill="white"/>
<path opacity="0.2" d="M94.6152 150.748H91.5205V149.256L94.5981 149.264L94.6152 150.748Z" fill="#23213D"/>
<path opacity="0.2" d="M70.7832 150.874L76.7357 93.9124C76.8401 93.0568 77.2543 92.2691 77.8999 91.6981C78.5458 91.127 79.3783 90.8124 80.2402 90.8135H81.0747C80.8913 90.8139 80.7146 90.8833 80.5797 91.0077C80.4451 91.1323 80.3618 91.3029 80.3469 91.4858L73.8245 150.947L70.7832 150.874Z" fill="#23213D"/>
<path opacity="0.2" d="M94.4027 78.6162V149.26H91.53L90.7168 78.6162H94.4027Z" fill="#23213D"/>
<path d="M84.8458 22.7363L85.6482 32.2296C85.6948 32.7947 85.5445 33.3584 85.2229 33.8252C84.901 34.2919 84.4279 34.6332 83.8832 34.7907L83.3752 34.9358L83.8021 38.6559L80.1994 38.1693L76.0547 38.4958L76.5114 28.6525L81.1129 24.2453L84.8458 22.7363Z" fill="#D7B1AE"/>
<path d="M127.085 53.3441C127.085 53.3441 127.633 54.1573 126.063 55.1049C124.492 56.0525 120.102 56.1592 120.102 56.1592L122.663 51.4126L127.085 53.3441Z" fill="#D7B1AE"/>
<path d="M118.568 51.398L119.784 50.0555C120.319 49.465 120.958 48.9773 121.669 48.617L123.747 47.5627C123.823 47.5104 123.915 47.4897 124.005 47.5048C124.095 47.52 124.176 47.5699 124.23 47.6438C124.379 47.8478 124.453 48.0969 124.441 48.3494C124.428 48.6019 124.33 48.8424 124.161 49.0311L122.71 50.0982C122.675 50.1238 122.65 50.1622 122.642 50.2056C122.633 50.2489 122.642 50.2935 122.665 50.3308C122.687 50.366 122.72 50.3925 122.759 50.4053C122.798 50.4183 122.841 50.4168 122.879 50.4013L129.531 47.8401C129.597 47.8152 129.666 47.8036 129.736 47.8064C129.806 47.8092 129.875 47.826 129.938 47.8559C130.001 47.8858 130.058 47.9281 130.104 47.9804C130.15 48.0326 130.186 48.0939 130.208 48.1603C130.251 48.2802 130.248 48.4119 130.2 48.5299C130.152 48.6482 130.062 48.7444 129.948 48.8006L126.998 50.2561C126.998 50.2561 128.221 50.6168 127.305 51.7501C127.305 51.7501 128.012 52.9048 126.452 53.8524C124.891 54.8 120.106 56.1787 120.106 56.1787L115.454 59.3481L112.916 54.61L118.568 51.398Z" fill="#D7B1AE"/>
<path opacity="0.3" d="M127.311 51.7305L125.134 52.565" stroke="#23213D" stroke-width="1.03569" stroke-linecap="round" stroke-linejoin="round"/>
<path opacity="0.3" d="M127.057 53.3164L124.882 54.1509" stroke="#23213D" stroke-width="1.03569" stroke-linecap="round" stroke-linejoin="round"/>
<path opacity="0.3" d="M127.042 50.2812L124.865 51.1157" stroke="#23213D" stroke-width="1.03569" stroke-linecap="round" stroke-linejoin="round"/>
<path opacity="0.2" d="M126.062 55.105C124.491 56.0526 120.101 56.1593 120.101 56.1593L117.375 58.0247L117.062 57.1389L119.749 55.2971C119.915 55.1835 120.113 55.1259 120.314 55.1327L122.096 55.1946C123.703 55.2757 125.648 55.0922 127.005 54.2363C127.018 54.2363 126.928 54.5266 126.062 55.105Z" fill="#23213D"/>
<path d="M75.197 33.2586C76.5032 34.2383 76.7913 34.3258 78.0164 34.0078C78.437 33.9004 78.8319 33.7096 79.1774 33.4464C80.379 32.5095 81.5849 30.5481 81.666 28.3775L82.4386 27.9678C82.652 27.6434 82.6349 25.11 82.2444 24.0386C83.0981 23.3834 84.0649 23.0525 84.6155 23.1059C84.7756 23.3684 84.7607 23.616 84.972 24.2008C86.1949 21.7762 83.3435 20.4999 82.7502 20.1755C81.5678 19.5353 79.0365 19.4413 77.6002 19.6996C74.3305 20.2929 72.4609 22.2906 72.5292 25.842C72.5868 28.8663 73.4853 31.6195 75.197 33.2586Z" fill="#23213D"/>
<path d="M81.6641 28.3771C82.1848 30.6608 82.6586 34.2037 83.3715 35.0681C83.9712 35.4949 85.3158 34.9357 85.5314 33.5357C85.7448 32.1697 85.8536 30.8913 85.4545 29.9074C85.4183 30.6544 84.1249 31.5081 83.6511 30.6949L82.4388 27.9609L81.6641 28.3771Z" fill="#23213D"/>
<path opacity="0.15" d="M79.8916 29.1948L80.3846 29.643C80.7351 29.7465 81.0913 29.8285 81.4518 29.8885L80.2011 30.4989L79.8916 29.1948Z" fill="#23213D"/>
<path d="M81.7338 28.6933C81.9472 29.4126 82.1755 29.9397 81.2173 29.944C79.3967 29.944 79.0318 27.5472 80.0455 26.9944C80.1518 26.9236 80.2726 26.8768 80.399 26.858C80.5255 26.8393 80.6545 26.8487 80.777 26.8856C80.8993 26.9225 81.0122 26.9861 81.1071 27.0717C81.2019 27.1573 81.2768 27.2629 81.3261 27.3807L81.7338 28.6933Z" fill="#D7B1AE"/>
<path opacity="0.3" d="M81.2061 28.4114C81.1795 28.178 81.0975 27.9541 80.9671 27.7584C80.8613 27.6173 80.711 27.5157 80.5403 27.4702C80.4502 27.4617 80.3593 27.4717 80.2733 27.5001C80.1872 27.5283 80.1081 27.5742 80.0408 27.6348C80.0195 27.6615 80.0063 27.6937 80.0028 27.7278C79.9994 27.762 80.0058 27.7964 80.0216 27.8269C80.0579 27.8888 80.1219 27.8845 80.1838 27.8482C80.2274 27.8025 80.2809 27.768 80.3401 27.7468C80.3994 27.7257 80.4628 27.7187 80.5253 27.7263C80.6214 27.7263 80.6918 27.8117 80.7964 27.9398C80.9076 28.096 80.9761 28.2785 80.9949 28.4693L81.0418 28.6827C81.0418 28.7467 81.1122 28.7723 81.1763 28.7681C81.2403 28.7638 81.268 28.6974 81.2616 28.6334L81.2147 28.42" fill="#23213D"/>
<path d="M86.0118 28.3093C85.9685 28.3093 85.9265 28.2944 85.8928 28.2673C85.8588 28.2402 85.8353 28.2022 85.8262 28.1599L85.1987 25.3854C85.1934 25.3608 85.1929 25.3354 85.1974 25.3107C85.2021 25.2861 85.2115 25.2625 85.2251 25.2415C85.2388 25.2204 85.2565 25.2023 85.2772 25.1882C85.2979 25.1741 85.3214 25.1641 85.346 25.1592C85.3705 25.1534 85.3959 25.1528 85.4207 25.1572C85.4454 25.1617 85.4691 25.1711 85.4902 25.1848C85.5114 25.1984 85.5295 25.2164 85.5436 25.2373C85.5577 25.2582 85.5673 25.2817 85.5722 25.3064L86.1997 28.081C86.2097 28.1301 86.1999 28.1813 86.1723 28.2233C86.1448 28.2654 86.1015 28.2946 86.0524 28.3051C86.0392 28.3085 86.0255 28.3098 86.0118 28.3093Z" fill="#21252B"/>
<path d="M85.6217 26.3867L81.334 27.339L81.4168 27.7119L85.7046 26.7598L85.6217 26.3867Z" fill="#21252B"/>
<path opacity="0.15" d="M74.3165 150.942H70.6797L70.8995 149.47H74.4595L74.3165 150.942Z" fill="#23213D"/>
<path d="M74.316 150.942H67.1641L67.2708 149.47H74.459L74.316 150.942Z" fill="#D83333"/>
<path opacity="0.2" d="M74.2877 150.942H67.1357L67.2403 149.47H74.4285L74.2877 150.942Z" fill="white"/>
<path opacity="0.2" d="M74.2855 150.942H70.7832L70.9326 149.47H74.4307L74.2855 150.942Z" fill="#23213D"/>
<path d="M84.657 39.7295H76.9736" stroke="#21252B" stroke-width="1.33952" stroke-miterlimit="10"/>
<path opacity="0.15" d="M83.3771 34.9444L81.7956 34.9124C81.6865 34.9092 81.5785 34.9331 81.4808 34.9815C81.383 35.03 81.2989 35.1019 81.2355 35.1907C81.1722 35.2797 81.1318 35.3826 81.1177 35.4908C81.1039 35.599 81.1167 35.7089 81.1553 35.8109L81.7315 37.3327H83.6524L83.3771 34.9444Z" fill="#23213D"/>
<path d="M74.3965 37.8622L75.0645 36.3682C75.2148 36.0339 75.453 35.7469 75.7537 35.5375C76.0544 35.3281 76.4063 35.2043 76.7719 35.1794C79.4761 35.0001 81.8344 35.4205 83.8727 36.9124C84.0163 37.0193 84.1298 37.1617 84.202 37.3254C84.2741 37.4893 84.3027 37.669 84.2846 37.8472L84.1352 39.4351L74.3965 37.8622Z" fill="#F2F8FC"/>
<path d="M69.5439 41.4861L72.0218 38.8118C72.9993 37.7447 74.5317 37.1236 76.173 37.1044L81.1309 37.0276C83.0752 36.9977 84.8702 37.8813 85.7345 39.2728L87.1047 41.4925L69.5439 41.4861Z" fill="#2B3048"/>
<path d="M66.7061 85.5458L68.2193 88.5145L70.3749 82.0264L66.7061 85.5458Z" fill="#D7B1AE"/>
<path d="M71.8388 82.6029L66.2662 70.0833L58.8112 65.5757L58.1517 68.4036C58.0388 68.893 58.0836 69.4054 58.2798 69.8677L66.1958 84.5174L71.8388 82.6029Z" fill="#2B3048"/>
<path d="M62.535 44.4273L58.4287 67.2512L66.266 70.0834L70.0885 39.606L64.4796 41.9899C63.9785 42.2027 63.5382 42.537 63.1988 42.9625C62.8592 43.3881 62.6313 43.8916 62.535 44.4273Z" fill="#2B3048"/>
<path opacity="0.15" d="M66.2658 70.0834L70.0883 39.606L69.1876 39.988L64.9639 70.0834L70.0883 81.7322L71.4115 81.5188L66.2658 70.0834Z" fill="#23213D"/>
<path d="M65.999 84.1628L66.7055 85.5458L71.7466 80.7095L71.038 79.1558L65.999 84.1628Z" fill="#F4F4F4"/>
<path d="M72.5714 38.3808C72.5714 38.3808 67.6626 40.8992 64.4292 42.0645C63.9293 42.2464 63.5038 42.5889 63.2197 43.0386C62.9354 43.4881 62.8082 44.0193 62.8584 44.5488C63.3279 49.6433 66.5592 58.2509 66.5592 58.2509C66.5592 58.2509 68.7319 67.7654 68.7319 69.2936C68.7319 70.8217 68.209 88.8883 68.209 88.8883H93.0946L96.7229 87.4904C96.7229 87.4904 94.5203 70.8217 94.0721 66.1477C93.6239 61.4736 94.2855 55.916 94.2855 55.916L93.8992 47.4109L95.4956 42.739L84.6578 38.1055L72.5714 38.3808Z" fill="#2B3048"/>
<path d="M105.445 58.1206L107.746 66.0174L106.005 67.1955C105.269 67.6918 104.372 67.8892 103.496 67.7472C102.62 67.6053 101.831 67.1347 101.29 66.4315L92.4051 54.8787L90.1982 40.6046C90.1982 40.5918 90.1982 40.5812 90.2175 40.5854C90.354 40.6452 92.1788 41.1894 93.7198 41.6526C95.1109 42.0658 96.298 42.9826 97.0493 44.2244C99.5848 48.4225 105.381 58.0203 105.445 58.1206Z" fill="#2B3048"/>
<path opacity="0.15" d="M94.4033 69.4831C93.8612 65.6414 93.8719 60.9866 93.9423 60.8905L94.2902 55.9817C94.4161 54.4877 92.015 54.381 92.0961 55.7277C92.0961 55.7277 91.7034 65.618 92.1538 69.5834C92.6041 73.5489 94.8814 88.1986 94.8814 88.1986L96.7254 87.49C96.7254 87.49 94.9667 73.4358 94.4033 69.4831Z" fill="#23213D"/>
<path d="M115.132 52.9385L103.876 58.8632L107.393 66.2713L118.272 58.0053L115.132 52.9385Z" fill="#2B3048"/>
<path d="M115.14 52.9214L113.74 53.6705L117.05 58.9037L118.395 58.0479L115.14 52.9214Z" fill="#F4F4F4"/>
<path opacity="0.15" d="M69.4221 88.8624C69.5928 87.6693 69.9983 70.6015 69.9983 69.1545C69.9983 67.6605 66.8204 58.0371 66.8204 58.0371C66.8204 58.0371 63.8431 49.5405 63.3842 44.5421C63.2861 43.4749 64.7694 42.4697 65.7789 42.1047C68.9525 40.9607 72.489 38.4893 72.489 38.4893C72.489 38.4893 67.672 40.9607 64.4983 42.0983C64.0047 42.2744 63.5842 42.6108 63.3038 43.0536C63.0233 43.4965 62.8991 44.0204 62.951 44.5421C63.4098 49.5405 66.5515 58.2889 66.5515 58.2889C66.5515 58.2889 68.7242 67.7928 68.7242 69.2932C68.7242 70.7936 68.2013 88.888 68.2013 88.888L69.4221 88.8624Z" fill="#23213D"/>
<path opacity="0.15" d="M77.9243 88.8219L78.8569 81.1385C78.8595 81.1248 78.8668 81.1125 78.8776 81.1037C78.8883 81.0948 78.9018 81.0898 78.9156 81.0898C78.9295 81.0898 78.943 81.0948 78.9536 81.1037C78.9645 81.1125 78.9718 81.1248 78.9743 81.1385L80.7266 88.8219C80.7285 88.8304 80.7285 88.8394 80.7263 88.8481C80.7244 88.8567 80.7206 88.8648 80.715 88.8718C80.7095 88.8787 80.7024 88.8844 80.6946 88.8883C80.6864 88.8921 80.6779 88.8942 80.6689 88.8944H77.9819C77.9729 88.8942 77.9642 88.8921 77.9563 88.8883C77.9484 88.8844 77.9413 88.8787 77.9358 88.8718C77.9302 88.8648 77.9264 88.8567 77.9245 88.8481C77.9223 88.8394 77.9223 88.8304 77.9243 88.8219Z" fill="#23213D"/>
<defs>
<linearGradient id="paint0_linear_576_96646" x1="206.565" y1="62.7429" x2="213.162" y2="62.7429" gradientUnits="userSpaceOnUse">
<stop stop-color="#FF3636"/>
<stop offset="1" stop-color="#BB0000"/>
</linearGradient>
<linearGradient id="paint1_linear_576_96646" x1="208.441" y1="59.6591" x2="213.05" y2="59.6591" gradientUnits="userSpaceOnUse">
<stop stop-color="#FF3636"/>
<stop offset="1" stop-color="#BB0000"/>
</linearGradient>
<linearGradient id="paint2_linear_576_96646" x1="212.995" y1="59.9386" x2="215.377" y2="59.9386" gradientUnits="userSpaceOnUse">
<stop stop-color="#FF3636"/>
<stop offset="1" stop-color="#BB0000"/>
</linearGradient>
<linearGradient id="paint3_linear_576_96646" x1="209.851" y1="69.6729" x2="215.323" y2="69.6729" gradientUnits="userSpaceOnUse">
<stop stop-color="#D83333"/>
<stop offset="1" stop-color="#BD0202"/>
</linearGradient>
<linearGradient id="paint4_linear_576_96646" x1="215.202" y1="63.662" x2="217.207" y2="63.662" gradientUnits="userSpaceOnUse">
<stop stop-color="#FF3636"/>
<stop offset="1" stop-color="#BB0000"/>
</linearGradient>
<linearGradient id="paint5_linear_576_96646" x1="212.68" y1="73.1402" x2="218.717" y2="73.1402" gradientUnits="userSpaceOnUse">
<stop stop-color="#FF3636"/>
<stop offset="1" stop-color="#BB0000"/>
</linearGradient>
<linearGradient id="paint6_linear_576_96646" x1="218.1" y1="66.8588" x2="220.447" y2="66.8588" gradientUnits="userSpaceOnUse">
<stop stop-color="#D83333"/>
<stop offset="1" stop-color="#BD0202"/>
</linearGradient>
<linearGradient id="paint7_linear_576_96646" x1="226.045" y1="68.7052" x2="228.342" y2="68.7052" gradientUnits="userSpaceOnUse">
<stop stop-color="#FF3636"/>
<stop offset="1" stop-color="#BB0000"/>
</linearGradient>
<linearGradient id="paint8_linear_576_96646" x1="226.914" y1="71.5538" x2="234.732" y2="71.5538" gradientUnits="userSpaceOnUse">
<stop stop-color="#FF3636"/>
<stop offset="1" stop-color="#BB0000"/>
</linearGradient>
<linearGradient id="paint9_linear_576_96646" x1="227.504" y1="69.0817" x2="234.585" y2="69.0817" gradientUnits="userSpaceOnUse">
<stop stop-color="#D83333"/>
<stop offset="1" stop-color="#BD0202"/>
</linearGradient>
<linearGradient id="paint10_linear_576_96646" x1="225.364" y1="60.1095" x2="227.331" y2="60.1095" gradientUnits="userSpaceOnUse">
<stop stop-color="#FF3636"/>
<stop offset="1" stop-color="#BB0000"/>
</linearGradient>
<linearGradient id="paint11_linear_576_96646" x1="230.999" y1="59.0602" x2="239.175" y2="59.0602" gradientUnits="userSpaceOnUse">
<stop stop-color="#D83333"/>
<stop offset="1" stop-color="#BD0202"/>
</linearGradient>
<linearGradient id="paint12_linear_576_96646" x1="229.992" y1="63.7085" x2="239.285" y2="63.7085" gradientUnits="userSpaceOnUse">
<stop stop-color="#FF3636"/>
<stop offset="1" stop-color="#BB0000"/>
</linearGradient>
<linearGradient id="paint13_linear_576_96646" x1="228.611" y1="65.7384" x2="235.39" y2="65.7384" gradientUnits="userSpaceOnUse">
<stop stop-color="#FF3636"/>
<stop offset="1" stop-color="#BB0000"/>
</linearGradient>
<linearGradient id="paint14_linear_576_96646" x1="227.049" y1="55.0996" x2="234.775" y2="55.0996" gradientUnits="userSpaceOnUse">
<stop stop-color="#FF3636"/>
<stop offset="1" stop-color="#BB0000"/>
</linearGradient>
<linearGradient id="paint15_linear_576_96646" x1="228.895" y1="52.5288" x2="238.042" y2="52.5288" gradientUnits="userSpaceOnUse">
<stop stop-color="#FB3434"/>
<stop offset="1" stop-color="#C60909"/>
</linearGradient>
<linearGradient id="paint16_linear_576_96646" x1="226.937" y1="45.4181" x2="228.167" y2="45.4181" gradientUnits="userSpaceOnUse">
<stop stop-color="#FF3636"/>
<stop offset="1" stop-color="#BB0000"/>
</linearGradient>
<linearGradient id="paint17_linear_576_96646" x1="228.007" y1="45.5055" x2="232.73" y2="45.5055" gradientUnits="userSpaceOnUse">
<stop stop-color="#FF3636"/>
<stop offset="1" stop-color="#BB0000"/>
</linearGradient>
<linearGradient id="paint18_linear_576_96646" x1="231.452" y1="45.2223" x2="240.256" y2="45.2223" gradientUnits="userSpaceOnUse">
<stop stop-color="#D83333"/>
<stop offset="1" stop-color="#BD0202"/>
</linearGradient>
<linearGradient id="paint19_linear_576_96646" x1="228.982" y1="48.8708" x2="238.733" y2="48.8708" gradientUnits="userSpaceOnUse">
<stop stop-color="#FF3636"/>
<stop offset="1" stop-color="#BB0000"/>
</linearGradient>
<linearGradient id="paint20_linear_576_96646" x1="218.944" y1="50.5355" x2="220.361" y2="50.5355" gradientUnits="userSpaceOnUse">
<stop stop-color="#FF3636"/>
<stop offset="1" stop-color="#BB0000"/>
</linearGradient>
<linearGradient id="paint21_linear_576_96646" x1="207.967" y1="53.4115" x2="215.475" y2="53.4115" gradientUnits="userSpaceOnUse">
<stop stop-color="#FF3636"/>
<stop offset="1" stop-color="#BB0000"/>
</linearGradient>
<linearGradient id="paint22_linear_576_96646" x1="205.443" y1="52.1034" x2="212.397" y2="52.1034" gradientUnits="userSpaceOnUse">
<stop stop-color="#FF3636"/>
<stop offset="1" stop-color="#BB0000"/>
</linearGradient>
<linearGradient id="paint23_linear_576_96646" x1="208.874" y1="49.9428" x2="216.925" y2="49.9428" gradientUnits="userSpaceOnUse">
<stop stop-color="#FF3636"/>
<stop offset="1" stop-color="#BB0000"/>
</linearGradient>
<linearGradient id="paint24_linear_576_96646" x1="214.427" y1="46.7012" x2="216.857" y2="46.7012" gradientUnits="userSpaceOnUse">
<stop stop-color="#D83333"/>
<stop offset="1" stop-color="#BD0202"/>
</linearGradient>
<linearGradient id="paint25_linear_576_96646" x1="222.469" y1="41.8348" x2="227.495" y2="41.8348" gradientUnits="userSpaceOnUse">
<stop stop-color="#D83333"/>
<stop offset="1" stop-color="#BD0202"/>
</linearGradient>
<linearGradient id="paint26_linear_576_96646" x1="216.089" y1="44.5637" x2="221.448" y2="44.5637" gradientUnits="userSpaceOnUse">
<stop stop-color="#D83333"/>
<stop offset="1" stop-color="#BD0202"/>
</linearGradient>
<linearGradient id="paint27_linear_576_96646" x1="220.546" y1="41.9158" x2="222.246" y2="41.9158" gradientUnits="userSpaceOnUse">
<stop stop-color="#FF3636"/>
<stop offset="1" stop-color="#BB0000"/>
</linearGradient>
<linearGradient id="paint28_linear_576_96646" x1="222.49" y1="36.2862" x2="228.64" y2="36.2862" gradientUnits="userSpaceOnUse">
<stop stop-color="#FF3636"/>
<stop offset="1" stop-color="#BB0000"/>
</linearGradient>
<linearGradient id="paint29_linear_576_96646" x1="222.479" y1="33.4635" x2="225.732" y2="33.4635" gradientUnits="userSpaceOnUse">
<stop stop-color="#D83333"/>
<stop offset="1" stop-color="#BD0202"/>
</linearGradient>
<linearGradient id="paint30_linear_576_96646" x1="218.475" y1="34.0314" x2="222.471" y2="34.0314" gradientUnits="userSpaceOnUse">
<stop stop-color="#D83333"/>
<stop offset="1" stop-color="#BD0202"/>
</linearGradient>
<linearGradient id="paint31_linear_576_96646" x1="222.408" y1="60.4034" x2="222.563" y2="60.4034" gradientUnits="userSpaceOnUse">
<stop stop-color="#FF3636"/>
<stop offset="1" stop-color="#BB0000"/>
</linearGradient>
<linearGradient id="paint32_linear_576_96646" x1="222.48" y1="54.852" x2="231.559" y2="54.852" gradientUnits="userSpaceOnUse">
<stop stop-color="#FF3636"/>
<stop offset="1" stop-color="#BB0000"/>
</linearGradient>
<linearGradient id="paint33_linear_576_96646" x1="223.188" y1="50.5666" x2="234.521" y2="50.5666" gradientUnits="userSpaceOnUse">
<stop stop-color="#FF3636"/>
<stop offset="1" stop-color="#BB0000"/>
</linearGradient>
<linearGradient id="paint34_linear_576_96646" x1="226.957" y1="50.0841" x2="228.139" y2="50.0841" gradientUnits="userSpaceOnUse">
<stop stop-color="#FF3636"/>
<stop offset="1" stop-color="#BB0000"/>
</linearGradient>
<linearGradient id="paint35_linear_576_96646" x1="216.519" y1="54.3837" x2="222.501" y2="54.3837" gradientUnits="userSpaceOnUse">
<stop stop-color="#FF3636"/>
<stop offset="1" stop-color="#BB0000"/>
</linearGradient>
<linearGradient id="paint36_linear_576_96646" x1="219.486" y1="54.032" x2="220.513" y2="54.032" gradientUnits="userSpaceOnUse">
<stop stop-color="#FF3636"/>
<stop offset="1" stop-color="#BB0000"/>
</linearGradient>
<linearGradient id="paint37_linear_576_96646" x1="213.473" y1="52.0534" x2="217.95" y2="52.0534" gradientUnits="userSpaceOnUse">
<stop stop-color="#FF3636"/>
<stop offset="1" stop-color="#BB0000"/>
</linearGradient>
<linearGradient id="paint38_linear_576_96646" x1="211.038" y1="51.1185" x2="217.343" y2="51.1185" gradientUnits="userSpaceOnUse">
<stop stop-color="#FF3636"/>
<stop offset="1" stop-color="#BB0000"/>
</linearGradient>
<linearGradient id="paint39_linear_576_96646" x1="221.325" y1="46.0179" x2="222.469" y2="46.0179" gradientUnits="userSpaceOnUse">
<stop stop-color="#FF3636"/>
<stop offset="1" stop-color="#BB0000"/>
</linearGradient>
<linearGradient id="paint40_linear_576_96646" x1="220.735" y1="47.0683" x2="222.522" y2="47.0683" gradientUnits="userSpaceOnUse">
<stop stop-color="#FF3636"/>
<stop offset="1" stop-color="#BB0000"/>
</linearGradient>
<linearGradient id="paint41_linear_576_96646" x1="212.994" y1="70.4384" x2="222.496" y2="70.4384" gradientUnits="userSpaceOnUse">
<stop stop-color="#FF3636"/>
<stop offset="1" stop-color="#BB0000"/>
</linearGradient>
<linearGradient id="paint42_linear_576_96646" x1="222.462" y1="73.3869" x2="230.675" y2="73.3869" gradientUnits="userSpaceOnUse">
<stop stop-color="#FF3636"/>
<stop offset="1" stop-color="#BB0000"/>
</linearGradient>
<linearGradient id="paint43_linear_576_96646" x1="225.201" y1="72.836" x2="230.855" y2="72.836" gradientUnits="userSpaceOnUse">
<stop stop-color="#FF3636"/>
<stop offset="1" stop-color="#BB0000"/>
</linearGradient>
<linearGradient id="paint44_linear_576_96646" x1="225.44" y1="72.0514" x2="226.572" y2="72.0514" gradientUnits="userSpaceOnUse">
<stop stop-color="#FF3636"/>
<stop offset="1" stop-color="#BB0000"/>
</linearGradient>
<linearGradient id="paint45_linear_576_96646" x1="222.494" y1="66.2985" x2="233.326" y2="66.2985" gradientUnits="userSpaceOnUse">
<stop stop-color="#FF3636"/>
<stop offset="1" stop-color="#BB0000"/>
</linearGradient>
<linearGradient id="paint46_linear_576_96646" x1="226.863" y1="64.4976" x2="230.737" y2="64.4976" gradientUnits="userSpaceOnUse">
<stop stop-color="#FF3636"/>
<stop offset="1" stop-color="#BB0000"/>
</linearGradient>
<linearGradient id="paint47_linear_576_96646" x1="225.879" y1="64.6851" x2="226.447" y2="64.6851" gradientUnits="userSpaceOnUse">
<stop stop-color="#FF3636"/>
<stop offset="1" stop-color="#BB0000"/>
</linearGradient>
</defs>
</svg>
