<svg width="205" height="160" viewBox="0 0 205 160" fill="none" xmlns="http://www.w3.org/2000/svg">
<path d="M149.493 152.074C149.493 152.074 172.433 150.638 188.204 122.407C203.975 94.1761 201.107 51.1117 181.513 27.1871C161.919 3.26245 131.333 -4.87193 102.18 2.78396C87.9771 6.51142 78.505 16.1818 70.3184 27.8474C63.1881 38.0106 55.1688 47.8006 44.3777 54.2315C33.6917 60.5955 22.7046 65.6771 17.309 77.7734C4.17618 107.229 13.7678 141.489 44.8317 153.031C78.2851 165.472 134.2 158.773 149.493 152.074Z" fill="#FFDC36"/>
<path opacity="0.7" d="M149.493 152.074C149.493 152.074 172.433 150.638 188.204 122.407C203.975 94.1761 201.107 51.1117 181.513 27.1871C161.919 3.26245 131.333 -4.87193 102.18 2.78396C87.9771 6.51142 78.505 16.1818 70.3184 27.8474C63.1881 38.0106 55.1688 47.8006 44.3777 54.2315C33.6917 60.5955 22.7046 65.6771 17.309 77.7734C4.17618 107.229 13.7678 141.489 44.8317 153.031C78.2851 165.472 134.2 158.773 149.493 152.074Z" fill="white"/>
<path d="M204.743 158.739H0.257107C0.188888 158.739 0.123582 158.711 0.0752459 158.663C0.0270811 158.616 0 158.551 0 158.482C0 158.414 0.0270811 158.349 0.0752459 158.301C0.123582 158.253 0.188888 158.226 0.257107 158.226H204.743C204.811 158.226 204.877 158.253 204.925 158.301C204.973 158.349 205 158.414 205 158.482C205 158.551 204.973 158.616 204.925 158.663C204.877 158.711 204.811 158.739 204.743 158.739Z" fill="#B2B6BB"/>
<path d="M186.812 33.8145H57.4755C56.5334 33.8145 55.7698 34.5802 55.7698 35.5249V131.578C55.7698 132.522 56.5334 133.288 57.4755 133.288H186.812C187.754 133.288 188.518 132.522 188.518 131.578V35.5249C188.518 34.5802 187.754 33.8145 186.812 33.8145Z" fill="white"/>
<path d="M186.991 133.471H57.2941C56.8417 133.471 56.4078 133.291 56.088 132.97C55.7682 132.65 55.5884 132.215 55.5884 131.761V35.3764C55.5884 34.9228 55.7682 34.4877 56.088 34.167C56.4078 33.8463 56.8417 33.666 57.2941 33.666H186.991C187.443 33.666 187.878 33.8463 188.197 34.167C188.518 34.4877 188.697 34.9228 188.697 35.3764V131.761C188.697 132.215 188.518 132.65 188.197 132.97C187.878 133.291 187.443 133.471 186.991 133.471ZM57.6506 133.109H186.626C187.078 133.109 187.513 132.929 187.832 132.608C188.153 132.287 188.332 131.852 188.332 131.398V35.7373C188.332 35.2837 188.153 34.8486 187.832 34.5279C187.513 34.2072 187.078 34.0269 186.626 34.0269H57.6506C57.1982 34.0269 56.7643 34.2072 56.4445 34.5279C56.1246 34.8486 55.9449 35.2837 55.9449 35.7373V131.398C55.9449 131.852 56.1246 132.287 56.4445 132.608C56.7643 132.929 57.1982 133.109 57.6506 133.109Z" fill="#2B3048"/>
<path d="M57.2941 33.666H186.972C187.424 33.666 187.859 33.8463 188.178 34.167C188.499 34.4877 188.678 34.9228 188.678 35.3764V41.9256H55.5884V35.3764C55.5884 34.9228 55.7682 34.4877 56.088 34.167C56.4078 33.8463 56.8417 33.666 57.2941 33.666Z" fill="#2B3048"/>
<path d="M177.4 28.5527H48.0629C47.1208 28.5527 46.3572 29.3185 46.3572 30.2631V126.316C46.3572 127.261 47.1208 128.026 48.0629 128.026H177.4C178.341 128.026 179.106 127.261 179.106 126.316V30.2631C179.106 29.3185 178.341 28.5527 177.4 28.5527Z" fill="white"/>
<path d="M177.578 128.207H47.8815C47.4291 128.207 46.9954 128.027 46.6754 127.706C46.3556 127.386 46.1758 126.95 46.1758 126.497V30.1088C46.1758 29.6552 46.3556 29.2201 46.6754 28.8994C46.9954 28.5787 47.4291 28.3984 47.8815 28.3984H177.578C178.03 28.3984 178.465 28.5787 178.784 28.8994C179.105 29.2201 179.284 29.6552 179.284 30.1088V126.497C179.284 126.95 179.105 127.386 178.784 127.706C178.465 128.027 178.03 128.207 177.578 128.207ZM48.2431 127.846H177.217C177.669 127.846 178.104 127.666 178.423 127.345C178.743 127.025 178.923 126.59 178.923 126.136V30.4749C178.923 30.0213 178.743 29.5861 178.423 29.2654C178.104 28.9447 177.669 28.7645 177.217 28.7645H48.2431C47.7907 28.7645 47.357 28.9447 47.037 29.2654C46.7172 29.5861 46.5374 30.0213 46.5374 30.4749V126.136C46.5374 126.59 46.7172 127.025 47.037 127.345C47.357 127.666 47.7907 127.846 48.2431 127.846Z" fill="#2B3048"/>
<path d="M47.8815 28.4004H177.558C178.01 28.4004 178.445 28.5807 178.764 28.9014C179.085 29.2221 179.264 29.6572 179.264 30.1108V36.6599H46.1758V30.1108C46.1758 29.6572 46.3556 29.2221 46.6754 28.9014C46.9954 28.5807 47.4291 28.4004 47.8815 28.4004Z" fill="#2B3048"/>
<path d="M167.085 23.4727H37.7477C36.8056 23.4727 36.042 24.2384 36.042 25.1831V121.236C36.042 122.18 36.8056 122.946 37.7477 122.946H167.085C168.026 122.946 168.79 122.18 168.79 121.236V25.1831C168.79 24.2384 168.026 23.4727 167.085 23.4727Z" fill="white"/>
<path d="M167.084 123.117H37.7466C37.2489 123.117 36.7718 122.919 36.4199 122.566C36.068 122.213 35.8704 121.735 35.8704 121.236V25.1832C35.8704 24.6843 36.068 24.2057 36.4199 23.8528C36.7718 23.5 37.2489 23.3018 37.7466 23.3018H167.084C167.582 23.3018 168.059 23.5 168.411 23.8528C168.762 24.2057 168.96 24.6843 168.96 25.1832V121.236C168.96 121.735 168.762 122.213 168.411 122.566C168.059 122.919 167.582 123.117 167.084 123.117ZM37.7466 23.6438C37.3395 23.6438 36.949 23.806 36.6611 24.0947C36.3732 24.3834 36.2115 24.7749 36.2115 25.1832V121.236C36.2115 121.644 36.3732 122.036 36.6611 122.324C36.949 122.613 37.3395 122.775 37.7466 122.775H167.084C167.491 122.775 167.882 122.613 168.168 122.324C168.457 122.036 168.619 121.644 168.619 121.236V25.1832C168.619 24.7749 168.457 24.3834 168.168 24.0947C167.882 23.806 167.491 23.6438 167.084 23.6438H37.7466Z" fill="#2B3048"/>
<path d="M160.704 44.4277H44.1287V105.286H160.704V44.4277Z" fill="#2B3048"/>
<path opacity="0.1" d="M88.3025 44.4277H78.8701L58.1189 105.286H67.5513L88.3025 44.4277Z" fill="white"/>
<path opacity="0.1" d="M95.222 44.4277H90.1914L69.4402 105.286H73.842L95.222 44.4277Z" fill="white"/>
<path d="M153.508 37.041H52.1338V39.6101H153.508V37.041Z" fill="#FFDC36"/>
<path opacity="0.4" d="M153.508 37.041H52.1338V39.6101H153.508V37.041Z" fill="white"/>
<path d="M157.434 98.749H47.4021V98.9201H157.434V98.749Z" fill="white"/>
<path d="M48.2805 118.664C50.5884 118.664 52.4594 116.788 52.4594 114.474C52.4594 112.159 50.5884 110.283 48.2805 110.283C45.9725 110.283 44.1016 112.159 44.1016 114.474C44.1016 116.788 45.9725 118.664 48.2805 118.664Z" fill="#FFDC36"/>
<path d="M50.4309 116.405C50.4309 115.037 49.4672 113.913 48.28 113.913C47.0929 113.913 46.1292 115.028 46.1292 116.405C46.7705 116.82 47.5172 117.04 48.28 117.04C49.043 117.04 49.7897 116.82 50.4309 116.405Z" fill="white"/>
<path d="M48.278 114.251C48.9233 114.251 49.4464 113.727 49.4464 113.08C49.4464 112.433 48.9233 111.908 48.278 111.908C47.6328 111.908 47.1096 112.433 47.1096 113.08C47.1096 113.727 47.6328 114.251 48.278 114.251Z" fill="white"/>
<path d="M99.2683 111.705H54.2842V112.334H99.2683V111.705Z" fill="#2B3048"/>
<path d="M83.0878 114.525H54.2412V115.155H83.0878V114.525Z" fill="#2B3048"/>
<path d="M155.045 100.979H154.859V101.906H155.045V100.979Z" fill="white"/>
<path d="M155.769 100.979H154.867V101.165H155.769V100.979Z" fill="white"/>
<path d="M157.316 100.983H156.392V101.17H157.316V100.983Z" fill="white"/>
<path d="M157.317 100.991H157.131V101.896H157.317V100.991Z" fill="white"/>
<path d="M157.317 102.434H157.131V103.361H157.317V102.434Z" fill="white"/>
<path d="M157.307 103.175H156.406V103.361H157.307V103.175Z" fill="white"/>
<path d="M155.783 103.166H154.859V103.352H155.783V103.166Z" fill="white"/>
<path d="M155.046 102.439H154.859V103.344H155.046V102.439Z" fill="white"/>
<path d="M145.893 101.873H51.1374C50.9943 101.873 50.8782 101.99 50.8782 102.133V102.203C50.8782 102.347 50.9943 102.463 51.1374 102.463H145.893C146.037 102.463 146.153 102.347 146.153 102.203V102.133C146.153 101.99 146.037 101.873 145.893 101.873Z" fill="white"/>
<path d="M102.41 101.873H51.1374C50.9943 101.873 50.8782 101.99 50.8782 102.133V102.203C50.8782 102.347 50.9943 102.463 51.1374 102.463H102.41C102.553 102.463 102.67 102.347 102.67 102.203V102.133C102.67 101.99 102.553 101.873 102.41 101.873Z" fill="#FFDC36"/>
<path opacity="0.1" d="M102.41 101.873H51.1374C50.9943 101.873 50.8782 101.99 50.8782 102.133V102.203C50.8782 102.347 50.9943 102.463 51.1374 102.463H102.41C102.553 102.463 102.67 102.347 102.67 102.203V102.133C102.67 101.99 102.553 101.873 102.41 101.873Z" fill="black"/>
<path d="M147.965 102.141V102.312H147.295V102.141H147.965Z" fill="white"/>
<path d="M148.797 102.141V102.312H148.127V102.141H148.797Z" fill="white"/>
<path d="M148.878 103.071L149.635 101.098H149.819L149.061 103.071H148.878Z" fill="white"/>
<path d="M150.562 102.141V102.312H149.892V102.141H150.562Z" fill="white"/>
<path d="M151.394 102.141V102.312H150.724V102.141H151.394Z" fill="white"/>
<path d="M49.3892 102.168L47.1428 100.868V103.468L49.3892 102.168Z" fill="white"/>
<path d="M153.506 61.7301L155.209 60.7432V62.7153L153.506 61.7301Z" fill="#F4F4F4"/>
<path d="M154.473 61.1738H153.506V62.289H154.473V61.1738Z" fill="#F4F4F4"/>
<path d="M155.479 61.0664C155.57 61.1451 155.643 61.2426 155.695 61.3522C155.744 61.4619 155.77 61.5812 155.77 61.7018C155.77 61.8224 155.744 61.9418 155.695 62.0514C155.643 62.1611 155.57 62.2585 155.479 62.3372" fill="#F4F4F4"/>
<path d="M155.93 60.8828C156.056 60.9786 156.157 61.1021 156.227 61.2437C156.297 61.3855 156.334 61.5415 156.334 61.6995C156.334 61.8576 156.297 62.0136 156.227 62.1554C156.157 62.297 156.056 62.4205 155.93 62.5163" fill="#F4F4F4"/>
<path d="M154.969 88.9803C154.907 88.9803 154.848 88.9559 154.805 88.9122C154.76 88.8686 154.737 88.8095 154.737 88.7477V64.383C154.737 64.3213 154.76 64.2621 154.805 64.2185C154.848 64.1749 154.907 64.1504 154.969 64.1504C155.03 64.1504 155.09 64.1749 155.133 64.2185C155.177 64.2621 155.201 64.3213 155.201 64.383V88.7477C155.201 88.8095 155.177 88.8686 155.133 88.9122C155.09 88.9559 155.03 88.9803 154.969 88.9803Z" fill="white"/>
<path d="M154.969 88.9809C154.907 88.9809 154.848 88.9564 154.805 88.9128C154.76 88.8692 154.737 88.81 154.737 88.7483V71.9709C154.737 71.9091 154.76 71.85 154.805 71.8064C154.848 71.7627 154.907 71.7383 154.969 71.7383C155.03 71.7383 155.09 71.7627 155.133 71.8064C155.177 71.85 155.201 71.9091 155.201 71.9709V88.7483C155.201 88.81 155.177 88.8692 155.133 88.9128C155.09 88.9564 155.03 88.9809 154.969 88.9809Z" fill="#FFDC36"/>
<path opacity="0.1" d="M154.969 88.9809C154.907 88.9809 154.848 88.9564 154.805 88.9128C154.76 88.8692 154.737 88.81 154.737 88.7483V71.9709C154.737 71.9091 154.76 71.85 154.805 71.8064C154.848 71.7627 154.907 71.7383 154.969 71.7383C155.03 71.7383 155.09 71.7627 155.133 71.8064C155.177 71.85 155.201 71.9091 155.201 71.9709V88.7483C155.201 88.81 155.177 88.8692 155.133 88.9128C155.09 88.9564 155.03 88.9809 154.969 88.9809Z" fill="black"/>
<path d="M120.127 111.151H119.032C119.01 111.151 118.989 111.147 118.969 111.138C118.949 111.129 118.932 111.116 118.917 111.1C118.903 111.084 118.893 111.065 118.886 111.044C118.88 111.023 118.879 111.001 118.881 110.98V110.936C118.881 110.912 118.881 110.888 118.895 110.864L118.996 110.227C119.003 110.179 119.003 110.13 118.996 110.082C118.996 110.063 118.996 110.039 118.996 110.01C118.987 109.959 118.966 109.91 118.934 109.868L118.885 109.814C118.866 109.791 118.841 109.775 118.813 109.766H118.765C118.732 109.766 118.699 109.775 118.67 109.791C118.64 109.807 118.614 109.829 118.595 109.856L117.524 111.036C117.495 111.065 117.473 111.099 117.458 111.137C117.442 111.175 117.435 111.215 117.435 111.255V113.715C117.435 113.756 117.443 113.797 117.458 113.835C117.474 113.873 117.496 113.907 117.525 113.936C117.554 113.965 117.589 113.988 117.626 114.004C117.664 114.02 117.705 114.028 117.746 114.028H119.531C119.591 114.028 119.65 114.01 119.701 113.977C119.751 113.944 119.791 113.898 119.816 113.843L120.471 112.345C120.5 112.278 120.522 112.208 120.536 112.136C120.549 112.051 120.554 111.966 120.551 111.88V111.49C120.552 111.437 120.536 111.385 120.507 111.341C120.467 111.277 120.41 111.226 120.343 111.193C120.276 111.159 120.201 111.145 120.127 111.151Z" fill="#FFDC36"/>
<path d="M116.921 111.363H116.284C116.248 111.363 116.219 111.392 116.219 111.428V113.949C116.219 113.985 116.248 114.014 116.284 114.014H116.921C116.957 114.014 116.986 113.985 116.986 113.949V111.428C116.986 111.392 116.957 111.363 116.921 111.363Z" fill="#FFDC36"/>
<path opacity="0.3" d="M126.345 112.654H127.44C127.462 112.654 127.483 112.658 127.503 112.667C127.523 112.676 127.54 112.689 127.554 112.705C127.569 112.721 127.579 112.74 127.585 112.761C127.592 112.782 127.593 112.804 127.59 112.825V112.87C127.59 112.893 127.59 112.917 127.577 112.941L127.476 113.576C127.469 113.625 127.469 113.674 127.476 113.723C127.476 113.742 127.476 113.766 127.476 113.795C127.485 113.846 127.506 113.895 127.537 113.937L127.595 114.004C127.615 114.025 127.64 114.042 127.667 114.051H127.715C127.75 114.051 127.784 114.043 127.815 114.028C127.846 114.012 127.873 113.989 127.894 113.961L128.963 112.781C128.992 112.752 129.014 112.718 129.03 112.68C129.045 112.642 129.052 112.602 129.052 112.562V110.102C129.052 110.061 129.044 110.02 129.029 109.982C129.013 109.944 128.991 109.91 128.962 109.881C128.933 109.852 128.899 109.829 128.861 109.813C128.823 109.797 128.783 109.789 128.742 109.789H126.954C126.894 109.789 126.835 109.807 126.785 109.84C126.734 109.873 126.694 109.919 126.669 109.974L126.014 111.472C125.985 111.539 125.963 111.609 125.949 111.681C125.936 111.766 125.931 111.851 125.934 111.937V112.314C125.933 112.367 125.949 112.42 125.978 112.464C126.018 112.525 126.072 112.575 126.137 112.608C126.201 112.642 126.273 112.657 126.345 112.654Z" fill="#2B3048"/>
<path opacity="0.3" d="M130.192 109.789H129.554C129.518 109.789 129.49 109.818 129.49 109.854V112.375C129.49 112.411 129.518 112.44 129.554 112.44H130.192C130.228 112.44 130.257 112.411 130.257 112.375V109.854C130.257 109.818 130.228 109.789 130.192 109.789Z" fill="#2B3048"/>
<path d="M141.2 111.792L139.204 109.972C139.195 109.967 139.186 109.965 139.176 109.965C139.166 109.965 139.156 109.967 139.148 109.972C139.138 109.977 139.131 109.983 139.125 109.992C139.12 110 139.117 110.01 139.117 110.02V111.036C139.009 111.036 136.284 110.853 135.653 113.829V113.845C135.652 113.848 135.652 113.852 135.653 113.855V113.864C135.66 113.87 135.669 113.873 135.678 113.874C135.69 113.873 135.701 113.869 135.711 113.862C136.581 112.293 139.047 112.613 139.057 112.62C139.065 112.622 139.072 112.622 139.079 112.62V113.646C139.079 113.656 139.082 113.666 139.088 113.675C139.093 113.683 139.101 113.69 139.11 113.694C139.118 113.696 139.126 113.696 139.134 113.694C139.146 113.694 139.157 113.69 139.166 113.684L141.162 111.864C141.168 111.859 141.174 111.852 141.177 111.845C141.181 111.838 141.183 111.83 141.183 111.821C141.183 111.813 141.181 111.805 141.177 111.798C141.174 111.79 141.168 111.784 141.162 111.779L141.2 111.792Z" fill="#2B3048"/>
<path d="M149.119 110.521H146.619V110.961H149.119V110.521Z" fill="#2B3048"/>
<path d="M149.119 111.379H146.619V111.818H149.119V111.379Z" fill="#2B3048"/>
<path d="M148.331 112.234H146.619V112.674H148.331V112.234Z" fill="#2B3048"/>
<path d="M149.995 111.462H149.557V112.254H148.767V112.693H149.557V113.485H149.995V112.693H150.785V112.254H149.995V111.462Z" fill="#2B3048"/>
<path d="M159.677 112.197C159.602 112.197 159.529 112.175 159.467 112.133C159.404 112.091 159.356 112.032 159.328 111.963C159.299 111.893 159.292 111.817 159.305 111.743C159.321 111.669 159.356 111.602 159.409 111.549C159.462 111.496 159.53 111.459 159.604 111.445C159.677 111.43 159.752 111.438 159.822 111.466C159.892 111.495 159.95 111.544 159.992 111.606C160.033 111.669 160.055 111.742 160.055 111.817C160.055 111.867 160.045 111.917 160.026 111.963C160.008 112.009 159.98 112.051 159.945 112.086C159.91 112.121 159.868 112.15 159.822 112.169C159.776 112.187 159.726 112.197 159.677 112.197Z" fill="#2B3048"/>
<path d="M158.338 112.197C158.263 112.197 158.189 112.175 158.128 112.133C158.065 112.091 158.017 112.032 157.988 111.963C157.959 111.893 157.952 111.817 157.966 111.743C157.981 111.669 158.017 111.602 158.07 111.549C158.123 111.496 158.191 111.459 158.264 111.445C158.338 111.43 158.413 111.438 158.482 111.466C158.552 111.495 158.61 111.544 158.653 111.606C158.694 111.669 158.716 111.742 158.716 111.817C158.716 111.867 158.706 111.917 158.687 111.963C158.668 112.009 158.641 112.051 158.605 112.086C158.571 112.121 158.529 112.15 158.482 112.169C158.436 112.187 158.387 112.197 158.338 112.197Z" fill="#2B3048"/>
<path d="M157 112.197C157.21 112.197 157.379 112.027 157.379 111.817C157.379 111.608 157.21 111.438 157 111.438C156.791 111.438 156.622 111.608 156.622 111.817C156.622 112.027 156.791 112.197 157 112.197Z" fill="#2B3048"/>
<path d="M108.012 79.2085C110.547 76.6669 110.658 72.6584 108.262 70.2551C105.865 67.8518 101.868 67.9638 99.333 70.5053C96.7984 73.047 96.6866 77.0555 99.0833 79.4588C101.48 81.8622 105.478 81.75 108.012 79.2085Z" fill="white"/>
<path d="M107.281 74.8544L101.454 71.4814V78.2273L107.281 74.8544Z" fill="url(#paint0_linear_1614_106234)"/>
<path d="M44.0508 37.1211H48.3747" stroke="#FFDC36" stroke-width="0.5" stroke-miterlimit="10" stroke-linecap="round"/>
<path d="M44.0469 38.3799H48.3708" stroke="#FFDC36" stroke-width="0.5" stroke-miterlimit="10" stroke-linecap="round"/>
<path d="M44.0469 39.6387H48.3708" stroke="#FFDC36" stroke-width="0.5" stroke-miterlimit="10" stroke-linecap="round"/>
<path d="M37.5643 23.3203H167.243C167.695 23.3203 168.129 23.5006 168.448 23.8213C168.769 24.142 168.948 24.5771 168.948 25.0307V31.5799H35.8586V25.0307C35.8586 24.5771 36.0382 24.142 36.3582 23.8213C36.6781 23.5006 37.112 23.3203 37.5643 23.3203Z" fill="#2B3048"/>
<path d="M40.4765 28.7666C41.1265 28.7666 41.6534 28.2383 41.6534 27.5864C41.6534 26.9346 41.1265 26.4062 40.4765 26.4062C39.8264 26.4062 39.2996 26.9346 39.2996 27.5864C39.2996 28.2383 39.8264 28.7666 40.4765 28.7666Z" fill="white"/>
<path d="M44.2121 28.7666C44.8621 28.7666 45.389 28.2383 45.389 27.5864C45.389 26.9346 44.8621 26.4062 44.2121 26.4062C43.562 26.4062 43.0352 26.9346 43.0352 27.5864C43.0352 28.2383 43.562 28.7666 44.2121 28.7666Z" fill="white"/>
<path d="M47.9494 28.7666C48.5994 28.7666 49.1263 28.2383 49.1263 27.5864C49.1263 26.9346 48.5994 26.4062 47.9494 26.4062C47.2993 26.4062 46.7725 26.9346 46.7725 27.5864C46.7725 28.2383 47.2993 28.7666 47.9494 28.7666Z" fill="white"/>
<path d="M156.923 39.5158C156.905 39.4932 156.895 39.4648 156.897 39.4359C156.9 39.4072 156.912 39.3802 156.933 39.3602L157.844 38.5323C157.854 38.5231 157.866 38.5161 157.879 38.5114C157.893 38.507 157.907 38.5051 157.92 38.5061C157.934 38.5072 157.948 38.5108 157.96 38.5171C157.972 38.5232 157.984 38.532 157.992 38.5426L158.108 38.6811C158.125 38.7037 158.135 38.7321 158.134 38.761C158.13 38.7897 158.118 38.8167 158.098 38.8368L157.187 39.6646C157.177 39.6738 157.165 39.6809 157.151 39.6855C157.137 39.6899 157.124 39.6918 157.11 39.6908C157.096 39.6898 157.083 39.6862 157.071 39.6798C157.059 39.6737 157.047 39.6649 157.039 39.6543L156.923 39.5158Z" fill="#FFDC36"/>
<path d="M158.924 36.8995C159.04 36.8983 159.156 36.9167 159.265 36.9542C159.49 37.033 159.681 37.1896 159.804 37.396C159.925 37.6024 159.971 37.8455 159.932 38.082C159.891 38.3186 159.77 38.5336 159.587 38.6887C159.405 38.8439 159.173 38.9292 158.934 38.9297C158.818 38.9304 158.702 38.9114 158.593 38.8733C158.366 38.7955 158.175 38.6393 158.052 38.4327C157.929 38.2262 157.883 37.9827 157.922 37.7456C157.963 37.5085 158.084 37.2934 158.269 37.1384C158.451 36.9834 158.683 36.8988 158.924 36.8995ZM158.924 37.1731C158.77 37.1735 158.62 37.2219 158.495 37.3113C158.371 37.4008 158.275 37.527 158.226 37.6726C158.194 37.7642 158.18 37.8612 158.187 37.9582C158.192 38.0552 158.217 38.1499 158.26 38.237C158.323 38.3694 158.426 38.4799 158.552 38.5545C158.678 38.6289 158.823 38.6639 158.97 38.6552C159.116 38.6463 159.256 38.5941 159.374 38.505C159.49 38.4159 159.577 38.294 159.625 38.1549C159.657 38.0632 159.671 37.9662 159.664 37.8693C159.659 37.7723 159.633 37.6775 159.59 37.5905C159.548 37.5029 159.488 37.4247 159.416 37.3601C159.343 37.2956 159.26 37.246 159.167 37.2142C159.089 37.187 159.007 37.1731 158.925 37.1731H158.924Z" fill="#FFDC36"/>
<path d="M12.5863 137.051C11.6122 136.441 10.512 136.061 9.36938 135.941C8.84403 135.888 8.26922 135.904 7.84791 136.222C7.79913 136.25 7.75887 136.291 7.73124 136.34C7.70361 136.389 7.6898 136.444 7.69099 136.501C7.71555 136.581 7.76826 136.649 7.83938 136.692C9.14935 137.693 11.1279 137.819 12.5863 137.051Z" fill="#2B3048"/>
<path d="M12.5028 136.96C11.7583 136.411 11.063 135.798 10.4253 135.127C9.78651 134.451 9.3374 133.618 9.12385 132.712C9.06756 132.436 9.05051 132.122 9.22619 131.904C10.8824 133.201 12.1839 134.879 12.5028 136.96Z" fill="#2B3048"/>
<path d="M12.5716 137.04C12.447 136.132 12.401 135.198 12.6091 134.303C12.8172 133.409 13.305 132.562 14.0623 132.049C14.3489 132.719 14.2329 133.492 14.0248 134.194C13.7115 135.279 13.2248 136.306 12.5835 137.235" fill="#2B3048"/>
<path d="M14.1938 139.957C13.2079 140.077 12.35 140.597 11.6131 141.265C10.8737 141.941 10.3588 142.827 10.1377 143.805C11.1048 143.746 11.9253 143.061 12.5257 142.295C13.1261 141.529 13.5337 140.687 14.187 139.971" fill="#2B3048"/>
<path d="M14.5431 140.429C14.1556 139.441 14.02 138.372 14.1483 137.318C14.2767 136.265 14.6651 135.26 15.2783 134.395C15.8394 136.397 15.633 138.659 14.5431 140.429Z" fill="#2B3048"/>
<path d="M16.6913 142.985C15.7907 142.93 14.8937 143.141 14.1117 143.592C13.3296 144.044 12.697 144.715 12.2924 145.524C12.2576 145.573 12.2364 145.63 12.2311 145.691C12.2257 145.751 12.2363 145.811 12.2617 145.866C12.3004 145.902 12.3468 145.927 12.3974 145.943C12.4481 145.958 12.5015 145.96 12.5533 145.951C13.4215 145.895 14.1891 145.371 14.8236 144.776C15.4581 144.181 16.0176 143.492 16.7101 142.977" fill="#2B3048"/>
<path d="M16.6208 142.843C16.1582 141.353 16.1299 139.761 16.5389 138.254C16.6993 137.664 16.9705 137.042 17.5146 136.765C17.5364 136.75 17.5611 136.74 17.5869 136.736C17.6128 136.732 17.6393 136.733 17.6647 136.739C17.7089 136.762 17.7425 136.801 17.7585 136.848C17.942 137.262 18.0212 137.714 17.9888 138.165C17.957 138.614 17.8886 139.06 17.7841 139.498C17.6135 140.312 17.5214 141.188 17.0745 141.892C16.9698 142.061 16.8753 142.237 16.7914 142.417C16.7078 142.588 16.7078 142.659 16.6293 142.801" fill="#2B3048"/>
<path d="M22.3013 143.692C21.88 142.088 22.3269 140.143 23.335 138.828C23.4083 138.73 23.5055 138.626 23.6284 138.638C23.8143 138.655 23.862 138.903 23.8535 139.089C23.7783 140.739 23.2403 142.335 22.3013 143.692Z" fill="#2B3048"/>
<path d="M22.812 144.042C24.7548 144.555 26.9858 144.057 28.6028 142.862C27.6331 142.375 26.5253 142.24 25.4678 142.48C24.4205 142.721 23.4636 143.192 22.812 144.047" fill="#2B3048"/>
<path d="M23.2429 142.976C24.3311 141.195 26.4189 140.034 28.4981 139.928C28.2593 140.783 27.5634 141.435 26.7788 141.833C25.9942 142.232 25.1192 142.404 24.2561 142.574C23.915 142.639 23.4595 142.711 23.2429 142.976Z" fill="#2B3048"/>
<path d="M22.4054 137.793C22.7005 136.778 22.9973 135.757 23.0775 134.705C23.1576 133.654 23.0092 132.555 22.4651 131.652C21.4417 133.626 21.3445 135.928 22.3747 137.899" fill="#2B3048"/>
<g opacity="0.4">
<path opacity="0.4" d="M22.4054 137.793C22.7005 136.778 22.9973 135.757 23.0775 134.705C23.1576 133.654 23.0092 132.555 22.4651 131.652C21.4417 133.626 21.3445 135.928 22.3747 137.899" fill="white"/>
</g>
<path d="M25.8298 136.056C27.0238 133.889 29.4459 132.156 31.9021 131.915C30.9554 134.279 28.3713 136.107 25.8298 136.056Z" fill="#2B3048"/>
<g opacity="0.2">
<path opacity="0.2" d="M25.8298 136.056C27.0238 133.889 29.4459 132.156 31.9021 131.915C30.9554 134.279 28.3713 136.107 25.8298 136.056Z" fill="black"/>
</g>
<path d="M25.0813 136.478C26.8552 136.75 28.3665 137.886 30.0278 138.575C30.3759 138.743 30.7616 138.816 31.1467 138.789C31.3255 138.787 31.4989 138.729 31.6443 138.625C31.7894 138.52 31.8993 138.374 31.9588 138.205C32.0185 138.036 32.0252 137.852 31.9777 137.68C31.9305 137.507 31.8316 137.353 31.6942 137.238C31.4592 137.02 31.1831 136.852 30.8823 136.744C29.076 135.991 27.1401 135.972 25.2382 136.429" fill="#2B3048"/>
<path d="M24.0559 137.728C24.4567 137.843 24.5949 138.052 24.9087 138.324C25.9946 139.248 27.2788 139.909 28.6612 140.255C28.8045 140.289 28.9922 140.304 29.0621 140.174C29.132 140.044 29.0467 139.923 28.9666 139.822C28.3634 139.115 27.5816 138.583 26.7031 138.283C25.8383 137.959 25.0878 137.569 24.0559 137.653" fill="#2B3048"/>
<path d="M22.8977 130.196C23.625 130.868 24.4845 131.38 25.4211 131.7C26.3575 132.019 27.3502 132.138 28.3354 132.05C28.426 132.052 28.514 132.02 28.5828 131.961C28.7209 131.812 28.5555 131.581 28.3968 131.448C26.7969 130.198 24.861 129.679 22.8977 130.187" fill="#2B3048"/>
<path d="M24.2742 129.69C25.2367 128.979 26.3532 128.507 27.5325 128.312C28.7119 128.117 29.9203 128.205 31.0594 128.568C30.2065 129.411 29.0126 129.866 27.8271 129.991C26.6343 130.1 25.4318 129.998 24.2742 129.69Z" fill="#2B3048"/>
<path d="M23.7266 126.233C23.5698 124.632 23.672 123.37 23.5561 121.762C23.5476 121.632 23.5186 121.478 23.3993 121.432C23.2288 121.367 23.0941 121.574 23.0396 121.743C22.8081 122.488 22.7493 123.275 22.8674 124.046C22.9856 124.817 23.2777 125.55 23.7215 126.191" fill="#2B3048"/>
<path d="M23.6113 126.402C24.6927 125.731 25.5046 124.862 26.2551 123.826C26.7771 123.109 27.2172 122.251 27.0978 121.372C26.3643 121.356 25.6684 121.763 25.1908 122.321C24.7352 122.9 24.4043 123.569 24.2186 124.283C24.007 124.986 23.8587 125.711 23.6113 126.402Z" fill="#2B3048"/>
<g opacity="0.2">
<path opacity="0.2" d="M23.6113 126.402C24.6927 125.731 25.5046 124.862 26.2551 123.826C26.7771 123.109 27.2172 122.251 27.0978 121.372C26.3643 121.356 25.6684 121.763 25.1908 122.321C24.7352 122.9 24.4043 123.569 24.2186 124.283C24.007 124.986 23.8587 125.711 23.6113 126.402Z" fill="black"/>
</g>
<path d="M26.2057 125.682C28.5855 124.798 30.7886 123.496 32.7112 121.835C31.9352 121.522 31.0448 121.708 30.2687 122.023C28.4931 122.742 27.0432 123.954 26.175 125.665" fill="#2B3048"/>
<path d="M24.3403 127.281C25.5343 127.413 26.7607 127.499 27.953 127.298C29.1452 127.098 30.2301 126.637 31.3251 126.175C31.4201 126.149 31.5018 126.088 31.5537 126.004C31.5706 125.953 31.5718 125.898 31.5573 125.847C31.5426 125.795 31.5129 125.749 31.4718 125.715C31.3875 125.648 31.2888 125.601 31.1835 125.58C29.9896 125.246 28.7103 125.409 27.5402 125.798C26.4245 126.18 25.3521 126.678 24.3403 127.285" fill="#2B3048"/>
<path d="M17.484 130.248C16.664 128.588 16.7168 126.656 17.4243 124.945C17.9221 125.706 17.9834 126.676 17.8931 127.583C17.8027 128.489 17.5266 129.42 17.5095 130.331" fill="#2B3048"/>
<path d="M14.2123 128.593C13.1863 128.58 12.1689 128.781 11.225 129.184C10.281 129.588 9.43126 130.184 8.73022 130.935C9.75363 131.096 10.8026 130.831 11.7322 130.376C12.6618 129.921 13.4857 129.284 14.3044 128.65" fill="#2B3048"/>
<g opacity="0.2">
<path opacity="0.2" d="M14.2123 128.593C13.1863 128.58 12.1689 128.781 11.225 129.184C10.281 129.588 9.43126 130.184 8.73022 130.935C9.75363 131.096 10.8026 130.831 11.7322 130.376C12.6618 129.921 13.4857 129.284 14.3044 128.65" fill="black"/>
</g>
<path d="M12.011 127.855C11.0115 127.774 10.0478 127.65 9.08578 127.946C8.12377 128.241 7.24705 128.912 6.85645 129.842C7.80003 129.92 8.74703 129.743 9.59919 129.329C10.4454 128.913 11.2525 128.422 12.011 127.862" fill="#2B3048"/>
<path d="M15.2684 127.889C14.3678 127.297 13.4434 126.692 12.3944 126.451C11.3454 126.21 10.1309 126.386 9.40088 127.179C10.2537 127.677 11.2771 127.737 12.263 127.735C13.2489 127.734 14.4531 127.723 15.381 128.053" fill="#2B3048"/>
<path d="M15.2752 127.943C13.7401 126.428 13.1516 123.705 13.7708 121.634C14.9864 123.499 15.5182 125.729 15.2752 127.943Z" fill="#2B3048"/>
<path d="M19.5054 123.641C19.7953 122.957 20 122.254 20.261 121.566C20.4977 120.867 20.8628 120.218 21.3373 119.652C21.8178 119.084 22.5023 118.728 23.2425 118.662C23.0059 119.706 22.5548 120.69 21.9177 121.549C21.2808 122.408 20.4718 123.125 19.5429 123.653" fill="#2B3048"/>
<g opacity="0.2">
<path opacity="0.2" d="M19.5054 123.641C19.7953 122.957 20 122.254 20.261 121.566C20.4977 120.867 20.8628 120.218 21.3373 119.652C21.8178 119.084 22.5023 118.728 23.2425 118.662C23.0059 119.706 22.5548 120.69 21.9177 121.549C21.2808 122.408 20.4718 123.125 19.5429 123.653" fill="black"/>
</g>
<path d="M18.7413 124.537C18.2603 123.875 17.706 122.975 17.0544 122.484C16.4028 121.993 15.5551 121.691 14.7603 121.881C15.1718 122.604 15.746 123.221 16.4371 123.683C17.1281 124.145 17.9171 124.439 18.7413 124.542" fill="#2B3048"/>
<path d="M18.8926 123.698C18.5771 122.894 18.2598 122.083 18.1336 121.231C18.0074 120.379 18.0824 119.468 18.5174 118.724C19.3702 120.325 19.6346 122.045 18.9353 123.715" fill="#2B3048"/>
<path d="M19.5132 118.725C19.9908 117.137 21.4406 115.967 23.0064 115.432C23.2 115.352 23.4102 115.32 23.6188 115.34C23.7226 115.351 23.8209 115.393 23.9011 115.46C23.9812 115.528 24.0397 115.617 24.0691 115.718C24.1271 115.988 23.8985 116.231 23.6955 116.402C22.4719 117.449 21.049 118.237 19.5132 118.718" fill="#2B3048"/>
<path d="M19.5324 117.426C19.5921 116.4 19.6569 115.364 19.9878 114.394C20.3187 113.424 20.9601 112.512 21.8914 112.09C22.05 113.125 21.5946 114.153 21.0385 115.042C20.4825 115.931 19.8292 116.771 19.5034 117.763" fill="#2B3048"/>
<path d="M19.5052 118.132C19.1095 116.976 19.0685 115.505 18.3777 114.497C17.895 113.793 17.1224 113.312 16.7062 112.566C16.4282 113.264 16.5134 114.066 16.8034 114.759C17.1162 115.441 17.5478 116.062 18.0775 116.593C18.5892 117.142 19.0259 117.552 19.5018 118.132" fill="#2B3048"/>
<path d="M19.5128 152.203C19.482 152.203 19.4547 144.484 19.453 134.966C19.4513 125.447 19.4735 117.727 19.5042 117.727C19.535 117.727 19.5623 125.444 19.564 134.966C19.5657 144.488 19.5435 152.203 19.5128 152.203Z" fill="#263238"/>
<path d="M26.2413 129.085C26.1479 129.129 26.051 129.165 25.9514 129.193L25.1548 129.463C24.4845 129.692 23.5617 130.024 22.5604 130.436C21.5592 130.848 20.6347 131.209 20.1008 131.671C19.8883 131.848 19.7196 132.073 19.6079 132.326C19.5311 132.507 19.5175 132.619 19.5073 132.617C19.5021 132.59 19.5021 132.562 19.5073 132.535C19.519 132.459 19.538 132.383 19.5635 132.311C19.6642 132.042 19.83 131.802 20.0463 131.613C20.3671 131.34 20.7263 131.116 21.1123 130.948C21.5387 130.747 22.0129 130.539 22.5144 130.332C23.519 129.92 24.4486 129.598 25.1275 129.388C25.4687 129.282 25.7433 129.203 25.936 129.152C26.0353 129.119 26.1376 129.097 26.2413 129.085Z" fill="#263238"/>
<path d="M28.4444 123.655C28.4202 123.686 28.3927 123.715 28.3625 123.74L28.1152 123.973C27.8867 124.183 27.5745 124.467 27.1942 124.813L24.1239 127.549C22.9299 128.618 21.8912 129.639 21.1748 130.409C20.8149 130.792 20.5318 131.112 20.339 131.333L20.1156 131.589C20.0644 131.647 20.0354 131.676 20.032 131.673C20.0513 131.638 20.0734 131.605 20.0985 131.574C20.1446 131.512 20.2128 131.42 20.3049 131.305C20.4891 131.074 20.7637 130.748 21.1168 130.356C22.0428 129.341 23.022 128.376 24.0506 127.465C25.2531 126.398 26.3464 125.44 27.1413 124.749C27.5319 124.407 27.8525 124.139 28.0862 123.935L28.3472 123.72C28.4086 123.668 28.441 123.651 28.4444 123.655Z" fill="#263238"/>
<path d="M22.8321 128.64C22.8015 128.627 23.0521 128.047 23.3009 127.315C23.5498 126.583 23.6709 125.964 23.7015 125.969C23.7322 125.974 23.6606 126.608 23.4066 127.351C23.2991 127.666 23.1744 127.976 23.0333 128.278C22.9842 128.408 22.9165 128.53 22.8321 128.64Z" fill="#263238"/>
<path d="M19.5221 133.312C19.4536 133.246 19.3913 133.174 19.3362 133.096L18.8637 132.487C18.4663 131.974 17.9171 131.262 17.3013 130.484C16.6856 129.706 16.121 129.008 15.7099 128.504L15.2272 127.903C15.1638 127.833 15.1066 127.757 15.0566 127.676C15.1302 127.735 15.197 127.802 15.2562 127.876C15.3807 128.009 15.5547 128.208 15.7679 128.452C16.1926 128.945 16.7691 129.636 17.3866 130.414C18.0041 131.192 18.5414 131.912 18.9217 132.441C19.1128 132.704 19.2629 132.92 19.3669 133.07C19.4264 133.145 19.4785 133.226 19.5221 133.312Z" fill="#263238"/>
<path d="M18.0456 131.414C18.0268 131.433 17.6347 130.964 17.4285 130.253C17.3129 129.875 17.2655 129.479 17.2887 129.085H17.3364C17.316 129.174 17.2989 129.222 17.2904 129.22C17.2819 129.218 17.2819 129.169 17.2904 129.076H17.3398C17.364 129.461 17.4298 129.843 17.5359 130.214C17.737 130.911 18.0779 131.394 18.0456 131.414Z" fill="#FFDC36"/>
<path d="M16.1423 129.011C16.0089 128.911 15.8641 128.826 15.7107 128.76C15.3235 128.646 14.9169 128.614 14.5167 128.666C14.1101 128.697 13.7065 128.762 13.3108 128.861C13.1486 128.913 12.9826 128.952 12.8145 128.979C12.9625 128.892 13.1222 128.826 13.2886 128.784C13.685 128.661 14.0942 128.584 14.5082 128.555C14.9246 128.498 15.3484 128.544 15.7431 128.688C15.9091 128.747 16.05 128.861 16.1423 129.011Z" fill="#263238"/>
<path d="M15.6907 128.428C15.6821 128.445 15.4399 128.327 15.0306 128.187C13.9599 127.819 12.8133 127.731 11.6994 127.932C11.2729 128.009 11.0171 128.089 11.0171 128.071C11.0171 128.052 11.0768 128.036 11.1877 127.995C11.3512 127.938 11.518 127.891 11.6874 127.855C12.8113 127.608 13.9828 127.698 15.0562 128.113C15.2182 128.174 15.376 128.246 15.5286 128.327C15.5875 128.352 15.6421 128.386 15.6907 128.428Z" fill="#263238"/>
<path d="M19.5048 125.967C19.4758 125.967 19.2593 125.223 19.0224 124.288C18.7854 123.352 18.6201 122.589 18.649 122.577C18.678 122.565 18.8945 123.321 19.1315 124.255C19.3684 125.189 19.5338 125.959 19.5048 125.967Z" fill="#263238"/>
<path d="M19.537 125.967C19.5046 125.977 19.3664 125.476 19.0031 124.961C18.7766 124.658 18.5122 124.385 18.2168 124.148C18.329 124.175 18.4332 124.228 18.5204 124.304C18.7471 124.467 18.9438 124.668 19.102 124.898C19.4705 125.431 19.5643 125.965 19.537 125.967Z" fill="#263238"/>
<path d="M19.5147 148.089C19.5027 148.089 19.4789 147.904 19.3919 147.576C19.2648 147.116 19.0935 146.668 18.8802 146.24C18.348 145.15 17.3809 143.768 16.1511 142.385C15.5421 141.687 14.9571 141.028 14.4454 140.397C13.9951 139.843 13.5879 139.254 13.2275 138.637C12.9865 138.22 12.7811 137.783 12.6135 137.331C12.5572 137.17 12.5163 137.045 12.4924 136.958C12.4774 136.914 12.4671 136.87 12.4617 136.824C12.4719 136.824 12.5282 136.995 12.6544 137.315C12.8357 137.758 13.05 138.187 13.2957 138.598C13.6638 139.205 14.0749 139.785 14.5255 140.334C15.0287 140.957 15.6206 141.612 16.2312 142.311C17.4644 143.698 18.4299 145.097 18.9467 146.206C19.1582 146.642 19.3212 147.102 19.4328 147.574C19.4623 147.702 19.4852 147.832 19.501 147.962C19.5089 148.003 19.5135 148.046 19.5147 148.089Z" fill="#263238"/>
<path d="M25.591 141.208C25.4882 141.271 25.3816 141.328 25.2721 141.379C24.9845 141.542 24.7087 141.726 24.4465 141.928C24.0593 142.229 23.6965 142.561 23.3617 142.92C22.9796 143.324 22.5873 143.792 22.1882 144.288C21.3865 145.296 20.6377 146.187 20.1891 146.898C19.9623 147.251 19.7968 147.548 19.6877 147.753C19.6375 147.865 19.5805 147.971 19.5171 148.075C19.5224 148.044 19.5321 148.013 19.5461 147.986C19.57 147.928 19.6024 147.841 19.6535 147.735C19.7924 147.432 19.9503 147.138 20.126 146.854C20.5627 146.125 21.3046 145.22 22.1046 144.215C22.5054 143.712 22.9029 143.243 23.2986 142.846C23.6413 142.488 24.0133 142.159 24.4107 141.863C24.6793 141.664 24.9647 141.489 25.2635 141.339C25.3693 141.286 25.4563 141.254 25.5126 141.228C25.5689 141.203 25.5825 141.203 25.591 141.208Z" fill="#263238"/>
<path d="M25.7109 143.438C25.4891 143.487 25.2638 143.521 25.0371 143.537C24.4964 143.591 23.962 143.697 23.4406 143.851C22.925 144.019 22.4418 144.274 22.0112 144.604C21.6803 144.859 21.5251 145.071 21.5098 145.059C21.5336 145.001 21.5678 144.948 21.6104 144.903C21.7143 144.772 21.8315 144.65 21.9601 144.542C22.387 144.187 22.8781 143.916 23.4065 143.745C23.9346 143.588 24.4787 143.491 25.0286 143.458C25.2549 143.431 25.4833 143.424 25.7109 143.438Z" fill="#263238"/>
<path d="M21.7075 144.814C21.6717 144.794 21.9751 144.33 22.2189 143.704C22.4627 143.078 22.4916 142.521 22.5308 142.527C22.547 142.648 22.5431 142.771 22.5189 142.89C22.4869 143.182 22.4211 143.468 22.3229 143.745C22.2214 144.021 22.0905 144.282 21.9325 144.529C21.8742 144.636 21.798 144.732 21.7075 144.814Z" fill="#263238"/>
<path d="M27.5611 135.207C27.5278 135.231 27.4918 135.25 27.4536 135.265L27.1364 135.409C26.9982 135.469 26.8311 135.544 26.64 135.645C26.449 135.746 26.229 135.843 25.997 135.987L25.6303 136.196C25.5023 136.269 25.3761 136.356 25.2431 136.44C24.9719 136.611 24.7007 136.808 24.4107 137.015C23.1713 137.942 22.0901 139.064 21.2091 140.338C21.0113 140.636 20.8185 140.915 20.6633 141.193C20.5848 141.33 20.5013 141.46 20.433 141.59L20.2369 141.967C20.1056 142.204 20.0134 142.43 19.9213 142.623C19.8292 142.817 19.7508 142.988 19.703 143.136C19.6552 143.285 19.6058 143.372 19.57 143.458C19.5573 143.497 19.5394 143.533 19.5171 143.567C19.5227 143.526 19.5336 143.487 19.5495 143.449C19.5802 143.364 19.6177 143.254 19.6638 143.119C19.7221 142.945 19.7893 142.774 19.8651 142.606C19.9503 142.408 20.0356 142.179 20.167 141.939L20.358 141.558C20.4245 141.426 20.5064 141.294 20.5848 141.156C20.7367 140.874 20.926 140.591 21.1238 140.29C22.0028 139 23.0934 137.868 24.3493 136.943C24.6427 136.736 24.919 136.536 25.1936 136.374C25.3301 136.29 25.458 136.202 25.5859 136.132L25.9595 135.927C26.1948 135.792 26.42 135.694 26.6144 135.602C26.7811 135.52 26.952 135.447 27.1261 135.383L27.4519 135.257C27.4862 135.236 27.5229 135.219 27.5611 135.207Z" fill="#263238"/>
<path d="M22.7515 138.442C22.7962 138.286 22.8886 138.148 23.0158 138.047C23.3118 137.788 23.6894 137.643 24.0819 137.637C24.4662 137.636 24.8469 137.71 25.2025 137.856C25.3532 137.904 25.4961 137.974 25.6273 138.063C25.4734 138.033 25.3226 137.989 25.177 137.931C24.8256 137.81 24.4568 137.748 24.0853 137.748C23.7147 137.755 23.3558 137.88 23.0619 138.107C22.95 138.211 22.8463 138.323 22.7515 138.442Z" fill="#FFDC36"/>
<g opacity="0.2">
<path opacity="0.2" d="M12.5863 137.051C11.6122 136.441 10.512 136.061 9.36938 135.941C8.84403 135.888 8.26922 135.904 7.84791 136.222C7.79913 136.25 7.75887 136.291 7.73124 136.34C7.70361 136.389 7.6898 136.444 7.69099 136.501C7.71555 136.581 7.76826 136.649 7.83938 136.692C9.14935 137.693 11.1279 137.819 12.5863 137.051Z" fill="black"/>
</g>
<g opacity="0.4">
<path opacity="0.4" d="M12.5716 137.04C12.447 136.132 12.401 135.198 12.6091 134.303C12.8172 133.409 13.305 132.562 14.0623 132.049C14.3489 132.719 14.2329 133.492 14.0248 134.194C13.7115 135.279 13.2248 136.306 12.5835 137.235" fill="white"/>
</g>
<g opacity="0.2">
<path opacity="0.2" d="M14.5431 140.429C14.1556 139.441 14.02 138.372 14.1483 137.318C14.2767 136.265 14.6651 135.26 15.2783 134.395C15.8394 136.397 15.633 138.659 14.5431 140.429Z" fill="black"/>
</g>
<g opacity="0.2">
<path opacity="0.2" d="M16.6913 142.985C15.7907 142.93 14.8937 143.141 14.1117 143.592C13.3296 144.044 12.697 144.715 12.2924 145.524C12.2576 145.573 12.2364 145.63 12.2311 145.691C12.2257 145.751 12.2363 145.811 12.2617 145.866C12.3004 145.902 12.3468 145.927 12.3974 145.943C12.4481 145.958 12.5015 145.96 12.5533 145.951C13.4215 145.895 14.1891 145.371 14.8236 144.776C15.4581 144.181 16.0176 143.492 16.7101 142.977" fill="black"/>
</g>
<g opacity="0.4">
<path opacity="0.4" d="M22.812 144.042C24.7548 144.555 26.9858 144.057 28.6028 142.862C27.6331 142.375 26.5253 142.24 25.4678 142.48C24.4205 142.721 23.4636 143.192 22.812 144.047" fill="white"/>
</g>
<g opacity="0.2">
<path opacity="0.2" d="M23.2429 142.976C24.3311 141.195 26.4189 140.034 28.4981 139.928C28.2593 140.783 27.5634 141.435 26.7788 141.833C25.9942 142.232 25.1192 142.404 24.2561 142.574C23.915 142.639 23.4595 142.711 23.2429 142.976Z" fill="black"/>
</g>
<g opacity="0.4">
<path opacity="0.4" d="M25.0813 136.478C26.8552 136.75 28.3665 137.886 30.0278 138.575C30.3759 138.743 30.7616 138.816 31.1467 138.789C31.3255 138.787 31.4989 138.729 31.6443 138.625C31.7894 138.52 31.8993 138.374 31.9588 138.205C32.0185 138.036 32.0252 137.852 31.9777 137.68C31.9305 137.507 31.8316 137.353 31.6942 137.238C31.4592 137.02 31.1831 136.852 30.8823 136.744C29.076 135.991 27.1401 135.972 25.2382 136.429" fill="white"/>
</g>
<g opacity="0.2">
<path opacity="0.2" d="M24.2742 129.69C25.2367 128.979 26.3532 128.507 27.5325 128.312C28.7119 128.117 29.9203 128.205 31.0594 128.568C30.2065 129.411 29.0126 129.866 27.8271 129.991C26.6343 130.1 25.4318 129.998 24.2742 129.69Z" fill="black"/>
</g>
<g opacity="0.4">
<path opacity="0.4" d="M23.7266 126.233C23.5698 124.632 23.672 123.37 23.5561 121.762C23.5476 121.632 23.5186 121.478 23.3993 121.432C23.2288 121.367 23.0941 121.574 23.0396 121.743C22.8081 122.488 22.7493 123.275 22.8674 124.046C22.9856 124.817 23.2777 125.55 23.7215 126.191" fill="white"/>
</g>
<g opacity="0.4">
<path opacity="0.4" d="M26.2057 125.682C28.5855 124.798 30.7886 123.496 32.7112 121.835C31.9352 121.522 31.0448 121.708 30.2687 122.023C28.4931 122.742 27.0432 123.954 26.175 125.665" fill="white"/>
</g>
<g opacity="0.4">
<path opacity="0.4" d="M17.484 130.248C16.664 128.588 16.7168 126.656 17.4243 124.945C17.9221 125.706 17.9834 126.676 17.8931 127.583C17.8027 128.489 17.5266 129.42 17.5095 130.331" fill="white"/>
</g>
<g opacity="0.4">
<path opacity="0.4" d="M12.011 127.855C11.0115 127.774 10.0478 127.65 9.08578 127.946C8.12377 128.241 7.24705 128.912 6.85645 129.842C7.80003 129.92 8.74703 129.743 9.59919 129.329C10.4454 128.913 11.2525 128.422 12.011 127.862" fill="white"/>
</g>
<g opacity="0.2">
<path opacity="0.2" d="M15.2752 127.943C13.7401 126.428 13.1516 123.705 13.7708 121.634C14.9864 123.499 15.5182 125.729 15.2752 127.943Z" fill="black"/>
</g>
<g opacity="0.2">
<path opacity="0.2" d="M18.7413 124.537C18.2603 123.875 17.706 122.975 17.0544 122.484C16.4028 121.993 15.5551 121.691 14.7603 121.881C15.1718 122.604 15.746 123.221 16.4371 123.683C17.1281 124.145 17.9171 124.439 18.7413 124.542" fill="black"/>
</g>
<g opacity="0.4">
<path opacity="0.4" d="M19.5132 118.725C19.9908 117.137 21.4406 115.967 23.0064 115.432C23.2 115.352 23.4102 115.32 23.6188 115.34C23.7226 115.351 23.8209 115.393 23.9011 115.46C23.9812 115.528 24.0397 115.617 24.0691 115.718C24.1271 115.988 23.8985 116.231 23.6955 116.402C22.4719 117.449 21.049 118.237 19.5132 118.718" fill="white"/>
</g>
<g opacity="0.2">
<path opacity="0.2" d="M19.5052 118.132C19.1095 116.976 19.0685 115.505 18.3777 114.497C17.895 113.793 17.1224 113.312 16.7062 112.566C16.4282 113.264 16.5134 114.066 16.8034 114.759C17.1162 115.441 17.5478 116.062 18.0775 116.593C18.5892 117.142 19.0259 117.552 19.5018 118.132" fill="black"/>
</g>
<g opacity="0.4">
<path opacity="0.4" d="M18.0456 131.414C18.0268 131.433 17.6347 130.964 17.4285 130.253C17.3129 129.875 17.2655 129.479 17.2887 129.085H17.3364C17.316 129.174 17.2989 129.222 17.2904 129.22C17.2819 129.218 17.2819 129.169 17.2904 129.076H17.3398C17.364 129.461 17.4298 129.843 17.5359 130.214C17.737 130.911 18.0779 131.394 18.0456 131.414Z" fill="white"/>
</g>
<g opacity="0.4">
<path opacity="0.4" d="M22.7515 138.442C22.7962 138.286 22.8886 138.148 23.0158 138.047C23.3118 137.788 23.6894 137.643 24.0819 137.637C24.4662 137.636 24.8469 137.71 25.2025 137.856C25.3532 137.904 25.4961 137.974 25.6273 138.063C25.4734 138.033 25.3226 137.989 25.177 137.931C24.8256 137.81 24.4568 137.748 24.0853 137.748C23.7147 137.755 23.3558 137.88 23.0619 138.107C22.95 138.211 22.8463 138.323 22.7515 138.442Z" fill="white"/>
</g>
<path d="M22.0307 139.187C22 139.17 22.2715 138.769 22.3347 138.198C22.3979 137.627 22.2323 137.172 22.2664 137.172C22.3311 137.256 22.374 137.355 22.3911 137.459C22.5211 137.956 22.4601 138.484 22.2203 138.939C22.1247 139.106 22.0427 139.194 22.0307 139.187Z" fill="#263238"/>
<path d="M14.1968 149.195C14.3673 152.146 15.2492 155.144 16.612 158.178H22.541C23.8407 155.175 24.6663 152.18 24.813 149.195H14.1968Z" fill="#60686B"/>
<path d="M25.3056 148.254H13.7717V149.231H25.3056V148.254Z" fill="#B2B6BB"/>
<path opacity="0.2" d="M14.1968 149.195C14.2053 149.344 14.2172 149.495 14.2292 149.643H22.5444C22.5444 149.643 22.5956 154.742 20.8643 158.178H22.541C23.8356 155.187 24.6594 152.204 24.8112 149.231L14.1968 149.195Z" fill="black"/>
<path opacity="0.2" d="M22.5508 148.254V149.224L25.3055 149.232V148.254H22.5508Z" fill="black"/>
<path d="M168.824 148.706H182.335C183.034 148.706 183.705 148.985 184.198 149.481C184.692 149.975 184.97 150.647 184.97 151.349C184.97 152.065 184.685 152.753 184.181 153.261C183.674 153.767 182.988 154.053 182.274 154.053H168.828V148.706H168.824Z" fill="white"/>
<path d="M197.003 150.906V151.71C197.005 152.122 196.903 152.527 196.706 152.888C196.526 153.235 196.256 153.526 195.924 153.731C195.591 153.937 195.211 154.048 194.82 154.053H168.382C168.339 154.051 168.296 154.041 168.257 154.024C168.218 154.005 168.182 153.979 168.153 153.949C168.124 153.916 168.1 153.879 168.087 153.838C168.071 153.798 168.064 153.754 168.066 153.711V153.591C168.064 153.548 168.071 153.504 168.087 153.465C168.1 153.424 168.124 153.386 168.153 153.355C168.182 153.323 168.218 153.297 168.257 153.278C168.296 153.261 168.339 153.251 168.382 153.249H184.494C184.581 153.135 184.657 153.013 184.721 152.885C184.877 152.565 184.958 152.214 184.956 151.859V150.832C184.956 150.649 184.934 150.465 184.891 150.287C184.821 149.999 184.693 149.731 184.518 149.493H168.382C168.339 149.491 168.296 149.481 168.257 149.464C168.218 149.445 168.182 149.42 168.153 149.389C168.124 149.356 168.1 149.319 168.087 149.278C168.071 149.238 168.064 149.194 168.066 149.151V149.03C168.064 148.987 168.071 148.942 168.087 148.903C168.1 148.862 168.124 148.824 168.153 148.794C168.182 148.761 168.218 148.735 168.257 148.717C168.296 148.699 168.339 148.689 168.382 148.688H194.956C195.413 148.698 195.855 148.859 196.212 149.148C196.568 149.435 196.821 149.833 196.928 150.28C196.981 150.483 197.007 150.696 197.003 150.906Z" fill="#2B3048"/>
<path opacity="0.2" d="M197.003 150.906V151.71C197.005 152.122 196.903 152.527 196.706 152.888C196.526 153.235 196.256 153.526 195.924 153.731C195.591 153.937 195.211 154.048 194.82 154.053H168.382C168.339 154.051 168.296 154.041 168.257 154.024C168.218 154.005 168.182 153.979 168.153 153.949C168.124 153.916 168.1 153.879 168.087 153.838C168.071 153.798 168.064 153.754 168.066 153.711V153.591C168.064 153.548 168.071 153.504 168.087 153.465C168.1 153.424 168.124 153.386 168.153 153.355C168.182 153.323 168.218 153.297 168.257 153.278C168.296 153.261 168.339 153.251 168.382 153.249H184.494C184.581 153.135 184.657 153.013 184.721 152.885C184.877 152.565 184.958 152.214 184.956 151.859V150.832C184.956 150.649 184.934 150.465 184.891 150.287C184.821 149.999 184.693 149.731 184.518 149.493H168.382C168.339 149.491 168.296 149.481 168.257 149.464C168.218 149.445 168.182 149.42 168.153 149.389C168.124 149.356 168.1 149.319 168.087 149.278C168.071 149.238 168.064 149.194 168.066 149.151V149.03C168.064 148.987 168.071 148.942 168.087 148.903C168.1 148.862 168.124 148.824 168.153 148.794C168.182 148.761 168.218 148.735 168.257 148.717C168.296 148.699 168.339 148.689 168.382 148.688H194.956C195.413 148.698 195.855 148.859 196.212 149.148C196.568 149.435 196.821 149.833 196.928 150.28C196.981 150.483 197.007 150.696 197.003 150.906Z" fill="white"/>
<path opacity="0.1" d="M196.923 150.3H184.891C184.821 150.013 184.693 149.745 184.518 149.507H168.382C168.339 149.505 168.296 149.495 168.257 149.478C168.218 149.459 168.182 149.433 168.153 149.401C168.124 149.37 168.1 149.332 168.087 149.291C168.071 149.252 168.064 149.207 168.066 149.165V149.043C168.064 149.001 168.071 148.956 168.087 148.917C168.1 148.876 168.124 148.838 168.153 148.806C168.182 148.775 168.218 148.749 168.257 148.73C168.296 148.713 168.339 148.703 168.382 148.701H194.955C195.413 148.713 195.854 148.876 196.21 149.165C196.567 149.454 196.817 149.854 196.923 150.3Z" fill="black"/>
<path opacity="0.1" d="M168.824 151.381L170.781 151.47L168.824 151.525V151.381Z" fill="black"/>
<path opacity="0.1" d="M168.824 152.218L173.479 152.308L168.824 152.361V152.218Z" fill="black"/>
<path d="M180.548 158.201H166.92C166.352 158.201 165.808 157.975 165.407 157.573C165.006 157.171 164.781 156.625 164.781 156.056C164.781 155.522 164.992 155.009 165.369 154.631C165.746 154.253 166.258 154.041 166.79 154.041H180.548V158.201Z" fill="#2B3048"/>
<path opacity="0.2" d="M180.55 158.201H166.922C166.354 158.201 165.81 157.975 165.409 157.573C165.008 157.171 164.783 156.625 164.783 156.056C164.783 155.522 164.994 155.009 165.371 154.631C165.748 154.253 166.26 154.041 166.792 154.041H180.55V158.201Z" fill="black"/>
<path d="M195.588 158.2H180.041C179.485 158.2 178.951 157.98 178.559 157.585C178.165 157.191 177.945 156.656 177.945 156.098C177.945 155.554 178.159 155.033 178.543 154.646C178.929 154.261 179.449 154.046 179.991 154.046H195.585V158.206L195.588 158.2Z" fill="#F4F4F4"/>
<path d="M176.927 158.199H196.096C196.268 158.199 196.406 158.06 196.406 157.887C196.406 157.715 196.268 157.576 196.096 157.576H176.927C176.757 157.576 176.617 157.715 176.617 157.887C176.617 158.06 176.757 158.199 176.927 158.199Z" fill="#2B3048"/>
<path d="M176.927 154.664H196.096C196.268 154.664 196.406 154.525 196.406 154.352C196.406 154.18 196.268 154.041 196.096 154.041H176.927C176.757 154.041 176.617 154.18 176.617 154.352C176.617 154.525 176.757 154.664 176.927 154.664Z" fill="#2B3048"/>
<path opacity="0.2" d="M176.927 158.199H196.096C196.268 158.199 196.406 158.06 196.406 157.887C196.406 157.715 196.268 157.576 196.096 157.576H176.927C176.757 157.576 176.617 157.715 176.617 157.887C176.617 158.06 176.757 158.199 176.927 158.199Z" fill="#3F4249"/>
<path opacity="0.2" d="M176.927 154.664H196.096C196.268 154.664 196.406 154.525 196.406 154.352C196.406 154.18 196.268 154.041 196.096 154.041H176.927C176.757 154.041 176.617 154.18 176.617 154.352C176.617 154.525 176.757 154.664 176.927 154.664Z" fill="#3F4249"/>
<path opacity="0.1" d="M195.588 156.119L193.449 156.189L195.588 156.23V156.119Z" fill="black"/>
<path opacity="0.1" d="M195.588 155.163L190.5 155.233L195.588 155.276V155.163Z" fill="black"/>
<path d="M190.551 155.219C190.692 155.345 190.793 155.508 190.842 155.691C190.856 155.747 190.863 155.804 190.864 155.862C190.876 156.252 190.864 157.136 190.864 157.136L191.507 156.695L192.15 157.136V155.939C192.157 155.73 192.103 155.525 191.994 155.349C191.977 155.316 191.953 155.289 191.922 155.268C191.893 155.246 191.859 155.232 191.823 155.226L190.551 155.219Z" fill="#FFDC36"/>
<path opacity="0.2" d="M190.551 155.219C190.692 155.345 190.793 155.508 190.842 155.691L192.132 155.708C192.132 155.708 192.081 155.289 191.814 155.219H190.551Z" fill="black"/>
<path d="M165.278 142.607H178.052C178.85 142.607 179.618 142.926 180.182 143.492C180.747 144.058 181.064 144.828 181.064 145.628C181.064 146.447 180.74 147.232 180.162 147.812C179.584 148.392 178.801 148.717 177.984 148.717H165.278V142.607Z" fill="white"/>
<path d="M181.078 144.978V146.293C181.083 146.546 181.027 146.798 180.914 147.027C180.803 147.255 180.638 147.451 180.433 147.602C180.247 147.732 180.025 147.802 179.799 147.804H164.867C164.775 147.812 164.69 147.858 164.632 147.928C164.572 148 164.543 148.091 164.55 148.183V148.337C164.543 148.43 164.572 148.52 164.632 148.592C164.69 148.662 164.775 148.708 164.867 148.717H190.66C191.401 148.717 192.054 148.277 192.45 147.602C192.712 147.145 192.849 146.629 192.845 146.102V145.064C192.847 144.698 192.777 144.335 192.641 143.995C192.31 143.174 191.607 142.607 190.793 142.607H164.867C164.775 142.616 164.69 142.661 164.632 142.732C164.572 142.803 164.543 142.895 164.55 142.987V143.141C164.543 143.233 164.572 143.325 164.632 143.396C164.69 143.466 164.775 143.512 164.867 143.521H179.843C180.02 143.524 180.194 143.569 180.353 143.651C180.51 143.733 180.646 143.851 180.752 143.995C180.965 144.278 181.08 144.624 181.078 144.978Z" fill="#2B3048"/>
<path opacity="0.1" d="M164.55 148.184V148.338C164.543 148.43 164.572 148.521 164.632 148.593C164.69 148.663 164.775 148.709 164.867 148.718H190.66C191.401 148.718 192.054 148.278 192.45 147.603H180.433C180.247 147.733 180.025 147.803 179.799 147.804H164.867C164.775 147.813 164.69 147.859 164.632 147.929C164.572 148.001 164.543 148.092 164.55 148.184Z" fill="black"/>
<path opacity="0.1" d="M165.282 145.659L167.196 145.762L165.282 145.823V145.659Z" fill="black"/>
<path opacity="0.1" d="M165.282 144.256L169.834 144.358L165.282 144.42V144.256Z" fill="black"/>
<path d="M169.791 144.338C169.608 144.463 169.467 144.642 169.39 144.851C169.373 144.907 169.362 144.964 169.359 145.022C169.342 145.445 169.359 146.402 169.359 146.402L168.472 145.923L167.587 146.402V145.104C167.58 144.872 167.657 144.644 167.803 144.464C167.832 144.427 167.87 144.394 167.913 144.372C167.954 144.348 168.001 144.334 168.049 144.331L169.791 144.338Z" fill="#FFDC36"/>
<path opacity="0.2" d="M169.788 144.34C169.605 144.465 169.464 144.644 169.387 144.853L167.61 144.873C167.61 144.873 167.68 144.417 168.046 144.342L169.788 144.34Z" fill="black"/>
<defs>
<linearGradient id="paint0_linear_1614_106234" x1="101.454" y1="74.8604" x2="107.281" y2="74.8604" gradientUnits="userSpaceOnUse">
<stop stop-color="#FFDC36"/>
<stop offset="1" stop-color="#FFA800"/>
</linearGradient>
</defs>
</svg>
