<svg width="198" height="168" viewBox="0 0 198 168" fill="none" xmlns="http://www.w3.org/2000/svg">
<path d="M48.9767 160.074C48.9767 160.074 25.9863 158.638 10.1804 130.407C-5.62544 102.176 -2.75165 59.1117 16.886 35.1871C36.5236 11.2625 67.1774 3.12807 96.3943 10.784C110.629 14.5114 120.122 24.1818 128.327 35.8474C135.473 46.0106 143.51 55.8006 154.325 62.2315C165.035 68.5955 176.046 73.6771 181.454 85.7734C194.616 115.229 185.003 149.489 153.87 161.031C120.343 173.472 64.3036 166.773 48.9767 160.074Z" fill="#FDDEA3"/>
<path opacity="0.7" d="M48.9767 160.074C48.9767 160.074 25.9863 158.638 10.1804 130.407C-5.62544 102.176 -2.75165 59.1117 16.886 35.1871C36.5236 11.2625 67.1774 3.12807 96.3943 10.784C110.629 14.5114 120.122 24.1818 128.327 35.8474C135.473 46.0106 143.51 55.8006 154.325 62.2315C165.035 68.5955 176.046 73.6771 181.454 85.7734C194.616 115.229 185.003 149.489 153.87 161.031C120.343 173.472 64.3036 166.773 48.9767 160.074Z" fill="white"/>
<path d="M101.718 154.758L96.6269 154.013L96.3246 149.164L96.2168 146.518L102.214 146.562L102.137 149.164L101.718 154.758Z" fill="#FA898F"/>
<path d="M102.398 149.141H96.0264V151.924H102.398V149.141Z" fill="#3F4249"/>
<path opacity="0.2" d="M100.762 154.052L100.649 151.807C100.641 151.662 100.579 151.526 100.476 151.423C100.368 151.316 100.227 151.249 100.076 151.231L96.3739 150.778L96.3281 150.164H102.138L101.683 155.188L100.762 154.052Z" fill="#23213D"/>
<path opacity="0.2" d="M101.275 152.208L101.131 152.045C100.879 151.76 100.568 151.534 100.22 151.38C99.8724 151.226 99.4957 151.149 99.1155 151.154C98.7355 151.159 98.3609 151.246 98.0173 151.408C97.6736 151.572 97.3689 151.806 97.1238 152.097L97.0454 152.203C96.7767 152.519 96.629 152.921 96.6288 153.336V154.009C96.6296 154.397 96.5747 154.784 96.4654 155.155L95.9753 156.981C95.8477 157.423 95.7834 157.883 95.7842 158.343V158.574C95.7904 158.746 95.8595 158.911 95.9786 159.035C96.034 159.093 96.1008 159.139 96.1748 159.168C96.2488 159.199 96.3284 159.212 96.4083 159.211H102.136C102.215 159.214 102.295 159.202 102.37 159.175C102.445 159.144 102.513 159.096 102.569 159.037C102.628 158.977 102.674 158.906 102.706 158.828C102.74 158.747 102.759 158.661 102.76 158.574V158.487C102.76 157.953 102.681 157.423 102.523 156.912L101.948 155.124C101.814 154.713 101.744 154.283 101.739 153.85L101.723 153.336C101.707 152.914 101.549 152.511 101.275 152.19V152.208Z" fill="white"/>
<path d="M101.275 152.208L101.131 152.045C100.879 151.76 100.568 151.534 100.22 151.38C99.8724 151.226 99.4957 151.149 99.1155 151.154C98.7355 151.159 98.3609 151.246 98.0173 151.408C97.6736 151.572 97.3689 151.806 97.1238 152.097L97.0454 152.203C96.7767 152.519 96.629 152.921 96.6288 153.336V154.009C96.6296 154.397 96.5747 154.784 96.4654 155.155L95.9753 156.981C95.8477 157.423 95.7834 157.883 95.7842 158.343V158.574C95.7904 158.746 95.8595 158.911 95.9786 159.035C96.034 159.093 96.1008 159.139 96.1748 159.168C96.2488 159.199 96.3284 159.212 96.4083 159.211H102.136C102.215 159.214 102.295 159.202 102.37 159.175C102.445 159.144 102.513 159.096 102.569 159.037C102.628 158.977 102.674 158.906 102.706 158.828C102.74 158.747 102.759 158.661 102.76 158.574V158.487C102.76 157.953 102.681 157.423 102.523 156.912L101.948 155.124C101.814 154.713 101.744 154.283 101.739 153.85L101.723 153.336C101.707 152.914 101.549 152.511 101.275 152.19V152.208Z" fill="#23213D"/>
<path d="M98.0812 153.711C98.0925 153.713 98.1041 153.713 98.1151 153.71C98.126 153.706 98.1361 153.702 98.1449 153.693C98.4697 153.521 98.8314 153.431 99.1987 153.431C99.566 153.431 99.9277 153.521 100.252 153.693C100.269 153.705 100.288 153.711 100.308 153.715C100.327 153.718 100.346 153.718 100.365 153.715C100.404 153.7 100.436 153.669 100.453 153.631C100.462 153.612 100.467 153.59 100.468 153.569C100.469 153.548 100.467 153.526 100.46 153.507C100.453 153.487 100.442 153.467 100.429 153.451C100.415 153.436 100.399 153.425 100.382 153.415C100.017 153.215 99.6075 153.109 99.1913 153.109C98.7752 153.109 98.3658 153.215 98.0012 153.415C97.9687 153.436 97.9448 153.469 97.9342 153.507C97.9203 153.541 97.9192 153.579 97.9308 153.613C97.9425 153.648 97.9664 153.675 97.9979 153.693C98.0229 153.71 98.0518 153.716 98.0812 153.716V153.711Z" fill="#F4F4F4"/>
<path d="M98.0824 154.527C98.1053 154.529 98.1282 154.522 98.1461 154.507C98.4708 154.335 98.8326 154.245 99.1999 154.245C99.5671 154.245 99.9288 154.335 100.254 154.507C100.27 154.52 100.289 154.527 100.309 154.529C100.328 154.534 100.348 154.534 100.366 154.529C100.386 154.522 100.403 154.511 100.419 154.498C100.433 154.483 100.445 154.466 100.455 154.447C100.463 154.427 100.468 154.406 100.469 154.385C100.471 154.363 100.468 154.342 100.461 154.322C100.454 154.303 100.444 154.283 100.43 154.267C100.417 154.25 100.401 154.239 100.383 154.229C100.018 154.028 99.6086 153.923 99.1925 153.923C98.7764 153.923 98.367 154.028 98.0024 154.229C97.9695 154.25 97.9457 154.285 97.9354 154.322C97.9222 154.357 97.9213 154.393 97.9329 154.427C97.9447 154.462 97.9681 154.491 97.9991 154.509C98.0246 154.522 98.0535 154.529 98.0824 154.527Z" fill="#F4F4F4"/>
<path d="M98.0816 155.312C98.0927 155.314 98.1041 155.314 98.1151 155.311C98.126 155.308 98.1363 155.303 98.1453 155.296C98.4699 155.124 98.8318 155.034 99.199 155.034C99.5663 155.034 99.928 155.124 100.253 155.296C100.269 155.306 100.288 155.312 100.307 155.312C100.325 155.317 100.344 155.317 100.362 155.312C100.381 155.306 100.398 155.294 100.411 155.28C100.426 155.267 100.438 155.25 100.446 155.232C100.455 155.213 100.46 155.193 100.462 155.172C100.466 155.15 100.466 155.131 100.462 155.109C100.457 155.09 100.448 155.07 100.434 155.054C100.422 155.039 100.406 155.026 100.388 155.018C100.024 154.816 99.6145 154.71 99.1982 154.71C98.7818 154.71 98.3724 154.816 98.0081 155.018C97.9752 155.039 97.9514 155.073 97.9411 155.111C97.9272 155.15 97.9272 155.193 97.9411 155.232C97.955 155.258 97.9757 155.28 98.0009 155.296C98.0262 155.311 98.0553 155.319 98.0848 155.319L98.0816 155.312Z" fill="#F4F4F4"/>
<path opacity="0.3" d="M102.757 158.492V158.579C102.751 158.751 102.682 158.914 102.564 159.04C102.509 159.099 102.442 159.145 102.367 159.175C102.293 159.206 102.213 159.221 102.133 159.217H96.4051C96.3257 159.222 96.2462 159.209 96.1731 159.178C96.0977 159.148 96.0293 159.103 95.9721 159.045C95.9131 158.983 95.8661 158.911 95.8332 158.832C95.8002 158.752 95.7826 158.666 95.781 158.579V158.348C95.7782 158.261 95.7837 158.173 95.7973 158.086H102.757V158.492Z" fill="#82848E"/>
<path d="M115.894 154.958L110.805 154.216L110.503 149.367L110.401 146.718L116.397 146.762L116.32 149.363L115.894 154.958Z" fill="#FA898F"/>
<path d="M116.61 149.141H110.238V151.924H116.61V149.141Z" fill="#3F4249"/>
<path opacity="0.2" d="M114.932 154.203L114.82 151.87C114.811 151.721 114.749 151.578 114.645 151.47C114.539 151.359 114.398 151.288 114.246 151.269L110.551 150.802L110.505 150.164H116.314L115.862 155.388L114.932 154.203Z" fill="#23213D"/>
<path opacity="0.2" d="M115.452 152.415L115.308 152.251C115.055 151.966 114.745 151.74 114.397 151.586C114.049 151.433 113.672 151.356 113.292 151.361C112.912 151.365 112.538 151.452 112.194 151.614C111.85 151.778 111.546 152.012 111.301 152.304L111.221 152.41C110.953 152.728 110.806 153.129 110.806 153.543V154.216C110.807 154.604 110.751 154.99 110.642 155.362L110.152 157.187C110.025 157.631 109.96 158.089 109.961 158.549V158.78C109.966 158.952 110.035 159.118 110.154 159.242C110.209 159.299 110.276 159.345 110.35 159.375C110.424 159.406 110.504 159.42 110.583 159.417H116.314C116.394 159.42 116.473 159.409 116.548 159.381C116.623 159.348 116.691 159.303 116.747 159.244C116.806 159.183 116.853 159.113 116.885 159.034C116.918 158.954 116.936 158.867 116.939 158.78V158.694C116.938 158.16 116.858 157.628 116.702 157.117L116.12 155.336C115.986 154.925 115.917 154.494 115.913 154.062L115.896 153.548C115.88 153.127 115.722 152.723 115.449 152.402L115.452 152.415Z" fill="white"/>
<path d="M115.452 152.415L115.308 152.251C115.055 151.966 114.745 151.74 114.397 151.586C114.049 151.433 113.672 151.356 113.292 151.361C112.912 151.365 112.538 151.452 112.194 151.614C111.85 151.778 111.546 152.012 111.301 152.304L111.221 152.41C110.953 152.728 110.806 153.129 110.806 153.543V154.216C110.807 154.604 110.751 154.99 110.642 155.362L110.152 157.187C110.025 157.631 109.96 158.089 109.961 158.549V158.78C109.966 158.952 110.035 159.118 110.154 159.242C110.209 159.299 110.276 159.345 110.35 159.375C110.424 159.406 110.504 159.42 110.583 159.417H116.314C116.394 159.42 116.473 159.409 116.548 159.381C116.623 159.348 116.691 159.303 116.747 159.244C116.806 159.183 116.853 159.113 116.885 159.034C116.918 158.954 116.936 158.867 116.939 158.78V158.694C116.938 158.16 116.858 157.628 116.702 157.117L116.12 155.336C115.986 154.925 115.917 154.494 115.913 154.062L115.896 153.548C115.88 153.127 115.722 152.723 115.449 152.402L115.452 152.415Z" fill="#23213D"/>
<path d="M112.256 153.911C112.268 153.913 112.28 153.911 112.291 153.908C112.302 153.906 112.312 153.9 112.322 153.893C112.646 153.721 113.008 153.631 113.376 153.631C113.743 153.631 114.105 153.721 114.429 153.893C114.445 153.905 114.464 153.911 114.483 153.915C114.503 153.918 114.522 153.918 114.542 153.915C114.561 153.908 114.578 153.897 114.593 153.882C114.609 153.869 114.621 153.851 114.629 153.831C114.638 153.811 114.644 153.79 114.645 153.769C114.645 153.748 114.641 153.726 114.635 153.707C114.629 153.687 114.619 153.667 114.606 153.651C114.591 153.636 114.576 153.625 114.558 153.615C114.194 153.414 113.784 153.307 113.368 153.307C112.952 153.307 112.542 153.414 112.178 153.615C112.145 153.636 112.121 153.669 112.109 153.707C112.096 153.746 112.096 153.787 112.109 153.826C112.123 153.854 112.144 153.877 112.17 153.893C112.194 153.908 112.223 153.916 112.252 153.916L112.256 153.911Z" fill="#F4F4F4"/>
<path d="M112.256 154.727C112.28 154.728 112.303 154.722 112.322 154.707C112.646 154.535 113.008 154.445 113.376 154.445C113.743 154.445 114.105 154.535 114.429 154.707C114.445 154.72 114.463 154.727 114.483 154.728C114.502 154.732 114.523 154.732 114.542 154.728C114.561 154.722 114.578 154.71 114.593 154.697C114.623 154.668 114.642 154.627 114.645 154.584C114.645 154.563 114.642 154.542 114.635 154.522C114.629 154.502 114.619 154.483 114.606 154.466C114.592 154.452 114.576 154.439 114.558 154.429C114.194 154.227 113.784 154.123 113.368 154.123C112.952 154.123 112.543 154.227 112.178 154.429C112.145 154.452 112.121 154.484 112.109 154.522C112.096 154.561 112.096 154.602 112.109 154.642C112.123 154.669 112.144 154.692 112.17 154.709C112.196 154.723 112.226 154.73 112.256 154.727Z" fill="#F4F4F4"/>
<path d="M112.255 155.512C112.267 155.514 112.278 155.514 112.289 155.511C112.301 155.507 112.311 155.503 112.321 155.496C112.645 155.324 113.006 155.234 113.373 155.234C113.74 155.234 114.102 155.324 114.426 155.496C114.443 155.506 114.462 155.512 114.482 155.512C114.5 155.517 114.519 155.517 114.537 155.512C114.556 155.506 114.573 155.494 114.586 155.48C114.601 155.466 114.613 155.45 114.621 155.432C114.629 155.412 114.635 155.393 114.637 155.372C114.641 155.35 114.641 155.329 114.637 155.309C114.631 155.29 114.621 155.27 114.608 155.254C114.596 155.237 114.58 155.226 114.562 155.218C114.198 155.015 113.789 154.908 113.373 154.908C112.956 154.908 112.547 155.015 112.183 155.218C112.15 155.239 112.125 155.272 112.115 155.311C112.102 155.35 112.102 155.393 112.115 155.432C112.129 155.458 112.149 155.48 112.174 155.496C112.2 155.511 112.229 155.519 112.258 155.519L112.255 155.512Z" fill="#F4F4F4"/>
<path opacity="0.3" d="M116.936 158.691V158.779C116.929 158.951 116.86 159.116 116.741 159.241C116.686 159.298 116.619 159.344 116.545 159.375C116.471 159.406 116.392 159.419 116.312 159.417H110.581C110.501 159.422 110.422 159.409 110.349 159.378C110.274 159.347 110.205 159.303 110.148 159.246C110.089 159.183 110.043 159.111 110.01 159.033C109.977 158.952 109.96 158.866 109.958 158.779V158.548C109.954 158.46 109.96 158.373 109.974 158.286H116.936V158.691Z" fill="#82848E"/>
<path fill-rule="evenodd" clip-rule="evenodd" d="M148.631 98.0597H135.725V82.5063L145.69 82.4916L148.631 82.0151V98.0597Z" fill="#23213D"/>
<path opacity="0.2" fill-rule="evenodd" clip-rule="evenodd" d="M148.63 98.0597H145.689V82.5063L148.63 82.0151V98.0597Z" fill="#82848E"/>
<path d="M135.725 82.5063L139.155 82.0151H148.631L145.69 82.5063H135.725Z" fill="#23213D"/>
<path opacity="0.2" d="M135.725 82.5063L139.155 82.0151H148.631L145.69 82.5063H135.725Z" fill="white"/>
<g opacity="0.1">
<path opacity="0.1" d="M136.052 83.9799C136.856 83.9559 137.659 83.9385 138.461 83.9275C139.264 83.9166 140.067 83.909 140.871 83.9046C141.675 83.9046 142.477 83.9046 143.281 83.9046C144.085 83.9046 144.887 83.9046 145.691 83.9243H145.681C146.553 83.772 147.427 83.6247 148.305 83.4888C147.439 83.6803 146.57 83.8604 145.701 84.0356H145.691C144.887 84.0503 144.085 84.0503 143.281 84.0552C142.477 84.0602 141.675 84.0552 140.871 84.0552C140.067 84.0552 139.265 84.0471 138.461 84.0323C137.658 84.0176 136.856 84.0045 136.052 83.9799Z" fill="#82848E"/>
</g>
<g opacity="0.1">
<path opacity="0.1" d="M136.052 85.3715C136.856 85.3475 137.659 85.3301 138.461 85.3191C139.264 85.3082 140.067 85.3006 140.871 85.2962C141.675 85.2962 142.477 85.2962 143.281 85.2962C144.085 85.2962 144.887 85.2962 145.691 85.3159H145.681C146.553 85.1636 147.427 85.0163 148.305 84.8804C147.439 85.0719 146.57 85.252 145.701 85.4272H145.691C144.887 85.4419 144.085 85.4419 143.281 85.4468C142.477 85.4518 141.675 85.4468 140.871 85.4468C140.067 85.4468 139.265 85.4387 138.461 85.4239C137.658 85.4092 136.856 85.3961 136.052 85.3715Z" fill="#82848E"/>
</g>
<g opacity="0.1">
<path opacity="0.1" d="M136.052 86.7631C136.856 86.7391 137.659 86.7217 138.461 86.7107C139.264 86.6998 140.067 86.6922 140.871 86.6878C141.675 86.6878 142.477 86.6878 143.281 86.6878C144.085 86.6878 144.887 86.6878 145.691 86.7075H145.681C146.553 86.5552 147.427 86.4079 148.305 86.272C147.439 86.4635 146.57 86.6436 145.701 86.8188H145.691C144.887 86.8335 144.085 86.8335 143.281 86.8384C142.477 86.8434 141.675 86.8384 140.871 86.8384C140.067 86.8384 139.265 86.8303 138.461 86.8155C137.658 86.8008 136.856 86.7877 136.052 86.7631Z" fill="#82848E"/>
</g>
<g opacity="0.1">
<path opacity="0.1" d="M136.052 88.1547C136.856 88.1307 137.659 88.1133 138.461 88.1023C139.264 88.0914 140.067 88.0838 140.871 88.0794C141.675 88.0794 142.477 88.0794 143.281 88.0794C144.085 88.0794 144.887 88.0794 145.691 88.0991H145.681C146.553 87.9468 147.427 87.7995 148.305 87.6636C147.439 87.8551 146.57 88.0352 145.701 88.2104H145.691C144.887 88.2251 144.085 88.2251 143.281 88.23C142.477 88.235 141.675 88.23 140.871 88.23C140.067 88.23 139.265 88.2219 138.461 88.2071C137.658 88.1924 136.856 88.1793 136.052 88.1547Z" fill="#82848E"/>
</g>
<g opacity="0.1">
<path opacity="0.1" d="M136.052 89.5463C136.856 89.5223 137.659 89.5049 138.461 89.4939C139.264 89.483 140.067 89.4754 140.871 89.471C141.675 89.471 142.477 89.471 143.281 89.471C144.085 89.471 144.887 89.471 145.691 89.4907H145.681C146.553 89.3384 147.427 89.1911 148.305 89.0552C147.439 89.2467 146.57 89.4268 145.701 89.602H145.691C144.887 89.6167 144.085 89.6167 143.281 89.6216C142.477 89.6266 141.675 89.6216 140.871 89.6216C140.067 89.6216 139.265 89.6135 138.461 89.5987C137.658 89.584 136.856 89.5709 136.052 89.5463Z" fill="#82848E"/>
</g>
<g opacity="0.1">
<path opacity="0.1" d="M136.052 90.9379C136.856 90.9139 137.659 90.8965 138.461 90.8855C139.264 90.8746 140.067 90.867 140.871 90.8626C141.675 90.8626 142.477 90.8626 143.281 90.8626C144.085 90.8626 144.887 90.8626 145.691 90.8823H145.681C146.553 90.73 147.427 90.5827 148.305 90.4468C147.439 90.6383 146.57 90.8184 145.701 90.9936H145.691C144.887 91.0083 144.085 91.0083 143.281 91.0133C142.477 91.0182 141.675 91.0133 140.871 91.0133C140.067 91.0133 139.265 91.0051 138.461 90.9903C137.658 90.9756 136.856 90.9625 136.052 90.9379Z" fill="#82848E"/>
</g>
<g opacity="0.1">
<path opacity="0.1" d="M136.052 92.33C136.856 92.306 137.659 92.2886 138.461 92.2776C139.264 92.2667 140.067 92.2591 140.871 92.2547C141.675 92.2547 142.477 92.2547 143.281 92.2547C144.085 92.2547 144.887 92.2547 145.691 92.2744H145.681C146.553 92.1221 147.427 91.9748 148.305 91.8389C147.439 92.0304 146.57 92.2105 145.701 92.3857H145.691C144.887 92.4004 144.085 92.4004 143.281 92.4053C142.477 92.4103 141.675 92.4053 140.871 92.4053C140.067 92.4053 139.265 92.3972 138.461 92.3824C137.658 92.3677 136.856 92.3546 136.052 92.33Z" fill="#82848E"/>
</g>
<g opacity="0.1">
<path opacity="0.1" d="M136.052 93.7211C136.856 93.6971 137.659 93.6797 138.461 93.6687C139.264 93.6578 140.067 93.6502 140.871 93.6458C141.675 93.6458 142.477 93.6458 143.281 93.6458C144.085 93.6458 144.887 93.6458 145.691 93.6655H145.681C146.553 93.5132 147.427 93.3659 148.305 93.23C147.439 93.4215 146.57 93.6016 145.701 93.7768H145.691C144.887 93.7915 144.085 93.7915 143.281 93.7965C142.477 93.8014 141.675 93.7965 140.871 93.7965C140.067 93.7965 139.265 93.7883 138.461 93.7735C137.658 93.7588 136.856 93.7457 136.052 93.7211Z" fill="#82848E"/>
</g>
<g opacity="0.1">
<path opacity="0.1" d="M136.052 95.1127C136.856 95.0887 137.659 95.0713 138.461 95.0603C139.264 95.0494 140.067 95.0418 140.871 95.0374C141.675 95.0374 142.477 95.0374 143.281 95.0374C144.085 95.0374 144.887 95.0374 145.691 95.0571H145.681C146.553 94.9048 147.427 94.7575 148.305 94.6216C147.439 94.8131 146.57 94.9932 145.701 95.1684H145.691C144.887 95.1831 144.085 95.1831 143.281 95.1881C142.477 95.193 141.675 95.1881 140.871 95.1881C140.067 95.1881 139.265 95.1799 138.461 95.1651C137.658 95.1504 136.856 95.1373 136.052 95.1127Z" fill="#82848E"/>
</g>
<g opacity="0.1">
<path opacity="0.1" d="M136.052 96.5043C136.856 96.4803 137.659 96.4629 138.461 96.452C139.264 96.441 140.067 96.4334 140.871 96.429C141.675 96.429 142.477 96.429 143.281 96.429C144.085 96.429 144.887 96.429 145.691 96.4487H145.681C146.553 96.2964 147.427 96.1491 148.305 96.0132C147.439 96.2047 146.57 96.3848 145.701 96.56H145.691C144.887 96.5747 144.085 96.5747 143.281 96.5797C142.477 96.5846 141.675 96.5797 140.871 96.5797C140.067 96.5797 139.265 96.5715 138.461 96.5567C137.658 96.542 136.856 96.5289 136.052 96.5043Z" fill="#82848E"/>
</g>
<path fill-rule="evenodd" clip-rule="evenodd" d="M143.568 103.626H130.661V88.0727L140.627 88.058L143.568 87.5815V103.626Z" fill="#23213D"/>
<path opacity="0.2" fill-rule="evenodd" clip-rule="evenodd" d="M143.567 103.626H140.626V88.0727L143.567 87.5815V103.626Z" fill="#82848E"/>
<path d="M130.661 88.0727L134.092 87.5815H143.568L140.627 88.0727H130.661Z" fill="#23213D"/>
<path opacity="0.2" d="M130.661 88.0727L134.092 87.5815H143.568L140.627 88.0727H130.661Z" fill="white"/>
<g opacity="0.1">
<path opacity="0.1" d="M130.986 89.5463C131.79 89.5223 132.593 89.5049 133.396 89.4939C134.199 89.483 135.002 89.4754 135.806 89.471C136.61 89.471 137.412 89.471 138.216 89.471C139.019 89.471 139.821 89.471 140.625 89.4907H140.615C141.488 89.3384 142.362 89.1911 143.239 89.0552C142.373 89.2467 141.504 89.4268 140.635 89.602H140.625C139.821 89.6167 139.019 89.6167 138.216 89.6216C137.412 89.6266 136.61 89.6216 135.806 89.6216C135.002 89.6216 134.2 89.6135 133.396 89.5987C132.592 89.584 131.79 89.5709 130.986 89.5463Z" fill="#82848E"/>
</g>
<g opacity="0.1">
<path opacity="0.1" d="M130.986 90.9381C131.79 90.9141 132.593 90.8967 133.396 90.8858C134.199 90.8748 135.002 90.865 135.806 90.8563C136.61 90.8563 137.412 90.8563 138.216 90.8563C139.019 90.8563 139.821 90.8563 140.625 90.8759H140.615C141.488 90.7237 142.362 90.5763 143.239 90.4404C142.373 90.632 141.504 90.8121 140.635 90.9873H140.625C139.821 91.002 139.019 91.002 138.216 91.0069C137.412 91.0118 136.61 91.0069 135.806 91.0069C135.002 91.0069 134.2 90.9987 133.396 90.984C132.592 90.9692 131.79 90.9627 130.986 90.9381Z" fill="#82848E"/>
</g>
<g opacity="0.1">
<path opacity="0.1" d="M130.986 92.33C131.79 92.306 132.593 92.2886 133.396 92.2776C134.199 92.2667 135.002 92.2591 135.806 92.2547C136.61 92.2547 137.412 92.2547 138.216 92.2547C139.019 92.2547 139.821 92.2547 140.625 92.2744H140.615C141.488 92.1221 142.362 91.9748 143.239 91.8389C142.373 92.0304 141.504 92.2105 140.635 92.3857H140.625C139.821 92.4004 139.019 92.4004 138.216 92.4053C137.412 92.4103 136.61 92.4053 135.806 92.4053C135.002 92.4053 134.2 92.3972 133.396 92.3824C132.592 92.3677 131.79 92.3546 130.986 92.33Z" fill="#82848E"/>
</g>
<g opacity="0.1">
<path opacity="0.1" d="M130.986 93.7213C131.79 93.6973 132.593 93.6799 133.396 93.669C134.199 93.658 135.002 93.6482 135.806 93.6395C136.61 93.6395 137.412 93.6395 138.216 93.6395C139.019 93.6395 139.821 93.6395 140.625 93.6591H140.615C141.488 93.5069 142.362 93.3595 143.239 93.2236C142.373 93.4152 141.504 93.5953 140.635 93.7705H140.625C139.821 93.7852 139.019 93.7852 138.216 93.7901C137.412 93.795 136.61 93.7901 135.806 93.7901C135.002 93.7901 134.2 93.7819 133.396 93.7672C132.592 93.7524 131.79 93.7459 130.986 93.7213Z" fill="#82848E"/>
</g>
<g opacity="0.1">
<path opacity="0.1" d="M130.986 95.1127C131.79 95.0887 132.593 95.0713 133.396 95.0603C134.199 95.0494 135.002 95.0418 135.806 95.0374C136.61 95.0374 137.412 95.0374 138.216 95.0374C139.019 95.0374 139.821 95.0374 140.625 95.0571H140.615C141.488 94.9048 142.362 94.7575 143.239 94.6216C142.373 94.8131 141.504 94.9932 140.635 95.1684H140.625C139.821 95.1831 139.019 95.1831 138.216 95.1881C137.412 95.193 136.61 95.1881 135.806 95.1881C135.002 95.1881 134.2 95.1799 133.396 95.1651C132.592 95.1504 131.79 95.1373 130.986 95.1127Z" fill="#82848E"/>
</g>
<g opacity="0.1">
<path opacity="0.1" d="M130.986 96.505C131.79 96.481 132.593 96.4636 133.396 96.4526C134.199 96.4417 135.002 96.4318 135.806 96.4232C136.61 96.4232 137.412 96.4232 138.216 96.4232C139.019 96.4232 139.821 96.4232 140.625 96.4428H140.615C141.488 96.2906 142.362 96.1432 143.239 96.0073C142.373 96.1989 141.504 96.379 140.635 96.5542H140.625C139.821 96.5689 139.019 96.5689 138.216 96.5738C137.412 96.5787 136.61 96.5738 135.806 96.5738C135.002 96.5738 134.2 96.5656 133.396 96.5509C132.592 96.5361 131.79 96.5296 130.986 96.505Z" fill="#82848E"/>
</g>
<g opacity="0.1">
<path opacity="0.1" d="M130.986 97.8964C131.79 97.8724 132.593 97.855 133.396 97.844C134.199 97.8331 135.002 97.8255 135.806 97.8211C136.61 97.8211 137.412 97.8211 138.216 97.8211C139.019 97.8211 139.821 97.8211 140.625 97.8408H140.615C141.488 97.6885 142.362 97.5412 143.239 97.4053C142.373 97.5968 141.504 97.7769 140.635 97.9521H140.625C139.821 97.9668 139.019 97.9668 138.216 97.9717C137.412 97.9767 136.61 97.9717 135.806 97.9717C135.002 97.9717 134.2 97.9636 133.396 97.9488C132.592 97.9341 131.79 97.921 130.986 97.8964Z" fill="#82848E"/>
</g>
<g opacity="0.1">
<path opacity="0.1" d="M130.986 99.2877C131.79 99.2637 132.593 99.2463 133.396 99.2354C134.199 99.2244 135.002 99.2146 135.806 99.2059C136.61 99.2059 137.412 99.2059 138.216 99.2059C139.019 99.2059 139.821 99.2059 140.625 99.2255H140.615C141.488 99.0733 142.362 98.9259 143.239 98.79C142.373 98.9816 141.504 99.1617 140.635 99.3369H140.625C139.821 99.3516 139.019 99.3516 138.216 99.3565C137.412 99.3614 136.61 99.3565 135.806 99.3565C135.002 99.3565 134.2 99.3483 133.396 99.3336C132.592 99.3189 131.79 99.3123 130.986 99.2877Z" fill="#82848E"/>
</g>
<g opacity="0.1">
<path opacity="0.1" d="M130.986 100.679C131.79 100.655 132.593 100.638 133.396 100.627C134.199 100.616 135.002 100.608 135.806 100.604C136.61 100.604 137.412 100.604 138.216 100.604C139.019 100.604 139.821 100.604 140.625 100.623H140.615C141.488 100.471 142.362 100.324 143.239 100.188C142.373 100.38 141.504 100.56 140.635 100.735H140.625C139.821 100.75 139.019 100.75 138.216 100.754C137.412 100.759 136.61 100.754 135.806 100.754C135.002 100.754 134.2 100.746 133.396 100.732C132.592 100.717 131.79 100.704 130.986 100.679Z" fill="#82848E"/>
</g>
<g opacity="0.1">
<path opacity="0.1" d="M130.986 102.071C131.79 102.047 132.593 102.03 133.396 102.019C134.199 102.008 135.002 101.998 135.806 101.989C136.61 101.989 137.412 101.989 138.216 101.989C139.019 101.989 139.821 101.989 140.625 102.009H140.615C141.488 101.856 142.362 101.709 143.239 101.573C142.373 101.765 141.504 101.945 140.635 102.12H140.625C139.821 102.135 139.019 102.135 138.216 102.14C137.412 102.145 136.61 102.14 135.806 102.14C135.002 102.14 134.2 102.132 133.396 102.117C132.592 102.102 131.79 102.096 130.986 102.071Z" fill="#82848E"/>
</g>
<path d="M197.755 160L0.463808 159.673C0.398786 159.673 0.336539 159.647 0.290632 159.601C0.244561 159.555 0.21875 159.493 0.21875 159.427C0.21875 159.362 0.244561 159.3 0.290632 159.254C0.336539 159.208 0.398786 159.182 0.463808 159.182L197.755 159.509C197.82 159.509 197.883 159.535 197.928 159.581C197.974 159.627 198 159.689 198 159.755C198 159.82 197.974 159.882 197.928 159.928C197.883 159.974 197.82 160 197.755 160Z" fill="#FDDEA3"/>
<path d="M141.851 150.522H136.052V159.455H141.851V150.522Z" fill="url(#paint0_linear_576_97736)"/>
<path d="M141.851 150.522H140.056V159.455H141.851V150.522Z" fill="#CF8900"/>
<path opacity="0.2" d="M140.041 152.251L136.052 151.596V150.45H140.041V152.251Z" fill="#82848E"/>
<path d="M153.777 150.522H147.978V159.455H153.777V150.522Z" fill="url(#paint1_linear_576_97736)"/>
<path d="M153.777 150.522H151.981V159.455H153.777V150.522Z" fill="#CF8900"/>
<path opacity="0.2" d="M151.967 154.543L147.978 154.052V150.45H151.967V154.543Z" fill="#82848E"/>
<path d="M68.3349 150.522H62.5352V159.291H68.3349V150.522Z" fill="url(#paint2_linear_576_97736)"/>
<path d="M68.3335 150.522H66.5381V159.291H68.3335V150.522Z" fill="#CF8900"/>
<path opacity="0.2" d="M66.5247 152.251L62.5352 151.596V150.45H66.5247V152.251Z" fill="#82848E"/>
<path d="M155.084 102.307H59.5117V150.604H155.084V102.307Z" fill="url(#paint3_linear_576_97736)"/>
<path d="M155.001 102.225H145.198V150.614H155.001V102.225Z" fill="#CF8900"/>
<path d="M145.201 102.153H59.5938V103.463H145.201V102.153Z" fill="#CF8900"/>
<path d="M159.74 97.9683H55.1816V102.225H159.74V97.9683Z" fill="url(#paint4_linear_576_97736)"/>
<path d="M159.74 97.9683H146.834V102.225H159.74V97.9683Z" fill="#CF8900"/>
<path d="M127.345 94.2948L120.944 75.3033C120.338 73.2323 118.915 71.5885 117.085 70.8485L110.02 68.4844H100.054L92.8246 70.8485C90.9948 71.5885 89.5718 73.2323 88.9657 75.3033L82.7283 94.2948C82.1729 96.0826 83.3573 97.949 85.0466 97.949H125.027C126.716 97.9425 127.901 96.0761 127.345 94.2948Z" fill="#23213D"/>
<g opacity="0.2">
<path opacity="0.2" d="M87.5557 91.1478C87.7058 90.9534 87.8805 90.7794 88.0752 90.6304C88.2719 90.478 88.4857 90.3495 88.7123 90.2473C88.9481 90.1465 89.1985 90.0846 89.4541 90.0638C89.7164 90.0482 89.9791 90.0878 90.2252 90.1802L90.0618 90.452C89.9278 90.3423 89.7808 90.2309 89.6354 90.1245C89.49 90.0181 89.3381 89.9199 89.1845 89.8249C88.8757 89.6304 88.5472 89.4695 88.2043 89.3452C88.5825 89.3618 88.9536 89.4542 89.2956 89.617C89.4681 89.6943 89.6356 89.7823 89.7971 89.8804C89.9607 89.9788 90.1173 90.0883 90.266 90.2079L90.9064 90.7237L90.1092 90.4798C89.9012 90.4133 89.6839 90.3806 89.4655 90.383C89.2435 90.3965 89.0239 90.4377 88.812 90.5058C88.5911 90.5785 88.3769 90.67 88.1716 90.7794C87.9597 90.8906 87.754 91.0135 87.5557 91.1478Z" fill="#82848E"/>
<path opacity="0.2" d="M89.8662 90.2471C90.1758 90.26 90.4841 90.2941 90.7893 90.3486C91.0931 90.401 91.3937 90.4632 91.6911 90.5385C91.9884 90.6138 92.2825 90.7022 92.5749 90.7988C92.8695 90.8949 93.1572 91.0115 93.4359 91.1475C93.1261 91.1362 92.8175 91.1023 92.5128 91.046C92.209 90.9936 91.9084 90.9314 91.611 90.8561C91.3137 90.7808 91.0196 90.6924 90.7272 90.5958C90.4325 90.4997 90.1448 90.3833 89.8662 90.2471Z" fill="#82848E"/>
</g>
<g opacity="0.2">
<path opacity="0.2" d="M116.773 73.9932C116.523 74.8003 116.268 75.5862 116.061 76.3851C115.948 76.7829 115.862 77.1873 115.773 77.5917C115.685 77.9961 115.625 78.4103 115.548 78.8229C115.487 78.4026 115.478 77.9766 115.52 77.5541C115.56 77.1312 115.635 76.7122 115.744 76.3016C115.854 75.8926 115.994 75.492 116.162 75.1032C116.327 74.713 116.532 74.3411 116.773 73.9932Z" fill="#82848E"/>
</g>
<g opacity="0.2">
<path opacity="0.2" d="M93.165 73.9932C93.4062 74.3411 93.611 74.713 93.776 75.1032C93.944 75.492 94.0838 75.8926 94.1943 76.3016C94.3033 76.7122 94.3781 77.1312 94.4181 77.5541C94.4602 77.9766 94.4509 78.4026 94.3903 78.8229C94.3135 78.4054 94.2547 78.0043 94.1649 77.5917C94.075 77.1791 93.9901 76.7829 93.8773 76.3851C93.6699 75.5862 93.4101 74.8003 93.165 73.9932Z" fill="#82848E"/>
</g>
<g opacity="0.2">
<path opacity="0.2" d="M123.009 91.1479C122.812 91.0132 122.607 90.8897 122.395 90.7779C122.19 90.6686 121.975 90.577 121.755 90.5045C121.543 90.4362 121.323 90.395 121.101 90.3817C120.883 90.3793 120.666 90.4119 120.457 90.4783L119.66 90.7223L120.301 90.2065C120.449 90.0869 120.606 89.9775 120.769 89.8791C120.931 89.7809 121.099 89.6928 121.271 89.6155C121.613 89.4528 121.984 89.3603 122.362 89.3438C122.019 89.468 121.691 89.6289 121.382 89.8234C121.229 89.9184 121.08 90.0199 120.931 90.123C120.783 90.2262 120.639 90.3392 120.505 90.4505L120.341 90.1787C120.588 90.0864 120.85 90.0469 121.113 90.0625C121.368 90.0831 121.619 90.145 121.854 90.2458C122.081 90.348 122.295 90.4765 122.491 90.6289C122.686 90.7786 122.86 90.9531 123.009 91.1479Z" fill="#82848E"/>
<path opacity="0.2" d="M120.696 90.2476C120.417 90.3838 120.129 90.5002 119.835 90.5963C119.543 90.6945 119.248 90.7813 118.951 90.8566C118.654 90.9319 118.353 90.9941 118.049 91.0465C117.744 91.1028 117.436 91.1367 117.126 91.148C117.405 91.012 117.692 90.8954 117.987 90.7993C118.279 90.7011 118.573 90.6126 118.871 90.539C119.168 90.4653 119.469 90.4015 119.773 90.3491C120.078 90.2945 120.386 90.2605 120.696 90.2476Z" fill="#82848E"/>
</g>
<path d="M101.782 69.3403L95.6358 64.3354L95.1865 58.5937L99.2333 51.526L106.428 49.3174L111.375 52.5558L114.822 60.2129L111.525 65.9546L108.077 69.7824L101.782 69.3403Z" fill="#3F4249"/>
<path d="M108.701 69.3289L108.927 69.1374L108.515 59.378L100.943 59.1636L100.109 68.5333C102.459 70.8957 106.166 71.4835 108.701 69.3289Z" fill="#FC9D9D"/>
<path d="M109.637 56.4638C109.637 56.4638 110.306 67.1465 104.464 67.0565C98.7461 66.9697 99.5205 56.3066 99.5205 56.3066L99.6267 53.2418L107.039 52.5869L108.8 53.7018L109.637 56.4638Z" fill="#FC9D9D"/>
<path d="M108.475 53.633C108.475 53.633 110.435 52.5656 111.113 54.7365C111.696 56.5685 110.282 58.3989 110.282 58.3989L109.223 58.2008C108.777 58.1501 108.484 57.9176 108.478 57.469L108.475 53.633Z" fill="#82848E"/>
<path d="M109.894 52.9289C109.88 54.8035 108.114 55.1522 107.424 55.1506L101.636 55.1244C101.42 55.1162 101.21 55.1923 101.049 55.3369C100.888 55.4814 100.79 55.683 100.775 55.8988L100.726 57.5998C100.718 57.7175 100.667 57.828 100.581 57.9092C100.496 57.9903 100.383 58.036 100.265 58.0369H99.9107L99.4696 58.4577C97.2674 57.7701 96.8769 51.7452 101.121 50.9004C101.344 50.8573 101.557 50.7702 101.746 50.6443C101.935 50.5184 102.098 50.3562 102.224 50.1669C102.928 49.0585 105.433 48.9554 106.55 50.3601C106.662 50.5039 106.804 50.6212 106.967 50.7039C107.129 50.7866 107.308 50.8324 107.49 50.8382C109.017 50.9413 109.912 51.904 109.894 52.9289Z" fill="#82848E"/>
<path d="M99.8556 58.6461C99.8518 58.4759 99.803 58.3101 99.7141 58.1652C99.6254 58.0203 99.4999 57.9016 99.3504 57.8212C99.201 57.7408 99.0329 57.7017 98.8633 57.7076C98.6937 57.7135 98.5289 57.7646 98.3852 57.8553L98.3656 57.8733C97.2988 58.6477 97.7122 61.3916 99.8932 61.3409L99.8556 58.6461Z" fill="#FC9D9D"/>
<path d="M110.809 58.1715L110.791 58.1519C110.653 58.0522 110.491 57.9919 110.321 57.9772C110.152 57.9624 109.981 57.9939 109.828 58.0682C109.675 58.1425 109.545 58.257 109.451 58.3992C109.358 58.5417 109.304 58.7067 109.297 58.8771L109.186 61.4557C111.381 61.5736 111.832 58.9672 110.809 58.1715Z" fill="#FC9D9D"/>
<path d="M100.109 59.0076C100.105 59.0747 100.074 59.1371 100.023 59.1813C99.9724 59.2255 99.9064 59.2478 99.8396 59.2434C99.7762 59.2461 99.714 59.2263 99.664 59.1874C99.614 59.1484 99.5795 59.0927 99.5668 59.0305L99.4639 57.2935L100.171 57.3884L100.109 59.0076Z" fill="#82848E"/>
<path d="M109.737 59.1323C109.733 59.1993 109.702 59.2618 109.651 59.306C109.601 59.3502 109.535 59.3725 109.468 59.3681C109.404 59.3702 109.342 59.3499 109.292 59.3106C109.243 59.2713 109.208 59.2158 109.195 59.1536L109.094 57.4116L109.801 57.5066L109.737 59.1323Z" fill="#82848E"/>
<path d="M102.663 61.2098C102.763 61.2127 102.861 61.1857 102.946 61.1325C103.031 61.0793 103.098 61.0022 103.138 60.9108C103.179 60.8193 103.192 60.718 103.175 60.6193C103.159 60.5205 103.113 60.429 103.044 60.3563C102.976 60.2836 102.887 60.233 102.79 60.2108C102.692 60.1887 102.59 60.1959 102.497 60.2317C102.404 60.2674 102.323 60.3303 102.265 60.412C102.208 60.4937 102.176 60.5908 102.173 60.6908C102.169 60.8247 102.219 60.9546 102.311 61.0518C102.403 61.1491 102.53 61.2059 102.663 61.2098Z" fill="#82848E"/>
<path d="M102.598 61.0803C102.612 61.0808 102.627 61.0784 102.641 61.0731C102.654 61.0679 102.667 61.0602 102.677 61.05C102.688 61.04 102.697 61.0281 102.703 61.0147C102.709 61.0012 102.712 60.987 102.712 60.9723C102.714 60.9564 102.713 60.9403 102.708 60.9251C102.703 60.9099 102.695 60.8958 102.685 60.8839C102.674 60.8719 102.661 60.8622 102.647 60.8557C102.632 60.8491 102.616 60.8457 102.6 60.8457C102.584 60.8457 102.569 60.8491 102.554 60.8557C102.539 60.8622 102.526 60.8719 102.516 60.8839C102.505 60.8958 102.497 60.9099 102.492 60.9251C102.488 60.9403 102.486 60.9564 102.488 60.9723C102.489 61.0009 102.501 61.0283 102.521 61.0484C102.542 61.0685 102.569 61.08 102.598 61.0803Z" fill="white"/>
<path d="M106.566 61.2635C106.665 61.2665 106.764 61.2394 106.849 61.1862C106.933 61.133 107 61.0559 107.041 60.9646C107.082 60.8732 107.095 60.7717 107.078 60.673C107.061 60.5742 107.015 60.4827 106.947 60.41C106.878 60.3373 106.789 60.2868 106.692 60.2645C106.595 60.2424 106.493 60.2496 106.4 60.2854C106.306 60.3211 106.226 60.384 106.168 60.4657C106.11 60.5474 106.078 60.6445 106.075 60.7445C106.073 60.8108 106.085 60.877 106.108 60.939C106.132 61.0011 106.167 61.0579 106.213 61.106C106.259 61.1543 106.313 61.1929 106.374 61.22C106.434 61.247 106.499 61.2619 106.566 61.2635Z" fill="#82848E"/>
<path d="M106.497 61.1355C106.512 61.136 106.526 61.1336 106.54 61.1283C106.554 61.1229 106.567 61.1151 106.578 61.1048C106.589 61.0946 106.597 61.0825 106.603 61.0689C106.609 61.0553 106.613 61.0407 106.613 61.0258C106.614 61.0111 106.611 60.9964 106.606 60.9826C106.6 60.9689 106.592 60.9563 106.582 60.9456C106.572 60.935 106.56 60.9265 106.546 60.9206C106.533 60.9147 106.518 60.9116 106.503 60.9112C106.489 60.9106 106.474 60.9129 106.46 60.9181C106.447 60.9232 106.434 60.9311 106.423 60.941C106.413 60.9512 106.404 60.9633 106.398 60.9767C106.392 60.9902 106.389 61.0047 106.389 61.0193C106.388 61.034 106.39 61.0488 106.395 61.0627C106.401 61.0766 106.408 61.0894 106.418 61.1002C106.429 61.111 106.441 61.1197 106.454 61.1257C106.468 61.1318 106.482 61.1352 106.497 61.1355Z" fill="white"/>
<g opacity="0.15">
<path opacity="0.15" d="M104.658 62.7959L105.07 62.8073C105.108 62.8052 105.145 62.7895 105.173 62.7626C105.201 62.7359 105.219 62.7003 105.223 62.6616C105.221 62.6228 105.205 62.5861 105.179 62.5578C105.152 62.5297 105.116 62.512 105.078 62.5077L104.668 62.4963C104.628 62.4956 104.59 62.4871 104.553 62.4712C104.517 62.4553 104.485 62.4324 104.458 62.4038C104.431 62.3749 104.41 62.3412 104.396 62.3042C104.382 62.2672 104.375 62.2279 104.377 62.1885C104.377 62.1066 104.41 62.0282 104.467 61.9701C104.525 61.9119 104.602 61.8787 104.684 61.8774C104.721 61.8735 104.755 61.8561 104.78 61.8284C104.805 61.8008 104.819 61.7648 104.819 61.7276C104.819 61.6903 104.805 61.6544 104.78 61.6267C104.755 61.5991 104.721 61.5817 104.684 61.5778C104.526 61.5742 104.373 61.6333 104.259 61.7422C104.144 61.851 104.077 62.0007 104.072 62.159C104.064 62.2402 104.074 62.3221 104.101 62.3993C104.127 62.4765 104.169 62.5473 104.224 62.6073C104.279 62.6672 104.347 62.715 104.421 62.7474C104.496 62.7798 104.577 62.7964 104.658 62.7959Z" fill="#82848E"/>
</g>
<path d="M108.114 59.0396L105.914 58.9774H105.615L103.693 58.9217H103.674L101.194 58.8513C101.098 58.847 101.002 58.8623 100.912 58.896C100.822 58.9295 100.74 58.981 100.67 59.0471C100.6 59.1132 100.545 59.1926 100.506 59.2807C100.467 59.369 100.447 59.4639 100.446 59.5602L100.429 60.1201C100.416 60.6445 100.611 61.1527 100.971 61.5333C101.331 61.914 101.827 62.136 102.351 62.1511C102.874 62.166 103.382 61.9724 103.763 61.6131C104.144 61.2535 104.368 60.7573 104.385 60.2331L104.399 59.6715C104.403 59.5103 104.356 59.3519 104.264 59.2197L105.028 59.2409C104.931 59.3626 104.874 59.5112 104.865 59.6666L104.85 60.2282C104.835 60.7535 105.03 61.2634 105.39 61.6452C105.75 62.0271 106.247 62.2501 106.771 62.2648C107.296 62.2796 107.804 62.0851 108.185 61.7239C108.567 61.3629 108.789 60.8649 108.804 60.3395L108.82 59.7796C108.824 59.5879 108.751 59.4025 108.619 59.264C108.487 59.1254 108.305 59.0446 108.114 59.0396ZM104.102 59.6551L104.086 60.2167C104.07 60.6655 103.878 61.0898 103.551 61.3963C103.223 61.703 102.788 61.8667 102.34 61.8515C101.892 61.8362 101.469 61.6434 101.163 61.3153C100.857 60.9873 100.694 60.5509 100.709 60.1021L100.725 59.5405C100.731 59.424 100.783 59.3146 100.869 59.2362C100.956 59.1579 101.069 59.1173 101.186 59.1231L103.666 59.1935H103.685C103.743 59.1958 103.799 59.2095 103.851 59.2342C103.903 59.259 103.95 59.2938 103.988 59.337C104.026 59.3801 104.055 59.4305 104.073 59.4852C104.091 59.5399 104.098 59.5977 104.094 59.6551H104.102ZM108.513 60.3411C108.512 60.5674 108.465 60.7912 108.376 60.9991C108.287 61.2071 108.157 61.395 107.994 61.5518C107.831 61.7087 107.639 61.8312 107.428 61.9122C107.217 61.9931 106.992 62.0309 106.767 62.0232C106.541 62.0155 106.319 61.9626 106.114 61.8675C105.909 61.7724 105.725 61.6371 105.573 61.4697C105.421 61.3022 105.305 61.1059 105.23 60.8924C105.155 60.6787 105.124 60.4525 105.138 60.2265L105.154 59.6666C105.157 59.609 105.171 59.5525 105.195 59.5003C105.22 59.448 105.255 59.4012 105.297 59.3624C105.34 59.3236 105.39 59.2937 105.444 59.2742C105.498 59.2549 105.556 59.2462 105.613 59.2491L105.912 59.2573L108.113 59.3195C108.229 59.3254 108.338 59.3773 108.416 59.4639C108.494 59.5505 108.535 59.6646 108.529 59.7812L108.513 60.3411Z" fill="#3F4249"/>
<g opacity="0.15">
<path opacity="0.15" d="M99.1819 59.9917C99.145 59.9927 99.1092 59.9791 99.0821 59.9541C99.055 59.929 99.0386 59.8945 99.0365 59.8575L99.0267 59.53C99.0169 59.2026 98.9499 58.9668 98.8029 58.8326C98.7377 58.772 98.6532 58.7365 98.5643 58.7327C98.5273 58.7332 98.4915 58.7193 98.4645 58.6941C98.4374 58.6687 98.4211 58.6338 98.4189 58.5968C98.4212 58.5589 98.4353 58.5225 98.4595 58.4932C98.4835 58.4637 98.5162 58.4428 98.5529 58.4331C98.716 58.432 98.8739 58.4901 98.9973 58.5968C99.1982 58.7704 99.3012 59.088 99.3077 59.5039L99.3175 59.8215C99.3338 59.9148 99.275 59.9705 99.1819 59.9852V59.9917Z" fill="#82848E"/>
</g>
<g opacity="0.15">
<path opacity="0.15" d="M109.953 60.1495C109.99 60.1518 110.026 60.1398 110.055 60.1161C110.083 60.0922 110.101 60.0585 110.105 60.0218L110.133 59.7058C110.143 59.3686 110.224 59.1279 110.358 59.0198C110.387 58.9887 110.422 58.9647 110.461 58.9493C110.5 58.934 110.542 58.9278 110.584 58.9314C110.621 58.9345 110.657 58.9232 110.686 58.8997C110.715 58.8761 110.733 58.8422 110.737 58.8054C110.74 58.7684 110.728 58.732 110.705 58.7035C110.681 58.6749 110.648 58.6564 110.611 58.6515C110.446 58.6418 110.284 58.6976 110.159 58.807C109.948 58.9887 109.832 59.2851 109.816 59.714L109.788 60.0316C109.805 60.0621 109.829 60.0886 109.858 60.1089C109.886 60.1294 109.919 60.1431 109.953 60.1495Z" fill="#82848E"/>
</g>
<path opacity="0.15" d="M108.683 63.4048L108.704 63.3491C108.018 65.15 106.783 66.5695 104.875 66.7218H104.893C104.756 66.7308 104.62 66.7308 104.483 66.7218C102.952 66.6972 101.761 65.8786 100.948 64.302C100.941 64.2838 100.93 64.2671 100.916 64.2532C100.903 64.2394 100.886 64.2285 100.868 64.2214C100.85 64.2144 100.83 64.2111 100.811 64.2121C100.792 64.2131 100.773 64.218 100.755 64.2268C100.738 64.2355 100.722 64.2479 100.71 64.263C100.698 64.2781 100.689 64.2956 100.684 64.3144C100.679 64.3332 100.677 64.3531 100.68 64.3724C100.683 64.3915 100.69 64.41 100.701 64.4264C101.568 66.0963 102.825 66.9559 104.475 66.9837C104.815 66.9891 105.154 66.9551 105.486 66.8822C106.488 67.1163 107.649 66.9624 108.807 66.265L108.683 63.4048Z" fill="#82848E"/>
<g opacity="0.15">
<path opacity="0.15" d="M106.59 63.8426C106.567 63.8426 106.545 63.8363 106.526 63.8245C106.506 63.8126 106.491 63.7957 106.48 63.7754C106.446 63.7018 106.392 63.6387 106.325 63.5929C106.258 63.547 106.179 63.5202 106.098 63.5151C106.066 63.5151 106.035 63.5022 106.012 63.4791C105.988 63.4562 105.976 63.4249 105.976 63.3923C105.976 63.3597 105.988 63.3285 106.012 63.3055C106.035 63.2825 106.066 63.2695 106.098 63.2695C106.224 63.2753 106.346 63.3149 106.452 63.3843C106.558 63.4537 106.642 63.5505 106.698 63.6641C106.712 63.6931 106.714 63.7265 106.704 63.7571C106.694 63.7877 106.673 63.8131 106.644 63.8278C106.627 63.8363 106.609 63.8414 106.59 63.8426Z" fill="#82848E"/>
</g>
<g opacity="0.15">
<path opacity="0.15" d="M105.036 65.0757H104.546C104.514 65.0757 104.483 65.0627 104.46 65.0398C104.437 65.0167 104.424 64.9854 104.424 64.9529C104.424 64.9203 104.437 64.8892 104.46 64.8661C104.483 64.843 104.514 64.8301 104.546 64.8301H105.036C105.069 64.8301 105.1 64.843 105.123 64.8661C105.146 64.8892 105.159 64.9203 105.159 64.9529C105.159 64.9854 105.146 65.0167 105.123 65.0398C105.1 65.0627 105.069 65.0757 105.036 65.0757Z" fill="#82848E"/>
</g>
<g opacity="0.15">
<path opacity="0.15" d="M104.715 64.4874C104.392 64.4859 104.073 64.4306 103.769 64.3237C103.741 64.3104 103.72 64.2873 103.708 64.259C103.697 64.2307 103.696 64.1991 103.707 64.1704C103.718 64.1418 103.739 64.118 103.766 64.1039C103.793 64.09 103.824 64.0866 103.854 64.0945C103.867 64.0945 105.108 64.5496 106.02 63.7867C106.045 63.765 106.078 63.7542 106.111 63.7567C106.144 63.7591 106.175 63.7747 106.196 63.7997C106.218 63.825 106.229 63.8577 106.226 63.8909C106.224 63.9242 106.208 63.955 106.183 63.9766C105.77 64.3166 105.249 64.4977 104.715 64.4874Z" fill="#82848E"/>
</g>
<path opacity="0.8" d="M104.234 59.6725L104.216 60.2749C104.208 60.5138 104.154 60.7486 104.055 60.966C103.956 61.1836 103.816 61.3794 103.642 61.5426C103.468 61.7057 103.263 61.8329 103.04 61.9167C102.817 62.0007 102.579 62.0397 102.341 62.0317C102.103 62.0236 101.868 61.9686 101.651 61.8697C101.434 61.771 101.239 61.6302 101.076 61.4557C100.913 61.2812 100.786 61.0763 100.703 60.8525C100.619 60.6289 100.58 60.391 100.588 60.1521L100.606 59.5497C100.609 59.4879 100.624 59.4274 100.65 59.3714C100.676 59.3154 100.713 59.2653 100.758 59.2235C100.804 59.1818 100.857 59.1495 100.915 59.1286C100.973 59.1076 101.034 59.0983 101.096 59.1011L103.764 59.1764H103.783C103.846 59.1775 103.908 59.1916 103.965 59.2175C104.022 59.2433 104.073 59.2807 104.116 59.3272C104.158 59.3735 104.19 59.4282 104.211 59.4874C104.231 59.5469 104.239 59.6099 104.234 59.6725Z" fill="#3F4249"/>
<path opacity="0.8" d="M108.647 59.6725L108.629 60.2749C108.621 60.5138 108.566 60.7486 108.467 60.966C108.368 61.1836 108.228 61.3794 108.054 61.5426C107.88 61.7057 107.675 61.8329 107.452 61.9167C107.229 62.0007 106.991 62.0397 106.753 62.0317C106.515 62.0236 106.28 61.9686 106.063 61.8697C105.846 61.771 105.651 61.6302 105.488 61.4557C105.325 61.2812 105.199 61.0763 105.115 60.8525C105.031 60.6289 104.992 60.391 105 60.1521L105.018 59.5497C105.021 59.4879 105.036 59.4274 105.062 59.3714C105.088 59.3154 105.125 59.2653 105.17 59.2235C105.216 59.1818 105.269 59.1495 105.327 59.1286C105.385 59.1076 105.447 59.0983 105.508 59.1011L108.176 59.1764H108.196C108.258 59.1775 108.32 59.1916 108.377 59.2175C108.434 59.2433 108.485 59.2807 108.528 59.3272C108.57 59.3735 108.602 59.4282 108.623 59.4874C108.643 59.5469 108.651 59.6099 108.647 59.6725Z" fill="#3F4249"/>
<path opacity="0.1" d="M102.169 59.1304L100.738 60.4401C100.774 60.6484 100.846 60.8486 100.952 61.0312L103.009 59.1598L102.169 59.1304Z" fill="#A4A4A5"/>
<path opacity="0.1" d="M103.741 59.1743H103.722H103.581L101.243 61.3993C101.295 61.4521 101.349 61.5019 101.407 61.5483L103.891 59.2136C103.844 59.1923 103.793 59.1789 103.741 59.1743Z" fill="#A4A4A5"/>
<path opacity="0.1" d="M103.012 59.1553L100.955 61.0266C100.996 61.0949 101.042 61.1605 101.091 61.2231L103.303 59.1651L103.012 59.1553Z" fill="#A4A4A5"/>
<path opacity="0.1" d="M106.583 59.2939L105.151 60.6037C105.187 60.812 105.259 61.0122 105.365 61.1947L107.422 59.3234L106.583 59.2939Z" fill="#A4A4A5"/>
<path opacity="0.1" d="M108.152 59.3379H108.133H107.992L105.654 61.5628C105.706 61.6157 105.76 61.6655 105.818 61.7118L108.303 59.3772C108.255 59.3559 108.204 59.3425 108.152 59.3379Z" fill="#A4A4A5"/>
<path opacity="0.1" d="M107.422 59.3193L105.365 61.1907C105.406 61.2589 105.452 61.3246 105.501 61.3871L107.713 59.3292L107.422 59.3193Z" fill="#A4A4A5"/>
<path opacity="0.2" d="M121.349 96.0949H116.448L115.68 97.9417H125.028C126.717 97.9417 127.902 96.0753 127.346 94.2875L122.852 80.9492L124.985 91.5681C125.133 92.2574 125.1 92.973 124.891 93.6457C124.09 96.0949 121.349 96.0949 121.349 96.0949Z" fill="#82848E"/>
<path opacity="0.2" d="M93.4112 96.2588H88.5101C88.5101 96.2588 85.7687 96.2588 84.9682 93.803C84.7586 93.1301 84.7259 92.4145 84.8734 91.7254L86.9334 81.4766L82.7283 94.2942C82.1729 96.082 83.3573 97.9484 85.0466 97.9484H94.1105L93.4112 96.2588Z" fill="#82848E"/>
<path opacity="0.3" d="M107.651 70.1738V79.5239" stroke="#82848E" stroke-width="2" stroke-miterlimit="10"/>
<path opacity="0.3" d="M102.097 69.7822V79.5236" stroke="#82848E" stroke-width="2" stroke-miterlimit="10"/>
<path d="M104.277 70.8008C103.506 69.676 101.537 68.2713 100.271 67.4445C99.7182 67.0878 99.1443 66.7646 98.5526 66.477C94.2722 64.3486 96.7555 58.1272 96.7555 58.1272C99.3041 52.0598 105.3 52.623 105.3 52.623C109.797 53.0372 112.197 58.9638 112.197 58.9638C114.596 63.1976 111.149 65.5978 111.149 65.5978C109.334 67.153 107.672 68.8776 106.184 70.7484L106.408 71.6652C106.408 71.6652 110.201 68.6512 112.184 66.8159C112.54 66.4884 112.916 66.1741 113.3 65.8728C113.874 65.4242 115.473 63.9262 115.712 61.0611C115.827 59.4652 115.496 57.8686 114.756 56.4508C113.377 53.7363 109.994 48.6626 103.954 48.6626C103.954 48.6626 97.208 48.8034 93.9112 58.1174C93.9112 58.1174 91.8119 64.3273 97.3583 67.4314C97.3583 67.4314 101.706 69.6891 103.954 71.6652L104.277 70.8008Z" fill="#23213D"/>
<path opacity="0.2" d="M98.8447 68.8669L103.181 71.0345L99.5342 68.6426L98.8447 68.8669Z" fill="#82848E"/>
<path opacity="0.2" d="M110.859 68.7033L106.523 70.8709L110.173 68.479L110.859 68.7033Z" fill="#82848E"/>
<path opacity="0.3" d="M113.08 60.2292C113.026 60.0917 112.977 59.9525 112.929 59.8117C110.445 52.3821 105.338 52.2184 105.338 52.2184C101.907 51.7273 99.2928 54.0193 99.2928 54.0193C98.1599 54.8748 97.2431 55.9846 96.6157 57.2595C95.9884 58.5344 95.6682 59.9389 95.6806 61.3605C95.6806 61.6077 95.6806 61.8517 95.6806 62.1055C95.6543 62.7682 95.7631 63.4296 96.0005 64.0488C96.2377 64.6682 96.5988 65.2325 97.0611 65.7073C97.5486 66.2019 98.1273 66.5973 98.7651 66.8713C100.154 67.4886 102.717 69.2174 102.717 69.2174C101.933 68.5848 101.117 67.993 100.273 67.4444C99.72 67.0874 99.1461 66.7643 98.5543 66.4768C94.274 64.3484 96.7572 58.1271 96.7572 58.1271C99.3058 52.0596 105.302 52.6228 105.302 52.6228C109.799 53.037 112.199 58.9637 112.199 58.9637C114.597 63.1975 111.15 65.5976 111.15 65.5976C109.521 66.9918 108.014 68.5228 106.645 70.1736C108.131 68.6706 109.713 67.2667 111.382 65.9709C114.241 63.8229 113.343 60.9218 113.08 60.2292Z" fill="#82848E"/>
<path d="M117.903 96.8779H92.0089C91.8962 96.8779 91.8047 96.9696 91.8047 97.0826V97.8193C91.8047 97.9324 91.8962 98.024 92.0089 98.024H117.903C118.016 98.024 118.108 97.9324 118.108 97.8193V97.0826C118.108 96.9696 118.016 96.8779 117.903 96.8779Z" fill="#82848E"/>
<path d="M118.82 78.3779H91.0374C91.0047 78.3781 90.9724 78.385 90.9423 78.3981C90.9123 78.4112 90.8851 78.4302 90.8627 78.4541C90.8402 78.478 90.8229 78.5061 90.8116 78.5371C90.8003 78.5678 90.7954 78.6006 90.7972 78.6333L91.9163 96.8783H117.942L119.061 78.6333C119.062 78.6006 119.057 78.5678 119.046 78.5371C119.035 78.5061 119.018 78.478 118.995 78.4541C118.973 78.4302 118.946 78.4112 118.916 78.3981C118.886 78.385 118.853 78.3781 118.82 78.3779Z" fill="#3F4249"/>
<path d="M90.8053 78.7882H119.061V78.6327C119.062 78.6001 119.057 78.5675 119.046 78.5369C119.034 78.5061 119.017 78.4781 118.994 78.4545C118.972 78.4308 118.945 78.4118 118.915 78.3989C118.885 78.3859 118.853 78.3791 118.82 78.3789H91.0373C91.0047 78.3791 90.9725 78.3859 90.9426 78.3989C90.9127 78.4118 90.8857 78.4308 90.8632 78.4545C90.8408 78.4781 90.8233 78.5061 90.812 78.5369C90.8006 78.5675 90.7955 78.6001 90.7972 78.6327L90.8053 78.7882Z" fill="#CF8900"/>
<path d="M105.937 90.843H103.917C103.755 90.843 103.599 90.7784 103.484 90.6631C103.369 90.548 103.305 90.3918 103.305 90.2291V89.4661C103.305 89.4162 103.285 89.3682 103.25 89.3329C103.215 89.2977 103.167 89.2779 103.117 89.2779H102.914C102.754 89.2779 102.599 89.2145 102.485 89.1015C102.37 88.9884 102.304 88.8348 102.302 88.6737L102.161 86.827C102.161 86.827 102.161 86.8155 102.161 86.8106C102.162 86.1747 102.414 85.565 102.862 85.1145C103.084 84.8915 103.348 84.7145 103.638 84.594C103.929 84.4735 104.24 84.4116 104.555 84.4121H105.303C105.774 84.4123 106.235 84.5523 106.627 84.8145C107.019 85.0767 107.325 85.4494 107.507 85.8856C107.632 86.1805 107.697 86.4981 107.696 86.8188C107.696 86.8188 107.696 86.8286 107.696 86.8352L107.556 88.6819C107.553 88.843 107.488 88.9966 107.373 89.1097C107.258 89.2227 107.104 89.2861 106.943 89.2861H106.74C106.691 89.2861 106.643 89.3059 106.608 89.3411C106.572 89.3764 106.553 89.4244 106.553 89.4743V90.2373C106.55 90.3992 106.484 90.5537 106.369 90.6672C106.254 90.7806 106.098 90.8439 105.937 90.843ZM102.584 86.8024L102.726 88.6475V88.6639C102.727 88.7137 102.747 88.7613 102.782 88.7965C102.817 88.8317 102.865 88.8517 102.914 88.8522H103.117C103.279 88.8522 103.435 88.9169 103.55 89.032C103.665 89.1471 103.73 89.3032 103.73 89.4661V90.2291C103.73 90.279 103.749 90.3268 103.785 90.3622C103.82 90.3974 103.868 90.4174 103.917 90.4174H105.937C105.986 90.4174 106.034 90.3974 106.069 90.3622C106.105 90.3268 106.125 90.279 106.125 90.2291V89.4661C106.125 89.3032 106.189 89.1471 106.304 89.032C106.419 88.9169 106.575 88.8522 106.737 88.8522H106.94C106.99 88.8517 107.037 88.8317 107.072 88.7965C107.107 88.7613 107.127 88.7137 107.128 88.6639V88.6475L107.27 86.8024C107.268 86.2805 107.059 85.7808 106.69 85.4126C106.321 85.0444 105.822 84.8378 105.301 84.8378H104.553C104.032 84.8378 103.533 85.0444 103.164 85.4126C102.795 85.7808 102.587 86.2805 102.584 86.8024Z" fill="white"/>
<path d="M104.45 90.7643C104.394 90.7643 104.339 90.7418 104.3 90.7019C104.26 90.6619 104.237 90.6077 104.237 90.5514V89.9326C104.237 89.8761 104.26 89.8219 104.3 89.7819C104.339 89.7422 104.394 89.7197 104.45 89.7197C104.507 89.7197 104.561 89.7422 104.601 89.7819C104.641 89.8219 104.663 89.8761 104.663 89.9326V90.5514C104.663 90.5792 104.657 90.6069 104.647 90.6328C104.636 90.6587 104.62 90.6821 104.601 90.7019C104.581 90.7217 104.557 90.7372 104.532 90.7481C104.506 90.7587 104.478 90.7643 104.45 90.7643Z" fill="white"/>
<path d="M105.409 90.7643C105.353 90.7643 105.298 90.7418 105.259 90.7019C105.219 90.6619 105.196 90.6077 105.196 90.5514V89.9326C105.196 89.8761 105.219 89.8219 105.259 89.7819C105.298 89.7422 105.353 89.7197 105.409 89.7197C105.465 89.7197 105.52 89.7422 105.56 89.7819C105.6 89.8219 105.622 89.8761 105.622 89.9326V90.5514C105.622 90.5792 105.616 90.6069 105.606 90.6328C105.595 90.6587 105.579 90.6821 105.56 90.7019C105.54 90.7217 105.516 90.7372 105.49 90.7481C105.465 90.7587 105.437 90.7643 105.409 90.7643Z" fill="white"/>
<path d="M103.952 88.0533C104.338 88.0533 104.651 87.7396 104.651 87.3526C104.651 86.9657 104.338 86.6519 103.952 86.6519C103.566 86.6519 103.253 86.9657 103.253 87.3526C103.253 87.7396 103.566 88.0533 103.952 88.0533Z" fill="white"/>
<path d="M105.905 88.0533C106.292 88.0533 106.605 87.7396 106.605 87.3526C106.605 86.9657 106.292 86.6519 105.905 86.6519C105.519 86.6519 105.206 86.9657 105.206 87.3526C105.206 87.7396 105.519 88.0533 105.905 88.0533Z" fill="white"/>
<path d="M104.931 88.2232C104.883 88.2232 104.836 88.2394 104.798 88.269C104.76 88.2986 104.733 88.3402 104.722 88.3869L104.653 88.7143C104.646 88.7454 104.647 88.7777 104.654 88.8086C104.662 88.8396 104.676 88.8684 104.696 88.8931C104.716 88.9177 104.742 88.9375 104.77 88.9511C104.799 88.9646 104.83 88.9715 104.862 88.9714H105.003C105.034 88.9715 105.066 88.9646 105.095 88.9511C105.123 88.9375 105.149 88.9177 105.169 88.8931C105.189 88.8684 105.203 88.8396 105.211 88.8086C105.218 88.7777 105.218 88.7454 105.212 88.7143L105.143 88.3869C105.131 88.3396 105.104 88.2977 105.065 88.268C105.027 88.2382 104.979 88.2225 104.931 88.2232Z" fill="white"/>
<path d="M88.08 132.411H77.8905C76.0215 132.411 75.2569 131.085 76.1898 129.464L77.8905 126.517L81.2854 120.624L82.9844 117.677C83.9189 116.056 85.4481 116.056 86.3826 117.677L88.08 120.624C89.0145 122.246 90.5436 124.898 91.4765 126.517L93.1756 129.464C94.1101 131.085 93.3389 132.411 91.4765 132.411H88.08Z" fill="#23213D"/>
<path d="M89.7305 131.304H79.6357C78.8303 131.304 78.2193 131.013 77.9122 130.486C77.605 129.959 77.6606 129.276 78.0625 128.577L83.1188 119.811C83.5223 119.112 84.0811 118.728 84.6921 118.728C85.3031 118.728 85.8636 119.112 86.2672 119.811L87.5266 122C88.2226 123.207 89.358 125.178 90.0507 126.383L91.3121 128.572C91.7156 129.271 91.7694 129.949 91.4622 130.481C91.1551 131.013 90.5359 131.304 89.7305 131.304ZM84.6841 119.286C84.4539 119.307 84.2325 119.384 84.0386 119.51C83.8448 119.636 83.6846 119.808 83.5715 120.009L78.5232 128.932C78.4155 129.112 78.3596 129.318 78.3619 129.528C78.3642 129.737 78.4247 129.942 78.5364 130.119C78.6504 130.31 78.8115 130.467 79.0041 130.577C79.1967 130.687 79.4142 130.745 79.6357 130.746H89.7305C89.9525 130.746 90.1704 130.687 90.3632 130.578C90.5562 130.468 90.7176 130.31 90.8318 130.119C90.9951 129.821 90.9494 129.399 90.6798 128.934L89.5818 126.743C88.8891 125.538 87.7553 123.569 87.0577 122.362L85.6349 120.008C85.3653 119.543 85.0272 119.286 84.6841 119.286Z" fill="#F4F7FE"/>
<path d="M84.6657 129.128C84.4324 129.115 84.2128 129.013 84.0529 128.843C83.8931 128.672 83.8052 128.446 83.8077 128.212C83.8103 127.978 83.9029 127.754 84.0666 127.587C84.2302 127.42 84.4518 127.322 84.6853 127.315C85.2114 127.315 85.5593 127.684 85.5692 128.222C85.5762 128.341 85.558 128.46 85.5164 128.572C85.4747 128.684 85.4102 128.786 85.327 128.871C85.2437 128.956 85.1437 129.023 85.0333 129.067C84.9227 129.111 84.8042 129.132 84.6853 129.128H84.6657ZM84.1184 126.818L83.8995 122.307H85.4711L85.2522 126.818H84.1184Z" fill="#F4F7FE"/>
<path d="M134.889 45.2242L138.1 47.9763C139.461 45.9544 141.064 44.2861 145.068 43.3234L143.271 40.0932C138.287 39.977 134.889 45.2242 134.889 45.2242Z" fill="#23213D"/>
<path d="M141.07 42.9619C140.939 42.2956 140.245 41.9043 139.519 42.086C138.794 42.2677 138.315 42.9586 138.448 43.625C138.58 44.2913 139.273 44.6842 139.998 44.5009C140.724 44.3175 141.202 43.6282 141.07 42.9619Z" fill="#F4F7FE"/>
<path d="M37.1924 51.4459L40.4043 54.198C41.7652 52.1761 43.3678 50.5078 47.3721 49.5451L45.575 46.3149C40.5905 46.1987 37.1924 51.4459 37.1924 51.4459Z" fill="#23213D"/>
<path d="M43.3736 49.1831C43.2429 48.5168 42.5486 48.1255 41.8232 48.3072C41.0978 48.4889 40.6191 49.1798 40.7515 49.8462C40.8838 50.5125 41.5765 50.9054 42.3019 50.7221C43.0272 50.5387 43.5059 49.8494 43.3736 49.1831Z" fill="#F4F7FE"/>
<path d="M167.343 77.7579L167.745 73.6093C165.179 74.1004 162.654 74.161 158.487 71.9033L157.67 75.6296C163.457 80.5756 167.343 77.7579 167.343 77.7579Z" fill="#23213D"/>
<path d="M163.642 75.5009C163.43 74.8461 162.693 74.5497 161.997 74.8199C161.301 75.09 160.908 75.8316 161.118 76.4783C161.329 77.125 162.068 77.4279 162.763 77.1578C163.459 76.8876 163.855 76.146 163.642 75.5009Z" fill="#F4F7FE"/>
<path d="M180.414 121.308L180.815 117.159C178.249 117.65 175.725 117.711 171.557 115.453L170.74 119.179C176.527 124.125 180.414 121.308 180.414 121.308Z" fill="#23213D"/>
<path d="M176.71 119.05C176.497 118.395 175.761 118.099 175.065 118.369C174.369 118.639 173.975 119.381 174.186 120.028C174.396 120.674 175.135 120.977 175.831 120.707C176.527 120.437 176.922 119.695 176.71 119.05Z" fill="#F4F7FE"/>
<path d="M119.469 131.459C125.108 131.459 129.679 126.877 129.679 121.226C129.679 115.575 125.108 110.994 119.469 110.994C113.829 110.994 109.258 115.575 109.258 121.226C109.258 126.877 113.829 131.459 119.469 131.459Z" fill="#F4F7FE"/>
<path d="M119.469 130.149C117.708 130.149 115.987 129.625 114.522 128.645C113.058 127.665 111.917 126.271 111.243 124.641C110.569 123.01 110.393 121.216 110.736 119.485C111.08 117.754 111.928 116.165 113.173 114.917C114.419 113.669 116.005 112.819 117.732 112.475C119.459 112.13 121.25 112.307 122.877 112.983C124.504 113.658 125.894 114.801 126.872 116.269C127.851 117.736 128.373 119.461 128.373 121.226C128.37 123.592 127.431 125.86 125.762 127.532C124.093 129.205 121.83 130.146 119.469 130.149ZM119.469 112.935C117.833 112.935 116.233 113.421 114.873 114.332C113.512 115.243 112.452 116.538 111.826 118.053C111.2 119.568 111.036 121.235 111.355 122.843C111.674 124.452 112.462 125.929 113.619 127.088C114.776 128.248 116.25 129.038 117.855 129.357C119.46 129.677 121.124 129.513 122.635 128.886C124.147 128.258 125.439 127.196 126.348 125.832C127.257 124.469 127.742 122.866 127.742 121.226C127.74 119.028 126.867 116.921 125.316 115.366C123.765 113.812 121.663 112.938 119.469 112.935Z" fill="#3F4249"/>
<path d="M154.677 132.158C154.677 132.158 157.408 136.012 159.905 136.066C162.401 136.12 166.217 134.28 166.217 134.28C166.217 134.28 168.518 129.144 166.957 127.135C166.957 127.135 165.394 126.448 163.759 127.662C163.445 127.9 163.161 128.175 162.912 128.481C162.576 128.903 162.12 129.215 161.605 129.375C159.818 129.919 157.698 128.637 156.904 129.866C156.515 130.469 156.051 131.019 155.523 131.503C155.26 131.745 154.977 131.964 154.677 132.158Z" fill="#F4F7FE"/>
<path d="M186.007 156.776C184.511 150.49 179.245 135.406 163.257 136.066C163.257 136.066 148.41 137.415 146.491 157.202C146.46 157.508 146.494 157.818 146.59 158.109C146.687 158.402 146.843 158.671 147.049 158.898C147.255 159.126 147.507 159.308 147.788 159.432C148.069 159.556 148.373 159.619 148.68 159.619L183.883 159.475C184.213 159.475 184.538 159.398 184.836 159.254C185.131 159.109 185.391 158.9 185.595 158.64C185.8 158.381 185.943 158.078 186.015 157.755C186.085 157.433 186.084 157.097 186.007 156.776Z" fill="#F4F7FE"/>
<path d="M168.018 136.781C168.018 136.781 161.053 138.333 158.903 137.421C158.903 137.421 158.577 134.502 161.517 134.911C163.525 135.191 164.832 134.225 165.602 133.832C166.685 133.277 168.307 135.559 168.018 136.781Z" fill="#23213D"/>
<path d="M161.958 132.382C162.402 132.71 163.771 127.662 163.771 127.662C163.457 127.9 163.173 128.174 162.925 128.481C162.588 128.903 162.132 129.214 161.618 129.375C161.605 129.514 161.525 132.055 161.958 132.382Z" fill="#FDDEA3"/>
<path d="M155.526 131.507C155.624 131.564 158.846 133.497 159.284 133.497C159.722 133.497 156.909 129.868 156.909 129.868C156.52 130.471 156.056 131.022 155.526 131.507Z" fill="#FDDEA3"/>
<path d="M180.86 153.407C181.038 153.253 174.028 143.061 172.097 142.986C170.166 142.911 165.827 145.219 162.687 145.517C159.547 145.815 156.5 144.921 155.907 146.783C155.314 148.644 153.678 155.239 154.682 156.295C155.685 157.351 177.005 156.706 180.86 153.407Z" fill="#FDDEA3"/>
<path d="M90.4937 37.23L90.6571 32.9634C88.4222 33.5561 86.1056 33.7951 82.4705 31.7617L80.4268 35.7974C85.3018 40.2506 90.4937 37.23 90.4937 37.23Z" fill="#23213D"/>
<path d="M87.402 35.2603C87.2697 34.5939 86.5754 34.2026 85.8516 34.386C85.1279 34.5694 84.6476 35.257 84.7783 35.925C84.909 36.5929 85.6049 36.9826 86.3303 36.7992C87.0557 36.6159 87.5295 35.9282 87.402 35.2603Z" fill="#F4F7FE"/>
<path d="M60.6906 75.5256L56.2583 73.5806C55.198 75.9709 53.8192 78.0927 49.5977 80.244L52.1871 83.0421C59.5372 81.0742 60.6906 75.5256 60.6906 75.5256Z" fill="#23213D"/>
<path d="M56.816 78.5899C56.6853 77.9236 55.9909 77.5306 55.2656 77.714C54.5402 77.8974 54.0615 78.5866 54.1939 79.253C54.3262 79.9193 55.0205 80.3122 55.7443 80.1289C56.468 79.9455 56.9418 79.2562 56.816 78.5899Z" fill="#F4F7FE"/>
<path fill-rule="evenodd" clip-rule="evenodd" d="M110.039 22.1082C108.212 21.4386 107.984 19.0303 107.984 19.0303H103.378C103.378 19.0303 103.149 21.4402 101.323 22.1082C100.432 22.4356 98.4328 22.8237 96.536 23.5391C93.9711 24.5067 92.2998 26.2945 92.2998 28.824V28.8486H119.062V28.824C119.062 26.2945 117.389 24.5067 114.826 23.5391C112.929 22.8237 110.929 22.4356 110.039 22.1082Z" fill="url(#paint5_linear_576_97736)"/>
<path d="M107.49 18.4575H103.863V19.0305H107.49V18.4575Z" fill="url(#paint6_linear_576_97736)"/>
<path d="M106.919 17.3037H104.439V18.4579H106.919V17.3037Z" fill="url(#paint7_linear_576_97736)"/>
<path opacity="0.1" d="M107.49 18.4575H103.863V19.0305H107.49V18.4575Z" fill="#82848E"/>
<path opacity="0.1" d="M106.919 17.3037H104.439V18.4579H106.919V17.3037Z" fill="#82848E"/>
<path fill-rule="evenodd" clip-rule="evenodd" d="M105.897 17.3035H105.457V0L105.897 0.0311072V17.3035Z" fill="url(#paint8_linear_576_97736)"/>
<path opacity="0.1" fill-rule="evenodd" clip-rule="evenodd" d="M105.897 17.3035H105.457V0L105.897 0.0311072V17.3035Z" fill="#82848E"/>
<path opacity="0.1" fill-rule="evenodd" clip-rule="evenodd" d="M119.06 28.824C119.06 26.2945 117.387 24.5067 114.824 23.5391C112.927 22.8237 110.927 22.4356 110.037 22.1082C108.211 21.4386 107.982 19.0303 107.982 19.0303H107.002L106.918 19.045C106.918 19.045 106.618 22.0002 109.472 23.2379C110.717 23.7782 113.156 24.7703 114.025 25.7477C114.821 26.6416 114.919 27.3276 114.919 28.8486H119.06V28.824Z" fill="#82848E"/>
<path d="M7.80428 112.444L0 112.562L3.09753 150.614H7.80428V112.444Z" fill="url(#paint9_linear_576_97736)"/>
<path d="M9.67954 150.614H12.4242H16.9545H32.1481V148.485H30.0537H30.0243H9.76613V114.432H30.0243H30.0537H32.1481V112.303H7.80566V112.444V150.614H9.67954Z" fill="#FDDEA3"/>
<path d="M30.0228 114.432H9.76465V148.486H30.0228V114.76V114.432Z" fill="#CF8900"/>
<path d="M30.0244 114.76V148.486H50.312V114.432H50.2825V114.76H30.0244ZM48.8122 145.969H31.5242V116.949H48.8122V145.969ZM31.4948 116.888V145.866H31.168V116.56H48.6488L48.8122 116.888H31.4948Z" fill="#FDDEA3"/>
<path d="M31.5225 116.948V145.969H48.8105V116.948H31.5225ZM47.8303 117.543H48.157V145.375H32.1465V145.047H32.1759V117.543H47.8303Z" fill="#FDDEA3"/>
<path opacity="0.2" d="M31.5225 116.948V145.969H48.8105V116.948H31.5225ZM47.8303 117.543H48.157V145.375H32.1465V145.047H32.1759V117.543H47.8303Z" fill="white"/>
<path d="M47.8301 117.542H32.1758V145.047H47.8301V117.542Z" fill="#FDDEA3"/>
<path d="M21.6742 158.91C21.6702 158.987 21.6477 159.062 21.6082 159.127C21.5689 159.193 21.5139 159.249 21.4482 159.288H21.4712C21.5329 159.245 21.5835 159.19 21.6188 159.124C21.6542 159.059 21.6732 158.985 21.6742 158.91Z" fill="#FDDEA3"/>
<path d="M19.4043 155.177L20.5773 159.081C20.6146 159.165 20.6739 159.235 20.7489 159.286H21.3337L20.4629 155.394L19.4043 155.177Z" fill="#FDDEA3"/>
<path opacity="0.2" d="M20.7834 150.65L21.6657 158.82C21.6715 158.849 21.6743 158.879 21.6738 158.91C21.676 158.874 21.6732 158.839 21.6657 158.805L20.7834 150.635H18.0225L19.3948 155.175L18.0355 150.648L20.7834 150.65Z" fill="#82848E"/>
<path d="M21.6731 158.91C21.6734 158.878 21.6708 158.849 21.6649 158.82L20.7827 150.65H18.0381L19.3973 155.177L20.456 155.396L21.3268 159.288H21.4477C21.5132 159.248 21.5681 159.193 21.6073 159.127C21.6467 159.06 21.6692 158.987 21.6731 158.91Z" fill="#FDDEA3"/>
<path opacity="0.2" d="M21.6731 158.91C21.6734 158.878 21.6708 158.849 21.6649 158.82L20.7827 150.65H18.0381L19.3973 155.177L20.456 155.396L21.3268 159.288H21.4477C21.5132 159.248 21.5681 159.193 21.6073 159.127C21.6467 159.06 21.6692 158.987 21.6731 158.91Z" fill="#82848E"/>
<path d="M27.53 151.269L27.2686 150.614L29.8008 159.045C29.8518 159.158 29.9417 159.248 30.0541 159.299H30.5817L29.0983 151.511L27.53 151.269Z" fill="#FDDEA3"/>
<path opacity="0.2" d="M30.9119 158.783L30.0232 150.614H30.0068L30.889 158.783C30.9088 158.888 30.8922 158.996 30.8415 159.091C30.791 159.185 30.7097 159.258 30.6113 159.299H30.6277C30.7268 159.258 30.8092 159.186 30.8609 159.091C30.9127 158.998 30.9307 158.888 30.9119 158.783Z" fill="#82848E"/>
<path d="M30.8954 158.783L30.0132 150.614H27.2686L27.53 151.269L29.0983 151.518L30.5817 159.306H30.6177C30.7172 159.265 30.7994 159.189 30.8502 159.094C30.9008 159 30.9168 158.89 30.8954 158.783Z" fill="#FDDEA3"/>
<path opacity="0.2" d="M30.8954 158.783L30.0132 150.614H27.2686L27.53 151.269L29.0983 151.518L30.5817 159.306H30.6177C30.7172 159.265 30.7994 159.189 30.8502 159.094C30.9008 159 30.9168 158.89 30.8954 158.783Z" fill="#82848E"/>
<path d="M9.61044 151.239L9.67252 150.666L8.79521 158.783C8.77593 158.878 8.78753 158.978 8.82837 159.066C8.86922 159.155 8.93718 159.227 9.0223 159.274H9.37191L11.1543 151.514L9.61044 151.239Z" fill="#FDDEA3"/>
<path d="M9.89045 159.045L12.4227 150.614L9.97214 158.752C9.92868 158.952 9.82478 159.134 9.6748 159.273H9.68624C9.77675 159.221 9.8483 159.14 9.89045 159.045Z" fill="#FDDEA3"/>
<path opacity="0.2" d="M9.67285 150.666L9.67776 150.614L9.67285 150.666Z" fill="#82848E"/>
<path d="M9.97553 158.752L12.4261 150.614H9.68147V150.666L9.61938 151.239L11.1632 151.511L9.38086 159.271H9.68637C9.83307 159.132 9.93404 158.95 9.97553 158.752Z" fill="#FDDEA3"/>
<path opacity="0.2" d="M9.97553 158.752L12.4261 150.614H9.68147V150.666L9.61938 151.239L11.1632 151.511L9.38086 159.271H9.68637C9.83307 159.132 9.93404 158.95 9.97553 158.752Z" fill="#82848E"/>
<path d="M30.0244 114.432V114.76H50.2825V114.432H32.1483H30.0538H30.0244Z" fill="#FDDEA3"/>
<path opacity="0.2" d="M30.0244 114.432V114.76H50.2825V114.432H32.1483H30.0538H30.0244Z" fill="#82848E"/>
<path d="M32.1759 145.363V145.047H32.1465V145.375H47.8302V145.363H32.1759Z" fill="#FDDEA3"/>
<path opacity="0.2" d="M32.1759 145.363V145.047H32.1465V145.375H47.8302V145.363H32.1759Z" fill="white"/>
<path opacity="0.2" d="M32.1759 145.363V145.047H32.1465V145.375H47.8302V145.363H32.1759Z" fill="#82848E"/>
<path d="M47.8301 145.047H32.1758V145.363H47.8301V145.047Z" fill="#FDDEA3"/>
<path opacity="0.2" d="M47.8301 145.047H32.1758V145.363H47.8301V145.047Z" fill="#82848E"/>
<path d="M31.4932 116.561V116.888H48.8106L48.6472 116.561H31.4932Z" fill="#FDDEA3"/>
<path opacity="0.2" d="M31.4932 116.561V116.888H48.8106L48.6472 116.561H31.4932Z" fill="#82848E"/>
<path d="M31.166 116.561V145.866H31.4935V116.888V116.561H31.166Z" fill="#FDDEA3"/>
<path opacity="0.2" d="M31.166 116.561V145.866H31.4935V116.888V116.561H31.166Z" fill="#82848E"/>
<path d="M48.1575 145.363H47.8301V145.375H48.1575V145.363Z" fill="#FDDEA3"/>
<path opacity="0.2" d="M48.1575 145.363H47.8301V145.375H48.1575V145.363Z" fill="white"/>
<path opacity="0.2" d="M48.1575 145.363H47.8301V145.375H48.1575V145.363Z" fill="#82848E"/>
<path d="M47.8301 145.363H48.1575V117.542H47.8301V145.047V145.363Z" fill="#FDDEA3"/>
<path opacity="0.2" d="M47.8301 145.363H48.1575V117.542H47.8301V145.047V145.363Z" fill="#82848E"/>
<path d="M9.79501 131.554L13.1833 130.836L19.4176 131.855L20.1381 133.515L22.2652 134.232L22.6606 136.874L25.1128 137.515L25.0768 140.232L27.5993 141.477L27.1664 143.59L28.6432 144.948L28.3557 146.534L30.0139 147.287L29.8228 148.274L9.77051 148.42L9.79501 131.554Z" fill="#23213D"/>
<path opacity="0.2" d="M9.79501 131.554L13.1833 130.836L19.4176 131.855L20.1381 133.515L22.2652 134.232L22.6606 136.874L25.1128 137.515L25.0768 140.232L27.5993 141.477L27.1664 143.59L28.6432 144.948L28.3557 146.534L30.0139 147.287L29.8228 148.274L9.77051 148.42L9.79501 131.554Z" fill="#82848E"/>
<path d="M14.1922 137.344L16.3994 136.942L17.8322 138.045L22.583 136.344L22.2661 134.232L18.2847 135.128L17.5642 133.468L14.2429 132.942L9.7959 131.554L9.98541 135.609L10.1161 135.851L12.5716 135.226L14.1922 137.344Z" fill="#23213D"/>
<path d="M56.6531 126.726L52.9315 125.565C52.2927 127.575 51.3746 129.396 48.1807 131.495L50.5038 133.507C56.2202 131.274 56.6531 126.726 56.6531 126.726Z" fill="#23213D"/>
<path d="M33.8392 145.598L30.5472 143.325C29.3138 145.1 27.863 146.6 24.1006 147.69L25.7653 150.367C32.0388 149.921 33.8392 145.598 33.8392 145.598Z" fill="#23213D"/>
<path d="M44.1092 138.08L42.4248 134.557C40.5215 135.457 38.566 136.03 34.8574 135.113L34.9701 138.188C40.4921 140.861 44.1092 138.08 44.1092 138.08Z" fill="#23213D"/>
<path d="M29.3217 125.755L32.0811 128.468C30.4098 129.699 29.106 131.066 28.5212 134.563L25.8942 132.916C25.7014 127.625 29.3217 125.755 29.3217 125.755Z" fill="#23213D"/>
<path d="M17.0299 128.415L19.1537 130.843C17.6834 131.758 16.5186 132.808 15.8112 135.673L13.7363 134.139C13.9079 129.736 17.0299 128.415 17.0299 128.415Z" fill="#23213D"/>
<path d="M11.292 123.294L13.0319 120.578C14.3176 121.733 15.6459 122.565 18.5866 122.449L17.6945 124.874C13.4289 125.93 11.292 123.294 11.292 123.294Z" fill="#23213D"/>
<path d="M26.2666 139.542L28.0408 137.414C29.0211 138.54 30.065 139.395 32.5924 139.612L31.5697 141.588C27.8007 142.026 26.2666 139.542 26.2666 139.542Z" fill="#23213D"/>
<path d="M18.5762 142.894L16.2988 140.617C17.7006 139.605 18.7935 138.477 19.3065 135.571L21.481 136.96C21.6003 141.365 18.5762 142.894 18.5762 142.894Z" fill="#23213D"/>
<path d="M5.75879 141.183L7.765 138.564C9.35297 139.931 11.0324 141.02 14.5025 141.321L13.9748 144.013C8.63087 144.73 5.75879 141.183 5.75879 141.183Z" fill="#23213D"/>
<path opacity="0.2" d="M44.1091 138.08L42.4247 134.557C41.7209 134.903 40.9813 135.172 40.2192 135.357C39.6681 135.8 39.1594 136.293 38.6998 136.831C38.1244 137.5 37.6309 138.236 37.2295 139.023C41.4592 140.117 44.1091 138.08 44.1091 138.08Z" fill="white"/>
<path opacity="0.2" d="M30.3005 147.56C30.1736 148.125 30.0814 148.697 30.0244 149.271C32.9047 147.85 33.8441 145.597 33.8441 145.597L31.6157 144.065C31.0099 145.16 30.5668 146.337 30.3005 147.56Z" fill="white"/>
<path d="M53.8745 129.447C53.7029 129.011 53.0233 128.87 52.3551 129.132C51.6869 129.394 51.285 129.961 51.4549 130.398C51.6249 130.835 52.3061 130.976 52.9743 130.712C53.6425 130.449 54.046 129.884 53.8745 129.447Z" fill="#F4F7FE"/>
<path d="M121.295 127.038H117.642C117.348 127.038 117.067 126.921 116.86 126.713C116.652 126.504 116.536 126.222 116.536 125.928V124.548C116.535 124.458 116.499 124.372 116.436 124.308C116.372 124.245 116.286 124.209 116.196 124.209H115.828C115.538 124.209 115.259 124.094 115.052 123.889C114.845 123.685 114.727 123.407 114.722 123.115L114.467 119.777C114.467 119.767 114.467 119.758 114.467 119.748C114.466 119.168 114.582 118.595 114.807 118.061C115.138 117.276 115.692 116.606 116.401 116.135C117.11 115.664 117.942 115.413 118.792 115.414H120.145C120.713 115.413 121.275 115.525 121.801 115.743C122.326 115.96 122.803 116.279 123.205 116.682C123.606 117.084 123.925 117.562 124.142 118.088C124.36 118.614 124.471 119.178 124.471 119.748C124.471 119.758 124.471 119.767 124.471 119.777L124.214 123.109C124.21 123.4 124.092 123.678 123.885 123.883C123.678 124.087 123.399 124.202 123.108 124.203H122.741C122.651 124.203 122.565 124.238 122.501 124.302C122.437 124.365 122.401 124.451 122.401 124.541V125.922C122.402 126.068 122.374 126.213 122.319 126.348C122.263 126.483 122.182 126.606 122.079 126.71C121.976 126.814 121.854 126.896 121.72 126.953C121.585 127.009 121.441 127.038 121.295 127.038ZM115.234 119.735L115.488 123.071C115.489 123.081 115.489 123.09 115.488 123.099C115.488 123.189 115.524 123.276 115.587 123.339C115.651 123.403 115.737 123.439 115.827 123.44H116.194C116.488 123.44 116.769 123.556 116.977 123.764C117.185 123.972 117.302 124.254 117.302 124.548V125.928C117.302 126.018 117.338 126.104 117.401 126.168C117.464 126.232 117.55 126.268 117.64 126.269H121.293C121.383 126.268 121.469 126.232 121.532 126.168C121.596 126.104 121.631 126.018 121.631 125.928V124.548C121.632 124.254 121.749 123.972 121.956 123.764C122.164 123.556 122.446 123.44 122.739 123.44H123.107C123.196 123.439 123.282 123.403 123.346 123.339C123.409 123.276 123.445 123.189 123.445 123.099C123.444 123.09 123.444 123.081 123.445 123.071L123.7 119.735C123.696 118.791 123.319 117.888 122.652 117.223C121.985 116.557 121.083 116.184 120.141 116.184H118.789C117.848 116.184 116.945 116.557 116.278 117.223C115.611 117.888 115.234 118.791 115.23 119.735H115.234Z" fill="#3F4249"/>
<path d="M118.599 126.897C118.497 126.897 118.399 126.857 118.327 126.785C118.255 126.712 118.215 126.615 118.215 126.513V125.401C118.215 125.299 118.255 125.201 118.327 125.129C118.399 125.057 118.497 125.016 118.599 125.016C118.701 125.016 118.798 125.057 118.87 125.129C118.942 125.201 118.983 125.299 118.983 125.401V126.521C118.981 126.621 118.939 126.717 118.867 126.788C118.796 126.858 118.699 126.897 118.599 126.897Z" fill="#3F4249"/>
<path d="M120.338 126.897C120.236 126.897 120.139 126.857 120.066 126.785C119.994 126.712 119.954 126.615 119.954 126.513V125.401C119.954 125.299 119.994 125.201 120.066 125.129C120.139 125.057 120.236 125.016 120.338 125.016C120.44 125.016 120.538 125.057 120.609 125.129C120.681 125.201 120.722 125.299 120.722 125.401V126.521C120.72 126.621 120.678 126.717 120.607 126.788C120.535 126.858 120.438 126.897 120.338 126.897Z" fill="#3F4249"/>
<path d="M117.704 121.995C118.402 121.995 118.968 121.428 118.968 120.728C118.968 120.028 118.402 119.461 117.704 119.461C117.006 119.461 116.439 120.028 116.439 120.728C116.439 121.428 117.006 121.995 117.704 121.995Z" fill="#3F4249"/>
<path d="M121.235 121.995C121.934 121.995 122.5 121.428 122.5 120.728C122.5 120.028 121.934 119.461 121.235 119.461C120.537 119.461 119.971 120.028 119.971 120.728C119.971 121.428 120.537 121.995 121.235 121.995Z" fill="#3F4249"/>
<path d="M119.472 122.305C119.383 122.305 119.297 122.336 119.229 122.391C119.16 122.447 119.113 122.525 119.094 122.611L118.97 123.211C118.958 123.267 118.959 123.325 118.973 123.381C118.986 123.436 119.012 123.488 119.048 123.533C119.085 123.577 119.13 123.614 119.182 123.638C119.234 123.663 119.29 123.676 119.347 123.676H119.602C119.66 123.676 119.716 123.663 119.768 123.638C119.82 123.614 119.865 123.577 119.901 123.533C119.937 123.488 119.963 123.436 119.977 123.381C119.99 123.325 119.991 123.267 119.98 123.211L119.856 122.611C119.837 122.524 119.788 122.445 119.718 122.389C119.648 122.333 119.561 122.304 119.472 122.305Z" fill="#3F4249"/>
<path d="M71.3905 96.6978H66.2998V97.3461H71.3905V96.6978Z" fill="#23213D"/>
<path opacity="0.2" d="M67.2608 96.6978H66.292V97.3461H67.2608V96.6978Z" fill="#82848E"/>
<path opacity="0.2" d="M70.7859 96.6978H70.0752V97.3461H70.7859V96.6978Z" fill="white"/>
<path d="M71.3905 95.4028H66.2998V96.051H71.3905V95.4028Z" fill="#23213D"/>
<path opacity="0.2" d="M67.2608 95.4028H66.292V96.051H67.2608V95.4028Z" fill="#82848E"/>
<path opacity="0.2" d="M70.7859 95.4028H70.0752V96.051H70.7859V95.4028Z" fill="white"/>
<path d="M71.3905 93.4609H66.2998V94.1093H71.3905V93.4609Z" fill="#23213D"/>
<path opacity="0.2" d="M67.2608 93.4609H66.292V94.1093H67.2608V93.4609Z" fill="#82848E"/>
<path opacity="0.2" d="M70.7859 93.4609H70.0752V94.1093H70.7859V93.4609Z" fill="white"/>
<path d="M71.9969 97.3462H66.9062V97.9945H71.9969V97.3462Z" fill="#23213D"/>
<path opacity="0.2" d="M67.9024 97.3101H66.9336V97.9584H67.9024V97.3101Z" fill="#82848E"/>
<path opacity="0.2" d="M71.3943 97.3462H70.6836V97.9945H71.3943V97.3462Z" fill="white"/>
<path d="M71.9969 94.7559H66.9062V95.4042H71.9969V94.7559Z" fill="#23213D"/>
<path opacity="0.2" d="M67.9024 94.7559H66.9336V95.4042H67.9024V94.7559Z" fill="#82848E"/>
<path opacity="0.2" d="M71.3943 94.7559H70.6836V95.4042H71.3943V94.7559Z" fill="white"/>
<path d="M71.9969 94.1074H66.9062V94.7557H71.9969V94.1074Z" fill="#23213D"/>
<path opacity="0.2" d="M67.9024 94.1074H66.9336V94.7557H67.9024V94.1074Z" fill="#82848E"/>
<path opacity="0.2" d="M71.3943 94.1074H70.6836V94.7557H71.3943V94.1074Z" fill="white"/>
<path d="M71.9969 96.0513H66.9062V96.6996H71.9969V96.0513Z" fill="#23213D"/>
<path opacity="0.2" d="M67.9024 96.0513H66.9336V96.6996H67.9024V96.0513Z" fill="#82848E"/>
<path opacity="0.2" d="M71.3943 96.0513H70.6836V96.6996H71.3943V96.0513Z" fill="white"/>
<g opacity="0.3">
<path opacity="0.3" d="M71.3906 97.3252H66.9062V97.3661H71.3906V97.3252Z" fill="#82848E"/>
</g>
<g opacity="0.3">
<path opacity="0.3" d="M71.3906 96.6777H66.9062V96.7187H71.3906V96.6777Z" fill="#82848E"/>
</g>
<g opacity="0.3">
<path opacity="0.3" d="M71.3906 96.0298H66.9062V96.0707H71.3906V96.0298Z" fill="#82848E"/>
</g>
<g opacity="0.3">
<path opacity="0.3" d="M71.3906 95.3828H66.9062V95.4237H71.3906V95.3828Z" fill="#82848E"/>
</g>
<g opacity="0.3">
<path opacity="0.3" d="M71.9969 94.7349H66.9062V94.7758H71.9969V94.7349Z" fill="#82848E"/>
</g>
<g opacity="0.3">
<path opacity="0.3" d="M71.9969 94.0874H66.9062V94.1283H71.9969V94.0874Z" fill="#82848E"/>
</g>
<path d="M71.2294 92.2773H66.1387V92.9257H71.2294V92.2773Z" fill="#23213D"/>
<path opacity="0.2" d="M67.0977 92.2773H66.1289V92.9257H67.0977V92.2773Z" fill="#82848E"/>
<path opacity="0.2" d="M70.6247 92.2773H69.9141V92.9257H70.6247V92.2773Z" fill="white"/>
<path d="M71.2294 90.9824H66.1387V91.6306H71.2294V90.9824Z" fill="#23213D"/>
<path opacity="0.2" d="M67.0977 90.9824H66.1289V91.6306H67.0977V90.9824Z" fill="#82848E"/>
<path opacity="0.2" d="M70.6247 90.9824H69.9141V91.6306H70.6247V90.9824Z" fill="white"/>
<path d="M71.2294 89.0405H66.1387V89.6889H71.2294V89.0405Z" fill="#23213D"/>
<path opacity="0.2" d="M67.0977 89.0405H66.1289V89.6889H67.0977V89.0405Z" fill="#82848E"/>
<path opacity="0.2" d="M70.6247 89.0405H69.9141V89.6889H70.6247V89.0405Z" fill="white"/>
<path d="M71.8358 92.9258H66.7451V93.5741H71.8358V92.9258Z" fill="#23213D"/>
<path opacity="0.2" d="M67.7383 92.8901H66.7695V93.5385H67.7383V92.8901Z" fill="#82848E"/>
<path opacity="0.2" d="M71.2302 92.9258H70.5195V93.5741H71.2302V92.9258Z" fill="white"/>
<path d="M71.8358 90.3354H66.7451V90.9838H71.8358V90.3354Z" fill="#23213D"/>
<path opacity="0.2" d="M67.7383 90.3354H66.7695V90.9838H67.7383V90.3354Z" fill="#82848E"/>
<path opacity="0.2" d="M71.2302 90.3354H70.5195V90.9838H71.2302V90.3354Z" fill="white"/>
<path d="M71.8358 89.687H66.7451V90.3353H71.8358V89.687Z" fill="#23213D"/>
<path opacity="0.2" d="M67.7383 89.687H66.7695V90.3353H67.7383V89.687Z" fill="#82848E"/>
<path opacity="0.2" d="M71.2302 89.687H70.5195V90.3353H71.2302V89.687Z" fill="white"/>
<path d="M71.8358 91.6309H66.7451V92.2792H71.8358V91.6309Z" fill="#23213D"/>
<path opacity="0.2" d="M67.7383 91.6309H66.7695V92.2792H67.7383V91.6309Z" fill="#82848E"/>
<path opacity="0.2" d="M71.2302 91.6309H70.5195V92.2792H71.2302V91.6309Z" fill="white"/>
<g opacity="0.3">
<path opacity="0.3" d="M71.2295 92.9048H66.7451V92.9457H71.2295V92.9048Z" fill="#82848E"/>
</g>
<g opacity="0.3">
<path opacity="0.3" d="M71.2295 92.2573H66.7451V92.2983H71.2295V92.2573Z" fill="#82848E"/>
</g>
<g opacity="0.3">
<path opacity="0.3" d="M71.2295 91.6099H66.7451V91.6508H71.2295V91.6099Z" fill="#82848E"/>
</g>
<g opacity="0.3">
<path opacity="0.3" d="M71.2295 90.9624H66.7451V91.0033H71.2295V90.9624Z" fill="#82848E"/>
</g>
<g opacity="0.3">
<path opacity="0.3" d="M71.8358 90.3145H66.7451V90.3554H71.8358V90.3145Z" fill="#82848E"/>
</g>
<g opacity="0.3">
<path opacity="0.3" d="M71.8358 89.667H66.7451V89.7079H71.8358V89.667Z" fill="#82848E"/>
</g>
<path d="M65.6727 96.6978H60.582V97.3461H65.6727V96.6978Z" fill="#23213D"/>
<path opacity="0.2" d="M61.543 96.6978H60.5742V97.3461H61.543V96.6978Z" fill="#82848E"/>
<path opacity="0.2" d="M65.07 96.6978H64.3594V97.3461H65.07V96.6978Z" fill="white"/>
<path d="M65.6727 95.4028H60.582V96.051H65.6727V95.4028Z" fill="#23213D"/>
<path opacity="0.2" d="M61.543 95.4028H60.5742V96.051H61.543V95.4028Z" fill="#82848E"/>
<path opacity="0.2" d="M65.07 95.4028H64.3594V96.051H65.07V95.4028Z" fill="white"/>
<path d="M65.6727 93.4609H60.582V94.1093H65.6727V93.4609Z" fill="#23213D"/>
<path opacity="0.2" d="M61.543 93.4609H60.5742V94.1093H61.543V93.4609Z" fill="#82848E"/>
<path opacity="0.2" d="M65.07 93.4609H64.3594V94.1093H65.07V93.4609Z" fill="white"/>
<path d="M66.2811 97.3462H61.1904V97.9945H66.2811V97.3462Z" fill="#23213D"/>
<path opacity="0.2" d="M62.1846 97.3101H61.2158V97.9584H62.1846V97.3101Z" fill="#82848E"/>
<path opacity="0.2" d="M65.6755 97.3462H64.9648V97.9945H65.6755V97.3462Z" fill="white"/>
<path d="M66.2811 94.7559H61.1904V95.4042H66.2811V94.7559Z" fill="#23213D"/>
<path opacity="0.2" d="M62.1846 94.7559H61.2158V95.4042H62.1846V94.7559Z" fill="#82848E"/>
<path opacity="0.2" d="M65.6755 94.7559H64.9648V95.4042H65.6755V94.7559Z" fill="white"/>
<path d="M66.2811 94.1074H61.1904V94.7557H66.2811V94.1074Z" fill="#23213D"/>
<path opacity="0.2" d="M62.1846 94.1074H61.2158V94.7557H62.1846V94.1074Z" fill="#82848E"/>
<path opacity="0.2" d="M65.6755 94.1074H64.9648V94.7557H65.6755V94.1074Z" fill="white"/>
<path d="M66.2811 96.0513H61.1904V96.6996H66.2811V96.0513Z" fill="#23213D"/>
<path opacity="0.2" d="M62.1846 96.0513H61.2158V96.6996H62.1846V96.0513Z" fill="#82848E"/>
<path opacity="0.2" d="M65.6755 96.0513H64.9648V96.6996H65.6755V96.0513Z" fill="white"/>
<g opacity="0.3">
<path opacity="0.3" d="M65.6748 97.3252H61.1904V97.3661H65.6748V97.3252Z" fill="#82848E"/>
</g>
<g opacity="0.3">
<path opacity="0.3" d="M65.6748 96.6777H61.1904V96.7187H65.6748V96.6777Z" fill="#82848E"/>
</g>
<g opacity="0.3">
<path opacity="0.3" d="M65.6748 96.0298H61.1904V96.0707H65.6748V96.0298Z" fill="#82848E"/>
</g>
<g opacity="0.3">
<path opacity="0.3" d="M65.6748 95.3828H61.1904V95.4237H65.6748V95.3828Z" fill="#82848E"/>
</g>
<g opacity="0.3">
<path opacity="0.3" d="M66.2811 94.7349H61.1904V94.7758H66.2811V94.7349Z" fill="#82848E"/>
</g>
<g opacity="0.3">
<path opacity="0.3" d="M66.2811 94.0874H61.1904V94.1283H66.2811V94.0874Z" fill="#82848E"/>
</g>
<path d="M74.0651 97.9788C75.2429 97.8004 76.0531 96.699 75.875 95.5189C75.6969 94.3388 74.5979 93.5268 73.4203 93.7053C72.2427 93.8837 71.4324 94.9851 71.6105 96.1653C71.7885 97.3454 72.8876 98.1573 74.0651 97.9788Z" fill="#23213D"/>
<path opacity="0.2" d="M74.0651 97.9788C75.2429 97.8004 76.0531 96.699 75.875 95.5189C75.6969 94.3388 74.5979 93.5268 73.4203 93.7053C72.2427 93.8837 71.4324 94.9851 71.6105 96.1653C71.7885 97.3454 72.8876 98.1573 74.0651 97.9788Z" fill="#82848E"/>
<path d="M75.5736 96.001C75.6997 94.8142 74.8419 93.7497 73.6576 93.6232C72.4733 93.4968 71.4109 94.3565 71.2848 95.5433C71.1586 96.7301 72.0165 97.7947 73.2008 97.9211C74.3851 98.0475 75.4473 97.188 75.5736 96.001Z" fill="#23213D"/>
<path opacity="0.2" d="M75.5736 96.001C75.6997 94.8142 74.8419 93.7497 73.6576 93.6232C72.4733 93.4968 71.4109 94.3565 71.2848 95.5433C71.1586 96.7301 72.0165 97.7947 73.2008 97.9211C74.3851 98.0475 75.4473 97.188 75.5736 96.001Z" fill="white"/>
<path d="M74.0262 97.3881C74.9239 97.06 75.3864 96.0649 75.0592 95.1653C74.7319 94.2656 73.7388 93.8023 72.8411 94.1302C71.9433 94.4582 71.481 95.4534 71.8082 96.3529C72.1355 97.2525 73.1286 97.716 74.0262 97.3881Z" fill="#23213D"/>
<path opacity="0.2" d="M71.8584 95.4409C71.9401 95.137 72.1027 94.8613 72.3288 94.6433C72.5549 94.425 72.8361 94.2726 73.1419 94.2025C73.4479 94.1323 73.7671 94.147 74.0654 94.2448C74.3637 94.3427 74.6299 94.5201 74.8351 94.7582C74.7058 94.5658 74.5394 94.4013 74.3456 94.2746C74.1519 94.1478 73.9346 94.0612 73.7068 94.0201C73.4791 93.979 73.2453 93.9841 73.0195 94.035C72.7937 94.0861 72.5805 94.1821 72.3923 94.3171C72.2043 94.4522 72.0452 94.6236 71.9243 94.8215C71.8035 95.0193 71.7235 95.2394 71.6892 95.4687C71.6547 95.6981 71.6666 95.9321 71.724 96.1567C71.7815 96.3815 71.8833 96.5922 72.0234 96.7769C71.7988 96.3694 71.7403 95.8906 71.8601 95.4409H71.8584Z" fill="#82848E"/>
<path d="M73.0126 96.9008L73.0779 96.6601C72.81 96.575 72.7005 96.4457 72.7888 96.1182C72.8071 96.0481 72.8311 95.9797 72.8607 95.9136L73.2021 96.0052C73.1895 96.0362 73.1786 96.0679 73.1694 96.1002C73.1319 96.241 73.1188 96.3245 73.2576 96.3622C73.3965 96.3998 73.421 96.3523 73.4717 96.1706C73.4945 96.0822 73.5027 96.0511 73.4717 95.9938C73.3965 95.871 73.1613 95.7384 73.0649 95.6189C72.9685 95.4993 72.9815 95.4044 73.0649 95.1179C73.1547 94.7904 73.2838 94.7037 73.6007 94.7741L73.653 94.5825L73.8458 94.6349L73.7951 94.8265C74.081 94.9165 74.1546 95.0458 74.0761 95.3389C74.059 95.4018 74.0376 95.4637 74.0124 95.5239L73.6743 95.4322C73.6841 95.4044 73.6922 95.3749 73.7053 95.3274C73.7396 95.1981 73.7396 95.1293 73.6105 95.0933C73.4815 95.0573 73.4586 95.0933 73.4178 95.2472C73.3769 95.4011 73.3785 95.424 73.4717 95.4993C73.5648 95.5747 73.6726 95.6467 73.7576 95.7187C73.8785 95.8252 73.9618 95.8825 73.8768 96.1984C73.7559 96.6454 73.6301 96.7764 73.2854 96.7092L73.2201 96.9532L73.0126 96.9008Z" fill="#F4F4F4"/>
<path d="M162.489 58.4724C162.487 58.4467 162.487 58.421 162.489 58.3954C162.489 58.3365 162.489 58.2645 162.489 58.1744C162.489 57.973 162.489 57.6914 162.478 57.3296C162.478 56.588 162.461 55.5287 162.45 54.1796L162.5 54.2304L146.307 54.2631C146.345 54.2255 146.224 54.345 146.389 54.1796V56.3571C146.389 57.0742 146.389 57.7798 146.389 58.4691L146.309 58.3889L157.848 58.4249L161.254 58.4478L162.175 58.4593H162.415H162.502C162.478 58.4616 162.451 58.4616 162.427 58.4593H162.195L161.291 58.4691L157.905 58.492L146.305 58.5297H146.224V58.4478C146.224 57.7586 146.224 57.0529 146.224 56.3358V54.1829C146.387 54.0192 146.271 54.1371 146.307 54.1011L162.5 54.1322H162.551V54.1829C162.54 55.5385 162.53 56.6142 162.523 57.3624C162.523 57.7193 162.523 57.9976 162.512 58.1957C162.512 58.2825 162.512 58.3594 162.512 58.4085C162.507 58.4305 162.499 58.4519 162.489 58.4724Z" fill="#FDDEA3"/>
<path d="M164.685 54.1829C164.682 54.1557 164.682 54.1282 164.685 54.1011C164.685 54.0405 164.685 53.9652 164.685 53.8735C164.685 53.6623 164.685 53.3823 164.67 53.0123C164.67 52.2609 164.651 51.1967 164.638 49.8902L164.698 49.9491L154.968 49.972C154.894 50.0457 155.067 49.8722 155.051 49.8902V50.4485C155.051 50.6351 155.051 50.8201 155.051 51.0051V52.0988C155.051 52.8159 155.051 53.5133 155.051 54.1796L154.972 54.1011L161.932 54.1387L163.96 54.16L164.507 54.1698C164.572 54.1692 164.638 54.1724 164.703 54.1796C164.644 54.1877 164.584 54.1909 164.525 54.1895L163.996 54.1993L161.986 54.2206L154.972 54.2582H154.894V54.1829C154.894 53.5166 154.894 52.8191 154.894 52.102V49.8902C154.874 49.9082 155.057 49.7265 154.976 49.8067L164.706 49.8312H164.765V49.8902C164.752 51.213 164.741 52.287 164.732 53.0483C164.732 53.4053 164.721 53.6885 164.718 53.8964C164.713 53.9925 164.701 54.0881 164.685 54.1829Z" fill="#FDDEA3"/>
<path d="M67.57 25.8923C67.5681 25.8666 67.5681 25.8409 67.57 25.8153C67.57 25.7564 67.57 25.6844 67.57 25.5943C67.57 25.393 67.57 25.1114 67.5586 24.7495C67.5586 24.0079 67.5422 22.9486 67.5308 21.5996L67.5815 21.6503L51.388 21.6831C51.4256 21.6454 51.3047 21.7649 51.4697 21.5996V23.777C51.4697 24.4941 51.4697 25.1998 51.4697 25.889L51.3896 25.8088L62.9286 25.8448L66.3349 25.8677L67.2563 25.8792H67.4965H67.5831C67.5581 25.8815 67.5329 25.8815 67.5079 25.8792H67.2759L66.3725 25.889L62.9858 25.9119L51.3864 25.9496H51.3047V25.8677C51.3047 25.1785 51.3047 24.4728 51.3047 23.7558V21.6028C51.4681 21.4391 51.3521 21.557 51.388 21.521L67.5815 21.5521H67.6321V21.6028C67.6207 22.9584 67.6109 24.0341 67.6043 24.7823C67.6043 25.1392 67.5961 25.4175 67.5929 25.6156C67.5929 25.7024 67.5929 25.7793 67.5929 25.8284C67.5875 25.8504 67.5798 25.8718 67.57 25.8923Z" fill="#FDDEA3"/>
<path d="M69.7661 21.6024C69.7625 21.5752 69.7625 21.5477 69.7661 21.5205C69.7661 21.4599 69.7661 21.3846 69.7661 21.2929C69.7661 21.0817 69.7579 20.8018 69.7514 20.4318C69.7432 19.6803 69.7316 18.6161 69.7185 17.3096L69.779 17.3686L60.0485 17.3915C59.975 17.4652 60.1482 17.2916 60.1318 17.3096V17.8679C60.1318 18.0545 60.1318 18.2395 60.1318 18.4245V19.5182C60.1318 20.2353 60.1318 20.9327 60.1318 21.5991L60.0536 21.5205L67.0131 21.5581L69.0407 21.5794L69.588 21.5893C69.6533 21.5886 69.7188 21.5919 69.784 21.5991C69.7249 21.6071 69.6654 21.6104 69.6058 21.6089L69.0765 21.6187L67.0672 21.64L60.0536 21.6777H59.9752V21.6024C59.9752 20.936 59.9752 20.2386 59.9752 19.5215V17.3096C59.9556 17.3276 60.1304 17.1459 60.0569 17.2261L69.7873 17.2507H69.8461V17.3096C69.833 18.6325 69.8216 19.7065 69.8134 20.4678C69.8134 20.8247 69.8018 21.1079 69.7986 21.3158C69.7932 21.4119 69.7822 21.5076 69.7661 21.6024Z" fill="#FDDEA3"/>
<path d="M34.2429 87.778C34.2409 87.7523 34.2409 87.7266 34.2429 87.7011C34.2429 87.6422 34.2429 87.5701 34.2429 87.4801C34.2429 87.2787 34.2429 86.9889 34.2314 86.6353C34.2314 85.8936 34.2151 84.8344 34.2037 83.4853L34.2543 83.5361L18.0609 83.5688C18.0984 83.5312 17.9775 83.6507 18.1425 83.4853V85.6628C18.1425 86.3799 18.1425 87.0855 18.1425 87.7748L18.0625 87.6945L29.6015 87.7306L33.0078 87.7535L33.9292 87.7649H34.1693H34.2559C34.2309 87.7672 34.2058 87.7672 34.1808 87.7649H33.9488L33.0453 87.7748L29.6586 87.7977L18.0592 87.8354H17.9775V87.7535C17.9775 87.0642 17.9775 86.3586 17.9775 85.6415V83.4886C18.1409 83.3249 18.0249 83.4427 18.0609 83.4067L34.2543 83.4378H34.3049V83.4886C34.2935 84.8442 34.2837 85.9198 34.2772 86.668C34.2772 87.0249 34.2772 87.3033 34.2657 87.5014C34.2657 87.5881 34.2657 87.6651 34.2657 87.7142C34.2603 87.7361 34.2527 87.7576 34.2429 87.778Z" fill="#FDDEA3"/>
<path d="M36.4389 83.4886C36.4353 83.4614 36.4353 83.4339 36.4389 83.4067C36.4389 83.3461 36.4389 83.2708 36.4389 83.1791C36.4389 82.9679 36.4307 82.688 36.4241 82.318C36.416 81.5665 36.4045 80.5023 36.3915 79.1958L36.4519 79.2548L26.7215 79.2777C26.648 79.3514 26.8211 79.1778 26.8048 79.1958V79.7541C26.8048 79.9408 26.8048 80.1258 26.8048 80.3108V81.4044C26.8048 82.1215 26.8048 82.819 26.8048 83.4853L26.7264 83.4067L33.686 83.4444L35.7135 83.4657L36.2608 83.4755C36.3263 83.4748 36.3918 83.4781 36.4568 83.4853C36.3978 83.4933 36.3382 83.4966 36.2787 83.4951L35.7494 83.5049L33.7399 83.5262L26.7264 83.5639H26.648V83.4886C26.648 82.8222 26.648 82.1248 26.648 81.4077V79.1958C26.6284 79.2139 26.8113 79.0321 26.7297 79.1124L36.4601 79.1369H36.5189V79.1958C36.5058 80.5187 36.4944 81.5927 36.4862 82.354C36.4862 82.7109 36.4748 82.9941 36.4715 83.2021C36.466 83.2982 36.455 83.3938 36.4389 83.4886Z" fill="#FDDEA3"/>
<path d="M25.9108 83.1941C25.9089 83.1684 25.9089 83.1427 25.9108 83.1171C25.9108 83.0582 25.9108 82.9861 25.9108 82.8961C25.9108 82.6947 25.9108 82.4049 25.8994 82.0513C25.8994 81.3096 25.8831 80.2504 25.8716 78.9013L25.9223 78.9521L9.72883 78.9848C9.7664 78.9472 9.64551 79.0667 9.81051 78.9013V81.0788C9.81051 81.7959 9.81051 82.5015 9.81051 83.1908L9.73046 83.1106L21.2694 83.1466L24.6757 83.1695L25.5972 83.181H25.8373H25.9239C25.8989 83.1833 25.8737 83.1833 25.8487 83.181H25.6168L24.7133 83.1908L21.3266 83.2137L9.72719 83.2514H9.64551V83.1695C9.64551 82.4802 9.64551 81.7746 9.64551 81.0575V78.9046C9.80888 78.7409 9.69288 78.8588 9.72883 78.8227L25.9223 78.8538H25.9729V78.9046C25.9615 80.2602 25.9517 81.3358 25.9451 82.084C25.9451 82.441 25.9451 82.7193 25.9337 82.9174C25.9337 83.0041 25.9337 83.0811 25.9337 83.1302C25.9283 83.1521 25.9206 83.1736 25.9108 83.1941Z" fill="#FDDEA3"/>
<path d="M28.1068 78.9046C28.1032 78.8774 28.1032 78.8499 28.1068 78.8227C28.1068 78.7622 28.1068 78.6868 28.1068 78.5952C28.1068 78.384 28.0987 78.104 28.0921 77.734C28.0839 76.9825 28.0725 75.9183 28.0594 74.6119L28.1199 74.6708L18.3895 74.6937C18.3159 74.7674 18.4891 74.5939 18.4728 74.6119V75.1701C18.4728 75.3568 18.4728 75.5418 18.4728 75.7268V76.8204C18.4728 77.5375 18.4728 78.235 18.4728 78.9013L18.3944 78.8227L25.354 78.8604L27.3815 78.8817L27.9287 78.8915C27.9943 78.8908 28.0598 78.8941 28.1248 78.9013C28.0658 78.9093 28.0062 78.9126 27.9467 78.9111L27.4174 78.921L25.4079 78.9422L18.3944 78.9799H18.3159V78.9046C18.3159 78.2383 18.3159 77.5408 18.3159 76.8237V74.6119C18.2963 74.6299 18.4793 74.4481 18.3976 74.5284L28.1281 74.5529H28.1869V74.6119C28.1738 75.9347 28.1624 77.0087 28.1542 77.77C28.1542 78.1269 28.1428 78.4102 28.1395 78.6181C28.1339 78.7142 28.123 78.8098 28.1068 78.9046Z" fill="#FDDEA3"/>
<path d="M191.079 110.535C191.077 110.51 191.077 110.484 191.079 110.458C191.079 110.399 191.079 110.327 191.079 110.237C191.079 110.036 191.079 109.746 191.067 109.393C191.067 108.651 191.051 107.592 191.04 106.243L191.09 106.293L174.897 106.326C174.934 106.288 174.813 106.408 174.978 106.243V108.42C174.978 109.137 174.978 109.843 174.978 110.532L174.898 110.452L186.437 110.488L189.844 110.511L190.765 110.522H191.005H191.092C191.067 110.525 191.041 110.525 191.017 110.522H190.785L189.881 110.532L186.495 110.555L174.895 110.593H174.813V110.511C174.813 109.822 174.813 109.116 174.813 108.399V106.246C174.977 106.082 174.861 106.2 174.897 106.164L191.09 106.195H191.141V106.246C191.129 107.602 191.12 108.677 191.113 109.425C191.113 109.782 191.113 110.061 191.102 110.259C191.102 110.345 191.102 110.422 191.102 110.472C191.097 110.493 191.089 110.515 191.079 110.535Z" fill="#FDDEA3"/>
<path d="M193.277 106.246C193.273 106.219 193.273 106.191 193.277 106.164C193.277 106.103 193.277 106.028 193.277 105.936C193.277 105.725 193.277 105.445 193.262 105.075C193.262 104.324 193.242 103.26 193.229 101.953L193.29 102.012L183.559 102.035C183.486 102.109 183.659 101.935 183.643 101.953V102.511C183.643 102.698 183.643 102.883 183.643 103.068V104.162C183.643 104.879 183.643 105.576 183.643 106.243L183.564 106.164L190.524 106.202L192.551 106.223L193.099 106.233C193.164 106.232 193.229 106.235 193.295 106.243C193.236 106.251 193.175 106.254 193.117 106.252L192.587 106.262L190.578 106.284L183.564 106.321H183.486V106.246C183.486 105.58 183.486 104.882 183.486 104.165V101.953C183.466 101.971 183.649 101.789 183.568 101.87L193.298 101.894H193.357V101.953C193.344 103.276 193.332 104.35 193.324 105.111C193.324 105.468 193.313 105.751 193.309 105.959C193.305 106.055 193.293 106.151 193.277 106.246Z" fill="#FDDEA3"/>
<path d="M182.747 105.951C182.745 105.926 182.745 105.9 182.747 105.874C182.747 105.816 182.747 105.743 182.747 105.653C182.747 105.452 182.747 105.162 182.735 104.809C182.735 104.067 182.719 103.008 182.708 101.659L182.758 101.709L166.565 101.742C166.602 101.704 166.481 101.824 166.646 101.659V103.836C166.646 104.553 166.646 105.259 166.646 105.948L166.566 105.868L178.105 105.904L181.512 105.927L182.433 105.938H182.673H182.76C182.735 105.941 182.709 105.941 182.685 105.938H182.453L181.549 105.948L178.163 105.971L166.563 106.009H166.481V105.927C166.481 105.238 166.481 104.532 166.481 103.815V101.662C166.645 101.498 166.529 101.616 166.565 101.58L182.758 101.611H182.809V101.662C182.797 103.018 182.788 104.093 182.781 104.841C182.781 105.198 182.781 105.477 182.77 105.675C182.77 105.761 182.77 105.838 182.77 105.888C182.765 105.909 182.757 105.931 182.747 105.951Z" fill="#FDDEA3"/>
<path d="M184.943 101.661C184.939 101.634 184.939 101.607 184.943 101.58C184.943 101.519 184.943 101.444 184.943 101.352C184.943 101.141 184.943 100.861 184.928 100.491C184.928 99.7394 184.908 98.6752 184.895 97.3687L184.956 97.4276L175.225 97.4506C175.152 97.5242 175.325 97.3507 175.309 97.3687V97.927C175.309 98.1136 175.309 98.2986 175.309 98.4836V99.5773C175.309 100.294 175.309 100.992 175.309 101.658L175.23 101.58L182.19 101.617L184.217 101.639L184.765 101.648C184.83 101.648 184.895 101.651 184.961 101.658C184.902 101.666 184.841 101.669 184.783 101.668L184.253 101.678L182.244 101.699L175.23 101.737H175.152V101.661C175.152 100.995 175.152 100.298 175.152 99.5805V97.3687C175.132 97.3867 175.315 97.205 175.234 97.2852L184.964 97.3098H185.023V97.3687C185.01 98.6916 184.998 99.7656 184.99 100.527C184.99 100.884 184.979 101.167 184.975 101.375C184.971 101.471 184.959 101.567 184.943 101.661Z" fill="#FDDEA3"/>
<path d="M172.945 28.1677C172.944 28.1406 172.944 28.1131 172.945 28.0859C172.945 28.0237 172.945 27.95 172.945 27.8583C172.945 27.6471 172.945 27.3671 172.93 26.9971C172.922 26.244 172.913 25.1815 172.899 23.875L172.958 23.9339L163.229 23.9569C163.154 24.0305 163.329 23.857 163.311 23.875V24.9932C163.311 25.3616 163.311 25.7267 163.311 26.0852C163.311 26.804 163.311 27.4998 163.311 28.1677L163.233 28.0891L170.194 28.1268L172.221 28.1481L172.767 28.1579C172.832 28.1573 172.898 28.1605 172.963 28.1677C172.904 28.1756 172.846 28.179 172.787 28.1776L172.256 28.1874L170.246 28.2087L163.233 28.2463H163.154V28.1677C163.154 27.4998 163.154 26.804 163.154 26.0852V23.875L163.238 23.7915L172.966 23.8144H173.027V23.875C173.014 25.1962 173.002 26.2719 172.996 27.0332C172.996 27.3901 172.984 27.6733 172.981 27.8812C172.975 27.9773 172.962 28.0729 172.945 28.1677Z" fill="#FDDEA3"/>
<defs>
<linearGradient id="paint0_linear_576_97736" x1="136.052" y1="154.996" x2="141.851" y2="154.996" gradientUnits="userSpaceOnUse">
<stop stop-color="#FBD07D"/>
<stop offset="1" stop-color="#FFA700"/>
</linearGradient>
<linearGradient id="paint1_linear_576_97736" x1="147.978" y1="154.996" x2="153.777" y2="154.996" gradientUnits="userSpaceOnUse">
<stop stop-color="#FBD07D"/>
<stop offset="1" stop-color="#FFA700"/>
</linearGradient>
<linearGradient id="paint2_linear_576_97736" x1="62.5352" y1="154.914" x2="68.3349" y2="154.914" gradientUnits="userSpaceOnUse">
<stop stop-color="#FBD07D"/>
<stop offset="1" stop-color="#FFA700"/>
</linearGradient>
<linearGradient id="paint3_linear_576_97736" x1="59.5117" y1="126.499" x2="155.084" y2="126.499" gradientUnits="userSpaceOnUse">
<stop stop-color="#FBD07D"/>
<stop offset="1" stop-color="#FFA700"/>
</linearGradient>
<linearGradient id="paint4_linear_576_97736" x1="55.1816" y1="100.1" x2="159.74" y2="100.1" gradientUnits="userSpaceOnUse">
<stop stop-color="#FBD07D"/>
<stop offset="1" stop-color="#FFA700"/>
</linearGradient>
<linearGradient id="paint5_linear_576_97736" x1="92.2998" y1="23.9483" x2="119.062" y2="23.9483" gradientUnits="userSpaceOnUse">
<stop stop-color="#FBD07D"/>
<stop offset="1" stop-color="#FFA700"/>
</linearGradient>
<linearGradient id="paint6_linear_576_97736" x1="103.863" y1="18.7445" x2="107.49" y2="18.7445" gradientUnits="userSpaceOnUse">
<stop stop-color="#FBD07D"/>
<stop offset="1" stop-color="#FFA700"/>
</linearGradient>
<linearGradient id="paint7_linear_576_97736" x1="104.439" y1="17.8819" x2="106.919" y2="17.8819" gradientUnits="userSpaceOnUse">
<stop stop-color="#FBD07D"/>
<stop offset="1" stop-color="#FFA700"/>
</linearGradient>
<linearGradient id="paint8_linear_576_97736" x1="105.457" y1="8.66736" x2="105.897" y2="8.66736" gradientUnits="userSpaceOnUse">
<stop stop-color="#FBD07D"/>
<stop offset="1" stop-color="#FFA700"/>
</linearGradient>
<linearGradient id="paint9_linear_576_97736" x1="6.9153e-08" y1="131.563" x2="7.80428" y2="131.563" gradientUnits="userSpaceOnUse">
<stop stop-color="#FBD07D"/>
<stop offset="1" stop-color="#FFA700"/>
</linearGradient>
</defs>
</svg>
