<svg width="208" height="160" viewBox="0 0 208 160" fill="none" xmlns="http://www.w3.org/2000/svg">
<path d="M145.341 152.074C145.341 152.074 168.38 150.638 184.22 122.407C200.059 94.1761 197.179 51.1117 177.5 27.1871C157.821 3.26245 127.102 -4.87193 97.8224 2.78396C83.5572 6.51142 74.0439 16.1818 65.8218 27.8474C58.6604 38.0106 50.6062 47.8006 39.7681 54.2315C29.0357 60.5955 18.0008 65.6771 12.5817 77.7734C-0.608254 107.229 9.02505 141.489 40.2241 153.031C73.8231 165.472 129.981 158.773 145.341 152.074Z" fill="#FFDC36"/>
<path opacity="0.7" d="M145.341 152.074C145.341 152.074 168.38 150.638 184.22 122.407C200.059 94.1761 197.179 51.1117 177.5 27.1871C157.821 3.26245 127.102 -4.87193 97.8224 2.78396C83.5572 6.51142 74.0439 16.1818 65.8218 27.8474C58.6604 38.0106 50.6062 47.8006 39.7681 54.2315C29.0357 60.5955 18.0008 65.6771 12.5817 77.7734C-0.608254 107.229 9.02505 141.489 40.2241 153.031C73.8231 165.472 129.981 158.773 145.341 152.074Z" fill="white"/>
<path d="M207.765 156.341H0.234665C0.168546 156.328 0.108926 156.292 0.0661208 156.24C0.0233153 156.188 0 156.123 0 156.055C0 155.988 0.0233153 155.923 0.0661208 155.871C0.108926 155.819 0.168546 155.783 0.234665 155.77H207.765C207.832 155.783 207.891 155.819 207.933 155.871C207.977 155.923 208 155.988 208 156.055C208 156.123 207.977 156.188 207.933 156.24C207.891 156.292 207.832 156.328 207.765 156.341Z" fill="#B2B6BB"/>
<path d="M36.2577 35.1275C35.269 37.4866 34.664 39.9875 34.4652 42.5363H34.3697L27.9259 42.4012H27.8438V42.2109C27.8667 42.0434 27.8877 41.876 27.9087 41.7066C28.0098 40.8331 28.1745 39.9679 28.4017 39.1183C28.7746 37.7232 29.298 36.3723 29.963 35.0894C29.9756 35.058 29.9985 35.032 30.0282 35.0152C30.0576 34.9986 30.092 34.9926 30.1254 34.9981C32.1319 35.0424 34.139 35.0843 36.1469 35.1237L36.2577 35.1275Z" fill="#2B3048"/>
<path d="M35.7201 51.7526H35.615L29.6375 51.6289C29.6057 51.6319 29.5738 51.6239 29.5473 51.6062C29.5209 51.5885 29.5014 51.5623 29.4922 51.5318C28.8205 50.0622 28.3451 48.5114 28.0781 46.9187C27.9459 46.1494 27.8624 45.3728 27.8278 44.593C27.8244 44.5668 27.8192 44.5407 27.8125 44.515V44.3247H27.9119L34.3193 44.4579C34.4378 44.4579 34.4321 44.4579 34.4378 44.5797C34.4665 45.1107 34.4913 45.6417 34.5314 46.1707C34.5983 47.0113 34.7164 47.847 34.885 48.6733C35.0849 49.685 35.3537 50.6821 35.6895 51.6574C35.7086 51.6841 35.7086 51.7145 35.7201 51.7526Z" fill="#2B3048"/>
<path d="M61.2557 54.205C61.2347 54.2412 61.2194 54.2678 61.2022 54.2945C60.6697 55.0687 60.0775 55.8004 59.4308 56.4831C58.6521 57.3235 57.7896 58.083 56.8567 58.7497C55.0543 60.051 53.0268 61.0112 50.8754 61.5815C50.039 61.7998 49.1886 61.9608 48.33 62.063L48.0797 62.1011H47.9325L47.7949 62.0078L47.9574 61.8975C49.8391 60.6783 51.4955 59.1446 52.8532 57.3642C53.6203 56.3586 54.2987 55.2889 54.8808 54.167C54.8919 54.1365 54.9131 54.1108 54.941 54.0943C54.9689 54.0777 55.0015 54.0711 55.0336 54.0756L61.1487 54.205H61.2557Z" fill="#2B3048"/>
<path d="M55.4091 42.9674L46.8652 42.7904L47.0219 35.3549C47.055 35.353 47.0881 35.353 47.1213 35.3549L53.6931 35.4901C53.7222 35.4868 53.7514 35.4939 53.7757 35.5104C53.7997 35.5268 53.8173 35.5513 53.825 35.5795C54.409 36.9907 54.8345 38.4618 55.0938 39.9662C55.2297 40.7492 55.3228 41.5388 55.3728 42.3318C55.39 42.5411 55.39 42.7486 55.4091 42.9674Z" fill="#2B3048"/>
<path d="M55.314 44.9537C55.3025 45.1287 55.2968 45.3038 55.2777 45.477C55.2318 45.89 55.1936 46.3049 55.1267 46.716C55.035 47.2869 54.9356 47.8578 54.8095 48.4135C54.5286 49.6529 54.132 50.8634 53.6247 52.0295C53.6165 52.0637 53.5956 52.0938 53.5662 52.1134C53.537 52.1332 53.5012 52.1412 53.4661 52.136C51.2239 52.0866 48.9818 52.039 46.7395 51.9933H46.6172L46.7701 44.7881L55.314 44.9537Z" fill="#2B3048"/>
<path d="M45.0918 35.3593L44.9351 42.8062L36.5918 42.6311C36.6071 42.4408 36.6166 42.2505 36.6415 42.0754C36.6912 41.6605 36.7351 41.2418 36.8096 40.8308C36.9243 40.2008 37.0466 39.5728 37.1918 38.9505C37.4982 37.698 37.9276 36.4785 38.4741 35.3098C38.484 35.2807 38.5041 35.2558 38.5307 35.2398C38.5572 35.2238 38.5886 35.2175 38.6193 35.2223L44.9809 35.3574L45.0918 35.3593Z" fill="#2B3048"/>
<path d="M44.8997 44.8331C44.8487 47.1688 44.799 49.5028 44.7507 51.8347V51.9413H44.6379C42.4518 51.8956 40.2668 51.8505 38.0833 51.8062C38.051 51.8094 38.0185 51.8011 37.9918 51.7826C37.9652 51.7641 37.9461 51.7367 37.9381 51.7053C37.4562 50.4864 37.1021 49.221 36.8813 47.9295C36.7705 47.2653 36.6902 46.5973 36.6195 45.9255C36.5718 45.4897 36.5698 45.0463 36.5488 44.6067C36.5488 44.5953 36.5488 44.5838 36.5488 44.561C36.5813 44.5591 36.6138 44.5591 36.6463 44.561L44.7927 44.7285C44.8749 44.7266 44.9016 44.7456 44.8997 44.8331Z" fill="#2B3048"/>
<path d="M64.4595 43.212L57.4577 43.0654C57.369 40.4945 56.871 37.954 55.9824 35.5386H56.0913L62.5084 35.6699C62.5407 35.6668 62.573 35.6745 62.6003 35.6916C62.6276 35.7089 62.6484 35.7348 62.6593 35.765C63.3723 37.256 63.8802 38.8359 64.169 40.462C64.3211 41.329 64.4163 42.205 64.4537 43.0845C64.4633 43.1244 64.4595 43.1644 64.4595 43.212Z" fill="#2B3048"/>
<path d="M64.4373 45.086C64.4258 45.2554 64.4182 45.4153 64.4029 45.5732C64.2152 47.6648 63.6588 49.7068 62.7595 51.6061C62.6601 51.8212 62.5512 52.0324 62.4499 52.2456C62.4421 52.2663 62.4275 52.284 62.4084 52.2956C62.3895 52.3074 62.3671 52.3126 62.3448 52.3103C60.2007 52.2633 58.056 52.2176 55.9106 52.1732H55.8418C55.924 51.9525 56.0061 51.7374 56.0845 51.5205C56.4858 50.4207 56.7996 49.2912 57.0228 48.1424C57.1894 47.3087 57.3075 46.4662 57.3763 45.6189C57.3935 45.4286 57.4107 45.2192 57.4222 45.0213C57.4222 44.9661 57.4413 44.9414 57.4986 44.9471C57.5196 44.949 57.5408 44.949 57.5617 44.9471L64.4373 45.086Z" fill="#2B3048"/>
<path d="M61.4918 33.7539C61.4918 33.7539 61.4823 33.771 61.4765 33.7805H61.3886L55.264 33.6549C55.2334 33.658 55.2027 33.6507 55.1763 33.6345C55.1501 33.6184 55.1298 33.5942 55.1188 33.5655C54.3387 31.928 53.3483 30.3983 52.1721 29.0151C51.4784 28.2156 50.7106 27.4829 49.8789 26.8265C49.468 26.4973 49.0419 26.189 48.6215 25.8749L48.5508 25.8198L48.6368 25.7646C48.6272 25.7246 48.6158 25.6846 48.6005 25.6313C51.2091 25.9834 53.7109 26.8912 55.9355 28.2929C58.16 29.6945 60.0552 31.5571 61.4918 33.7539Z" fill="#2B3048"/>
<path d="M43.3477 61.9216C43.2896 61.9365 43.23 61.9446 43.17 61.9463C42.4988 61.8436 41.8344 61.7007 41.1806 61.5181C38.5535 60.7929 36.126 59.4829 34.0814 57.6872C33.3056 57.0137 32.5913 56.273 31.9469 55.4738C31.4688 54.8667 31.0283 54.2313 30.6283 53.5707L30.6016 53.5117H30.7028C32.6048 53.5523 34.5057 53.5909 36.4052 53.6278C36.4359 53.6261 36.4663 53.6345 36.4919 53.6516C36.5173 53.6689 36.5366 53.6938 36.5466 53.723C37.1141 54.932 37.7916 56.087 38.5703 57.1733C39.2905 58.1591 40.0933 59.0821 40.9704 59.9328C41.6914 60.6408 42.4686 61.29 43.2942 61.874C43.3133 61.8883 43.3312 61.9041 43.3477 61.9216Z" fill="#2B3048"/>
<path d="M44.024 25.7147C43.7603 25.905 43.4507 26.1086 43.1469 26.3294C42.1354 27.079 41.1929 27.9166 40.3301 28.832C39.1622 30.0505 38.1581 31.4151 37.3433 32.8913C37.2936 32.9846 37.2458 33.0816 37.1904 33.1711C37.1797 33.1855 37.1663 33.1977 37.1509 33.2069C37.1356 33.216 37.1184 33.2221 37.1006 33.2244C36.9974 33.2244 36.8923 33.2244 36.7891 33.2244L31.2148 33.1083C34.4119 28.8072 38.6389 26.2685 43.9629 25.5776L43.9247 25.6481L44.024 25.7147Z" fill="#2B3048"/>
<path d="M52.6253 54.0301C51.8111 55.3882 50.8373 56.6448 49.7245 57.7736C48.7409 58.7883 47.6396 59.6828 46.4434 60.4379L46.5809 53.9121L52.6253 54.0301Z" fill="#2B3048"/>
<path d="M44.6982 53.8675L44.5625 60.2677C42.186 58.5682 40.2455 56.3343 38.8984 53.7476L44.6982 53.8675Z" fill="#2B3048"/>
<path d="M52.8602 33.5463L47.0566 33.4264L47.1847 27.3364C48.3592 28.1327 49.4331 29.0667 50.3836 30.1188C51.3253 31.1733 52.1553 32.3218 52.8602 33.5463Z" fill="#2B3048"/>
<path d="M45.2629 27.4775L45.1368 33.4343L39.5645 33.3259C40.977 30.9584 42.9291 28.9549 45.2629 27.4775Z" fill="#2B3048"/>
<path d="M188.094 94.1856C191.576 90.0558 190.898 84.6033 188.689 81.8153L184.33 82.1959C186.191 83.5528 187.028 87.2144 185.612 89.0262C184.196 90.838 180.894 91.6906 179.115 90.2194C177.718 89.0776 176.713 85.8289 174.911 86.0154C174.674 82.1654 171.018 78.8483 167.146 78.9739C166.676 77.9928 165.99 77.1303 165.14 76.4509C164.288 75.7715 163.294 75.2927 162.229 75.0502C161.167 74.8077 160.062 74.8081 158.998 75.0514C157.936 75.2944 156.94 75.774 156.09 76.4541L155.898 90.9921C155.898 90.9921 158.48 95.1542 163.504 94.6214C164.826 94.4805 165.954 94.1818 166.839 93.43C166.965 93.5897 167.12 93.7241 167.295 93.8259C167.985 94.2217 168.874 94.1342 169.589 93.7764C169.678 93.7288 169.768 93.6774 169.854 93.6241C171.289 95.8394 174.249 97.8605 176.638 98.4029C180.118 99.187 185.803 96.9051 188.094 94.1856Z" fill="white"/>
<g opacity="0.2">
<path opacity="0.2" d="M174.553 87.4397C174.549 87.4182 174.549 87.3965 174.553 87.375L174.589 87.1846C174.606 87.1047 174.625 87.0038 174.641 86.882C174.656 86.7602 174.681 86.6251 174.688 86.4672C174.763 85.5801 174.662 84.6874 174.392 83.8389C174.209 83.2532 173.945 82.6959 173.607 82.1832C173.225 81.5927 172.743 81.072 172.183 80.6436C170.893 79.6507 169.29 79.1515 167.662 79.2372C167.427 79.2372 167.197 79.281 166.981 79.3095H166.939L166.926 79.2714C166.418 77.8142 165.416 76.5776 164.096 75.7716C163.802 75.5946 163.496 75.4395 163.179 75.3072C162.879 75.1881 162.571 75.0878 162.258 75.0065C161.698 74.8526 161.119 74.7696 160.538 74.7591C159.699 74.7365 158.866 74.9009 158.097 75.2406C157.977 75.2905 157.858 75.3478 157.744 75.4119C157.658 75.4534 157.574 75.4996 157.494 75.5508L157.341 75.6403C157.323 75.6521 157.306 75.6616 157.287 75.6688C157.287 75.6688 157.302 75.6555 157.335 75.6327L157.482 75.5337C157.562 75.4797 157.644 75.4302 157.73 75.3853C157.845 75.3194 157.962 75.2597 158.082 75.2064C158.85 74.8497 159.691 74.6733 160.54 74.6906C161.126 74.6971 161.709 74.777 162.275 74.9285C162.592 75.0092 162.903 75.1091 163.207 75.2273C163.528 75.3599 163.84 75.5164 164.138 75.6955C165.481 76.5079 166.5 77.7607 167.018 79.2391L166.962 79.2067C167.887 79.0592 168.835 79.104 169.743 79.3377C170.65 79.5716 171.499 79.9895 172.237 80.5656C172.802 81.0027 173.288 81.5331 173.674 82.1337C174.012 82.6537 174.276 83.2189 174.455 83.8123C174.721 84.6699 174.813 85.5719 174.723 86.4653C174.711 86.6232 174.685 86.7621 174.665 86.882C174.65 86.9833 174.631 87.0838 174.604 87.1827L174.558 87.373C174.558 87.3953 174.556 87.4178 174.553 87.4397Z" fill="#2B3048"/>
</g>
<g opacity="0.2">
<path opacity="0.2" d="M176.987 87.9054C176.967 87.9054 176.943 87.7399 176.83 87.4963C176.763 87.3551 176.681 87.2217 176.583 87.0985C176.465 86.9486 176.327 86.8137 176.174 86.697C176.02 86.5838 175.853 86.4892 175.676 86.4153C175.53 86.3569 175.378 86.3154 175.223 86.2916C174.957 86.2498 174.787 86.2707 174.785 86.2517C174.823 86.2357 174.864 86.2266 174.904 86.225C175.013 86.2121 175.123 86.2121 175.232 86.225C175.395 86.2403 175.555 86.2768 175.708 86.3335C175.895 86.4058 176.073 86.5031 176.236 86.6228C176.394 86.7451 176.536 86.8879 176.658 87.0472C176.755 87.1787 176.834 87.322 176.895 87.4734C176.937 87.5749 176.966 87.6809 176.981 87.7894C176.99 87.8617 176.994 87.9035 176.987 87.9054Z" fill="#2B3048"/>
</g>
<g opacity="0.2">
<path opacity="0.2" d="M176.278 92.8641C176.278 92.8641 176.239 92.7499 176.146 92.5539C176.012 92.2772 175.823 92.0302 175.592 91.8269C175.248 91.5171 174.812 91.3262 174.351 91.2826C173.776 91.2301 173.201 91.3989 172.746 91.7546L172.685 91.8041L172.668 91.7279C172.612 91.4739 172.526 91.2272 172.412 90.9933C172.123 90.3885 171.668 89.8779 171.099 89.5203C170.631 89.2335 170.101 89.0601 169.555 89.0141C169.186 88.9827 168.815 89.0057 168.452 89.0826C168.194 89.1416 168.057 89.193 168.055 89.1835C168.085 89.1639 168.118 89.1492 168.152 89.1397C168.248 89.1024 168.343 89.0712 168.443 89.0464C168.897 88.93 169.369 88.9048 169.834 88.973C170.298 89.0409 170.745 89.2004 171.147 89.4423C171.735 89.8046 172.205 90.3278 172.502 90.9496C172.618 91.1922 172.706 91.4476 172.763 91.7108L172.685 91.6823C173.159 91.3125 173.759 91.1399 174.359 91.2008C174.835 91.2482 175.284 91.4484 175.636 91.7717C175.869 91.9845 176.054 92.2439 176.178 92.5329C176.213 92.6098 176.239 92.6894 176.26 92.7708C176.272 92.8003 176.278 92.8321 176.278 92.8641Z" fill="#2B3048"/>
</g>
<g opacity="0.2">
<path opacity="0.2" d="M190.058 90.7036C190.051 90.7542 190.037 90.8041 190.02 90.8521C189.99 90.9491 189.949 91.0919 189.884 91.2726C189.695 91.7802 189.46 92.2695 189.181 92.7343C188.763 93.4238 188.264 94.0623 187.696 94.6374C187.364 94.975 187.01 95.2928 186.64 95.589C186.244 95.9112 185.831 96.2103 185.401 96.4853C183.894 97.4613 182.231 98.1738 180.483 98.5921C179.955 98.7187 179.416 98.7982 178.874 98.83C178.682 98.83 178.531 98.83 178.43 98.83C178.379 98.83 178.327 98.8256 178.275 98.8167C178.327 98.8123 178.379 98.8123 178.43 98.8167C178.531 98.8167 178.681 98.8167 178.87 98.7976C179.409 98.7508 179.944 98.6612 180.467 98.5293C182.199 98.0946 183.848 97.3783 185.346 96.4092C185.772 96.135 186.185 95.8375 186.579 95.5185C186.947 95.2215 187.299 94.9038 187.631 94.567C188.197 94.0017 188.696 93.3748 189.12 92.6981C189.403 92.2394 189.646 91.7581 189.848 91.2593C189.919 91.0804 189.963 90.9396 190.001 90.8463C190.016 90.7976 190.035 90.7499 190.058 90.7036Z" fill="#2B3048"/>
</g>
<g opacity="0.2">
<path opacity="0.2" d="M186.127 87.1851C186.136 87.2697 186.136 87.3554 186.127 87.4401C186.106 87.6702 186.064 87.8982 186.005 88.1214C185.804 88.8659 185.399 89.5404 184.835 90.0694C184.273 90.5987 183.574 90.9618 182.815 91.1188C182.588 91.1687 182.356 91.1968 182.125 91.2025C182.041 91.2086 181.955 91.2048 181.871 91.1911C182.183 91.1618 182.492 91.1156 182.8 91.0522C183.537 90.8804 184.216 90.5167 184.768 89.9986C185.318 89.4804 185.722 88.8261 185.936 88.1024C186.018 87.8009 186.083 87.4945 186.127 87.1851Z" fill="#2B3048"/>
</g>
<path d="M162.057 40.3511H59.0503C58.5976 40.3511 58.2305 40.7167 58.2305 41.1675V115.899C58.2305 116.35 58.5976 116.716 59.0503 116.716H162.057C162.51 116.716 162.877 116.35 162.877 115.899V41.1675C162.877 40.7167 162.51 40.3511 162.057 40.3511Z" fill="#2B3048"/>
<path opacity="0.6" d="M162.057 40.3511H59.0503C58.5976 40.3511 58.2305 40.7167 58.2305 41.1675V115.899C58.2305 116.35 58.5976 116.716 59.0503 116.716H162.057C162.51 116.716 162.877 116.35 162.877 115.899V41.1675C162.877 40.7167 162.51 40.3511 162.057 40.3511Z" fill="white"/>
<path opacity="0.4" d="M58.8746 40.2163H162.149C162.366 40.2163 162.575 40.3023 162.728 40.4555C162.882 40.6085 162.968 40.8162 162.968 41.0327V46.6831H58.0586V41.0327C58.0586 40.8169 58.1444 40.6099 58.2973 40.4569C58.4503 40.3038 58.6579 40.2173 58.8746 40.2163Z" fill="url(#paint0_linear_576_95724)"/>
<path d="M160.951 40.333H57.9448C57.4919 40.333 57.125 40.6984 57.125 41.1494V115.881C57.125 116.332 57.4919 116.698 57.9448 116.698H160.951C161.404 116.698 161.771 116.332 161.771 115.881V41.1494C161.771 40.6984 161.404 40.333 160.951 40.333Z" fill="#FFDC36"/>
<path opacity="0.4" d="M160.951 40.333H57.9448C57.4919 40.333 57.125 40.6984 57.125 41.1494V115.881C57.125 116.332 57.4919 116.698 57.9448 116.698H160.951C161.404 116.698 161.771 116.332 161.771 115.881V41.1494C161.771 40.6984 161.404 40.333 160.951 40.333Z" fill="white"/>
<path d="M160.895 116.828H58.0243C57.2083 116.828 57.002 116.637 57.002 115.838V41.1898C57.002 40.3924 57.2083 40.2002 58.0243 40.2002H160.895C161.711 40.2002 161.917 40.3905 161.917 41.1898V115.838C161.917 116.633 161.711 116.828 160.895 116.828ZM58.0243 40.4628C57.3555 40.4628 57.2714 40.5371 57.2714 41.1898V115.838C57.2714 116.489 57.3555 116.565 58.0243 116.565H160.895C161.562 116.565 161.648 116.489 161.648 115.838V41.1898C161.648 40.5371 161.562 40.4628 160.895 40.4628H58.0243Z" fill="url(#paint1_linear_576_95724)"/>
<path opacity="0.6" d="M160.895 116.828H58.0243C57.2083 116.828 57.002 116.637 57.002 115.838V41.1898C57.002 40.3924 57.2083 40.2002 58.0243 40.2002H160.895C161.711 40.2002 161.917 40.3905 161.917 41.1898V115.838C161.917 116.633 161.711 116.828 160.895 116.828ZM58.0243 40.4628C57.3555 40.4628 57.2714 40.5371 57.2714 41.1898V115.838C57.2714 116.489 57.3555 116.565 58.0243 116.565H160.895C161.562 116.565 161.648 116.489 161.648 115.838V41.1898C161.648 40.5371 161.562 40.4628 160.895 40.4628H58.0243Z" fill="white"/>
<path d="M57.812 40.2163H161.086C161.304 40.2163 161.512 40.3023 161.665 40.4555C161.82 40.6085 161.906 40.8162 161.906 41.0327V46.6831H56.9941V41.0327C56.9941 40.8166 57.0803 40.6091 57.2336 40.4561C57.387 40.3031 57.595 40.2169 57.812 40.2163Z" fill="#2B3048"/>
<path d="M60.626 44.4784C61.138 44.4784 61.5529 44.0652 61.5529 43.5553C61.5529 43.0457 61.138 42.6323 60.626 42.6323C60.1141 42.6323 59.6992 43.0457 59.6992 43.5553C59.6992 44.0652 60.1141 44.4784 60.626 44.4784Z" fill="white"/>
<path d="M63.5772 44.4784C64.0892 44.4784 64.5041 44.0652 64.5041 43.5553C64.5041 43.0457 64.0892 42.6323 63.5772 42.6323C63.0653 42.6323 62.6504 43.0457 62.6504 43.5553C62.6504 44.0652 63.0653 44.4784 63.5772 44.4784Z" fill="white"/>
<path d="M66.5264 44.4784C67.0384 44.4784 67.4532 44.0652 67.4532 43.5553C67.4532 43.0457 67.0384 42.6323 66.5264 42.6323C66.0147 42.6323 65.5996 43.0457 65.5996 43.5553C65.5996 44.0652 66.0147 44.4784 66.5264 44.4784Z" fill="white"/>
<path d="M143.383 71.4751H75.5135C74.0919 71.4751 72.9395 72.6229 72.9395 74.0386V74.3089C72.9395 75.7246 74.0919 76.8724 75.5135 76.8724H143.383C144.805 76.8724 145.957 75.7246 145.957 74.3089V74.0386C145.957 72.6229 144.805 71.4751 143.383 71.4751Z" fill="white"/>
<path d="M143.391 71.4751H137.748V76.8704H143.391C144.073 76.8704 144.729 76.6004 145.21 76.1197C145.694 75.6389 145.965 74.9869 145.965 74.3069V74.0386C145.965 73.3588 145.694 72.7068 145.21 72.2259C144.729 71.7452 144.073 71.4751 143.391 71.4751Z" fill="#2B3048"/>
<path d="M139.854 75.5974C139.842 75.5841 139.833 75.5687 139.828 75.5519C139.822 75.535 139.819 75.5173 139.821 75.4994C139.822 75.4817 139.827 75.4644 139.835 75.4486C139.843 75.4328 139.854 75.4185 139.868 75.4071L140.94 74.4384C140.952 74.4272 140.966 74.4184 140.982 74.4129C140.997 74.4074 141.014 74.4049 141.03 74.406C141.047 74.4072 141.063 74.4116 141.077 74.4192C141.092 74.4266 141.105 74.4371 141.116 74.4498L141.251 74.6116C141.263 74.6247 141.272 74.6401 141.278 74.6569C141.284 74.6736 141.287 74.6915 141.286 74.7092C141.285 74.7269 141.28 74.7442 141.272 74.7602C141.264 74.776 141.253 74.7903 141.24 74.8019L140.16 75.7668C140.148 75.7778 140.133 75.786 140.118 75.7913C140.102 75.7967 140.086 75.7986 140.069 75.7974C140.053 75.7961 140.037 75.7917 140.022 75.7841C140.008 75.7765 139.995 75.7662 139.984 75.7534L139.854 75.5974Z" fill="white"/>
<path d="M142.21 72.542C142.34 72.5431 142.469 72.5648 142.592 72.6067C142.857 72.699 143.081 72.8815 143.224 73.1223C143.368 73.363 143.421 73.6464 143.377 73.9227C143.331 74.199 143.188 74.4503 142.976 74.6326C142.762 74.8147 142.49 74.9161 142.21 74.919C142.08 74.9179 141.95 74.896 141.827 74.8543C141.56 74.7639 141.333 74.5818 141.188 74.3405C141.042 74.0991 140.988 73.8142 141.033 73.5366C141.079 73.2589 141.223 73.0064 141.438 72.8242C141.654 72.6421 141.927 72.542 142.21 72.542ZM142.21 72.8636C142.005 72.8648 141.806 72.938 141.65 73.0705C141.494 73.2029 141.39 73.386 141.356 73.5874C141.322 73.7889 141.36 73.9958 141.464 74.1718C141.568 74.3479 141.731 74.4817 141.925 74.5498C142.017 74.5804 142.113 74.5964 142.21 74.5974C142.391 74.5976 142.567 74.5414 142.716 74.4367C142.863 74.3319 142.974 74.1838 143.033 74.0131C143.071 73.9054 143.087 73.7916 143.079 73.678C143.073 73.5644 143.043 73.4532 142.993 73.3508C142.943 73.2484 142.873 73.1569 142.789 73.0815C142.703 73.006 142.603 72.9481 142.494 72.9112C142.403 72.8792 142.307 72.8631 142.21 72.8636Z" fill="white"/>
<path d="M76.7651 74.5995C77.0236 74.5995 77.2332 74.3908 77.2332 74.1333C77.2332 73.8758 77.0236 73.667 76.7651 73.667C76.5065 73.667 76.2969 73.8758 76.2969 74.1333C76.2969 74.3908 76.5065 74.5995 76.7651 74.5995Z" fill="#B2B6BB"/>
<path d="M78.3256 74.5995C78.5842 74.5995 78.7938 74.3908 78.7938 74.1333C78.7938 73.8758 78.5842 73.667 78.3256 73.667C78.0671 73.667 77.8574 73.8758 77.8574 74.1333C77.8574 74.3908 78.0671 74.5995 78.3256 74.5995Z" fill="#B2B6BB"/>
<path d="M79.8901 74.5995C80.1486 74.5995 80.3582 74.3908 80.3582 74.1333C80.3582 73.8758 80.1486 73.667 79.8901 73.667C79.6315 73.667 79.4219 73.8758 79.4219 74.1333C79.4219 74.3908 79.6315 74.5995 79.8901 74.5995Z" fill="#B2B6BB"/>
<path d="M81.4545 74.5995C81.7131 74.5995 81.9227 74.3908 81.9227 74.1333C81.9227 73.8758 81.7131 73.667 81.4545 73.667C81.196 73.667 80.9863 73.8758 80.9863 74.1333C80.9863 74.3908 81.196 74.5995 81.4545 74.5995Z" fill="#B2B6BB"/>
<path d="M83.0131 74.5995C83.2717 74.5995 83.4813 74.3908 83.4813 74.1333C83.4813 73.8758 83.2717 73.667 83.0131 73.667C82.7546 73.667 82.5449 73.8758 82.5449 74.1333C82.5449 74.3908 82.7546 74.5995 83.0131 74.5995Z" fill="#B2B6BB"/>
<path d="M84.5717 74.5995C84.8303 74.5995 85.0399 74.3908 85.0399 74.1333C85.0399 73.8758 84.8303 73.667 84.5717 73.667C84.3131 73.667 84.1035 73.8758 84.1035 74.1333C84.1035 74.3908 84.3131 74.5995 84.5717 74.5995Z" fill="#B2B6BB"/>
<path d="M90.3155 59.2549H88.5842C87.5624 59.2549 86.7344 60.0797 86.7344 61.0971V65.6265C86.7344 66.6439 87.5624 67.4688 88.5842 67.4688H90.3155C91.3371 67.4688 92.1653 66.6439 92.1653 65.6265V61.0971C92.1653 60.0797 91.3371 59.2549 90.3155 59.2549Z" fill="white"/>
<path d="M98.3917 62.0586H96.6603C95.6388 62.0586 94.8105 62.8834 94.8105 63.9008V65.625C94.8105 66.6424 95.6388 67.4673 96.6603 67.4673H98.3917C99.4133 67.4673 100.241 66.6424 100.241 65.625V63.9008C100.241 62.8834 99.4133 62.0586 98.3917 62.0586Z" fill="white"/>
<path d="M106.462 62.0586H104.731C103.709 62.0586 102.881 62.8834 102.881 63.9008V65.625C102.881 66.6424 103.709 67.4673 104.731 67.4673H106.462C107.484 67.4673 108.312 66.6424 108.312 65.625V63.9008C108.312 62.8834 107.484 62.0586 106.462 62.0586Z" fill="white"/>
<path d="M114.528 59.2549H112.797C111.775 59.2549 110.947 60.0797 110.947 61.0971V65.6265C110.947 66.6439 111.775 67.4688 112.797 67.4688H114.528C115.55 67.4688 116.378 66.6439 116.378 65.6265V61.0971C116.378 60.0797 115.55 59.2549 114.528 59.2549Z" fill="white"/>
<path d="M120.867 59.2549H120.865C119.844 59.2549 119.016 60.0797 119.016 61.0971V65.6265C119.016 66.6439 119.844 67.4688 120.865 67.4688H120.867C121.889 67.4688 122.717 66.6439 122.717 65.6265V61.0971C122.717 60.0797 121.889 59.2549 120.867 59.2549Z" fill="white"/>
<path d="M127.928 62.0586H127.201C126.18 62.0586 125.352 62.8834 125.352 63.9008V65.625C125.352 66.6424 126.18 67.4673 127.201 67.4673H127.928C128.949 67.4673 129.777 66.6424 129.777 65.625V63.9008C129.777 62.8834 128.949 62.0586 127.928 62.0586Z" fill="white"/>
<path d="M134.527 83.9351H84.3928C84.0561 83.9351 83.7832 84.2068 83.7832 84.5422V94.1453C83.7832 94.4806 84.0561 94.7524 84.3928 94.7524H134.527C134.864 94.7524 135.136 94.4806 135.136 94.1453V84.5422C135.136 84.2068 134.864 83.9351 134.527 83.9351Z" fill="white"/>
<path d="M131.694 85.9727H100.471V86.5778H131.694V85.9727Z" fill="#2B3048"/>
<path d="M131.694 88.0181H100.471V88.6233H131.694V88.0181Z" fill="#2B3048"/>
<path d="M131.694 90.0649H100.471V90.6702H131.694V90.0649Z" fill="#2B3048"/>
<path d="M120.61 92.1099H100.471V92.7151H120.61V92.1099Z" fill="#2B3048"/>
<path d="M97.5377 84.6812H84.6406V94.0064H97.5377V84.6812Z" fill="#F4F4F4"/>
<path d="M84.6406 91.3836L88.4453 89.2238L91.0997 90.712L95.2751 87.8477L97.5377 89.6653V94.0063H84.6636L84.6406 91.3836Z" fill="#2B3048"/>
<path d="M90.1715 86.5793C90.1715 86.7989 90.1062 87.0134 89.9837 87.1959C89.8612 87.3784 89.6869 87.5206 89.4834 87.6045C89.2797 87.6884 89.0555 87.7103 88.8394 87.6673C88.6233 87.6245 88.4247 87.5185 88.269 87.3632C88.1132 87.2079 88.0072 87.0099 87.9646 86.7945C87.9217 86.5793 87.9441 86.356 88.0288 86.1533C88.1132 85.9506 88.2564 85.7775 88.4398 85.6559C88.6233 85.5341 88.8388 85.4693 89.0593 85.4697C89.3544 85.4703 89.6374 85.5873 89.8459 85.7954C90.0544 86.0034 90.1715 86.2854 90.1715 86.5793Z" fill="#2B3048"/>
<path d="M134.527 97.4468H84.3928C84.0561 97.4468 83.7832 97.7185 83.7832 98.0539V107.657C83.7832 107.992 84.0561 108.264 84.3928 108.264H134.527C134.864 108.264 135.136 107.992 135.136 107.657V98.0539C135.136 97.7185 134.864 97.4468 134.527 97.4468Z" fill="white"/>
<path d="M131.694 99.4854H100.471V100.091H131.694V99.4854Z" fill="#2B3048"/>
<path d="M131.694 101.53H100.471V102.135H131.694V101.53Z" fill="#2B3048"/>
<path d="M131.694 103.577H100.471V104.182H131.694V103.577Z" fill="#2B3048"/>
<path d="M120.61 105.623H100.471V106.228H120.61V105.623Z" fill="#2B3048"/>
<path d="M97.5377 98.1929H84.6406V107.518H97.5377V98.1929Z" fill="#F4F4F4"/>
<path d="M93.4113 103.401C93.7187 102.119 92.9244 100.831 91.6371 100.525C90.3499 100.219 89.0571 101.01 88.7496 102.292C88.4423 103.574 89.2367 104.862 90.524 105.168C91.8112 105.474 93.104 104.683 93.4113 103.401Z" fill="#2B3048"/>
<path d="M91.8925 102.856L91.2674 103.215L90.6406 103.575V102.856V102.136L91.2674 102.496L91.8925 102.856Z" fill="#F4F4F4"/>
<path d="M105.926 140.986L89.6349 144.819C89.5758 144.832 89.5137 144.822 89.4621 144.79C89.4107 144.759 89.3739 144.708 89.3597 144.649L84.3912 123.696C84.3841 123.667 84.3828 123.637 84.3876 123.607C84.3922 123.578 84.4027 123.55 84.4182 123.525C84.4338 123.499 84.4545 123.477 84.4787 123.46C84.5028 123.443 84.5303 123.43 84.5594 123.424L96.7647 120.552L102.041 123.616L106.096 140.712C106.11 140.77 106.1 140.832 106.068 140.884C106.036 140.935 105.985 140.972 105.926 140.986Z" fill="#2B3048"/>
<path opacity="0.2" d="M96.7695 120.552L102.046 123.616L97.9582 124.577C97.8991 124.591 97.837 124.58 97.7854 124.549C97.7338 124.517 97.6969 124.466 97.683 124.408L96.7695 120.552Z" fill="#2B3048"/>
<path opacity="0.1" d="M88.7129 142.131L105.583 138.163L106.205 140.787C106.217 140.834 106.209 140.883 106.183 140.924C106.158 140.965 106.117 140.994 106.071 141.005L89.5537 144.89C89.5306 144.896 89.5065 144.896 89.483 144.893C89.4595 144.889 89.437 144.88 89.4165 144.868C89.3963 144.856 89.3787 144.839 89.3647 144.82C89.3508 144.801 89.3408 144.779 89.3353 144.756L88.7129 142.131Z" fill="#2B3048"/>
<path d="M95.6504 135.296L94.8077 135.267L94.5879 128.087L95.4306 128.115L95.6504 135.296Z" fill="white"/>
<path d="M93.3984 134.478L89.9434 133.024L92.3187 129.987L92.9837 130.503L91.2829 132.678L93.727 133.704L93.3984 134.478Z" fill="white"/>
<path d="M97.918 133.411L97.2759 132.865L98.9996 130.857L96.5039 129.671L96.867 128.914L100.354 130.571L97.918 133.411Z" fill="white"/>
<path d="M160.793 127.198L160.888 125.786C160.89 125.761 160.886 125.737 160.873 125.716C160.86 125.696 160.84 125.68 160.818 125.671L156.971 124.468C156.942 124.462 156.912 124.466 156.887 124.481C156.862 124.496 156.843 124.52 156.835 124.549L156.405 125.915L151.937 140.069C151.932 140.082 151.93 140.097 151.93 140.111C151.93 140.126 151.934 140.14 151.939 140.153C151.947 140.167 151.955 140.179 151.966 140.188C151.976 140.198 151.989 140.206 152.002 140.211L171.571 146.339C171.599 146.346 171.63 146.341 171.655 146.326C171.681 146.311 171.699 146.286 171.706 146.258L176.138 132.216C176.147 132.188 176.147 132.158 176.134 132.131C176.122 132.104 176.1 132.083 176.073 132.071L160.862 127.314C160.839 127.305 160.819 127.289 160.806 127.268C160.795 127.247 160.789 127.222 160.793 127.198Z" fill="url(#paint2_linear_576_95724)"/>
<path opacity="0.2" d="M160.793 127.198L160.888 125.786C160.89 125.761 160.886 125.737 160.873 125.716C160.86 125.696 160.84 125.68 160.818 125.671L156.971 124.468C156.942 124.462 156.912 124.466 156.887 124.481C156.862 124.496 156.843 124.52 156.835 124.549L156.405 125.915L151.937 140.069C151.932 140.082 151.93 140.097 151.93 140.111C151.93 140.126 151.934 140.14 151.939 140.153C151.947 140.167 151.955 140.179 151.966 140.188C151.976 140.198 151.989 140.206 152.002 140.211L171.571 146.339C171.599 146.346 171.63 146.341 171.655 146.326C171.681 146.311 171.699 146.286 171.706 146.258L176.138 132.216C176.147 132.188 176.147 132.158 176.134 132.131C176.122 132.104 176.1 132.083 176.073 132.071L160.862 127.314C160.839 127.305 160.819 127.289 160.806 127.268C160.795 127.247 160.789 127.222 160.793 127.198Z" fill="#2B3048"/>
<path d="M160.793 127.198L160.888 125.786C160.89 125.761 160.886 125.737 160.873 125.716C160.86 125.696 160.84 125.68 160.818 125.671L156.971 124.468C156.942 124.462 156.912 124.466 156.887 124.481C156.862 124.496 156.843 124.52 156.835 124.549L156.405 125.915L151.937 140.069C151.932 140.082 151.93 140.097 151.93 140.111C151.93 140.126 151.934 140.14 151.939 140.153C151.947 140.167 151.955 140.179 151.966 140.188C151.976 140.198 151.989 140.206 152.002 140.211L171.571 146.339C171.599 146.346 171.63 146.341 171.655 146.326C171.681 146.311 171.699 146.286 171.706 146.258L176.138 132.216C176.147 132.188 176.147 132.158 176.134 132.131C176.122 132.104 176.1 132.083 176.073 132.071L160.862 127.314C160.839 127.305 160.819 127.289 160.806 127.268C160.795 127.247 160.789 127.222 160.793 127.198Z" fill="url(#paint3_linear_576_95724)"/>
<path opacity="0.2" d="M160.793 127.198L160.888 125.786C160.89 125.761 160.886 125.737 160.873 125.716C160.86 125.696 160.84 125.68 160.818 125.671L156.971 124.468C156.942 124.462 156.912 124.466 156.887 124.481C156.862 124.496 156.843 124.52 156.835 124.549L156.405 125.915L151.937 140.069C151.932 140.082 151.93 140.097 151.93 140.111C151.93 140.126 151.934 140.14 151.939 140.153C151.947 140.167 151.955 140.179 151.966 140.188C151.976 140.198 151.989 140.206 152.002 140.211L171.571 146.339C171.599 146.346 171.63 146.341 171.655 146.326C171.681 146.311 171.699 146.286 171.706 146.258L176.138 132.216C176.147 132.188 176.147 132.158 176.134 132.131C176.122 132.104 176.1 132.083 176.073 132.071L160.862 127.314C160.839 127.305 160.819 127.289 160.806 127.268C160.795 127.247 160.789 127.222 160.793 127.198Z" fill="#2B3048"/>
<path d="M154.172 133.92L166.561 142.528L177.656 126.69L168.458 120.299L163.153 121.101L154.172 133.92Z" fill="#2B3048"/>
<path opacity="0.2" d="M168.445 120.299L163.141 121.101L166.33 123.318L168.445 120.299Z" fill="#2B3048"/>
<g opacity="0.2">
<path opacity="0.2" d="M174.596 128.501L167.707 123.716L167.422 124.123L174.309 128.909L174.596 128.501Z" fill="#2B3048"/>
<path opacity="0.2" d="M173.875 129.53L166.988 124.745L166.703 125.152L173.59 129.938L173.875 129.53Z" fill="#2B3048"/>
<path opacity="0.2" d="M173.15 130.557L166.261 125.771L165.977 126.179L172.864 130.964L173.15 130.557Z" fill="#2B3048"/>
<path opacity="0.2" d="M172.431 131.584L162.339 124.572L162.055 124.98L172.146 131.991L172.431 131.584Z" fill="#2B3048"/>
<path opacity="0.2" d="M171.716 132.609L161.625 125.598L161.34 126.005L171.432 133.016L171.716 132.609Z" fill="#2B3048"/>
<path opacity="0.2" d="M171.002 133.635L160.91 126.624L160.625 127.031L170.717 134.042L171.002 133.635Z" fill="#2B3048"/>
<path opacity="0.2" d="M170.267 134.663L160.177 127.652L159.891 128.059L169.982 135.07L170.267 134.663Z" fill="#2B3048"/>
<path opacity="0.2" d="M169.556 135.688L159.464 128.677L159.178 129.084L169.269 136.095L169.556 135.688Z" fill="#2B3048"/>
<path opacity="0.2" d="M168.841 136.712L158.75 129.701L158.465 130.109L168.557 137.12L168.841 136.712Z" fill="#2B3048"/>
<path opacity="0.2" d="M168.119 137.743L158.027 130.731L157.74 131.139L167.832 138.15L168.119 137.743Z" fill="#2B3048"/>
<path opacity="0.2" d="M167.394 138.768L157.302 131.757L157.018 132.164L167.109 139.175L167.394 138.768Z" fill="#2B3048"/>
<path opacity="0.2" d="M166.681 139.794L156.589 132.783L156.305 133.19L166.396 140.201L166.681 139.794Z" fill="#2B3048"/>
</g>
<path d="M151.945 140.194L171.513 146.32C171.528 146.324 171.544 146.324 171.559 146.322C171.576 146.319 171.589 146.313 171.603 146.304C171.616 146.295 171.628 146.284 171.635 146.271C171.645 146.257 171.651 146.243 171.652 146.227L174.374 132.949C174.381 132.923 174.378 132.895 174.364 132.871C174.353 132.847 174.332 132.828 174.305 132.819L158.767 127.951C158.746 127.944 158.729 127.931 158.715 127.913C158.704 127.895 158.696 127.874 158.696 127.852L158.633 126.497C158.633 126.476 158.625 126.454 158.614 126.437C158.601 126.419 158.583 126.406 158.562 126.398L155.033 125.295C155.018 125.291 155.002 125.291 154.985 125.293C154.97 125.296 154.956 125.302 154.943 125.311C154.93 125.32 154.918 125.331 154.91 125.344C154.901 125.358 154.895 125.372 154.893 125.388L151.885 140.063C151.878 140.088 151.88 140.115 151.891 140.139C151.903 140.163 151.922 140.183 151.945 140.194Z" fill="url(#paint4_linear_576_95724)"/>
<path d="M151.945 140.194L171.513 146.32C171.528 146.324 171.544 146.324 171.559 146.322C171.576 146.319 171.589 146.313 171.603 146.304C171.616 146.295 171.628 146.284 171.635 146.271C171.645 146.257 171.651 146.243 171.652 146.227L174.374 132.949C174.381 132.923 174.378 132.895 174.364 132.871C174.353 132.847 174.332 132.828 174.305 132.819L158.767 127.951C158.746 127.944 158.729 127.931 158.715 127.913C158.704 127.895 158.696 127.874 158.696 127.852L158.633 126.497C158.633 126.476 158.625 126.454 158.614 126.437C158.601 126.419 158.583 126.406 158.562 126.398L155.033 125.295C155.018 125.291 155.002 125.291 154.985 125.293C154.97 125.296 154.956 125.302 154.943 125.311C154.93 125.32 154.918 125.331 154.91 125.344C154.901 125.358 154.895 125.372 154.893 125.388L151.885 140.063C151.878 140.088 151.88 140.115 151.891 140.139C151.903 140.163 151.922 140.183 151.945 140.194Z" fill="url(#paint5_linear_576_95724)"/>
<path d="M72.2284 63.0036L63.4609 56.198L65.7082 53.8286C65.7082 53.8286 76.8128 59.2735 79.2512 63.0036L76.7574 64.8705L72.2284 63.0036Z" fill="#FC9D9D"/>
<path d="M39.8203 92.215L43.5123 102.454L46.2354 101.694L44.7601 91.3472L39.8203 92.215Z" fill="#FC9D9D"/>
<path d="M56.6176 65.2989L62.0199 65.2647C62.0199 65.2647 65.2685 64.4425 66.6291 64.2731L72.2187 62.998C72.2187 62.998 77.3095 64.0086 79.2376 62.998C79.2376 62.998 80.3479 65.7119 77.4413 67.1507L65.6985 72.9971L66.2087 76.3846C66.2087 76.3846 67.6515 87.3751 68.0356 95.5928L49.0387 97.0392L48.0183 84.8592L45.299 78.4248L44.4486 86.3817L45.1289 91.2918L39.4208 92.2947L38.1348 86.9888C38.0379 86.5867 38.0062 86.1716 38.0411 85.7594L39.1743 72.1502C39.1743 72.1502 39.1743 68.7626 41.5554 67.5827L49.8241 65.002L56.6176 65.2989Z" fill="#2B3048"/>
<path d="M58.2797 56.7811C58.7964 56.7183 59.2669 56.4536 59.5876 56.0454C59.9084 55.6369 60.0531 55.1185 59.99 54.6039C59.9269 54.0893 59.6611 53.6208 59.2512 53.3014C58.8411 52.9819 58.3206 52.8378 57.8039 52.9006C57.7446 52.9006 57.5841 52.8797 57.6128 52.9368C58.1803 54.5925 57.8459 56.8154 58.2797 56.7811Z" fill="#2B3048"/>
<path d="M49.8262 64.9997C49.8262 65.0987 53.5659 67.4909 55.2418 67.156C56.0922 66.9866 56.6387 65.4013 56.6196 65.3043L56.161 62.6798V61.3191C56.2393 61.0051 56.6158 60.7082 56.6158 60.2933C56.7343 58.3807 56.9521 56.645 56.9521 56.645C56.9521 56.645 50.6746 52.4581 50.2791 57.3359L50.1205 58.0457L49.8262 64.9997Z" fill="#FC9D9D"/>
<path opacity="0.15" d="M52.2303 62.2534C52.6851 62.7102 53.2565 63.0946 54.3744 63.1631C55.2306 63.6675 55.7656 63.6656 56.2587 63.6066L56.1134 62.5294C55.5784 63.1003 53.3291 63.2488 52.3775 62.1012C52.3545 62.065 52.2743 62.0707 52.238 62.1012C52.2244 62.124 52.2164 62.1497 52.215 62.1764C52.2137 62.2028 52.2191 62.2293 52.2303 62.2534Z" fill="#2B3048"/>
<path d="M57.4426 50.6739C57.4426 50.6739 60.6071 61.9537 55.3405 62.9339C50.781 63.7788 49.9021 56.6669 49.9021 56.6669L49.8828 52.0385L53.3512 50.4551L57.4426 50.6739Z" fill="#FC9D9D"/>
<path d="M56.1445 53.53C55.5502 52.8259 54.6158 52.3482 53.6718 52.4433C52.6074 52.5499 51.8086 53.4653 52.0073 54.6966L52.0494 54.9688C52.0689 55.0927 52.0387 55.2194 51.9655 55.3214C51.8923 55.4236 51.7819 55.4931 51.6576 55.515C51.5411 55.5266 51.4279 55.561 51.3249 55.6164C51.2217 55.6718 51.1306 55.7468 51.0566 55.8374C50.9829 55.928 50.9277 56.0322 50.8944 56.1441C50.8612 56.256 50.8503 56.3733 50.8627 56.4894L50.9487 57.2944C50.9519 57.3412 50.9365 57.3875 50.9057 57.423C50.8749 57.4586 50.8313 57.4807 50.7843 57.4847C50.7843 57.4847 50.5512 57.5418 50.4958 57.3496L50.3047 56.4932L50.7366 51.545L54.7152 50.1558L56.5306 51.4518L56.1445 53.53Z" fill="#2B3048"/>
<path opacity="0.15" d="M49.9746 57.6743C49.9746 57.6743 50.2617 58.6164 50.4856 58.1825L50.145 59.0294L49.9746 57.6743Z" fill="#2B3048"/>
<path d="M56.1596 59.7796L54.0078 59.458C54.0162 59.6995 54.108 59.9309 54.2679 60.1129C54.4277 60.295 54.6455 60.4164 54.8849 60.4571C55.9111 60.6322 56.1596 59.7796 56.1596 59.7796Z" fill="white"/>
<path d="M53.9935 56.355C53.9076 56.362 53.8258 56.3944 53.7581 56.4479C53.6907 56.5014 53.6408 56.5735 53.6144 56.6551C53.5882 56.737 53.5869 56.8247 53.6106 56.9071C53.6345 56.9897 53.6823 57.0634 53.7482 57.1187C53.8139 57.1743 53.8948 57.2089 53.9804 57.2186C54.0662 57.2282 54.1527 57.2124 54.2294 57.173C54.306 57.1336 54.3691 57.0725 54.4107 56.9973C54.4524 56.9221 54.4709 56.8363 54.4636 56.7509C54.4539 56.6363 54.3989 56.5303 54.3108 56.4561C54.2227 56.3818 54.1084 56.3455 53.9935 56.355Z" fill="#2B3048"/>
<path d="M54.2346 56.7235C54.2794 56.72 54.3128 56.6835 54.3092 56.6419C54.3056 56.6002 54.2663 56.5692 54.2213 56.5725C54.1766 56.576 54.143 56.6126 54.1468 56.6541C54.1504 56.6958 54.1897 56.7269 54.2346 56.7235Z" fill="white"/>
<path d="M48.986 145.276L54.0579 145.261L53.2647 152.493H48.9727L48.986 145.276Z" fill="#FC9D9D"/>
<path opacity="0.15" d="M48.9883 152.535L49.0036 147.412L53.8402 147.397L53.7657 148.012L50.6795 148.48C50.5383 148.499 50.4081 148.566 50.3114 148.67C50.2147 148.774 50.1578 148.909 50.1501 149.051L50.047 151.276L48.9883 152.535Z" fill="#2B3048"/>
<path d="M48.8891 150.882L48.8738 151.307C48.8694 151.666 48.8048 152.022 48.6827 152.361L48.1534 153.84C48.0077 154.258 47.9336 154.698 47.9336 155.141V155.216C47.9361 155.288 47.9529 155.359 47.9831 155.424C48.0133 155.49 48.0565 155.549 48.1098 155.598C48.1631 155.647 48.2258 155.684 48.2938 155.709C48.362 155.734 48.4345 155.744 48.5069 155.741H53.7831C53.9287 155.745 54.0703 155.693 54.1775 155.595C54.2847 155.497 54.3489 155.36 54.3563 155.216V155.025C54.356 154.642 54.2967 154.262 54.1805 153.897L53.7238 152.389C53.6237 152.082 53.574 151.761 53.5767 151.438V150.882C53.574 150.532 53.4374 150.197 53.1945 149.944L53.1219 149.856C52.6373 149.365 51.9772 149.085 51.2858 149.077C50.5946 149.069 49.9281 149.333 49.4318 149.813L49.2999 149.944C49.0546 150.197 48.9088 150.53 48.8891 150.882Z" fill="#2B3048"/>
<path opacity="0.6" d="M47.9336 154.805H54.3411C54.3537 154.878 54.3588 154.952 54.3564 155.026V155.216C54.3539 155.288 54.3371 155.359 54.3069 155.425C54.2767 155.49 54.2335 155.55 54.1802 155.598C54.1269 155.647 54.0642 155.685 53.9961 155.71C53.9279 155.734 53.8555 155.745 53.7831 155.742H48.5069C48.3613 155.746 48.2197 155.694 48.1125 155.596C48.0053 155.497 47.941 155.361 47.9336 155.216V154.805Z" fill="#2B3048"/>
<path d="M52.3796 151.117C52.3926 151.086 52.3939 151.05 52.383 151.018C52.3721 150.985 52.3498 150.958 52.3203 150.94C51.9796 150.774 51.6049 150.687 51.2254 150.687C50.8457 150.687 50.4711 150.774 50.1304 150.94C50.0989 150.956 50.075 150.983 50.0637 151.016C50.0524 151.049 50.0547 151.085 50.0702 151.116C50.0857 151.148 50.113 151.172 50.1461 151.183C50.1791 151.194 50.2154 151.192 50.247 151.176C50.5502 151.033 50.8818 150.958 51.2177 150.958C51.5535 150.958 51.8852 151.033 52.1885 151.176C52.2055 151.187 52.2257 151.192 52.2458 151.19C52.2724 151.19 52.2985 151.183 52.322 151.171C52.3454 151.158 52.3652 151.14 52.3796 151.117Z" fill="white"/>
<path d="M52.3781 151.791C52.3911 151.759 52.3924 151.724 52.3815 151.691C52.3706 151.659 52.3483 151.631 52.3188 151.614C51.9779 151.447 51.6034 151.36 51.2238 151.36C50.8441 151.36 50.4696 151.447 50.1288 151.614C50.113 151.621 50.0988 151.632 50.0872 151.645C50.0757 151.658 50.0669 151.673 50.0614 151.69C50.0558 151.706 50.0537 151.724 50.0551 151.741C50.0564 151.758 50.0614 151.775 50.0696 151.791C50.0769 151.806 50.0872 151.82 50.1002 151.832C50.1132 151.843 50.1285 151.852 50.1449 151.857C50.1615 151.863 50.1789 151.865 50.1961 151.863C50.2135 151.861 50.2301 151.856 50.2454 151.848C50.5487 151.704 50.8802 151.629 51.2162 151.629C51.5519 151.629 51.8837 151.704 52.187 151.848C52.2003 151.863 52.2309 151.863 52.2443 151.863C52.2709 151.863 52.297 151.857 52.3205 151.844C52.3439 151.831 52.3637 151.813 52.3781 151.791Z" fill="white"/>
<path d="M52.3796 152.449C52.3926 152.417 52.3939 152.382 52.383 152.349C52.3721 152.317 52.3498 152.289 52.3203 152.272C51.9796 152.105 51.6049 152.019 51.2254 152.019C50.8457 152.019 50.4711 152.105 50.1304 152.272C50.0989 152.287 50.075 152.314 50.0637 152.347C50.0524 152.381 50.0547 152.416 50.0702 152.448C50.0857 152.479 50.113 152.503 50.1461 152.514C50.1791 152.526 50.2154 152.523 50.247 152.508C50.5502 152.364 50.8818 152.29 51.2177 152.29C51.5535 152.29 51.8852 152.364 52.1885 152.508C52.2055 152.518 52.2257 152.523 52.2458 152.521C52.2724 152.521 52.2985 152.515 52.322 152.502C52.3454 152.49 52.3652 152.471 52.3796 152.449Z" fill="white"/>
<path d="M64.4258 145.61L69.4057 145.597L69.5319 148.452C69.5477 148.82 69.6477 149.179 69.8238 149.503C69.9998 149.827 70.2477 150.106 70.5485 150.321L74.2003 152.918L65.0468 152.694L64.4258 145.61Z" fill="#FC9D9D"/>
<path opacity="0.15" d="M67.7008 151.545L69.0136 152.064L65.0216 152.5L64.584 147.668H69.4646L69.4932 148.239L66.5733 148.661C66.4216 148.683 66.2844 148.763 66.1898 148.883C66.0952 149.003 66.0505 149.154 66.065 149.307V149.364C66.1087 149.842 66.2847 150.299 66.5735 150.684C66.8622 151.069 67.2524 151.367 67.7008 151.545Z" fill="#2B3048"/>
<path d="M64.9452 150.688L66.8925 151.291C67.032 151.334 67.1801 151.341 67.323 151.312C67.466 151.283 67.5992 151.218 67.7104 151.124L69.2392 149.816C69.4067 149.672 69.6194 149.59 69.8407 149.585C70.062 149.58 70.2783 149.651 70.4526 149.788L73.9229 152.471L76.6594 153.371C77.0527 153.502 77.3949 153.753 77.638 154.088C77.8809 154.423 78.0125 154.825 78.0143 155.238C78.0137 155.354 77.9674 155.464 77.8855 155.546C77.8035 155.627 77.6924 155.673 77.5766 155.674H65.4535C65.3163 155.674 65.1805 155.648 65.0536 155.596C64.9269 155.544 64.8117 155.467 64.7146 155.371C64.6177 155.274 64.5407 155.159 64.4885 155.033C64.4363 154.907 64.4096 154.771 64.4102 154.635V151.08C64.4109 151.016 64.4268 150.953 64.4562 150.896C64.4856 150.839 64.5279 150.789 64.5799 150.751C64.6316 150.713 64.6916 150.688 64.7551 150.677C64.8183 150.666 64.8835 150.669 64.9452 150.688Z" fill="#2B3048"/>
<path opacity="0.6" d="M64.4258 154.803H77.9668C78.0073 154.945 78.0266 155.092 78.0241 155.239C78.0236 155.354 77.9773 155.465 77.8953 155.547C77.8135 155.628 77.7025 155.674 77.5865 155.675H65.4558C65.2083 155.674 64.9689 155.587 64.7803 155.427C64.5916 155.267 64.4661 155.046 64.4258 154.803Z" fill="#2B3048"/>
<path d="M70.483 151.179L71.2149 150.393C71.2355 150.372 71.247 150.345 71.247 150.316C71.247 150.287 71.2355 150.259 71.2149 150.239C71.1944 150.218 71.1665 150.207 71.1375 150.207C71.1086 150.207 71.0807 150.218 71.0601 150.239L70.3263 151.024C70.3062 151.045 70.2949 151.073 70.2949 151.102C70.2949 151.13 70.3062 151.158 70.3263 151.179C70.3458 151.196 70.3708 151.206 70.397 151.207C70.4275 151.205 70.4572 151.195 70.483 151.179Z" fill="white"/>
<path d="M71.0594 151.629L71.7932 150.843C71.8138 150.823 71.8253 150.795 71.8253 150.766C71.8253 150.737 71.8138 150.71 71.7932 150.689C71.7727 150.669 71.7448 150.657 71.7158 150.657C71.6867 150.657 71.659 150.669 71.6384 150.689L70.9046 151.475C70.8845 151.496 70.873 151.523 70.873 151.552C70.873 151.581 70.8845 151.609 70.9046 151.629C70.9235 151.648 70.9489 151.658 70.9753 151.658C71.0053 151.655 71.0339 151.645 71.0594 151.629Z" fill="white"/>
<path d="M71.6357 152.081L72.3695 151.293C72.3898 151.272 72.4011 151.245 72.4011 151.216C72.4011 151.187 72.3898 151.16 72.3695 151.139C72.3485 151.119 72.3204 151.107 72.2912 151.107C72.262 151.107 72.2339 151.119 72.2128 151.139L71.4809 151.925C71.4607 151.946 71.4492 151.974 71.4492 152.003C71.4492 152.032 71.4607 152.06 71.4809 152.081C71.5006 152.098 71.5257 152.108 71.5516 152.108C71.582 152.109 71.6118 152.1 71.6357 152.081Z" fill="white"/>
<path d="M57.4181 57.0666C57.6587 57.0666 57.8538 56.8722 57.8538 56.6326C57.8538 56.3928 57.6587 56.1987 57.4181 56.1987C57.1773 56.1987 56.9824 56.3928 56.9824 56.6326C56.9824 56.8722 57.1773 57.0666 57.4181 57.0666Z" fill="#2B3048"/>
<path d="M57.5901 56.5491C57.635 56.5456 57.6684 56.5092 57.6648 56.4675C57.6611 56.4257 57.6217 56.3947 57.577 56.3982C57.532 56.4015 57.4986 56.4381 57.5022 56.4796C57.506 56.5214 57.5454 56.5524 57.5901 56.5491Z" fill="white"/>
<path opacity="0.2" d="M56.0744 59.136L55.5221 59.1989C55.4897 59.1975 55.4585 59.1867 55.4323 59.1676C55.4061 59.1488 55.3863 59.1225 55.375 59.0923C55.3773 59.0603 55.3886 59.0297 55.4075 59.0038C55.4264 58.9779 55.4522 58.9577 55.482 58.9457L56.0343 58.881C56.0985 58.8711 56.1564 58.8373 56.1965 58.7864C56.2367 58.7356 56.2558 58.6715 56.2502 58.607C56.2177 58.4699 56.0897 58.3615 55.9731 58.3919C55.941 58.3896 55.9103 58.3784 55.8843 58.3596C55.8581 58.3407 55.838 58.315 55.826 58.2853C55.8011 58.2282 55.8757 58.1616 55.933 58.1369C56.0656 58.1224 56.1986 58.1588 56.3053 58.2387C56.4117 58.3186 56.4837 58.4361 56.5063 58.567C56.517 58.6329 56.5143 58.7 56.4983 58.7649C56.482 58.8296 56.453 58.8904 56.4127 58.9436C56.3721 58.9967 56.3215 59.0413 56.2632 59.0744C56.2051 59.1075 56.1409 59.1284 56.0744 59.136Z" fill="#2B3048"/>
<path d="M48.6198 53.5655C48.6771 52.3132 49.2523 51.3369 50.3186 51.0134C50.7702 50.8857 51.2458 50.8674 51.706 50.9601C51.7474 50.9702 51.7904 50.9715 51.8325 50.9645C51.8745 50.9573 51.9148 50.9416 51.9506 50.9184C51.9863 50.8954 52.0171 50.8651 52.0406 50.8297C52.0643 50.7943 52.0805 50.7546 52.0882 50.7127C52.1573 50.2957 52.3639 49.9138 52.6754 49.6268C52.9867 49.3396 53.3853 49.1639 53.808 49.1274C54.1044 49.1002 54.4029 49.1447 54.6785 49.257C54.9538 49.3693 55.198 49.5463 55.3903 49.7726C55.4176 49.8064 55.4518 49.834 55.4906 49.8536C55.5296 49.8732 55.5722 49.8845 55.6158 49.8864C55.6594 49.8885 55.7027 49.881 55.7433 49.8651C55.7838 49.8491 55.8205 49.8247 55.8508 49.7935C55.8508 49.7935 57.0318 48.6897 58.7727 49.5765C59.3599 49.8959 59.8073 50.4208 60.0284 51.0497C60.2493 51.6787 60.2281 52.3669 59.969 52.9812C59.4052 54.3534 57.7006 54.8843 56.5522 53.9708C56.0675 53.5634 55.7578 52.9866 55.6865 52.3589C55.5992 51.9271 55.6032 51.4818 55.698 51.0515L55.1457 51.0971C54.4921 51.1105 53.4564 51.0743 52.499 51.2874C52.5219 51.3046 52.541 51.3027 52.5621 51.3217L50.8919 52.0316C50.8919 52.0316 50.7275 56.5991 50.4485 56.5781C49.2313 56.424 48.5529 54.6978 48.6198 53.5655Z" fill="#2B3048"/>
<path d="M50.2718 56.1029C50.2391 55.9896 50.182 55.8851 50.1044 55.7963C50.0268 55.7074 49.9307 55.6366 49.8227 55.5888C49.7148 55.5409 49.5976 55.5171 49.4795 55.5192C49.3612 55.5211 49.2451 55.5489 49.1386 55.6004C48.1373 55.9811 48.4832 58.0288 49.8839 58.3904C50.7457 58.497 50.5852 57.9965 50.4705 57.3133L50.2718 56.1029Z" fill="#FC9D9D"/>
<path opacity="0.2" d="M49.0774 56.1806C49.1456 56.1275 49.2253 56.0907 49.3101 56.0736C49.3952 56.0565 49.4829 56.0592 49.5666 56.0816C49.6444 56.1063 49.7166 56.1461 49.7789 56.1986C49.8412 56.2512 49.8924 56.3157 49.9297 56.388C50.0321 56.5718 50.0768 56.782 50.0577 56.9913L50.073 57.1683C50.0759 57.1841 50.0751 57.2001 50.0705 57.2153C50.0659 57.2307 50.0579 57.2446 50.047 57.2562C50.0359 57.2676 50.0224 57.2766 50.0073 57.2819C49.9924 57.2872 49.9761 57.2889 49.9603 57.2868C49.9446 57.2848 49.9293 57.279 49.9161 57.2701C49.9029 57.261 49.8922 57.2492 49.8846 57.2351C49.8769 57.2212 49.8725 57.2056 49.8722 57.1896C49.8718 57.1738 49.875 57.158 49.8819 57.1435L49.8666 56.9666C49.8664 56.7932 49.8328 56.6211 49.7672 56.4603C49.7135 56.3646 49.6306 56.2887 49.5303 56.2434C49.4214 56.228 49.3105 56.251 49.2169 56.3081C49.1934 56.3189 49.1668 56.322 49.1414 56.3168C49.116 56.3117 49.0929 56.2987 49.0755 56.2795C49.022 56.2833 49.0372 56.2224 49.0774 56.1806Z" fill="#2B3048"/>
<g opacity="0.4">
<path opacity="0.4" d="M45.2988 75.1955C45.2782 75.1951 45.2585 75.1875 45.243 75.174C45.2276 75.1602 45.2176 75.1416 45.2148 75.1212C45.1007 74.2041 44.8035 73.319 44.3409 72.5178C43.878 71.7167 43.2591 71.016 42.5203 70.4567C42.5111 70.4506 42.5031 70.4426 42.4968 70.4335C42.4907 70.4243 42.4863 70.4139 42.484 70.403C42.4819 70.3922 42.4819 70.381 42.484 70.3701C42.4861 70.3593 42.4903 70.3488 42.4964 70.3397C42.5025 70.3303 42.5106 70.3225 42.5197 70.3162C42.5289 70.31 42.5394 70.3058 42.5503 70.3035C42.5612 70.3012 42.5725 70.3012 42.5834 70.3033C42.5943 70.3054 42.6048 70.3098 42.6139 70.3159C43.3732 70.8885 44.0093 71.6071 44.485 72.4289C44.9606 73.2507 45.266 74.159 45.3829 75.1003C45.3843 75.1113 45.3835 75.1224 45.3804 75.133C45.3774 75.1437 45.3722 75.1538 45.3653 75.1623C45.3583 75.1711 45.3497 75.1783 45.3399 75.1836C45.3302 75.189 45.3195 75.1924 45.3084 75.1935L45.2988 75.1955Z" fill="#2B3048"/>
</g>
<path opacity="0.3" d="M49.039 97.0397L51.4181 96.8589L50.2716 85.6457C50.1909 84.8608 49.9777 84.0952 49.6409 83.381L45.733 75.1138L45.0527 73.5913L45.2056 74.1242C45.5532 75.3329 45.6226 76.6039 45.4082 77.8429L45.3088 78.4138L48.0281 84.8483L49.039 97.0397Z" fill="#2B3048"/>
<path opacity="0.3" d="M65.7035 72.9977L77.4502 67.157C80.3567 65.7183 79.2465 63.0044 79.2465 63.0044C78.9958 63.1296 78.7299 63.2217 78.4553 63.2784C78.7974 65.5812 74.7576 67.1551 74.7576 67.1551L65.0117 70.7939L65.7035 72.9977Z" fill="#2B3048"/>
<path d="M67.6495 95.6216L70.1165 147.661H63.9804L59.461 105.836C59.4446 105.696 59.3769 105.567 59.2713 105.474C59.1654 105.381 59.0289 105.33 58.8877 105.331C58.7465 105.333 58.6108 105.387 58.5067 105.482C58.4027 105.577 58.3376 105.707 58.324 105.847L54.7581 147.661H48.3105L49.3902 97.0128L67.6495 95.6216Z" fill="#23213D"/>
<path opacity="0.2" d="M51.4158 96.8589L49.9233 147.661H48.3066L49.3863 97.013L51.4158 96.8589Z" fill="#2B3048"/>
<g opacity="0.4">
<path opacity="0.4" d="M65.7087 73.0831C65.6903 73.0827 65.6725 73.0768 65.6576 73.0658C65.6429 73.055 65.632 73.0397 65.6265 73.0222C65.6265 72.9918 64.6901 69.8897 64.3576 69.2274C64.3509 69.2173 64.3467 69.2059 64.3448 69.1941C64.3429 69.1821 64.3436 69.1699 64.3467 69.1583C64.35 69.1467 64.3555 69.1358 64.3631 69.1265C64.371 69.1172 64.3805 69.1096 64.3912 69.1043C64.4021 69.0989 64.414 69.0957 64.426 69.0953C64.4381 69.0947 64.4501 69.0968 64.4614 69.1012C64.4726 69.1056 64.4828 69.1124 64.4914 69.121C64.4998 69.1296 64.5063 69.14 64.5105 69.1513C64.8487 69.8269 65.7526 72.8452 65.7908 72.9746C65.7968 72.9962 65.7941 73.019 65.7834 73.0386C65.7727 73.058 65.7547 73.0727 65.7335 73.0793L65.7087 73.0831Z" fill="#2B3048"/>
</g>
<g opacity="0.4">
<path opacity="0.4" d="M56.9811 89.4405C56.9624 89.4406 56.944 89.4346 56.9293 89.4231C56.9144 89.4119 56.9037 89.3957 56.8989 89.3777C56.8938 89.3563 56.8968 89.3337 56.9079 89.3145C56.919 89.2953 56.9369 89.2812 56.9582 89.2749C56.9945 89.2654 60.5068 88.2948 62.1541 85.2783C62.1653 85.2587 62.1839 85.2443 62.2055 85.238C62.2273 85.2315 62.2506 85.2338 62.2706 85.2441C62.2899 85.2557 62.3043 85.274 62.3106 85.2955C62.3171 85.317 62.315 85.34 62.305 85.3602C60.6196 88.4451 57.0384 89.4328 57.0021 89.4424L56.9811 89.4405Z" fill="#2B3048"/>
</g>
<g opacity="0.4">
<path opacity="0.4" d="M42.5748 86.4581C42.5581 86.4583 42.5417 86.4535 42.5278 86.4444C42.5138 86.4352 42.5029 86.422 42.4964 86.4066C42.488 86.3856 42.4882 86.3621 42.4968 86.3411C42.5052 86.3201 42.5216 86.3033 42.5423 86.294C43.1595 86.0325 44.415 86.2787 44.4685 86.294C44.4794 86.2963 44.4899 86.3007 44.4991 86.307C44.5083 86.3133 44.5161 86.3213 44.5222 86.3304C44.5284 86.3398 44.5327 86.3503 44.5347 86.3612C44.5368 86.372 44.5368 86.3833 44.5345 86.3942C44.5322 86.4052 44.5278 86.4156 44.5217 86.4247C44.5154 86.4339 44.5073 86.4419 44.498 86.448C44.4886 86.4541 44.4783 86.4583 44.4672 86.4604C44.4563 86.4625 44.445 86.4623 44.4341 86.46C44.4227 86.46 43.1786 86.2138 42.6092 86.46C42.5977 86.4621 42.586 86.4616 42.5748 86.4581Z" fill="#2B3048"/>
</g>
<path opacity="0.1" d="M55.4194 54.2889C55.4194 54.2889 54.869 55.7296 58.2858 55.2633L58.2094 54.662L56.9463 53.9502L55.4194 54.2889Z" fill="#2B3048"/>
<path opacity="0.2" d="M58.9004 105.335C59.0416 105.334 59.178 105.385 59.2839 105.478C59.3896 105.571 59.4572 105.7 59.4737 105.84L63.9835 147.661H65.8945L61.2566 106.407C61.0254 104.742 58.9004 105.335 58.9004 105.335Z" fill="#2B3048"/>
<path d="M64.3162 102.728C62.5866 102.126 60.7166 102.048 58.9424 102.504C57.1685 102.96 55.5699 103.93 54.3492 105.291C53.1287 106.652 52.3406 108.342 52.0849 110.149C51.829 111.956 52.117 113.798 52.9122 115.442C53.7075 117.086 54.9745 118.458 56.5528 119.385C58.131 120.312 59.9499 120.752 61.7792 120.649C63.6086 120.547 65.3663 119.906 66.8303 118.809C68.2941 117.711 69.3983 116.206 70.0033 114.484C70.4049 113.34 70.5766 112.129 70.5081 110.919C70.4397 109.709 70.1328 108.524 69.6046 107.433C69.0766 106.341 68.3377 105.364 67.4303 104.557C66.523 103.749 65.4647 103.128 64.3162 102.728ZM58.677 118.789C57.217 118.28 55.9412 117.352 55.0108 116.122C54.0805 114.891 53.5374 113.414 53.4503 111.876C53.3632 110.338 53.7358 108.809 54.5214 107.482C55.3068 106.155 56.4696 105.09 57.8629 104.422C59.2562 103.753 60.8174 103.511 62.3489 103.726C63.8803 103.941 65.3134 104.603 66.4668 105.629C67.6203 106.655 68.4424 107.999 68.829 109.49C69.2156 110.982 69.1494 112.554 68.6388 114.008C67.9543 115.957 66.5201 117.556 64.652 118.453C62.7838 119.349 60.6346 119.47 58.677 118.789Z" fill="#F4F7FE"/>
<path d="M41.02 102.697L53.3229 106.998L52.6499 108.907L40.3471 104.606C40.2628 104.576 40.1852 104.531 40.1187 104.471C40.0522 104.412 39.9982 104.34 39.9596 104.26C39.921 104.18 39.8986 104.093 39.8936 104.004C39.8887 103.916 39.9013 103.827 39.9309 103.743L40.1535 103.111C40.1831 103.027 40.229 102.95 40.2884 102.884C40.3481 102.818 40.4201 102.764 40.5006 102.725C40.581 102.687 40.6683 102.664 40.7574 102.66C40.8464 102.655 40.9357 102.667 41.02 102.697Z" fill="#F4F7FE"/>
<path opacity="0.3" d="M61.2614 119.649C65.8154 119.649 69.5072 115.972 69.5072 111.437C69.5072 106.902 65.8154 103.225 61.2614 103.225C56.7074 103.225 53.0156 106.902 53.0156 111.437C53.0156 115.972 56.7074 119.649 61.2614 119.649Z" fill="#2B3048"/>
<path opacity="0.3" d="M53.4317 111.436L64.5516 104.41C64.5516 104.41 67.313 105.758 68.5035 108.468L54.6987 115.625C54.6987 115.625 53.3247 113.56 53.4317 111.436Z" fill="white"/>
<path opacity="0.3" d="M55.7578 116.932L69.0829 110.281C69.0829 110.281 69.1804 112.197 68.7581 113.548L57.7968 118.455C57.7548 118.493 56.3521 117.604 55.7578 116.932Z" fill="white"/>
<path d="M63.0633 52.7739L62.2626 52.5475L60.1797 51.9194L58.347 52.2277C58.3029 52.2441 58.2666 52.2761 58.2446 52.3176C58.2228 52.3589 58.2171 52.407 58.2286 52.4523C58.2821 52.6559 58.4197 52.9547 58.8171 52.8177L57.4584 52.9186C57.409 52.9235 57.3621 52.9433 57.3245 52.9759C57.2868 53.0082 57.2601 53.0514 57.2482 53.0994L57.2158 53.2231C57.168 53.4134 57.6572 53.6037 57.8617 53.6037H57.9687L56.7629 53.6532C56.7348 53.6623 56.709 53.677 56.687 53.6966C56.6648 53.716 56.6471 53.7398 56.6348 53.7664C56.6224 53.7931 56.6157 53.8218 56.6149 53.8511C56.6144 53.8804 56.6197 53.9097 56.631 53.9367C56.6941 54.0909 56.7781 54.2736 56.8374 54.2945C56.8966 54.3155 55.9851 54.4087 55.6354 54.4392C55.6178 54.4405 55.6006 54.4458 55.5855 54.4548C55.5702 54.4637 55.5574 54.4761 55.5479 54.4907C55.5381 54.5056 55.532 54.5223 55.5301 54.5398C55.528 54.5572 55.5301 54.5749 55.536 54.5914C55.6105 54.8027 55.8819 55.1719 56.8603 55.1623C58.2267 55.1471 58.7426 54.9168 58.7426 54.9168L59.8319 55.2061L59.7784 55.8589L58.2974 55.8361L58.3642 56.6639C58.5821 56.7667 60.2752 56.9532 60.2752 56.9532C60.2752 56.9532 62.5684 56.9874 63.1818 56.6906C63.7952 56.3937 64.25 56.152 64.25 56.152L65.9489 53.9501L63.0633 52.7739Z" fill="#FC9D9D"/>
<path opacity="0.15" d="M60.0098 54.9763C60.0098 54.9763 61.1965 54.2893 61.7048 53.4424" stroke="#2B3048" stroke-width="0.67" stroke-miterlimit="10" stroke-linecap="round"/>
<path opacity="0.15" d="M58.3887 55.8969L60.4716 55.935C60.4716 55.935 61.385 54.9358 62.352 55.1623" stroke="#2B3048" stroke-width="0.67" stroke-miterlimit="10" stroke-linecap="round"/>
<path opacity="0.15" d="M56.959 54.4028C56.959 54.4028 58.3865 54.3743 58.9426 53.9937C58.9426 53.9937 59.2445 54.3743 60.0127 54.3476" stroke="#2B3048" stroke-width="0.67" stroke-miterlimit="10" stroke-linecap="round"/>
<path opacity="0.15" d="M57.9629 53.612C58.4509 53.5697 58.9344 53.4851 59.4076 53.3589C59.7363 53.636 60.1454 53.8008 60.5752 53.829" stroke="#2B3048" stroke-width="0.67" stroke-miterlimit="10" stroke-linecap="round"/>
<path opacity="0.15" d="M58.6582 52.8842C59.0966 52.9015 59.534 52.8309 59.9443 52.6768L60.8616 53.0992" stroke="#2B3048" stroke-width="0.67" stroke-miterlimit="10" stroke-linecap="round"/>
<path d="M46.1699 101.618L47.4234 103.749L48.2069 105.584L47.0241 105.291C47.0241 105.291 46.5177 107.7 46.3189 107.765C46.1202 107.829 45.5545 107.632 45.6099 107.169C45.5268 107.25 45.4261 107.312 45.3155 107.348C45.2048 107.385 45.0873 107.396 44.9717 107.38C44.6162 107.306 44.5302 107.078 44.5704 106.638C44.5704 106.638 44.4022 106.971 43.9092 106.764C43.6092 106.638 43.6837 106.193 43.6837 106.193C43.6837 106.193 43.1448 106.238 43.0703 105.961C42.9927 105.505 42.9831 105.041 43.0416 104.583L43.3626 103.041L43.4849 102.046L46.1699 101.618Z" fill="#FC9D9D"/>
<path opacity="0.15" d="M43.6797 106.191C43.7756 105.881 43.8373 105.562 43.8636 105.24" stroke="#2B3048" stroke-width="0.66" stroke-miterlimit="10" stroke-linecap="round"/>
<path opacity="0.15" d="M44.5547 106.616C44.6707 106.255 44.7459 105.881 44.7786 105.503" stroke="#2B3048" stroke-width="0.66" stroke-miterlimit="10" stroke-linecap="round"/>
<path opacity="0.15" d="M45.6172 107.168C45.7456 106.713 45.8346 106.247 45.8832 105.777" stroke="#2B3048" stroke-width="0.66" stroke-miterlimit="10" stroke-linecap="round"/>
<path opacity="0.2" d="M54.758 147.66L54.8383 146.731H48.3277L48.3066 147.66H54.758Z" fill="#2B3048"/>
<path opacity="0.2" d="M63.8887 146.731H70.0763L70.1203 147.66H63.99L63.8887 146.731Z" fill="#2B3048"/>
<path opacity="0.15" d="M40.8714 92.0308L43.864 102.209L43.2907 104.698V106.148C43.2907 106.148 43.0614 106.224 43.0384 105.653L43.0174 104.852L43.0824 104.43L43.4646 102.325L39.8223 92.2154L40.8714 92.0308Z" fill="#2B3048"/>
<path opacity="0.3" d="M39.1762 72.151L38.0392 85.7489C38.0042 86.1609 38.0358 86.576 38.1328 86.9781L39.417 92.284L40.8674 92.0292L39.3387 86.4566L40.4528 70.7104C40.4528 70.7104 40.5063 68.674 41.8401 67.4922L41.5592 67.5795C39.1762 68.7652 39.1762 72.151 39.1762 72.151Z" fill="#2B3048"/>
<path d="M58.6519 55.6069H56.7907H56.5327H54.9084H52.7891C52.6263 55.6066 52.4698 55.6703 52.3542 55.7845C52.2384 55.8987 52.1728 56.0538 52.1719 56.2159V56.6879C52.1719 57.1302 52.3483 57.5542 52.6622 57.8669C52.9762 58.1794 53.402 58.355 53.8459 58.355C54.2898 58.355 54.7158 58.1794 55.0295 57.8669C55.3435 57.5542 55.5199 57.1302 55.5199 56.6879V56.214C55.5239 56.1467 55.5145 56.0793 55.4924 56.0155C55.47 55.9518 55.4352 55.8932 55.3899 55.8429H56.0454C55.9995 55.8947 55.9646 55.955 55.9426 56.0203C55.9206 56.0858 55.912 56.1548 55.9174 56.2235V56.6974C55.9174 57.1397 56.0937 57.5637 56.4077 57.8764C56.7217 58.1889 57.1474 58.3646 57.5914 58.3646C58.0353 58.3646 58.4612 58.1889 58.775 57.8764C59.089 57.5637 59.2654 57.1397 59.2654 56.6974V56.2235C59.2581 56.0633 59.1912 55.9116 59.0779 55.7976C58.9646 55.6838 58.8128 55.6159 58.6519 55.6069ZM55.302 56.2331V56.7069C55.2885 57.0748 55.1323 57.4231 54.8663 57.6785C54.6003 57.9339 54.2451 58.0766 53.8755 58.0766C53.5059 58.0766 53.1509 57.9339 52.8849 57.6785C52.6187 57.4231 52.4625 57.0748 52.449 56.7069V56.2331C52.4528 56.1373 52.4927 56.0466 52.5606 55.979C52.6286 55.9112 52.7198 55.8715 52.8159 55.8677H54.9351C55.0286 55.8789 55.1155 55.9211 55.182 55.9874C55.2485 56.0536 55.2908 56.1402 55.302 56.2331ZM59.0208 56.7203C59.0072 57.0881 58.8511 57.4364 58.5851 57.6918C58.3189 57.9472 57.9638 58.0899 57.5942 58.0899C57.2246 58.0899 56.8696 57.9472 56.6036 57.6918C56.3374 57.4364 56.1813 57.0881 56.1677 56.7203V56.2464C56.1687 56.1501 56.2074 56.0582 56.2757 55.9898C56.3439 55.9215 56.436 55.8825 56.5327 55.881H56.7907H58.6519C58.7486 55.8819 58.8411 55.9206 58.9097 55.9885C58.9781 56.0565 59.0173 56.1482 59.0188 56.2445L59.0208 56.7203Z" fill="#2B3048"/>
<path d="M22.2648 134.157C21.1775 118.626 19.9716 117.6 19.9258 117.564L20.0003 117.423C20.0538 117.448 21.3112 118.215 22.4253 134.146L22.2648 134.157Z" fill="#3F4249"/>
<path d="M23.3859 134.155H23.2251C23.941 122.808 23.162 116.621 23.1543 116.56L23.3151 116.54C23.3151 116.6 24.1037 122.801 23.3859 134.164" fill="#3F4249"/>
<path d="M24.3739 134.495C23.5064 127.42 25.7116 122.03 25.7384 121.977L25.8874 122.037C25.8645 122.091 23.6726 127.444 24.5345 134.476L24.3739 134.495Z" fill="#3F4249"/>
<path d="M25.27 135.358C24.9073 132.832 24.9267 130.266 25.3275 127.746L25.4863 127.776C25.0878 130.278 25.0685 132.824 25.4289 135.331L25.27 135.358Z" fill="#3F4249"/>
<path d="M25.7694 122.103L26.4707 122.044C26.9678 122.004 27.4501 121.858 27.8848 121.614C28.0966 121.489 28.3169 121.378 28.5441 121.283C29.4098 120.937 30.3767 120.999 31.3093 120.952C32.8344 120.874 34.3288 120.494 35.7045 119.833C35.7842 119.795 35.8509 119.735 35.8956 119.66C36.0389 119.399 35.7714 119.165 35.5421 119.024C34.3611 118.299 33.1591 117.566 31.8195 117.206C30.4799 116.847 28.9626 116.908 27.8199 117.69C26.4822 118.609 25.9892 120.497 25.7637 122.103" fill="url(#paint6_linear_576_95724)"/>
<path opacity="0.3" d="M35.9132 119.574C35.8723 119.558 35.8327 119.54 35.7947 119.518L35.4622 119.345C35.1736 119.193 34.7589 118.965 34.2353 118.721C33.6252 118.422 32.9894 118.178 32.3358 117.992C31.5361 117.767 30.6995 117.702 29.8745 117.802C29.0486 117.891 28.268 118.222 27.6311 118.753C27.1344 119.213 26.7371 119.769 26.4635 120.386C26.217 120.91 26.066 121.355 25.9551 121.659C25.9036 121.806 25.8615 121.922 25.8309 122.012C25.8166 122.053 25.8 122.094 25.7812 122.133C25.7866 122.09 25.7969 122.047 25.8118 122.006C25.8405 121.914 25.8749 121.797 25.9208 121.648C26.0559 121.209 26.2171 120.779 26.4042 120.36C26.6739 119.728 27.0721 119.159 27.5737 118.689C28.2219 118.139 29.0205 117.795 29.8669 117.701C30.7045 117.602 31.5533 117.673 32.3626 117.91C33.0219 118.101 33.6617 118.352 34.2736 118.662C34.7953 118.921 35.2061 119.153 35.4889 119.313L35.8119 119.503C35.8516 119.523 35.8889 119.547 35.9227 119.576" fill="#2B3048"/>
<path opacity="0.3" d="M34.2254 120.475C34.212 120.496 33.2948 119.904 32.1788 119.156C31.0628 118.408 30.1704 117.782 30.1837 117.761C30.1971 117.74 31.1144 118.332 32.2304 119.08C33.3464 119.828 34.2407 120.454 34.2254 120.475Z" fill="#2B3048"/>
<path opacity="0.3" d="M33.2417 117.71C32.8031 117.829 32.3451 117.865 31.8926 117.817C32.1148 117.78 32.3395 117.758 32.5652 117.752C32.7892 117.722 33.0155 117.708 33.2417 117.71Z" fill="#2B3048"/>
<path opacity="0.3" d="M29.2389 117.191C29.164 117.362 29.0627 117.52 28.9389 117.659C28.8318 117.819 28.7032 117.964 28.5566 118.089C28.6306 117.918 28.7319 117.76 28.8567 117.621C28.9624 117.46 29.0912 117.315 29.2389 117.191Z" fill="#2B3048"/>
<path opacity="0.3" d="M30.0596 121.011C29.9045 120.948 29.7566 120.868 29.6182 120.774C29.3545 120.614 28.9953 120.38 28.6131 120.104C28.2309 119.828 27.8945 119.565 27.6576 119.373C27.5202 119.277 27.3923 119.169 27.2754 119.049C27.4244 119.125 27.5653 119.217 27.6958 119.321L28.6723 120.028C29.0545 120.303 29.4023 120.545 29.6583 120.718C29.8015 120.804 29.937 120.902 30.0635 121.011" fill="#2B3048"/>
<path d="M27.6602 144.273H20.7235L19.4316 134.793H28.9501L27.6602 144.273Z" fill="#61656D"/>
<path d="M29.7665 136.24H18.6351L18.4746 134.152H29.9289L29.7665 136.24Z" fill="#61656D"/>
<path opacity="0.2" d="M19.6328 136.24H28.7577L27.6646 144.273L26.5677 144.199L27.1792 136.883L19.7035 136.758L19.6328 136.24Z" fill="#2B3048"/>
<path opacity="0.2" d="M27.3698 134.167L27.0469 136.24H29.7528L29.9152 134.152L27.3698 134.167Z" fill="#2B3048"/>
<g opacity="0.2">
<g opacity="0.2">
<path opacity="0.2" d="M28.314 138.626H20.0605V138.787H28.314V138.626Z" fill="white"/>
</g>
</g>
<g opacity="0.2">
<g opacity="0.2">
<path opacity="0.2" d="M28.314 139.27H20.0605V139.43H28.314V139.27Z" fill="white"/>
</g>
</g>
<path d="M20.1144 117.491C19.4456 116.986 18.7404 116.887 17.9034 116.92C17.0645 116.975 16.2432 117.186 15.4822 117.542C14.1732 118.113 12.9426 118.954 12.161 120.145C11.3794 121.337 11.1061 122.913 11.6928 124.21C11.7375 124.347 11.8323 124.462 11.9584 124.532C12.1036 124.574 12.259 124.562 12.396 124.498C13.8847 124.014 15.3848 123.525 16.753 122.768C18.1213 122.01 19.3672 120.958 20.1029 119.58C20.2919 119.255 20.4117 118.895 20.4546 118.522C20.4748 118.336 20.4549 118.147 20.3963 117.969C20.3376 117.791 20.2415 117.627 20.1144 117.489" fill="url(#paint7_linear_576_95724)"/>
<path opacity="0.3" d="M20.1269 117.335C20.0927 117.354 20.056 117.369 20.0179 117.379L19.7065 117.485L19.481 117.561C19.3988 117.59 19.3128 117.626 19.2173 117.662C19.0262 117.738 18.8102 117.814 18.579 117.927L18.214 118.092C18.0879 118.149 17.9618 118.222 17.8318 118.283C17.5624 118.414 17.2891 118.583 16.9986 118.753C16.3785 119.142 15.7888 119.578 15.2348 120.056C14.6852 120.541 14.174 121.068 13.706 121.632C13.4977 121.897 13.2952 122.146 13.1328 122.393C13.0487 122.517 12.9608 122.631 12.8881 122.749L12.676 123.09C12.5365 123.303 12.4333 123.509 12.3321 123.686C12.2843 123.775 12.2365 123.857 12.1964 123.933C12.1562 124.009 12.1257 124.081 12.0932 124.146L11.948 124.441C11.9325 124.476 11.9134 124.51 11.8906 124.542C11.9011 124.505 11.9145 124.468 11.9308 124.433C11.9632 124.355 12.0072 124.255 12.0607 124.131C12.0913 124.064 12.1219 123.992 12.1582 123.914C12.1945 123.836 12.2403 123.752 12.2862 123.661C12.3817 123.482 12.4773 123.28 12.6187 123.056L12.827 122.711C12.8996 122.591 12.9856 122.475 13.0697 122.35C13.234 122.096 13.4366 121.845 13.643 121.575C14.5687 120.426 15.6871 119.446 16.9489 118.678C17.2432 118.509 17.5222 118.342 17.7917 118.212C17.9274 118.146 18.0554 118.075 18.1834 118.022L18.5542 117.86C18.7873 117.752 19.009 117.681 19.1982 117.609C19.2956 117.575 19.3892 117.54 19.4676 117.514L19.695 117.445L20.0141 117.356C20.0508 117.343 20.0887 117.334 20.1269 117.329" fill="#2B3048"/>
<path opacity="0.3" d="M14.9082 120.148C14.3768 120.352 13.8344 120.526 13.2839 120.669C12.7421 120.844 12.1908 120.988 11.6328 121.101C12.1646 120.899 12.7068 120.725 13.2571 120.58C13.7991 120.406 14.3504 120.262 14.9082 120.148Z" fill="#2B3048"/>
<path opacity="0.3" d="M14.8506 123.725C14.8209 123.558 14.8082 123.389 14.813 123.22C14.813 122.908 14.8031 122.478 14.813 122.002C14.8229 121.526 14.8525 121.096 14.8802 120.786C14.8864 120.618 14.9081 120.45 14.9455 120.286C14.9613 120.453 14.9613 120.622 14.9455 120.79C14.9356 121.133 14.9217 121.551 14.9079 122.006C14.8941 122.461 14.8842 122.88 14.8763 123.22C14.8806 123.389 14.8701 123.558 14.8446 123.725" fill="#2B3048"/>
<path opacity="0.3" d="M17.9184 122.158C17.8917 122.158 17.8093 121.285 17.727 120.204C17.6447 119.123 17.6122 118.246 17.6371 118.244C17.662 118.242 17.7443 119.117 17.8285 120.198C17.9127 121.279 17.9433 122.156 17.9184 122.158Z" fill="#2B3048"/>
<path opacity="0.3" d="M14.0918 118.157C14.2642 118.137 14.4383 118.132 14.6116 118.142C14.9326 118.142 15.376 118.153 15.8652 118.17C16.3544 118.186 16.7977 118.203 17.1168 118.221C17.2913 118.222 17.4654 118.239 17.6366 118.271C17.4641 118.29 17.2902 118.295 17.1168 118.286C16.7958 118.286 16.3525 118.275 15.8613 118.258C15.3702 118.242 14.9288 118.223 14.6097 118.205C14.436 118.204 14.2624 118.188 14.0918 118.157Z" fill="#2B3048"/>
<path d="M18.7723 114.112C18.4832 114.629 18.1958 115.147 17.9105 115.665C17.8913 115.701 17.8646 115.741 17.8226 115.744C17.7805 115.748 17.7442 115.706 17.7194 115.668L15.4453 112.189L15.9689 111.893L18.7723 114.112Z" fill="url(#paint8_linear_576_95724)"/>
<path opacity="0.2" d="M18.7723 114.112C18.4832 114.629 18.1958 115.147 17.9105 115.665C17.8913 115.701 17.8646 115.741 17.8226 115.744C17.7805 115.748 17.7442 115.706 17.7194 115.668L15.4453 112.189L15.9689 111.893L18.7723 114.112Z" fill="#2B3048"/>
<path d="M23.3857 116.909L15.6234 112.341C15.5432 112.294 15.4572 112.241 15.4323 112.151C15.4075 112.062 15.4877 111.927 15.5699 111.841C16.1036 111.289 16.7505 110.859 17.4665 110.579C18.1824 110.298 18.9506 110.175 19.7186 110.218C20.4868 110.274 21.2298 110.515 21.8833 110.921C22.5369 111.327 23.0813 111.885 23.4698 112.547C24.2189 113.879 24.2438 115.643 23.3838 116.909" fill="url(#paint9_linear_576_95724)"/>
<path opacity="0.3" d="M16.7461 110.892C16.7791 110.883 16.8131 110.878 16.8473 110.878C16.9161 110.878 17.0136 110.863 17.1416 110.865C17.5028 110.859 17.8636 110.887 18.2194 110.949C19.4038 111.147 20.5063 111.679 21.3966 112.482C22.2869 113.284 22.9278 114.324 23.2433 115.478C23.3402 115.824 23.404 116.178 23.4344 116.536C23.4478 116.664 23.4344 116.696 23.4459 116.763C23.4398 116.823 23.4195 116.88 23.3866 116.93C23.4094 116.805 23.4132 116.676 23.3981 116.55C23.3528 116.196 23.2792 115.847 23.1783 115.505C22.7902 114.201 21.9962 113.053 20.911 112.228C19.8256 111.402 18.5051 110.941 17.1397 110.911C16.8856 110.911 16.7441 110.911 16.7441 110.911" fill="#2B3048"/>
<path opacity="0.3" d="M22.3426 113.762C22.2196 113.836 22.0881 113.896 21.9509 113.939C21.7044 114.036 21.3585 114.159 20.9706 114.281C20.5827 114.403 20.231 114.502 19.9731 114.565C19.8353 114.607 19.6929 114.634 19.5488 114.645C19.6784 114.583 19.8143 114.535 19.954 114.502L20.9438 114.194L21.9299 113.878C22.0629 113.824 22.2012 113.786 22.3426 113.762Z" fill="#2B3048"/>
<path opacity="0.3" d="M21.1141 110.491C21.1853 110.773 21.2171 111.063 21.209 111.353C21.2318 111.643 21.2152 111.934 21.1596 112.219C21.1198 111.934 21.1038 111.645 21.1121 111.357C21.0876 111.069 21.0876 110.779 21.1121 110.491" fill="#2B3048"/>
<path opacity="0.3" d="M15.5586 112.263C15.7401 112.182 15.9287 112.118 16.1223 112.072C16.4759 111.964 16.967 111.827 17.5154 111.692C18.0639 111.557 18.5626 111.46 18.9257 111.395C19.1206 111.352 19.3188 111.326 19.5181 111.315C19.3308 111.377 19.1392 111.425 18.9448 111.46C18.5856 111.54 18.0887 111.65 17.5422 111.781C16.9956 111.913 16.5026 112.038 16.1472 112.131C15.9561 112.189 15.7613 112.234 15.5643 112.267" fill="#2B3048"/>
<path d="M26.6268 125.549C25.9579 125.372 25.163 126.021 25.0235 126.691C24.884 127.361 25.14 128.056 25.4382 128.678C26.0736 130.074 27.0181 131.308 28.2014 132.288C29.3944 133.265 30.8842 133.811 32.4284 133.837C32.1456 132.532 32.503 131.173 32.3463 129.841C32.2085 128.67 31.6755 127.58 30.8347 126.75C29.9939 125.921 28.8949 125.4 27.7179 125.273C27.2918 125.228 26.7968 125.161 26.6268 125.553" fill="url(#paint10_linear_576_95724)"/>
<path opacity="0.3" d="M32.4249 133.832C32.3911 133.822 32.3588 133.807 32.3293 133.788C32.2412 133.739 32.1575 133.683 32.079 133.62C31.7996 133.377 31.5751 133.078 31.4197 132.743C31.3127 132.536 31.1942 132.313 31.0777 132.066L30.726 131.274C30.5963 130.983 30.4489 130.7 30.2846 130.427C30.1029 130.137 29.8992 129.862 29.675 129.603C29.2183 129.068 28.7195 128.606 28.301 128.162C27.916 127.776 27.5655 127.357 27.2538 126.91C27.0444 126.608 26.8724 126.281 26.7417 125.938C26.7069 125.844 26.6769 125.749 26.6519 125.652C26.6416 125.619 26.6345 125.584 26.6309 125.549C26.6404 125.549 26.6786 125.684 26.7761 125.93C26.9185 126.265 27.0966 126.584 27.3073 126.882C27.6261 127.318 27.9787 127.729 28.3622 128.111C28.7902 128.549 29.2852 129.011 29.7457 129.552C29.9733 129.813 30.1791 130.092 30.361 130.387C30.5269 130.664 30.6748 130.95 30.8044 131.245C30.9267 131.525 31.0452 131.79 31.156 132.041C31.2668 132.292 31.3834 132.513 31.4866 132.72C31.6328 133.053 31.8445 133.352 32.1096 133.601C32.3007 133.769 32.4383 133.832 32.4325 133.839" fill="#2B3048"/>
<path opacity="0.3" d="M28.9785 132.748C28.9825 132.596 29.003 132.446 29.0397 132.299C29.0932 132.025 29.1792 131.648 29.2938 131.239C29.4085 130.83 29.5346 130.462 29.634 130.202C29.6775 130.057 29.7385 129.919 29.8155 129.789C29.7903 129.937 29.7499 130.082 29.6951 130.222C29.6129 130.489 29.504 130.856 29.3836 131.263C29.2632 131.671 29.1734 132.044 29.1046 132.314C29.0762 132.462 29.0339 132.607 28.9785 132.748Z" fill="#2B3048"/>
<path opacity="0.3" d="M32.3001 129.54C32.1398 129.518 31.9817 129.482 31.8281 129.431C31.5415 129.357 31.1421 129.254 30.7006 129.155C30.2592 129.056 29.8541 128.978 29.554 128.923C29.3939 128.902 29.2361 128.868 29.082 128.82C29.2441 128.815 29.4061 128.828 29.5655 128.858C29.8598 128.896 30.2687 128.965 30.7121 129.064C31.1554 129.163 31.5529 129.277 31.8377 129.368C31.9944 129.409 32.1461 129.467 32.2906 129.54" fill="#2B3048"/>
<path opacity="0.3" d="M26.498 130.472C26.5057 130.297 26.53 130.123 26.5707 129.953C26.6299 129.635 26.7235 129.192 26.8477 128.722C26.972 128.251 27.1057 127.818 27.2108 127.511C27.259 127.343 27.323 127.18 27.4019 127.024C27.3736 127.196 27.3308 127.365 27.2739 127.53C27.186 127.84 27.0637 128.269 26.9376 128.744C26.8114 129.22 26.7102 129.652 26.6356 129.966C26.6045 130.139 26.5584 130.308 26.498 130.472Z" fill="#2B3048"/>
<path opacity="0.3" d="M30.7657 126.742C30.7657 126.767 29.9287 126.7 28.9025 126.592C28.2808 126.542 27.6621 126.461 27.0488 126.348C27.0488 126.324 27.8858 126.39 28.912 126.499C29.5337 126.548 30.1524 126.629 30.7657 126.742Z" fill="#2B3048"/>
<path d="M23.3401 118.967C23.2828 118.361 22.6674 117.903 22.0559 117.897C21.7502 117.91 21.4513 117.993 21.1822 118.138C20.9132 118.284 20.6806 118.488 20.5023 118.736C20.1498 119.236 19.8956 119.798 19.7532 120.392C19.3424 121.819 19.1169 123.321 19.2927 124.796C19.4685 126.271 20.0704 127.723 21.1329 128.766C21.3049 128.935 21.5304 129.104 21.7674 129.053C21.8952 129.015 22.0106 128.944 22.1018 128.848C23.1421 127.899 23.9669 126.739 24.5205 125.447C25.0743 124.155 25.3441 122.759 25.3122 121.355C25.295 120.794 25.2224 120.213 24.909 119.743C24.5956 119.273 23.8714 118.778 23.3401 118.967Z" fill="url(#paint11_linear_576_95724)"/>
<path opacity="0.3" d="M21.46 128.97C21.4536 128.935 21.4498 128.9 21.4485 128.865C21.4485 128.787 21.4485 128.69 21.4351 128.568C21.4236 128.309 21.4217 127.934 21.4351 127.472C21.4485 127.009 21.4752 126.461 21.5307 125.85C21.5861 125.24 21.6797 124.575 21.8039 123.879C21.9281 123.182 22.0867 122.528 22.2454 121.936C22.404 121.344 22.574 120.819 22.7307 120.383C22.8874 119.947 23.0193 119.595 23.1225 119.357L23.241 119.081C23.2536 119.049 23.2689 119.018 23.2868 118.988C23.2815 119.023 23.2717 119.057 23.2582 119.089C23.2314 119.161 23.197 119.254 23.1569 119.368C23.0633 119.61 22.939 119.964 22.7919 120.402C22.6448 120.84 22.4861 121.369 22.3294 121.959C22.1727 122.549 22.0237 123.203 21.8957 123.896C21.7676 124.589 21.6816 125.253 21.6166 125.86C21.5517 126.467 21.5173 127.013 21.5001 127.476C21.4829 127.938 21.4752 128.309 21.4752 128.568C21.4752 128.688 21.4752 128.787 21.4752 128.865C21.4794 128.9 21.4794 128.935 21.4752 128.97" fill="#2B3048"/>
<path opacity="0.3" d="M21.8757 123.915C21.7844 124.037 21.6806 124.15 21.5661 124.251C21.3636 124.442 21.0788 124.72 20.754 125.003C20.4291 125.287 20.1234 125.534 19.8998 125.707C19.7819 125.807 19.6538 125.895 19.5176 125.968C19.6198 125.854 19.7324 125.749 19.8539 125.656L20.689 124.935L21.5164 124.204C21.625 124.096 21.744 123.999 21.8719 123.915" fill="#2B3048"/>
<path opacity="0.3" d="M24.3306 125.877C24.2094 125.734 24.0996 125.582 24.0019 125.422L23.2375 124.309L22.4559 123.203C22.3386 123.056 22.2333 122.9 22.1406 122.737C22.2755 122.868 22.3982 123.011 22.5075 123.165C22.7235 123.437 23.012 123.82 23.314 124.256C23.6159 124.691 23.8872 125.091 24.0611 125.397C24.1672 125.552 24.2587 125.715 24.3344 125.886" fill="#2B3048"/>
<path opacity="0.3" d="M23.0378 119.679C23.0511 119.7 22.2352 120.25 21.2147 120.901C20.1943 121.552 19.3553 122.067 19.3401 122.043C19.3248 122.018 20.1427 121.472 21.165 120.821C22.1874 120.17 23.0244 119.654 23.0378 119.679Z" fill="#2B3048"/>
<path opacity="0.3" d="M25.3513 122.152C24.5072 121.417 23.7046 120.636 22.9473 119.813C23.3797 120.171 23.7917 120.552 24.1818 120.955C24.5947 121.333 24.9851 121.735 25.3513 122.158" fill="#2B3048"/>
<path d="M29.3791 139.209V144.189H24.3781V139.209H23.8946V144.189H18.8936V139.209H18.4102V156.078H18.8936V145.636H23.8946V156.078H24.3781V145.636H29.3791V156.078H29.8645V145.636V144.189V139.209H29.3791Z" fill="#3F4249"/>
<path d="M186.837 74.4334L184.651 75.2327L182.463 76.0263L182.371 78.2073C182.276 80.5348 183.283 82.5845 185.288 84.0423C186.369 84.8302 187.512 85.4068 188.303 85.1175C189.094 84.8283 189.587 83.6521 189.899 82.3542C190.472 79.9448 189.91 77.7372 188.322 76.0263L186.834 74.4258L186.837 74.4334Z" fill="url(#paint12_linear_576_95724)"/>
<path opacity="0.2" d="M186.423 74.5781L184.652 75.2252L182.882 75.8741L182.81 77.6402C182.731 79.5243 183.547 81.18 185.17 82.3638C186.047 83.0032 186.972 83.4695 187.612 83.2354C188.252 83.0013 188.652 82.0479 188.904 80.9973C189.37 79.0466 188.904 77.2596 187.627 75.8741L186.423 74.5781Z" fill="white"/>
<path opacity="0.2" d="M186.009 74.7305L184.654 75.2253L183.301 75.722L183.246 77.0713C183.187 78.5139 183.819 79.7814 185.052 80.6872C185.721 81.1763 186.43 81.5322 186.919 81.3533C187.408 81.1744 187.714 80.4455 187.907 79.6405C188.264 78.1485 187.907 76.7858 186.93 75.722L186.009 74.7305Z" fill="white"/>
<path d="M185.594 74.8828L184.655 75.2254L183.719 75.5698L183.681 76.5043C183.658 76.993 183.759 77.4796 183.979 77.9177C184.197 78.3558 184.526 78.7309 184.931 79.0069C185.395 79.3456 185.886 79.593 186.224 79.4693C186.563 79.3456 186.775 78.8394 186.908 78.2837C187.037 77.8123 187.04 77.3161 186.922 76.8423C186.803 76.3686 186.566 75.9326 186.232 75.5756L185.594 74.8885V74.8828Z" fill="white"/>
<path d="M186.293 66.4595L191.317 69.4455C191.357 69.4685 191.388 69.5049 191.405 69.5482L192.448 72.3763C192.452 72.3864 192.454 72.3972 192.452 72.4081C192.452 72.4189 192.448 72.4292 192.441 72.4381C192.435 72.4471 192.427 72.4543 192.418 72.4591C192.406 72.464 192.397 72.4661 192.385 72.4657L188.563 72.4181L186.293 66.4595Z" fill="url(#paint13_linear_576_95724)"/>
<path opacity="0.2" d="M186.943 66.8458L189.022 72.4753L188.573 72.4182L186.293 66.4595L186.943 66.8458Z" fill="#2B3048"/>
<path d="M178.006 69.4985L176.122 75.0176C176.105 75.0612 176.105 75.1093 176.122 75.1527L177.166 77.9808C177.169 77.9911 177.175 78 177.183 78.0072C177.192 78.0145 177.202 78.0196 177.212 78.0223C177.223 78.0249 177.234 78.0249 177.244 78.0223C177.255 78.0198 177.265 78.0147 177.273 78.0074L180.139 75.5105L178.006 69.4985Z" fill="url(#paint14_linear_576_95724)"/>
<path opacity="0.2" d="M177.729 70.2259L179.81 75.8572L180.115 75.5223L177.973 69.5122L177.729 70.2259Z" fill="#2B3048"/>
<path d="M176.52 53.2421C175.84 53.4972 175.253 55.7162 175.202 59.0866C175.169 61.0701 175.452 63.0463 176.044 64.9406L180.822 77.5431L184.156 76.289L186.088 75.562L189.423 74.3059L185.085 62.8719C184.663 61.7533 184.134 60.6776 183.505 59.6595C182.878 58.6373 182.169 57.6667 181.388 56.7572C179.18 54.2279 177.197 52.9852 176.516 53.2421" fill="#B2B6BB"/>
<path d="M176.514 53.2431C175.981 53.422 175.517 54.8151 175.309 56.9865L179.851 55.1843C178.255 53.6599 177.2 53.0128 176.514 53.2431Z" fill="url(#paint15_linear_576_95724)"/>
<g opacity="0.3">
<path opacity="0.3" d="M188.719 72.583L180.164 75.7176L180.212 75.848L188.767 72.7134L188.719 72.583Z" fill="#2B3048"/>
</g>
<g opacity="0.3">
<path opacity="0.3" d="M188.805 72.8467L180.252 75.9813L180.3 76.1117L188.853 72.977L188.805 72.8467Z" fill="#2B3048"/>
</g>
<g opacity="0.3">
<path opacity="0.3" d="M188.903 73.1079L180.35 76.2425L180.397 76.3729L188.953 73.2383L188.903 73.1079Z" fill="#2B3048"/>
</g>
<g opacity="0.3">
<path opacity="0.3" d="M189.005 73.3677L180.449 76.5023L180.497 76.6327L189.052 73.498L189.005 73.3677Z" fill="#2B3048"/>
</g>
<g opacity="0.3">
<path opacity="0.3" d="M189.104 73.6279L180.549 76.7624L180.597 76.8929L189.152 73.7583L189.104 73.6279Z" fill="#2B3048"/>
</g>
<g opacity="0.3">
<path opacity="0.3" d="M189.192 73.8892L180.637 77.0236L180.686 77.1542L189.24 74.0195L189.192 73.8892Z" fill="#2B3048"/>
</g>
<g opacity="0.3">
<path opacity="0.3" d="M189.29 74.1484L180.734 77.2831L180.784 77.4134L189.338 74.2788L189.29 74.1484Z" fill="#2B3048"/>
</g>
<path opacity="0.3" d="M183.264 69.4341L184.919 73.9083" stroke="#2B3048" stroke-width="0.73" stroke-miterlimit="10"/>
<path opacity="0.3" d="M181.797 63.0674L184.044 69.146" stroke="#2B3048" stroke-width="0.73" stroke-miterlimit="10"/>
<path d="M181.417 64.1673C182.632 63.2557 182.873 61.536 181.958 60.3266C181.042 59.1171 179.317 58.8758 178.101 59.7876C176.888 60.6992 176.645 62.4189 177.561 63.6283C178.476 64.8377 180.204 65.0791 181.417 64.1673Z" fill="white"/>
<path d="M180.799 64.7631C180.124 65.0115 179.383 65.0069 178.712 64.7506C178.039 64.494 177.485 64.0032 177.151 63.3696C176.816 62.7359 176.725 62.0026 176.893 61.3065C177.061 60.6103 177.477 59.9986 178.064 59.5858C178.651 59.1733 179.369 58.9873 180.084 59.0629C180.801 59.1386 181.462 59.4707 181.949 59.9973C182.436 60.5237 182.715 61.2088 182.733 61.9246C182.75 62.6406 182.505 63.3382 182.045 63.8877C181.714 64.2828 181.284 64.5846 180.799 64.7631ZM178.888 59.6247C178.521 59.7581 178.188 59.9741 177.919 60.2559C177.648 60.5378 177.447 60.8777 177.33 61.2496C177.214 61.6212 177.185 62.015 177.244 62.3998C177.306 62.7846 177.455 63.1504 177.68 63.4686C177.906 63.7868 178.202 64.0489 178.546 64.2346C178.89 64.4204 179.272 64.5247 179.664 64.5393C180.053 64.5542 180.443 64.479 180.801 64.3199C181.158 64.1606 181.473 63.9215 181.722 63.6212C182.045 63.2368 182.245 62.7656 182.301 62.2672C182.354 61.7689 182.259 61.2657 182.026 60.8215C181.792 60.3772 181.431 60.012 180.99 59.7718C180.548 59.5316 180.044 59.4275 179.543 59.4724C179.32 59.4922 179.1 59.5407 178.888 59.6171V59.6247Z" fill="url(#paint16_linear_576_95724)"/>
<path opacity="0.3" d="M181.951 65.8884C182.068 65.8884 182.161 65.7948 182.161 65.6791C182.161 65.5635 182.068 65.4697 181.951 65.4697C181.834 65.4697 181.74 65.5635 181.74 65.6791C181.74 65.7948 181.834 65.8884 181.951 65.8884Z" stroke="#2B3048" stroke-width="0.73" stroke-miterlimit="10"/>
<path opacity="0.3" d="M182.673 67.8464C182.79 67.8464 182.884 67.7528 182.884 67.6371C182.884 67.5216 182.79 67.4277 182.673 67.4277C182.557 67.4277 182.463 67.5216 182.463 67.6371C182.463 67.7528 182.557 67.8464 182.673 67.8464Z" stroke="#2B3048" stroke-width="0.73" stroke-miterlimit="10"/>
<path opacity="0.3" d="M184.56 70.5613C184.677 70.5613 184.771 70.4676 184.771 70.3519C184.771 70.2364 184.677 70.1426 184.56 70.1426C184.443 70.1426 184.35 70.2364 184.35 70.3519C184.35 70.4676 184.443 70.5613 184.56 70.5613Z" stroke="#2B3048" stroke-width="0.73" stroke-miterlimit="10"/>
<path opacity="0.3" d="M185.281 72.5178C185.398 72.5178 185.491 72.4242 185.491 72.3087C185.491 72.1929 185.398 72.0991 185.281 72.0991C185.164 72.0991 185.07 72.1929 185.07 72.3087C185.07 72.4242 185.164 72.5178 185.281 72.5178Z" stroke="#2B3048" stroke-width="0.73" stroke-miterlimit="10"/>
<path opacity="0.3" d="M178.605 71.1393L186.903 68.0981" stroke="#2B3048" stroke-width="0.73" stroke-miterlimit="10"/>
<path d="M156.581 33.0864L155.039 47.1524L157.334 45.1199L159.291 47.219L158.777 33.4081L156.581 33.0864Z" fill="#2B3048"/>
<path d="M161.716 31.8291L169.635 43.5752L166.656 42.8349L165.901 45.6001L159.92 33.1289L161.716 31.8291Z" fill="#2B3048"/>
<path d="M158.343 36.251C162.176 36.251 165.285 33.1553 165.285 29.3369C165.285 25.5183 162.176 22.4229 158.343 22.4229C154.51 22.4229 151.4 25.5183 151.4 29.3369C151.4 33.1553 154.51 36.251 158.343 36.251Z" fill="url(#paint17_linear_576_95724)"/>
<path opacity="0.2" d="M162.974 33.689C162.856 33.9253 162.757 34.1703 162.674 34.4217C162.546 34.8023 162.424 35.1506 162.22 35.2933C162.015 35.436 161.646 35.4189 161.277 35.4132H161.018L161.543 36.5094C162 36.5399 162.457 36.4289 162.848 36.1916C163.343 35.8471 163.54 35.2838 163.71 34.7852L162.974 33.689Z" fill="#2B3048"/>
<path opacity="0.2" d="M158.886 36.0196L158.731 36.1148C158.416 36.3051 158.091 36.5087 157.862 36.4954C157.632 36.4821 157.325 36.2366 157.021 35.9797C156.807 35.7873 156.577 35.6152 156.331 35.4658L156.195 36.7143L156.312 36.8132C156.717 37.1539 157.176 37.5402 157.781 37.584C157.948 37.5956 158.116 37.581 158.278 37.5402C158.508 37.4786 158.727 37.387 158.932 37.2681L158.886 36.0196Z" fill="#2B3048"/>
<path d="M158.267 37.099C158.104 37.1397 157.936 37.1544 157.77 37.1428C157.164 37.099 156.706 36.7126 156.3 36.372C156.107 36.1881 155.89 36.0325 155.653 35.9095C155.393 35.8302 155.123 35.7879 154.852 35.7839C154.326 35.7459 153.732 35.7021 153.273 35.3158C152.815 34.9294 152.675 34.3642 152.549 33.8542C152.498 33.5849 152.41 33.3241 152.285 33.0796C152.127 32.8721 151.941 32.6883 151.731 32.5334C151.322 32.1908 150.86 31.8045 150.713 31.2012C150.566 30.5979 150.795 30.0479 150.997 29.5569C151.11 29.3217 151.189 29.0718 151.233 28.8147C151.229 28.5412 151.187 28.2696 151.106 28.0078C150.982 27.4996 150.841 26.9249 151.066 26.3768C151.292 25.8287 151.8 25.5109 152.247 25.2349C152.486 25.1055 152.704 24.9433 152.897 24.7534C153.05 24.5351 153.17 24.2961 153.256 24.0435C153.447 23.5544 153.682 23.0006 154.198 22.6809C154.714 22.3612 155.282 22.4164 155.8 22.4525C156.079 22.4887 156.362 22.4849 156.639 22.4411C156.904 22.3496 157.157 22.2215 157.388 22.0605C157.829 21.7883 158.33 21.48 158.917 21.5219C159.503 21.5638 159.981 21.952 160.384 22.2946C160.564 22.4973 160.789 22.6558 161.04 22.7578C161.292 22.8598 161.563 22.9026 161.835 22.8826C162.358 22.9207 162.954 22.9645 163.413 23.3489C163.872 23.7333 164.009 24.3005 164.135 24.8105C164.187 25.0798 164.277 25.3405 164.401 25.5851C164.558 25.7927 164.745 25.9766 164.955 26.1313C165.362 26.4738 165.825 26.8621 165.974 27.4635C166.123 28.0648 165.891 28.6187 165.689 29.1097C165.574 29.3439 165.496 29.5933 165.452 29.85C165.456 30.1244 165.5 30.3966 165.58 30.6588C165.704 31.165 165.844 31.7398 165.62 32.2879C165.397 32.836 164.886 33.1538 164.439 33.4298C164.191 33.5369 163.969 33.7 163.793 33.9063C163.617 34.1128 163.493 34.3568 163.428 34.6192C163.237 35.1083 163.004 35.6621 162.488 35.9818C161.972 36.3016 161.403 36.2464 160.885 36.2102C160.608 36.1514 160.321 36.1558 160.046 36.2234C159.773 36.2909 159.517 36.4199 159.299 36.6004C158.981 36.8185 158.634 36.9865 158.267 37.099ZM154.923 23.5563C154.871 23.5687 154.821 23.5887 154.775 23.6153C154.563 23.7467 154.422 24.093 154.273 24.4603C154.149 24.8202 153.967 25.158 153.736 25.4614C153.472 25.7428 153.165 25.9811 152.826 26.1674C152.49 26.3749 152.173 26.5709 152.081 26.7955C151.989 27.02 152.081 27.3911 152.171 27.747C152.284 28.117 152.335 28.5026 152.326 28.8889C152.278 29.2615 152.173 29.6245 152.012 29.9642C151.859 30.3353 151.714 30.6835 151.777 30.9348C151.84 31.186 152.129 31.4277 152.436 31.6846C152.738 31.912 153.002 32.1849 153.218 32.4934C153.405 32.8331 153.539 33.1997 153.614 33.5801C153.703 33.9417 153.805 34.3166 153.98 34.4708C154.156 34.6249 154.538 34.6611 154.936 34.6839C155.322 34.6712 155.706 34.7397 156.065 34.8851C156.423 35.0303 156.746 35.2491 157.013 35.527C157.317 35.782 157.604 36.0256 157.854 36.0427C158.104 36.0599 158.408 35.8524 158.723 35.6621C159.048 35.4372 159.408 35.2657 159.786 35.154C160.174 35.0786 160.571 35.0644 160.965 35.1121C161.334 35.1388 161.716 35.1654 161.921 35.0436C162.125 34.9218 162.274 34.5659 162.425 34.2005C162.549 33.8401 162.731 33.5015 162.962 33.1976C163.226 32.9157 163.533 32.6774 163.872 32.4915C164.208 32.2841 164.523 32.0881 164.617 31.8635C164.711 31.6389 164.617 31.2678 164.525 30.9119C164.414 30.5416 164.363 30.1564 164.37 29.77C164.418 29.3967 164.523 29.0332 164.686 28.6929C164.839 28.3237 164.982 27.9735 164.921 27.7223C164.86 27.4711 164.567 27.2294 164.261 26.9725C163.96 26.7456 163.696 26.4727 163.48 26.1636C163.293 25.8243 163.159 25.4576 163.084 25.0769C162.993 24.7153 162.893 24.3404 162.717 24.1863C162.542 24.0321 162.159 23.996 161.762 23.975C161.376 23.9665 160.992 23.897 160.627 23.7695C160.279 23.6077 159.962 23.3919 159.683 23.1301C159.379 22.875 159.094 22.6333 158.844 22.6143C158.594 22.5953 158.29 22.8046 157.974 22.9949C157.648 23.2182 157.288 23.3896 156.91 23.5031C156.522 23.578 156.125 23.5916 155.733 23.543C155.463 23.5097 155.19 23.5143 154.923 23.5563Z" fill="url(#paint18_linear_576_95724)"/>
<path d="M158.345 35.2972C161.649 35.2972 164.328 32.6296 164.328 29.3386C164.328 26.0477 161.649 23.3799 158.345 23.3799C155.041 23.3799 152.361 26.0477 152.361 29.3386C152.361 32.6296 155.041 35.2972 158.345 35.2972Z" stroke="white" stroke-width="1.91" stroke-miterlimit="10"/>
<path d="M157.598 26.2886L159.088 28.0509L161.393 27.8282L160.168 29.7846L161.093 31.8971L158.848 31.3433L157.116 32.8734L156.95 30.5744L154.955 29.4059L157.099 28.5381L157.598 26.2886Z" fill="#F4F4F4"/>
<path d="M26.2254 88.9239L13.5099 93.0042C13.4872 93.0117 13.4635 93.0145 13.4398 93.0126C13.4161 93.0109 13.3929 93.0044 13.3717 92.9936C13.3507 92.9827 13.3318 92.9679 13.3165 92.9498C13.3012 92.9317 13.2896 92.9108 13.2825 92.8881L7.98913 76.527C7.97652 76.4811 7.98187 76.4322 8.00365 76.39C8.02563 76.3477 8.0627 76.3152 8.10761 76.2986L17.6318 73.2422L22.0271 75.3451L26.3344 88.6956C26.3502 88.7403 26.3477 88.7894 26.3273 88.8322C26.3069 88.875 26.2702 88.9081 26.2254 88.9239Z" fill="#2B3048"/>
<path d="M20.3774 75.7598L10.5742 78.9456L10.7223 79.3976L20.5255 76.2118L20.3774 75.7598Z" fill="white"/>
<path d="M20.8612 77.3408L11.0488 80.5217L11.1965 80.9743L21.0091 77.7934L20.8612 77.3408Z" fill="white"/>
<path d="M21.3341 78.7891L11.5215 81.9699L11.6694 82.4223L21.482 79.2414L21.3341 78.7891Z" fill="white"/>
<path d="M21.7968 80.2354L11.9844 83.4162L12.1323 83.8686L21.9447 80.6879L21.7968 80.2354Z" fill="white"/>
<path d="M22.2714 81.6831L12.459 84.864L12.6067 85.3164L22.4193 82.1355L22.2714 81.6831Z" fill="white"/>
<path d="M22.7479 83.1309L12.9355 86.3117L13.0835 86.7641L22.8959 83.5832L22.7479 83.1309Z" fill="white"/>
<path d="M23.2225 84.5781L13.4102 87.759L13.5579 88.2114L23.3704 85.0305L23.2225 84.5781Z" fill="white"/>
<path d="M23.6938 85.8843L13.8906 89.0701L14.0387 89.5221L23.8419 86.3363L23.6938 85.8843Z" fill="white"/>
<path d="M17.6406 73.2495L22.0358 75.3525L18.8464 76.3763C18.8004 76.3889 18.7513 76.3836 18.7087 76.3617C18.6662 76.34 18.6336 76.3031 18.6171 76.2583L17.6406 73.2495Z" fill="#2B3048"/>
<path opacity="0.2" d="M17.6406 73.2495L22.0358 75.3525L18.8464 76.3763C18.8004 76.3889 18.7513 76.3836 18.7087 76.3617C18.6662 76.34 18.6336 76.3031 18.6171 76.2583L17.6406 73.2495Z" fill="#2B3048"/>
<defs>
<linearGradient id="paint0_linear_576_95724" x1="58.0586" y1="43.4555" x2="162.968" y2="43.4556" gradientUnits="userSpaceOnUse">
<stop stop-color="#FFDC36"/>
<stop offset="1" stop-color="#FFA800"/>
</linearGradient>
<linearGradient id="paint1_linear_576_95724" x1="57.002" y1="78.5829" x2="161.917" y2="78.5829" gradientUnits="userSpaceOnUse">
<stop stop-color="#FFDC36"/>
<stop offset="1" stop-color="#FFA800"/>
</linearGradient>
<linearGradient id="paint2_linear_576_95724" x1="151.93" y1="135.424" x2="176.144" y2="135.424" gradientUnits="userSpaceOnUse">
<stop stop-color="#FFDC36"/>
<stop offset="1" stop-color="#FFA800"/>
</linearGradient>
<linearGradient id="paint3_linear_576_95724" x1="151.93" y1="135.424" x2="176.144" y2="135.424" gradientUnits="userSpaceOnUse">
<stop stop-color="#FFDC36"/>
<stop offset="1" stop-color="#FFA800"/>
</linearGradient>
<linearGradient id="paint4_linear_576_95724" x1="151.881" y1="135.826" x2="174.378" y2="135.826" gradientUnits="userSpaceOnUse">
<stop stop-color="#FFDC36"/>
<stop offset="1" stop-color="#FFA800"/>
</linearGradient>
<linearGradient id="paint5_linear_576_95724" x1="151.881" y1="135.826" x2="174.378" y2="135.826" gradientUnits="userSpaceOnUse">
<stop stop-color="#FFDC36"/>
<stop offset="1" stop-color="#FFA800"/>
</linearGradient>
<linearGradient id="paint6_linear_576_95724" x1="25.7637" y1="119.554" x2="35.9359" y2="119.554" gradientUnits="userSpaceOnUse">
<stop stop-color="#FFDC36"/>
<stop offset="1" stop-color="#FFA800"/>
</linearGradient>
<linearGradient id="paint7_linear_576_95724" x1="11.377" y1="120.742" x2="20.4622" y2="120.742" gradientUnits="userSpaceOnUse">
<stop stop-color="#FFDC36"/>
<stop offset="1" stop-color="#FFA800"/>
</linearGradient>
<linearGradient id="paint8_linear_576_95724" x1="15.4453" y1="113.822" x2="18.7723" y2="113.822" gradientUnits="userSpaceOnUse">
<stop stop-color="#FFDC36"/>
<stop offset="1" stop-color="#FFA800"/>
</linearGradient>
<linearGradient id="paint9_linear_576_95724" x1="15.4277" y1="113.565" x2="24.0304" y2="113.565" gradientUnits="userSpaceOnUse">
<stop stop-color="#FFDC36"/>
<stop offset="1" stop-color="#FFA800"/>
</linearGradient>
<linearGradient id="paint10_linear_576_95724" x1="24.9844" y1="129.546" x2="32.4284" y2="129.546" gradientUnits="userSpaceOnUse">
<stop stop-color="#FFDC36"/>
<stop offset="1" stop-color="#FFA800"/>
</linearGradient>
<linearGradient id="paint11_linear_576_95724" x1="19.2324" y1="123.49" x2="25.3147" y2="123.49" gradientUnits="userSpaceOnUse">
<stop stop-color="#FFDC36"/>
<stop offset="1" stop-color="#FFA800"/>
</linearGradient>
<linearGradient id="paint12_linear_576_95724" x1="182.365" y1="79.8193" x2="190.118" y2="79.8193" gradientUnits="userSpaceOnUse">
<stop stop-color="#FFDC36"/>
<stop offset="1" stop-color="#FFA800"/>
</linearGradient>
<linearGradient id="paint13_linear_576_95724" x1="186.293" y1="69.468" x2="192.453" y2="69.468" gradientUnits="userSpaceOnUse">
<stop stop-color="#FFDC36"/>
<stop offset="1" stop-color="#FFA800"/>
</linearGradient>
<linearGradient id="paint14_linear_576_95724" x1="176.109" y1="73.7691" x2="180.139" y2="73.7691" gradientUnits="userSpaceOnUse">
<stop stop-color="#FFDC36"/>
<stop offset="1" stop-color="#FFA800"/>
</linearGradient>
<linearGradient id="paint15_linear_576_95724" x1="175.309" y1="55.0956" x2="179.851" y2="55.0956" gradientUnits="userSpaceOnUse">
<stop stop-color="#FFDC36"/>
<stop offset="1" stop-color="#FFA800"/>
</linearGradient>
<linearGradient id="paint16_linear_576_95724" x1="176.811" y1="62.0016" x2="182.734" y2="62.0016" gradientUnits="userSpaceOnUse">
<stop stop-color="#FFDC36"/>
<stop offset="1" stop-color="#FFA800"/>
</linearGradient>
<linearGradient id="paint17_linear_576_95724" x1="151.4" y1="29.3494" x2="165.285" y2="29.3494" gradientUnits="userSpaceOnUse">
<stop stop-color="#FFDC36"/>
<stop offset="1" stop-color="#FFA800"/>
</linearGradient>
<linearGradient id="paint18_linear_576_95724" x1="150.666" y1="29.3464" x2="166.021" y2="29.3464" gradientUnits="userSpaceOnUse">
<stop stop-color="#FFDC36"/>
<stop offset="1" stop-color="#FFA800"/>
</linearGradient>
</defs>
</svg>
