<svg width="264" height="160" viewBox="0 0 264 160" fill="none" xmlns="http://www.w3.org/2000/svg">
<path d="M186.688 133.003C191.814 131.956 191.856 112.49 191.895 95.317C191.918 84.3559 191.942 74.0047 193.386 71.2197C196.081 65.9801 201.433 66.0462 201.482 66.0462L201.493 65.6837C201.437 65.6837 195.862 65.6048 193.058 71.0512C191.581 73.9237 191.567 83.8463 191.532 95.3234C191.498 111.516 191.454 131.666 186.615 132.655L186.688 133.003Z" fill="#5C687E"/>
<path d="M186.289 130.322C189.464 130.322 191.507 125.927 192.54 116.887C193.428 109.121 193.463 99.053 193.49 90.1711C193.522 80.466 193.55 72.0831 194.639 69.0358C196.607 63.5168 201.311 64.1502 201.51 64.18L201.563 63.8196C201.512 63.8196 196.366 63.1074 194.296 68.9121C193.188 72.0192 193.16 80.4276 193.128 90.1711C193.068 107.899 192.996 129.959 186.289 129.959V130.322Z" fill="#5C687E"/>
<path d="M186.84 134.864C192.773 133.708 192.692 111.547 192.626 93.7426C192.59 83.9757 192.558 75.5417 193.542 73.0573C195.707 67.5916 201.564 68.1013 201.623 68.1077L201.657 67.7452C201.598 67.7452 195.468 67.2035 193.204 72.9229C192.194 75.4819 192.226 83.9416 192.262 93.7448C192.324 110.485 192.409 133.409 186.771 134.51L186.84 134.864Z" fill="#5C687E"/>
<path d="M186.84 133.934C192.782 132.789 192.692 110.611 192.626 92.811C192.59 83.0462 192.558 74.61 193.542 72.1256C195.707 66.6579 201.564 67.1697 201.623 67.1761L201.657 66.8135C201.598 66.8135 195.468 66.2719 193.204 71.9913C192.194 74.5503 192.226 83.01 192.262 92.8131C192.324 109.553 192.409 132.478 186.771 133.578L186.84 133.934Z" fill="#5C687E"/>
<path d="M186.688 153.208C191.816 152.161 191.858 135.722 191.895 121.221C191.92 111.838 191.942 102.99 193.386 100.196C196.085 94.9502 201.435 95.0249 201.482 95.0249L201.493 94.6602C201.437 94.6602 195.862 94.5834 193.058 100.03C191.581 102.902 191.567 111.39 191.532 121.221C191.496 135.581 191.454 151.86 186.615 152.848L186.688 153.208Z" fill="#5C687E"/>
<path d="M186.289 150.526C193.36 150.526 193.431 132.534 193.49 116.661C193.524 108.293 193.552 101.069 194.639 98.0211C196.607 92.5043 201.311 93.1377 201.51 93.1675L201.563 92.8072C201.512 92.8072 196.366 92.0928 194.296 97.8996C193.188 101.005 193.16 108.259 193.128 116.666C193.071 131.593 192.998 150.167 186.289 150.167V150.526Z" fill="#5C687E"/>
<path d="M186.289 151.688C193.36 151.688 193.431 133.696 193.49 117.824C193.524 109.456 193.552 102.231 194.639 99.1833C196.607 93.6664 201.311 94.2998 201.51 94.3297L201.563 93.9693C201.512 93.9693 196.366 93.2549 194.296 99.0617C193.188 102.167 193.16 109.421 193.128 117.828C193.071 132.755 192.998 151.331 186.289 151.331V151.688Z" fill="#5C687E"/>
<path d="M186.289 153.588C193.36 153.588 193.431 135.596 193.49 119.721C193.524 111.355 193.552 104.131 194.639 101.083C196.607 95.5642 201.311 96.1997 201.51 96.2275L201.563 95.8692C201.512 95.8692 196.366 95.1548 194.296 100.959C193.188 104.067 193.16 111.321 193.128 119.726C193.071 134.653 192.998 153.227 186.289 153.227V153.588Z" fill="#5C687E"/>
<path d="M186.84 155.07C192.771 153.914 192.69 135.203 192.626 120.169C192.59 111.778 192.558 104.531 193.542 102.043C195.707 96.5749 201.564 97.0867 201.623 97.0931L201.657 96.7305C201.596 96.7305 195.468 96.1889 193.204 101.908C192.194 104.467 192.226 111.739 192.262 120.169C192.326 135.069 192.407 153.611 186.771 154.716L186.84 155.07Z" fill="#5C687E"/>
<path d="M253.963 34.6016H239.642V145.132H253.963V34.6016Z" fill="#38EB80"/>
<path opacity="0.15" d="M253.963 34.6016H239.642V145.132H253.963V34.6016Z" fill="#23213D"/>
<path d="M239.739 34.6104H199.771V145.139H239.739V34.6104Z" fill="#38EB80"/>
<path opacity="0.3" d="M239.739 34.6104H199.771V145.139H239.739V34.6104Z" fill="white"/>
<path d="M237.03 50.5679H202.483V138.148H237.03V50.5679Z" fill="#38EB80"/>
<path opacity="0.2" d="M237.03 50.5679H202.483V138.148H237.03V50.5679Z" fill="#23213D"/>
<path d="M235.917 64.2334H203.593V74.8872H235.917V64.2334Z" fill="#38EB80"/>
<path d="M235.917 76.6338H203.593V87.2878H235.917V76.6338Z" fill="#38EB80"/>
<path d="M235.917 89.0322H203.593V99.6863H235.917V89.0322Z" fill="#38EB80"/>
<path d="M235.917 101.431H203.593V112.085H235.917V101.431Z" fill="#38EB80"/>
<path d="M235.917 113.829H203.593V124.483H235.917V113.829Z" fill="#38EB80"/>
<path d="M235.917 126.228H203.593V136.882H235.917V126.228Z" fill="#38EB80"/>
<path d="M235.917 51.835H203.593V62.489H235.917V51.835Z" fill="#38EB80"/>
<g opacity="0.3">
<path opacity="0.3" d="M235.917 64.2334H203.593V74.8874H235.917V64.2334Z" fill="white"/>
<path opacity="0.3" d="M235.917 76.6338H203.593V87.2878H235.917V76.6338Z" fill="white"/>
<path opacity="0.3" d="M235.917 89.0322H203.593V99.6863H235.917V89.0322Z" fill="white"/>
<path opacity="0.3" d="M235.917 101.431H203.593V112.085H235.917V101.431Z" fill="white"/>
<path opacity="0.3" d="M235.917 113.83H203.593V124.484H235.917V113.83Z" fill="white"/>
<path opacity="0.3" d="M235.917 126.228H203.593V136.882H235.917V126.228Z" fill="white"/>
<path opacity="0.3" d="M235.917 51.835H203.593V62.489H235.917V51.835Z" fill="white"/>
</g>
<path d="M232.854 54.6006H206.21V59.8956H232.854V54.6006Z" fill="#38EB80"/>
<path opacity="0.2" d="M232.854 54.6006H206.21V59.8956H232.854V54.6006Z" fill="#23213D"/>
<path d="M226.396 56.0508H207.289V58.4797H226.396V56.0508Z" fill="#38EB80"/>
<path opacity="0.2" d="M227.716 57.9105C228.055 57.9105 228.33 57.6211 228.33 57.2643C228.33 56.9073 228.055 56.6182 227.716 56.6182C227.377 56.6182 227.103 56.9073 227.103 57.2643C227.103 57.6211 227.377 57.9105 227.716 57.9105Z" fill="#23213D"/>
<path d="M229.488 57.9105C229.826 57.9105 230.101 57.6211 230.101 57.2643C230.101 56.9073 229.826 56.6182 229.488 56.6182C229.149 56.6182 228.874 56.9073 228.874 57.2643C228.874 57.6211 229.149 57.9105 229.488 57.9105Z" fill="#38EB80"/>
<path d="M231.26 57.9105C231.599 57.9105 231.874 57.6211 231.874 57.2643C231.874 56.9073 231.599 56.6182 231.26 56.6182C230.921 56.6182 230.646 56.9073 230.646 57.2643C230.646 57.6211 230.921 57.9105 231.26 57.9105Z" fill="#5C687E"/>
<path d="M232.854 67.1396H206.21V72.4347H232.854V67.1396Z" fill="#38EB80"/>
<path opacity="0.2" d="M232.854 67.1396H206.21V72.4347H232.854V67.1396Z" fill="#23213D"/>
<path d="M226.396 68.5874H207.289V71.0163H226.396V68.5874Z" fill="#38EB80"/>
<path d="M232.854 79.6768H206.21V84.9718H232.854V79.6768Z" fill="#38EB80"/>
<path opacity="0.2" d="M232.854 79.6768H206.21V84.9718H232.854V79.6768Z" fill="#23213D"/>
<path d="M226.396 81.125H207.289V83.5539H226.396V81.125Z" fill="#38EB80"/>
<path d="M232.854 92.2139H206.21V97.5089H232.854V92.2139Z" fill="#38EB80"/>
<path opacity="0.2" d="M232.854 92.2139H206.21V97.5089H232.854V92.2139Z" fill="#23213D"/>
<path d="M226.396 93.6636H207.289V96.0925H226.396V93.6636Z" fill="#38EB80"/>
<path d="M232.854 104.422H206.21V109.717H232.854V104.422Z" fill="#38EB80"/>
<path opacity="0.2" d="M232.854 104.422H206.21V109.717H232.854V104.422Z" fill="#23213D"/>
<path d="M226.396 105.872H207.289V108.301H226.396V105.872Z" fill="#38EB80"/>
<path opacity="0.2" d="M227.716 107.781C228.055 107.781 228.33 107.492 228.33 107.135C228.33 106.778 228.055 106.489 227.716 106.489C227.377 106.489 227.103 106.778 227.103 107.135C227.103 107.492 227.377 107.781 227.716 107.781Z" fill="#23213D"/>
<path d="M229.488 107.781C229.826 107.781 230.101 107.492 230.101 107.135C230.101 106.778 229.826 106.489 229.488 106.489C229.149 106.489 228.874 106.778 228.874 107.135C228.874 107.492 229.149 107.781 229.488 107.781Z" fill="#38EB80"/>
<path d="M231.26 107.781C231.599 107.781 231.874 107.492 231.874 107.135C231.874 106.778 231.599 106.489 231.26 106.489C230.921 106.489 230.646 106.778 230.646 107.135C230.646 107.492 230.921 107.781 231.26 107.781Z" fill="#5C687E"/>
<path d="M232.854 117.009H206.21V122.304H232.854V117.009Z" fill="#38EB80"/>
<path opacity="0.2" d="M232.854 117.009H206.21V122.304H232.854V117.009Z" fill="#23213D"/>
<path d="M226.396 118.456H207.289V120.885H226.396V118.456Z" fill="#38EB80"/>
<path d="M232.854 129.311H206.21V134.606H232.854V129.311Z" fill="#38EB80"/>
<path opacity="0.2" d="M232.854 129.311H206.21V134.606H232.854V129.311Z" fill="#23213D"/>
<path d="M226.396 130.759H207.289V133.188H226.396V130.759Z" fill="#38EB80"/>
<path opacity="0.3" d="M226.396 56.0508H207.289V58.4797H226.396V56.0508Z" fill="white"/>
<g opacity="0.3">
<path opacity="0.3" d="M226.396 68.5874H207.289V71.0163H226.396V68.5874Z" fill="white"/>
</g>
<g opacity="0.3">
<path opacity="0.3" d="M226.396 81.125H207.289V83.5539H226.396V81.125Z" fill="white"/>
</g>
<g opacity="0.3">
<path opacity="0.3" d="M226.396 93.6636H207.289V96.0925H226.396V93.6636Z" fill="white"/>
</g>
<g opacity="0.3">
<path opacity="0.3" d="M226.396 105.872H207.289V108.301H226.396V105.872Z" fill="white"/>
</g>
<g opacity="0.3">
<path opacity="0.3" d="M226.396 118.456H207.289V120.885H226.396V118.456Z" fill="white"/>
</g>
<g opacity="0.3">
<path opacity="0.3" d="M226.396 130.759H207.289V133.188H226.396V130.759Z" fill="white"/>
</g>
<path opacity="0.2" d="M228.329 132.047C228.325 132.167 228.284 132.283 228.214 132.381C228.144 132.479 228.046 132.553 227.933 132.596C227.82 132.639 227.698 132.647 227.581 132.62C227.462 132.594 227.355 132.533 227.272 132.446C227.189 132.359 227.134 132.249 227.112 132.131C227.091 132.012 227.104 131.89 227.153 131.779C227.2 131.668 227.279 131.574 227.379 131.508C227.479 131.442 227.598 131.407 227.718 131.407C227.882 131.414 228.037 131.485 228.152 131.604C228.265 131.723 228.329 131.882 228.329 132.047Z" fill="#23213D"/>
<path d="M230.101 132.047C230.096 132.167 230.056 132.283 229.985 132.381C229.915 132.478 229.817 132.553 229.704 132.596C229.593 132.638 229.47 132.647 229.353 132.62C229.236 132.594 229.129 132.533 229.046 132.447C228.963 132.36 228.905 132.25 228.884 132.132C228.863 132.014 228.875 131.892 228.922 131.781C228.971 131.67 229.048 131.575 229.148 131.509C229.25 131.443 229.368 131.407 229.487 131.407C229.653 131.414 229.809 131.484 229.924 131.603C230.037 131.723 230.101 131.881 230.101 132.047Z" fill="#38EB80"/>
<path d="M231.26 132.693C231.599 132.693 231.874 132.404 231.874 132.047C231.874 131.69 231.599 131.401 231.26 131.401C230.921 131.401 230.646 131.69 230.646 132.047C230.646 132.404 230.921 132.693 231.26 132.693Z" fill="#5C687E"/>
<path opacity="0.2" d="M228.329 69.9034C228.325 70.0239 228.284 70.1401 228.214 70.2376C228.144 70.3353 228.046 70.4101 227.933 70.4526C227.82 70.495 227.698 70.5035 227.581 70.4769C227.462 70.4502 227.355 70.3894 227.272 70.3024C227.189 70.2154 227.134 70.1058 227.112 69.9872C227.091 69.8689 227.104 69.7467 227.153 69.6358C227.2 69.5251 227.279 69.4309 227.379 69.3648C227.479 69.2986 227.598 69.2635 227.718 69.2637C227.882 69.2709 228.037 69.3415 228.152 69.4607C228.265 69.5799 228.329 69.7386 228.329 69.9034Z" fill="#23213D"/>
<path d="M230.101 69.9034C230.096 70.0237 230.056 70.1399 229.985 70.2374C229.915 70.335 229.817 70.4097 229.704 70.4523C229.593 70.495 229.47 70.5035 229.353 70.4771C229.236 70.4504 229.129 70.3901 229.046 70.3033C228.963 70.2165 228.905 70.1071 228.884 69.9887C228.863 69.8702 228.875 69.7482 228.922 69.6373C228.971 69.5266 229.048 69.4321 229.148 69.3658C229.25 69.2993 229.368 69.2639 229.487 69.2637C229.653 69.2703 229.809 69.3407 229.924 69.4599C230.037 69.5793 230.101 69.7382 230.101 69.9034Z" fill="#38EB80"/>
<path d="M231.26 70.5496C231.599 70.5496 231.874 70.2602 231.874 69.9035C231.874 69.5467 231.599 69.2573 231.26 69.2573C230.921 69.2573 230.646 69.5467 230.646 69.9035C230.646 70.2602 230.921 70.5496 231.26 70.5496Z" fill="#5C687E"/>
<path opacity="0.2" d="M228.329 82.3077C228.325 82.4282 228.284 82.5444 228.214 82.6419C228.144 82.7396 228.046 82.8142 227.933 82.8568C227.82 82.8993 227.698 82.9078 227.581 82.8812C227.462 82.8545 227.355 82.7937 227.272 82.7067C227.189 82.6197 227.134 82.5101 227.112 82.3915C227.091 82.2732 227.104 82.1508 227.153 82.0401C227.2 81.9294 227.279 81.8352 227.379 81.7691C227.479 81.7027 227.598 81.6678 227.718 81.668C227.882 81.6752 228.037 81.7458 228.152 81.865C228.265 81.9842 228.329 82.1429 228.329 82.3077Z" fill="#23213D"/>
<path d="M230.101 82.3077C230.096 82.428 230.056 82.5442 229.985 82.6417C229.915 82.7393 229.817 82.814 229.704 82.8566C229.593 82.8993 229.47 82.9078 229.353 82.8814C229.236 82.8547 229.129 82.7944 229.046 82.7076C228.963 82.6208 228.905 82.5114 228.884 82.3928C228.863 82.2745 228.875 82.1523 228.922 82.0416C228.971 81.9309 229.048 81.8364 229.148 81.7701C229.25 81.7036 229.368 81.6682 229.487 81.668C229.653 81.6746 229.809 81.7449 229.924 81.8642C230.037 81.9836 230.101 82.1425 230.101 82.3077Z" fill="#38EB80"/>
<path d="M231.26 82.9544C231.599 82.9544 231.874 82.665 231.874 82.3083C231.874 81.9515 231.599 81.6621 231.26 81.6621C230.921 81.6621 230.646 81.9515 230.646 82.3083C230.646 82.665 230.921 82.9544 231.26 82.9544Z" fill="#5C687E"/>
<path opacity="0.2" d="M228.329 94.9156C228.325 95.0361 228.284 95.1523 228.214 95.2498C228.144 95.3475 228.046 95.4223 227.933 95.4647C227.82 95.5072 227.698 95.5157 227.581 95.4891C227.462 95.4624 227.355 95.4016 227.272 95.3146C227.189 95.2276 227.134 95.118 227.112 94.9994C227.091 94.8811 227.104 94.7589 227.153 94.648C227.2 94.5373 227.279 94.4431 227.379 94.377C227.479 94.3109 227.598 94.2757 227.718 94.2759C227.882 94.2831 228.037 94.3537 228.152 94.4729C228.265 94.5921 228.329 94.7508 228.329 94.9156Z" fill="#23213D"/>
<path d="M230.101 94.9156C230.096 95.0359 230.056 95.1521 229.985 95.2496C229.915 95.3472 229.817 95.4219 229.704 95.4645C229.593 95.5072 229.47 95.5157 229.353 95.4893C229.236 95.4626 229.129 95.4023 229.046 95.3155C228.963 95.2287 228.905 95.1193 228.884 95.0009C228.863 94.8824 228.875 94.7604 228.922 94.6495C228.971 94.5388 229.048 94.4443 229.148 94.378C229.25 94.3115 229.368 94.2761 229.487 94.2759C229.653 94.2825 229.809 94.3529 229.924 94.4721C230.037 94.5915 230.101 94.7504 230.101 94.9156Z" fill="#38EB80"/>
<path d="M231.26 95.5618C231.599 95.5618 231.874 95.2727 231.874 94.9157C231.874 94.5589 231.599 94.2695 231.26 94.2695C230.921 94.2695 230.646 94.5589 230.646 94.9157C230.646 95.2727 230.921 95.5618 231.26 95.5618Z" fill="#5C687E"/>
<path opacity="0.2" d="M228.329 119.732C228.325 119.852 228.284 119.968 228.214 120.066C228.144 120.163 228.046 120.238 227.933 120.28C227.82 120.323 227.698 120.331 227.581 120.305C227.462 120.278 227.355 120.218 227.272 120.13C227.189 120.043 227.134 119.934 227.112 119.815C227.091 119.697 227.104 119.575 227.153 119.464C227.2 119.353 227.279 119.259 227.379 119.193C227.479 119.127 227.598 119.091 227.718 119.092C227.884 119.096 228.041 119.166 228.154 119.286C228.269 119.405 228.331 119.566 228.329 119.732Z" fill="#23213D"/>
<path d="M230.101 119.732C230.096 119.852 230.056 119.968 229.985 120.065C229.915 120.163 229.817 120.238 229.704 120.28C229.593 120.323 229.47 120.331 229.353 120.305C229.236 120.278 229.129 120.218 229.046 120.131C228.963 120.044 228.905 119.935 228.884 119.817C228.863 119.698 228.875 119.576 228.922 119.465C228.971 119.355 229.048 119.26 229.148 119.194C229.25 119.127 229.368 119.092 229.487 119.092C229.653 119.098 229.809 119.169 229.924 119.288C230.037 119.407 230.101 119.566 230.101 119.732Z" fill="#38EB80"/>
<path d="M231.26 120.378C231.599 120.378 231.874 120.089 231.874 119.732C231.874 119.375 231.599 119.086 231.26 119.086C230.921 119.086 230.646 119.375 230.646 119.732C230.646 120.089 230.921 120.378 231.26 120.378Z" fill="#5C687E"/>
<path d="M218.295 38.5491H203.607L202.47 37.4487H218.295V38.5491Z" fill="#38EB80"/>
<path d="M218.295 40.2107H203.607L202.47 39.1104H218.295V40.2107Z" fill="#38EB80"/>
<path d="M218.295 41.8719H203.607L202.47 40.7715H218.295V41.8719Z" fill="#38EB80"/>
<path d="M218.295 43.5309H203.607L202.47 42.4326H218.295V43.5309Z" fill="#38EB80"/>
<path d="M218.295 45.1922H203.607L202.47 44.0918H218.295V45.1922Z" fill="#38EB80"/>
<path d="M218.295 46.8533H203.607L202.47 45.7529H218.295V46.8533Z" fill="#38EB80"/>
<path d="M236.793 38.5491H222.105L220.968 37.4487H236.793V38.5491Z" fill="#38EB80"/>
<path d="M236.793 40.2107H222.105L220.968 39.1104H236.793V40.2107Z" fill="#38EB80"/>
<path d="M236.793 41.8719H222.105L220.968 40.7715H236.793V41.8719Z" fill="#38EB80"/>
<path d="M236.793 43.5309H222.105L220.968 42.4326H236.793V43.5309Z" fill="#38EB80"/>
<path d="M236.793 45.1922H222.105L220.968 44.0918H236.793V45.1922Z" fill="#38EB80"/>
<path d="M236.793 46.8533H222.105L220.968 45.7529H236.793V46.8533Z" fill="#38EB80"/>
<g opacity="0.3">
<path opacity="0.3" d="M218.294 38.5491H203.606L202.469 37.4487H218.294V38.5491Z" fill="#23213D"/>
<path opacity="0.3" d="M218.293 40.2102H203.605L202.468 39.1099H218.293V40.2102Z" fill="#23213D"/>
<path opacity="0.3" d="M218.293 41.8719H203.605L202.468 40.7715H218.293V41.8719Z" fill="#23213D"/>
<path opacity="0.3" d="M218.293 43.5304H203.605L202.468 42.4321H218.293V43.5304Z" fill="#23213D"/>
<path opacity="0.3" d="M218.293 45.1917H203.605L202.468 44.0913H218.293V45.1917Z" fill="#23213D"/>
<path opacity="0.3" d="M218.293 46.8528H203.605L202.468 45.7524H218.293V46.8528Z" fill="#23213D"/>
</g>
<g opacity="0.3">
<path opacity="0.3" d="M236.793 38.5491H222.105L220.968 37.4487H236.793V38.5491Z" fill="#23213D"/>
<path opacity="0.3" d="M236.793 40.2102H222.105L220.968 39.1099H236.793V40.2102Z" fill="#23213D"/>
<path opacity="0.3" d="M236.793 41.8719H222.105L220.968 40.7715H236.793V41.8719Z" fill="#23213D"/>
<path opacity="0.3" d="M236.793 43.5304H222.105L220.968 42.4321H236.793V43.5304Z" fill="#23213D"/>
<path opacity="0.3" d="M236.793 45.1917H222.105L220.968 44.0913H236.793V45.1917Z" fill="#23213D"/>
<path opacity="0.3" d="M236.793 46.8528H222.105L220.968 45.7524H236.793V46.8528Z" fill="#23213D"/>
</g>
<path d="M251.858 52.9478H241.749V46.1963H251.858V52.9478ZM241.86 52.8369H251.745V46.3093H241.86V52.8369Z" fill="#38EB80"/>
<path d="M251.858 62.3072H241.749V55.5557H251.858V62.3072ZM241.86 62.1963H251.745V55.6687H241.86V62.1963Z" fill="#38EB80"/>
<path d="M251.858 72.147H241.749V65.4019H251.858V72.147ZM241.86 72.034H251.745V65.5063H241.86V72.034Z" fill="#38EB80"/>
<path d="M251.858 81.5064H241.749V74.7549H251.858V81.5064ZM241.86 81.3934H251.745V74.8658H241.86V81.3934Z" fill="#38EB80"/>
<path d="M251.858 133.536H241.749V85.0977H251.858V133.536ZM241.86 133.422H251.745V85.2086H241.86V133.422Z" fill="#38EB80"/>
<path d="M208.163 145.158H255.277C255.294 145.158 255.311 145.164 255.324 145.177C255.337 145.19 255.343 145.207 255.343 145.224V159.166C255.343 159.183 255.337 159.202 255.324 159.215C255.311 159.228 255.294 159.234 255.275 159.234H208.163C208.146 159.234 208.129 159.228 208.116 159.215C208.103 159.202 208.097 159.185 208.097 159.168V145.226C208.097 145.209 208.103 145.192 208.116 145.179C208.129 145.166 208.146 145.158 208.163 145.158Z" fill="#5C687E"/>
<path opacity="0.6" d="M208.163 145.157H255.277C255.294 145.157 255.311 145.164 255.324 145.176C255.337 145.189 255.343 145.206 255.343 145.223V159.166C255.343 159.183 255.337 159.202 255.324 159.215C255.311 159.228 255.294 159.234 255.275 159.234H208.163C208.146 159.234 208.129 159.228 208.116 159.215C208.103 159.202 208.097 159.185 208.097 159.168V145.225C208.097 145.208 208.103 145.191 208.116 145.179C208.129 145.166 208.146 145.157 208.163 145.157Z" fill="#23213D"/>
<path d="M241.881 145.158H197.854C197.845 145.158 197.837 145.16 197.828 145.164C197.822 145.166 197.813 145.173 197.809 145.179C197.803 145.185 197.798 145.192 197.796 145.2C197.792 145.209 197.792 145.217 197.792 145.226V159.166C197.792 159.175 197.794 159.183 197.796 159.192C197.798 159.2 197.805 159.207 197.809 159.213C197.815 159.22 197.824 159.226 197.83 159.228C197.839 159.232 197.847 159.234 197.856 159.234H241.883C241.892 159.234 241.9 159.232 241.907 159.228C241.915 159.226 241.922 159.22 241.928 159.215C241.934 159.209 241.939 159.2 241.941 159.194C241.945 159.185 241.945 159.177 241.945 159.168V145.226C241.945 145.217 241.943 145.209 241.941 145.2C241.939 145.192 241.932 145.185 241.928 145.179C241.922 145.173 241.915 145.166 241.907 145.164C241.898 145.16 241.89 145.158 241.881 145.158Z" fill="#5C687E"/>
<path d="M212.433 146.9H199.283V148.74H212.433V146.9Z" fill="#DADDDF"/>
<path d="M143.447 102.416H114.046V103.909H143.447V102.416Z" fill="#5C687E"/>
<path d="M263.68 160H0.319579C0.234997 160 0.153611 159.966 0.0937436 159.906C0.0336628 159.847 0 159.766 0 159.68C0 159.595 0.0336628 159.514 0.0937436 159.454C0.153611 159.394 0.234997 159.36 0.319579 159.36H263.68C263.766 159.36 263.847 159.394 263.906 159.454C263.966 159.514 264 159.595 264 159.68C264 159.766 263.966 159.847 263.906 159.906C263.847 159.966 263.766 160 263.68 160Z" fill="#5C687E"/>
<path d="M115.842 105.809H106.183V159.347H115.842V105.809Z" fill="#5C687E"/>
<path opacity="0.6" d="M115.555 106H105.896V159.539H115.555V106Z" fill="#23213D"/>
<path d="M107.835 105.809H78.5322V159.347H107.835V105.809Z" fill="#5C687E"/>
<g opacity="0.6">
<path opacity="0.2" d="M105.604 118.45H80.6045V109.148H105.604V118.45ZM80.939 118.118H105.272V109.483H80.939V118.118Z" fill="#23213D"/>
</g>
<path opacity="0.2" d="M96.9384 113.373H89.2686V114.226H96.9384V113.373Z" fill="#23213D"/>
<g opacity="0.6">
<path opacity="0.2" d="M105.604 129.966H80.6045V120.664H105.604V129.966ZM80.939 129.633H105.272V120.999H80.939V129.633Z" fill="#23213D"/>
</g>
<path opacity="0.6" d="M96.9384 124.888H89.2686V125.741H96.9384V124.888Z" fill="#23213D"/>
<g opacity="0.6">
<path opacity="0.2" d="M105.604 141.482H80.6045V132.18H105.604V141.482ZM80.939 141.149H105.272V132.514H80.939V141.149Z" fill="#23213D"/>
</g>
<path opacity="0.6" d="M96.581 136H88.9111V136.853H96.581V136Z" fill="#23213D"/>
<g opacity="0.6">
<path opacity="0.2" d="M105.604 152.997H80.6045V143.695H105.604V152.997ZM80.939 152.664H105.272V144.03H80.939V152.664Z" fill="#23213D"/>
</g>
<path opacity="0.6" d="M96.581 148H88.9111V148.853H96.581V148Z" fill="#23213D"/>
<path d="M186.922 104.762H177.263V159.348H186.922V104.762Z" fill="#5C687E"/>
<path opacity="0.6" d="M186.922 104.762H177.263V159.348H186.922V104.762Z" fill="#23213D"/>
<path d="M178.916 105.809H149.612V159.347H178.916V105.809Z" fill="#5C687E"/>
<path d="M188.826 103.821H76.5713V105.994H188.826V103.821Z" fill="#5C687E"/>
<path opacity="0.6" d="M108.322 106H78.9209V106.853H108.322V106Z" fill="#23213D"/>
<path opacity="0.6" d="M179.149 106H149.854V106.853H179.149V106Z" fill="#23213D"/>
<g opacity="0.6">
<path opacity="0.2" d="M176.764 118.45H151.765V109.148H176.764V118.45ZM152.099 118.118H176.432V109.483H152.099V118.118Z" fill="#23213D"/>
</g>
<path opacity="0.6" d="M168.514 113H160.844V113.853H168.514V113Z" fill="#23213D"/>
<g opacity="0.6">
<path opacity="0.2" d="M176.764 129.966H151.765V120.664H176.764V129.966ZM152.099 129.633H176.432V120.999H152.099V129.633Z" fill="#23213D"/>
</g>
<path opacity="0.6" d="M168.514 125H160.844V125.853H168.514V125Z" fill="#23213D"/>
<g opacity="0.6">
<path opacity="0.2" d="M176.764 141.482H151.765V132.18H176.764V141.482ZM152.099 141.149H176.432V132.514H152.099V141.149Z" fill="#23213D"/>
</g>
<path opacity="0.6" d="M168.514 136H160.844V136.853H168.514V136Z" fill="#23213D"/>
<g opacity="0.6">
<path opacity="0.2" d="M176.764 152.997H151.765V143.695H176.764V152.997ZM152.099 152.664H176.432V144.03H152.099V152.664Z" fill="#23213D"/>
</g>
<path opacity="0.6" d="M168.514 148H160.844V148.853H168.514V148Z" fill="#23213D"/>
<path d="M113.769 103.618H106.468L100.236 78.6084H107.538L113.769 103.618Z" fill="#5C687E"/>
<path opacity="0.6" d="M113.769 103.618H106.468L100.236 78.6084H107.538L113.769 103.618Z" fill="#23213D"/>
<path d="M113.266 103.618H105.965L99.7334 78.6084H107.035L113.266 103.618Z" fill="#5C687E"/>
<path opacity="0.6" d="M111.955 96.3384H104.136L103.808 95.0205H111.627L111.955 96.3384Z" fill="#23213D"/>
<path d="M126.69 69.4985H85.085V95.0162H126.69V69.4985Z" fill="#5C687E"/>
<path d="M125.232 70.6758H86.54V93.8391H125.232V70.6758Z" fill="#2B3048"/>
<path d="M101.455 72.2832H88.8721V73.2706H101.455V72.2832Z" fill="#38EB80"/>
<path d="M98.4893 73.9702H88.8721V74.9576H98.4893V73.9702Z" fill="#38EB80"/>
<path d="M100.375 75.6548H88.8721V76.6421H100.375V75.6548Z" fill="#38EB80"/>
<path d="M98.1761 77.3418H88.8721V78.3292H98.1761V77.3418Z" fill="#38EB80"/>
<path d="M102.393 79.0264H91.877V80.0137H102.393V79.0264Z" fill="#38EB80"/>
<path d="M101.456 81.0547H91.877V82.042H101.456V81.0547Z" fill="#38EB80"/>
<path d="M98.4893 82.7393H88.8721V83.7266H98.4893V82.7393Z" fill="#38EB80"/>
<path d="M100.375 84.4258H88.8721V85.4131H100.375V84.4258Z" fill="#38EB80"/>
<path d="M98.1761 86.1104H88.8721V87.0977H98.1761V86.1104Z" fill="#38EB80"/>
<path d="M102.392 87.7974H88.8721V88.7847H102.392V87.7974Z" fill="#38EB80"/>
<path d="M104.5 89.7275H92.9971V90.7149H104.5V89.7275Z" fill="#38EB80"/>
<path d="M102.392 91.6597H88.8721V92.647H102.392V91.6597Z" fill="#38EB80"/>
<g opacity="0.2">
<path opacity="0.2" d="M101.455 72.2832H88.8721V73.2706H101.455V72.2832Z" fill="#23213D"/>
<path opacity="0.2" d="M98.4883 73.9702H88.8711V74.9576H98.4883V73.9702Z" fill="#23213D"/>
<path opacity="0.2" d="M100.374 75.6548H88.8711V76.6421H100.374V75.6548Z" fill="#23213D"/>
<path opacity="0.2" d="M98.1751 77.3418H88.8711V78.3292H98.1751V77.3418Z" fill="#23213D"/>
<path opacity="0.2" d="M102.392 79.0264H91.876V80.0137H102.392V79.0264Z" fill="#23213D"/>
<path opacity="0.2" d="M101.455 81.0547H91.876V82.042H101.455V81.0547Z" fill="#23213D"/>
<path opacity="0.2" d="M98.4883 82.7388H88.8711V83.7261H98.4883V82.7388Z" fill="#23213D"/>
<path opacity="0.2" d="M100.374 84.4258H88.8711V85.4131H100.374V84.4258Z" fill="#23213D"/>
<path opacity="0.2" d="M98.1751 86.1104H88.8711V87.0977H98.1751V86.1104Z" fill="#23213D"/>
<path opacity="0.2" d="M102.391 87.7974H88.8711V88.7847H102.391V87.7974Z" fill="#23213D"/>
<path opacity="0.2" d="M104.499 89.7275H92.9961V90.7149H104.499V89.7275Z" fill="#23213D"/>
<path opacity="0.2" d="M102.391 91.6592H88.8711V92.6465H102.391V91.6592Z" fill="#23213D"/>
</g>
<path d="M120.357 72.2832H107.774V73.2706H120.357V72.2832Z" fill="#38EB80"/>
<path d="M117.392 73.9702H107.774V74.9576H117.392V73.9702Z" fill="#38EB80"/>
<path d="M119.277 75.6548H107.774V76.6421H119.277V75.6548Z" fill="#38EB80"/>
<path d="M117.078 77.3418H107.774V78.3292H117.078V77.3418Z" fill="#38EB80"/>
<path d="M121.294 79.0264H110.777V80.0137H121.294V79.0264Z" fill="#38EB80"/>
<path d="M120.356 81.0547H110.777V82.042H120.356V81.0547Z" fill="#38EB80"/>
<path d="M117.392 82.7393H107.774V83.7266H117.392V82.7393Z" fill="#38EB80"/>
<path d="M119.277 84.4258H107.774V85.4131H119.277V84.4258Z" fill="#38EB80"/>
<path d="M117.078 86.1104H107.774V87.0977H117.078V86.1104Z" fill="#38EB80"/>
<path d="M121.295 87.7974H107.774V88.7847H121.295V87.7974Z" fill="#38EB80"/>
<path d="M123.402 89.7275H111.899V90.7149H123.402V89.7275Z" fill="#38EB80"/>
<path d="M121.295 91.6597H107.774V92.647H121.295V91.6597Z" fill="#38EB80"/>
<g opacity="0.2">
<path opacity="0.2" d="M120.357 72.2832H107.774V73.2706H120.357V72.2832Z" fill="white"/>
<path opacity="0.2" d="M117.391 73.9702H107.773V74.9576H117.391V73.9702Z" fill="white"/>
<path opacity="0.2" d="M119.276 75.6548H107.773V76.6421H119.276V75.6548Z" fill="white"/>
<path opacity="0.2" d="M117.077 77.3418H107.773V78.3292H117.077V77.3418Z" fill="white"/>
<path opacity="0.2" d="M121.293 79.0264H110.776V80.0137H121.293V79.0264Z" fill="white"/>
<path opacity="0.2" d="M120.355 81.0547H110.776V82.042H120.355V81.0547Z" fill="white"/>
<path opacity="0.2" d="M117.391 82.7388H107.773V83.7261H117.391V82.7388Z" fill="white"/>
<path opacity="0.2" d="M119.276 84.4258H107.773V85.4131H119.276V84.4258Z" fill="white"/>
<path opacity="0.2" d="M117.077 86.1104H107.773V87.0977H117.077V86.1104Z" fill="white"/>
<path opacity="0.2" d="M121.294 87.7974H107.773V88.7847H121.294V87.7974Z" fill="white"/>
<path opacity="0.2" d="M123.401 89.7275H111.898V90.7149H123.401V89.7275Z" fill="white"/>
<path opacity="0.2" d="M121.294 91.6592H107.773V92.6465H121.294V91.6592Z" fill="white"/>
</g>
<path d="M127.258 69.4922H126.685V95.0162H127.258V69.4922Z" fill="#5C687E"/>
<path opacity="0.2" d="M127.258 69.4922H126.685V95.0162H127.258V69.4922Z" fill="#23213D"/>
<path d="M120.011 103.002H99.6748V103.962H120.011V103.002Z" fill="#5C687E"/>
<path d="M164.264 103.618H156.962L150.73 78.6084H158.032L164.264 103.618Z" fill="#5C687E"/>
<path opacity="0.6" d="M164.264 103.618H156.962L150.73 78.6084H158.032L164.264 103.618Z" fill="#23213D"/>
<path d="M163.758 103.618H156.456L150.225 78.6084H157.526L163.758 103.618Z" fill="#5C687E"/>
<path opacity="0.6" d="M162.449 96.3384H154.63L154.302 95.0205H162.121L162.449 96.3384Z" fill="#23213D"/>
<path d="M177.183 69.4985H135.578V95.0162H177.183V69.4985Z" fill="#5C687E"/>
<path d="M175.727 70.6758H137.034V93.8391H175.727V70.6758Z" fill="#2B3048"/>
<path d="M151.949 72.2832H139.366V73.2706H151.949V72.2832Z" fill="#38EB80"/>
<path d="M148.983 73.9702H139.366V74.9576H148.983V73.9702Z" fill="#38EB80"/>
<path d="M150.869 75.6548H139.366V76.6421H150.869V75.6548Z" fill="#38EB80"/>
<path d="M148.67 77.3418H139.366V78.3292H148.67V77.3418Z" fill="#38EB80"/>
<path d="M152.887 79.0264H142.371V80.0137H152.887V79.0264Z" fill="#38EB80"/>
<path d="M151.95 81.0547H142.371V82.042H151.95V81.0547Z" fill="#38EB80"/>
<path d="M148.983 82.7393H139.366V83.7266H148.983V82.7393Z" fill="#38EB80"/>
<path d="M150.869 84.4258H139.366V85.4131H150.869V84.4258Z" fill="#38EB80"/>
<path d="M148.67 86.1104H139.366V87.0977H148.67V86.1104Z" fill="#38EB80"/>
<path d="M152.887 87.7974H139.366V88.7847H152.887V87.7974Z" fill="#38EB80"/>
<path d="M154.994 89.7275H143.491V90.7149H154.994V89.7275Z" fill="#38EB80"/>
<path d="M152.887 91.6597H139.366V92.647H152.887V91.6597Z" fill="#38EB80"/>
<g opacity="0.2">
<path opacity="0.2" d="M151.949 72.2832H139.366V73.2706H151.949V72.2832Z" fill="#23213D"/>
<path opacity="0.2" d="M148.983 73.9702H139.366V74.9576H148.983V73.9702Z" fill="#23213D"/>
<path opacity="0.2" d="M150.869 75.6548H139.366V76.6421H150.869V75.6548Z" fill="#23213D"/>
<path opacity="0.2" d="M148.67 77.3418H139.366V78.3292H148.67V77.3418Z" fill="#23213D"/>
<path opacity="0.2" d="M152.888 79.0264H142.372V80.0137H152.888V79.0264Z" fill="#23213D"/>
<path opacity="0.2" d="M151.951 81.0547H142.372V82.042H151.951V81.0547Z" fill="#23213D"/>
<path opacity="0.2" d="M148.983 82.7388H139.366V83.7261H148.983V82.7388Z" fill="#23213D"/>
<path opacity="0.2" d="M150.869 84.4258H139.366V85.4131H150.869V84.4258Z" fill="#23213D"/>
<path opacity="0.2" d="M148.67 86.1104H139.366V87.0977H148.67V86.1104Z" fill="#23213D"/>
<path opacity="0.2" d="M152.887 87.7974H139.366V88.7847H152.887V87.7974Z" fill="#23213D"/>
<path opacity="0.2" d="M154.995 89.7275H143.492V90.7149H154.995V89.7275Z" fill="#23213D"/>
<path opacity="0.2" d="M152.887 91.6592H139.366V92.6465H152.887V91.6592Z" fill="#23213D"/>
</g>
<path d="M170.851 72.2832H158.269V73.2706H170.851V72.2832Z" fill="#38EB80"/>
<path d="M167.886 73.9702H158.269V74.9576H167.886V73.9702Z" fill="#38EB80"/>
<path d="M169.771 75.6548H158.269V76.6421H169.771V75.6548Z" fill="#38EB80"/>
<path d="M167.573 77.3418H158.269V78.3292H167.573V77.3418Z" fill="#38EB80"/>
<path d="M171.788 79.0264H161.271V80.0137H171.788V79.0264Z" fill="#38EB80"/>
<path d="M170.85 81.0547H161.271V82.042H170.85V81.0547Z" fill="#38EB80"/>
<path d="M167.886 82.7393H158.269V83.7266H167.886V82.7393Z" fill="#38EB80"/>
<path d="M169.771 84.4258H158.269V85.4131H169.771V84.4258Z" fill="#38EB80"/>
<path d="M167.573 86.1104H158.269V87.0977H167.573V86.1104Z" fill="#38EB80"/>
<path d="M171.789 87.7974H158.269V88.7847H171.789V87.7974Z" fill="#38EB80"/>
<path d="M173.896 89.7275H162.394V90.7149H173.896V89.7275Z" fill="#38EB80"/>
<path d="M171.789 91.6597H158.269V92.647H171.789V91.6597Z" fill="#38EB80"/>
<g opacity="0.2">
<path opacity="0.2" d="M170.851 72.2832H158.269V73.2706H170.851V72.2832Z" fill="white"/>
<path opacity="0.2" d="M167.886 73.9702H158.269V74.9576H167.886V73.9702Z" fill="white"/>
<path opacity="0.2" d="M169.771 75.6548H158.269V76.6421H169.771V75.6548Z" fill="white"/>
<path opacity="0.2" d="M167.573 77.3418H158.269V78.3292H167.573V77.3418Z" fill="white"/>
<path opacity="0.2" d="M171.789 79.0264H161.272V80.0137H171.789V79.0264Z" fill="white"/>
<path opacity="0.2" d="M170.851 81.0547H161.272V82.042H170.851V81.0547Z" fill="white"/>
<path opacity="0.2" d="M167.886 82.7388H158.269V83.7261H167.886V82.7388Z" fill="white"/>
<path opacity="0.2" d="M169.771 84.4258H158.269V85.4131H169.771V84.4258Z" fill="white"/>
<path opacity="0.2" d="M167.573 86.1104H158.269V87.0977H167.573V86.1104Z" fill="white"/>
<path opacity="0.2" d="M171.789 87.7974H158.269V88.7847H171.789V87.7974Z" fill="white"/>
<path opacity="0.2" d="M173.897 89.7275H162.395V90.7149H173.897V89.7275Z" fill="white"/>
<path opacity="0.2" d="M171.789 91.6592H158.269V92.6465H171.789V91.6592Z" fill="white"/>
</g>
<path d="M177.752 69.4922H177.179V95.0162H177.752V69.4922Z" fill="#5C687E"/>
<path opacity="0.2" d="M177.752 69.4922H177.179V95.0162H177.752V69.4922Z" fill="#23213D"/>
<path d="M170.505 103.002H150.169V103.962H170.505V103.002Z" fill="#5C687E"/>
<g opacity="0.15">
<g opacity="0.15">
<g opacity="0.15">
<path opacity="0.15" d="M107.772 87.4116H108.358L107.731 88.6463L107.772 87.4116Z" fill="#23213D"/>
</g>
</g>
</g>
<path d="M83.8984 11.3578C83.9012 8.56225 84.9322 5.86568 86.7949 3.78286C88.6578 1.70003 91.2217 0.376814 93.9971 0.0661073V0H95.2435C98.2258 0.040731 101.072 1.25541 103.166 3.38067C105.261 5.50593 106.435 8.37139 106.435 11.3567C106.435 14.342 105.261 17.2072 103.166 19.3325C101.072 21.458 98.2258 22.6724 95.2435 22.7134H93.9971V22.6473C91.2219 22.3368 88.658 21.0142 86.7951 18.9316C84.9324 16.8492 83.9012 14.1528 83.8984 11.3578Z" fill="#5C687E"/>
<path d="M93.9964 22.7131C96.2403 22.7131 98.4336 22.0471 100.299 20.7994C102.165 19.5517 103.619 17.778 104.478 15.7031C105.337 13.6282 105.561 11.3449 105.123 9.14223C104.686 6.93935 103.605 4.91602 102.018 3.32794C100.432 1.73986 98.4104 0.658246 96.2096 0.220228C94.009 -0.218003 91.7278 0.00676338 89.6548 0.866379C87.5818 1.72578 85.8099 3.18122 84.5633 5.04866C83.3167 6.9161 82.6514 9.11152 82.6514 11.3575C82.6514 14.3692 83.8466 17.2575 85.9741 19.3872C88.1019 21.5168 90.9875 22.7131 93.9964 22.7131Z" fill="#2B3048"/>
<path d="M93.9971 21.472C95.9951 21.4725 97.9484 20.8798 99.6098 19.769C101.271 18.6582 102.566 17.0793 103.331 15.2317C104.096 13.3843 104.296 11.3513 103.906 9.38986C103.517 7.42838 102.554 5.62684 101.142 4.21277C99.7289 2.7987 97.929 1.83565 95.9694 1.44562C94.0099 1.05558 91.9787 1.25604 90.133 2.0214C88.2871 2.78697 86.7097 4.08311 85.5999 5.74604C84.4903 7.40898 83.898 9.36406 83.8984 11.3639C83.8984 14.0447 84.9624 16.6157 86.8565 18.5115C88.7503 20.4071 91.3188 21.472 93.9971 21.472Z" fill="white"/>
<path d="M93.9971 21.472C95.9951 21.4725 97.9484 20.8798 99.6098 19.769C101.271 18.6582 102.566 17.0793 103.331 15.2317C104.096 13.3843 104.296 11.3513 103.906 9.38986C103.517 7.42838 102.554 5.62684 101.142 4.21277C99.7289 2.7987 97.929 1.83565 95.9694 1.44562C94.0099 1.05558 91.9787 1.25604 90.133 2.0214C88.2871 2.78697 86.7097 4.08311 85.5999 5.74604C84.4903 7.40898 83.898 9.36406 83.8984 11.3639C83.8984 14.0447 84.9624 16.6157 86.8565 18.5115C88.7503 20.4071 91.3188 21.472 93.9971 21.472Z" fill="#2B3048"/>
<path d="M93.9971 21.472C95.9951 21.4725 97.9484 20.8798 99.6098 19.769C101.271 18.6582 102.566 17.0793 103.331 15.2317C104.096 13.3843 104.296 11.3513 103.906 9.38986C103.517 7.42838 102.554 5.62684 101.142 4.21277C99.7289 2.7987 97.929 1.83565 95.9694 1.44562C94.0099 1.05558 91.9787 1.25604 90.133 2.0214C88.2871 2.78697 86.7097 4.08311 85.5999 5.74604C84.4903 7.40898 83.898 9.36406 83.8984 11.3639C83.8984 14.0447 84.9624 16.6157 86.8565 18.5115C88.7503 20.4071 91.3188 21.472 93.9971 21.472Z" fill="#F4F4F4"/>
<path d="M93.9972 1.24754C94.1791 1.2437 94.3615 1.25138 94.5426 1.27099C91.9647 1.41131 89.5386 2.53536 87.7633 4.41154C85.9881 6.28773 84.9987 8.7736 84.9987 11.3578C84.9987 13.9417 85.9881 16.4276 87.7633 18.304C89.5386 20.1802 91.9647 21.304 94.5426 21.4446C94.3679 21.4446 94.1932 21.4659 93.9972 21.4659C91.3438 21.4273 88.8124 20.3452 86.9499 18.4535C85.0871 16.562 84.043 14.0125 84.043 11.3567C84.043 8.70067 85.0871 6.15146 86.9499 4.25971C88.8124 2.36817 91.3438 1.28614 93.9972 1.24754Z" fill="#5C687E"/>
<path d="M93.9099 12.1446L97.2549 5.47842C97.2902 5.41615 97.3126 5.34727 97.3203 5.27604C97.3282 5.20482 97.3213 5.13295 97.3003 5.06449C97.2792 4.99604 97.2442 4.93249 97.1978 4.87811C97.1513 4.82374 97.0942 4.77938 97.0299 4.74782C96.9658 4.71626 96.8957 4.69834 96.8241 4.69493C96.7527 4.69152 96.6813 4.70282 96.6142 4.7282C96.5473 4.75336 96.4864 4.79217 96.4348 4.84207C96.3835 4.89176 96.3428 4.95169 96.3153 5.01779L93.4284 10.7457L89.5807 8.86271C89.4561 8.80194 89.3125 8.79319 89.1815 8.8384C89.0504 8.88361 88.9426 8.97893 88.8819 9.10369C88.8212 9.22844 88.8125 9.37217 88.8576 9.50332C88.9028 9.63447 88.998 9.74237 89.1227 9.80315L93.9099 12.1446Z" fill="#38EB80"/>
<path opacity="0.4" d="M85.3413 16.5673C84.4204 15.0334 83.9228 13.2822 83.8993 11.4928C83.8757 9.70343 84.3271 7.93984 85.2075 6.38204C86.0876 4.82445 87.3652 3.52852 88.9097 2.62668C90.4539 1.72506 92.2099 1.24972 93.9976 1.24951C94.2809 1.24951 94.543 1.27297 94.8285 1.29429L85.3413 16.5673Z" fill="white"/>
<path opacity="0.4" d="M96.3357 1.5332C96.8223 1.64303 97.2979 1.79657 97.7568 1.99169L87.3172 18.9494C86.9058 18.5888 86.5259 18.1934 86.1816 17.768L96.3357 1.5332Z" fill="white"/>
<path d="M122.034 11.3578C122.037 8.56225 123.068 5.86568 124.931 3.78286C126.794 1.70003 129.357 0.376814 132.133 0.0661073V0H133.379C136.362 0.040731 139.208 1.25541 141.302 3.38067C143.397 5.50593 144.571 8.37139 144.571 11.3567C144.571 14.342 143.397 17.2072 141.302 19.3325C139.208 21.458 136.362 22.6724 133.379 22.7134H132.133V22.6473C129.358 22.3368 126.794 21.0142 124.931 18.9316C123.068 16.8492 122.037 14.1528 122.034 11.3578Z" fill="#5C687E"/>
<path d="M132.133 22.7131C134.377 22.7131 136.57 22.0471 138.436 20.7994C140.302 19.5517 141.756 17.778 142.614 15.7031C143.473 13.6282 143.698 11.3449 143.26 9.14223C142.822 6.93935 141.742 4.91602 140.155 3.32794C138.569 1.73986 136.547 0.658246 134.346 0.220228C132.146 -0.218003 129.865 0.00676338 127.792 0.866379C125.719 1.72578 123.947 3.18122 122.7 5.04866C121.453 6.9161 120.788 9.11152 120.788 11.3575C120.788 14.3692 121.983 17.2575 124.111 19.3872C126.239 21.5168 129.124 22.7131 132.133 22.7131Z" fill="#2B3048"/>
<path d="M132.133 21.472C134.131 21.4725 136.084 20.8798 137.746 19.769C139.407 18.6582 140.702 17.0793 141.467 15.2317C142.231 13.3843 142.432 11.3513 142.042 9.38986C141.652 7.42838 140.69 5.62684 139.277 4.21277C137.865 2.7987 136.065 1.83565 134.105 1.44562C132.146 1.05558 130.114 1.25604 128.269 2.0214C126.423 2.78697 124.845 4.08311 123.736 5.74604C122.626 7.40898 122.034 9.36406 122.034 11.3639C122.034 14.0447 123.098 16.6157 124.992 18.5115C126.886 20.4071 129.455 21.472 132.133 21.472Z" fill="white"/>
<path d="M132.133 21.472C134.131 21.4725 136.084 20.8798 137.746 19.769C139.407 18.6582 140.702 17.0793 141.467 15.2317C142.231 13.3843 142.432 11.3513 142.042 9.38986C141.652 7.42838 140.69 5.62684 139.277 4.21277C137.865 2.7987 136.065 1.83565 134.105 1.44562C132.146 1.05558 130.114 1.25604 128.269 2.0214C126.423 2.78697 124.845 4.08311 123.736 5.74604C122.626 7.40898 122.034 9.36406 122.034 11.3639C122.034 14.0447 123.098 16.6157 124.992 18.5115C126.886 20.4071 129.455 21.472 132.133 21.472Z" fill="#2B3048"/>
<path d="M132.133 21.472C134.13 21.472 136.083 20.8792 137.743 19.7686C139.404 18.658 140.699 17.0793 141.463 15.2321C142.227 13.3851 142.427 11.3528 142.038 9.39198C141.648 7.43114 140.686 5.63002 139.274 4.21638C137.861 2.80274 136.062 1.84012 134.103 1.45008C132.144 1.06005 130.114 1.26029 128.268 2.02523C126.423 2.79037 124.846 4.08587 123.736 5.74817C122.626 7.41046 122.034 9.36469 122.034 11.3639C122.034 14.0449 123.098 16.6159 124.992 18.5115C126.886 20.407 129.455 21.472 132.133 21.472Z" fill="#F4F4F4"/>
<path d="M132.133 1.24754C132.315 1.2437 132.497 1.25138 132.678 1.27099C130.1 1.41131 127.674 2.53536 125.899 4.41154C124.124 6.28773 123.134 8.7736 123.134 11.3578C123.134 13.9417 124.124 16.4276 125.899 18.304C127.674 20.1802 130.1 21.304 132.678 21.4446C132.504 21.4446 132.329 21.4659 132.133 21.4659C129.48 21.4273 126.948 20.3452 125.086 18.4535C123.223 16.562 122.179 14.0125 122.179 11.3567C122.179 8.70067 123.223 6.15146 125.086 4.25971C126.948 2.36817 129.48 1.28614 132.133 1.24754Z" fill="#5C687E"/>
<path d="M131.682 12.0571L127.847 8.66423C127.748 8.56912 127.69 8.43925 127.684 8.30213C127.678 8.1648 127.726 8.03066 127.816 7.92744C127.907 7.82444 128.034 7.76026 128.171 7.74853C128.307 7.7368 128.444 7.77839 128.55 7.86454L131.959 10.8692L138.283 9.03316C138.418 8.99349 138.564 9.00948 138.688 9.07751C138.812 9.14554 138.904 9.25984 138.943 9.39568C138.983 9.53131 138.967 9.67717 138.899 9.80129C138.831 9.92518 138.717 10.0171 138.581 10.0568L131.682 12.0571Z" fill="#38EB80"/>
<path opacity="0.4" d="M123.477 16.5673C122.556 15.0334 122.058 13.2822 122.035 11.4928C122.011 9.70343 122.463 7.93984 123.343 6.38204C124.223 4.82445 125.501 3.52852 127.045 2.62668C128.59 1.72506 130.346 1.24972 132.133 1.24951C132.417 1.24951 132.679 1.27297 132.964 1.29429L123.477 16.5673Z" fill="white"/>
<path opacity="0.4" d="M134.471 1.5332C134.958 1.64303 135.434 1.79657 135.893 1.99169L125.453 18.9494C125.042 18.5888 124.662 18.1934 124.317 17.768L134.471 1.5332Z" fill="white"/>
<path d="M160.171 11.3578C160.174 8.56225 161.205 5.86568 163.067 3.78286C164.93 1.70003 167.494 0.376814 170.27 0.0661073V0H171.516C174.498 0.040731 177.345 1.25541 179.439 3.38067C181.533 5.50593 182.707 8.37139 182.707 11.3567C182.707 14.342 181.533 17.2072 179.439 19.3325C177.345 21.458 174.498 22.6724 171.516 22.7134H170.27V22.6473C167.494 22.3368 164.93 21.0142 163.068 18.9316C161.205 16.8492 160.174 14.1528 160.171 11.3578Z" fill="#5C687E"/>
<path d="M170.269 22.7131C172.513 22.7131 174.706 22.0471 176.572 20.7994C178.438 19.5517 179.892 17.778 180.751 15.7031C181.61 13.6282 181.833 11.3449 181.397 9.14223C180.958 6.93935 179.878 4.91602 178.291 3.32794C176.704 1.73986 174.683 0.658246 172.482 0.220228C170.281 -0.218003 168 0.00676338 165.927 0.866379C163.854 1.72578 162.082 3.18122 160.836 5.04866C159.589 6.9161 158.924 9.11152 158.924 11.3575C158.924 14.3692 160.119 17.2575 162.247 19.3872C164.374 21.5168 167.26 22.7131 170.269 22.7131Z" fill="#2B3048"/>
<path d="M170.27 21.472C172.268 21.4725 174.221 20.8798 175.882 19.769C177.544 18.6582 178.838 17.0793 179.603 15.2317C180.368 13.3843 180.568 11.3513 180.178 9.38986C179.789 7.42838 178.828 5.62684 177.414 4.21277C176.001 2.7987 174.201 1.83565 172.242 1.44562C170.282 1.05558 168.251 1.25604 166.405 2.0214C164.56 2.78697 162.982 4.08311 161.872 5.74604C160.763 7.40898 160.17 9.36406 160.171 11.3639C160.171 14.0447 161.235 16.6157 163.129 18.5115C165.023 20.4071 167.591 21.472 170.27 21.472Z" fill="white"/>
<path d="M170.27 21.472C172.268 21.4725 174.221 20.8798 175.882 19.769C177.544 18.6582 178.838 17.0793 179.603 15.2317C180.368 13.3843 180.568 11.3513 180.178 9.38986C179.789 7.42838 178.828 5.62684 177.414 4.21277C176.001 2.7987 174.201 1.83565 172.242 1.44562C170.282 1.05558 168.251 1.25604 166.405 2.0214C164.56 2.78697 162.982 4.08311 161.872 5.74604C160.763 7.40898 160.17 9.36406 160.171 11.3639C160.171 14.0447 161.235 16.6157 163.129 18.5115C165.023 20.4071 167.591 21.472 170.27 21.472Z" fill="#2B3048"/>
<path d="M170.27 21.472C172.267 21.472 174.22 20.8792 175.88 19.7686C177.541 18.658 178.836 17.0793 179.599 15.2321C180.364 13.3851 180.564 11.3528 180.174 9.39198C179.784 7.43114 178.823 5.63002 177.41 4.21638C175.998 2.80274 174.199 1.84012 172.24 1.45008C170.281 1.06005 168.25 1.26029 166.405 2.02523C164.56 2.79037 162.983 4.08587 161.873 5.74817C160.763 7.41046 160.171 9.36469 160.171 11.3639C160.171 14.0449 161.235 16.6159 163.129 18.5115C165.023 20.407 167.591 21.472 170.27 21.472Z" fill="#F4F4F4"/>
<path d="M170.27 1.24754C170.452 1.2437 170.634 1.25138 170.815 1.27099C168.237 1.41131 165.811 2.53536 164.036 4.41154C162.261 6.28773 161.271 8.7736 161.271 11.3578C161.271 13.9417 162.261 16.4276 164.036 18.304C165.811 20.1802 168.237 21.304 170.815 21.4446C170.64 21.4446 170.466 21.4659 170.27 21.4659C167.616 21.4273 165.085 20.3452 163.222 18.4535C161.36 16.562 160.315 14.0125 160.315 11.3567C160.315 8.70067 161.36 6.15146 163.222 4.25971C165.085 2.36817 167.616 1.28614 170.27 1.24754Z" fill="#5C687E"/>
<path d="M175.299 15.6222C175.185 15.6227 175.073 15.5851 174.982 15.5156L169.76 11.6238V6.23918C169.76 6.0978 169.816 5.96217 169.916 5.86237C170.016 5.76235 170.151 5.70605 170.292 5.70605C170.434 5.70605 170.569 5.76235 170.669 5.86237C170.769 5.96217 170.825 6.0978 170.825 6.23918V11.0885L175.617 14.6605C175.707 14.7272 175.774 14.8208 175.808 14.9279C175.842 15.0347 175.841 15.1499 175.806 15.2565C175.771 15.3629 175.703 15.4557 175.612 15.5214C175.521 15.5873 175.411 15.6224 175.299 15.6222Z" fill="#38EB80"/>
<path opacity="0.4" d="M161.614 16.5673C160.693 15.0334 160.195 13.2822 160.172 11.4928C160.148 9.70343 160.6 7.93984 161.48 6.38204C162.36 4.82445 163.638 3.52852 165.182 2.62668C166.726 1.72506 168.482 1.24972 170.27 1.24951C170.553 1.24951 170.815 1.27297 171.101 1.29429L161.614 16.5673Z" fill="white"/>
<path opacity="0.4" d="M172.61 1.5332C173.097 1.64303 173.572 1.79657 174.031 1.99169L163.592 18.9494C163.18 18.5888 162.8 18.1934 162.456 17.768L172.61 1.5332Z" fill="white"/>
<path d="M90.1433 159.35L95.5974 130.789C95.7039 130.073 95.3652 129.616 96.0896 129.616H108.061C108.428 129.629 108.78 129.767 109.059 130.007C109.338 130.247 109.527 130.575 109.595 130.936L113.779 159.512H115.318L111.37 130.783C111.189 129.563 109.593 128.571 108.361 128.571H95.7913C95.1758 128.589 94.5854 128.819 94.1197 129.221C93.654 129.624 93.3412 130.176 93.2347 130.783L87.625 159.358L90.1433 159.35Z" fill="#2B3048"/>
<g opacity="0.5">
<g opacity="0.5">
<g opacity="0.5">
<path opacity="0.5" d="M94.1082 129.226H96.8778V129.612H96.0895C95.3907 129.612 95.6826 130.038 95.608 130.714H93.2432C93.3561 130.135 93.6607 129.61 94.1082 129.226Z" fill="#23213D"/>
</g>
</g>
</g>
<path d="M90.1435 159.35H89.2061L94.7774 130.473C94.8914 129.971 95.1685 129.52 95.5657 129.192C95.9626 128.863 96.4571 128.676 96.9718 128.659H109.836C110.349 128.673 110.842 128.864 111.23 129.2C111.618 129.537 111.878 129.997 111.966 130.503L116.227 159.505H115.316L111.118 130.629C111.063 130.327 110.906 130.053 110.673 129.852C110.441 129.652 110.147 129.537 109.84 129.527H96.9825C96.6682 129.54 96.367 129.655 96.1245 129.855C95.8818 130.055 95.711 130.33 95.6381 130.636L90.1435 159.35Z" fill="#2B3048"/>
<g opacity="0.5">
<g opacity="0.5">
<path opacity="0.5" d="M90.1435 159.35H89.2061L94.7774 130.473C94.8914 129.971 95.1685 129.52 95.5657 129.192C95.9626 128.863 96.4571 128.676 96.9718 128.659H109.836C110.349 128.673 110.842 128.864 111.23 129.2C111.618 129.537 111.878 129.997 111.966 130.503L116.227 159.505H115.316L111.118 130.629C111.063 130.327 110.906 130.053 110.673 129.852C110.441 129.652 110.147 129.537 109.84 129.527H96.9825C96.6682 129.54 96.367 129.655 96.1245 129.855C95.8818 130.055 95.711 130.33 95.6381 130.636L90.1435 159.35Z" fill="#23213D"/>
</g>
</g>
<path d="M91.7364 129.488C89.3672 129.33 91.2082 124.009 90.8524 121.879L90.7819 121.452L91.6341 121.31L91.7046 121.736C92.2309 124.896 90.6564 128.62 91.7323 128.62C92.2351 128.62 92.9657 128.596 93.9777 128.564C96.6323 128.479 101.074 128.336 109.072 128.336H109.499V129.204H109.072C101.087 129.204 96.6536 129.345 94.0054 129.43C92.987 129.464 92.252 129.488 91.7364 129.488Z" fill="#2B3048"/>
<path d="M110.018 129.204H92.5672C91.1824 129.204 91.2039 128.039 91.5725 125.988C91.8509 124.583 91.8891 123.141 91.6852 121.723L92.5374 121.58C93.0508 124.674 91.4721 128.327 92.5651 128.327H110.016V129.197L110.018 129.204Z" fill="#5C687E"/>
<path opacity="0.6" d="M131.238 130.144C129.84 130.968 128.248 131.405 126.625 131.411H103.573C98.4407 131.411 92.9376 131.038 92.1173 128.954C91.2971 126.871 127.352 127.624 127.352 127.624C127.352 127.624 130.194 128.133 130.492 128.357C130.791 128.581 131.238 130.144 131.238 130.144Z" fill="#23213D"/>
<path d="M92.1217 121.211L89.0601 98.8434C89.0026 98.4553 87.0809 98.2933 87.1554 97.9478C87.4324 96.7067 88.6148 94.749 91.7126 94.749H107.329C108.232 94.7744 109.097 95.1105 109.781 95.7005C110.464 96.2908 110.924 97.0988 111.081 97.9883C111.081 97.9883 114.407 119.994 114.277 120.478C114.147 120.962 113.706 121.971 112.89 121.971C112.074 121.971 92.2516 122.118 92.2516 122.118L92.1217 121.211Z" fill="#2B3048"/>
<path d="M111.607 129.398H93.2101C92.7959 129.398 92.3988 129.234 92.1059 128.941C91.8131 128.647 91.6484 128.25 91.6484 127.835C91.6484 127.421 91.8131 127.023 92.1059 126.73C92.3988 126.437 92.7959 126.272 93.2101 126.272H111.607C112.021 126.272 112.419 126.437 112.711 126.73C113.004 127.023 113.169 127.421 113.169 127.835C113.169 128.25 113.004 128.647 112.711 128.941C112.419 129.234 112.021 129.398 111.607 129.398Z" fill="#2B3048"/>
<path d="M132.429 131.759C132.115 131.756 131.813 131.64 131.578 131.432C131.343 131.224 131.191 130.938 131.15 130.627C131.122 130.503 130.758 129.134 127.741 129.134H111.82C111.484 129.139 111.159 129.016 110.91 128.79C110.661 128.565 110.507 128.254 110.478 127.919C110.465 127.741 110.49 127.562 110.55 127.394C110.609 127.226 110.703 127.071 110.825 126.941C110.946 126.811 111.093 126.707 111.257 126.636C111.42 126.565 111.597 126.528 111.775 126.528H127.754C132.552 126.528 133.72 129.409 133.743 130.416C133.752 130.755 133.629 131.084 133.4 131.334C133.171 131.583 132.854 131.734 132.516 131.753L132.429 131.759ZM131.127 130.454C131.126 130.511 131.13 130.568 131.14 130.625C131.14 130.601 131.14 130.578 131.14 130.555C131.14 130.531 131.127 130.486 131.127 130.454Z" fill="#2B3048"/>
<path opacity="0.1" d="M132.429 131.759C132.115 131.756 131.813 131.64 131.578 131.432C131.343 131.224 131.191 130.938 131.15 130.627C131.122 130.503 130.758 129.134 127.741 129.134H111.82C111.484 129.139 111.159 129.016 110.91 128.79C110.661 128.565 110.507 128.254 110.478 127.919C110.465 127.741 110.49 127.562 110.55 127.394C110.609 127.226 110.703 127.071 110.825 126.941C110.946 126.811 111.093 126.707 111.257 126.636C111.42 126.565 111.597 126.528 111.775 126.528H127.754C132.552 126.528 133.72 129.409 133.743 130.416C133.752 130.755 133.629 131.084 133.4 131.334C133.171 131.583 132.854 131.734 132.516 131.753L132.429 131.759ZM131.127 130.454C131.126 130.511 131.13 130.568 131.14 130.625C131.14 130.601 131.14 130.578 131.14 130.555C131.14 130.531 131.127 130.486 131.127 130.454Z" fill="white"/>
<path d="M129.885 129.205H112.57C112.435 129.202 112.301 129.172 112.177 129.117C112.053 129.061 111.942 128.981 111.85 128.882C111.757 128.782 111.686 128.665 111.64 128.538C111.594 128.41 111.574 128.274 111.582 128.139C111.603 126.266 112.276 125.285 111.667 121.628L111.422 121.445L112.434 121.302L112.504 121.728C113.109 125.364 111.611 128.339 112.566 128.339H129.885V129.205Z" fill="#2B3048"/>
<path d="M130.395 129.345H113.189C111.059 129.345 113.029 125.586 112.286 121.747L113.162 121.587C113.688 124.752 112.405 128.478 113.477 128.478H130.395V129.345Z" fill="#5C687E"/>
<path d="M134.33 159.35L130.154 129.633C130.102 129.331 129.947 129.055 129.716 128.853C129.486 128.652 129.192 128.535 128.886 128.524H116.022C115.715 128.534 115.421 128.648 115.189 128.848C114.956 129.049 114.799 129.322 114.744 129.625L110.578 159.341H109.647L113.887 129.503C113.973 128.995 114.232 128.533 114.621 128.196C115.01 127.859 115.503 127.668 116.018 127.656H128.886C129.4 127.668 129.894 127.859 130.283 128.196C130.672 128.533 130.931 128.995 131.017 129.503L135.256 159.35H134.33Z" fill="#2B3048"/>
<path d="M110.565 159.514L114.637 129.804C114.743 129.085 114.404 128.366 115.129 128.366L127.1 128.629C127.468 128.642 127.82 128.78 128.099 129.021C128.377 129.261 128.566 129.589 128.634 129.951L132.797 159.356H134.327L130.407 129.797C130.226 128.578 128.585 127.631 127.352 127.631L114.831 127.586C114.215 127.604 113.625 127.834 113.159 128.237C112.694 128.639 112.381 129.191 112.274 129.797L108.058 159.52L110.565 159.514Z" fill="#2B3048"/>
<g opacity="0.5">
<g opacity="0.5">
<path opacity="0.5" d="M134.33 159.35L130.154 129.633C130.102 129.331 129.947 129.055 129.717 128.853C129.486 128.652 129.193 128.535 128.886 128.524H116.022C115.715 128.534 115.421 128.648 115.189 128.848C114.956 129.049 114.799 129.322 114.744 129.625L110.555 159.505H109.622L113.883 129.503C113.969 128.995 114.228 128.533 114.617 128.196C115.005 127.859 115.499 127.668 116.014 127.656H128.876C129.39 127.668 129.884 127.859 130.272 128.196C130.661 128.533 130.92 128.995 131.006 129.503L135.257 159.35H134.33Z" fill="#23213D"/>
</g>
</g>
<path d="M91.1182 121.21L88.0566 98.8439C87.9991 98.4558 86.6697 98.2938 86.7464 97.9483C87.0233 96.7072 89.4415 95.6025 90.8476 95.6025H106.464C107.367 95.6277 108.233 95.964 108.917 96.5545C109.6 97.1452 110.059 97.9538 110.216 98.8439L113.229 121.896L112.336 122.11H91.2545L91.1182 121.21Z" fill="#5C687E"/>
<path d="M90.8503 95.6025H106.467C107.07 95.6175 107.662 95.7723 108.196 96.0551C108.729 96.3376 109.19 96.7407 109.541 97.2318C109.463 97.2058 109.394 97.1576 109.343 97.0932C108.898 96.5963 108.491 97.6369 108.491 98.0357C108.491 98.3492 94.4402 99.6863 88.251 100.207L88.0508 98.8439C87.9933 98.4558 86.6638 98.2938 86.7405 97.9483C87.0239 96.7072 89.4505 95.6025 90.8503 95.6025Z" fill="#5C687E"/>
<path d="M89.432 122.105L86.3704 99.7351C86.2971 99.3312 86.315 98.916 86.4229 98.52C86.5304 98.124 86.7254 97.7572 86.9934 97.4465C87.2612 97.1355 87.5951 96.8886 87.9705 96.7238C88.3461 96.5589 88.7536 96.4802 89.1636 96.4937H105.526C106.428 96.519 107.295 96.8555 107.978 97.446C108.662 98.0365 109.121 98.845 109.278 99.7351L112.339 122.101C112.339 122.101 107.48 123.342 99.7459 123.342C92.0121 123.342 89.432 122.105 89.432 122.105Z" fill="#2B3048"/>
<g opacity="0.5">
<g opacity="0.5">
<g opacity="0.5">
<path opacity="0.5" d="M112.38 129.345H92.3535L92.6603 129.667H112.302L112.38 129.345Z" fill="#23213D"/>
</g>
</g>
</g>
</svg>
