<svg width="217" height="166" viewBox="0 0 217 166" fill="none" xmlns="http://www.w3.org/2000/svg">
<path d="M205.623 86.0035C205.637 100.043 201.977 113.838 195.02 125.999C188.063 138.16 178.05 148.259 165.991 155.274C165.118 155.79 164.228 156.285 163.335 156.767L162.581 157.162C151.528 162.902 139.285 165.931 126.854 166H126.281C125.258 166 124.255 165.979 123.249 165.945C114.42 165.618 105.71 163.799 97.477 160.567C95.1614 159.649 92.8969 158.634 90.6869 157.52L90.6051 157.475C83.3035 153.758 76.6158 148.93 70.7738 143.156C69.1812 141.574 67.6465 139.924 66.1698 138.204C53.7479 123.698 46.9244 105.165 46.9483 86C46.9483 51.4195 68.7037 21.9663 99.1719 10.7971C102.016 9.75138 104.922 8.87414 107.868 8.16988C108.257 8.07359 108.649 7.98075 109.042 7.89478C114.703 6.63309 120.487 5.99794 126.288 6.00001C128.771 6.00001 131.226 6.11486 133.654 6.34388C134.043 6.37827 134.428 6.41955 134.817 6.46081C138.875 6.89685 142.893 7.64994 146.835 8.71322C180.687 17.8432 205.623 48.9883 205.623 86.0035Z" fill="#FFC9FB"/>
<path d="M115.789 115.488H96.1543L98.1433 91.0596H113.661L117.796 113.061C117.851 113.356 117.841 113.66 117.766 113.951C117.691 114.243 117.552 114.514 117.361 114.745C117.169 114.977 116.929 115.164 116.658 115.292C116.386 115.42 116.089 115.487 115.789 115.488Z" fill="#2B3048"/>
<path d="M151.109 35.4854H154.941C155.704 35.4854 156.435 35.7884 156.974 36.3282C157.512 36.8679 157.816 37.5998 157.816 38.363V104.873C157.816 105.601 157.526 106.3 157.013 106.816C156.498 107.331 155.801 107.621 155.073 107.622H148.238V38.363C148.238 37.6003 148.54 36.869 149.078 36.3295C149.618 35.7898 150.347 35.4862 151.109 35.4854Z" fill="#2B3048"/>
<path d="M46.6641 94.1924H156.285V104.841C156.285 105.579 155.992 106.287 155.472 106.809C154.95 107.331 154.244 107.624 153.506 107.624H49.4402C48.7036 107.623 47.9975 107.329 47.4769 106.807C46.9564 106.286 46.6641 105.578 46.6641 104.841V94.1924Z" fill="#23213D"/>
<path d="M49.5368 35.4854H153.409C154.172 35.4854 154.903 35.7884 155.442 36.3282C155.981 36.8679 156.284 37.5998 156.284 38.363V94.1924H46.6641V38.363C46.6641 37.6002 46.9666 36.8684 47.5053 36.3288C48.044 35.7891 48.7748 35.4857 49.5368 35.4854Z" fill="#23213D"/>
<path opacity="0.2" d="M101.472 103.274C102.777 103.274 103.835 102.214 103.835 100.908C103.835 99.6012 102.777 98.542 101.472 98.542C100.166 98.542 99.1084 99.6012 99.1084 100.908C99.1084 102.214 100.166 103.274 101.472 103.274Z" fill="white"/>
<path d="M115.83 115.908C115.677 115.909 115.524 115.897 115.373 115.873H85.1172V115.113H115.445H115.484C115.484 115.113 116.336 115.273 116.791 114.821C117.109 114.505 117.194 113.942 117.042 113.131L117.794 112.99C117.997 114.063 117.84 114.865 117.327 115.37C116.918 115.738 116.38 115.931 115.83 115.908Z" fill="#2B3048"/>
<path d="M106.358 115.104H85.1172V115.871H106.358V115.104Z" fill="#23213D"/>
<path d="M153.025 38.4258H49.918V91.2508H153.025V38.4258Z" fill="white"/>
<path d="M153.025 38.4258H49.918V42.3905H153.025V38.4258Z" fill="#23213D"/>
<path d="M54.6128 42.3906H49.918V91.2492H54.6128V42.3906Z" fill="#23213D"/>
<path d="M153.024 42.3906H134.817V91.2492H153.024V42.3906Z" fill="#B2B6BB"/>
<path opacity="0.6" d="M153.025 89.0771H49.918V91.2514H153.025V89.0771Z" fill="#23213D"/>
<path d="M149.977 44.8213H137.813C137.216 44.8213 136.732 45.3055 136.732 45.903V63.7565C136.732 64.3538 137.216 64.8382 137.813 64.8382H149.977C150.574 64.8382 151.058 64.3538 151.058 63.7565V45.903C151.058 45.3055 150.574 44.8213 149.977 44.8213Z" fill="#2B3048"/>
<path d="M149.977 66.3096H137.813C137.216 66.3096 136.732 66.7938 136.732 67.3913V72.7737C136.732 73.3713 137.216 73.8555 137.813 73.8555H149.977C150.574 73.8555 151.058 73.3713 151.058 72.7737V67.3913C151.058 66.7938 150.574 66.3096 149.977 66.3096Z" fill="#2B3048"/>
<path d="M149.977 75.2617H137.813C137.216 75.2617 136.732 75.7461 136.732 76.3435V87.9931C136.732 88.5906 137.216 89.0748 137.813 89.0748H149.977C150.574 89.0748 151.058 88.5906 151.058 87.9931V76.3435C151.058 75.7461 150.574 75.2617 149.977 75.2617Z" fill="#2B3048"/>
<path d="M66.5357 42.3906H54.6143V44.0528H66.5357V42.3906Z" fill="#2B3048"/>
<path d="M134.816 42.3906H66.5342V44.0528H134.816V42.3906Z" fill="#B2B6BB"/>
<path d="M149.003 47.8821H138.741C138.64 47.8821 138.542 47.8417 138.47 47.7697C138.399 47.698 138.358 47.6004 138.358 47.4987C138.358 47.397 138.399 47.2994 138.47 47.2275C138.542 47.1557 138.64 47.1152 138.741 47.1152H149.003C149.105 47.1152 149.201 47.1557 149.273 47.2275C149.345 47.2994 149.386 47.397 149.386 47.4987C149.386 47.6004 149.345 47.698 149.273 47.7697C149.201 47.8417 149.105 47.8821 149.003 47.8821Z" fill="#B2B6BB"/>
<path d="M149.004 51.3859H138.743C138.645 51.3793 138.554 51.3359 138.487 51.2645C138.421 51.1933 138.384 51.0991 138.384 51.0015C138.384 50.9039 138.421 50.8098 138.487 50.7386C138.554 50.6671 138.645 50.6239 138.743 50.6172H149.004C149.101 50.6239 149.192 50.6671 149.259 50.7386C149.326 50.8098 149.362 50.9039 149.362 51.0015C149.362 51.0991 149.326 51.1933 149.259 51.2645C149.192 51.3359 149.101 51.3793 149.004 51.3859Z" fill="#B2B6BB"/>
<path d="M149.478 70.4669H138.268C138.171 70.4602 138.079 70.4169 138.013 70.3455C137.946 70.2741 137.909 70.1801 137.909 70.0825C137.909 69.9847 137.946 69.8908 138.013 69.8194C138.079 69.7482 138.171 69.7047 138.268 69.6982H149.478C149.531 69.6945 149.584 69.7019 149.633 69.7197C149.682 69.7372 149.728 69.765 149.766 69.8011C149.805 69.8372 149.837 69.8806 149.858 69.9291C149.877 69.9775 149.889 70.0298 149.889 70.0825C149.889 70.1353 149.877 70.1875 149.858 70.2359C149.837 70.2843 149.805 70.3279 149.766 70.364C149.728 70.4 149.682 70.4276 149.633 70.4454C149.584 70.463 149.531 70.4704 149.478 70.4669Z" fill="#B2B6BB"/>
<path d="M147.557 54.973H138.741C138.64 54.973 138.542 54.9327 138.47 54.8607C138.399 54.7888 138.358 54.6914 138.358 54.5895C138.358 54.4878 138.399 54.3904 138.47 54.3184C138.542 54.2465 138.64 54.2061 138.741 54.2061H147.557C147.659 54.2061 147.755 54.2465 147.827 54.3184C147.899 54.3904 147.94 54.4878 147.94 54.5895C147.94 54.6914 147.899 54.7888 147.827 54.8607C147.755 54.9327 147.659 54.973 147.557 54.973Z" fill="#B2B6BB"/>
<path d="M147.557 58.1653H138.741C138.64 58.1653 138.542 58.1249 138.47 58.0529C138.399 57.9812 138.358 57.8836 138.358 57.7819C138.358 57.6802 138.399 57.5826 138.47 57.5107C138.542 57.4389 138.64 57.3984 138.741 57.3984H147.557C147.659 57.3984 147.755 57.4389 147.827 57.5107C147.899 57.5826 147.94 57.6802 147.94 57.7819C147.94 57.8836 147.899 57.9812 147.827 58.0529C147.755 58.1249 147.659 58.1653 147.557 58.1653Z" fill="#B2B6BB"/>
<path d="M139.895 63.3555C139.546 63.3555 139.204 63.2517 138.913 63.0571C138.623 62.8628 138.396 62.5865 138.262 62.2632C138.129 61.9397 138.094 61.584 138.162 61.2407C138.23 60.8975 138.398 60.5821 138.646 60.3346C138.893 60.0871 139.208 59.9186 139.551 59.8504C139.894 59.7821 140.249 59.8171 140.572 59.9512C140.895 60.085 141.171 60.3118 141.365 60.6029C141.559 60.8938 141.663 61.2359 141.663 61.586C141.663 62.0551 141.477 62.5048 141.145 62.8366C140.814 63.1683 140.364 63.3549 139.895 63.3555ZM139.895 60.5851C139.698 60.5855 139.505 60.6444 139.341 60.7547C139.176 60.8648 139.049 61.0212 138.973 61.2041C138.898 61.387 138.878 61.5882 138.917 61.7823C138.956 61.9763 139.051 62.1545 139.191 62.2943C139.331 62.4341 139.509 62.5293 139.703 62.5676C139.897 62.6062 140.098 62.5863 140.28 62.5105C140.463 62.4347 140.619 62.3064 140.729 62.1418C140.838 61.9773 140.897 61.7838 140.897 61.586C140.897 61.4544 140.871 61.324 140.821 61.2025C140.77 61.081 140.697 60.9705 140.604 60.8776C140.511 60.7846 140.4 60.7109 140.279 60.6607C140.157 60.6106 140.027 60.5849 139.895 60.5851Z" fill="white"/>
<path d="M144.002 63.3554C143.652 63.3575 143.309 63.2555 143.016 63.0624C142.724 62.8691 142.496 62.5934 142.361 62.2703C142.225 61.9472 142.188 61.5912 142.255 61.2471C142.324 60.9032 142.491 60.587 142.737 60.3384C142.984 60.0899 143.299 59.9203 143.641 59.8512C143.986 59.7821 144.341 59.8164 144.664 59.9501C144.989 60.0836 145.265 60.3105 145.46 60.6016C145.655 60.8929 145.759 61.2353 145.759 61.5859C145.759 62.0533 145.572 62.5014 145.244 62.8328C144.915 63.1644 144.469 63.3521 144.002 63.3554ZM144.002 60.585C143.803 60.5854 143.61 60.6443 143.446 60.7544C143.283 60.8647 143.155 61.0211 143.079 61.204C143.004 61.387 142.984 61.5882 143.023 61.7822C143.062 61.9762 143.156 62.1544 143.297 62.2942C143.438 62.4339 143.615 62.529 143.808 62.5676C144.003 62.6061 144.204 62.5862 144.386 62.5104C144.569 62.4346 144.725 62.3062 144.834 62.1417C144.945 61.9771 145.003 61.7838 145.003 61.5859C145.003 61.4543 144.977 61.324 144.926 61.2024C144.877 61.0809 144.803 60.9704 144.71 60.8776C144.617 60.7845 144.506 60.7108 144.385 60.6607C144.263 60.6106 144.133 60.5847 144.002 60.585Z" fill="white"/>
<path d="M148.096 63.3555C147.746 63.3555 147.405 63.2517 147.113 63.0571C146.824 62.8628 146.597 62.5865 146.463 62.2632C146.328 61.9397 146.295 61.584 146.361 61.2407C146.43 60.8975 146.599 60.5821 146.846 60.3346C147.092 60.0871 147.409 59.9186 147.751 59.8504C148.094 59.7821 148.449 59.8171 148.772 59.9512C149.095 60.085 149.371 60.3118 149.565 60.6029C149.76 60.8938 149.863 61.2359 149.863 61.586C149.863 62.0551 149.677 62.5048 149.345 62.8366C149.013 63.1683 148.565 63.3549 148.096 63.3555ZM148.096 60.5851C147.899 60.5851 147.704 60.6439 147.54 60.7538C147.375 60.8637 147.247 61.0201 147.171 61.2029C147.096 61.3858 147.077 61.587 147.115 61.7812C147.154 61.9754 147.249 62.1537 147.389 62.2936C147.528 62.4336 147.707 62.5289 147.901 62.5676C148.094 62.6062 148.296 62.5863 148.479 62.5106C148.661 62.4348 148.818 62.3066 148.927 62.142C149.037 61.9773 149.095 61.7838 149.095 61.586C149.095 61.3205 148.99 61.066 148.802 60.8782C148.616 60.6905 148.361 60.5851 148.096 60.5851Z" fill="white"/>
<path d="M147.371 71.9377C147.269 71.9377 147.172 71.8972 147.1 71.8253C147.028 71.7533 146.987 71.6559 146.987 71.5542V68.4831C146.987 68.3814 147.028 68.2838 147.1 68.2118C147.172 68.1399 147.269 68.0996 147.371 68.0996C147.473 68.0996 147.57 68.1399 147.642 68.2118C147.714 68.2838 147.754 68.3814 147.754 68.4831V71.5542C147.754 71.6557 147.714 71.753 147.642 71.8247C147.57 71.8967 147.473 71.9371 147.371 71.9377Z" fill="white"/>
<path d="M141.045 76.7979H138.729C138.475 76.7979 138.269 77.0042 138.269 77.2587V79.577C138.269 79.8315 138.475 80.0379 138.729 80.0379H141.045C141.299 80.0379 141.505 79.8315 141.505 79.577V77.2587C141.505 77.0042 141.299 76.7979 141.045 76.7979Z" fill="#B2B6BB"/>
<path d="M142.66 78.418H140.344C140.09 78.418 139.884 78.6243 139.884 78.8788V81.1971C139.884 81.4517 140.09 81.658 140.344 81.658H142.66C142.915 81.658 143.12 81.4517 143.12 81.1971V78.8788C143.12 78.6243 142.915 78.418 142.66 78.418Z" fill="white"/>
<path d="M149.477 77.6927H144.688C144.586 77.6927 144.489 77.6524 144.417 77.5805C144.345 77.5085 144.305 77.4111 144.305 77.3092C144.305 77.2076 144.345 77.1101 144.417 77.0382C144.489 76.9662 144.586 76.9258 144.688 76.9258H149.477C149.579 76.9258 149.676 76.9662 149.748 77.0382C149.82 77.1101 149.86 77.2076 149.86 77.3092C149.86 77.4111 149.82 77.5085 149.748 77.5805C149.676 77.6524 149.579 77.6927 149.477 77.6927Z" fill="#B2B6BB"/>
<path d="M149.477 84.6956H138.267C138.165 84.6956 138.068 84.6552 137.996 84.5832C137.924 84.5115 137.884 84.4138 137.884 84.3122C137.884 84.2105 137.924 84.1129 137.996 84.0409C138.068 83.9692 138.165 83.9287 138.267 83.9287H149.477C149.579 83.9287 149.675 83.9692 149.747 84.0409C149.819 84.1129 149.86 84.2105 149.86 84.3122C149.86 84.4138 149.819 84.5115 149.747 84.5832C149.675 84.6552 149.579 84.6956 149.477 84.6956Z" fill="#B2B6BB"/>
<path d="M149.477 87.4798H138.267C138.165 87.4798 138.068 87.4393 137.996 87.3676C137.924 87.2956 137.884 87.198 137.884 87.0963C137.884 86.9947 137.924 86.897 137.996 86.8253C138.068 86.7533 138.165 86.7129 138.267 86.7129H149.477C149.579 86.7129 149.675 86.7533 149.747 86.8253C149.819 86.897 149.86 86.9947 149.86 87.0963C149.86 87.198 149.819 87.2956 149.747 87.3676C149.675 87.4393 149.579 87.4798 149.477 87.4798Z" fill="#B2B6BB"/>
<path opacity="0.1" d="M134.818 47.9785V47.2169H131.528V44.0508H130.761V47.2169H127.679V44.0508H126.913V47.2169H123.833V44.0508H123.066V47.2169H119.986V44.0508H119.229V47.2169H116.14V44.0508H115.374V47.2169H112.294V44.0508H111.528V47.2169H108.448V44.0508H107.682V47.2169H104.602V44.0508H103.834V47.2169H100.756V44.0508H99.9879V47.2169H96.9148V44.0508H96.1417V47.2169H93.0616V44.0508H92.2956V47.2169H89.2155V44.0508H88.4494V47.2169H85.3694V44.0508H84.6033V47.2169H81.5232V44.0508H80.7501V47.2169H77.6771V44.0508H76.9092V47.2169H73.8309V44.0508H73.0631V47.2169H69.9848V44.0508H69.217V47.2169H66.1369V44.0508H65.3708V47.2169H62.2907V44.0508H61.5247V47.2169H58.4446V44.0508H57.6785V47.2169H54.6143V47.9838H57.6785V51.0075H54.6143V51.7744H57.6785V54.7963H54.6143V55.5649H57.6785V58.5868H54.6143V59.3537H57.6785V62.3774H54.6143V63.1443H57.6785V66.1609H54.6143V66.9278H57.6785V69.9514H54.6143V70.7184H57.6785V73.742H54.6143V74.5089H57.6785V77.5308H54.6143V78.2977H57.6785V81.3214H54.6143V82.0883H57.6785V85.1102H54.6143V85.8788H57.6785V89.0801H58.4446V85.8788H61.5247V89.0801H62.2907V85.8788H65.3708V89.0801H66.1369V85.8788H69.217V89.0801H69.9848V85.8788H73.0631V89.0801H73.8309V85.8788H76.9092V89.0801H77.6771V85.8788H80.7501V89.0801H81.5162V85.8788H84.5963V89.0801H85.3623V85.8788H88.4424V89.0801H89.2085V85.8788H92.2885V89.0801H93.0546V85.8788H96.1417V89.0801H96.9148V85.8788H99.9949V89.0801H100.763V85.8788H103.841V89.0801H104.609V85.8788H107.689V89.0801H108.455V85.8788H111.535V89.0801H112.301V85.8788H115.381V89.0801H116.147V85.8788H119.229V89.0801H119.995V85.8788H123.075V89.0801H123.841V85.8788H126.921V89.0801H127.687V85.8788H130.768V89.0801H131.528V85.8788H134.819V85.1102H131.528V82.0883H134.819V81.3214H131.528V78.2977H134.819V77.5308H131.528V74.5089H134.819V73.742H131.528V70.7184H134.819V69.9514H131.528V66.9278H134.819V66.1609H131.528V63.139H134.819V62.3721H131.528V59.3537H134.819V58.5868H131.528V55.5596H134.819V54.791H131.528V51.7691H134.819V51.0022H131.528V47.9785H134.818ZM126.911 47.9785V51.0022H123.833V47.9785H126.911ZM107.682 66.1609H104.602V63.139H107.682V66.1609ZM108.448 63.139H111.528V66.1609H108.448V63.139ZM103.834 66.1609H100.756V63.139H103.834V66.1609ZM99.9879 66.1609H96.9148V63.139H99.9949L99.9879 66.1609ZM96.1417 66.1609H93.0616V63.139H96.1417V66.1609ZM92.2956 66.1609H89.2155V63.139H92.2956V66.1609ZM88.4494 66.1609H85.3694V63.139H88.4494V66.1609ZM84.6033 66.1609H81.5232V63.139H84.6033V66.1609ZM80.7571 66.1609H77.6771V63.139H80.7501L80.7571 66.1609ZM76.9092 66.1609H73.8309V63.139H76.9092V66.1609ZM76.9092 66.9278V69.9514H73.8309V66.9278H76.9092ZM77.6771 66.9278H80.7501V69.9514H77.6771V66.9278ZM81.5232 66.9278H84.6033V69.9514H81.5232V66.9278ZM85.3694 66.9278H88.4494V69.9514H85.3694V66.9278ZM89.2155 66.9278H92.2956V69.9514H89.2155V66.9278ZM93.0616 66.9278H96.1417V69.9514H93.0616V66.9278ZM96.9078 66.9278H99.9879V69.9514H96.9148L96.9078 66.9278ZM100.756 66.9278H103.834V69.9514H100.756V66.9278ZM104.602 66.9278H107.682V69.9514H104.602V66.9278ZM108.448 66.9278H111.528V69.9514H108.448V66.9278ZM112.294 66.9278H115.374V69.9514H112.294V66.9278ZM112.294 66.1609V63.139H115.374V66.1609H112.294ZM112.294 62.3721V59.3537H115.374V62.3774L112.294 62.3721ZM111.528 62.3721H108.448V59.3537H111.528V62.3721ZM107.682 62.3721H104.602V59.3537H107.682V62.3721ZM103.834 62.3721H100.756V59.3537H103.834V62.3721ZM99.9879 62.3721H96.9148V59.3537H99.9949L99.9879 62.3721ZM96.1417 62.3721H93.0616V59.3537H96.1417V62.3721ZM92.2956 62.3721H89.2155V59.3537H92.2956V62.3721ZM88.4494 62.3721H85.3694V59.3537H88.4494V62.3721ZM84.6033 62.3721H81.5232V59.3537H84.6033V62.3721ZM80.7571 62.3721H77.6771V59.3537H80.7501L80.7571 62.3721ZM76.9092 62.3721H73.8309V59.3537H76.9092V62.3721ZM73.0631 62.3721H69.9848V59.3537H73.0631V62.3721ZM73.0631 63.139V66.1609H69.9848V63.139H73.0631ZM73.0631 66.9278V69.9514H69.9848V66.9278H73.0631ZM73.0631 70.7184V73.742H69.9848V70.7184H73.0631ZM73.8309 70.7184H76.9092V73.742H73.8309V70.7184ZM77.6771 70.7184H80.7501V73.742H77.6771V70.7184ZM81.5232 70.7184H84.6033V73.742H81.5232V70.7184ZM85.3694 70.7184H88.4494V73.742H85.3694V70.7184ZM89.2155 70.7184H92.2956V73.742H89.2155V70.7184ZM93.0616 70.7184H96.1417V73.742H93.0616V70.7184ZM96.9078 70.7184H99.9879V73.742H96.9148L96.9078 70.7184ZM100.756 70.7184H103.834V73.742H100.756V70.7184ZM104.602 70.7184H107.682V73.742H104.602V70.7184ZM108.448 70.7184H111.528V73.742H108.448V70.7184ZM112.294 70.7184H115.374V73.742H112.294V70.7184ZM116.14 70.7184H119.229V73.742H116.14V70.7184ZM116.14 69.9514V66.9278H119.229V69.9514H116.14ZM116.14 66.1609V63.139H119.229V66.1609H116.14ZM116.14 62.3721V59.3537H119.229V62.3774L116.14 62.3721ZM116.14 58.5815V55.5596H119.229V58.5815H116.14ZM115.374 58.5815H112.294V55.5596H115.374V58.5815ZM111.528 58.5815H108.448V55.5596H111.528V58.5815ZM107.682 58.5815H104.602V55.5596H107.682V58.5815ZM103.834 58.5815H100.756V55.5596H103.834V58.5815ZM99.9879 58.5815H96.9148V55.5596H99.9949L99.9879 58.5815ZM96.1417 58.5815H93.0616V55.5596H96.1417V58.5815ZM92.2956 58.5815H89.2155V55.5596H92.2956V58.5815ZM88.4494 58.5815H85.3694V55.5596H88.4494V58.5815ZM84.6033 58.5815H81.5232V55.5596H84.6033V58.5815ZM80.7571 58.5815H77.6771V55.5596H80.7501L80.7571 58.5815ZM76.9092 58.5815H73.8309V55.5596H76.9092V58.5815ZM73.0631 58.5815H69.9848V55.5596H73.0631V58.5815ZM69.217 58.5815H66.1369V55.5596H69.217V58.5815ZM69.217 59.3484V62.3721H66.1369V59.3537L69.217 59.3484ZM69.217 63.139V66.1609H66.1369V63.139H69.217ZM69.217 66.9278V69.9514H66.1369V66.9278H69.217ZM69.217 70.7184V73.742H66.1369V70.7184H69.217ZM69.217 74.5089V77.5308H66.1369V74.5089H69.217ZM69.9848 74.5089H73.0631V77.5308H69.9848V74.5089ZM73.8309 74.5089H76.9092V77.5308H73.8309V74.5089ZM77.6771 74.5089H80.7501V77.5308H77.6771V74.5089ZM81.5232 74.5089H84.6033V77.5308H81.5232V74.5089ZM85.3694 74.5089H88.4494V77.5308H85.3694V74.5089ZM89.2155 74.5089H92.2956V77.5308H89.2155V74.5089ZM93.0616 74.5089H96.1417V77.5308H93.0616V74.5089ZM96.9078 74.5089H99.9879V77.5308H96.9148L96.9078 74.5089ZM100.756 74.5089H103.834V77.5308H100.756V74.5089ZM104.602 74.5089H107.682V77.5308H104.602V74.5089ZM108.448 74.5089H111.528V77.5308H108.448V74.5089ZM112.294 74.5089H115.374V77.5308H112.294V74.5089ZM116.14 74.5089H119.229V77.5308H116.14V74.5089ZM119.986 74.5089H123.066V77.5308H119.986V74.5089ZM119.986 73.742V70.7184H123.066V73.742H119.986ZM119.986 69.9514V66.9278H123.066V69.9514H119.986ZM119.986 66.1609V63.139H123.066V66.1609H119.986ZM119.986 62.3721V59.3537H123.066V62.3774L119.986 62.3721ZM119.986 58.5815V55.5596H123.066V58.5815H119.986ZM119.986 54.791V51.7691H123.066V54.791H119.986ZM119.22 54.791H116.14V51.7691H119.229L119.22 54.791ZM115.374 54.791H112.294V51.7691H115.374V54.791ZM111.528 54.791H108.448V51.7691H111.528V54.791ZM107.682 54.791H104.602V51.7691H107.682V54.791ZM103.834 54.791H100.756V51.7691H103.834V54.791ZM99.9879 54.791H96.9148V51.7691H99.9949L99.9879 54.791ZM96.1417 54.791H93.0616V51.7691H96.1417V54.791ZM92.2956 54.791H89.2155V51.7691H92.2956V54.791ZM88.4494 54.791H85.3694V51.7691H88.4494V54.791ZM84.6033 54.791H81.5232V51.7691H84.6033V54.791ZM80.7571 54.791H77.6771V51.7691H80.7501L80.7571 54.791ZM76.9092 54.791H73.8309V51.7691H76.9092V54.791ZM73.0631 54.791H69.9848V51.7691H73.0631V54.791ZM69.217 54.791H66.1369V51.7691H69.217V54.791ZM65.3708 54.791H62.2907V51.7691H65.3708V54.791ZM65.3708 55.5596V58.5815H62.2907V55.5596H65.3708ZM65.3708 59.3484V62.3721H62.2907V59.3537L65.3708 59.3484ZM65.3708 63.139V66.1609H62.2907V63.139H65.3708ZM65.3708 66.9278V69.9514H62.2907V66.9278H65.3708ZM65.3708 70.7184V73.742H62.2907V70.7184H65.3708ZM65.3708 74.5089V77.5308H62.2907V74.5089H65.3708ZM65.3708 78.2977V81.3214H62.2907V78.2977H65.3708ZM66.1369 78.2977H69.217V81.3214H66.1369V78.2977ZM69.9848 78.2977H73.0631V81.3214H69.9848V78.2977ZM73.8309 78.2977H76.9092V81.3214H73.8309V78.2977ZM77.6771 78.2977H80.7501V81.3214H77.6771V78.2977ZM81.5232 78.2977H84.6033V81.3214H81.5232V78.2977ZM85.3694 78.2977H88.4494V81.3214H85.3694V78.2977ZM89.2155 78.2977H92.2956V81.3214H89.2155V78.2977ZM93.0616 78.2977H96.1417V81.3214H93.0616V78.2977ZM96.9078 78.2977H99.9879V81.3214H96.9148L96.9078 78.2977ZM100.756 78.2977H103.834V81.3214H100.756V78.2977ZM104.602 78.2977H107.682V81.3214H104.602V78.2977ZM108.448 78.2977H111.528V81.3214H108.448V78.2977ZM112.294 78.2977H115.374V81.3214H112.294V78.2977ZM116.14 78.2977H119.229V81.3214H116.14V78.2977ZM119.986 78.2977H123.066V81.3214H119.986V78.2977ZM123.833 78.2977H126.913V81.3214H123.833V78.2977ZM123.833 77.5308V74.5089H126.913V77.5308H123.833ZM123.833 73.742V70.7184H126.913V73.742H123.833ZM123.833 69.9514V66.9278H126.913V69.9514H123.833ZM123.833 66.1609V63.139H126.913V66.1609H123.833ZM123.833 62.3721V59.3537H126.913V62.3774L123.833 62.3721ZM123.833 58.5815V55.5596H126.913V58.5815H123.833ZM123.833 54.791V51.7691H126.913V54.791H123.833ZM123.066 47.9785V51.0022H119.986V47.9785H123.066ZM119.22 47.9785V51.0022H116.14V47.9785H119.22ZM115.374 47.9785V51.0022H112.294V47.9785H115.374ZM111.528 47.9785V51.0022H108.448V47.9785H111.528ZM107.682 47.9785V51.0022H104.602V47.9785H107.682ZM103.834 47.9785V51.0022H100.756V47.9785H103.834ZM99.9879 47.9785V51.0022H96.9148V47.9785H99.9879ZM96.1417 47.9785V51.0022H93.0616V47.9785H96.1417ZM92.2956 47.9785V51.0022H89.2155V47.9785H92.2956ZM88.4494 47.9785V51.0022H85.3694V47.9785H88.4494ZM84.6033 47.9785V51.0022H81.5232V47.9785H84.6033ZM80.7571 47.9785V51.0022H77.6771V47.9785H80.7571ZM76.9092 47.9785V51.0022H73.8309V47.9785H76.9092ZM73.0631 47.9785V51.0022H69.9848V47.9785H73.0631ZM69.217 47.9785V51.0022H66.1369V47.9785H69.217ZM65.3708 47.9785V51.0022H62.2907V47.9785H65.3708ZM58.4446 47.9785H61.5247V51.0022H58.4446V47.9785ZM58.4446 51.7691H61.5247V54.791H58.4446V51.7691ZM58.4446 55.5596H61.5247V58.5815H58.4446V55.5596ZM58.4446 59.3484H61.5247V62.3721H58.4446V59.3484ZM58.4446 63.139H61.5247V66.1609H58.4446V63.139ZM58.4446 66.9278H61.5247V69.9514H58.4446V66.9278ZM58.4446 70.7184H61.5247V73.742H58.4446V70.7184ZM58.4446 74.5089H61.5247V77.5308H58.4446V74.5089ZM58.4446 78.2977H61.5247V81.3214H58.4446V78.2977ZM58.4446 85.1102V82.0883H61.5247V85.1102H58.4446ZM62.2907 85.1102V82.0883H65.3708V85.1102H62.2907ZM66.1369 85.1102V82.0883H69.217V85.1102H66.1369ZM69.9848 85.1102V82.0883H73.0631V85.1102H69.9848ZM73.8309 85.1102V82.0883H76.9092V85.1102H73.8309ZM77.6771 85.1102V82.0883H80.7501V85.1102H77.6771ZM81.5232 85.1102V82.0883H84.6033V85.1102H81.5232ZM85.3694 85.1102V82.0883H88.4494V85.1102H85.3694ZM89.2155 85.1102V82.0883H92.2956V85.1102H89.2155ZM93.0616 85.1102V82.0883H96.1417V85.1102H93.0616ZM96.9078 85.1102V82.0883H99.9879V85.1102H96.9078ZM100.756 85.1102V82.0883H103.834V85.1102H100.756ZM104.602 85.1102V82.0883H107.682V85.1102H104.602ZM108.448 85.1102V82.0883H111.528V85.1102H108.448ZM112.294 85.1102V82.0883H115.374V85.1102H112.294ZM116.14 85.1102V82.0883H119.229V85.1102H116.14ZM119.986 85.1102V82.0883H123.066V85.1102H119.986ZM123.833 85.1102V82.0883H126.913V85.1102H123.833ZM130.759 85.1102H127.679V82.0883H130.759V85.1102ZM130.759 81.3214H127.679V78.2977H130.759V81.3214ZM130.759 77.5308H127.679V74.5089H130.759V77.5308ZM130.759 73.742H127.679V70.7184H130.759V73.742ZM130.759 69.9514H127.679V66.9278H130.759V69.9514ZM130.759 66.1609H127.679V63.139H130.759V66.1609ZM130.759 62.3721H127.679V59.3537H130.759V62.3721ZM130.759 58.5815H127.679V55.5596H130.759V58.5815ZM130.759 54.791H127.679V51.7691H130.759V54.791ZM130.759 51.0022H127.679V47.9785H130.759V51.0022Z" fill="#B2B6BB"/>
<path d="M67.3965 76.1736L80.3722 53.6748L93.3479 76.1736H67.3965Z" fill="#2B3048"/>
<path d="M89.4536 61.9487C90.7851 61.9487 91.8643 60.8681 91.8643 59.5354C91.8643 58.2024 90.7851 57.1221 89.4536 57.1221C88.1223 57.1221 87.043 58.2024 87.043 59.5354C87.043 60.8681 88.1223 61.9487 89.4536 61.9487Z" fill="#D60BC8"/>
<path d="M74.9164 57.958H62.2148V70.6735H74.9164V57.958Z" fill="#D60BC8"/>
<path opacity="0.7" d="M91.9221 80.1835C90.2958 80.1835 88.706 79.7008 87.3537 78.7962C86.0014 77.8917 84.9476 76.6061 84.3251 75.1018C83.7027 73.5976 83.54 71.9424 83.8572 70.3456C84.1745 68.7488 84.9576 67.282 86.1076 66.1308C87.2577 64.9796 88.7229 64.1954 90.3179 63.8779C91.913 63.5603 93.5664 63.7233 95.069 64.3463C96.5714 64.9694 97.8556 66.0244 98.7593 67.3782C99.6627 68.7319 100.145 70.3235 100.145 71.9515C100.143 74.1341 99.2756 76.2265 97.734 77.7698C96.1924 79.3131 94.1022 80.1812 91.9221 80.1835ZM91.9221 64.9227C90.5321 64.9227 89.1732 65.3354 88.0175 66.1086C86.8617 66.8817 85.9609 67.9805 85.429 69.2661C84.897 70.5518 84.7578 71.9665 85.0291 73.3313C85.3002 74.696 85.9696 75.9498 86.9525 76.9338C87.9354 77.9178 89.1876 78.5877 90.5509 78.8593C91.9144 79.1307 93.3274 78.9914 94.6116 78.459C95.8958 77.9264 96.9936 77.0246 97.7658 75.8675C98.5381 74.7105 98.9502 73.3503 98.9502 71.9586C98.9502 70.0927 98.2098 68.3031 96.8917 66.9835C95.5738 65.6641 93.7862 64.9227 91.9221 64.9227Z" fill="#B2B6BB"/>
<path d="M120.789 60.6787H103.117C102.686 60.6787 102.337 61.0284 102.337 61.4597C102.337 61.891 102.686 62.2407 103.117 62.2407H120.789C121.22 62.2407 121.569 61.891 121.569 61.4597C121.569 61.0284 121.22 60.6787 120.789 60.6787Z" fill="#23213D"/>
<path d="M128.482 65.1992H103.117C102.686 65.1992 102.337 65.5489 102.337 65.9802C102.337 66.4117 102.686 66.7612 103.117 66.7612H128.482C128.913 66.7612 129.262 66.4117 129.262 65.9802C129.262 65.5489 128.913 65.1992 128.482 65.1992Z" fill="#23213D"/>
<path d="M111.449 70.7188H104.45C103.495 70.7188 102.72 71.4944 102.72 72.4513C102.72 73.4082 103.495 74.1839 104.45 74.1839H111.449C112.404 74.1839 113.179 73.4082 113.179 72.4513C113.179 71.4944 112.404 70.7188 111.449 70.7188Z" fill="#D60BC8"/>
<path d="M67.761 42.9483C67.7726 51.5726 64.4894 59.8749 58.584 66.1542C58.0404 66.7405 57.4764 67.3016 56.892 67.8375C54.2206 70.3161 51.1676 72.3475 47.8503 73.8532C46.5275 74.4528 45.167 74.9657 43.7775 75.3887C42.8029 75.6878 41.8074 75.9421 40.7906 76.1521C38.5161 76.6228 36.1993 76.8585 33.8766 76.8557H33.8608C32.0363 76.8561 30.2146 76.7083 28.414 76.4142C26.9947 76.1864 25.5919 75.8656 24.2147 75.4538C22.4378 74.9262 20.7077 74.2519 19.042 73.4381C13.3556 70.6633 8.55833 66.3507 5.19327 60.9882C1.82802 55.6256 0.0291713 49.4272 0.000355989 43.0944C-0.028635 36.7617 1.71364 30.5471 5.02969 25.1539C8.34591 19.761 13.1034 15.4046 18.7644 12.5781C20.4821 11.7188 22.2704 11.0086 24.1093 10.455L24.2024 10.4269C24.5292 10.3301 24.8578 10.2369 25.1899 10.1507C25.2373 10.1367 25.2848 10.1226 25.334 10.112C26.3478 9.8482 27.3774 9.62833 28.4246 9.46122C30.2289 9.16818 32.0539 9.02113 33.8819 9.02149C34.9678 9.02149 36.0448 9.07249 37.1043 9.17451C37.7105 9.2308 38.3114 9.30292 38.9088 9.39438C45.8355 10.4309 52.2687 13.5986 57.3172 18.4583C57.6563 18.7819 57.9866 19.1126 58.3117 19.4504C58.4066 19.5489 58.5015 19.6491 58.5928 19.7476C58.8634 20.0361 59.1275 20.3291 59.3852 20.6271C60.184 21.5372 60.9318 22.4909 61.6255 23.4836C62.0559 24.0958 62.4653 24.7149 62.8554 25.3622C63.7088 26.7718 64.4592 28.2414 65.1009 29.7596C65.2045 30.0059 65.3047 30.2521 65.4031 30.5019V30.5142V30.5283C65.9792 31.9931 66.4526 33.4965 66.8192 35.0277C66.8895 35.3197 66.9545 35.6134 67.0178 35.9072C67.5091 38.222 67.7582 40.5818 67.761 42.9483Z" fill="#5C687E"/>
<path d="M33.2499 36.7902C27.9085 42.4417 19.7893 43.432 15.1103 39.0012C10.4313 34.5704 10.9742 26.4 16.3156 20.7485C17.2386 19.7687 18.2763 18.9042 19.4062 18.1734C24.4454 14.9158 30.6108 14.8964 34.4552 18.5357C35.1171 19.1638 35.6888 19.8806 36.1543 20.6658C38.8759 25.269 37.8217 31.953 33.2499 36.7902Z" fill="#23213D"/>
<path d="M30.9008 16.383C27.3638 15.1517 23.0855 15.7955 19.4062 18.1736C21.4883 21.396 24.9374 23.5015 28.8433 23.5015C30.4227 23.5013 31.9824 23.1523 33.4116 22.4795C32.5664 20.4497 31.7371 18.4146 30.9008 16.383Z" fill="#23213D"/>
<path d="M39.0203 11.0234C39.0203 17.1164 34.4643 22.0538 28.8436 22.0538C23.2228 22.0538 18.6651 17.1164 18.6651 11.0234C18.6602 9.12442 19.1179 7.25271 19.9987 5.57062L20.0479 5.48091C21.7539 2.31478 24.885 0.14247 28.4904 0.00878906C28.6064 0.00878906 28.7241 0.00878906 28.8418 0.00878906C28.9595 0.00878906 29.1071 0.00879132 29.2371 0.0193451C29.6817 0.0371106 30.1244 0.0863608 30.5619 0.167097C34.1797 0.83726 37.1473 3.57596 38.3878 7.22228C38.4457 7.39818 38.5002 7.55824 38.5494 7.73062C38.8608 8.80059 39.0192 9.90909 39.0203 11.0234Z" fill="#23213D"/>
<path d="M61.3625 33.8702L62.5924 28.0973C62.6172 27.9816 62.5993 27.8607 62.5416 27.7571C62.4842 27.6535 62.3911 27.5746 62.2797 27.5345H62.2656C61.988 27.4337 61.6828 27.4395 61.409 27.551C61.1355 27.6625 60.9129 27.8717 60.7844 28.1378L60.0166 29.7507L61.3625 33.8702Z" fill="#FC9D9D"/>
<path opacity="0.15" d="M61.3625 33.8702L62.5924 28.0973C62.6172 27.9816 62.5993 27.8607 62.5416 27.7571C62.4842 27.6535 62.3911 27.5746 62.2797 27.5345H62.2656C61.988 27.4337 61.6828 27.4395 61.409 27.551C61.1355 27.6625 60.9129 27.8717 60.7844 28.1378L60.0166 29.7507L61.3625 33.8702Z" fill="#23213D"/>
<path d="M65.3857 30.5071L69.5657 26.3401C69.6497 26.2564 69.7611 26.2061 69.8793 26.1983C69.9974 26.1906 70.1146 26.2259 70.2088 26.2979L70.2211 26.3067C70.4557 26.4863 70.6155 26.7466 70.6698 27.0373C70.724 27.3281 70.6686 27.6287 70.5145 27.8809L69.578 29.413L65.3857 30.5071Z" fill="#FC9D9D"/>
<path opacity="0.15" d="M65.3857 30.5071L69.5657 26.3401C69.6497 26.2564 69.7611 26.2061 69.8793 26.1983C69.9974 26.1906 70.1146 26.2259 70.2088 26.2979L70.2211 26.3067C70.4557 26.4863 70.6155 26.7466 70.6698 27.0373C70.724 27.3281 70.6686 27.6287 70.5145 27.8809L69.578 29.413L65.3857 30.5071Z" fill="#23213D"/>
<path d="M80.4134 3.12402H62.8115C60.3272 3.12402 58.3135 5.14014 58.3135 7.62696V25.2482C58.3135 27.7352 60.3272 29.7511 62.8115 29.7511H80.4134C82.8975 29.7511 84.9114 27.7352 84.9114 25.2482V7.62696C84.9114 5.14014 82.8975 3.12402 80.4134 3.12402Z" fill="#D60BC8"/>
<path opacity="0.15" d="M80.4134 3.12402H62.8115C60.3272 3.12402 58.3135 5.14014 58.3135 7.62696V25.2482C58.3135 27.7352 60.3272 29.7511 62.8115 29.7511H80.4134C82.8975 29.7511 84.9114 27.7352 84.9114 25.2482V7.62696C84.9114 5.14014 82.8975 3.12402 80.4134 3.12402Z" fill="#23213D"/>
<path d="M79.4183 3.12402H61.8164C59.3321 3.12402 57.3184 5.14014 57.3184 7.62696V25.2482C57.3184 27.7352 59.3321 29.7511 61.8164 29.7511H79.4183C81.9024 29.7511 83.9163 27.7352 83.9163 25.2482V7.62696C83.9163 5.14014 81.9024 3.12402 79.4183 3.12402Z" fill="#D60BC8"/>
<path d="M78.9184 23.663C78.6336 23.6673 78.3489 23.6454 78.068 23.598C78.0455 23.5927 78.0232 23.5862 78.0012 23.5786C77.8708 23.5367 77.751 23.4671 77.6498 23.3746C77.45 23.1018 77.2824 22.8066 77.1508 22.4951C76.9096 21.9978 76.6962 21.5382 76.5112 21.1161L75.8787 19.6245L71.1909 8.57997L71.1382 8.45508H70.4161L70.3634 8.57997C69.8164 9.88159 69.267 11.182 68.7153 12.4813L65.6932 19.3413L64.5265 21.8777C64.1558 22.6798 63.9098 23.1512 63.7868 23.2972C63.68 23.4328 63.5349 23.5332 63.3704 23.5856C63.3038 23.6052 63.2356 23.6187 63.1666 23.6261C62.9768 23.649 62.6957 23.6648 62.3267 23.6701L62.2266 23.758V24.3367L62.3267 24.4247C63.156 24.3661 63.976 24.3367 64.7866 24.3367C65.5047 24.3367 66.3415 24.3661 67.2974 24.4247L67.387 24.3367V23.758L67.2868 23.6701C66.4803 23.6701 65.9743 23.6138 65.774 23.5241C65.6876 23.4958 65.6124 23.4409 65.5588 23.3674C65.5052 23.2938 65.476 23.2052 65.4753 23.1142C65.517 22.7238 65.6257 22.3435 65.7969 21.9903L67.0092 19.1408H73.4435L74.8087 22.5355C74.8997 22.7394 74.9533 22.958 74.9668 23.1811C74.971 23.2724 74.9413 23.3619 74.8837 23.4326C74.8259 23.5033 74.7442 23.5503 74.654 23.5645C74.1398 23.6447 73.6195 23.6801 73.0991 23.6701L73.0095 23.758V24.3367L73.0991 24.4247C74.3278 24.3965 75.5577 24.3636 76.7888 24.3262C77.1227 24.3262 77.4781 24.335 77.8554 24.3525C78.1892 24.3701 78.5424 24.3948 78.9096 24.4247L78.9395 24.3948L78.9974 24.3367V23.758L78.9184 23.663ZM67.3957 18.1768L70.2298 11.4699L73.0183 18.1768H67.3957Z" fill="white"/>
<path d="M79.946 9.39947V7.51562H78.0677V8.33178H63.1664V7.51562H61.2881V9.39947H62.1016V23.4852H61.2881V25.3638H63.1664V24.5476H78.0677V25.3638H79.946V23.4799H79.1308V9.39947H79.946ZM63.1664 24.2996V23.4852H62.3511V9.39947H63.1664V8.58507H78.0677V9.39947H78.8813V23.4852H78.0677V24.2996H63.1664Z" fill="#D60BC8"/>
<path opacity="0.2" d="M79.946 9.39947V7.51562H78.0677V8.33178H63.1664V7.51562H61.2881V9.39947H62.1016V23.4852H61.2881V25.3638H63.1664V24.5476H78.0677V25.3638H79.946V23.4799H79.1308V9.39947H79.946ZM63.1664 24.2996V23.4852H62.3511V9.39947H63.1664V8.58507H78.0677V9.39947H78.8813V23.4852H78.0677V24.2996H63.1664Z" fill="#23213D"/>
<path d="M36.6367 25.4448L40.2351 34.6354C38.0616 37.8982 27.7057 36.5421 24.9489 32.4613L21.6211 24.7113L22.3872 24.5003C22.7544 24.4028 23.08 24.1887 23.3152 23.8903C23.5507 23.5919 23.683 23.2252 23.6926 22.8451L24.4236 14.242L33.5197 13.0107L33.8219 20.0466L33.9765 23.5469C34.0159 23.898 34.1591 24.229 34.388 24.4978C34.617 24.7664 34.9209 24.9602 35.2609 25.0543L36.6367 25.4448Z" fill="#FC9D9D"/>
<path d="M31.2765 22.2012L30.8004 22.2152C29.1493 22.2659 27.5456 21.6582 26.3419 20.5254C25.1383 19.3928 24.4334 17.8279 24.3819 16.175L24.1113 7.4312C24.1029 7.15803 24.1484 6.88592 24.2449 6.63034C24.3415 6.37477 24.4875 6.14065 24.6745 5.94153C24.8616 5.74242 25.0858 5.58218 25.3348 5.46996C25.5836 5.35756 25.852 5.29547 26.1249 5.28703L34.2758 5.03549C34.6302 5.02441 34.9832 5.08351 35.3147 5.20893C35.6463 5.33452 35.9499 5.52431 36.2082 5.7674C36.4664 6.01049 36.6743 6.30195 36.82 6.62559C36.9656 6.94907 37.0463 7.29804 37.0572 7.65283L37.3084 15.7757C37.3341 16.5941 37.1982 17.4096 36.9089 18.1754C36.6195 18.9415 36.1823 19.6428 35.6222 20.2394C35.062 20.836 34.39 21.3164 33.6443 21.6531C32.8986 21.9897 32.0941 22.1758 31.2765 22.2012Z" fill="#FC9D9D"/>
<path d="M30.7487 13.4687C31.1223 13.4687 31.4252 13.1654 31.4252 12.7915C31.4252 12.4173 31.1223 12.1143 30.7487 12.1143C30.3752 12.1143 30.0723 12.4173 30.0723 12.7915C30.0723 13.1654 30.3752 13.4687 30.7487 13.4687Z" fill="#21252B"/>
<path d="M31.1392 13.0674C31.2199 13.0674 31.2852 13.0021 31.2852 12.9214C31.2852 12.8408 31.2199 12.7754 31.1392 12.7754C31.0586 12.7754 30.9932 12.8408 30.9932 12.9214C30.9932 13.0021 31.0586 13.0674 31.1392 13.0674Z" fill="white"/>
<path d="M35.9577 13.3876C36.3313 13.3876 36.6342 13.0844 36.6342 12.7104C36.6342 12.3363 36.3313 12.0332 35.9577 12.0332C35.584 12.0332 35.2812 12.3363 35.2812 12.7104C35.2812 13.0844 35.584 13.3876 35.9577 13.3876Z" fill="#21252B"/>
<path d="M36.2991 13.0146C36.3799 13.0146 36.4453 12.9492 36.4453 12.8686C36.4453 12.7879 36.3799 12.7227 36.2991 12.7227C36.2186 12.7227 36.1533 12.7879 36.1533 12.8686C36.1533 12.9492 36.2186 13.0146 36.2991 13.0146Z" fill="white"/>
<g opacity="0.3">
<path opacity="0.3" d="M33.4857 16.6115L32.572 16.6696C32.5223 16.6692 32.4745 16.6498 32.4383 16.6157C32.4023 16.5814 32.3803 16.5346 32.3774 16.485C32.3742 16.4353 32.39 16.3862 32.4216 16.3477C32.4533 16.3091 32.4982 16.284 32.5474 16.2773L33.4593 16.2193C33.5639 16.2055 33.6593 16.1526 33.726 16.0712C33.7928 15.9895 33.8262 15.8856 33.8193 15.7804C33.8123 15.6752 33.7658 15.5765 33.6888 15.5044C33.6118 15.4325 33.5103 15.3924 33.4049 15.3925C33.3551 15.3922 33.3073 15.3728 33.2712 15.3387C33.2351 15.3044 33.2132 15.2576 33.2102 15.208C33.207 15.1583 33.2228 15.1092 33.2545 15.0707C33.2861 15.0321 33.3311 15.007 33.3803 15.0003C33.5927 14.9883 33.8011 15.0608 33.9603 15.2019C34.1196 15.3429 34.2166 15.5412 34.2305 15.7537C34.2445 15.9661 34.1741 16.1755 34.0346 16.3361C33.8951 16.4966 33.6978 16.5957 33.4857 16.6115Z" fill="#23213D"/>
</g>
<path d="M24.8392 16.5327C24.8392 16.5327 21.8909 16.983 21.0511 14.0895C20.2112 11.196 23.8096 10.3957 24.5405 13.3121L25.1748 16.5116L24.8392 16.5327Z" fill="#FC9D9D"/>
<path opacity="0.3" d="M21.8516 12.4621C21.9693 12.3538 22.1081 12.2708 22.2592 12.2184C22.4103 12.1659 22.5708 12.1454 22.7301 12.1578C22.8865 12.1879 23.0348 12.2504 23.1655 12.3413C23.2962 12.4322 23.4066 12.5494 23.4892 12.6855C23.725 13.015 23.8697 13.4009 23.9091 13.8042L23.946 14.1226C23.9794 14.3548 23.5788 14.455 23.5524 14.1824L23.5067 13.8306C23.4654 13.5008 23.3528 13.1838 23.1764 12.9019C23.129 12.8039 23.058 12.7193 22.9696 12.6556C22.8814 12.592 22.7786 12.5513 22.6707 12.5373C22.5627 12.5234 22.453 12.5365 22.3515 12.5756C22.2499 12.6146 22.1596 12.6785 22.0888 12.7612C22.0695 12.7798 22.0465 12.7942 22.0213 12.8034C21.996 12.8127 21.9691 12.8166 21.9424 12.8148C21.9156 12.8131 21.8896 12.8057 21.8657 12.7934C21.8419 12.7809 21.8209 12.7636 21.8042 12.7427C21.7873 12.7218 21.7752 12.6975 21.7681 12.6715C21.7613 12.6454 21.7599 12.6183 21.7641 12.5918C21.7681 12.5652 21.7778 12.5399 21.7922 12.5172C21.8068 12.4947 21.8258 12.4753 21.8481 12.4604L21.8516 12.4621Z" fill="#23213D"/>
<path d="M39.0674 13.2698C39.0309 12.7214 38.8286 12.197 38.4876 11.7664C38.1465 11.3357 37.6827 11.0191 37.1575 10.8583C36.8453 10.7605 36.5176 10.7218 36.1911 10.744C35.7875 10.7709 35.3952 10.888 35.0427 11.0868C34.6903 11.2855 34.3868 11.561 34.1547 11.8926C33.6136 11.6984 33.0216 11.6984 32.4803 11.8926C32.1728 11.3663 31.6966 10.9594 31.1293 10.7378C30.5618 10.5162 29.9363 10.493 29.354 10.6717C28.7715 10.8504 28.2666 11.2206 27.9208 11.7225C27.5748 12.2245 27.4084 12.8285 27.4481 13.4369C27.4557 13.569 27.474 13.7001 27.5026 13.8292C27.6463 14.4948 28.0352 15.0817 28.592 15.4729C29.1486 15.8643 29.8321 16.0312 30.5063 15.9404C31.1803 15.8497 31.7956 15.5079 32.2292 14.9832C32.6628 14.4587 32.883 13.7898 32.8457 13.1098C32.8466 13.101 32.8466 13.0922 32.8457 13.0834C32.8264 12.7803 32.7551 12.4829 32.6349 12.2039C33.0705 12.0644 33.5384 12.0644 33.9738 12.2039C33.7415 12.6387 33.6332 13.1293 33.661 13.6216C33.6837 13.9774 33.7761 14.3255 33.9334 14.6455C34.0904 14.9656 34.309 15.2515 34.5768 15.4868C34.8444 15.722 35.1559 15.9021 35.4932 16.0168C35.8306 16.1313 36.1871 16.1781 36.5425 16.1545C36.807 16.1346 37.067 16.0754 37.3139 15.9786C37.8591 15.7756 38.3245 15.4022 38.641 14.9136C38.9574 14.4251 39.1082 13.8475 39.0709 13.2663L39.0674 13.2698ZM30.3016 15.6128C29.7405 15.649 29.185 15.4842 28.7341 15.1477C28.2834 14.8112 27.9672 14.3252 27.8417 13.7764C27.8138 13.655 27.7955 13.5314 27.7873 13.407C27.7672 13.0974 27.8082 12.7868 27.9078 12.4931C28.0076 12.1991 28.164 11.9279 28.3685 11.6947C28.5728 11.4614 28.8213 11.2708 29.0992 11.1336C29.3774 10.9965 29.6796 10.9155 29.9888 10.8952C30.2982 10.875 30.6085 10.916 30.9019 11.0159C31.1954 11.1156 31.4665 11.2723 31.6995 11.4771C31.9324 11.6817 32.1227 11.9302 32.2598 12.2086C32.3968 12.4869 32.4778 12.7896 32.4979 13.0992C32.4987 13.1156 32.4987 13.1321 32.4979 13.1485C32.5265 13.7657 32.3127 14.3697 31.9022 14.8311C31.492 15.2926 30.9174 15.5751 30.3016 15.618V15.6128ZM38.5438 14.3569C38.3094 14.921 37.8652 15.372 37.3051 15.6145C37.0575 15.7248 36.792 15.7892 36.5215 15.8045C36.0558 15.8347 35.5916 15.7262 35.1877 15.4924C34.7836 15.2587 34.458 14.9102 34.2517 14.4912C34.0454 14.0721 33.968 13.6012 34.0291 13.1381C34.0901 12.6749 34.287 12.2403 34.5947 11.8892C34.9025 11.5379 35.3073 11.2861 35.7582 11.1652C36.2089 11.0444 36.6854 11.0602 37.1273 11.2104C37.5692 11.3606 37.9566 11.6386 38.2407 12.0092C38.5246 12.38 38.6926 12.8266 38.723 13.2927C38.7337 13.4315 38.7337 13.5708 38.723 13.7096C38.6958 13.9347 38.6355 14.1546 38.5438 14.3621V14.3569Z" fill="white"/>
<path d="M23.9671 16.1367C24.2941 16.1367 24.5592 15.8713 24.5592 15.5439C24.5592 15.2164 24.2941 14.9512 23.9671 14.9512C23.6401 14.9512 23.375 15.2164 23.375 15.5439C23.375 15.8713 23.6401 16.1367 23.9671 16.1367Z" fill="white"/>
<path opacity="0.15" d="M24.2021 16.0287C24.0321 16.0395 23.8652 15.9823 23.7375 15.8699C23.6096 15.7573 23.5316 15.5989 23.5203 15.4289C23.511 15.3067 23.5379 15.1843 23.5976 15.0771C23.4755 15.1755 23.3973 15.3181 23.3805 15.474C23.3634 15.6298 23.4089 15.786 23.5071 15.9083C23.6052 16.0305 23.7477 16.1088 23.9035 16.1257C24.0592 16.1427 24.2152 16.0972 24.3373 15.9988C24.2932 16.0133 24.2479 16.0233 24.2021 16.0287Z" fill="#23213D"/>
<path opacity="0.15" d="M24.2574 16.5537H25.2185L24.1221 18.4727L24.2574 16.5537Z" fill="#23213D"/>
<path opacity="0.15" d="M27.0741 21.3889C27.9497 21.8986 28.9201 22.2237 29.9258 22.344C30.8584 23.0753 32.004 23.4822 33.1886 23.5031C33.4509 23.5168 33.7136 23.4792 33.9617 23.3923L33.8809 21.5366L33.7052 21.6122C32.9198 21.9359 32.0852 22.0045 31.161 22.0344C30.9062 22.0344 30.6567 22.0344 30.409 22.0221C30.3106 22.0221 30.2175 22.0115 30.1243 21.9992C30.1033 22.0019 30.082 22.0019 30.0611 21.9992C29.9117 21.9816 29.7659 21.9588 29.6271 21.9359L29.4514 21.9007C28.6794 21.7538 27.9382 21.4754 27.2604 21.0775C27.24 21.0645 27.217 21.0557 27.1931 21.052C27.1692 21.0481 27.1448 21.0494 27.1214 21.0555C27.098 21.0615 27.0761 21.0724 27.0571 21.0875C27.0379 21.1025 27.0223 21.1211 27.0109 21.1426C26.9982 21.1628 26.99 21.1853 26.9865 21.2087C26.9828 21.2323 26.984 21.2562 26.99 21.2793C26.9958 21.3023 27.0063 21.3238 27.0207 21.3426C27.0353 21.3616 27.0534 21.3772 27.0741 21.3889Z" fill="#23213D"/>
<path d="M33.9866 17.6778C34.007 17.6782 34.0271 17.6838 34.0446 17.6943C34.062 17.7047 34.0766 17.7195 34.0866 17.7373C34.0968 17.755 34.1021 17.7751 34.1021 17.7955C34.1021 17.8159 34.097 17.8359 34.0868 17.8537C33.9273 18.1809 33.6779 18.456 33.3682 18.647C33.0584 18.8378 32.7008 18.9369 32.337 18.9321C31.9733 18.9275 31.6182 18.8197 31.3133 18.621C31.0085 18.4222 30.7664 18.1409 30.6149 17.8097C30.6047 17.7916 30.5994 17.771 30.5996 17.7501C30.6 17.7293 30.6058 17.7089 30.6165 17.691C30.6272 17.6731 30.6425 17.6583 30.6608 17.6483C30.679 17.6382 30.6996 17.6333 30.7203 17.6338L33.9866 17.6778Z" fill="white"/>
<path d="M76.1633 25.054C76.033 25.0292 75.898 25.0536 75.7843 25.1224C75.6708 25.1913 75.5868 25.2997 75.5484 25.4269L74.6224 28.4962C74.5895 28.6028 74.5256 28.6969 74.439 28.7669C74.3522 28.8368 74.2466 28.8792 74.1357 28.8885L67.5802 29.439C66.9073 29.496 66.2684 29.7606 65.752 30.1963C65.2355 30.632 64.8668 31.2173 64.6969 31.8717L63.9414 34.7282L69.202 36.7352L69.7589 34.8971C69.8023 34.7548 69.8828 34.6267 69.9921 34.5259C70.1016 34.4252 70.2356 34.3553 70.3809 34.3237L74.886 33.351C75.4136 33.2366 75.881 32.9316 76.1985 32.4943L80.591 26.5543C80.6699 26.4419 80.7019 26.3033 80.6803 26.1675C80.6587 26.0319 80.5851 25.91 80.4751 25.8279C80.3723 25.7565 80.2474 25.7239 80.1228 25.7361C79.9982 25.7484 79.8821 25.8047 79.7951 25.8947L77.8624 27.9914L78.9306 24.6125C78.9711 24.4744 78.9552 24.3259 78.8869 24.1995C78.8184 24.073 78.7028 23.9785 78.5652 23.937C78.4381 23.8988 78.3014 23.9085 78.1811 23.9643C78.0606 24.02 77.9648 24.118 77.9116 24.2396L75.8787 28.9588L76.5815 25.696C76.5966 25.6263 76.5978 25.5544 76.585 25.4842C76.572 25.414 76.5455 25.3472 76.5065 25.2875C76.4676 25.2277 76.4172 25.1764 76.3584 25.1363C76.2993 25.0962 76.2331 25.0682 76.1633 25.054Z" fill="#FC9D9D"/>
<g opacity="0.15">
<path opacity="0.15" d="M77.7311 29.1338C77.7657 29.1338 77.7995 29.1227 77.8273 29.1021C77.8551 29.0815 77.8757 29.0525 77.8859 29.0195L78.2482 27.7882C78.2559 27.7672 78.2595 27.7451 78.2584 27.7229C78.2572 27.7006 78.2515 27.679 78.2415 27.6591C78.2317 27.6392 78.2178 27.6214 78.2007 27.6072C78.1836 27.5929 78.1639 27.5822 78.1425 27.576C78.1212 27.5697 78.0989 27.5678 78.0767 27.5706C78.0547 27.5732 78.0334 27.5806 78.0143 27.5919C77.9953 27.6031 77.9786 27.6184 77.9655 27.6364C77.9525 27.6543 77.9434 27.6749 77.9386 27.6965L77.5763 28.9278C77.5701 28.9482 77.568 28.9695 77.5701 28.9908C77.5722 29.0119 77.5786 29.0323 77.5888 29.0509C77.599 29.0698 77.6127 29.0861 77.6292 29.0995C77.6458 29.1127 77.6649 29.1225 77.6853 29.1285C77.7003 29.132 77.7156 29.1338 77.7311 29.1338Z" fill="#23213D"/>
</g>
<path d="M69.5781 35.7713L64.9957 64.5356C64.8715 65.3584 64.5461 66.1378 64.0487 66.8046C63.9118 66.9923 63.7604 67.1687 63.5954 67.3323C62.868 68.0617 61.939 68.5562 60.9282 68.7518C60.5879 68.8186 60.2419 68.8522 59.8951 68.852C59.5454 68.8505 59.1968 68.8128 58.8549 68.7395L58.7231 68.7096C58.5914 68.6779 58.4613 68.641 58.3331 68.597L58.0836 68.5002L57.9536 68.4457C57.827 68.3929 57.7041 68.3349 57.5811 68.2698C57.4739 68.2135 57.3685 68.152 57.263 68.0939L57.1717 68.0341L56.9837 67.904L56.8976 67.8406C56.7706 67.7451 56.6484 67.6429 56.5321 67.5346C56.3427 67.3647 56.1665 67.1807 56.005 66.984L47.5906 56.7416L46.503 55.4171L46.7068 58.2191L47.8489 73.8563C46.526 74.4559 45.1655 74.9688 43.7761 75.3918C42.8014 75.6909 41.8059 75.9454 40.7891 76.1552C38.5146 76.6259 36.1978 76.8616 33.8752 76.8588H33.8594L35.5936 66.0219L36.2402 61.9763L36.6531 59.3924L37.0818 56.7099L38.3732 48.6187L40.1618 37.4617L40.2075 37.1714L39.6681 35.2559L38.2625 30.2675L37.4402 28.5912L35.8079 25.2598L36.1295 25.3319L36.5248 25.4198L37.6142 25.6626L40.1373 26.2254C40.9581 26.4073 41.7332 26.7554 42.4147 27.2484C43.0961 27.7417 43.6694 28.3692 44.0994 29.0925L49.6797 38.466L52.4681 43.1519L54.0881 45.8695L54.2322 46.1122L58.1749 52.7365L63.8818 34.2111L64.0715 34.2621L66.8389 35.0185L69.5043 35.7484L69.5781 35.7713Z" fill="#23213D"/>
<path d="M45.9958 49.9174C45.9875 49.8237 46.0104 49.7297 46.0608 49.6504C46.1111 49.5709 46.1863 49.5104 46.2746 49.478C46.363 49.4458 46.4595 49.4436 46.5491 49.4719C46.6389 49.5 46.7167 49.5572 46.7706 49.6342L57.6027 65.2274C59.4248 67.4437 62.3924 67.5809 64.4323 66.2071C62.7983 69.2132 58.4075 69.9009 55.9986 66.9811L46.5053 55.4142L45.9958 49.9174Z" fill="#110E38"/>
<path d="M42.6665 51.0116C42.2991 51.8119 42.1396 52.6923 42.2026 53.5709L42.4205 56.591L42.8615 62.6946L43.7787 75.389C42.8041 75.688 41.8084 75.9424 40.7917 76.1524C38.5171 76.6231 36.2004 76.8588 33.8778 76.856H33.862C32.0373 76.8563 30.2158 76.7086 28.4152 76.4145C26.9959 76.1867 25.5931 75.8659 24.2159 75.4541L20.867 49.6132L19.8128 41.4868L19.7829 41.2599L18.6356 32.4106L17.9327 27.0053L17.7852 25.869V25.8444L18.8394 25.5313L21.2992 24.7943H21.308L22.2463 24.5146C22.2463 24.5234 22.2463 24.5305 22.2463 24.5375C24.2387 31.5434 30.7275 35.3674 35.0726 34.502L35.2817 34.4563C37.3567 33.962 37.6871 32.2224 37.3726 30.3702C37.3357 30.1591 37.2917 29.9446 37.2408 29.7317C37.2408 29.7089 37.2285 29.686 37.2232 29.6649C37.2179 29.6438 37.2232 29.6561 37.2232 29.6508C37.1951 29.5365 37.1635 29.4239 37.1336 29.3096L37.0545 29.044C37.0405 29.0005 37.0264 28.9548 37.0124 28.9068C36.9825 28.8171 36.9544 28.7309 36.9228 28.6376C36.8911 28.5444 36.863 28.4618 36.8314 28.3703C36.7998 28.2788 36.7681 28.1944 36.7348 28.1064C36.7014 28.0185 36.6697 27.9305 36.6364 27.8514C36.5872 27.7265 36.538 27.6034 36.487 27.4838C36.4694 27.4398 36.4501 27.3976 36.4325 27.3554C36.364 27.1953 36.2955 27.0405 36.2287 26.8928C36.2076 26.847 36.1866 26.8048 36.169 26.7608C36.1514 26.7169 36.1092 26.636 36.0811 26.5761V26.5674C36.0161 26.4284 35.9511 26.2965 35.8896 26.1733C35.885 26.1656 35.8814 26.1573 35.8791 26.1487C35.8492 26.096 35.8228 26.0449 35.8 25.9939L35.7245 25.8515C35.7209 25.8441 35.7169 25.8369 35.7122 25.8304C35.6436 25.6984 35.5804 25.5806 35.5259 25.4786C35.5101 25.4434 35.4908 25.4117 35.4732 25.3801C35.3801 25.213 35.3168 25.1057 35.2975 25.0758L36.1286 25.2991L36.1374 25.3167L36.1514 25.3414L37.5676 27.8479L37.6396 27.9728L43.8314 38.9504C44.5467 40.3499 44.9361 41.8933 44.9701 43.465C45.0042 45.0366 44.6822 46.5956 44.0282 48.0249L42.6665 51.0116Z" fill="white"/>
<path opacity="0.15" d="M42.6653 51.0112C42.2979 51.8117 42.1384 52.6919 42.2014 53.5705L42.4193 56.5907L42.8603 62.6942L43.7775 75.3886C42.8029 75.6877 41.8073 75.9422 40.7905 76.152L40.5235 71.9675C40.437 70.6154 39.9347 69.3232 39.0852 68.2686C38.2358 67.2137 37.0811 66.448 35.7795 66.0767L35.5897 66.0222L27.3528 63.6722L26.1633 63.331L24.921 52.8775L24.7734 51.6304L26.1791 52.6576L36.412 60.1051L36.6422 59.3874L37.4065 57.0058L40.042 48.795L40.831 46.3324C41.6471 43.7916 41.5591 41.0462 40.5815 38.5631L40.1615 37.462L39.3744 35.4638L37.3696 30.3628C37.3327 30.1518 37.2888 29.9372 37.2378 29.7243C37.2378 29.6997 37.2255 29.6751 37.222 29.654C37.2213 29.6504 37.2213 29.6469 37.222 29.6434C37.1939 29.5291 37.1623 29.4165 37.1324 29.3022C37.1025 29.1878 37.0815 29.1263 37.0533 29.0366C37.0393 28.9931 37.0252 28.9474 37.0112 28.8994C36.9831 28.8097 36.9549 28.7235 36.9216 28.6303C36.8882 28.537 36.8618 28.4544 36.8302 28.3629C36.7986 28.2714 36.7669 28.187 36.7336 28.099C36.7002 28.0111 36.6685 27.9231 36.6352 27.844C36.586 27.7191 36.5368 27.596 36.4858 27.4764C36.4682 27.4324 36.4489 27.3902 36.4313 27.348C36.3628 27.1879 36.2961 27.0331 36.2275 26.8854C36.2064 26.8396 36.1854 26.7974 36.1678 26.7534C36.1502 26.7095 36.1098 26.6286 36.0799 26.5688V26.56C36.0149 26.421 35.9499 26.2891 35.8884 26.166C35.8839 26.1582 35.8803 26.1499 35.8779 26.1413C35.8498 26.0886 35.8234 26.0375 35.7988 25.9865L35.7233 25.8441C35.7197 25.8367 35.7157 25.8296 35.711 25.823C35.6442 25.691 35.5809 25.5732 35.5247 25.4712C35.5089 25.436 35.4896 25.4043 35.472 25.3727C35.3789 25.2056 35.3156 25.0983 35.2963 25.0684L36.1274 25.2918L36.1362 25.3093L36.1502 25.334L37.5664 27.8405L37.6384 27.9654L43.8302 38.9501C44.5455 40.3495 44.9349 41.893 44.9689 43.4648C45.003 45.0364 44.681 46.5954 44.027 48.0245L42.6653 51.0112Z" fill="#23213D"/>
<path opacity="0.06" d="M58.1818 52.7352L58.029 56.3709L54.2373 46.1074L58.1818 52.7352Z" fill="#23213D"/>
<path d="M24.1104 13.0122C24.1104 13.3514 24.3844 13.6261 24.7227 13.6261C25.0609 13.6261 25.335 13.3514 25.335 13.0122V9.82677C25.335 9.48782 25.0609 9.21289 24.7227 9.21289C24.3844 9.21289 24.1104 9.48782 24.1104 9.82677V13.0122Z" fill="#23213D"/>
<path d="M28.4158 76.4159C26.9966 76.1881 25.5938 75.8673 24.2165 75.4555C22.4396 74.9278 20.7094 74.2536 19.0438 73.4397C17.2022 72.5402 15.4455 71.4759 13.7955 70.2595L8.88635 36.2008C8.59925 34.2118 9.02357 32.1853 10.0846 30.4793C11.1457 28.7734 12.775 27.4978 14.6846 26.8783L15.0764 26.7517L17.7804 25.8722L18.8259 25.5345L21.2682 24.7412C21.2715 24.7599 21.2768 24.7781 21.284 24.7957C21.284 24.8204 21.3015 24.852 21.3156 24.8942C21.5475 25.6488 22.5894 29.2248 23.8984 36.7408C24.1527 38.1948 24.4157 39.8014 24.6873 41.5604C24.9087 43.0168 25.1354 44.581 25.3673 46.2533C25.6379 48.2303 25.9102 50.3657 26.1843 52.6594C26.237 53.1079 26.2915 53.5635 26.3442 54.0244C26.6851 56.9782 27.0207 60.1948 27.351 63.674C27.726 67.5729 28.0809 71.8203 28.4158 76.4159Z" fill="#23213D"/>
<path d="M60.1135 21.8426C60.2048 21.939 60.2574 22.0659 60.2611 22.1987C60.2646 22.3315 60.2189 22.4609 60.1328 22.5621L58.0577 25.0035C57.9857 25.0886 57.9407 25.1935 57.929 25.3045C57.917 25.4156 57.9386 25.5275 57.991 25.6262L61.0798 31.4413C61.3965 32.0384 61.52 32.7193 61.4334 33.3897C61.3469 34.0602 61.0545 34.6873 60.5967 35.1843L58.6114 37.3672L54.0765 34.0252L55.317 32.5617C55.4132 32.4485 55.4777 32.3113 55.5034 32.1647C55.529 32.018 55.515 31.8673 55.4626 31.728L53.8393 27.4097C53.6495 26.9033 53.6527 26.3449 53.8481 25.8408L56.4536 18.9193C56.5054 18.7924 56.6043 18.6906 56.7296 18.6355C56.8547 18.5803 56.9965 18.5761 57.1248 18.6237C57.2421 18.6697 57.3386 18.7567 57.3962 18.8688C57.4539 18.9808 57.4684 19.1101 57.4377 19.2323L56.7349 22.0009L58.9925 19.2728C59.0867 19.1637 59.22 19.0964 59.3636 19.0855C59.5071 19.0746 59.6493 19.121 59.7587 19.2148C59.8594 19.3011 59.9249 19.4216 59.943 19.5532C59.9613 19.6848 59.9306 19.8183 59.8571 19.9289L56.9947 24.1944L59.3527 21.8321C59.4035 21.7827 59.4632 21.7438 59.5289 21.7176C59.5944 21.6914 59.6647 21.6785 59.7354 21.6794C59.806 21.6805 59.8757 21.6954 59.9408 21.7234C60.0056 21.7514 60.0643 21.7918 60.1135 21.8426Z" fill="#FC9D9D"/>
<g opacity="0.15">
<path opacity="0.15" d="M55.8333 22.7377C55.8144 22.7083 55.8056 22.6735 55.808 22.6386C55.8107 22.6036 55.8244 22.5706 55.8474 22.5442L56.6785 21.5768C56.706 21.5444 56.7456 21.5243 56.7881 21.521C56.8306 21.5177 56.8726 21.5314 56.9049 21.5592C56.9374 21.587 56.9575 21.6264 56.9608 21.6689C56.964 21.7115 56.9503 21.7537 56.9227 21.7861L56.0914 22.7553C56.0633 22.7876 56.0236 22.8075 55.9809 22.8108C55.9382 22.8142 55.8959 22.8005 55.8632 22.7729C55.8518 22.7625 55.8418 22.7505 55.8333 22.7377Z" fill="#23213D"/>
</g>
<path d="M9.36224 36.5367L10.2777 41.1099L36.2273 61.9571C36.9202 62.5145 37.7243 62.9168 38.5856 63.1369C39.4468 63.3571 40.3452 63.3898 41.2202 63.2329C42.095 63.076 42.9263 62.7332 43.6578 62.2276C44.3892 61.7221 45.004 61.0653 45.4605 60.3019C50.6701 51.6144 59.5888 36.695 59.6661 36.4575C59.7082 36.3396 59.1706 35.819 58.452 35.1928L58.4309 35.1752C57.1113 34.0231 55.2085 32.5262 55.2085 32.5262L39.418 49.4773L18.3336 32.1709L15.0743 26.748C13.0873 27.3931 11.4062 28.7466 10.3507 30.5514C9.2953 32.3561 8.93915 34.4862 9.34994 36.5367H9.36224Z" fill="#23213D"/>
<path d="M59.6646 36.4594C59.6206 36.5825 57.1661 40.7108 54.0878 45.8645C52.6329 48.3042 51.0376 50.9655 49.4896 53.5582C48.843 54.6417 48.2052 55.7094 47.5867 56.7384C47.288 57.2415 46.9953 57.734 46.7082 58.216L45.459 60.3021C45.0034 61.0637 44.3903 61.7189 43.6612 62.2239C42.9318 62.7289 42.103 63.0719 41.2305 63.23C40.358 63.388 39.4617 63.3576 38.6018 63.1405C37.7421 62.9233 36.9384 62.5247 36.2451 61.9713C36.2389 61.9671 36.233 61.9624 36.2275 61.9573L26.3548 54.0226L24.9298 52.8775L20.8658 49.6129L13.5214 43.7081C13.3717 43.5897 13.1888 43.5209 12.9983 43.5111C12.8077 43.5012 12.6188 43.551 12.4577 43.6534C12.2966 43.7557 12.1713 43.9058 12.0991 44.0825C12.0267 44.2593 12.0111 44.4542 12.0543 44.6403C12.0543 44.6491 12.0543 44.6561 12.0543 44.6649L19.0438 73.4468C17.2019 72.545 15.4453 71.4783 13.7955 70.2595L8.88635 36.2008C8.59925 34.2118 9.02357 32.1853 10.0846 30.4793C11.1457 28.7734 12.775 27.4978 14.6846 26.8783L15.0764 26.7517L17.7804 25.8722L18.8259 25.5345L21.2682 24.7412C21.2736 24.7599 21.2819 24.7778 21.2928 24.794C21.3033 24.8168 21.3174 24.845 21.3332 24.8819L21.3156 24.8942L17.9263 27.005L16.2817 28.0445L16.2149 28.085C16.1341 28.136 16.0568 28.1888 15.9795 28.2433C12.9152 30.3998 12.6622 34.9097 15.4928 37.4374L19.7799 41.2596L20.105 41.5498L25.3761 46.2515L37.085 56.705L37.4206 57.0058L37.6894 57.245C38.013 57.5336 38.3929 57.7518 38.8051 57.8858C39.2173 58.0196 39.6529 58.0663 40.084 58.0228C40.5152 57.9794 40.9325 57.8466 41.3097 57.633C41.687 57.4195 42.0159 57.1298 42.2752 56.7824L42.4176 56.5907L46.1495 51.6023L47.1896 50.225L52.4801 43.147L57.4472 36.5069L58.4434 35.1754L58.4628 35.1947C58.8701 35.5282 59.2496 35.8941 59.5978 36.2888C59.654 36.3697 59.6804 36.4277 59.6646 36.4594Z" fill="#110E38"/>
<path d="M31.3766 4.46424C31.3761 4.76449 31.3532 5.06439 31.3081 5.36131C31.0953 6.69548 30.4178 7.91127 29.3952 8.79321C28.3728 9.67515 27.0713 10.1661 25.7218 10.1794C24.3722 10.1926 23.0614 9.72739 22.022 8.86568C20.9824 8.00414 20.2809 6.80189 20.042 5.47212C21.7481 2.30599 24.8791 0.133681 28.4845 0C28.6005 0 28.7182 0 28.8359 0C28.9537 0 29.1012 -4.29197e-07 29.2313 0.0105533C29.6468 0.330332 30.0142 0.708333 30.3224 1.13277C31.0154 2.10442 31.3842 3.27025 31.3766 4.46424Z" fill="#23213D"/>
<path d="M38.3915 7.20694C37.5205 7.61678 36.5605 7.79989 35.6001 7.73921C34.6397 7.6787 33.7102 7.37633 32.8976 6.86025C32.0852 6.344 31.4159 5.63092 30.9521 4.78697C30.4882 3.94302 30.2447 2.99529 30.2441 2.03209C30.2464 1.73078 30.2723 1.43035 30.3215 1.13326C30.3743 0.797299 30.458 0.467143 30.571 0.146484C34.1869 0.821925 37.151 3.56062 38.3915 7.20694Z" fill="#23213D"/>
<path d="M45.2869 127C56.5289 127 65.6421 117.877 65.6421 106.623C65.6421 95.3685 56.5289 86.2451 45.2869 86.2451C34.045 86.2451 24.9316 95.3685 24.9316 106.623C24.9316 117.877 34.045 127 45.2869 127Z" fill="#B2B6BB"/>
<path d="M64.5751 110.694V119.507C64.576 119.745 64.53 119.982 64.4395 120.202C64.3488 120.423 64.2156 120.623 64.0477 120.792C63.8795 120.961 63.6796 121.095 63.4596 121.187C63.2396 121.278 63.0036 121.325 62.7654 121.325H37.6398C35.9926 121.325 34.4127 120.67 33.2479 119.504C32.083 118.338 31.4287 116.757 31.4287 115.108C31.4287 113.459 32.083 111.877 33.2479 110.711C34.4127 109.545 35.9926 108.89 37.6398 108.89H62.7654C63.2454 108.89 63.7057 109.081 64.045 109.42C64.3845 109.76 64.5751 110.221 64.5751 110.701V110.694Z" fill="#23213D"/>
<path d="M64.5755 110.189V119.002C64.5764 119.24 64.5304 119.476 64.44 119.696C64.3497 119.917 64.2169 120.117 64.0491 120.286C63.8813 120.455 63.6819 120.589 63.4624 120.681C63.2428 120.773 63.0072 120.82 62.7693 120.821H37.6437C35.9963 120.821 34.4166 120.166 33.2518 118.999C32.0869 117.833 31.4326 116.252 31.4326 114.603C31.4326 112.954 32.0869 111.372 33.2518 110.206C34.4166 109.04 35.9963 108.385 37.6437 108.385H62.7693C63.2491 108.385 63.7095 108.576 64.0489 108.915C64.3884 109.255 64.579 109.716 64.579 110.196L64.5755 110.189Z" fill="#2B3048"/>
<path d="M45.5904 110.084V119.426H42.5279C42.2717 119.426 42.0259 119.324 41.8446 119.142C41.6634 118.961 41.5615 118.715 41.5615 118.458V111.051C41.5615 110.795 41.6634 110.549 41.8446 110.367C42.0259 110.186 42.2717 110.084 42.5279 110.084H45.5904Z" fill="#D60BC8"/>
<path d="M49.6197 119.421V110.086H45.5908V119.421H49.6197Z" fill="#D60BC8"/>
<path d="M53.65 119.421V110.086H49.6211V119.421H53.65Z" fill="#D60BC8"/>
<path d="M57.6793 119.421V110.086H53.6504V119.421H57.6793Z" fill="#D60BC8"/>
<path d="M61.7095 111.053V118.453C61.7095 118.71 61.6076 118.956 61.4265 119.137C61.2452 119.319 60.9993 119.421 60.7432 119.421H57.6807V110.086H60.7397C60.8669 110.085 60.9928 110.11 61.1106 110.159C61.2281 110.207 61.3351 110.278 61.4253 110.368C61.5152 110.458 61.5867 110.565 61.6356 110.682C61.6844 110.8 61.7095 110.926 61.7095 111.053Z" fill="#D60BC8"/>
<path opacity="0.15" d="M60.7411 110.086H42.5259C42.2696 110.086 42.0238 110.188 41.8426 110.369C41.6613 110.551 41.5596 110.797 41.5596 111.053V118.455C41.5596 118.712 41.6613 118.958 41.8426 119.139C42.0238 119.32 42.2696 119.422 42.5259 119.422H60.7411C60.9974 119.422 61.2433 119.32 61.4244 119.139C61.6057 118.958 61.7075 118.712 61.7075 118.455V111.053C61.7075 110.797 61.6057 110.551 61.4244 110.369C61.2433 110.188 60.9974 110.086 60.7411 110.086Z" fill="#23213D"/>
<path opacity="0.2" d="M49.6197 119.421V110.086H45.5908V119.421H49.6197Z" fill="white"/>
<path opacity="0.4" d="M53.65 119.421V110.086H49.6211V119.421H53.65Z" fill="white"/>
<path opacity="0.6" d="M57.6793 119.421V110.086H53.6504V119.421H57.6793Z" fill="white"/>
<path opacity="0.8" d="M61.7095 111.053V118.453C61.7095 118.71 61.6076 118.956 61.4265 119.137C61.2452 119.319 60.9993 119.421 60.7432 119.421H57.6807V110.086H60.7397C60.8669 110.085 60.9928 110.11 61.1106 110.159C61.2281 110.207 61.3351 110.278 61.4253 110.368C61.5152 110.458 61.5867 110.565 61.6356 110.682C61.6844 110.8 61.7095 110.926 61.7095 111.053Z" fill="white"/>
<path d="M36.6718 117.057C37.943 117.057 38.9735 116.025 38.9735 114.752C38.9735 113.48 37.943 112.448 36.6718 112.448C35.4006 112.448 34.3701 113.48 34.3701 114.752C34.3701 116.025 35.4006 117.057 36.6718 117.057Z" fill="#B2B6BB"/>
<path d="M36.6727 116.006C37.3646 116.006 37.9255 115.445 37.9255 114.752C37.9255 114.06 37.3646 113.498 36.6727 113.498C35.9808 113.498 35.4199 114.06 35.4199 114.752C35.4199 115.445 35.9808 116.006 36.6727 116.006Z" fill="#23213D"/>
<path d="M53.5385 92.1313L59.7629 98.3625C60.1024 98.7022 60.293 99.1631 60.293 99.6436C60.293 100.124 60.1024 100.585 59.7629 100.925L41.9965 118.711C40.8316 119.877 39.2519 120.532 37.6047 120.532C35.9573 120.532 34.3775 119.877 33.2126 118.711C32.0479 117.545 31.3936 115.963 31.3936 114.314C31.3936 112.665 32.0479 111.083 33.2126 109.917L50.9792 92.1313C51.3185 91.7914 51.7788 91.6006 52.2588 91.6006C52.7389 91.6006 53.199 91.7914 53.5385 92.1313Z" fill="#23213D"/>
<path d="M53.1734 91.768L59.3979 97.9993C59.7372 98.3391 59.9278 98.7999 59.9278 99.2805C59.9278 99.7609 59.7372 100.222 59.3979 100.562L41.6313 118.347C40.4666 119.513 38.8868 120.169 37.2394 120.169C35.5922 120.169 34.0123 119.513 32.8476 118.347C31.6828 117.181 31.0283 115.6 31.0283 113.951C31.0283 112.302 31.6828 110.72 32.8476 109.554L50.614 91.768C50.9534 91.4283 51.4138 91.2373 51.8936 91.2373C52.3736 91.2373 52.834 91.4283 53.1734 91.768Z" fill="#2B3048"/>
<path d="M39.683 105.14L46.2764 111.74L44.1109 113.908C43.9295 114.09 43.6837 114.192 43.4276 114.192C43.1712 114.192 42.9254 114.09 42.7442 113.908L37.5174 108.676C37.3361 108.494 37.2344 108.248 37.2344 107.992C37.2344 107.735 37.3361 107.489 37.5174 107.308L39.683 105.14Z" fill="#23213D"/>
<path d="M49.123 108.889L42.5295 102.288L39.6807 105.14L46.2741 111.741L49.123 108.889Z" fill="#23213D"/>
<path d="M51.9716 106.035L45.3782 99.4346L42.5293 102.287L49.1229 108.887L51.9716 106.035Z" fill="#23213D"/>
<path d="M54.8241 103.183L48.2307 96.582L45.3818 99.434L51.9753 106.035L54.8241 103.183Z" fill="#23213D"/>
<path d="M51.7626 94.4132L56.9895 99.6458C57.1706 99.8272 57.2725 100.073 57.2725 100.33C57.2725 100.586 57.1706 100.832 56.9895 101.014L54.8239 103.182L48.2305 96.5812L50.396 94.4132C50.5772 94.2317 50.823 94.1299 51.0793 94.1299C51.3357 94.1299 51.5813 94.2317 51.7626 94.4132Z" fill="#23213D"/>
<path opacity="0.2" d="M49.123 108.889L42.5295 102.288L39.6807 105.14L46.2741 111.741L49.123 108.889Z" fill="white"/>
<path opacity="0.4" d="M51.9716 106.035L45.3782 99.4346L42.5293 102.287L49.1229 108.887L51.9716 106.035Z" fill="white"/>
<path opacity="0.6" d="M54.8241 103.183L48.2307 96.582L45.3818 99.434L51.9753 106.035L54.8241 103.183Z" fill="white"/>
<path opacity="0.8" d="M51.7626 94.4132L56.9895 99.6458C57.1706 99.8272 57.2725 100.073 57.2725 100.33C57.2725 100.586 57.1706 100.832 56.9895 101.014L54.8239 103.182L48.2305 96.5812L50.396 94.4132C50.5772 94.2317 50.823 94.1299 51.0793 94.1299C51.3357 94.1299 51.5813 94.2317 51.7626 94.4132Z" fill="white"/>
<path d="M36.6718 117.057C37.943 117.057 38.9735 116.025 38.9735 114.752C38.9735 113.48 37.943 112.448 36.6718 112.448C35.4006 112.448 34.3701 113.48 34.3701 114.752C34.3701 116.025 35.4006 117.057 36.6718 117.057Z" fill="#B2B6BB"/>
<path d="M36.6727 116.006C37.3646 116.006 37.9255 115.445 37.9255 114.752C37.9255 114.06 37.3646 113.498 36.6727 113.498C35.9808 113.498 35.4199 114.06 35.4199 114.752C35.4199 115.445 35.9808 116.006 36.6727 116.006Z" fill="#23213D"/>
<path d="M32.6193 86.8184H41.4221C41.9019 86.8184 42.3622 87.0092 42.7017 87.3489C43.041 87.6887 43.2318 88.1495 43.2318 88.6301V113.783C43.2318 115.432 42.5773 117.014 41.4126 118.18C40.2476 119.346 38.6679 120.001 37.0207 120.001C35.3733 120.001 33.7935 119.346 32.6286 118.18C31.4639 117.014 30.8096 115.432 30.8096 113.783V88.6301C30.8096 88.1495 31.0002 87.6887 31.3395 87.3489C31.679 87.0092 32.1393 86.8184 32.6193 86.8184Z" fill="#23213D"/>
<path d="M32.1144 86.8184H40.9172C41.3972 86.8184 41.8575 87.0092 42.197 87.3489C42.5363 87.6887 42.7269 88.1495 42.7269 88.6301V113.783C42.7269 115.432 42.0726 117.014 40.9078 118.18C39.7429 119.346 38.1632 120.001 36.5158 120.001C34.8686 120.001 33.2888 119.346 32.1239 118.18C30.9592 117.014 30.3047 115.432 30.3047 113.783V88.6301C30.3047 88.1495 30.4955 87.6887 30.8348 87.3489C31.1742 87.0092 31.6346 86.8184 32.1144 86.8184Z" fill="#D60BC8"/>
<path d="M32.1144 86.8184H40.9172C41.3972 86.8184 41.8575 87.0092 42.197 87.3489C42.5363 87.6887 42.7269 88.1495 42.7269 88.6301V113.783C42.7269 115.432 42.0726 117.014 40.9078 118.18C39.7429 119.346 38.1632 120.001 36.5158 120.001C34.8686 120.001 33.2888 119.346 32.1239 118.18C30.9592 117.014 30.3047 115.432 30.3047 113.783V88.6301C30.3047 88.1495 30.4955 87.6887 30.8348 87.3489C31.1742 87.0092 31.6346 86.8184 32.1144 86.8184Z" fill="#2B3048"/>
<path d="M32.0098 105.825H41.3343V108.891C41.3343 109.148 41.2324 109.394 41.0513 109.575C40.87 109.757 40.6241 109.858 40.368 109.858H32.9761C32.7198 109.858 32.474 109.757 32.2928 109.575C32.1115 109.394 32.0098 109.148 32.0098 108.891V105.825Z" fill="#D60BC8"/>
<path d="M41.3343 101.791H32.0098V105.824H41.3343V101.791Z" fill="#D60BC8"/>
<path d="M41.3343 97.7578H32.0098V101.791H41.3343V97.7578Z" fill="#D60BC8"/>
<path d="M41.3343 93.7227H32.0098V97.7559H41.3343V93.7227Z" fill="#D60BC8"/>
<path d="M32.9762 89.6895H40.368C40.6242 89.6895 40.87 89.7913 41.0513 89.9728C41.2325 90.1542 41.3344 90.4002 41.3344 90.6569V93.7227H32.0098V90.6639C32.0089 90.5362 32.0332 90.4097 32.0813 90.2915C32.1294 90.1733 32.2004 90.0659 32.2904 89.9753C32.3802 89.8847 32.487 89.8128 32.6047 89.7637C32.7224 89.7146 32.8486 89.6895 32.9762 89.6895Z" fill="#D60BC8"/>
<path opacity="0.2" d="M41.3343 101.791H32.0098V105.824H41.3343V101.791Z" fill="white"/>
<path opacity="0.4" d="M41.3343 97.7578H32.0098V101.791H41.3343V97.7578Z" fill="white"/>
<path opacity="0.6" d="M41.3343 93.7227H32.0098V97.7559H41.3343V93.7227Z" fill="white"/>
<path opacity="0.8" d="M32.9762 89.6895H40.368C40.6242 89.6895 40.87 89.7913 41.0513 89.9728C41.2325 90.1542 41.3344 90.4002 41.3344 90.6569V93.7227H32.0098V90.6639C32.0089 90.5362 32.0332 90.4097 32.0813 90.2915C32.1294 90.1733 32.2004 90.0659 32.2904 89.9753C32.3802 89.8847 32.487 89.8128 32.6047 89.7637C32.7224 89.7146 32.8486 89.6895 32.9762 89.6895Z" fill="white"/>
<path d="M36.6718 117.057C37.943 117.057 38.9735 116.025 38.9735 114.752C38.9735 113.48 37.943 112.448 36.6718 112.448C35.4006 112.448 34.3701 113.48 34.3701 114.752C34.3701 116.025 35.4006 117.057 36.6718 117.057Z" fill="#23213D"/>
<path d="M36.6727 116.006C37.3646 116.006 37.9255 115.445 37.9255 114.752C37.9255 114.06 37.3646 113.498 36.6727 113.498C35.9808 113.498 35.4199 114.06 35.4199 114.752C35.4199 115.445 35.9808 116.006 36.6727 116.006Z" fill="#2B3048"/>
<path d="M102.039 109.052H84.4375C81.9532 109.052 79.9395 111.068 79.9395 113.555V131.176C79.9395 133.663 81.9532 135.679 84.4375 135.679H102.039C104.524 135.679 106.537 133.663 106.537 131.176V113.555C106.537 111.068 104.524 109.052 102.039 109.052Z" fill="#D60BC8"/>
<path opacity="0.15" d="M102.039 109.052H84.4375C81.9532 109.052 79.9395 111.068 79.9395 113.555V131.176C79.9395 133.663 81.9532 135.679 84.4375 135.679H102.039C104.524 135.679 106.537 133.663 106.537 131.176V113.555C106.537 111.068 104.524 109.052 102.039 109.052Z" fill="#23213D"/>
<path d="M101.044 109.052H83.4425C80.9582 109.052 78.9443 111.068 78.9443 113.555V131.176C78.9443 133.663 80.9582 135.679 83.4425 135.679H101.044C103.529 135.679 105.542 133.663 105.542 131.176V113.555C105.542 111.068 103.529 109.052 101.044 109.052Z" fill="#D60BC8"/>
<path d="M100.167 115.437H84.6665C84.633 115.437 84.6008 115.424 84.5771 115.4C84.5534 115.376 84.54 115.344 84.54 115.31C84.54 115.277 84.5534 115.244 84.5771 115.221C84.6008 115.197 84.633 115.184 84.6665 115.184H100.167C100.201 115.184 100.233 115.197 100.257 115.221C100.28 115.244 100.294 115.277 100.294 115.31C100.294 115.344 100.28 115.376 100.257 115.4C100.233 115.424 100.201 115.437 100.167 115.437Z" fill="white"/>
<path d="M93.058 117.592H91.7964C91.127 120.965 89.5246 124.262 87.2773 126.46L89.4736 129.873H95.3808L97.5753 126.46C95.3333 124.26 93.7274 120.965 93.058 117.592ZM92.4272 127.484C92.1492 127.484 91.8774 127.402 91.6464 127.247C91.4151 127.092 91.2351 126.873 91.1286 126.615C91.0223 126.358 90.9943 126.075 91.0486 125.802C91.1029 125.529 91.2368 125.279 91.4334 125.082C91.6299 124.885 91.8804 124.751 92.1531 124.697C92.4258 124.643 92.7083 124.67 92.9652 124.777C93.2221 124.883 93.4415 125.064 93.596 125.295C93.7504 125.527 93.8328 125.799 93.8328 126.077C93.8328 126.45 93.6849 126.808 93.4212 127.072C93.1576 127.336 92.8 127.484 92.4272 127.484Z" fill="white"/>
<path d="M92.608 117.592H92.2422V123.477H92.608V117.592Z" fill="#D60BC8"/>
<path d="M95.3288 129.873H89.4727V131.287H95.3288V129.873Z" fill="#D60BC8"/>
<path d="M100.167 122.635C100.136 122.635 100.105 122.623 100.082 122.601C100.059 122.579 100.045 122.55 100.042 122.518C99.9256 120.727 99.1808 119.034 97.9391 117.738C96.6974 116.442 95.0386 115.626 93.255 115.435C93.222 115.431 93.1918 115.415 93.171 115.389C93.1503 115.362 93.1406 115.329 93.1443 115.296C93.1482 115.263 93.1649 115.233 93.1909 115.212C93.2169 115.191 93.2501 115.182 93.2833 115.185C95.1236 115.387 96.8344 116.231 98.116 117.568C99.3978 118.906 100.169 120.652 100.294 122.501C100.296 122.534 100.284 122.567 100.262 122.592C100.24 122.617 100.209 122.632 100.176 122.635H100.167Z" fill="white"/>
<path d="M84.6855 122.637C84.669 122.636 84.6527 122.632 84.6376 122.625C84.6226 122.618 84.6091 122.608 84.598 122.595C84.5872 122.583 84.5787 122.568 84.5736 122.552C84.5684 122.536 84.5664 122.52 84.5678 122.503C84.697 120.655 85.4694 118.912 86.7502 117.575C88.0313 116.239 89.7398 115.395 91.5784 115.189C91.6116 115.186 91.6448 115.195 91.6708 115.216C91.6968 115.237 91.7135 115.267 91.7172 115.3C91.7209 115.333 91.7114 115.367 91.6907 115.393C91.6699 115.419 91.6395 115.435 91.6065 115.439C89.824 115.632 88.1664 116.448 86.9251 117.743C85.6837 119.038 84.938 120.73 84.8191 122.521C84.8159 122.553 84.8005 122.584 84.7755 122.605C84.7507 122.627 84.7184 122.638 84.6855 122.637Z" fill="white"/>
<path d="M91.583 116.211H93.2698V115.31V114.522H91.583V115.31V116.211Z" fill="#D60BC8"/>
<path d="M83.8242 116.211H85.511V115.31V114.522H83.8242V115.31V116.211Z" fill="#D60BC8"/>
<path d="M99.3418 116.211H101.029V115.31V114.522H99.3418V115.31V116.211Z" fill="#D60BC8"/>
<path d="M99.3418 124.198H101.029V122.51H99.3418V124.198Z" fill="#D60BC8"/>
<path d="M83.8223 124.198H85.509V122.51H83.8223V124.198Z" fill="#D60BC8"/>
<g opacity="0.2">
<path opacity="0.2" d="M92.608 117.592H92.2422V123.477H92.608V117.592Z" fill="#23213D"/>
</g>
<g opacity="0.2">
<path opacity="0.2" d="M95.3288 129.873H89.4727V131.287H95.3288V129.873Z" fill="#23213D"/>
</g>
<g opacity="0.2">
<path opacity="0.2" d="M91.583 116.211H93.2698V115.31V114.522H91.583V115.31V116.211Z" fill="#23213D"/>
</g>
<g opacity="0.2">
<path opacity="0.2" d="M83.8242 116.211H85.511V115.31V114.522H83.8242V115.31V116.211Z" fill="#23213D"/>
</g>
<g opacity="0.2">
<path opacity="0.2" d="M99.3418 116.211H101.029V115.31V114.522H99.3418V115.31V116.211Z" fill="#23213D"/>
</g>
<g opacity="0.2">
<path opacity="0.2" d="M99.3418 124.198H101.029V122.51H99.3418V124.198Z" fill="#23213D"/>
</g>
<g opacity="0.2">
<path opacity="0.2" d="M83.8223 124.198H85.509V122.51H83.8223V124.198Z" fill="#23213D"/>
</g>
<path d="M166.713 22.1709H149.111C146.627 22.1709 144.613 24.187 144.613 26.6738V44.2951C144.613 46.7821 146.627 48.798 149.111 48.798H166.713C169.198 48.798 171.211 46.7821 171.211 44.2951V26.6738C171.211 24.187 169.198 22.1709 166.713 22.1709Z" fill="#D60BC8"/>
<path opacity="0.15" d="M166.713 22.1709H149.111C146.627 22.1709 144.613 24.187 144.613 26.6738V44.2951C144.613 46.7821 146.627 48.798 149.111 48.798H166.713C169.198 48.798 171.211 46.7821 171.211 44.2951V26.6738C171.211 24.187 169.198 22.1709 166.713 22.1709Z" fill="#23213D"/>
<path d="M165.718 22.1709H148.116C145.632 22.1709 143.618 24.187 143.618 26.6738V44.2951C143.618 46.7821 145.632 48.798 148.116 48.798H165.718C168.203 48.798 170.216 46.7821 170.216 44.2951V26.6738C170.216 24.187 168.203 22.1709 165.718 22.1709Z" fill="#D60BC8"/>
<g opacity="0.8">
<path opacity="0.8" d="M161.29 37.6314C164.149 37.6314 166.467 35.3113 166.467 32.4495C166.467 29.5876 164.149 27.2676 161.29 27.2676C158.432 27.2676 156.114 29.5876 156.114 32.4495C156.114 35.3113 158.432 37.6314 161.29 37.6314Z" fill="white"/>
</g>
<g opacity="0.42">
<path opacity="0.42" d="M153.54 37.4253C156.399 37.4253 158.717 35.1052 158.717 32.2434C158.717 29.3816 156.399 27.0615 153.54 27.0615C150.682 27.0615 148.364 29.3816 148.364 32.2434C148.364 35.1052 150.682 37.4253 153.54 37.4253Z" fill="white"/>
</g>
<path d="M158.311 30.2278C158.111 29.7511 157.84 29.3077 157.508 28.9121C156.647 29.837 156.153 31.0452 156.122 32.3087C156.09 33.5723 156.521 34.8041 157.332 35.772C158.012 35.0407 158.466 34.1281 158.64 33.1445C158.814 32.1609 158.699 31.1481 158.311 30.2278Z" fill="#D60BC8"/>
<path d="M162.334 39.9492C162.822 37.1294 160.935 34.4468 158.119 33.9571C155.302 33.4676 152.623 35.3565 152.133 38.1761C151.644 40.9959 153.531 43.6785 156.348 44.1682C159.164 44.6577 161.844 42.7688 162.334 39.9492Z" fill="white"/>
<path d="M162.185 37.5536C161.818 36.3429 161.02 35.3088 159.942 34.6471C158.865 33.9854 157.584 33.7416 156.338 33.9618C156.707 35.172 157.505 36.2056 158.582 36.8673C159.659 37.529 160.941 37.773 162.185 37.5536Z" fill="#D60BC8"/>
<path d="M153.11 35.9374C152.797 36.3485 152.548 36.8044 152.372 37.2901C153.604 37.5794 154.897 37.4068 156.011 36.8053C157.123 36.2037 157.977 35.2148 158.411 34.0254C157.438 33.7968 156.419 33.8559 155.477 34.1952C154.537 34.5345 153.714 35.1397 153.11 35.9374Z" fill="#D60BC8"/>
<path d="M157.325 35.7844C157.799 35.2768 158.166 34.6784 158.404 34.0255C158.363 34.0149 158.323 34.0079 158.281 33.9991L158.21 33.985L158.079 33.9604L157.987 33.9463L157.861 33.9305C157.797 33.9217 157.734 33.9164 157.671 33.9111L157.56 33.9023H157.439H157.335H157.063L156.887 33.9111H156.808C156.747 33.9111 156.685 33.9217 156.624 33.9287H156.58C156.504 33.9375 156.429 33.9498 156.353 33.9621H156.332C156.536 34.6302 156.875 35.2501 157.325 35.7844Z" fill="white"/>
<path d="M217 119.081C217.007 126.263 215.122 133.319 211.537 139.539C207.953 145.76 202.794 150.926 196.581 154.514C196.132 154.778 195.673 155.031 195.213 155.277L194.824 155.479C189.13 158.415 182.822 159.965 176.418 160H176.122C175.595 160 175.079 159.989 174.56 159.972C170.012 159.805 165.524 158.874 161.283 157.221C160.09 156.751 158.923 156.232 157.784 155.662L157.742 155.64C153.98 153.738 150.535 151.269 147.525 148.315C146.704 147.506 145.914 146.662 145.153 145.782C138.753 138.362 135.238 128.883 135.25 119.08C135.25 101.392 146.458 86.326 162.156 80.6129C163.621 80.078 165.118 79.6293 166.636 79.2691C166.837 79.2198 167.039 79.1723 167.241 79.1284C170.157 78.483 173.137 78.1581 176.126 78.1592C177.405 78.1592 178.67 78.2179 179.921 78.3351C180.121 78.3527 180.32 78.3738 180.52 78.3949C182.611 78.6179 184.681 79.0031 186.712 79.547C204.152 84.217 217 100.148 217 119.081Z" fill="#5C687E"/>
<path d="M165.535 84.3031C165.407 84.2697 165.279 84.231 165.152 84.1888C162.768 83.392 161.837 81.1053 162.092 78.7237C162.619 73.7388 166.946 71.5524 172.133 74.1504C177.32 76.7484 179.402 71.76 182.712 73.4592C186.022 75.1583 184.82 78.6622 184.82 78.6622C184.82 78.6622 187.089 78.4001 188.521 82.7552C189.953 87.1104 185.147 92.7972 182.464 94.6775C179.781 96.5578 177.427 81.6928 177.427 81.6928C175.832 82.3732 174.199 82.9679 172.541 83.4747C170.343 84.1554 167.856 84.9153 165.535 84.3031Z" fill="#23213D"/>
<path d="M109.818 127.702L106.373 126.337L101.847 126.546C101.763 126.546 101.68 126.566 101.606 126.606C101.533 126.645 101.469 126.702 101.423 126.772C101.376 126.841 101.347 126.921 101.339 127.005C101.33 127.088 101.342 127.172 101.374 127.25C101.423 127.372 101.506 127.477 101.614 127.553C101.722 127.628 101.85 127.669 101.982 127.672L106.199 127.881L108.529 129.354L106.199 127.881L102.449 128.057C102.382 128.059 102.315 128.076 102.254 128.106C102.194 128.137 102.141 128.18 102.099 128.234C102.057 128.287 102.028 128.349 102.013 128.415C101.998 128.481 101.997 128.55 102.012 128.617C102.05 128.736 102.128 128.839 102.231 128.909C102.335 128.979 102.46 129.012 102.585 129.004L106.301 129.179L109.678 131.281L106.301 129.179L103.53 129.6C103.485 129.608 103.442 129.626 103.404 129.652C103.366 129.679 103.335 129.714 103.313 129.754C103.29 129.794 103.277 129.839 103.274 129.885C103.271 129.931 103.278 129.977 103.294 130.02C103.334 130.094 103.392 130.156 103.463 130.199C103.535 130.243 103.617 130.266 103.7 130.266H106.807L110.048 132.025L109.818 127.702Z" fill="#FC9D9D"/>
<path opacity="0.15" d="M109.818 127.702L106.373 126.337L101.847 126.546C101.763 126.546 101.68 126.566 101.606 126.606C101.533 126.645 101.469 126.702 101.423 126.772C101.376 126.841 101.347 126.921 101.339 127.005C101.33 127.088 101.342 127.172 101.374 127.25C101.423 127.372 101.506 127.477 101.614 127.553C101.722 127.628 101.85 127.669 101.982 127.672L106.199 127.881L108.529 129.354L106.199 127.881L102.449 128.057C102.382 128.059 102.315 128.076 102.254 128.106C102.194 128.137 102.141 128.18 102.099 128.234C102.057 128.287 102.028 128.349 102.013 128.415C101.998 128.481 101.997 128.55 102.012 128.617C102.05 128.736 102.128 128.839 102.231 128.909C102.335 128.979 102.46 129.012 102.585 129.004L106.301 129.179L109.678 131.281L106.301 129.179L103.53 129.6C103.485 129.608 103.442 129.626 103.404 129.652C103.366 129.679 103.335 129.714 103.313 129.754C103.29 129.794 103.277 129.839 103.274 129.885C103.271 129.931 103.278 129.977 103.294 130.02C103.334 130.094 103.392 130.156 103.463 130.199C103.535 130.243 103.617 130.266 103.7 130.266H106.807L110.048 132.025L109.818 127.702Z" fill="#23213D"/>
<path d="M109.851 126.441L114.342 130.856C114.605 131.102 114.915 131.293 115.253 131.417L125.522 134.5L122.786 140.808L113.532 137.128C111.599 137.163 109.884 136.149 108.568 134.85H108.533C108.347 134.672 108.129 134.529 107.891 134.43C107.013 134.115 104.852 133.31 104.852 133.31C104.819 133.301 104.789 133.286 104.763 133.265C104.736 133.245 104.714 133.219 104.698 133.189C104.681 133.16 104.671 133.128 104.667 133.094C104.663 133.061 104.666 133.027 104.676 132.995C104.811 132.434 105.379 132.013 106.094 132.084L107.675 132.259C108.519 132.33 109.162 131.665 108.991 130.928L108.079 127.704C108.055 127.601 108.009 127.505 107.945 127.42C107.881 127.336 107.801 127.266 107.709 127.215L102.541 124.341C102.489 124.32 102.441 124.289 102.4 124.249C102.36 124.209 102.328 124.162 102.306 124.11C102.284 124.057 102.272 124.001 102.272 123.945C102.272 123.888 102.284 123.832 102.306 123.78C102.363 123.65 102.468 123.548 102.6 123.495C102.731 123.443 102.878 123.444 103.009 123.5C104.36 124.028 108.513 125.743 109.459 126.163C109.601 126.238 109.733 126.331 109.851 126.441Z" fill="#FC9D9D"/>
<path opacity="0.15" d="M114.246 136.175C112.313 136.21 110.264 135.192 108.948 133.888H108.915C108.728 133.71 108.51 133.567 108.272 133.468C107.393 133.153 105.232 132.347 105.232 132.347C105.205 132.338 105.18 132.325 105.157 132.309C104.92 132.468 104.751 132.71 104.682 132.988C104.673 133.02 104.67 133.054 104.673 133.087C104.677 133.12 104.687 133.153 104.704 133.182C104.72 133.211 104.742 133.237 104.769 133.258C104.795 133.278 104.826 133.294 104.858 133.302C104.858 133.302 107.019 134.108 107.898 134.423C108.136 134.522 108.353 134.665 108.539 134.843H108.574C109.89 136.141 111.612 137.156 113.538 137.121L122.792 140.801C122.792 140.801 119.981 137.825 117.356 136.479C116.219 135.906 114.949 136.066 114.246 136.175Z" fill="#23213D"/>
<path d="M158.097 103.942L157.612 119.89L151.155 142.51C149.267 148.927 144.05 151.647 138.769 149.101L116.579 138.41L118.923 132.555L139.48 137.963L146.859 112.986C147.492 110.847 148.687 108.917 150.321 107.399C151.955 105.881 153.965 104.831 156.144 104.358L158.103 103.935L158.097 103.942Z" fill="#23213D"/>
<path opacity="0.15" d="M158.096 103.942L157.611 119.891L151.155 142.509C149.267 148.928 144.05 151.656 138.769 149.102L116.579 138.413L117.35 136.478L137.15 146.029C142.432 148.572 147.648 145.853 149.537 139.436L155.994 116.818L156.374 104.315L158.096 103.942Z" fill="#23213D"/>
<path d="M199.901 107.308C198.413 106.842 197.882 113.032 197.64 120.81C197.603 121.931 197.575 123.081 197.55 124.252L197.309 127.009V127.067L196.831 132.52L194.83 155.476C189.135 158.411 182.83 159.961 176.423 159.996H176.128C175.601 159.996 175.084 159.986 174.566 159.968C170.017 159.801 165.53 158.871 161.288 157.217C160.095 156.747 158.93 156.229 157.79 155.659L156.774 136.82L156.571 133.058L156.516 132.055L156.455 130.947L156.138 125.067L156.124 124.81C155.936 122.743 155.762 120.599 155.576 118.524V118.462C155.576 118.432 155.576 118.406 155.576 118.376C155.021 112.205 154.36 106.672 152.951 105.634C154.069 105.136 155.219 104.719 156.397 104.387C156.854 104.253 157.324 104.13 157.802 104.016C158.909 103.745 160.071 103.516 161.272 103.326H161.295C163.959 102.919 166.647 102.676 169.341 102.598C169.358 102.596 169.374 102.596 169.392 102.598C172.152 102.505 174.967 102.55 177.725 102.705C179.648 102.811 181.54 102.969 183.365 103.17C183.866 103.226 184.363 103.284 184.854 103.345C185.623 103.44 186.377 103.543 187.115 103.653C188.628 103.878 190.065 104.133 191.397 104.41C194.494 105.045 197.019 105.792 198.638 106.559C199.084 106.762 199.509 107.013 199.901 107.308Z" fill="#23213D"/>
<path opacity="0.15" d="M184.692 124.675C186.038 124.675 187.13 122.891 187.13 120.691C187.13 118.491 186.038 116.707 184.692 116.707C183.344 116.707 182.253 118.491 182.253 120.691C182.253 122.891 183.344 124.675 184.692 124.675Z" fill="#23213D"/>
<path d="M213.647 135.341C210.15 143.393 204.169 150.113 196.581 154.513C196.131 154.777 195.672 155.03 195.212 155.277L202.432 139.138L197.308 127.001L196.226 124.439C195.142 122.848 194.432 121.034 194.145 119.13C193.715 116.367 193.936 113.541 194.794 110.879C195.693 108.151 197.175 106.306 198.621 106.547C198.796 106.598 204.665 108.291 206.371 113.449L213.012 131.402C213.383 132.684 213.596 134.007 213.647 135.341Z" fill="#23213D"/>
<path opacity="0.15" d="M203.236 140.418L196.582 154.514C196.132 154.778 195.674 155.031 195.213 155.277L202.433 139.139L197.304 127.074L197.287 127.035L196.826 132.527C195.145 130.133 194.293 124.293 194.147 119.141C194.05 115.641 194.277 112.457 194.795 110.89C194.951 110.415 195.486 110.589 195.575 111.082C196.195 114.454 196.738 118.007 197.64 120.818C197.819 121.39 198.028 121.953 198.267 122.504L203.297 136.212C203.586 136.877 203.73 137.596 203.719 138.321C203.709 139.047 203.543 139.761 203.236 140.418Z" fill="#23213D"/>
<path d="M186.672 81.4346C186.586 81.92 185.931 92.4492 180.509 96.7234V84.4828L186.672 81.4346Z" fill="#23213D"/>
<path d="M183.396 103.855L182.532 91.1538L182.356 88.6279C181.924 78.922 169.273 86.869 169.273 86.869C169.273 86.869 169.625 90.2251 169.779 93.9417C169.783 94.7062 169.865 95.468 170.03 96.2143L169.201 103.755L183.396 103.855Z" fill="#FC9D9D"/>
<path d="M183.395 103.855C183.393 104.087 183.331 104.314 183.219 104.516C183.106 104.718 182.945 104.888 182.748 105.011L180.518 106.527L175.792 109.737C175.685 109.799 175.56 109.825 175.437 109.812C175.314 109.799 175.198 109.747 175.107 109.665L171.076 106.196L169.7 105.011C169.514 104.861 169.372 104.666 169.284 104.444C169.196 104.223 169.166 103.982 169.198 103.746L183.395 103.855Z" fill="#FC9D9D"/>
<path d="M181.955 79.7158L182.307 88.1588C182.307 88.1588 181.37 101.175 173.008 100.065C163.385 98.8023 167.853 79.9674 167.853 79.9674L181.955 79.7158Z" fill="#FC9D9D"/>
<path opacity="0.15" d="M174.602 100.533C176.328 100.298 177.913 99.4543 179.072 98.1534C179.106 98.1198 179.125 98.0742 179.125 98.0267C179.125 97.9792 179.106 97.9337 179.072 97.9001C179.039 97.8665 178.993 97.8477 178.946 97.8477C178.898 97.8477 178.853 97.8665 178.819 97.9001C177.909 98.9025 176.735 99.6279 175.432 99.9932C172.837 100.57 170.53 99.3794 169.7 98.5491L169.377 101.58C171.188 101.938 173.068 101.562 174.602 100.533Z" fill="#23213D"/>
<path d="M174.243 89.5289C174.661 89.5289 175 89.1894 175 88.7708C175 88.352 174.661 88.0127 174.243 88.0127C173.824 88.0127 173.485 88.352 173.485 88.7708C173.485 89.1894 173.824 89.5289 174.243 89.5289Z" fill="#23213D"/>
<path d="M173.918 88.7002C174.019 88.7002 174.1 88.6192 174.1 88.5191C174.1 88.419 174.019 88.3379 173.918 88.3379C173.818 88.3379 173.737 88.419 173.737 88.5191C173.737 88.6192 173.818 88.7002 173.918 88.7002Z" fill="white"/>
<path d="M168.296 89.5289C168.715 89.5289 169.054 89.1894 169.054 88.7708C169.054 88.352 168.715 88.0127 168.296 88.0127C167.878 88.0127 167.539 88.352 167.539 88.7708C167.539 89.1894 167.878 89.5289 168.296 89.5289Z" fill="#23213D"/>
<path d="M167.972 88.7002C168.072 88.7002 168.153 88.6192 168.153 88.5191C168.153 88.419 168.072 88.3379 167.972 88.3379C167.872 88.3379 167.791 88.419 167.791 88.5191C167.791 88.6192 167.872 88.7002 167.972 88.7002Z" fill="white"/>
<g opacity="0.15">
<path opacity="0.15" d="M170.535 92.2359C170.564 91.9944 170.687 91.7737 170.875 91.6192C171.063 91.465 171.302 91.3885 171.545 91.4057C171.652 91.4057 171.721 91.513 171.721 91.6572C171.721 91.7663 171.613 91.8331 171.469 91.8331C171.408 91.8284 171.346 91.8358 171.288 91.855C171.229 91.8741 171.174 91.9047 171.128 91.9448C171.081 91.9851 171.042 92.034 171.014 92.0891C170.986 92.1441 170.97 92.2043 170.965 92.2658C170.96 92.3274 170.968 92.3891 170.988 92.4479C171.005 92.5066 171.037 92.561 171.077 92.6078C171.118 92.6547 171.165 92.6931 171.222 92.7211C171.276 92.749 171.336 92.7659 171.397 92.7707L172.406 92.8428C172.515 92.8428 172.581 92.9518 172.581 93.0961C172.581 93.2034 172.473 93.272 172.328 93.272L171.32 93.1999C171.204 93.1926 171.09 93.1615 170.986 93.1082C170.882 93.0549 170.791 92.9807 170.717 92.8901C170.643 92.7995 170.589 92.6947 170.557 92.5821C170.526 92.4694 170.519 92.3515 170.535 92.2359Z" fill="#23213D"/>
</g>
<path d="M177.091 86.7936H166.492C166.345 86.783 166.195 86.805 166.057 86.858C165.919 86.9111 165.793 86.9938 165.691 87.1003C165.587 87.2069 165.508 87.335 165.461 87.4752C165.412 87.6154 165.394 87.7647 165.41 87.9123V88.7795C165.413 89.3103 165.556 89.831 165.821 90.2902C166.086 90.7495 166.468 91.1315 166.926 91.3985C167.336 91.6392 167.798 91.7778 168.272 91.8029C168.748 91.8279 169.221 91.7387 169.655 91.5428C170.193 91.3062 170.651 90.9183 170.974 90.4264C171.296 89.9344 171.47 89.3592 171.472 88.7707V87.9035C171.465 87.6539 171.377 87.4133 171.22 87.2193H172.41C172.326 87.3111 172.259 87.4187 172.215 87.536C172.171 87.6535 172.152 87.7784 172.157 87.9035V88.7707C172.157 89.5745 172.475 90.3453 173.044 90.9136C173.612 91.4821 174.381 91.8013 175.184 91.8013C175.987 91.8013 176.757 91.4821 177.324 90.9136C177.892 90.3453 178.212 89.5745 178.212 88.7707V87.9035C178.208 87.6082 178.089 87.3262 177.878 87.1185C177.669 86.9107 177.386 86.7939 177.091 86.7936ZM170.927 88.7795C170.932 89.2403 170.815 89.6941 170.584 90.0932C170.354 90.4925 170.02 90.8223 169.62 91.0485C169.224 91.265 168.782 91.3776 168.332 91.3757C167.821 91.3783 167.32 91.2309 166.891 90.9518C166.531 90.7161 166.238 90.3935 166.035 90.0137C165.833 89.634 165.731 89.2095 165.737 88.7795V87.9123C165.742 87.7323 165.816 87.5612 165.942 87.4338C166.069 87.3065 166.241 87.233 166.42 87.228H170.242C170.421 87.2324 170.593 87.306 170.721 87.4333C170.848 87.5607 170.922 87.732 170.927 87.9123V88.7795ZM177.737 88.7284C177.746 89.0751 177.686 89.4202 177.56 89.7432C177.433 90.0661 177.244 90.3606 177.001 90.6089C176.76 90.8575 176.47 91.0548 176.152 91.1898C175.833 91.3245 175.49 91.394 175.142 91.394C174.796 91.394 174.453 91.3245 174.134 91.1898C173.816 91.0548 173.526 90.8575 173.285 90.6089C173.042 90.3606 172.853 90.0661 172.726 89.7432C172.6 89.4202 172.54 89.0751 172.549 88.7284V87.863C172.586 87.5024 172.9 87.2509 173.269 87.177H177.054C177.233 87.182 177.405 87.2558 177.532 87.3835C177.66 87.5111 177.732 87.6827 177.737 87.863V88.7284Z" fill="#23213D"/>
<path d="M181.524 89.3499C181.199 90.7922 180.838 91.874 182.711 91.7298C186.28 91.4782 186.677 86.6798 184.586 85.7493C182.748 84.9208 182.126 86.6886 182.126 86.6886L181.524 89.3499Z" fill="#FC9D9D"/>
<path opacity="0.15" d="M184.802 87.974C184.73 88.0813 184.627 88.0813 184.479 88.0461C184.226 87.8702 183.973 87.7928 183.794 87.8702C183.618 87.8702 183.469 88.0461 183.29 88.3029C183.037 88.6283 182.965 89.2422 182.965 89.3864L182.893 89.8191C182.893 89.9282 182.784 89.995 182.64 89.995C182.532 89.995 182.464 89.8859 182.464 89.7417L182.536 89.309C182.608 88.8042 182.643 88.3697 182.887 87.974C183.14 87.6485 183.392 87.397 183.717 87.3601C184.073 87.3124 184.433 87.403 184.725 87.6134C184.802 87.6485 184.839 87.7576 184.802 87.974Z" fill="#23213D"/>
<path opacity="0.15" d="M161.283 157.223C160.09 156.753 158.925 156.234 157.784 155.664L157.742 155.642L156.746 136.821L156.547 133.058L156.493 132.056L156.435 130.948L156.126 125.241L156.115 125.11L155.563 118.528V118.466L155.764 117.648L156.004 116.67L156.579 114.325C156.649 113.768 157.4 113.664 157.791 113.974C157.862 114.027 157.918 114.095 157.958 114.173C157.999 114.251 158.022 114.338 158.025 114.426L159.283 130.96L159.369 132.068L159.443 133.071L159.731 136.833L161.283 157.223Z" fill="#23213D"/>
<path d="M166.601 79.1318C166.601 79.1318 167.249 82.9206 173.008 82.3191C176.212 81.9831 177.752 81.6929 178.471 81.5011C178.548 81.4825 178.627 81.4813 178.705 81.4978C178.782 81.5143 178.856 81.5481 178.917 81.5965C178.981 81.645 179.032 81.7069 179.067 81.778C179.102 81.8489 179.121 81.9268 179.123 82.006V83.4254C179.123 83.6589 179.214 83.8824 179.379 84.0474C179.545 84.2124 179.768 84.3049 180.001 84.3049C180.233 84.3049 180.458 84.3976 180.622 84.5626C180.787 84.7276 180.88 84.9512 180.88 85.1844V88.3628C180.88 88.5542 180.956 88.7377 181.091 88.8729C181.226 89.0082 181.409 89.084 181.6 89.084C181.79 89.084 181.975 89.0082 182.11 88.8729C182.245 88.7377 182.321 88.5542 182.321 88.3628V79.1318H166.601Z" fill="#23213D"/>
<path d="M167.092 92.755C167.092 92.755 167.398 94.0232 168.432 94.1622C169.467 94.3011 169.464 93.1807 171.14 93.1824C172.816 93.1842 174.654 92.9116 175.692 93.8333C176.861 94.864 178.363 94.7338 179.228 93.4234C179.869 92.4521 180.347 91.3827 180.644 90.2573C180.682 90.1007 180.965 88.3682 180.876 88.3682H182.316C182.316 88.3682 182.733 92.9186 181.485 95.9194C180.238 98.9202 177.24 105.712 172.953 105.136C168.666 104.561 167.318 98.3151 167.092 92.755Z" fill="#23213D"/>
<path d="M173.839 95.2715V95.2926C173.839 96.0841 173.064 96.7226 172.106 96.7226C171.149 96.7226 170.374 96.0841 170.374 95.2926V95.2715H173.839Z" fill="white"/>
</svg>
