<svg width="183" height="163" viewBox="0 0 183 163" fill="none" xmlns="http://www.w3.org/2000/svg">
<path opacity="0.7" d="M101.26 0.0385191C100.752 0.0385191 100.193 0.0896795 99.6544 0.130608C88.9263 0.881548 78.5518 4.30622 69.464 10.0966C67.6601 11.2556 65.9202 12.5126 64.2519 13.862C59.3649 17.8116 54.9809 22.636 52.6593 28.4938C51.4503 31.5634 50.8305 34.7917 50.1193 37.9943C48.1686 46.4767 45.0393 55.2353 38.2778 60.6583C29.8501 67.4216 19.6038 69.7443 12.2784 78.242C5.03431 86.6477 -0.0152056 96.3528 3.4403e-05 107.71C3.4403e-05 135.987 24.2469 145.809 46.9443 152.9C73.7871 161.321 102.342 165.179 130.338 161.347C142.199 159.72 154.214 156.584 163.866 149.498C178.354 138.898 185.318 119.446 182.311 101.852C180.787 92.925 178.105 84.857 177.378 75.684C176.434 63.7228 178.43 51.4597 174.95 39.7747C169.159 20.3901 149.042 7.71767 130.14 4.1211C120.488 2.28957 111.206 -0.350299 101.26 0.0385191Z" fill="#38FFE7"/>
<path opacity="0.7" d="M101.26 0.0385191C100.752 0.0385191 100.193 0.0896795 99.6544 0.130608C88.9263 0.881548 78.5518 4.30622 69.464 10.0966C67.6601 11.2556 65.9202 12.5126 64.2519 13.862C59.3649 17.8116 54.9809 22.636 52.6593 28.4938C51.4503 31.5634 50.8305 34.7917 50.1193 37.9943C48.1686 46.4767 45.0393 55.2353 38.2778 60.6583C29.8501 67.4216 19.6038 69.7443 12.2784 78.242C5.03431 86.6477 -0.0152056 96.3528 3.4403e-05 107.71C3.4403e-05 135.987 24.2469 145.809 46.9443 152.9C73.7871 161.321 102.342 165.179 130.338 161.347C142.199 159.72 154.214 156.584 163.866 149.498C178.354 138.898 185.318 119.446 182.311 101.852C180.787 92.925 178.105 84.857 177.378 75.684C176.434 63.7228 178.43 51.4597 174.95 39.7747C169.159 20.3901 149.042 7.71767 130.14 4.1211C120.488 2.28957 111.206 -0.350299 101.26 0.0385191Z" fill="white"/>
<path d="M83.5728 20.1353H126.694C131.324 20.1353 135.092 23.9618 135.092 28.7019V134.463C135.092 139.203 131.324 143.029 126.694 143.029H83.5728C78.9435 143.029 75.1748 139.203 75.1748 134.463V28.7019C75.1748 23.9618 78.9435 20.1353 83.5728 20.1353Z" fill="#A3FFF4" stroke="#010101"/>
<path d="M125.15 21.5615H84.9738C80.3521 21.5615 76.6055 25.4265 76.6055 30.1941V131.655C76.6055 136.423 80.3521 140.288 84.9738 140.288H125.15C129.772 140.288 133.519 136.423 133.519 131.655V30.1941C133.519 25.4265 129.772 21.5615 125.15 21.5615Z" fill="#473F47"/>
<path d="M132.096 31.395V130.455C132.102 131.55 131.9 132.635 131.502 133.649C131.104 134.662 130.518 135.585 129.776 136.364C129.034 137.142 128.151 137.762 127.179 138.187C126.206 138.612 125.162 138.834 124.107 138.84H86.0293C84.6336 138.842 83.2625 138.46 82.0558 137.732C80.8286 136.992 79.8106 135.929 79.1038 134.652C78.397 133.375 78.0261 131.928 78.0284 130.455V31.395C78.0188 29.1831 78.856 27.0577 80.3561 25.4856C81.8562 23.9134 83.8966 23.0229 86.0293 23.0098H92.4696V24.2548C92.4778 25.0462 92.7096 25.8177 93.1364 26.4738C93.5631 27.13 94.166 27.6419 94.8704 27.9463C95.3383 28.1394 95.8373 28.2387 96.3409 28.2389H114.035C115.065 28.2323 116.051 27.8029 116.776 27.0446C117.502 26.2863 117.908 25.2608 117.907 24.1925V23.0098H124.137C126.199 23.0114 128.18 23.8465 129.659 25.338C130.436 26.1262 131.053 27.0687 131.471 28.1093C131.89 29.15 132.102 30.2674 132.096 31.395Z" fill="white"/>
<path d="M132.096 31.3485V60.6547H78.0284V31.3485C78.0237 30.2573 78.2275 29.1758 78.6282 28.1659C79.0289 27.156 79.6186 26.2376 80.3636 25.4631C81.1086 24.6886 81.9942 24.0733 82.9699 23.6523C83.9456 23.2314 84.9921 23.013 86.0497 23.0098H92.4991V24.2479C92.5073 25.0349 92.7391 25.8021 93.1656 26.4546C93.5922 27.1071 94.1948 27.6162 94.8989 27.9189C95.3666 28.111 95.8654 28.2097 96.3688 28.2099H114.055C115.085 28.2033 116.07 27.7763 116.795 27.0222C117.52 26.2681 117.926 25.2483 117.925 24.186V23.0098H124.152C126.214 23.0114 128.194 23.8419 129.672 25.325C130.447 26.1099 131.061 27.0477 131.477 28.0825C131.894 29.1173 132.104 30.228 132.096 31.3485Z" fill="url(#paint0_linear_576_95654)"/>
<path d="M100.27 33.4009H84.0499C83.2333 33.4009 82.5713 34.1599 82.5713 35.0963V35.147C82.5713 36.0833 83.2333 36.8424 84.0499 36.8424H100.27C101.087 36.8424 101.749 36.0833 101.749 35.147V35.0963C101.749 34.1599 101.087 33.4009 100.27 33.4009Z" fill="white"/>
<path d="M113.805 40.2837H85.1806C83.7395 40.2837 82.5713 41.2958 82.5713 42.5442V42.6118C82.5713 43.8603 83.7395 44.8724 85.1806 44.8724H113.805C115.246 44.8724 116.414 43.8603 116.414 42.6118V42.5442C116.414 41.2958 115.246 40.2837 113.805 40.2837Z" fill="white"/>
<path d="M113.805 47.167H85.1806C83.7395 47.167 82.5713 48.1791 82.5713 49.4275V49.4951C82.5713 50.7436 83.7395 51.7557 85.1806 51.7557H113.805C115.246 51.7557 116.414 50.7436 116.414 49.4951V49.4275C116.414 48.1791 115.246 47.167 113.805 47.167Z" fill="white"/>
<path d="M124.002 68.6182H102.696C102.038 68.6182 101.504 69.1227 101.504 69.7451V69.7856C101.504 70.4079 102.038 70.9125 102.696 70.9125H124.002C124.66 70.9125 125.194 70.4079 125.194 69.7856V69.7451C125.194 69.1227 124.66 68.6182 124.002 68.6182Z" fill="#757575"/>
<path d="M124.002 75.501H102.696C102.038 75.501 101.504 76.0055 101.504 76.6279V76.6684C101.504 77.2908 102.038 77.7953 102.696 77.7953H124.002C124.66 77.7953 125.194 77.2908 125.194 76.6684V76.6279C125.194 76.0055 124.66 75.501 124.002 75.501Z" fill="#757575"/>
<path d="M124.002 82.3843H102.696C102.038 82.3843 101.504 82.8888 101.504 83.5112V83.5517C101.504 84.174 102.038 84.6786 102.696 84.6786H124.002C124.66 84.6786 125.194 84.174 125.194 83.5517V83.5112C125.194 82.8888 124.66 82.3843 124.002 82.3843Z" fill="#757575"/>
<path d="M124.002 89.2671H102.696C102.038 89.2671 101.504 89.7716 101.504 90.394V90.4345C101.504 91.0569 102.038 91.5614 102.696 91.5614H124.002C124.66 91.5614 125.194 91.0569 125.194 90.4345V90.394C125.194 89.7716 124.66 89.2671 124.002 89.2671Z" fill="#757575"/>
<path d="M124.002 96.1504H102.696C102.038 96.1504 101.504 96.6549 101.504 97.2773V97.3178C101.504 97.9402 102.038 98.4447 102.696 98.4447H124.002C124.66 98.4447 125.194 97.9402 125.194 97.3178V97.2773C125.194 96.6549 124.66 96.1504 124.002 96.1504Z" fill="#757575"/>
<path d="M122.834 106.263H84.4443C83.2583 106.263 82.2969 107.218 82.2969 108.396V108.473C82.2969 109.651 83.2583 110.606 84.4443 110.606H122.834C124.02 110.606 124.982 109.651 124.982 108.473V108.396C124.982 107.218 124.02 106.263 122.834 106.263Z" fill="#757575"/>
<path d="M122.834 112.778H84.4443C83.2583 112.778 82.2969 113.734 82.2969 114.912V114.988C82.2969 116.167 83.2583 117.122 84.4443 117.122H122.834C124.02 117.122 124.982 116.167 124.982 114.988V114.912C124.982 113.734 124.02 112.778 122.834 112.778Z" fill="#757575"/>
<path d="M172.765 16.6309V36.521C172.78 37.4324 172.617 38.3378 172.286 39.1855C171.954 40.0331 171.461 40.8065 170.835 41.4614C170.208 42.1163 169.46 42.6399 168.633 43.0022C167.807 43.3646 166.917 43.5586 166.017 43.5733H151.002L144.217 53.5152V43.5733H131.448C129.628 43.5421 127.896 42.7821 126.629 41.46C125.363 40.1379 124.667 38.3617 124.693 36.521V16.6309C124.667 14.7902 125.363 13.0139 126.629 11.6919C127.896 10.3698 129.628 9.60982 131.448 9.57861H165.992C166.894 9.58839 167.785 9.77801 168.614 10.1366C169.444 10.4952 170.195 11.0158 170.825 11.6685C171.455 12.3213 171.952 13.0933 172.287 13.9406C172.622 14.7878 172.789 15.6935 172.777 16.606L172.765 16.6309Z" fill="url(#paint1_linear_576_95654)"/>
<path d="M170.063 36.521H170.063L170.063 36.529C170.077 37.3756 169.926 38.2164 169.618 39.0035C169.311 39.7906 168.853 40.5083 168.272 41.1157C167.69 41.7232 166.997 42.2085 166.231 42.5443C165.466 42.8795 164.644 43.0592 163.811 43.0733H148.813H148.549L148.4 43.2914L142.527 51.8956V43.5733V43.0733H142.027H129.237C128.402 43.0631 127.578 42.887 126.811 42.5547C126.043 42.2222 125.346 41.7396 124.762 41.1342C124.177 40.5289 123.716 39.8127 123.405 39.0263C123.093 38.24 122.938 37.3991 122.948 36.5517H122.948V36.5459V16.6309H122.948L122.948 16.6233C122.935 15.7741 123.088 14.9307 123.398 14.1416C123.708 13.3526 124.169 12.6336 124.754 12.0258C125.338 11.418 126.036 10.9334 126.805 10.5993C127.574 10.2657 128.4 10.0888 129.237 10.0786H163.775C164.608 10.088 165.432 10.2632 166.199 10.5945C166.967 10.926 167.663 11.4075 168.247 12.0118L168.607 11.6641L168.247 12.0118C168.832 12.616 169.293 13.3311 169.605 14.1164C169.916 14.9017 170.072 15.7416 170.063 16.5881H170.063V16.5935V16.6309V36.521Z" fill="white" stroke="black"/>
<path d="M145.251 27.9732V30.466H150.854V32.3616H145.251V35.5295H142.912V32.3616H140.701V30.466H142.912V27.9732H140.701V26.1036H142.912V17.4307H148.695C150.717 17.4307 152.25 17.924 153.295 18.9108C154.358 19.8975 154.889 21.1699 154.889 22.7279C154.889 24.234 154.375 25.489 153.347 26.4931C152.336 27.4798 150.785 27.9732 148.695 27.9732H145.251ZM145.251 26.1036H148.695C149.98 26.1036 150.931 25.8093 151.548 25.2207C152.182 24.6148 152.499 23.7839 152.499 22.7279C152.499 21.6373 152.19 20.7977 151.573 20.2091C150.956 19.6032 149.997 19.3003 148.695 19.3003H145.251V26.1036Z" fill="#38FFE7"/>
<path d="M63.047 104.543H89.6703C91.4602 104.513 93.1649 103.765 94.4099 102.463C95.6548 101.162 96.3382 99.4136 96.3098 97.6027V38.5775C96.3238 37.6812 96.1632 36.7909 95.8372 35.9574C95.5111 35.1239 95.0259 34.3636 94.4094 33.7198C93.7928 33.076 93.057 32.5615 92.2438 32.2055C91.4307 31.8495 90.5562 31.659 89.6703 31.645H63.047V99.2829H29.1729C29.1729 99.2829 29.4178 101.561 30.048 102.843C30.9232 104.623 31.7984 104.623 31.7984 104.623C36.1743 104.623 63.047 104.543 63.047 104.543Z" fill="url(#paint2_linear_576_95654)"/>
<path d="M29.0894 32.145H85.6476C88.7032 32.145 91.1902 34.6527 91.1902 37.7585V93.88C91.1902 96.9858 88.7032 99.4935 85.6476 99.4935H29.0894C26.0339 99.4935 23.5469 96.9858 23.5469 93.88V37.7585C23.5469 34.6527 26.0339 32.145 29.0894 32.145Z" fill="white" stroke="#010101"/>
<path d="M41.4531 55.6383C41.4531 53.5057 42.0832 51.8121 43.3432 50.5577C44.6033 49.2718 46.2168 48.6289 48.1837 48.6289C50.1507 48.6289 51.7642 49.2718 53.0242 50.5577C54.2843 51.8121 54.9143 53.5057 54.9143 55.6383C54.9143 57.8022 54.2843 59.5271 53.0242 60.813C51.7642 62.0674 50.1507 62.6947 48.1837 62.6947C46.2168 62.6947 44.6033 62.0674 43.3432 60.813C42.0832 59.5271 41.4531 57.8022 41.4531 55.6383ZM68.3755 49.1464L49.705 81.9822H45.556L64.2265 49.1464H68.3755ZM48.1837 51.2633C47.1388 51.2633 46.309 51.6396 45.6943 52.3923C45.1104 53.1136 44.8184 54.1956 44.8184 55.6383C44.8184 57.0809 45.1104 58.1786 45.6943 58.9313C46.309 59.6839 47.1388 60.0603 48.1837 60.0603C49.2287 60.0603 50.0585 59.6839 50.6731 58.9313C51.2878 58.1472 51.5951 57.0495 51.5951 55.6383C51.5951 54.1956 51.2878 53.1136 50.6731 52.3923C50.0585 51.6396 49.2287 51.2633 48.1837 51.2633ZM59.1094 75.4903C59.1094 73.3263 59.7395 71.6171 60.9995 70.3626C62.2596 69.0768 63.8731 68.4339 65.84 68.4339C67.807 68.4339 69.4051 69.0768 70.6344 70.3626C71.8945 71.6171 72.5246 73.3263 72.5246 75.4903C72.5246 77.6229 71.8945 79.3321 70.6344 80.6179C69.4051 81.9038 67.807 82.5467 65.84 82.5467C63.8731 82.5467 62.2596 81.9194 60.9995 80.665C59.7395 79.3791 59.1094 77.6542 59.1094 75.4903ZM65.7939 71.1153C64.749 71.1153 63.9192 71.4916 63.3045 72.2443C62.6899 72.9657 62.3825 74.0476 62.3825 75.4903C62.3825 76.9016 62.6899 77.9835 63.3045 78.7362C63.9192 79.4575 64.749 79.8182 65.7939 79.8182C66.8389 79.8182 67.6687 79.4575 68.2833 78.7362C68.898 77.9835 69.2053 76.9016 69.2053 75.4903C69.2053 74.0476 68.898 72.9657 68.2833 72.2443C67.6687 71.4916 66.8389 71.1153 65.7939 71.1153Z" fill="#38FFE7"/>
<path d="M150.18 155.966H93.4281C91.6738 155.966 90.1826 154.449 90.1826 152.664V124.911C90.1826 123.126 91.6738 121.609 93.4281 121.609H150.18C151.934 121.609 153.425 123.126 153.425 124.911V152.664C153.425 154.449 151.934 155.966 150.18 155.966Z" fill="white" stroke="#263238" stroke-miterlimit="10" stroke-linecap="round" stroke-linejoin="round"/>
<path d="M93.9531 151.592H148.687" stroke="#263238" stroke-miterlimit="10" stroke-linecap="round" stroke-linejoin="round"/>
<path d="M103.304 145.078H98.9883C98.436 145.078 97.9883 145.526 97.9883 146.078V150.503C97.9883 151.056 98.436 151.503 98.9883 151.503H103.304C103.856 151.503 104.304 151.056 104.304 150.503V146.078C104.304 145.526 103.856 145.078 103.304 145.078Z" fill="#38FFE7" stroke="#263238" stroke-miterlimit="10"/>
<path d="M112.602 136.513H108.286C107.734 136.513 107.286 136.96 107.286 137.513V150.594C107.286 151.147 107.734 151.594 108.286 151.594H112.602C113.154 151.594 113.602 151.147 113.602 150.594V137.513C113.602 136.96 113.154 136.513 112.602 136.513Z" fill="#38FFE7" stroke="#263238" stroke-miterlimit="10"/>
<path d="M123.127 139.1H118.812C118.259 139.1 117.812 139.547 117.812 140.1V150.682C117.812 151.235 118.259 151.682 118.812 151.682H123.127C123.679 151.682 124.127 151.235 124.127 150.682V140.1C124.127 139.547 123.679 139.1 123.127 139.1Z" fill="#38FFE7" stroke="#263238" stroke-miterlimit="10"/>
<path d="M134.091 126.605H129.775C129.223 126.605 128.775 127.053 128.775 127.605V150.414C128.775 150.966 129.223 151.414 129.775 151.414H134.091C134.643 151.414 135.091 150.966 135.091 150.414V127.605C135.091 127.053 134.643 126.605 134.091 126.605Z" fill="#38FFE7" stroke="#263238" stroke-miterlimit="10"/>
<path d="M145.143 126.784H140.827C140.275 126.784 139.827 127.231 139.827 127.784V150.592C139.827 151.145 140.275 151.592 140.827 151.592H145.143C145.695 151.592 146.143 151.145 146.143 150.592V127.784C146.143 127.231 145.695 126.784 145.143 126.784Z" fill="#38FFE7" stroke="#263238" stroke-miterlimit="10"/>
<defs>
<linearGradient id="paint0_linear_576_95654" x1="78.0283" y1="41.8661" x2="132.096" y2="41.8661" gradientUnits="userSpaceOnUse">
<stop stop-color="#A3FFF4"/>
<stop offset="1" stop-color="#00D0B7"/>
</linearGradient>
<linearGradient id="paint1_linear_576_95654" x1="214.058" y1="69.5295" x2="90.6839" y2="-9.43491" gradientUnits="userSpaceOnUse">
<stop offset="0.01"/>
<stop offset="0.08" stop-opacity="0.69"/>
<stop offset="0.21" stop-opacity="0.32"/>
<stop offset="1" stop-opacity="0"/>
</linearGradient>
<linearGradient id="paint2_linear_576_95654" x1="1531.97" y1="20552.6" x2="18168.6" y2="14662.8" gradientUnits="userSpaceOnUse">
<stop offset="0.01"/>
<stop offset="0.08" stop-opacity="0.69"/>
<stop offset="0.21" stop-opacity="0.32"/>
<stop offset="1" stop-opacity="0"/>
</linearGradient>
</defs>
</svg>
