<svg width="121" height="100" viewBox="0 0 121 100" fill="none" xmlns="http://www.w3.org/2000/svg">
<path d="M83.8845 87.5906C83.8845 87.5906 95.0813 86.8912 102.779 73.1366C110.477 59.382 109.077 38.4004 99.5133 26.744C89.9494 15.0876 75.0204 11.1244 60.7912 14.8544C53.8586 16.6705 49.2353 21.382 45.2394 27.0657C41.7591 32.0174 37.8449 36.7872 32.5778 39.9204C27.3619 43.0211 21.9992 45.4969 19.3656 51.3904C12.9555 65.7418 17.6371 82.4338 32.7994 88.0569C49.128 94.1182 76.42 90.8544 83.8845 87.5906Z" fill="#FFDC36"/>
<path opacity="0.7" d="M83.8845 87.5906C83.8845 87.5906 95.0813 86.8912 102.779 73.1366C110.477 59.382 109.077 38.4004 99.5133 26.744C89.9494 15.0876 75.0204 11.1244 60.7912 14.8544C53.8586 16.6705 49.2353 21.382 45.2394 27.0657C41.7591 32.0174 37.8449 36.7872 32.5778 39.9204C27.3619 43.0211 21.9992 45.4969 19.3656 51.3904C12.9555 65.7418 17.6371 82.4338 32.7994 88.0569C49.128 94.1182 76.42 90.8544 83.8845 87.5906Z" fill="white"/>
<path d="M110.852 90.8389H11.5292C11.496 90.8389 11.4643 90.8255 11.4408 90.8022C11.4175 90.7789 11.4043 90.7472 11.4043 90.7139C11.4043 90.6805 11.4175 90.6489 11.4408 90.6255C11.4643 90.6022 11.496 90.5889 11.5292 90.5889H110.852C110.885 90.5889 110.917 90.6022 110.94 90.6255C110.963 90.6489 110.976 90.6805 110.976 90.7139C110.976 90.7472 110.963 90.7789 110.94 90.8022C110.917 90.8255 110.885 90.8389 110.852 90.8389Z" fill="#B2B6BB"/>
<path d="M102.1 29.9736H38.9702C38.5104 29.9736 38.1377 30.3467 38.1377 30.807V77.6053C38.1377 78.0656 38.5104 78.4387 38.9702 78.4387H102.1C102.559 78.4387 102.932 78.0656 102.932 77.6053V30.807C102.932 30.3467 102.559 29.9736 102.1 29.9736Z" fill="white"/>
<path d="M102.186 78.527H38.8814C38.6606 78.527 38.4488 78.4392 38.2927 78.283C38.1366 78.1267 38.0488 77.9147 38.0488 77.6937V30.7337C38.0488 30.5127 38.1366 30.3007 38.2927 30.1445C38.4488 29.9882 38.6606 29.9004 38.8814 29.9004H102.186C102.407 29.9004 102.619 29.9882 102.775 30.1445C102.931 30.3007 103.019 30.5127 103.019 30.7337V77.6937C103.019 77.9147 102.931 78.1267 102.775 78.283C102.619 78.4392 102.407 78.527 102.186 78.527ZM39.0554 78.3504H102.008C102.229 78.3504 102.441 78.2625 102.597 78.1063C102.753 77.95 102.841 77.738 102.841 77.517V30.9096C102.841 30.6886 102.753 30.4766 102.597 30.3203C102.441 30.1641 102.229 30.0762 102.008 30.0762H39.0554C38.8346 30.0762 38.6228 30.1641 38.4667 30.3203C38.3106 30.4766 38.2228 30.6886 38.2228 30.9096V77.517C38.2228 77.738 38.3106 77.95 38.4667 78.1063C38.6228 78.2625 38.8346 78.3504 39.0554 78.3504Z" fill="#2B3048"/>
<path d="M38.8814 29.9004H102.177C102.398 29.9004 102.61 29.9882 102.766 30.1445C102.922 30.3007 103.01 30.5127 103.01 30.7337V33.9246H38.0488V30.7337C38.0488 30.5127 38.1366 30.3007 38.2927 30.1445C38.4488 29.9882 38.6606 29.9004 38.8814 29.9004Z" fill="#2B3048"/>
<path d="M97.5058 27.4102H34.3765C33.9167 27.4102 33.5439 27.7832 33.5439 28.2435V75.0418C33.5439 75.5021 33.9167 75.8752 34.3765 75.8752H97.5058C97.9653 75.8752 98.3383 75.5021 98.3383 75.0418V28.2435C98.3383 27.7832 97.9653 27.4102 97.5058 27.4102Z" fill="white"/>
<path d="M97.5936 75.9633H34.2886C34.0678 75.9633 33.8561 75.8755 33.6999 75.7192C33.5438 75.563 33.4561 75.351 33.4561 75.13V28.1683C33.4561 27.9473 33.5438 27.7353 33.6999 27.579C33.8561 27.4228 34.0678 27.335 34.2886 27.335H97.5936C97.8142 27.335 98.0265 27.4228 98.1822 27.579C98.3387 27.7353 98.4261 27.9473 98.4261 28.1683V75.13C98.4261 75.351 98.3387 75.563 98.1822 75.7192C98.0265 75.8755 97.8142 75.9633 97.5936 75.9633ZM34.4651 75.7875H97.4171C97.6377 75.7875 97.85 75.6996 98.0057 75.5434C98.1622 75.3871 98.2496 75.1751 98.2496 74.9541V28.3466C98.2496 28.1256 98.1622 27.9136 98.0057 27.7574C97.85 27.6011 97.6377 27.5133 97.4171 27.5133H34.4651C34.2443 27.5133 34.0326 27.6011 33.8764 27.7574C33.7203 27.9136 33.6326 28.1256 33.6326 28.3466V74.9541C33.6326 75.1751 33.7203 75.3871 33.8764 75.5434C34.0326 75.6996 34.2443 75.7875 34.4651 75.7875Z" fill="#2B3048"/>
<path d="M34.2886 27.3359H97.5836C97.8042 27.3359 98.0165 27.4238 98.1722 27.58C98.3287 27.7363 98.4161 27.9483 98.4161 28.1693V31.3601H33.4561V28.1693C33.4561 27.9483 33.5438 27.7363 33.6999 27.58C33.8561 27.4238 34.0678 27.3359 34.2886 27.3359Z" fill="#2B3048"/>
<path d="M92.4706 24.9336H29.3413C28.8815 24.9336 28.5088 25.3067 28.5088 25.7669V72.5652C28.5088 73.0255 28.8815 73.3986 29.3413 73.3986H92.4706C92.9302 73.3986 93.3031 73.0255 93.3031 72.5652V25.7669C93.3031 25.3067 92.9302 24.9336 92.4706 24.9336Z" fill="white"/>
<path d="M92.4698 73.4823H29.3406C29.0977 73.4823 28.8648 73.3857 28.693 73.2137C28.5213 73.0418 28.4248 72.8087 28.4248 72.5656V25.7673C28.4248 25.5242 28.5213 25.291 28.693 25.1191C28.8648 24.9472 29.0977 24.8506 29.3406 24.8506H92.4698C92.713 24.8506 92.9461 24.9472 93.1176 25.1191C93.2891 25.291 93.3857 25.5242 93.3857 25.7673V72.5656C93.3857 72.8087 93.2891 73.0418 93.1176 73.2137C92.9461 73.3857 92.713 73.4823 92.4698 73.4823ZM29.3406 25.0173C29.1419 25.0173 28.9513 25.0963 28.8108 25.2369C28.6702 25.3776 28.5913 25.5683 28.5913 25.7673V72.5656C28.5913 72.7645 28.6702 72.9552 28.8108 73.0959C28.9513 73.2366 29.1419 73.3156 29.3406 73.3156H92.4698C92.6688 73.3156 92.8595 73.2366 92.9993 73.0959C93.14 72.9552 93.2191 72.7645 93.2191 72.5656V25.7673C93.2191 25.5683 93.14 25.3776 92.9993 25.2369C92.8595 25.0963 92.6688 25.0173 92.4698 25.0173H29.3406Z" fill="#2B3048"/>
<path d="M89.3562 35.1445H32.4561V64.7954H89.3562V35.1445Z" fill="#2B3048"/>
<path opacity="0.1" d="M54.0167 35.1445H49.4128L39.2842 64.7954H43.8881L54.0167 35.1445Z" fill="white"/>
<path opacity="0.1" d="M57.3927 35.1445H54.9372L44.8086 64.7954H46.9571L57.3927 35.1445Z" fill="white"/>
<path d="M85.8428 31.5439H36.3623V32.7956H85.8428V31.5439Z" fill="#FFDC36"/>
<path opacity="0.4" d="M85.8428 31.5439H36.3623V32.7956H85.8428V31.5439Z" fill="white"/>
<path d="M87.7593 61.6113H34.0527V61.6947H87.7593V61.6113Z" fill="white"/>
<path d="M34.4801 71.3138C35.6067 71.3138 36.5199 70.3997 36.5199 69.2721C36.5199 68.1446 35.6067 67.2305 34.4801 67.2305C33.3536 67.2305 32.4404 68.1446 32.4404 69.2721C32.4404 70.3997 33.3536 71.3138 34.4801 71.3138Z" fill="#FFDC36"/>
<path d="M35.5313 70.2112C35.5313 69.5446 35.0609 68.9971 34.4815 68.9971C33.902 68.9971 33.4316 69.5404 33.4316 70.2112C33.7447 70.4132 34.1092 70.5205 34.4815 70.5205C34.8539 70.5205 35.2184 70.4132 35.5313 70.2112Z" fill="white"/>
<path d="M34.4795 69.1622C34.7944 69.1622 35.0498 68.9066 35.0498 68.5913C35.0498 68.2761 34.7944 68.0205 34.4795 68.0205C34.1645 68.0205 33.9092 68.2761 33.9092 68.5913C33.9092 68.9066 34.1645 69.1622 34.4795 69.1622Z" fill="white"/>
<path d="M59.3678 67.9219H37.4111V68.2285H59.3678V67.9219Z" fill="#2B3048"/>
<path d="M51.4706 69.2949H37.3906V69.6016H51.4706V69.2949Z" fill="#2B3048"/>
<path d="M86.5936 62.6953H86.5029V63.147H86.5936V62.6953Z" fill="white"/>
<path d="M86.947 62.6953H86.5068V62.7861H86.947V62.6953Z" fill="white"/>
<path d="M87.702 62.6982H87.251V62.7891H87.702V62.6982Z" fill="white"/>
<path d="M87.702 62.7012H87.6113V63.142H87.702V62.7012Z" fill="white"/>
<path d="M87.702 63.4053H87.6113V63.8569H87.702V63.4053Z" fill="white"/>
<path d="M87.698 63.7666H87.2578V63.8574H87.698V63.7666Z" fill="white"/>
<path d="M86.9539 63.7627H86.5029V63.8535H86.9539V63.7627Z" fill="white"/>
<path d="M86.5936 63.4072H86.5029V63.8481H86.5936V63.4072Z" fill="white"/>
<path d="M82.1259 63.1318H35.8756C35.8057 63.1318 35.749 63.1886 35.749 63.2585V63.2927C35.749 63.3626 35.8057 63.4193 35.8756 63.4193H82.1259C82.1958 63.4193 82.2524 63.3626 82.2524 63.2927V63.2585C82.2524 63.1886 82.1958 63.1318 82.1259 63.1318Z" fill="white"/>
<path d="M60.9018 63.1318H35.8756C35.8057 63.1318 35.749 63.1886 35.749 63.2585V63.2927C35.749 63.3626 35.8057 63.4193 35.8756 63.4193H60.9018C60.9717 63.4193 61.0284 63.3626 61.0284 63.2927V63.2585C61.0284 63.1886 60.9717 63.1318 60.9018 63.1318Z" fill="#FFDC36"/>
<path opacity="0.1" d="M60.9018 63.1318H35.8756C35.8057 63.1318 35.749 63.1886 35.749 63.2585V63.2927C35.749 63.3626 35.8057 63.4193 35.8756 63.4193H60.9018C60.9717 63.4193 61.0284 63.3626 61.0284 63.2927V63.2585C61.0284 63.1886 60.9717 63.1318 60.9018 63.1318Z" fill="black"/>
<path d="M83.1375 63.2617V63.345H82.8105V63.2617H83.1375Z" fill="white"/>
<path d="M83.5438 63.2617V63.345H83.2168V63.2617H83.5438Z" fill="white"/>
<path d="M83.584 63.7175L83.9534 62.7559H84.0433L83.673 63.7175H83.584Z" fill="white"/>
<path d="M84.4051 63.2617V63.345H84.0781V63.2617H84.4051Z" fill="white"/>
<path d="M84.8123 63.2617V63.345H84.4854V63.2617H84.8123Z" fill="white"/>
<path d="M35.0232 63.2759L33.9268 62.6426V63.9092L35.0232 63.2759Z" fill="white"/>
<path d="M85.8428 43.5736L86.6736 43.0928V44.0536L85.8428 43.5736Z" fill="#F4F4F4"/>
<path d="M86.3146 43.3037H85.8428V43.847H86.3146V43.3037Z" fill="#F4F4F4"/>
<path d="M86.8057 43.252C86.8498 43.2903 86.8855 43.3378 86.9105 43.3912C86.9346 43.4446 86.9471 43.5028 86.9471 43.5615C86.9471 43.6203 86.9346 43.6784 86.9105 43.7319C86.8855 43.7853 86.8498 43.8328 86.8057 43.8711" fill="#F4F4F4"/>
<path d="M87.0254 43.1611C87.087 43.2078 87.1361 43.268 87.1702 43.337C87.2043 43.406 87.2226 43.4821 87.2226 43.5591C87.2226 43.6361 87.2043 43.7121 87.1702 43.7811C87.1361 43.8501 87.087 43.9103 87.0254 43.957" fill="#F4F4F4"/>
<path d="M86.5565 56.8504C86.5266 56.8504 86.4975 56.8385 86.4766 56.8173C86.455 56.796 86.4434 56.7672 86.4434 56.7371V44.8663C86.4434 44.8362 86.455 44.8073 86.4766 44.7861C86.4975 44.7648 86.5266 44.7529 86.5565 44.7529C86.5865 44.7529 86.6156 44.7648 86.6364 44.7861C86.6581 44.8073 86.6697 44.8362 86.6697 44.8663V56.7371C86.6697 56.7672 86.6581 56.796 86.6364 56.8173C86.6156 56.8385 86.5865 56.8504 86.5565 56.8504Z" fill="white"/>
<path d="M86.5565 56.852C86.5266 56.852 86.4975 56.8401 86.4766 56.8189C86.455 56.7976 86.4434 56.7688 86.4434 56.7387V48.5645C86.4434 48.5344 86.455 48.5056 86.4766 48.4843C86.4975 48.4631 86.5266 48.4512 86.5565 48.4512C86.5865 48.4512 86.6156 48.4631 86.6364 48.4843C86.6581 48.5056 86.6697 48.5344 86.6697 48.5645V56.7387C86.6697 56.7688 86.6581 56.7976 86.6364 56.8189C86.6156 56.8401 86.5865 56.852 86.5565 56.852Z" fill="#FFDC36"/>
<path opacity="0.1" d="M86.5565 56.852C86.5266 56.852 86.4975 56.8401 86.4766 56.8189C86.455 56.7976 86.4434 56.7688 86.4434 56.7387V48.5645C86.4434 48.5344 86.455 48.5056 86.4766 48.4843C86.4975 48.4631 86.5266 48.4512 86.5565 48.4512C86.5865 48.4512 86.6156 48.4631 86.6364 48.4843C86.6581 48.5056 86.6697 48.5344 86.6697 48.5645V56.7387C86.6697 56.7688 86.6581 56.7976 86.6364 56.8189C86.6156 56.8401 86.5865 56.852 86.5565 56.852Z" fill="black"/>
<path d="M69.5491 67.6535H69.0146C69.0041 67.6536 68.9937 67.6514 68.984 67.6472C68.9745 67.6428 68.9659 67.6365 68.9589 67.6286C68.952 67.6207 68.9468 67.6114 68.9438 67.6013C68.9408 67.5913 68.9399 67.5806 68.9413 67.5702V67.5485C68.9413 67.5368 68.9413 67.5252 68.948 67.5135L68.9971 67.2035C69.0009 67.18 69.0009 67.1562 68.9971 67.1327C68.9971 67.1235 68.9971 67.1119 68.9971 67.0977C68.9928 67.0726 68.9826 67.0489 68.9671 67.0285L68.943 67.0019C68.9337 66.991 68.9216 66.9829 68.908 66.9785H68.8847C68.8684 66.9789 68.8523 66.9831 68.8379 66.9908C68.8235 66.9984 68.811 67.0094 68.8015 67.0227L68.2787 67.5977C68.2647 67.6118 68.2538 67.6283 68.2463 67.6467C68.2389 67.665 68.2352 67.6846 68.2354 67.7043V68.9027C68.2353 68.9227 68.2391 68.9425 68.2467 68.961C68.2543 68.9795 68.2653 68.9963 68.2795 69.0104C68.2936 69.0246 68.3103 69.0358 68.3287 69.0435C68.3472 69.0513 68.3669 69.0552 68.3869 69.0552H69.2585C69.2878 69.055 69.3166 69.0464 69.3412 69.0305C69.3658 69.0145 69.3853 68.9918 69.3976 68.9652L69.7173 68.2352C69.7316 68.2026 69.7422 68.1685 69.7489 68.1335C69.7552 68.0922 69.7578 68.0503 69.7564 68.0085V67.8185C69.7566 67.7927 69.7491 67.7674 69.7347 67.746C69.7152 67.7151 69.6875 67.6902 69.6548 67.6739C69.6221 67.6576 69.5856 67.6505 69.5491 67.6535Z" fill="#FFDC36"/>
<path d="M67.9844 67.7549H67.6732C67.6557 67.7549 67.6416 67.769 67.6416 67.7865V69.0149C67.6416 69.0324 67.6557 69.0465 67.6732 69.0465H67.9844C68.0019 69.0465 68.016 69.0324 68.016 69.0149V67.7865C68.016 67.769 68.0019 67.7549 67.9844 67.7549Z" fill="#FFDC36"/>
<path opacity="0.3" d="M72.5858 68.3851H73.1202C73.1308 68.385 73.1412 68.3872 73.1508 68.3914C73.1605 68.3958 73.169 68.4021 73.1759 68.41C73.1829 68.4178 73.1881 68.4272 73.1911 68.4373C73.1942 68.4473 73.1949 68.458 73.1935 68.4684V68.4901C73.1935 68.5018 73.1935 68.5134 73.1868 68.5251L73.1377 68.8343C73.1344 68.858 73.1344 68.8822 73.1377 68.9059C73.1377 68.9151 73.1377 68.9268 73.1377 68.9409C73.1423 68.966 73.1525 68.9896 73.1677 69.0101L73.196 69.0426C73.2055 69.0533 73.2176 69.0613 73.231 69.0659H73.2543C73.2714 69.0659 73.2881 69.062 73.3033 69.0543C73.3185 69.0466 73.3316 69.0355 73.3417 69.0218L73.8637 68.4468C73.8776 68.4327 73.8886 68.4161 73.896 68.3978C73.9034 68.3794 73.9072 68.3598 73.907 68.3401V67.1418C73.9072 67.1218 73.9033 67.1019 73.8958 67.0834C73.8882 67.0649 73.877 67.0482 73.863 67.034C73.8489 67.0198 73.8322 67.0086 73.8137 67.0008C73.7953 66.9932 73.7755 66.9893 73.7555 66.9893H72.883C72.8537 66.9894 72.825 66.998 72.8004 67.014C72.7757 67.0299 72.7562 67.0526 72.7439 67.0793L72.4242 67.8093C72.41 67.8418 72.3993 67.8759 72.3926 67.9109C72.3863 67.9523 72.3838 67.9941 72.3851 68.0359V68.2193C72.3848 68.2453 72.3923 68.2709 72.4068 68.2926C72.4259 68.3223 72.4525 68.3466 72.4839 68.3628C72.5153 68.3791 72.5505 68.3868 72.5858 68.3851Z" fill="#2B3048"/>
<path opacity="0.3" d="M74.4619 66.9893H74.1508C74.1333 66.9893 74.1191 67.0034 74.1191 67.0209V68.2493C74.1191 68.2668 74.1333 68.2809 74.1508 68.2809H74.4619C74.4794 68.2809 74.4936 68.2668 74.4936 68.2493V67.0209C74.4936 67.0034 74.4794 66.9893 74.4619 66.9893Z" fill="#2B3048"/>
<path d="M79.8357 67.9665L78.8616 67.0798C78.8574 67.0774 78.8527 67.0762 78.8478 67.0762C78.843 67.0762 78.8383 67.0774 78.8341 67.0798C78.8296 67.0819 78.8258 67.0852 78.8232 67.0893C78.8205 67.0934 78.8191 67.0983 78.8191 67.1032V67.5982C78.7667 67.5982 77.4362 67.509 77.1282 68.959V68.9665C77.1278 68.9682 77.1278 68.9698 77.1282 68.9715V68.9757C77.1317 68.9787 77.1361 68.9804 77.1407 68.9807C77.1464 68.9803 77.1519 68.9783 77.1565 68.9748C77.5811 68.2107 78.785 68.3665 78.79 68.3698C78.7935 68.3706 78.7972 68.3706 78.8008 68.3698V68.8698C78.8008 68.8747 78.8022 68.8796 78.8049 68.8837C78.8075 68.8878 78.8113 68.8911 78.8158 68.8932C78.8196 68.894 78.8236 68.894 78.8274 68.8932C78.8331 68.8931 78.8386 68.8913 78.8432 68.8882L79.8173 68.0015C79.8204 67.999 79.823 67.9958 79.8247 67.9923C79.8264 67.9886 79.8273 67.9847 79.8273 67.9807C79.8273 67.9767 79.8264 67.9728 79.8247 67.9691C79.823 67.9655 79.8204 67.9623 79.8173 67.9598L79.8357 67.9665Z" fill="#2B3048"/>
<path d="M83.7 67.3467H82.4795V67.5608H83.7V67.3467Z" fill="#2B3048"/>
<path d="M83.7 67.7646H82.4795V67.9788H83.7V67.7646Z" fill="#2B3048"/>
<path d="M83.3154 68.1807H82.4795V68.3948H83.3154V68.1807Z" fill="#2B3048"/>
<path d="M84.1278 67.8027H83.9138V68.1886H83.5283V68.4027H83.9138V68.7886H84.1278V68.4027H84.5132V68.1886H84.1278V67.8027Z" fill="#2B3048"/>
<path d="M88.8546 68.163C88.818 68.163 88.7822 68.1521 88.7523 68.1318C88.7215 68.1115 88.6982 68.0826 88.684 68.0488C88.6699 68.015 88.6666 67.9778 88.6732 67.9419C88.6807 67.906 88.6982 67.873 88.724 67.8471C88.7498 67.8213 88.783 67.8036 88.8188 67.7965C88.8546 67.7894 88.8912 67.793 88.9253 67.807C88.9594 67.821 88.9877 67.8448 89.0085 67.8752C89.0285 67.9056 89.0393 67.9414 89.0393 67.978C89.0393 68.0023 89.0343 68.0264 89.0252 68.0489C89.016 68.0714 89.0027 68.0918 88.9852 68.1091C88.9686 68.1262 88.9478 68.1399 88.9253 68.1491C88.9029 68.1584 88.8787 68.1631 88.8546 68.163Z" fill="#2B3048"/>
<path d="M88.2003 68.163C88.1637 68.163 88.1279 68.1521 88.098 68.1318C88.0672 68.1115 88.0439 68.0826 88.0297 68.0488C88.0156 68.015 88.0123 67.9778 88.0189 67.9419C88.0264 67.906 88.0439 67.873 88.0697 67.8471C88.0955 67.8213 88.1288 67.8036 88.1645 67.7965C88.2003 67.7894 88.2369 67.793 88.271 67.807C88.3051 67.821 88.3334 67.8448 88.3542 67.8752C88.3742 67.9056 88.385 67.9414 88.385 67.978C88.385 68.0023 88.38 68.0264 88.3709 68.0489C88.3617 68.0714 88.3484 68.0918 88.3309 68.1091C88.3143 68.1262 88.2935 68.1399 88.271 68.1491C88.2486 68.1584 88.2244 68.1631 88.2003 68.163Z" fill="#2B3048"/>
<path d="M87.547 68.163C87.6494 68.163 87.7318 68.0801 87.7318 67.978C87.7318 67.8758 87.6494 67.793 87.547 67.793C87.4447 67.793 87.3623 67.8758 87.3623 67.978C87.3623 68.0801 87.4447 68.163 87.547 68.163Z" fill="#2B3048"/>
<path d="M63.6365 52.0878C64.8737 50.8494 64.9282 48.8964 63.7584 47.7255C62.5886 46.5546 60.6374 46.6092 59.4003 47.8474C58.1632 49.0858 58.1086 51.0388 59.2784 52.2097C60.4482 53.3807 62.3995 53.326 63.6365 52.0878Z" fill="white"/>
<path d="M63.2795 49.9695L60.4355 48.3262V51.6128L63.2795 49.9695Z" fill="url(#paint0_linear_1227_188594)"/>
<path d="M32.416 31.585H34.5265" stroke="#FFDC36" stroke-width="0.5" stroke-miterlimit="10" stroke-linecap="round"/>
<path d="M32.415 32.1973H34.5255" stroke="#FFDC36" stroke-width="0.5" stroke-miterlimit="10" stroke-linecap="round"/>
<path d="M32.415 32.8105H34.5255" stroke="#FFDC36" stroke-width="0.5" stroke-miterlimit="10" stroke-linecap="round"/>
<path d="M29.2525 24.8594H92.5482C92.7689 24.8594 92.9812 24.9472 93.1368 25.1035C93.2934 25.2597 93.3808 25.4717 93.3808 25.6927V28.8835H28.4199V25.6927C28.4199 25.4717 28.5076 25.2597 28.6638 25.1035C28.8199 24.9472 29.0317 24.8594 29.2525 24.8594Z" fill="#2B3048"/>
<path d="M30.6741 27.5143C30.9913 27.5143 31.2485 27.2568 31.2485 26.9393C31.2485 26.6217 30.9913 26.3643 30.6741 26.3643C30.3568 26.3643 30.0996 26.6217 30.0996 26.9393C30.0996 27.2568 30.3568 27.5143 30.6741 27.5143Z" fill="white"/>
<path d="M32.4953 27.5143C32.8126 27.5143 33.0698 27.2568 33.0698 26.9393C33.0698 26.6217 32.8126 26.3643 32.4953 26.3643C32.1781 26.3643 31.9209 26.6217 31.9209 26.9393C31.9209 27.2568 32.1781 27.5143 32.4953 27.5143Z" fill="white"/>
<path d="M34.3196 27.5143C34.6369 27.5143 34.894 27.2568 34.894 26.9393C34.894 26.6217 34.6369 26.3643 34.3196 26.3643C34.0023 26.3643 33.7451 26.6217 33.7451 26.9393C33.7451 27.2568 34.0023 27.5143 34.3196 27.5143Z" fill="white"/>
<path d="M87.5097 32.7499C87.5013 32.7389 87.4963 32.725 87.4972 32.711C87.4988 32.697 87.5047 32.6838 87.5147 32.674L87.9593 32.2707C87.9643 32.2662 87.9701 32.2628 87.9767 32.2605C87.9834 32.2584 87.9901 32.2574 87.9967 32.2579C88.0034 32.2584 88.01 32.2602 88.0159 32.2633C88.0217 32.2663 88.0275 32.2705 88.0317 32.2757L88.0883 32.3432C88.0966 32.3542 88.1016 32.368 88.1008 32.3821C88.0991 32.3961 88.0933 32.4093 88.0833 32.419L87.6387 32.8224C87.6337 32.8269 87.6279 32.8303 87.6212 32.8325C87.6146 32.8347 87.6079 32.8356 87.6012 32.8351C87.5946 32.8346 87.5879 32.8329 87.5821 32.8298C87.5763 32.8268 87.5704 32.8225 87.5663 32.8174L87.5097 32.7499Z" fill="#FFDC36"/>
<path d="M88.4866 31.4746C88.5432 31.4741 88.5998 31.4831 88.6531 31.5013C88.763 31.5397 88.8562 31.616 88.9162 31.7166C88.9753 31.8171 88.9977 31.9356 88.9786 32.0508C88.9586 32.1661 88.8995 32.2708 88.8104 32.3464C88.7213 32.422 88.6081 32.4636 88.4916 32.4638C88.435 32.4641 88.3783 32.4549 88.3251 32.4363C88.2143 32.3984 88.1211 32.3223 88.0611 32.2216C88.0012 32.1211 87.9787 32.0024 87.9979 31.8869C88.0178 31.7714 88.077 31.6666 88.1669 31.5911C88.256 31.5156 88.3692 31.4743 88.4866 31.4746ZM88.4866 31.608C88.4116 31.6081 88.3384 31.6317 88.2776 31.6753C88.2168 31.7189 88.1702 31.7804 88.1461 31.8513C88.1302 31.896 88.1236 31.9432 88.1269 31.9905C88.1294 32.0377 88.1419 32.0839 88.1627 32.1263C88.1935 32.1908 88.2435 32.2446 88.3051 32.281C88.3667 32.3172 88.4374 32.3343 88.509 32.3301C88.5806 32.3257 88.6489 32.3003 88.7064 32.2569C88.763 32.2135 88.8054 32.1541 88.8287 32.0863C88.8446 32.0416 88.8512 31.9944 88.8479 31.9471C88.8454 31.8999 88.8329 31.8537 88.8121 31.8113C88.7913 31.7686 88.7621 31.7306 88.7272 31.6991C88.6914 31.6676 88.6506 31.6435 88.6056 31.628C88.5673 31.6147 88.5274 31.608 88.4874 31.608H88.4866Z" fill="#FFDC36"/>
<path d="M17.0603 80.271C16.5849 79.9735 16.0479 79.7885 15.4902 79.7301C15.2337 79.7043 14.9532 79.7118 14.7475 79.8668C14.7237 79.8805 14.7041 79.9003 14.6906 79.9242C14.6771 79.9481 14.6704 79.9752 14.6709 80.0026C14.6829 80.0416 14.7086 80.0748 14.7434 80.096C15.3828 80.5835 16.3485 80.6451 17.0603 80.271Z" fill="#2B3048"/>
<path d="M17.0188 80.226C16.6554 79.9584 16.3161 79.6595 16.0048 79.3327C15.693 79.0034 15.4738 78.5975 15.3696 78.156C15.3421 78.0219 15.3338 77.8685 15.4195 77.7627C16.2279 78.3944 16.8632 79.2119 17.0188 80.226Z" fill="#2B3048"/>
<path d="M17.0517 80.2646C16.991 79.8222 16.9685 79.3672 17.07 78.9313C17.1716 78.4955 17.4097 78.083 17.7794 77.833C17.9192 78.1597 17.8626 78.5363 17.7611 78.878C17.6081 79.4067 17.3706 79.9071 17.0576 80.3596" fill="#2B3048"/>
<path d="M17.8431 81.6865C17.3619 81.7449 16.9431 81.9982 16.5834 82.324C16.2225 82.653 15.9712 83.0849 15.8633 83.5615C16.3353 83.5324 16.7358 83.199 17.0288 82.8257C17.3219 82.4524 17.5209 82.0424 17.8397 81.6932" fill="#2B3048"/>
<path d="M18.0145 81.9175C17.8253 81.4363 17.7591 80.9154 17.8217 80.402C17.8844 79.8887 18.074 79.3991 18.3733 78.9775C18.6472 79.9534 18.5465 81.055 18.0145 81.9175Z" fill="#2B3048"/>
<path d="M19.0634 83.1615C18.6239 83.1344 18.186 83.2372 17.8043 83.4573C17.4226 83.6773 17.1138 84.004 16.9163 84.3981C16.8993 84.4223 16.889 84.4498 16.8864 84.4798C16.8838 84.509 16.8889 84.5381 16.9013 84.5648C16.9202 84.5823 16.9429 84.5948 16.9676 84.6023C16.9923 84.6098 17.0184 84.6106 17.0437 84.6065C17.4675 84.579 17.8421 84.324 18.1518 84.034C18.4615 83.744 18.7346 83.4081 19.0726 83.1573" fill="#2B3048"/>
<path d="M19.0288 83.094C18.803 82.3678 18.7892 81.5921 18.9888 80.8582C19.0671 80.5707 19.1995 80.2674 19.465 80.1324C19.4757 80.1254 19.4878 80.1206 19.5003 80.1185C19.513 80.1164 19.5259 80.1168 19.5383 80.1199C19.5599 80.131 19.5763 80.1502 19.5841 80.1732C19.6737 80.3746 19.7123 80.595 19.6965 80.8149C19.681 81.0336 19.6476 81.2508 19.5966 81.464C19.5133 81.8607 19.4684 82.2874 19.2502 82.6307C19.1991 82.7131 19.153 82.7986 19.112 82.8865C19.0712 82.9699 19.0712 83.004 19.0329 83.0732" fill="#2B3048"/>
<path d="M21.8008 83.5079C21.5951 82.7262 21.8133 81.7787 22.3053 81.1379C22.3411 81.0904 22.3885 81.0395 22.4485 81.0454C22.5392 81.0537 22.5625 81.1745 22.5584 81.2654C22.5217 82.0693 22.2591 82.8466 21.8008 83.5079Z" fill="#2B3048"/>
<path d="M22.0518 83.6767C23 83.9267 24.089 83.6842 24.8782 83.1017C24.4049 82.8646 23.8642 82.799 23.348 82.9159C22.8368 83.0334 22.3698 83.2626 22.0518 83.6792" fill="#2B3048"/>
<path d="M22.2617 83.1569C22.7929 82.2894 23.8119 81.7235 24.8268 81.6719C24.7102 82.0885 24.3705 82.406 23.9876 82.6002C23.6046 82.7944 23.1775 82.8785 22.7562 82.961C22.5897 82.9927 22.3675 83.0277 22.2617 83.1569Z" fill="#2B3048"/>
<path d="M21.853 80.6323C21.997 80.1381 22.1419 79.6406 22.181 79.1281C22.2201 78.6156 22.1477 78.0806 21.8821 77.6406C21.3826 78.6023 21.3352 79.7239 21.838 80.6839" fill="#2B3048"/>
<g opacity="0.4">
<path opacity="0.4" d="M21.853 80.6323C21.997 80.1381 22.1419 79.6406 22.181 79.1281C22.2201 78.6156 22.1477 78.0806 21.8821 77.6406C21.3826 78.6023 21.3352 79.7239 21.838 80.6839" fill="white"/>
</g>
<path d="M23.5234 79.788C24.1062 78.7322 25.2884 77.888 26.4873 77.7705C26.0252 78.9222 24.7639 79.813 23.5234 79.788Z" fill="#2B3048"/>
<g opacity="0.2">
<path opacity="0.2" d="M23.5234 79.788C24.1062 78.7322 25.2884 77.888 26.4873 77.7705C26.0252 78.9222 24.7639 79.813 23.5234 79.788Z" fill="black"/>
</g>
<path d="M23.1582 79.994C24.024 80.1265 24.7617 80.6798 25.5726 81.0156C25.7425 81.0971 25.9307 81.133 26.1187 81.1198C26.206 81.1185 26.2906 81.0905 26.3616 81.0396C26.4324 80.9887 26.486 80.9173 26.5151 80.835C26.5442 80.7526 26.5475 80.6634 26.5243 80.5792C26.5013 80.495 26.453 80.4199 26.386 80.364C26.2713 80.258 26.1365 80.1761 25.9897 80.1231C25.108 79.7565 24.1631 79.7473 23.2348 79.9698" fill="#2B3048"/>
<path d="M22.6582 80.6019C22.8539 80.6577 22.9213 80.7594 23.0745 80.8919C23.6045 81.3424 24.2313 81.6644 24.9061 81.8327C24.976 81.8494 25.0676 81.8569 25.1017 81.7935C25.1358 81.7302 25.0942 81.671 25.0551 81.6219C24.7607 81.2772 24.3791 81.0181 23.9503 80.8719C23.5282 80.7144 23.1619 80.5244 22.6582 80.5652" fill="#2B3048"/>
<path d="M22.0928 76.9304C22.4478 77.2579 22.8673 77.5074 23.3244 77.663C23.7815 77.8185 24.266 77.8767 24.7469 77.8337C24.7911 77.8347 24.8341 77.8192 24.8676 77.7904C24.9351 77.7179 24.8543 77.6054 24.7769 77.5404C23.996 76.9312 23.051 76.6787 22.0928 76.9262" fill="#2B3048"/>
<path d="M22.7637 76.6853C23.2335 76.3392 23.7785 76.1092 24.3541 76.0142C24.9297 75.9192 25.5196 75.9618 26.0755 76.1386C25.6593 76.5494 25.0765 76.7711 24.4979 76.8319C23.9157 76.885 23.3287 76.8353 22.7637 76.6853Z" fill="#2B3048"/>
<path d="M22.4962 75.0004C22.4196 74.2204 22.4695 73.6054 22.413 72.8221C22.4088 72.7587 22.3946 72.6837 22.3364 72.6612C22.2532 72.6296 22.1875 72.7304 22.1608 72.8129C22.0478 73.1756 22.0191 73.5593 22.0768 73.9348C22.1345 74.3103 22.2771 74.6677 22.4937 74.9796" fill="#2B3048"/>
<path d="M22.4404 75.0829C22.9683 74.7562 23.3646 74.3329 23.7309 73.8279C23.9856 73.4787 24.2004 73.0604 24.1422 72.632C23.7842 72.6245 23.4445 72.8229 23.2114 73.0945C22.989 73.377 22.8275 73.7025 22.7368 74.0504C22.6336 74.3929 22.5611 74.7462 22.4404 75.0829Z" fill="#2B3048"/>
<g opacity="0.2">
<path opacity="0.2" d="M22.4404 75.0829C22.9683 74.7562 23.3646 74.3329 23.7309 73.8279C23.9856 73.4787 24.2004 73.0604 24.1422 72.632C23.7842 72.6245 23.4445 72.8229 23.2114 73.0945C22.989 73.377 22.8275 73.7025 22.7368 74.0504C22.6336 74.3929 22.5611 74.7462 22.4404 75.0829Z" fill="black"/>
</g>
<path d="M23.7083 74.732C24.8699 74.3017 25.9452 73.667 26.8837 72.8578C26.5049 72.7053 26.0703 72.7962 25.6915 72.9495C24.8248 73.2995 24.1171 73.8903 23.6934 74.7237" fill="#2B3048"/>
<path d="M22.7969 75.5126C23.3797 75.5768 23.9783 75.6185 24.5602 75.521C25.1421 75.4235 25.6716 75.1985 26.2061 74.9735C26.2525 74.9607 26.2924 74.931 26.3177 74.8901C26.3259 74.8654 26.3265 74.8386 26.3194 74.8135C26.3123 74.7885 26.2978 74.766 26.2777 74.7493C26.2366 74.7167 26.1884 74.6941 26.137 74.6835C25.5543 74.521 24.9298 74.6001 24.3587 74.7901C23.8142 74.976 23.2907 75.2188 22.7969 75.5143" fill="#2B3048"/>
<path d="M19.4504 76.9554C19.0502 76.1471 19.076 75.2054 19.4213 74.3721C19.6642 74.7429 19.6942 75.2154 19.6501 75.6571C19.606 76.0988 19.4712 76.5521 19.4629 76.9963" fill="#2B3048"/>
<path d="M17.8535 76.1497C17.3528 76.1431 16.8561 76.2412 16.3954 76.4376C15.9347 76.6341 15.5199 76.9246 15.1777 77.2906C15.6773 77.3689 16.1893 77.2397 16.643 77.0181C17.0967 76.7964 17.4989 76.4864 17.8985 76.1772" fill="#2B3048"/>
<g opacity="0.2">
<path opacity="0.2" d="M17.8535 76.1497C17.3528 76.1431 16.8561 76.2412 16.3954 76.4376C15.9347 76.6341 15.5199 76.9246 15.1777 77.2906C15.6773 77.3689 16.1893 77.2397 16.643 77.0181C17.0967 76.7964 17.4989 76.4864 17.8985 76.1772" fill="black"/>
</g>
<path d="M16.7796 75.7919C16.2917 75.7528 15.8214 75.6919 15.3518 75.8361C14.8823 75.9803 14.4543 76.3069 14.2637 76.7603C14.7242 76.7981 15.1865 76.7118 15.6024 76.5103C16.0154 76.3077 16.4094 76.0683 16.7796 75.7953" fill="#2B3048"/>
<path d="M18.3679 75.8063C17.9283 75.5179 17.477 75.2229 16.965 75.1054C16.453 74.9879 15.8602 75.0738 15.5039 75.4604C15.9202 75.7029 16.4197 75.7321 16.9009 75.7313C17.3821 75.7304 17.9699 75.7254 18.4228 75.8863" fill="#2B3048"/>
<path d="M18.3713 75.833C17.622 75.0946 17.3348 73.768 17.637 72.7588C18.2304 73.6674 18.4899 74.754 18.3713 75.833Z" fill="#2B3048"/>
<path d="M20.4375 73.7374C20.579 73.404 20.6789 73.0615 20.8063 72.7265C20.9219 72.3856 21.1 72.0694 21.3317 71.794C21.5662 71.5171 21.9003 71.3437 22.2616 71.3115C22.1461 71.8203 21.9259 72.2994 21.615 72.718C21.3041 73.1368 20.9092 73.486 20.4558 73.7432" fill="#2B3048"/>
<g opacity="0.2">
<path opacity="0.2" d="M20.4375 73.7374C20.579 73.404 20.6789 73.0615 20.8063 72.7265C20.9219 72.3856 21.1 72.0694 21.3317 71.794C21.5662 71.5171 21.9003 71.3437 22.2616 71.3115C22.1461 71.8203 21.9259 72.2994 21.615 72.718C21.3041 73.1368 20.9092 73.486 20.4558 73.7432" fill="black"/>
</g>
<path d="M20.0633 74.1737C19.8285 73.8511 19.5579 73.4128 19.2399 73.1736C18.9219 72.9345 18.5081 72.787 18.1201 72.8795C18.321 73.2319 18.6012 73.5326 18.9386 73.7577C19.2759 73.9828 19.661 74.1261 20.0633 74.1761" fill="#2B3048"/>
<path d="M20.1367 73.7642C19.9827 73.3725 19.8278 72.9775 19.7662 72.5625C19.7046 72.1475 19.7412 71.7033 19.9535 71.3408C20.3698 72.1208 20.4988 72.9592 20.1575 73.7725" fill="#2B3048"/>
<path d="M20.4404 71.3433C20.6735 70.57 21.3812 70 22.1455 69.7392C22.24 69.7 22.3425 69.6845 22.4444 69.6942C22.4951 69.6997 22.543 69.7201 22.5822 69.753C22.6213 69.7857 22.6498 69.8294 22.6642 69.8784C22.6925 70.01 22.5809 70.1284 22.4818 70.2117C21.8846 70.722 21.1901 71.1058 20.4404 71.34" fill="#2B3048"/>
<path d="M20.4497 70.7104C20.4788 70.2104 20.5105 69.7054 20.672 69.2329C20.8335 68.7604 21.1465 68.3162 21.6011 68.1104C21.6785 68.6145 21.4563 69.1154 21.1848 69.5487C20.9134 69.982 20.5946 70.3912 20.4355 70.8745" fill="#2B3048"/>
<path d="M20.4354 71.0525C20.2423 70.4891 20.2223 69.7725 19.8851 69.2817C19.6495 68.9383 19.2723 68.7042 19.0692 68.3408C18.9335 68.6808 18.9751 69.0716 19.1167 69.4091C19.2694 69.7415 19.48 70.044 19.7386 70.3025C19.9883 70.57 20.2015 70.77 20.4337 71.0525" fill="#2B3048"/>
<path d="M20.4403 87.653C20.4253 87.653 20.412 83.8921 20.4112 79.2546C20.4103 74.6171 20.4212 70.8555 20.4361 70.8555C20.4511 70.8555 20.4644 74.6155 20.4653 79.2546C20.4661 83.8938 20.4553 87.653 20.4403 87.653Z" fill="#263238"/>
<path d="M23.7243 76.3896C23.6787 76.4111 23.6314 76.4287 23.5828 76.4421L23.194 76.5738C22.8668 76.6855 22.4164 76.8472 21.9277 77.048C21.439 77.2488 20.9877 77.4247 20.7271 77.6497C20.6234 77.7361 20.5411 77.8453 20.4865 77.9688C20.4491 78.0572 20.4424 78.1113 20.4374 78.1105C20.4349 78.0973 20.4349 78.0838 20.4374 78.0705C20.4432 78.0333 20.4524 77.9968 20.4649 77.9613C20.514 77.8302 20.5949 77.7133 20.7005 77.6213C20.8571 77.4882 21.0324 77.379 21.2208 77.2972C21.429 77.1997 21.6604 77.098 21.9052 76.9972C22.3956 76.7963 22.8493 76.6397 23.1807 76.5372C23.3472 76.4855 23.4812 76.4472 23.5753 76.4222C23.6237 76.4064 23.6737 76.3955 23.7243 76.3896Z" fill="#263238"/>
<path d="M24.8004 73.7453C24.7886 73.7606 24.7752 73.7746 24.7605 73.787L24.6398 73.9003C24.5282 74.0028 24.3758 74.1412 24.1902 74.3095L22.6916 75.6428C22.1088 76.1636 21.6018 76.6611 21.2521 77.0361C21.0765 77.2228 20.9383 77.3786 20.8442 77.4861L20.7351 77.6111C20.7102 77.6395 20.696 77.6536 20.6943 77.652C20.7037 77.635 20.7146 77.6188 20.7268 77.6036C20.7493 77.5736 20.7826 77.5286 20.8275 77.4728C20.9175 77.3603 21.0515 77.2011 21.2238 77.0103C21.6758 76.5157 22.1538 76.0456 22.6558 75.602C23.2428 75.082 23.7764 74.6153 24.1644 74.2787C24.355 74.112 24.5116 73.9812 24.6256 73.882L24.753 73.777C24.783 73.752 24.7988 73.7437 24.8004 73.7453Z" fill="#263238"/>
<path d="M22.0598 76.1738C22.0449 76.1671 22.1672 75.8846 22.2887 75.5279C22.4101 75.1713 22.4692 74.8696 22.4842 74.8721C22.4992 74.8746 22.4642 75.1838 22.3402 75.5454C22.2877 75.6992 22.2269 75.85 22.158 75.9971C22.1341 76.0604 22.101 76.12 22.0598 76.1738Z" fill="#263238"/>
<path d="M20.4452 78.4499C20.4118 78.4178 20.3814 78.3827 20.3545 78.3449L20.1239 78.0483C19.9299 77.7983 19.6618 77.4516 19.3613 77.0724C19.0607 76.6933 18.7851 76.3533 18.5845 76.1074L18.3489 75.8149C18.3179 75.7805 18.29 75.7434 18.2656 75.7041C18.3015 75.733 18.3341 75.7657 18.363 75.8016C18.4238 75.8666 18.5087 75.9633 18.6128 76.0824C18.8201 76.3224 19.1015 76.6591 19.4029 77.0383C19.7043 77.4174 19.9665 77.7683 20.1522 78.0258C20.2454 78.1541 20.3187 78.2591 20.3695 78.3324C20.3985 78.369 20.4239 78.4083 20.4452 78.4499Z" fill="#263238"/>
<path d="M19.7238 77.5259C19.7146 77.5351 19.5233 77.3067 19.4226 76.9601C19.3662 76.7759 19.343 76.5831 19.3544 76.3909H19.3777C19.3677 76.4342 19.3593 76.4576 19.3552 76.4567C19.351 76.4559 19.351 76.4317 19.3552 76.3867H19.3793C19.3911 76.5744 19.4233 76.7601 19.475 76.9409C19.5732 77.2809 19.7396 77.5159 19.7238 77.5259Z" fill="#FFDC36"/>
<path d="M18.7952 76.3541C18.7301 76.305 18.6594 76.2638 18.5846 76.2316C18.3956 76.1759 18.1971 76.1602 18.0018 76.1857C17.8033 76.2007 17.6063 76.2325 17.4132 76.2807C17.334 76.306 17.253 76.3252 17.1709 76.3382C17.2432 76.2957 17.3211 76.2637 17.4023 76.2432C17.5958 76.1833 17.7956 76.1459 17.9976 76.1316C18.2008 76.1041 18.4077 76.1263 18.6004 76.1966C18.6814 76.2252 18.7502 76.2808 18.7952 76.3541Z" fill="#263238"/>
<path d="M18.5751 76.0712C18.571 76.0795 18.4527 76.022 18.2529 75.9537C17.7303 75.7745 17.1707 75.7318 16.627 75.8295C16.4188 75.867 16.2939 75.9062 16.2939 75.897C16.2939 75.8879 16.3231 75.8804 16.3772 75.8604C16.457 75.8325 16.5385 75.8097 16.6211 75.792C17.1697 75.6717 17.7415 75.7155 18.2654 75.9179C18.3445 75.9475 18.4215 75.9824 18.496 76.022C18.5247 76.0343 18.5514 76.0509 18.5751 76.0712Z" fill="#263238"/>
<path d="M20.4369 74.8705C20.4227 74.8705 20.3171 74.508 20.2014 74.0521C20.0858 73.5963 20.005 73.2247 20.0192 73.2188C20.0333 73.213 20.139 73.5813 20.2547 74.0363C20.3703 74.4913 20.451 74.8663 20.4369 74.8705Z" fill="#263238"/>
<path d="M20.452 74.8722C20.4362 74.8772 20.3688 74.633 20.1914 74.3822C20.0809 74.2344 19.9518 74.1014 19.8076 73.9863C19.8624 73.9993 19.9133 74.0253 19.9558 74.0622C20.0665 74.1414 20.1624 74.2392 20.2397 74.3513C20.4195 74.6113 20.4653 74.8713 20.452 74.8722Z" fill="#263238"/>
<path d="M20.4406 85.6505C20.4348 85.6505 20.4231 85.5605 20.3807 85.4005C20.3186 85.1763 20.2351 84.9579 20.1309 84.7496C19.8711 84.2188 19.3991 83.5454 18.7988 82.8713C18.5016 82.5313 18.2161 82.2104 17.9663 81.9029C17.7465 81.6328 17.5478 81.3461 17.3719 81.0454C17.2542 80.842 17.154 80.629 17.0721 80.4088C17.0447 80.3304 17.0247 80.2696 17.013 80.2271C17.0057 80.206 17.0007 80.1843 16.998 80.1621C17.003 80.1621 17.0305 80.2454 17.0921 80.4013C17.1806 80.6172 17.2852 80.8261 17.4052 81.0263C17.5848 81.3222 17.7855 81.6049 18.0054 81.8721C18.251 82.1754 18.5399 82.4946 18.838 82.8354C19.4399 83.5113 19.9111 84.1929 20.1634 84.733C20.2666 84.9455 20.3462 85.1696 20.4006 85.3996C20.415 85.4621 20.4262 85.5255 20.4339 85.5888C20.4378 85.6088 20.44 85.6296 20.4406 85.6505Z" fill="#263238"/>
<path d="M23.4061 82.2962C23.3559 82.327 23.3039 82.3548 23.2504 82.3796C23.11 82.4593 22.9754 82.5486 22.8475 82.6471C22.6585 82.7939 22.4814 82.9555 22.318 83.1304C22.1315 83.3271 21.94 83.5554 21.7452 83.7971C21.3539 84.2879 20.9884 84.7221 20.7694 85.0687C20.6587 85.2404 20.5779 85.3854 20.5247 85.4854C20.5002 85.5396 20.4724 85.5912 20.4414 85.6421C20.444 85.6271 20.4487 85.6121 20.4556 85.5987C20.4672 85.5704 20.483 85.5279 20.508 85.4762C20.5758 85.3287 20.6529 85.1854 20.7386 85.0471C20.9518 84.6921 21.3139 84.2512 21.7044 83.7612C21.9 83.5162 22.094 83.2879 22.2872 83.0946C22.4544 82.92 22.636 82.7597 22.83 82.6154C22.9611 82.5186 23.1004 82.4332 23.2462 82.3604C23.2979 82.3346 23.3403 82.3187 23.3678 82.3062C23.3953 82.2937 23.4019 82.2937 23.4061 82.2962Z" fill="#263238"/>
<path d="M23.4656 83.3822C23.3574 83.4064 23.2474 83.4231 23.1367 83.4306C22.8728 83.4572 22.612 83.5089 22.3575 83.5839C22.1058 83.6656 21.8699 83.7897 21.6598 83.9506C21.4983 84.0747 21.4225 84.1781 21.415 84.1722C21.4267 84.1439 21.4433 84.1181 21.4642 84.0964C21.5149 84.0322 21.5721 83.9731 21.6348 83.9206C21.8432 83.7472 22.0829 83.6156 22.3408 83.5322C22.5986 83.4556 22.8642 83.4081 23.1326 83.3922C23.2431 83.3789 23.3545 83.3756 23.4656 83.3822Z" fill="#263238"/>
<path d="M21.5122 84.0527C21.4947 84.0427 21.6428 83.8168 21.7618 83.5118C21.8808 83.2068 21.8949 82.9352 21.914 82.9385C21.9219 82.9973 21.92 83.057 21.9082 83.1152C21.8926 83.2573 21.8605 83.3968 21.8125 83.5318C21.763 83.666 21.6991 83.7935 21.622 83.9135C21.5935 83.966 21.5563 84.0127 21.5122 84.0527Z" fill="#263238"/>
<path d="M24.3677 79.3721C24.3514 79.3837 24.3339 79.3932 24.3152 79.4004L24.1604 79.4704C24.0929 79.4996 24.0113 79.5362 23.9181 79.5854C23.8249 79.6346 23.7175 79.6821 23.6042 79.7521L23.4252 79.8537C23.3628 79.8896 23.3012 79.9321 23.2362 79.9729C23.1039 80.0562 22.9715 80.1521 22.83 80.2529C22.225 80.7045 21.6973 81.2513 21.2673 81.8721C21.1707 82.0171 21.0766 82.1529 21.0009 82.2887C20.9626 82.3554 20.9218 82.4187 20.8885 82.4821L20.7927 82.6654C20.7286 82.7812 20.6837 82.8912 20.6387 82.9854C20.5938 83.0796 20.5555 83.1629 20.5322 83.2354C20.5088 83.3079 20.4847 83.3504 20.4672 83.3921C20.4611 83.4112 20.4523 83.4287 20.4414 83.4454C20.4442 83.4254 20.4495 83.4062 20.4572 83.3879C20.4722 83.3462 20.4905 83.2929 20.513 83.2271C20.5415 83.1421 20.5743 83.0587 20.6112 82.9771C20.6529 82.8804 20.6945 82.7687 20.7586 82.6521L20.8518 82.4662C20.8843 82.4021 20.9243 82.3379 20.9626 82.2704C21.0367 82.1329 21.1291 81.9954 21.2257 81.8487C21.6547 81.2201 22.187 80.6687 22.8 80.2179C22.9432 80.1171 23.0781 80.0196 23.2121 79.9404C23.2787 79.8996 23.3412 79.8571 23.4036 79.8229L23.5859 79.7229C23.7008 79.6571 23.8107 79.6096 23.9056 79.5646C23.987 79.5247 24.0704 79.4891 24.1554 79.4579L24.3144 79.3962C24.3311 79.386 24.349 79.3779 24.3677 79.3721Z" fill="#263238"/>
<path d="M22.0205 80.9501C22.0423 80.874 22.0874 80.8066 22.1496 80.7576C22.294 80.6315 22.4783 80.5607 22.6699 80.5576C22.8575 80.557 23.0433 80.5933 23.2169 80.6643C23.2904 80.688 23.3602 80.722 23.4242 80.7651C23.3491 80.7507 23.2755 80.7292 23.2044 80.701C23.0329 80.6422 22.8529 80.612 22.6716 80.6118C22.4906 80.615 22.3155 80.6764 22.172 80.7868C22.1174 80.8373 22.0668 80.8919 22.0205 80.9501Z" fill="#FFDC36"/>
<g opacity="0.2">
<path opacity="0.2" d="M17.0603 80.271C16.5849 79.9735 16.0479 79.7885 15.4902 79.7301C15.2337 79.7043 14.9532 79.7118 14.7475 79.8668C14.7237 79.8805 14.7041 79.9003 14.6906 79.9242C14.6771 79.9481 14.6704 79.9752 14.6709 80.0026C14.6829 80.0416 14.7086 80.0748 14.7434 80.096C15.3828 80.5835 16.3485 80.6451 17.0603 80.271Z" fill="black"/>
</g>
<g opacity="0.4">
<path opacity="0.4" d="M17.0517 80.2646C16.991 79.8222 16.9685 79.3672 17.07 78.9313C17.1716 78.4955 17.4097 78.083 17.7794 77.833C17.9192 78.1597 17.8626 78.5363 17.7611 78.878C17.6081 79.4067 17.3706 79.9071 17.0576 80.3596" fill="white"/>
</g>
<g opacity="0.2">
<path opacity="0.2" d="M18.0145 81.9175C17.8253 81.4363 17.7591 80.9154 17.8217 80.402C17.8844 79.8887 18.074 79.3991 18.3733 78.9775C18.6472 79.9534 18.5465 81.055 18.0145 81.9175Z" fill="black"/>
</g>
<g opacity="0.2">
<path opacity="0.2" d="M19.0634 83.1615C18.6239 83.1344 18.186 83.2372 17.8043 83.4573C17.4226 83.6773 17.1138 84.004 16.9163 84.3981C16.8993 84.4223 16.889 84.4498 16.8864 84.4798C16.8838 84.509 16.8889 84.5381 16.9013 84.5648C16.9202 84.5823 16.9429 84.5948 16.9676 84.6023C16.9923 84.6098 17.0184 84.6106 17.0437 84.6065C17.4675 84.579 17.8421 84.324 18.1518 84.034C18.4615 83.744 18.7346 83.4081 19.0726 83.1573" fill="black"/>
</g>
<g opacity="0.4">
<path opacity="0.4" d="M22.0518 83.6767C23 83.9267 24.089 83.6842 24.8782 83.1017C24.4049 82.8646 23.8642 82.799 23.348 82.9159C22.8368 83.0334 22.3698 83.2626 22.0518 83.6792" fill="white"/>
</g>
<g opacity="0.2">
<path opacity="0.2" d="M22.2617 83.1569C22.7929 82.2894 23.8119 81.7235 24.8268 81.6719C24.7102 82.0885 24.3705 82.406 23.9876 82.6002C23.6046 82.7944 23.1775 82.8785 22.7562 82.961C22.5897 82.9927 22.3675 83.0277 22.2617 83.1569Z" fill="black"/>
</g>
<g opacity="0.4">
<path opacity="0.4" d="M23.1582 79.994C24.024 80.1265 24.7617 80.6798 25.5726 81.0156C25.7425 81.0971 25.9307 81.133 26.1187 81.1198C26.206 81.1185 26.2906 81.0905 26.3616 81.0396C26.4324 80.9887 26.486 80.9173 26.5151 80.835C26.5442 80.7526 26.5475 80.6634 26.5243 80.5792C26.5013 80.495 26.453 80.4199 26.386 80.364C26.2713 80.258 26.1365 80.1761 25.9897 80.1231C25.108 79.7565 24.1631 79.7473 23.2348 79.9698" fill="white"/>
</g>
<g opacity="0.2">
<path opacity="0.2" d="M22.7637 76.6853C23.2335 76.3392 23.7785 76.1092 24.3541 76.0142C24.9297 75.9192 25.5196 75.9618 26.0755 76.1386C25.6593 76.5494 25.0765 76.7711 24.4979 76.8319C23.9157 76.885 23.3287 76.8353 22.7637 76.6853Z" fill="black"/>
</g>
<g opacity="0.4">
<path opacity="0.4" d="M22.4962 75.0004C22.4196 74.2204 22.4695 73.6054 22.413 72.8221C22.4088 72.7587 22.3946 72.6837 22.3364 72.6612C22.2532 72.6296 22.1875 72.7304 22.1608 72.8129C22.0478 73.1756 22.0191 73.5593 22.0768 73.9348C22.1345 74.3103 22.2771 74.6677 22.4937 74.9796" fill="white"/>
</g>
<g opacity="0.4">
<path opacity="0.4" d="M23.7083 74.732C24.8699 74.3017 25.9452 73.667 26.8837 72.8578C26.5049 72.7053 26.0703 72.7962 25.6915 72.9495C24.8248 73.2995 24.1171 73.8903 23.6934 74.7237" fill="white"/>
</g>
<g opacity="0.4">
<path opacity="0.4" d="M19.4504 76.9554C19.0502 76.1471 19.076 75.2054 19.4213 74.3721C19.6642 74.7429 19.6942 75.2154 19.6501 75.6571C19.606 76.0988 19.4712 76.5521 19.4629 76.9963" fill="white"/>
</g>
<g opacity="0.4">
<path opacity="0.4" d="M16.7796 75.7919C16.2917 75.7528 15.8214 75.6919 15.3518 75.8361C14.8823 75.9803 14.4543 76.3069 14.2637 76.7603C14.7242 76.7981 15.1865 76.7118 15.6024 76.5103C16.0154 76.3077 16.4094 76.0683 16.7796 75.7953" fill="white"/>
</g>
<g opacity="0.2">
<path opacity="0.2" d="M18.3713 75.833C17.622 75.0946 17.3348 73.768 17.637 72.7588C18.2304 73.6674 18.4899 74.754 18.3713 75.833Z" fill="black"/>
</g>
<g opacity="0.2">
<path opacity="0.2" d="M20.0633 74.1737C19.8285 73.8511 19.5579 73.4128 19.2399 73.1736C18.9219 72.9345 18.5081 72.787 18.1201 72.8795C18.321 73.2319 18.6012 73.5326 18.9386 73.7577C19.2759 73.9828 19.661 74.1261 20.0633 74.1761" fill="black"/>
</g>
<g opacity="0.4">
<path opacity="0.4" d="M20.4404 71.3433C20.6735 70.57 21.3812 70 22.1455 69.7392C22.24 69.7 22.3425 69.6845 22.4444 69.6942C22.4951 69.6997 22.543 69.7201 22.5822 69.753C22.6213 69.7857 22.6498 69.8294 22.6642 69.8784C22.6925 70.01 22.5809 70.1284 22.4818 70.2117C21.8846 70.722 21.1901 71.1058 20.4404 71.34" fill="white"/>
</g>
<g opacity="0.2">
<path opacity="0.2" d="M20.4354 71.0525C20.2423 70.4891 20.2223 69.7725 19.8851 69.2817C19.6495 68.9383 19.2723 68.7042 19.0692 68.3408C18.9335 68.6808 18.9751 69.0716 19.1167 69.4091C19.2694 69.7415 19.48 70.044 19.7386 70.3025C19.9883 70.57 20.2015 70.77 20.4337 71.0525" fill="black"/>
</g>
<g opacity="0.4">
<path opacity="0.4" d="M19.7238 77.5259C19.7146 77.5351 19.5233 77.3067 19.4226 76.9601C19.3662 76.7759 19.343 76.5831 19.3544 76.3909H19.3777C19.3677 76.4342 19.3593 76.4576 19.3552 76.4567C19.351 76.4559 19.351 76.4317 19.3552 76.3867H19.3793C19.3911 76.5744 19.4233 76.7601 19.475 76.9409C19.5732 77.2809 19.7396 77.5159 19.7238 77.5259Z" fill="white"/>
</g>
<g opacity="0.4">
<path opacity="0.4" d="M22.0205 80.9501C22.0423 80.874 22.0874 80.8066 22.1496 80.7576C22.294 80.6315 22.4783 80.5607 22.6699 80.5576C22.8575 80.557 23.0433 80.5933 23.2169 80.6643C23.2904 80.688 23.3602 80.722 23.4242 80.7651C23.3491 80.7507 23.2755 80.7292 23.2044 80.701C23.0329 80.6422 22.8529 80.612 22.6716 80.6118C22.4906 80.615 22.3155 80.6764 22.172 80.7868C22.1174 80.8373 22.0668 80.8919 22.0205 80.9501Z" fill="white"/>
</g>
<path d="M21.6701 81.3108C21.6551 81.3024 21.7874 81.1074 21.8182 80.8291C21.849 80.5508 21.7683 80.3291 21.7849 80.3291C21.8165 80.37 21.8374 80.4181 21.8457 80.4691C21.909 80.7114 21.8793 80.9686 21.7625 81.1899C21.7159 81.2716 21.6759 81.3141 21.6701 81.3108Z" fill="#263238"/>
<path d="M17.8457 86.1875C17.929 87.625 18.3594 89.0858 19.0246 90.5642H21.9185C22.5529 89.1008 22.9558 87.6417 23.0274 86.1875H17.8457Z" fill="#60686B"/>
<path d="M23.2683 85.7305H17.6387V86.2063H23.2683V85.7305Z" fill="#B2B6BB"/>
<path opacity="0.2" d="M17.8457 86.1875C17.8499 86.26 17.8557 86.3333 17.8615 86.4058H21.9202C21.9202 86.4058 21.9451 88.89 21.1001 90.5642H21.9185C22.5504 89.1067 22.9525 87.6533 23.0266 86.205L17.8457 86.1875Z" fill="black"/>
<path opacity="0.2" d="M21.9229 85.7305V86.203L23.2674 86.2071V85.7305H21.9229Z" fill="black"/>
<path d="M93.3203 85.9512H99.9149C100.256 85.9512 100.583 86.087 100.824 86.3287C101.065 86.5695 101.201 86.897 101.201 87.2387C101.201 87.5878 101.062 87.9228 100.816 88.1703C100.568 88.417 100.234 88.5562 99.8849 88.5562H93.322V85.9512H93.3203Z" fill="white"/>
<path d="M107.074 87.0213V87.4129C107.075 87.6138 107.025 87.8113 106.93 87.9871C106.841 88.1563 106.71 88.2979 106.547 88.3979C106.385 88.4979 106.199 88.5521 106.009 88.5546H93.1043C93.0835 88.5538 93.0627 88.5488 93.0436 88.5404C93.0244 88.5313 93.0069 88.5188 92.9928 88.5038C92.9786 88.4879 92.967 88.4696 92.9603 88.4496C92.9528 88.4304 92.9495 88.4088 92.9503 88.3879V88.3296C92.9495 88.3088 92.9528 88.2871 92.9603 88.2679C92.967 88.2479 92.9786 88.2296 92.9928 88.2146C93.0069 88.1988 93.0244 88.1863 93.0436 88.1771C93.0627 88.1688 93.0835 88.1638 93.1043 88.1629H100.969C101.011 88.1071 101.048 88.0479 101.079 87.9854C101.156 87.8296 101.195 87.6588 101.194 87.4854V86.9854C101.194 86.8963 101.183 86.8063 101.163 86.7196C101.128 86.5796 101.066 86.4488 100.98 86.3329H93.1043C93.0835 86.3321 93.0627 86.3271 93.0436 86.3188C93.0244 86.3096 93.0069 86.2971 92.9928 86.2821C92.9786 86.2663 92.967 86.2479 92.9603 86.2279C92.9528 86.2088 92.9495 86.1871 92.9503 86.1663V86.1071C92.9495 86.0863 92.9528 86.0646 92.9603 86.0454C92.967 86.0254 92.9786 86.0071 92.9928 85.9921C93.0069 85.9763 93.0244 85.9638 93.0436 85.9546C93.0627 85.9463 93.0835 85.9413 93.1043 85.9404H106.075C106.299 85.9454 106.514 86.0238 106.688 86.1646C106.862 86.3046 106.985 86.4988 107.038 86.7163C107.064 86.8154 107.076 86.9188 107.074 87.0213Z" fill="#2B3048"/>
<path opacity="0.2" d="M107.074 87.0213V87.4129C107.075 87.6138 107.025 87.8113 106.93 87.9871C106.841 88.1563 106.71 88.2979 106.547 88.3979C106.385 88.4979 106.199 88.5521 106.009 88.5546H93.1043C93.0835 88.5538 93.0627 88.5488 93.0436 88.5404C93.0244 88.5313 93.0069 88.5188 92.9928 88.5038C92.9786 88.4879 92.967 88.4696 92.9603 88.4496C92.9528 88.4304 92.9495 88.4088 92.9503 88.3879V88.3296C92.9495 88.3088 92.9528 88.2871 92.9603 88.2679C92.967 88.2479 92.9786 88.2296 92.9928 88.2146C93.0069 88.1988 93.0244 88.1863 93.0436 88.1771C93.0627 88.1688 93.0835 88.1638 93.1043 88.1629H100.969C101.011 88.1071 101.048 88.0479 101.079 87.9854C101.156 87.8296 101.195 87.6588 101.194 87.4854V86.9854C101.194 86.8963 101.183 86.8063 101.163 86.7196C101.128 86.5796 101.066 86.4488 100.98 86.3329H93.1043C93.0835 86.3321 93.0627 86.3271 93.0436 86.3188C93.0244 86.3096 93.0069 86.2971 92.9928 86.2821C92.9786 86.2663 92.967 86.2479 92.9603 86.2279C92.9528 86.2088 92.9495 86.1871 92.9503 86.1663V86.1071C92.9495 86.0863 92.9528 86.0646 92.9603 86.0454C92.967 86.0254 92.9786 86.0071 92.9928 85.9921C93.0069 85.9763 93.0244 85.9638 93.0436 85.9546C93.0627 85.9463 93.0835 85.9413 93.1043 85.9404H106.075C106.299 85.9454 106.514 86.0238 106.688 86.1646C106.862 86.3046 106.985 86.4988 107.038 86.7163C107.064 86.8154 107.076 86.9188 107.074 87.0213Z" fill="white"/>
<path opacity="0.1" d="M107.035 86.7274H101.163C101.128 86.5874 101.066 86.4566 100.98 86.3408H93.1043C93.0835 86.3399 93.0627 86.3349 93.0436 86.3266C93.0244 86.3174 93.0069 86.3049 92.9928 86.2891C92.9786 86.2741 92.967 86.2558 92.9603 86.2358C92.9528 86.2166 92.9495 86.1949 92.9503 86.1741V86.1149C92.9495 86.0941 92.9528 86.0724 92.9603 86.0532C92.967 86.0332 92.9786 86.0149 92.9928 85.9991C93.0069 85.9841 93.0244 85.9716 93.0436 85.9624C93.0627 85.9541 93.0835 85.9491 93.1043 85.9482H106.075C106.299 85.9541 106.513 86.0333 106.687 86.1741C106.861 86.3149 106.984 86.5099 107.035 86.7274Z" fill="black"/>
<path opacity="0.1" d="M93.3203 87.2529L94.2752 87.2963L93.3203 87.3229V87.2529Z" fill="black"/>
<path opacity="0.1" d="M93.3203 87.6611L95.5923 87.7053L93.3203 87.7311V87.6611Z" fill="black"/>
<path d="M99.0418 90.5755H92.3897C92.1125 90.5755 91.8469 90.4655 91.6513 90.2697C91.4556 90.0738 91.3457 89.808 91.3457 89.5305C91.3457 89.2705 91.4489 89.0205 91.6329 88.8363C91.8169 88.6522 92.0667 88.5488 92.3264 88.5488H99.0418V90.5755Z" fill="#2B3048"/>
<path opacity="0.2" d="M99.0437 90.5755H92.3917C92.1144 90.5755 91.8489 90.4655 91.6532 90.2697C91.4576 90.0738 91.3477 89.808 91.3477 89.5305C91.3477 89.2705 91.4509 89.0205 91.6349 88.8363C91.8189 88.6522 92.0686 88.5488 92.3284 88.5488H99.0437V90.5755Z" fill="black"/>
<path d="M106.381 90.575H98.7927C98.5213 90.575 98.2607 90.4675 98.0692 90.275C97.8769 90.0833 97.7695 89.8225 97.7695 89.5508C97.7695 89.2858 97.8744 89.0316 98.0618 88.8433C98.2499 88.6558 98.5038 88.5508 98.7686 88.5508H106.38V90.5775L106.381 90.575Z" fill="#F4F4F4"/>
<path d="M97.2746 90.5758H106.631C106.715 90.5758 106.782 90.5083 106.782 90.4241C106.782 90.34 106.715 90.2725 106.631 90.2725H97.2746C97.1913 90.2725 97.123 90.34 97.123 90.4241C97.123 90.5083 97.1913 90.5758 97.2746 90.5758Z" fill="#2B3048"/>
<path d="M97.2746 88.8521H106.631C106.715 88.8521 106.782 88.7847 106.782 88.7005C106.782 88.6163 106.715 88.5488 106.631 88.5488H97.2746C97.1913 88.5488 97.123 88.6163 97.123 88.7005C97.123 88.7847 97.1913 88.8521 97.2746 88.8521Z" fill="#2B3048"/>
<path opacity="0.2" d="M97.2746 90.5758H106.631C106.715 90.5758 106.782 90.5083 106.782 90.4241C106.782 90.34 106.715 90.2725 106.631 90.2725H97.2746C97.1913 90.2725 97.123 90.34 97.123 90.4241C97.123 90.5083 97.1913 90.5758 97.2746 90.5758Z" fill="#3F4249"/>
<path opacity="0.2" d="M97.2746 88.8521H106.631C106.715 88.8521 106.782 88.7847 106.782 88.7005C106.782 88.6163 106.715 88.5488 106.631 88.5488H97.2746C97.1913 88.5488 97.123 88.6163 97.123 88.7005C97.123 88.7847 97.1913 88.8521 97.2746 88.8521Z" fill="#3F4249"/>
<path opacity="0.1" d="M106.382 89.5625L105.338 89.5967L106.382 89.6167V89.5625Z" fill="black"/>
<path opacity="0.1" d="M106.382 89.0947L103.898 89.1289L106.382 89.1497V89.0947Z" fill="black"/>
<path d="M103.924 89.124C103.993 89.1857 104.042 89.2649 104.066 89.354C104.073 89.3815 104.076 89.409 104.077 89.4374C104.083 89.6274 104.077 90.0582 104.077 90.0582L104.391 89.8432L104.705 90.0582V89.4749C104.708 89.3732 104.681 89.2732 104.628 89.1874C104.62 89.1715 104.608 89.1582 104.593 89.1482C104.579 89.1374 104.562 89.1307 104.545 89.1274L103.924 89.124Z" fill="#FFDC36"/>
<path opacity="0.2" d="M103.924 89.124C103.993 89.1857 104.042 89.2649 104.066 89.354L104.696 89.3624C104.696 89.3624 104.671 89.1582 104.541 89.124H103.924Z" fill="black"/>
<path d="M91.5879 82.9785H97.8228C98.2125 82.9785 98.5871 83.1336 98.8627 83.4094C99.1382 83.6852 99.2931 84.0602 99.2931 84.4502C99.2931 84.8493 99.1349 85.2318 98.8527 85.5143C98.5704 85.7968 98.1883 85.9552 97.7895 85.9552H91.5879V82.9785Z" fill="white"/>
<path d="M99.3003 84.1335V84.7743C99.3027 84.8977 99.2753 85.0202 99.2203 85.1318C99.1662 85.2427 99.0855 85.3385 98.9855 85.4118C98.8948 85.4752 98.7866 85.5093 98.6758 85.5102H91.3878C91.3428 85.5143 91.3012 85.5368 91.2729 85.571C91.2437 85.606 91.2296 85.6502 91.2329 85.6952V85.7702C91.2296 85.8152 91.2437 85.8593 91.2729 85.8943C91.3012 85.9285 91.3428 85.951 91.3878 85.9552H103.977C104.339 85.9552 104.658 85.741 104.851 85.4118C104.979 85.1893 105.046 84.9377 105.044 84.681V84.1752C105.045 83.9968 105.011 83.8202 104.944 83.6544C104.783 83.2544 104.44 82.9785 104.042 82.9785H91.3878C91.3428 82.9829 91.3012 83.0049 91.2729 83.0394C91.2437 83.074 91.2296 83.1185 91.2329 83.1635V83.2385C91.2296 83.2835 91.2437 83.328 91.2729 83.3627C91.3012 83.3969 91.3428 83.4193 91.3878 83.4235H98.6975C98.7841 83.4252 98.869 83.4469 98.9464 83.4869C99.023 83.5269 99.0896 83.5844 99.1412 83.6544C99.2453 83.7927 99.3011 83.961 99.3003 84.1335Z" fill="#2B3048"/>
<path opacity="0.1" d="M91.2329 85.6964V85.7714C91.2296 85.8164 91.2437 85.8606 91.2729 85.8956C91.3012 85.9297 91.3428 85.9522 91.3878 85.9564H103.977C104.339 85.9564 104.658 85.7422 104.851 85.4131H98.9855C98.8948 85.4764 98.7866 85.5106 98.6758 85.5114H91.3878C91.3428 85.5156 91.3012 85.5381 91.2729 85.5722C91.2437 85.6072 91.2296 85.6514 91.2329 85.6964Z" fill="black"/>
<path opacity="0.1" d="M91.5908 84.4658L92.5249 84.5158L91.5908 84.5458V84.4658Z" fill="black"/>
<path opacity="0.1" d="M91.5908 83.7822L93.8129 83.8322L91.5908 83.8622V83.7822Z" fill="black"/>
<path d="M93.7917 83.8207C93.7026 83.8815 93.6335 83.969 93.596 84.0707C93.5877 84.0982 93.5827 84.1257 93.581 84.154C93.5727 84.3599 93.581 84.8265 93.581 84.8265L93.1481 84.5932L92.716 84.8265V84.194C92.7127 84.0807 92.7502 83.9699 92.8218 83.8824C92.8359 83.8641 92.8542 83.8482 92.875 83.8374C92.895 83.8257 92.9183 83.819 92.9416 83.8174L93.7917 83.8207Z" fill="#FFDC36"/>
<path opacity="0.2" d="M93.7907 83.8213C93.7016 83.8821 93.6325 83.9696 93.595 84.0713L92.7275 84.0813C92.7275 84.0813 92.7617 83.8588 92.9407 83.8221L93.7907 83.8213Z" fill="black"/>
<defs>
<linearGradient id="paint0_linear_1227_188594" x1="60.4355" y1="49.9725" x2="63.2795" y2="49.9725" gradientUnits="userSpaceOnUse">
<stop stop-color="#FFDC36"/>
<stop offset="1" stop-color="#FFA800"/>
</linearGradient>
</defs>
</svg>
