<svg width="20" height="20" viewBox="0 0 20 20" fill="none" xmlns="http://www.w3.org/2000/svg">
<path fill-rule="evenodd" clip-rule="evenodd" d="M9.375 2.5C9.375 1.80964 9.93464 1.25 10.625 1.25H13.125C13.8154 1.25 14.375 1.80964 14.375 2.5V3.4409C14.5213 3.36669 14.6838 3.31716 14.8588 3.29874L16.4369 3.13273C17.237 3.04855 17.9169 3.65324 18.0039 4.42193L18.0042 4.4248L19.3663 16.985C19.4499 17.7566 18.9106 18.492 18.1099 18.5763L16.5318 18.7423L16.5313 18.7423C15.7335 18.8255 15.0508 18.2234 14.9666 17.4527L14.375 12.0045V17.5C14.375 18.1904 13.8154 18.75 13.125 18.75H10.625C10.2517 18.75 9.91654 18.5863 9.6875 18.3268C9.45846 18.5863 9.12334 18.75 8.75 18.75H5C4.62666 18.75 4.29155 18.5863 4.0625 18.3268C3.83345 18.5863 3.49834 18.75 3.125 18.75H1.875C1.18464 18.75 0.625 18.1904 0.625 17.5V4.375C0.625 3.68464 1.18464 3.125 1.875 3.125H3.125C3.81536 3.125 4.375 3.68464 4.375 4.375V5.79223C4.55886 5.68587 4.77232 5.625 5 5.625H8.75C8.97768 5.625 9.19114 5.68587 9.375 5.79223V2.5ZM8.75 8.125V6.875H5V8.125H8.75ZM5 9.375H8.75V15H5V9.375ZM5 16.25H8.75V17.5H5V16.25ZM14.8452 4.75529L16.2092 17.3169C16.2092 17.3169 16.2092 17.317 16.2092 17.317C16.2235 17.4468 16.3302 17.5063 16.4012 17.4991C16.4013 17.4991 16.4014 17.4991 16.4016 17.4991L17.9791 17.3331C18.0472 17.326 18.1376 17.2489 18.1236 17.1197C18.1236 17.1197 18.1236 17.1197 18.1236 17.1197L16.7618 4.56244C16.7617 4.5621 16.7617 4.56175 16.7617 4.5614C16.7458 4.42615 16.6363 4.36865 16.5677 4.37587L14.9896 4.54188C14.9896 4.54188 14.9896 4.54188 14.9896 4.54188C14.9216 4.54905 14.8312 4.62614 14.8452 4.75529ZM13.125 2.5H10.625V17.5H13.125V2.5ZM3.125 4.375H1.875V17.5H3.125V4.375Z" fill="#00D6EC"/>
</svg>
