<svg width="23" height="21" viewBox="0 0 23 21" fill="none" xmlns="http://www.w3.org/2000/svg">
<path d="M18.0967 0.998067C18.6016 1.45958 18.6925 2.18613 18.6925 2.18613C18.6925 2.18613 17.9648 2.16329 17.4599 1.6972C16.9551 1.23568 16.8641 0.509132 16.8641 0.509132C16.8641 0.509132 17.5918 0.536548 18.0967 0.998067Z" fill="#00D6EC"/>
<path d="M14.5435 18.0561C14.1068 18.6181 14.0841 19.2807 14.0886 19.2807C14.0886 19.2899 15.0028 19.034 15.4122 18.4125C15.8215 17.8002 15.6214 17.1696 15.6305 17.1696C15.626 17.1788 14.9801 17.4986 14.5435 18.0561Z" fill="#00D6EC"/>
<path d="M15.1852 19.9982C14.3847 19.8611 14.0845 19.2533 14.0845 19.2579C14.0936 19.2625 14.9532 19.0112 15.6946 19.098C16.4451 19.1894 16.8817 19.6555 16.8817 19.66C16.8908 19.6646 15.9948 20.1352 15.1852 19.9982Z" fill="#00D6EC"/>
<path d="M16.1324 17.357C15.8322 17.9739 15.9414 18.6136 15.9459 18.6136C15.9459 18.6227 16.751 18.2206 17.0193 17.5535C17.2922 16.8955 16.9829 16.3152 16.9875 16.3152C16.9875 16.3243 16.4326 16.7447 16.1324 17.357Z" fill="#00D6EC"/>
<path d="M17.1151 19.1209C16.3328 19.1255 15.9371 18.5863 15.9371 18.5909C15.9462 18.5909 16.7012 18.207 17.4198 18.1659C18.1476 18.1293 18.657 18.504 18.657 18.5086C18.6661 18.5132 17.902 19.1209 17.1151 19.1209Z" fill="#00D6EC"/>
<path d="M17.5013 16.4065C17.333 17.0508 17.5559 17.6539 17.565 17.6539C17.565 17.6631 18.2518 17.1376 18.3928 16.443C18.5338 15.7576 18.129 15.2504 18.1335 15.2504C18.1335 15.2595 17.6742 15.7667 17.5013 16.4065Z" fill="#00D6EC"/>
<path d="M18.7702 17.951C18.0242 18.0881 17.5467 17.6311 17.5467 17.6403C17.5557 17.6403 18.1971 17.1422 18.8839 16.9777C19.5752 16.8132 20.1347 17.0919 20.1392 17.0965C20.1483 17.0919 19.5252 17.8139 18.7702 17.951Z" fill="#00D6EC"/>
<path d="M18.6469 15.255C18.6014 15.913 18.9289 16.4568 18.9334 16.4568C18.9334 16.4659 19.502 15.8353 19.5156 15.1407C19.5292 14.4507 19.0517 14.0258 19.0562 14.0258C19.0517 14.0258 18.6923 14.6015 18.6469 15.255Z" fill="#00D6EC"/>
<path d="M20.1525 16.5299C19.4566 16.7903 18.9153 16.4339 18.9153 16.4385C18.9244 16.4385 19.452 15.8399 20.0888 15.5611C20.7301 15.2824 21.326 15.4515 21.3305 15.456C21.3351 15.456 20.8529 16.2694 20.1525 16.5299Z" fill="#00D6EC"/>
<path d="M19.5518 13.9298C19.62 14.5787 20.0339 15.0493 20.0385 15.0493C20.043 15.0585 20.4842 14.3456 20.3751 13.6648C20.2704 12.9885 19.7292 12.6595 19.7337 12.6549C19.7428 12.6595 19.4881 13.2855 19.5518 13.9298Z" fill="#00D6EC"/>
<path d="M21.2395 14.9078C20.6073 15.2825 20.016 15.0312 20.0205 15.0357C20.0251 15.0312 20.439 14.3594 21.0121 13.9756C21.5943 13.5918 22.2037 13.6512 22.2083 13.6557C22.2128 13.6512 21.8808 14.5285 21.2395 14.9078Z" fill="#00D6EC"/>
<path d="M20.2156 12.4767C20.3884 13.0982 20.8796 13.4866 20.8796 13.482C20.8842 13.4911 21.198 12.7189 20.9797 12.0655C20.7659 11.4212 20.1837 11.1927 20.1883 11.1927C20.1883 11.2018 20.0427 11.8598 20.2156 12.4767Z" fill="#00D6EC"/>
<path d="M22.0303 13.1301C21.4754 13.6099 20.8568 13.4683 20.8568 13.4728C20.8613 13.4683 21.1524 12.7371 21.6482 12.2573C22.1531 11.7775 22.7625 11.7227 22.7625 11.7273C22.7762 11.7273 22.5943 12.6457 22.0303 13.1301Z" fill="#00D6EC"/>
<path d="M20.6215 10.9322C20.8944 11.5126 21.4356 11.8004 21.4402 11.8004C21.4447 11.805 21.6221 10.9916 21.3037 10.393C20.9854 9.799 20.3759 9.68019 20.3804 9.67562C20.385 9.68019 20.3486 10.3565 20.6215 10.9322Z" fill="#00D6EC"/>
<path d="M22.5089 11.2475C22.045 11.8187 21.4128 11.7913 21.4173 11.7959C21.4219 11.7913 21.5856 11.0236 21.9949 10.4616C22.4088 9.89495 22.9956 9.73501 23.0001 9.73958C23.0047 9.73501 22.9819 10.6763 22.5089 11.2475Z" fill="#00D6EC"/>
<path d="M20.7625 9.34202C21.1264 9.86294 21.7085 10.0549 21.7085 10.0503C21.7131 10.0549 21.754 9.22321 21.3401 8.68401C20.9308 8.14938 20.3122 8.14481 20.3168 8.14024C20.3168 8.14481 20.4032 8.82109 20.7625 9.34202Z" fill="#00D6EC"/>
<path d="M22.6636 9.31009C22.3043 9.95896 21.6811 10.0412 21.6857 10.0458C21.6902 10.0412 21.7221 9.25526 22.0268 8.62467C22.3361 7.98951 22.8819 7.72448 22.8864 7.72905C22.891 7.71991 23.0274 8.65666 22.6636 9.31009Z" fill="#00D6EC"/>
<path d="M20.6307 7.73804C21.081 8.19042 21.6768 8.27267 21.6814 8.2681C21.6859 8.27267 21.5859 7.44102 21.081 6.9795C20.5852 6.52255 19.9758 6.62308 19.9803 6.62308C19.9803 6.62308 20.185 7.28566 20.6307 7.73804Z" fill="#00D6EC"/>
<path d="M22.4867 7.36338C22.2457 8.07165 21.6544 8.26814 21.6589 8.26814C21.6635 8.26357 21.5589 7.47762 21.7453 6.79677C21.9364 6.11134 22.423 5.74578 22.4276 5.74578C22.423 5.74122 22.7278 6.65054 22.4867 7.36338Z" fill="#00D6EC"/>
<path d="M20.2111 6.1614C20.7342 6.5361 21.3346 6.50868 21.3346 6.50411C21.3437 6.50868 21.089 5.69531 20.5068 5.32518C19.9337 4.95506 19.356 5.16525 19.356 5.16068C19.3651 5.16068 19.6926 5.79127 20.2111 6.1614Z" fill="#00D6EC"/>
<path d="M21.958 5.45778C21.8534 6.20718 21.3076 6.50876 21.3122 6.51333C21.3167 6.50876 21.0711 5.74566 21.1211 5.02368C21.1757 4.3017 21.5805 3.84932 21.5851 3.84932C21.5942 3.84018 22.0672 4.69925 21.958 5.45778Z" fill="#00D6EC"/>
<path d="M19.5021 4.6535C20.0889 4.93681 20.6711 4.80429 20.6711 4.79972C20.6802 4.80429 20.2754 4.03205 19.625 3.75788C18.9836 3.48828 18.4515 3.79443 18.456 3.78987C18.4606 3.79443 18.92 4.37476 19.5021 4.6535Z" fill="#00D6EC"/>
<path d="M21.0802 3.63912C21.1257 4.41136 20.6436 4.8089 20.6527 4.81347C20.6527 4.8089 20.2661 4.08236 20.1706 3.35124C20.075 2.61098 20.3798 2.08549 20.3843 2.08549C20.3843 2.07635 21.0347 2.85773 21.0802 3.63912Z" fill="#00D6EC"/>
<path d="M18.483 3.26007C19.1243 3.44742 19.6701 3.20981 19.6746 3.20524C19.6837 3.20524 19.1197 2.49697 18.4102 2.33247C17.7097 2.16797 17.2504 2.57008 17.2504 2.56551C17.2595 2.56094 17.8507 3.07273 18.483 3.26007Z" fill="#00D6EC"/>
<path d="M19.8291 1.95777C20.0429 2.73001 19.6472 3.21895 19.6563 3.21895C19.6563 3.21438 19.1241 2.5518 18.8603 1.82069C18.6011 1.08957 18.7784 0.500105 18.7875 0.500105C18.7875 0.490966 19.6199 1.17639 19.8291 1.95777Z" fill="#00D6EC"/>
<path d="M11.5202 19.4816L11.5339 19.34C12.7028 19.4451 13.8672 19.3171 14.9997 18.9516C16.1004 18.5951 17.1192 18.0377 18.0289 17.2837C19.9165 15.7255 21.1309 13.5047 21.4538 11.0235C21.7176 8.99465 21.5812 7.18513 21.049 5.64978C20.4805 4.0002 19.4616 2.70703 18.0289 1.81141L18.1017 1.6926C19.5617 2.6065 20.5987 3.92251 21.1809 5.60409C21.7176 7.16228 21.8586 8.99465 21.5903 11.0463C21.2628 13.5596 20.0302 15.8169 18.1153 17.3979C17.192 18.161 16.1595 18.7277 15.0406 19.0886C13.8899 19.4588 12.7073 19.5913 11.5202 19.4816Z" fill="#00D6EC"/>
<path d="M5.32005 0.998067C4.81518 1.45958 4.72421 2.18613 4.72421 2.18613C4.72421 2.18613 5.45195 2.16329 5.95682 1.6972C6.46168 1.23568 6.55265 0.509132 6.55265 0.509132C6.55265 0.509132 5.82491 0.536548 5.32005 0.998067Z" fill="#00D6EC"/>
<path d="M8.87212 18.0561C9.30876 18.6181 9.3315 19.2807 9.32696 19.2807C9.32696 19.2899 8.41274 19.034 8.00339 18.4125C7.59403 17.8002 7.79416 17.1696 7.78507 17.1696C7.78961 17.1787 8.44003 17.4986 8.87212 18.0561Z" fill="#00D6EC"/>
<path d="M8.23096 19.9981C9.03147 19.8611 9.33166 19.2533 9.33166 19.2579C9.32256 19.2625 8.46293 19.0111 7.72155 19.098C6.97107 19.1893 6.53442 19.6554 6.53442 19.66C6.52533 19.6646 7.42135 20.1352 8.23096 19.9981Z" fill="#00D6EC"/>
<path d="M7.28485 17.357C7.58504 17.9739 7.47588 18.6136 7.47134 18.6136C7.47134 18.6227 6.66628 18.2206 6.39792 17.5535C6.12502 16.8955 6.43431 16.3151 6.42976 16.3151C6.42976 16.3243 6.98921 16.7447 7.28485 17.357Z" fill="#00D6EC"/>
<path d="M6.3071 19.1209C7.08941 19.1255 7.48512 18.5863 7.48512 18.5909C7.47602 18.5909 6.721 18.207 6.00236 18.1659C5.27462 18.1293 4.76521 18.504 4.76521 18.5086C4.75611 18.5132 5.51569 19.1209 6.3071 19.1209Z" fill="#00D6EC"/>
<path d="M5.91542 16.4064C6.08371 17.0507 5.86084 17.6539 5.85174 17.6539C5.85174 17.6631 5.16494 17.1376 5.02394 16.443C4.88294 15.7576 5.28774 15.2504 5.2832 15.2504C5.28774 15.2595 5.74713 15.7667 5.91542 16.4064Z" fill="#00D6EC"/>
<path d="M4.64685 17.951C5.39278 18.088 5.87035 17.6311 5.87035 17.6402C5.86126 17.6402 5.21994 17.1422 4.53314 16.9777C3.84179 16.8132 3.28234 17.0919 3.27779 17.0965C3.2687 17.0919 3.89637 17.8139 4.64685 17.951Z" fill="#00D6EC"/>
<path d="M4.77443 15.255C4.81991 15.913 4.49243 16.4567 4.48788 16.4567C4.48788 16.4659 3.91934 15.8353 3.90569 15.1407C3.89205 14.4507 4.36962 14.0258 4.36507 14.0258C4.36507 14.0258 4.72439 14.6015 4.77443 15.255Z" fill="#00D6EC"/>
<path d="M3.26901 16.5298C3.96491 16.7903 4.50616 16.4339 4.50616 16.4385C4.49707 16.4385 3.96946 15.8399 3.33269 15.5611C2.69137 15.2824 2.09554 15.4514 2.09099 15.456C2.08189 15.456 2.56402 16.2694 3.26901 16.5298Z" fill="#00D6EC"/>
<path d="M3.86527 13.9298C3.79705 14.5787 3.38315 15.0493 3.3786 15.0493C3.37405 15.0585 2.93286 14.3456 3.04202 13.6648C3.14663 12.9885 3.68788 12.6595 3.68334 12.6549C3.67879 12.6595 3.9335 13.2855 3.86527 13.9298Z" fill="#00D6EC"/>
<path d="M2.17773 14.9078C2.80995 15.2825 3.40123 15.0311 3.39669 15.0357C3.39214 15.0311 2.97824 14.3594 2.40515 13.9756C1.82296 13.5918 1.21348 13.6512 1.20893 13.6557C1.20438 13.6512 1.53641 14.5285 2.17773 14.9078Z" fill="#00D6EC"/>
<path d="M3.20466 12.4767C3.03182 13.0982 2.5406 13.4866 2.5406 13.482C2.53605 13.4911 2.22222 12.7189 2.44054 12.0655C2.65431 11.4212 3.2365 11.1927 3.23195 11.1927C3.23195 11.2018 3.3775 11.8598 3.20466 12.4767Z" fill="#00D6EC"/>
<path d="M1.38983 13.1301C1.94473 13.6099 2.56331 13.4682 2.56331 13.4728C2.55876 13.4682 2.26766 12.7371 1.77189 12.2573C1.26703 11.7775 0.657546 11.7227 0.657546 11.7273C0.643901 11.7273 0.825835 12.6457 1.38983 13.1301Z" fill="#00D6EC"/>
<path d="M2.79976 10.9321C2.52686 11.5124 1.98561 11.8003 1.98106 11.8003C1.97651 11.8049 1.79913 10.9915 2.11751 10.3929C2.4359 9.79886 3.04538 9.68005 3.04083 9.67548C3.03628 9.68005 3.06812 10.3563 2.79976 10.9321Z" fill="#00D6EC"/>
<path d="M0.912423 11.2474C1.37635 11.8186 2.00858 11.7911 2.00403 11.7957C1.99948 11.7911 1.83574 11.0235 1.42639 10.4614C1.01249 9.89481 0.42575 9.73487 0.421201 9.73944C0.412105 9.73487 0.439395 10.6762 0.912423 11.2474Z" fill="#00D6EC"/>
<path d="M2.65391 9.342C2.29004 9.86292 1.70785 10.0548 1.70785 10.0503C1.7033 10.0548 1.66237 9.2232 2.07627 8.684C2.48562 8.14937 3.10419 8.14479 3.09964 8.14022C3.09964 8.14479 3.01777 8.82108 2.65391 9.342Z" fill="#00D6EC"/>
<path d="M0.7528 9.31008C1.11212 9.95895 1.73524 10.0412 1.7307 10.0458C1.72615 10.0412 1.69431 9.25525 1.38957 8.62466C1.08028 7.9895 0.53448 7.72447 0.529931 7.72904C0.525383 7.7199 0.388932 8.65664 0.7528 9.31008Z" fill="#00D6EC"/>
<path d="M2.79114 7.73802C2.34085 8.1904 1.74502 8.27265 1.74047 8.26808C1.73592 8.27265 1.83599 7.441 2.34085 6.97949C2.83662 6.52254 3.4461 6.62307 3.44155 6.62307C3.43701 6.62307 3.23233 7.28564 2.79114 7.73802Z" fill="#00D6EC"/>
<path d="M0.935535 7.36337C1.1766 8.07164 1.76788 8.26813 1.76333 8.26813C1.75879 8.26356 1.8634 7.47761 1.67692 6.79675C1.48589 6.11133 0.999212 5.74577 0.994663 5.74577C0.994663 5.7412 0.689924 6.65053 0.935535 7.36337Z" fill="#00D6EC"/>
<path d="M3.20513 6.16139C2.68207 6.53608 2.08169 6.50867 2.08169 6.5041C2.07259 6.50867 2.3273 5.6953 2.90949 5.32517C3.48258 4.95504 4.06022 5.16524 4.06022 5.16067C4.05112 5.16067 3.72364 5.79126 3.20513 6.16139Z" fill="#00D6EC"/>
<path d="M1.45826 5.45777C1.56287 6.20716 2.10867 6.50875 2.10412 6.51332C2.09957 6.50875 2.34519 5.74565 2.29515 5.02367C2.24057 4.30169 1.83577 3.84931 1.83122 3.84931C1.82667 3.84017 1.3491 4.69923 1.45826 5.45777Z" fill="#00D6EC"/>
<path d="M3.91868 4.65348C3.33194 4.93679 2.74975 4.80428 2.74975 4.79971C2.74065 4.80428 3.14546 4.03203 3.79587 3.75786C4.43719 3.48826 4.96935 3.79442 4.9648 3.78985C4.9557 3.79442 4.49632 4.37475 3.91868 4.65348Z" fill="#00D6EC"/>
<path d="M2.34034 3.6391C2.29486 4.41134 2.77699 4.80889 2.76789 4.81346C2.76789 4.80889 3.1545 4.08234 3.25001 3.35122C3.34553 2.61097 3.04079 2.08548 3.03624 2.08548C3.03169 2.07634 2.38128 2.85772 2.34034 3.6391Z" fill="#00D6EC"/>
<path d="M4.93329 3.26006C4.29197 3.44741 3.74617 3.2098 3.74162 3.20523C3.73253 3.20523 4.29652 2.49696 5.00607 2.33245C5.70651 2.16795 6.16589 2.57007 6.16589 2.5655C6.16135 2.56093 5.57006 3.07271 4.93329 3.26006Z" fill="#00D6EC"/>
<path d="M3.5871 1.95776C3.37332 2.73 3.76903 3.21894 3.75993 3.21894C3.75993 3.21437 4.29209 2.55179 4.55589 1.82067C4.81515 1.08955 4.63776 0.50009 4.62867 0.50009C4.62867 0.490951 3.79632 1.17637 3.5871 1.95776Z" fill="#00D6EC"/>
<path d="M11.9012 19.4816L11.8876 19.34C10.7187 19.4451 9.55429 19.3171 8.42175 18.9516C7.32105 18.5951 6.30222 18.0377 5.39255 17.2837C3.50498 15.7255 2.29057 13.5047 1.96764 11.0235C1.70384 8.99465 1.84029 7.18513 2.37244 5.64978C2.94099 4.0002 3.95982 2.70703 5.39255 1.81141L5.31977 1.6926C3.85975 2.6065 2.82273 3.92251 2.24054 5.60409C1.70384 7.16228 1.56284 8.99465 1.83119 11.0463C2.15867 13.5596 3.39127 15.8169 5.30613 17.3979C6.22944 18.161 7.26192 18.7277 8.38081 19.0886C9.527 19.4588 10.7096 19.5913 11.9012 19.4816Z" fill="#00D6EC"/>
<path d="M11.8081 18.2486L10.1309 19.3743L11.8081 20.5L13.4924 19.3743L11.8081 18.2486Z" fill="#00D6EC"/>
<path d="M10.1773 8.00126C10.2092 7.46793 10.3977 7.05216 10.7428 6.75395C11.0933 6.45574 11.5393 6.30664 12.0809 6.30664C12.4526 6.30664 12.7739 6.37833 13.0447 6.52169C13.3155 6.66506 13.5199 6.86005 13.658 7.10664C13.796 7.35324 13.8651 7.63137 13.8651 7.94105C13.8651 8.2966 13.7775 8.60055 13.6022 8.85288C13.427 9.10521 13.2173 9.27438 12.973 9.3604V9.39481C13.2863 9.49804 13.5306 9.68729 13.7058 9.96255C13.881 10.2321 13.9686 10.579 13.9686 11.0034C13.9686 11.3418 13.8969 11.6428 13.7536 11.9066C13.6102 12.1704 13.3978 12.3798 13.1164 12.5346C12.8349 12.6837 12.4978 12.7583 12.1048 12.7583C11.5313 12.7583 11.0588 12.6005 10.6871 12.2851C10.3207 11.964 10.1242 11.5052 10.0977 10.9088H10.9738C10.995 11.2127 11.1039 11.4622 11.3004 11.6572C11.4968 11.8464 11.7623 11.941 12.0969 11.941C12.4208 11.941 12.6703 11.8464 12.8456 11.6572C13.0208 11.4622 13.1084 11.2127 13.1084 10.9088C13.1084 10.5074 12.9889 10.2235 12.75 10.0572C12.5163 9.88514 12.1553 9.79911 11.6668 9.79911H11.4597V8.99051H11.6747C12.1048 8.98478 12.4314 8.90736 12.6544 8.75825C12.8827 8.60915 12.9969 8.37402 12.9969 8.05288C12.9969 7.77761 12.9146 7.55969 12.75 7.39911C12.5854 7.23281 12.3517 7.14965 12.0491 7.14965C11.7517 7.14965 11.5207 7.23281 11.3561 7.39911C11.1915 7.55969 11.0933 7.7604 11.0614 8.00126H10.1773Z" fill="#2B3048"/>
</svg>
