<svg width="23" height="21" viewBox="0 0 23 21" fill="none" xmlns="http://www.w3.org/2000/svg">
<path d="M18.0051 0.998067C18.5193 1.45958 18.612 2.18613 18.612 2.18613C18.612 2.18613 17.8707 2.16329 17.3565 1.6972C16.8422 1.23568 16.7496 0.509132 16.7496 0.509132C16.7496 0.509132 17.4908 0.536548 18.0051 0.998067Z" fill="url(#paint0_linear_1457_10152)"/>
<path d="M14.3858 18.0561C13.9411 18.6181 13.9179 19.2807 13.9225 19.2807C13.9225 19.2899 14.8537 19.034 15.2707 18.4125C15.6877 17.8002 15.4838 17.1696 15.4931 17.1696C15.4884 17.1788 14.8306 17.4986 14.3858 18.0561Z" fill="url(#paint1_linear_1457_10152)"/>
<path d="M15.0395 19.9982C14.2241 19.8611 13.9183 19.2533 13.9183 19.2579C13.9276 19.2625 14.8032 19.0112 15.5583 19.098C16.3228 19.1894 16.7675 19.6555 16.7675 19.66C16.7768 19.6646 15.8641 20.1352 15.0395 19.9982Z" fill="url(#paint2_linear_1457_10152)"/>
<path d="M16.0043 17.357C15.6985 17.9739 15.8097 18.6136 15.8143 18.6136C15.8143 18.6227 16.6343 18.2206 16.9077 17.5535C17.1856 16.8955 16.8706 16.3152 16.8752 16.3152C16.8752 16.3243 16.31 16.7447 16.0043 17.357Z" fill="url(#paint3_linear_1457_10152)"/>
<path d="M17.0052 19.1209C16.2084 19.1255 15.8053 18.5863 15.8053 18.5909C15.8146 18.5909 16.5836 18.207 17.3156 18.1659C18.0569 18.1293 18.5758 18.504 18.5758 18.5086C18.585 18.5132 17.8067 19.1209 17.0052 19.1209Z" fill="url(#paint4_linear_1457_10152)"/>
<path d="M17.3986 16.4065C17.2272 17.0508 17.4542 17.6539 17.4635 17.6539C17.4635 17.6631 18.163 17.1376 18.3067 16.443C18.4503 15.7576 18.038 15.2504 18.0426 15.2504C18.0426 15.2595 17.5747 15.7667 17.3986 16.4065Z" fill="url(#paint5_linear_1457_10152)"/>
<path d="M18.691 17.951C17.9312 18.0881 17.4448 17.6311 17.4448 17.6403C17.4541 17.6403 18.1073 17.1422 18.8068 16.9777C19.511 16.8132 20.0809 17.0919 20.0855 17.0965C20.0948 17.0919 19.4601 17.8139 18.691 17.951Z" fill="url(#paint6_linear_1457_10152)"/>
<path d="M18.5654 15.255C18.5191 15.913 18.8527 16.4568 18.8573 16.4568C18.8573 16.4659 19.4364 15.8353 19.4503 15.1407C19.4642 14.4507 18.9778 14.0258 18.9824 14.0258C18.9778 14.0258 18.6118 14.6015 18.5654 15.255Z" fill="url(#paint7_linear_1457_10152)"/>
<path d="M20.099 16.5299C19.3902 16.7903 18.8389 16.4339 18.8389 16.4385C18.8482 16.4385 19.3856 15.8399 20.0342 15.5611C20.6874 15.2824 21.2943 15.4515 21.2989 15.456C21.3036 15.456 20.8125 16.2694 20.099 16.5299Z" fill="url(#paint8_linear_1457_10152)"/>
<path d="M19.4872 13.9298C19.5567 14.5787 19.9783 15.0493 19.9829 15.0493C19.9875 15.0585 20.4369 14.3456 20.3257 13.6648C20.2192 12.9885 19.6679 12.6595 19.6725 12.6549C19.6818 12.6595 19.4223 13.2855 19.4872 13.9298Z" fill="url(#paint9_linear_1457_10152)"/>
<path d="M21.2062 14.9078C20.5623 15.2825 19.96 15.0312 19.9646 15.0357C19.9693 15.0312 20.3908 14.3594 20.9746 13.9756C21.5676 13.5918 22.1884 13.6512 22.193 13.6557C22.1976 13.6512 21.8594 14.5285 21.2062 14.9078Z" fill="url(#paint10_linear_1457_10152)"/>
<path d="M20.1633 12.4767C20.3393 13.0982 20.8397 13.4866 20.8397 13.482C20.8443 13.4911 21.164 12.7189 20.9416 12.0655C20.7238 11.4212 20.1308 11.1927 20.1355 11.1927C20.1355 11.2018 19.9872 11.8598 20.1633 12.4767Z" fill="url(#paint11_linear_1457_10152)"/>
<path d="M22.0117 13.1301C21.4465 13.6099 20.8164 13.4683 20.8164 13.4728C20.821 13.4683 21.1175 12.7371 21.6225 12.2573C22.1368 11.7775 22.7576 11.7227 22.7576 11.7273C22.7715 11.7273 22.5862 12.6457 22.0117 13.1301Z" fill="url(#paint12_linear_1457_10152)"/>
<path d="M20.5767 10.9322C20.8547 11.5126 21.406 11.8004 21.4106 11.8004C21.4153 11.805 21.596 10.9916 21.2717 10.393C20.9474 9.799 20.3266 9.68019 20.3312 9.67562C20.3358 9.68019 20.2988 10.3565 20.5767 10.9322Z" fill="url(#paint13_linear_1457_10152)"/>
<path d="M22.4992 11.2475C22.0267 11.8187 21.3827 11.7913 21.3873 11.7959C21.392 11.7913 21.5588 11.0236 21.9757 10.4616C22.3973 9.89495 22.9949 9.73501 22.9996 9.73958C23.0042 9.73501 22.981 10.6763 22.4992 11.2475Z" fill="url(#paint14_linear_1457_10152)"/>
<path d="M20.7204 9.34202C21.091 9.86294 21.684 10.0549 21.684 10.0503C21.6886 10.0549 21.7303 9.22321 21.3087 8.68401C20.8918 8.14938 20.2617 8.14481 20.2663 8.14024C20.2663 8.14481 20.3544 8.82109 20.7204 9.34202Z" fill="url(#paint15_linear_1457_10152)"/>
<path d="M22.6568 9.31009C22.2908 9.95896 21.6561 10.0412 21.6607 10.0458C21.6653 10.0412 21.6978 9.25526 22.0082 8.62467C22.3232 7.98951 22.8791 7.72448 22.8838 7.72905C22.8884 7.71991 23.0274 8.65666 22.6568 9.31009Z" fill="url(#paint16_linear_1457_10152)"/>
<path d="M20.5861 7.73804C21.0448 8.19042 21.6517 8.27267 21.6563 8.2681C21.661 8.27267 21.559 7.44102 21.0448 6.9795C20.5398 6.52255 19.919 6.62308 19.9237 6.62308C19.9237 6.62308 20.1321 7.28566 20.5861 7.73804Z" fill="url(#paint17_linear_1457_10152)"/>
<path d="M22.4766 7.36338C22.2311 8.07165 21.6288 8.26814 21.6334 8.26814C21.6381 8.26357 21.5315 7.47762 21.7215 6.79677C21.916 6.11134 22.4117 5.74578 22.4164 5.74578C22.4117 5.74121 22.7222 6.65054 22.4766 7.36338Z" fill="url(#paint18_linear_1457_10152)"/>
<path d="M20.1588 6.1614C20.6915 6.5361 21.3031 6.50868 21.3031 6.50411C21.3123 6.50868 21.0529 5.69531 20.4599 5.32518C19.8762 4.95506 19.2878 5.16525 19.2878 5.16068C19.2971 5.16068 19.6306 5.79127 20.1588 6.1614Z" fill="url(#paint19_linear_1457_10152)"/>
<path d="M21.9381 5.45778C21.8316 6.20718 21.2756 6.50876 21.2802 6.51333C21.2849 6.50876 21.0347 5.74566 21.0857 5.02368C21.1413 4.3017 21.5536 3.84932 21.5582 3.84932C21.5675 3.84018 22.0493 4.69925 21.9381 5.45778Z" fill="url(#paint20_linear_1457_10152)"/>
<path d="M19.4366 4.6535C20.0342 4.93681 20.6272 4.80429 20.6272 4.79972C20.6365 4.80429 20.2242 4.03205 19.5617 3.75788C18.9085 3.48828 18.3664 3.79443 18.3711 3.78987C18.3757 3.79443 18.8436 4.37476 19.4366 4.6535Z" fill="url(#paint21_linear_1457_10152)"/>
<path d="M21.044 3.63912C21.0903 4.41136 20.5992 4.8089 20.6085 4.81347C20.6085 4.8089 20.2147 4.08236 20.1174 3.35124C20.0201 2.61098 20.3305 2.08549 20.3352 2.08549C20.3352 2.07635 20.9977 2.85773 21.044 3.63912Z" fill="url(#paint22_linear_1457_10152)"/>
<path d="M18.3985 3.26007C19.0517 3.44742 19.6077 3.20981 19.6123 3.20524C19.6216 3.20524 19.0471 2.49697 18.3244 2.33247C17.6109 2.16797 17.143 2.57008 17.143 2.56551C17.1523 2.56094 17.7545 3.07272 18.3985 3.26007Z" fill="url(#paint23_linear_1457_10152)"/>
<path d="M19.7696 1.95777C19.9874 2.73001 19.5843 3.21895 19.5936 3.21895C19.5936 3.21438 19.0516 2.5518 18.7829 1.82069C18.5188 1.08957 18.6995 0.500105 18.7087 0.500105C18.7087 0.490966 19.5565 1.17639 19.7696 1.95777Z" fill="url(#paint24_linear_1457_10152)"/>
<path d="M11.3064 19.4816L11.3203 19.34C12.511 19.4451 13.697 19.3171 14.8505 18.9516C15.9717 18.5951 17.0094 18.0377 17.936 17.2837C19.8586 15.7255 21.0956 13.5047 21.4245 11.0235C21.6932 8.99465 21.5542 7.18513 21.0122 5.64978C20.4331 4.0002 19.3953 2.70703 17.936 1.81141L18.0101 1.6926C19.4973 2.6065 20.5536 3.92251 21.1466 5.60409C21.6932 7.16228 21.8368 8.99465 21.5635 11.0463C21.2299 13.5596 19.9744 15.8169 18.024 17.3979C17.0836 18.161 16.0319 18.7277 14.8922 19.0886C13.7201 19.4588 12.5156 19.5913 11.3064 19.4816Z" fill="url(#paint25_linear_1457_10152)"/>
<path d="M4.99113 0.998067C4.47689 1.45958 4.38423 2.18613 4.38423 2.18613C4.38423 2.18613 5.12548 2.16329 5.63972 1.6972C6.15397 1.23568 6.24662 0.509132 6.24662 0.509132C6.24662 0.509132 5.50537 0.536548 4.99113 0.998067Z" fill="url(#paint26_linear_1457_10152)"/>
<path d="M8.60917 18.0561C9.05392 18.6181 9.07708 19.2807 9.07245 19.2807C9.07245 19.2899 8.14125 19.034 7.7243 18.4125C7.30735 17.8002 7.51119 17.1696 7.50193 17.1696C7.50656 17.1787 8.16905 17.4986 8.60917 18.0561Z" fill="url(#paint27_linear_1457_10152)"/>
<path d="M7.9561 19.9981C8.77148 19.8611 9.07724 19.2533 9.07724 19.2579C9.06798 19.2625 8.19237 19.0111 7.43723 19.098C6.67281 19.1893 6.22806 19.6554 6.22806 19.66C6.21879 19.6646 7.13146 20.1352 7.9561 19.9981Z" fill="url(#paint28_linear_1457_10152)"/>
<path d="M6.99242 17.357C7.29819 17.9739 7.187 18.6136 7.18237 18.6136C7.18237 18.6227 6.36236 18.2206 6.08902 17.5535C5.81105 16.8955 6.12609 16.3151 6.12145 16.3151C6.12145 16.3243 6.69129 16.7447 6.99242 17.357Z" fill="url(#paint29_linear_1457_10152)"/>
<path d="M5.99651 19.1209C6.79335 19.1255 7.19641 18.5863 7.19641 18.5909C7.18715 18.5909 6.4181 18.207 5.68611 18.1659C4.94486 18.1293 4.42598 18.504 4.42598 18.5086C4.41672 18.5132 5.1904 19.1209 5.99651 19.1209Z" fill="url(#paint30_linear_1457_10152)"/>
<path d="M5.59755 16.4064C5.76897 17.0507 5.54196 17.6539 5.53269 17.6539C5.53269 17.6631 4.83314 17.1376 4.68952 16.443C4.5459 15.7576 4.95823 15.2504 4.95359 15.2504C4.95823 15.2595 5.42614 15.7667 5.59755 16.4064Z" fill="url(#paint31_linear_1457_10152)"/>
<path d="M4.30543 17.951C5.06521 18.088 5.55166 17.6311 5.55166 17.6402C5.54239 17.6402 4.88916 17.1422 4.18961 16.9777C3.48542 16.8132 2.91558 17.0919 2.91095 17.0965C2.90168 17.0919 3.54101 17.8139 4.30543 17.951Z" fill="url(#paint32_linear_1457_10152)"/>
<path d="M4.43537 15.255C4.4817 15.913 4.14814 16.4567 4.14351 16.4567C4.14351 16.4659 3.5644 15.8353 3.5505 15.1407C3.53661 14.4507 4.02305 14.0258 4.01842 14.0258C4.01842 14.0258 4.38441 14.6015 4.43537 15.255Z" fill="url(#paint33_linear_1457_10152)"/>
<path d="M2.902 16.5298C3.61082 16.7903 4.16213 16.4339 4.16213 16.4385C4.15286 16.4385 3.61545 15.8399 2.96686 15.5611C2.31363 15.2824 1.70673 15.4514 1.7021 15.456C1.69283 15.456 2.18391 16.2694 2.902 16.5298Z" fill="url(#paint34_linear_1457_10152)"/>
<path d="M3.50933 13.9298C3.43984 14.5787 3.01825 15.0493 3.01362 15.0493C3.00899 15.0585 2.55961 14.3456 2.67079 13.6648C2.77735 12.9885 3.32865 12.6595 3.32402 12.6549C3.31939 12.6595 3.57883 13.2855 3.50933 13.9298Z" fill="url(#paint35_linear_1457_10152)"/>
<path d="M1.79045 14.9078C2.43441 15.2825 3.03668 15.0311 3.03205 15.0357C3.02741 15.0311 2.60583 14.3594 2.02209 13.9756C1.42909 13.5918 0.808293 13.6512 0.80366 13.6557C0.799027 13.6512 1.13722 14.5285 1.79045 14.9078Z" fill="url(#paint36_linear_1457_10152)"/>
<path d="M2.83646 12.4767C2.66041 13.0982 2.16006 13.4866 2.16006 13.482C2.15543 13.4911 1.83577 12.7189 2.05814 12.0655C2.27588 11.4212 2.86889 11.1927 2.86425 11.1927C2.86425 11.2018 3.0125 11.8598 2.83646 12.4767Z" fill="url(#paint37_linear_1457_10152)"/>
<path d="M0.987922 13.1301C1.55313 13.6099 2.18319 13.4682 2.18319 13.4728C2.17856 13.4682 1.88206 12.7371 1.37708 12.2573C0.862835 11.7775 0.242038 11.7227 0.242038 11.7273C0.228139 11.7273 0.413452 12.6457 0.987922 13.1301Z" fill="url(#paint38_linear_1457_10152)"/>
<path d="M2.42404 10.9321C2.14607 11.5124 1.59477 11.8003 1.59013 11.8003C1.5855 11.8049 1.40482 10.9915 1.72912 10.3929C2.05341 9.79886 2.67421 9.68005 2.66958 9.67548C2.66495 9.68005 2.69738 10.3563 2.42404 10.9321Z" fill="url(#paint39_linear_1457_10152)"/>
<path d="M0.501648 11.2474C0.974195 11.8186 1.61816 11.7911 1.61352 11.7957C1.60889 11.7911 1.44211 11.0235 1.02516 10.4614C0.60357 9.89481 0.00593619 9.73487 0.00130337 9.73944C-0.00796227 9.73487 0.0198345 10.6762 0.501648 11.2474Z" fill="url(#paint40_linear_1457_10152)"/>
<path d="M2.27547 9.342C1.90485 9.86292 1.31185 10.0548 1.31185 10.0503C1.30721 10.0548 1.26552 9.22319 1.6871 8.684C2.10406 8.14937 2.73412 8.14479 2.72949 8.14022C2.72949 8.14479 2.6461 8.82108 2.27547 9.342Z" fill="url(#paint41_linear_1457_10152)"/>
<path d="M0.339061 9.31008C0.705053 9.95895 1.33975 10.0412 1.33512 10.0458C1.33048 10.0412 1.29805 9.25525 0.987655 8.62466C0.672624 7.9895 0.116685 7.72447 0.112052 7.72904C0.10742 7.7199 -0.0315651 8.65664 0.339061 9.31008Z" fill="url(#paint42_linear_1457_10152)"/>
<path d="M2.41526 7.73802C1.95661 8.1904 1.34971 8.27265 1.34507 8.26808C1.34044 8.27265 1.44236 7.441 1.95661 6.97949C2.46158 6.52254 3.08238 6.62307 3.07775 6.62307C3.07312 6.62307 2.86464 7.28564 2.41526 7.73802Z" fill="url(#paint43_linear_1457_10152)"/>
<path d="M0.525188 7.36337C0.770728 8.07164 1.37299 8.26813 1.36836 8.26813C1.36373 8.26356 1.47028 7.47761 1.28034 6.79675C1.08576 6.11133 0.590048 5.74577 0.585415 5.74577C0.585415 5.7412 0.275016 6.65053 0.525188 7.36337Z" fill="url(#paint44_linear_1457_10152)"/>
<path d="M2.83693 6.16139C2.30416 6.53608 1.69263 6.50867 1.69263 6.5041C1.68336 6.50867 1.9428 5.6953 2.5358 5.32517C3.11954 4.95504 3.7079 5.16524 3.7079 5.16067C3.69864 5.16067 3.36507 5.79126 2.83693 6.16139Z" fill="url(#paint45_linear_1457_10152)"/>
<path d="M1.05762 5.45777C1.16417 6.20716 1.72011 6.50875 1.71548 6.51332C1.71085 6.50875 1.96102 5.74565 1.91006 5.02367C1.85446 4.30169 1.44214 3.84931 1.43751 3.84931C1.43288 3.84017 0.946431 4.69923 1.05762 5.45777Z" fill="url(#paint46_linear_1457_10152)"/>
<path d="M3.56373 4.65348C2.9661 4.93679 2.3731 4.80428 2.3731 4.79971C2.36383 4.80428 2.77615 4.03203 3.43865 3.75786C4.09187 3.48826 4.63391 3.79442 4.62928 3.78985C4.62001 3.79442 4.1521 4.37475 3.56373 4.65348Z" fill="url(#paint47_linear_1457_10152)"/>
<path d="M1.95609 3.6391C1.90976 4.41134 2.40084 4.80889 2.39157 4.81346C2.39157 4.80889 2.78536 4.08234 2.88265 3.35122C2.97994 2.61097 2.66954 2.08548 2.66491 2.08548C2.66028 2.07634 1.99778 2.85772 1.95609 3.6391Z" fill="url(#paint48_linear_1457_10152)"/>
<path d="M4.59719 3.26006C3.94396 3.44741 3.38802 3.2098 3.38339 3.20523C3.37413 3.20523 3.9486 2.49696 4.67132 2.33245C5.38477 2.16795 5.85268 2.57007 5.85268 2.5655C5.84805 2.56093 5.24578 3.07271 4.59719 3.26006Z" fill="url(#paint49_linear_1457_10152)"/>
<path d="M3.22599 1.95776C3.00825 2.73 3.41131 3.21894 3.40204 3.21894C3.40204 3.21437 3.94408 2.55179 4.21278 1.82067C4.47685 1.08955 4.29617 0.50009 4.28691 0.50009C4.28691 0.490951 3.4391 1.17637 3.22599 1.95776Z" fill="url(#paint50_linear_1457_10152)"/>
<path d="M11.6945 19.4816L11.6806 19.34C10.49 19.4451 9.304 19.3171 8.15043 18.9516C7.02929 18.5951 5.99154 18.0377 5.06497 17.2837C3.14235 15.7255 1.90539 13.5047 1.57646 11.0235C1.30776 8.99465 1.44674 7.18513 1.98878 5.64978C2.56788 4.0002 3.60564 2.70703 5.06497 1.81141L4.99085 1.6926C3.50371 2.6065 2.44743 3.92251 1.85443 5.60409C1.30776 7.16228 1.16414 8.99465 1.43748 11.0463C1.77104 13.5596 3.02653 15.8169 4.97695 17.3979C5.91741 18.161 6.96906 18.7277 8.10874 19.0886C9.27621 19.4588 10.4807 19.5913 11.6945 19.4816Z" fill="url(#paint51_linear_1457_10152)"/>
<path d="M11.5997 18.2486L9.89133 19.3743L11.5997 20.5L13.3153 19.3743L11.5997 18.2486Z" fill="url(#paint52_linear_1457_10152)"/>
<path d="M10.5137 7.22704V6.30664H12.4851V12.7583H11.3951V7.22704H10.5137Z" fill="#2B3048"/>
<defs>
<linearGradient id="paint0_linear_1457_10152" x1="0" y1="0.5" x2="22.892" y2="20.6228" gradientUnits="userSpaceOnUse">
<stop stop-color="#00D6EC"/>
<stop offset="1" stop-color="#EB38D2"/>
</linearGradient>
<linearGradient id="paint1_linear_1457_10152" x1="0" y1="0.5" x2="22.892" y2="20.6228" gradientUnits="userSpaceOnUse">
<stop stop-color="#00D6EC"/>
<stop offset="1" stop-color="#EB38D2"/>
</linearGradient>
<linearGradient id="paint2_linear_1457_10152" x1="0" y1="0.5" x2="22.892" y2="20.6228" gradientUnits="userSpaceOnUse">
<stop stop-color="#00D6EC"/>
<stop offset="1" stop-color="#EB38D2"/>
</linearGradient>
<linearGradient id="paint3_linear_1457_10152" x1="0" y1="0.5" x2="22.892" y2="20.6228" gradientUnits="userSpaceOnUse">
<stop stop-color="#00D6EC"/>
<stop offset="1" stop-color="#EB38D2"/>
</linearGradient>
<linearGradient id="paint4_linear_1457_10152" x1="0" y1="0.5" x2="22.892" y2="20.6228" gradientUnits="userSpaceOnUse">
<stop stop-color="#00D6EC"/>
<stop offset="1" stop-color="#EB38D2"/>
</linearGradient>
<linearGradient id="paint5_linear_1457_10152" x1="0" y1="0.5" x2="22.892" y2="20.6228" gradientUnits="userSpaceOnUse">
<stop stop-color="#00D6EC"/>
<stop offset="1" stop-color="#EB38D2"/>
</linearGradient>
<linearGradient id="paint6_linear_1457_10152" x1="0" y1="0.5" x2="22.892" y2="20.6228" gradientUnits="userSpaceOnUse">
<stop stop-color="#00D6EC"/>
<stop offset="1" stop-color="#EB38D2"/>
</linearGradient>
<linearGradient id="paint7_linear_1457_10152" x1="0" y1="0.5" x2="22.892" y2="20.6228" gradientUnits="userSpaceOnUse">
<stop stop-color="#00D6EC"/>
<stop offset="1" stop-color="#EB38D2"/>
</linearGradient>
<linearGradient id="paint8_linear_1457_10152" x1="0" y1="0.5" x2="22.892" y2="20.6228" gradientUnits="userSpaceOnUse">
<stop stop-color="#00D6EC"/>
<stop offset="1" stop-color="#EB38D2"/>
</linearGradient>
<linearGradient id="paint9_linear_1457_10152" x1="0" y1="0.5" x2="22.892" y2="20.6228" gradientUnits="userSpaceOnUse">
<stop stop-color="#00D6EC"/>
<stop offset="1" stop-color="#EB38D2"/>
</linearGradient>
<linearGradient id="paint10_linear_1457_10152" x1="0" y1="0.5" x2="22.892" y2="20.6228" gradientUnits="userSpaceOnUse">
<stop stop-color="#00D6EC"/>
<stop offset="1" stop-color="#EB38D2"/>
</linearGradient>
<linearGradient id="paint11_linear_1457_10152" x1="0" y1="0.5" x2="22.892" y2="20.6228" gradientUnits="userSpaceOnUse">
<stop stop-color="#00D6EC"/>
<stop offset="1" stop-color="#EB38D2"/>
</linearGradient>
<linearGradient id="paint12_linear_1457_10152" x1="0" y1="0.5" x2="22.892" y2="20.6228" gradientUnits="userSpaceOnUse">
<stop stop-color="#00D6EC"/>
<stop offset="1" stop-color="#EB38D2"/>
</linearGradient>
<linearGradient id="paint13_linear_1457_10152" x1="0" y1="0.5" x2="22.892" y2="20.6228" gradientUnits="userSpaceOnUse">
<stop stop-color="#00D6EC"/>
<stop offset="1" stop-color="#EB38D2"/>
</linearGradient>
<linearGradient id="paint14_linear_1457_10152" x1="0" y1="0.5" x2="22.892" y2="20.6228" gradientUnits="userSpaceOnUse">
<stop stop-color="#00D6EC"/>
<stop offset="1" stop-color="#EB38D2"/>
</linearGradient>
<linearGradient id="paint15_linear_1457_10152" x1="0" y1="0.5" x2="22.892" y2="20.6228" gradientUnits="userSpaceOnUse">
<stop stop-color="#00D6EC"/>
<stop offset="1" stop-color="#EB38D2"/>
</linearGradient>
<linearGradient id="paint16_linear_1457_10152" x1="0" y1="0.5" x2="22.892" y2="20.6228" gradientUnits="userSpaceOnUse">
<stop stop-color="#00D6EC"/>
<stop offset="1" stop-color="#EB38D2"/>
</linearGradient>
<linearGradient id="paint17_linear_1457_10152" x1="0" y1="0.5" x2="22.892" y2="20.6228" gradientUnits="userSpaceOnUse">
<stop stop-color="#00D6EC"/>
<stop offset="1" stop-color="#EB38D2"/>
</linearGradient>
<linearGradient id="paint18_linear_1457_10152" x1="0" y1="0.5" x2="22.892" y2="20.6228" gradientUnits="userSpaceOnUse">
<stop stop-color="#00D6EC"/>
<stop offset="1" stop-color="#EB38D2"/>
</linearGradient>
<linearGradient id="paint19_linear_1457_10152" x1="0" y1="0.5" x2="22.892" y2="20.6228" gradientUnits="userSpaceOnUse">
<stop stop-color="#00D6EC"/>
<stop offset="1" stop-color="#EB38D2"/>
</linearGradient>
<linearGradient id="paint20_linear_1457_10152" x1="0" y1="0.5" x2="22.892" y2="20.6228" gradientUnits="userSpaceOnUse">
<stop stop-color="#00D6EC"/>
<stop offset="1" stop-color="#EB38D2"/>
</linearGradient>
<linearGradient id="paint21_linear_1457_10152" x1="0" y1="0.5" x2="22.892" y2="20.6228" gradientUnits="userSpaceOnUse">
<stop stop-color="#00D6EC"/>
<stop offset="1" stop-color="#EB38D2"/>
</linearGradient>
<linearGradient id="paint22_linear_1457_10152" x1="0" y1="0.5" x2="22.892" y2="20.6228" gradientUnits="userSpaceOnUse">
<stop stop-color="#00D6EC"/>
<stop offset="1" stop-color="#EB38D2"/>
</linearGradient>
<linearGradient id="paint23_linear_1457_10152" x1="0" y1="0.5" x2="22.892" y2="20.6228" gradientUnits="userSpaceOnUse">
<stop stop-color="#00D6EC"/>
<stop offset="1" stop-color="#EB38D2"/>
</linearGradient>
<linearGradient id="paint24_linear_1457_10152" x1="0" y1="0.5" x2="22.892" y2="20.6228" gradientUnits="userSpaceOnUse">
<stop stop-color="#00D6EC"/>
<stop offset="1" stop-color="#EB38D2"/>
</linearGradient>
<linearGradient id="paint25_linear_1457_10152" x1="0" y1="0.5" x2="22.892" y2="20.6228" gradientUnits="userSpaceOnUse">
<stop stop-color="#00D6EC"/>
<stop offset="1" stop-color="#EB38D2"/>
</linearGradient>
<linearGradient id="paint26_linear_1457_10152" x1="0" y1="0.5" x2="22.892" y2="20.6228" gradientUnits="userSpaceOnUse">
<stop stop-color="#00D6EC"/>
<stop offset="1" stop-color="#EB38D2"/>
</linearGradient>
<linearGradient id="paint27_linear_1457_10152" x1="0" y1="0.5" x2="22.892" y2="20.6228" gradientUnits="userSpaceOnUse">
<stop stop-color="#00D6EC"/>
<stop offset="1" stop-color="#EB38D2"/>
</linearGradient>
<linearGradient id="paint28_linear_1457_10152" x1="0" y1="0.5" x2="22.892" y2="20.6228" gradientUnits="userSpaceOnUse">
<stop stop-color="#00D6EC"/>
<stop offset="1" stop-color="#EB38D2"/>
</linearGradient>
<linearGradient id="paint29_linear_1457_10152" x1="0" y1="0.5" x2="22.892" y2="20.6228" gradientUnits="userSpaceOnUse">
<stop stop-color="#00D6EC"/>
<stop offset="1" stop-color="#EB38D2"/>
</linearGradient>
<linearGradient id="paint30_linear_1457_10152" x1="0" y1="0.5" x2="22.892" y2="20.6228" gradientUnits="userSpaceOnUse">
<stop stop-color="#00D6EC"/>
<stop offset="1" stop-color="#EB38D2"/>
</linearGradient>
<linearGradient id="paint31_linear_1457_10152" x1="0" y1="0.5" x2="22.892" y2="20.6228" gradientUnits="userSpaceOnUse">
<stop stop-color="#00D6EC"/>
<stop offset="1" stop-color="#EB38D2"/>
</linearGradient>
<linearGradient id="paint32_linear_1457_10152" x1="0" y1="0.5" x2="22.892" y2="20.6228" gradientUnits="userSpaceOnUse">
<stop stop-color="#00D6EC"/>
<stop offset="1" stop-color="#EB38D2"/>
</linearGradient>
<linearGradient id="paint33_linear_1457_10152" x1="0" y1="0.5" x2="22.892" y2="20.6228" gradientUnits="userSpaceOnUse">
<stop stop-color="#00D6EC"/>
<stop offset="1" stop-color="#EB38D2"/>
</linearGradient>
<linearGradient id="paint34_linear_1457_10152" x1="0" y1="0.5" x2="22.892" y2="20.6228" gradientUnits="userSpaceOnUse">
<stop stop-color="#00D6EC"/>
<stop offset="1" stop-color="#EB38D2"/>
</linearGradient>
<linearGradient id="paint35_linear_1457_10152" x1="0" y1="0.5" x2="22.892" y2="20.6228" gradientUnits="userSpaceOnUse">
<stop stop-color="#00D6EC"/>
<stop offset="1" stop-color="#EB38D2"/>
</linearGradient>
<linearGradient id="paint36_linear_1457_10152" x1="0" y1="0.5" x2="22.892" y2="20.6228" gradientUnits="userSpaceOnUse">
<stop stop-color="#00D6EC"/>
<stop offset="1" stop-color="#EB38D2"/>
</linearGradient>
<linearGradient id="paint37_linear_1457_10152" x1="0" y1="0.5" x2="22.892" y2="20.6228" gradientUnits="userSpaceOnUse">
<stop stop-color="#00D6EC"/>
<stop offset="1" stop-color="#EB38D2"/>
</linearGradient>
<linearGradient id="paint38_linear_1457_10152" x1="0" y1="0.5" x2="22.892" y2="20.6228" gradientUnits="userSpaceOnUse">
<stop stop-color="#00D6EC"/>
<stop offset="1" stop-color="#EB38D2"/>
</linearGradient>
<linearGradient id="paint39_linear_1457_10152" x1="0" y1="0.5" x2="22.892" y2="20.6228" gradientUnits="userSpaceOnUse">
<stop stop-color="#00D6EC"/>
<stop offset="1" stop-color="#EB38D2"/>
</linearGradient>
<linearGradient id="paint40_linear_1457_10152" x1="0" y1="0.5" x2="22.892" y2="20.6228" gradientUnits="userSpaceOnUse">
<stop stop-color="#00D6EC"/>
<stop offset="1" stop-color="#EB38D2"/>
</linearGradient>
<linearGradient id="paint41_linear_1457_10152" x1="0" y1="0.5" x2="22.892" y2="20.6228" gradientUnits="userSpaceOnUse">
<stop stop-color="#00D6EC"/>
<stop offset="1" stop-color="#EB38D2"/>
</linearGradient>
<linearGradient id="paint42_linear_1457_10152" x1="0" y1="0.5" x2="22.892" y2="20.6228" gradientUnits="userSpaceOnUse">
<stop stop-color="#00D6EC"/>
<stop offset="1" stop-color="#EB38D2"/>
</linearGradient>
<linearGradient id="paint43_linear_1457_10152" x1="0" y1="0.5" x2="22.892" y2="20.6228" gradientUnits="userSpaceOnUse">
<stop stop-color="#00D6EC"/>
<stop offset="1" stop-color="#EB38D2"/>
</linearGradient>
<linearGradient id="paint44_linear_1457_10152" x1="0" y1="0.5" x2="22.892" y2="20.6228" gradientUnits="userSpaceOnUse">
<stop stop-color="#00D6EC"/>
<stop offset="1" stop-color="#EB38D2"/>
</linearGradient>
<linearGradient id="paint45_linear_1457_10152" x1="0" y1="0.5" x2="22.892" y2="20.6228" gradientUnits="userSpaceOnUse">
<stop stop-color="#00D6EC"/>
<stop offset="1" stop-color="#EB38D2"/>
</linearGradient>
<linearGradient id="paint46_linear_1457_10152" x1="0" y1="0.5" x2="22.892" y2="20.6228" gradientUnits="userSpaceOnUse">
<stop stop-color="#00D6EC"/>
<stop offset="1" stop-color="#EB38D2"/>
</linearGradient>
<linearGradient id="paint47_linear_1457_10152" x1="0" y1="0.5" x2="22.892" y2="20.6228" gradientUnits="userSpaceOnUse">
<stop stop-color="#00D6EC"/>
<stop offset="1" stop-color="#EB38D2"/>
</linearGradient>
<linearGradient id="paint48_linear_1457_10152" x1="0" y1="0.5" x2="22.892" y2="20.6228" gradientUnits="userSpaceOnUse">
<stop stop-color="#00D6EC"/>
<stop offset="1" stop-color="#EB38D2"/>
</linearGradient>
<linearGradient id="paint49_linear_1457_10152" x1="0" y1="0.5" x2="22.892" y2="20.6228" gradientUnits="userSpaceOnUse">
<stop stop-color="#00D6EC"/>
<stop offset="1" stop-color="#EB38D2"/>
</linearGradient>
<linearGradient id="paint50_linear_1457_10152" x1="0" y1="0.5" x2="22.892" y2="20.6228" gradientUnits="userSpaceOnUse">
<stop stop-color="#00D6EC"/>
<stop offset="1" stop-color="#EB38D2"/>
</linearGradient>
<linearGradient id="paint51_linear_1457_10152" x1="0" y1="0.5" x2="22.892" y2="20.6228" gradientUnits="userSpaceOnUse">
<stop stop-color="#00D6EC"/>
<stop offset="1" stop-color="#EB38D2"/>
</linearGradient>
<linearGradient id="paint52_linear_1457_10152" x1="0" y1="0.5" x2="22.892" y2="20.6228" gradientUnits="userSpaceOnUse">
<stop stop-color="#00D6EC"/>
<stop offset="1" stop-color="#EB38D2"/>
</linearGradient>
</defs>
</svg>
