<svg width="20" height="20" viewBox="0 0 20 20" fill="none" xmlns="http://www.w3.org/2000/svg">
<path d="M5.625 7.91602C5.79076 7.91602 5.94973 7.85017 6.06694 7.73296C6.18415 7.61575 6.25 7.45678 6.25 7.29102C6.25 7.12526 6.18415 6.96628 6.06694 6.84907C5.94973 6.73186 5.79076 6.66602 5.625 6.66602C5.45924 6.66602 5.30027 6.73186 5.18306 6.84907C5.06585 6.96628 5 7.12526 5 7.29102C5 7.45678 5.06585 7.61575 5.18306 7.73296C5.30027 7.85017 5.45924 7.91602 5.625 7.91602ZM7.5 7.91602C7.66576 7.91602 7.82473 7.85017 7.94194 7.73296C8.05915 7.61575 8.125 7.45678 8.125 7.29102C8.125 7.12526 8.05915 6.96628 7.94194 6.84907C7.82473 6.73186 7.66576 6.66602 7.5 6.66602C7.33424 6.66602 7.17527 6.73186 7.05806 6.84907C6.94085 6.96628 6.875 7.12526 6.875 7.29102C6.875 7.45678 6.94085 7.61575 7.05806 7.73296C7.17527 7.85017 7.33424 7.91602 7.5 7.91602ZM10 7.29102C10 7.45678 9.93415 7.61575 9.81694 7.73296C9.69973 7.85017 9.54076 7.91602 9.375 7.91602C9.20924 7.91602 9.05027 7.85017 8.93306 7.73296C8.81585 7.61575 8.75 7.45678 8.75 7.29102C8.75 7.12526 8.81585 6.96628 8.93306 6.84907C9.05027 6.73186 9.20924 6.66602 9.375 6.66602C9.54076 6.66602 9.69973 6.73186 9.81694 6.84907C9.93415 6.96628 10 7.12526 10 7.29102Z" fill="#00D6EC"/>
<path d="M15 1.66602C15.663 1.66602 16.2989 1.92941 16.7678 2.39825C17.2366 2.86709 17.5 3.50297 17.5 4.16602C18.163 4.16602 18.7989 4.42941 19.2678 4.89825C19.7366 5.36709 20 6.00297 20 6.66602V16.666C20 17.3291 19.7366 17.9649 19.2678 18.4338C18.7989 18.9026 18.163 19.166 17.5 19.166H5C4.33696 19.166 3.70107 18.9026 3.23223 18.4338C2.76339 17.9649 2.5 17.3291 2.5 16.666C1.83696 16.666 1.20107 16.4026 0.732233 15.9338C0.263392 15.4649 0 14.8291 0 14.166V4.16602C0 3.50297 0.263392 2.86709 0.732233 2.39825C1.20107 1.92941 1.83696 1.66602 2.5 1.66602H15ZM2.5 15.416V6.66602C2.5 6.00297 2.76339 5.36709 3.23223 4.89825C3.70107 4.42941 4.33696 4.16602 5 4.16602H16.25C16.25 3.83449 16.1183 3.51655 15.8839 3.28213C15.6495 3.04771 15.3315 2.91602 15 2.91602H2.5C2.16848 2.91602 1.85054 3.04771 1.61612 3.28213C1.3817 3.51655 1.25 3.83449 1.25 4.16602V14.166C1.25 14.4975 1.3817 14.8155 1.61612 15.0499C1.85054 15.2843 2.16848 15.416 2.5 15.416ZM3.75 10.416V16.666C3.75 16.9975 3.8817 17.3155 4.11612 17.5499C4.35054 17.7843 4.66848 17.916 5 17.916H17.5C17.8315 17.916 18.1495 17.7843 18.3839 17.5499C18.6183 17.3155 18.75 16.9975 18.75 16.666V10.416H3.75ZM18.75 9.16601V6.66602C18.75 6.33449 18.6183 6.01655 18.3839 5.78213C18.1495 5.54771 17.8315 5.41602 17.5 5.41602H5C4.66848 5.41602 4.35054 5.54771 4.11612 5.78213C3.8817 6.01655 3.75 6.33449 3.75 6.66602V9.16601H18.75Z" fill="#00D6EC"/>
</svg>
