<svg width="243" height="160" viewBox="0 0 243 160" fill="none" xmlns="http://www.w3.org/2000/svg">
<g clip-path="url(#clip0_711_27558)">
<path d="M204.165 73.3504C206.398 53.7102 199.736 34.0336 185.753 20.0049C178.871 13.1181 169.464 6.63212 156.982 3.49844C121.914 -5.28316 99.1829 2.76968 87.8354 24.1589C76.4513 45.5481 43.8731 41.8678 38.6752 78.7068C33.4773 115.546 58.6614 156.138 101.379 158.361C144.097 160.583 138.606 139.413 161.96 130.34C179.86 123.38 200.834 102.61 204.165 73.3504Z" fill="#00D6EC"/>
<path opacity="0.7" d="M204.165 73.3504C206.398 53.7102 199.736 34.0336 185.753 20.0049C178.871 13.1181 169.464 6.63212 156.982 3.49844C121.914 -5.28316 99.1829 2.76968 87.8354 24.1589C76.4513 45.5481 43.8731 41.8678 38.6752 78.7068C33.4773 115.546 58.6614 156.138 101.379 158.361C144.097 160.583 138.606 139.413 161.96 130.34C179.86 123.38 200.834 102.61 204.165 73.3504Z" fill="white"/>
<path d="M149.807 135.077C150.649 135.442 152.699 135.405 152.699 135.405C152.735 135.405 152.259 134.057 152.223 133.984C151.784 133.037 150.356 131.507 149.221 131.652C148.379 131.762 147.94 132.6 148.123 133.365C148.27 134.203 149.111 134.786 149.807 135.077Z" fill="#263238"/>
<path d="M150.502 140.98C151.381 141.089 153.174 140.579 153.321 140.543C153.614 141.563 153.98 142.583 154.419 143.604C154.675 144.187 154.932 144.77 155.224 145.316C155.041 145.061 154.895 144.843 154.895 144.843C154.199 144.077 152.442 142.948 151.381 143.385C150.612 143.713 150.393 144.624 150.759 145.316C151.161 146.045 152.113 146.373 152.882 146.482C153.65 146.592 155.224 146.191 155.627 146.045C155.737 146.264 155.847 146.482 155.956 146.701C156.469 147.758 157.018 148.778 157.494 149.835C157.677 150.199 157.823 150.563 157.97 150.928C157.823 150.709 157.713 150.527 157.677 150.49C156.981 149.725 155.224 148.596 154.163 149.033C153.394 149.361 153.174 150.272 153.541 150.964C153.943 151.693 154.895 152.021 155.664 152.13C156.396 152.239 157.86 151.875 158.336 151.729C158.482 152.094 158.629 152.495 158.775 152.859C158.848 153.114 158.958 153.369 159.031 153.624C159.104 153.879 159.178 154.134 159.251 154.389C159.361 154.899 159.507 155.41 159.617 155.883C159.69 156.211 159.763 156.539 159.837 156.867C159.654 156.503 159.324 155.774 159.287 155.738C158.738 154.863 157.164 153.478 156.03 153.77C155.224 153.989 154.858 154.863 155.115 155.592C155.407 156.357 156.286 156.867 157.018 157.086C157.823 157.341 159.654 157.122 159.873 157.086C159.983 157.632 160.093 158.142 160.166 158.653C160.239 159.017 160.276 159.381 160.349 159.709H161.081C161.008 159.345 160.935 158.944 160.861 158.507C160.752 157.96 160.642 157.377 160.495 156.794C160.642 156.758 161.411 156.43 162.069 156.065C162.655 156.721 164.193 157.45 164.376 157.559C164.156 158.07 163.973 158.543 163.753 159.017C163.643 159.272 163.534 159.491 163.424 159.709H164.193C164.266 159.564 164.302 159.418 164.376 159.272C164.595 158.762 164.815 158.215 165.034 157.632C165.254 157.669 167.048 158.033 167.89 157.851C168.658 157.669 169.573 157.268 169.903 156.503C170.232 155.774 169.939 154.863 169.134 154.608C168.036 154.244 166.352 155.482 165.73 156.321C165.693 156.357 165.364 156.94 165.144 157.304C165.217 157.086 165.327 156.831 165.4 156.612C165.583 156.138 165.73 155.665 165.913 155.118C165.986 154.863 166.059 154.608 166.133 154.353C166.206 154.098 166.279 153.806 166.352 153.551C166.499 152.932 166.608 152.276 166.718 151.62C167.121 151.766 168.658 152.276 169.427 152.239C170.196 152.203 171.184 151.912 171.623 151.219C172.063 150.563 171.916 149.616 171.147 149.215C170.122 148.669 168.256 149.652 167.524 150.381C167.487 150.418 167.011 151.001 166.755 151.329C166.828 150.928 166.865 150.563 166.938 150.163C167.084 148.996 167.194 147.83 167.304 146.664C167.341 146.3 167.377 145.936 167.414 145.608C167.56 145.681 169.317 146.336 170.196 146.264C170.964 146.227 171.953 145.936 172.392 145.243C172.831 144.587 172.685 143.64 171.916 143.239C170.891 142.693 169.024 143.676 168.292 144.405C168.219 144.478 167.56 145.316 167.414 145.535C167.487 144.77 167.597 143.968 167.707 143.203C167.853 142.146 168.073 141.126 168.365 140.142C168.439 140.178 170.269 140.871 171.184 140.798C171.953 140.761 172.941 140.47 173.38 139.778C173.82 139.122 173.673 138.174 172.904 137.774C171.88 137.227 170.013 138.211 169.281 138.94C169.207 139.012 168.512 139.887 168.365 140.069C168.365 139.996 168.402 139.96 168.402 139.887C168.732 138.83 169.171 137.883 169.61 137.008C169.866 136.498 170.159 136.024 170.452 135.551C170.781 135.733 172.319 136.462 173.124 136.498C173.893 136.535 174.881 136.352 175.43 135.733C175.943 135.114 175.906 134.166 175.174 133.692C174.222 133.037 172.246 133.838 171.44 134.458C171.404 134.494 171.001 134.895 170.708 135.186C170.855 134.968 170.964 134.749 171.111 134.567C171.587 133.838 172.099 133.182 172.538 132.636C172.795 132.308 173.014 132.053 173.234 131.761C173.637 131.761 175.284 131.688 176.016 131.36C176.711 131.032 177.517 130.413 177.7 129.611C177.883 128.81 177.37 128.008 176.565 127.935C175.394 127.826 174.039 129.393 173.6 130.34C173.563 130.413 173.124 131.761 173.161 131.761H173.197C172.978 132.016 172.758 132.271 172.502 132.563C172.063 133.109 171.55 133.729 171.038 134.458C170.525 135.186 170.013 135.988 169.537 136.863C169.061 137.737 168.585 138.721 168.256 139.778V139.814C168.256 139.486 168.256 138.539 168.219 138.466C168.073 137.446 167.231 135.551 166.059 135.332C165.217 135.186 164.522 135.806 164.485 136.607C164.412 137.409 164.998 138.247 165.583 138.757C166.242 139.34 168.036 139.887 168.182 139.96C167.853 140.98 167.597 142.037 167.414 143.093C167.304 143.713 167.194 144.332 167.121 144.988C167.121 144.697 167.121 144.442 167.121 144.405C166.974 143.385 166.133 141.49 164.961 141.272C164.119 141.126 163.424 141.745 163.387 142.547C163.314 143.349 163.9 144.187 164.485 144.697C165.071 145.207 166.608 145.717 167.011 145.863C166.974 146.118 166.938 146.336 166.901 146.592C166.755 147.758 166.645 148.924 166.462 150.053C166.389 150.454 166.316 150.855 166.242 151.219C166.242 150.964 166.242 150.746 166.242 150.709C166.096 149.689 165.254 147.794 164.083 147.575C163.241 147.43 162.545 148.049 162.509 148.851C162.435 149.652 163.021 150.49 163.607 151.001C164.156 151.511 165.583 151.984 166.059 152.13C165.986 152.531 165.876 152.932 165.803 153.296C165.73 153.551 165.657 153.806 165.583 154.061C165.51 154.316 165.4 154.572 165.327 154.827C165.144 155.3 164.961 155.81 164.778 156.248C164.668 156.576 164.522 156.867 164.412 157.195C164.485 156.794 164.595 156.029 164.595 155.956C164.595 155.264 164.376 154.134 163.863 153.369C163.863 153.26 163.863 153.15 163.826 153.078C163.717 152.276 162.948 151.693 162.143 151.912C161.008 152.203 160.312 154.171 160.239 155.191C160.239 155.264 160.276 155.92 160.312 156.321C160.239 156.065 160.203 155.847 160.129 155.592C160.02 155.082 159.873 154.608 159.727 154.061C159.654 153.806 159.58 153.551 159.507 153.296C159.434 153.041 159.324 152.786 159.251 152.531C159.031 151.912 158.775 151.329 158.519 150.709C158.958 150.6 160.495 150.199 161.118 149.725C161.74 149.252 162.399 148.486 162.399 147.685C162.399 146.883 161.74 146.191 160.898 146.264C159.727 146.373 158.738 148.231 158.519 149.252C158.519 149.324 158.446 150.053 158.409 150.454C158.226 150.09 158.08 149.725 157.896 149.361C157.384 148.341 156.835 147.284 156.286 146.264C156.103 145.936 155.956 145.644 155.773 145.316C155.92 145.28 157.787 144.843 158.446 144.332C159.068 143.859 159.727 143.093 159.727 142.292C159.727 141.49 159.068 140.798 158.226 140.871C157.055 140.98 156.066 142.838 155.847 143.859C155.847 143.932 155.737 144.988 155.737 145.28C155.371 144.587 155.005 143.895 154.675 143.166C154.236 142.183 153.833 141.235 153.541 140.251C153.614 140.251 155.554 139.814 156.249 139.267C156.872 138.794 157.53 138.029 157.53 137.227C157.53 136.425 156.872 135.733 156.03 135.806C154.858 135.915 153.87 137.774 153.65 138.794C153.65 138.867 153.541 140.033 153.541 140.251C153.541 140.178 153.504 140.142 153.467 140.069C153.174 139.012 152.991 137.992 152.882 136.972C152.808 136.389 152.772 135.842 152.772 135.296C153.138 135.259 154.822 135.041 155.517 134.603C156.176 134.203 156.908 133.51 157.018 132.709C157.091 131.907 156.542 131.142 155.7 131.142C154.529 131.142 153.321 132.854 153.028 133.838C153.028 133.875 152.882 134.458 152.808 134.858C152.808 134.603 152.808 134.348 152.808 134.13C152.808 133.255 152.882 132.454 152.918 131.725C152.955 131.324 152.991 130.96 153.028 130.632C153.357 130.413 154.712 129.466 155.115 128.773C155.517 128.117 155.847 127.17 155.554 126.405C155.261 125.676 154.419 125.239 153.65 125.64C152.625 126.186 152.333 128.227 152.516 129.247C152.516 129.32 152.918 130.705 152.955 130.668C152.955 130.668 152.955 130.668 152.991 130.668C152.955 130.996 152.918 131.36 152.845 131.725C152.772 132.417 152.699 133.255 152.662 134.13C152.625 135.004 152.625 135.952 152.735 136.972C152.808 137.992 152.955 139.049 153.248 140.106V140.142C153.065 139.85 152.516 139.085 152.479 139.012C151.783 138.247 150.026 137.118 148.965 137.555C148.196 137.883 147.977 138.794 148.343 139.486C148.782 140.506 149.734 140.871 150.502 140.98Z" fill="#263238"/>
<path d="M170.489 135.551C170.489 135.551 170.855 134.203 170.855 134.093C171.002 133.073 170.672 130.996 169.611 130.486C168.842 130.122 168 130.559 167.744 131.324C167.451 132.089 167.817 133.037 168.256 133.692C168.732 134.458 170.489 135.551 170.489 135.551Z" fill="#263238"/>
<path d="M190.181 117.076L189.339 117.914L184.068 123.161L178.76 117.878L177.918 117.04C176.454 115.582 176.454 113.214 177.918 111.756C178.651 111.027 179.602 110.663 180.554 110.663C181.506 110.663 182.457 111.027 183.19 111.756L184.031 112.594L184.873 111.756C185.605 111.027 186.557 110.663 187.509 110.663C188.461 110.663 189.412 111.027 190.144 111.756C191.645 113.25 191.645 115.619 190.181 117.076Z" stroke="#263238" stroke-width="0.5" stroke-miterlimit="10" stroke-linecap="round" stroke-linejoin="round"/>
<path d="M190.951 37.2765H161.74V19.7498C161.74 18.8752 162.472 18.1465 163.351 18.1465H189.34C190.219 18.1465 190.951 18.8752 190.951 19.7498V37.2765V37.2765Z" stroke="#263238" stroke-width="0.5" stroke-miterlimit="10" stroke-linecap="round" stroke-linejoin="round"/>
<path d="M189.926 36.621H162.766V20.2603C162.766 19.4586 163.425 18.8027 164.23 18.8027H188.462C189.267 18.8027 189.926 19.4586 189.926 20.2603V36.621Z" stroke="#263238" stroke-width="0.5" stroke-miterlimit="10" stroke-linecap="round" stroke-linejoin="round"/>
<path d="M159.873 37.3125H192.854C192.854 38.2599 192.085 39.0615 191.097 39.0615H161.63C160.642 39.0615 159.873 38.2963 159.873 37.3125Z" stroke="#263238" stroke-width="0.5" stroke-miterlimit="10" stroke-linecap="round" stroke-linejoin="round"/>
<path d="M88.0586 37.1829H77.5896C76.7111 37.1829 76.0156 36.4905 76.0156 35.616V11.5668C76.0156 10.6923 76.7111 10 77.5896 10H88.0586C88.9371 10 89.6326 10.6923 89.6326 11.5668V35.5796C89.6692 36.4541 88.9371 37.1829 88.0586 37.1829Z" stroke="#263238" stroke-width="0.5" stroke-miterlimit="10" stroke-linecap="round" stroke-linejoin="round"/>
<path d="M76.0156 33.8301V35.3605C76.0156 36.3807 76.7111 37.1824 77.5164 37.1824H88.1318C88.9737 37.1824 89.6326 36.3807 89.6326 35.3605V33.8301H76.0156Z" stroke="#263238" stroke-width="0.5" stroke-miterlimit="10" stroke-linecap="round" stroke-linejoin="round"/>
<path d="M89.6697 13.3159V11.8219C89.6697 10.8016 88.9742 10 88.1689 10H77.5535C76.7116 10 76.0527 10.8016 76.0527 11.8219V13.3523H89.6697V13.3159Z" stroke="#263238" stroke-width="0.5" stroke-miterlimit="10" stroke-linecap="round" stroke-linejoin="round"/>
<path d="M55.6948 126.514L56.5001 128.919H59.0259L56.976 130.413L57.7447 132.817L55.6948 131.324L53.645 132.817L54.4503 130.413L52.4004 128.919H54.9261L55.6948 126.514Z" stroke="#263238" stroke-width="0.5" stroke-miterlimit="10" stroke-linecap="round" stroke-linejoin="round"/>
<path d="M63.6006 126.514L64.3693 128.919H66.895L64.8451 130.413L65.6504 132.817L63.6006 131.324L61.5507 132.817L62.3194 130.413L60.2695 128.919H62.7953L63.6006 126.514Z" stroke="#263238" stroke-width="0.5" stroke-miterlimit="10" stroke-linecap="round" stroke-linejoin="round"/>
<path d="M71.4717 126.514L72.2404 128.919H74.8027L72.7528 130.413L73.5215 132.817L71.4717 131.324L69.4218 132.817L70.1905 130.413L68.1406 128.919H70.703L71.4717 126.514Z" stroke="#263238" stroke-width="0.5" stroke-miterlimit="10" stroke-linecap="round" stroke-linejoin="round"/>
<path d="M79.3413 126.514L80.1466 128.919H82.6723L80.6225 130.413L81.3912 132.817L79.3413 131.324L77.2914 132.817L78.0967 130.413L76.0469 128.919H78.5726L79.3413 126.514Z" stroke="#263238" stroke-width="0.5" stroke-miterlimit="10" stroke-linecap="round" stroke-linejoin="round"/>
<path d="M87.249 126.514L88.0177 128.919H90.5434L88.4936 130.413L89.2989 132.817L87.249 131.324L85.1991 132.817L85.9678 130.413L83.918 128.919H86.4437L87.249 126.514Z" stroke="#263238" stroke-width="0.5" stroke-miterlimit="10" stroke-linecap="round" stroke-linejoin="round"/>
<path d="M134.016 127.79V112.632C134.016 111.648 134.894 110.81 135.956 110.81H138.298L138.006 106L141.995 110.81H151.403C152.464 110.81 153.343 111.611 153.343 112.632V127.79C153.343 128.774 152.464 129.612 151.403 129.612H135.956C134.894 129.576 134.016 128.774 134.016 127.79Z" fill="#263238" stroke="#263238" stroke-width="0.5" stroke-miterlimit="10" stroke-linecap="round" stroke-linejoin="round"/>
<path d="M139.982 118.025C139.982 118.025 142.837 117.661 143.46 117.406C144.082 117.151 145.144 116.422 144.814 114.564C144.448 112.705 145.18 112.887 145.876 113.142C146.571 113.397 147.12 114.819 147.047 115.547C146.974 116.276 147.12 117.333 147.12 117.333C147.12 117.333 150.415 117.588 150.671 117.697C150.927 117.77 151.037 118.681 151.037 119.118C151.037 119.556 151.037 120.284 150.671 120.466C150.305 120.649 149.683 120.904 149.683 120.904C149.683 120.904 149.243 123.564 149.133 124.183C149.06 124.803 149.133 125.349 148.438 125.604C147.706 125.859 147.193 125.786 146.571 125.677C145.949 125.604 139.689 125.058 139.689 125.058L139.982 118.025Z" fill="white" stroke="#263238" stroke-width="0.5" stroke-miterlimit="10" stroke-linecap="round" stroke-linejoin="round"/>
<path d="M140.97 117.224H135.699V126.37H140.97V117.224Z" fill="#00D6EC" stroke="#263238" stroke-width="0.5" stroke-miterlimit="10" stroke-linecap="round" stroke-linejoin="round"/>
<path d="M194.529 54.6396H175.678C174.689 54.6396 173.847 55.4413 173.847 56.4616V59.6681L169.016 59.3766L173.847 63.0569V66.7371C173.847 67.721 174.653 68.559 175.678 68.559H194.529C195.517 68.559 196.359 67.7574 196.359 66.7371V56.4251C196.359 55.4413 195.517 54.6396 194.529 54.6396Z" fill="white" stroke="#263238" stroke-width="0.5" stroke-miterlimit="10" stroke-linecap="round" stroke-linejoin="round"/>
<path d="M181.973 64.4783L181.168 72.7497L185.121 69.5432L188.928 72.5675L187.501 64.041L181.973 64.4783Z" fill="#263238" stroke="#263238" stroke-width="0.5" stroke-miterlimit="10" stroke-linecap="round" stroke-linejoin="round"/>
<path d="M190.43 59.486C190.43 58.8301 191.052 58.0649 190.832 57.4819C190.613 56.8624 189.698 56.6074 189.295 56.0972C188.929 55.5871 188.966 54.6033 188.453 54.2389C187.941 53.8745 187.026 54.2025 186.403 54.0203C185.818 53.8381 185.268 53 184.61 53C183.951 53 183.402 53.8016 182.816 54.0203C182.194 54.2389 181.279 53.8745 180.766 54.2389C180.254 54.6033 180.29 55.5871 179.924 56.0972C179.558 56.6074 178.606 56.8624 178.387 57.4819C178.204 58.0649 178.789 58.8301 178.789 59.486C178.789 60.1419 178.167 60.9071 178.387 61.4901C178.606 62.1095 179.522 62.3646 179.924 62.8747C180.29 63.3849 180.254 64.3687 180.766 64.7331C181.279 65.0975 182.194 64.7695 182.816 64.9517C183.402 65.1339 183.951 65.972 184.61 65.972C185.268 65.972 185.818 65.1703 186.403 64.9517C187.026 64.7331 187.941 65.0975 188.453 64.7331C188.966 64.3687 188.929 63.3849 189.295 62.8747C189.661 62.3646 190.613 62.1095 190.832 61.4901C191.052 60.9071 190.43 60.1419 190.43 59.486Z" fill="#00D6EC" stroke="#263238" stroke-width="0.5" stroke-miterlimit="10" stroke-linecap="round" stroke-linejoin="round"/>
<path d="M185.396 64.4946C188.174 64.0781 190.088 61.4982 189.669 58.7323C189.251 55.9663 186.659 54.0617 183.881 54.4783C181.102 54.8948 179.189 57.4747 179.607 60.2406C180.026 63.0065 182.617 64.9111 185.396 64.4946Z" fill="white" stroke="#263238" stroke-width="0.5" stroke-miterlimit="10" stroke-linecap="round" stroke-linejoin="round"/>
<path d="M184.389 62.4742V57.6644C184.316 57.7008 184.279 57.7373 184.206 57.7373C184.133 57.7737 184.06 57.8101 183.987 57.8466C183.913 57.883 183.84 57.9194 183.767 57.9559C183.694 57.9923 183.621 58.0288 183.584 58.0288V57.1178C183.657 57.0814 183.73 57.0449 183.804 57.0085C183.913 56.972 184.023 56.8992 184.133 56.8263C184.243 56.7534 184.353 56.6805 184.462 56.6441C184.572 56.5712 184.646 56.5348 184.682 56.4619H185.67V62.5107H184.389V62.4742Z" fill="#263238"/>
<path d="M153.174 10.4941H134.322C133.334 10.4941 132.492 11.2958 132.492 12.316V20.4782C132.492 21.462 133.297 22.3001 134.322 22.3001H135.494L133.956 26.3083L138.239 22.3001H153.174C154.162 22.3001 155.004 21.4985 155.004 20.4782V12.316C154.968 11.3322 154.162 10.4941 153.174 10.4941Z" fill="white" stroke="#263238" stroke-width="0.5" stroke-miterlimit="10" stroke-linecap="round" stroke-linejoin="round"/>
<path d="M139.777 17.272C140.181 17.272 140.509 16.9457 140.509 16.5432C140.509 16.1407 140.181 15.8145 139.777 15.8145C139.373 15.8145 139.045 16.1407 139.045 16.5432C139.045 16.9457 139.373 17.272 139.777 17.272Z" fill="#263238"/>
<path d="M143.474 17.272C143.879 17.272 144.206 16.9457 144.206 16.5432C144.206 16.1407 143.879 15.8145 143.474 15.8145C143.07 15.8145 142.742 16.1407 142.742 16.5432C142.742 16.9457 143.07 17.272 143.474 17.272Z" fill="#263238"/>
<path d="M147.134 17.272C147.539 17.272 147.867 16.9457 147.867 16.5432C147.867 16.1407 147.539 15.8145 147.134 15.8145C146.73 15.8145 146.402 16.1407 146.402 16.5432C146.402 16.9457 146.73 17.272 147.134 17.272Z" fill="#263238"/>
<path d="M168.643 78.567L152.593 69.5028V51.6816C152.593 47.5335 149.197 44 144.876 44H50.7323C46.5653 44 43.0156 47.3799 43.0156 51.6816V91.3184C43.0156 95.4665 46.411 99 50.7323 99H144.876C149.043 99 152.593 95.6201 152.593 91.3184V79.9497L168.643 78.567Z" fill="#263238" stroke="#263238" stroke-width="0.5" stroke-miterlimit="10" stroke-linecap="round" stroke-linejoin="round"/>
<path d="M59.834 63.0508L61.8403 68.8888H68.0137L62.9206 72.4223L64.927 78.2603L59.834 74.7267L54.8953 78.2603L56.7473 72.4223L51.8086 68.8888H57.982L59.834 63.0508Z" fill="white"/>
<path d="M79.127 63.0508L80.9789 68.8888H87.1523L82.2136 72.4223L84.0656 78.2603L79.127 74.7267L74.0339 78.2603L76.0403 72.4223L70.9473 68.8888H77.1206L79.127 63.0508Z" fill="white"/>
<path d="M98.2656 63.0508L100.272 68.8888H106.291L101.352 72.4223L103.204 78.2603L98.2656 74.7267L93.3269 78.2603L95.1789 72.4223L90.2402 68.8888H96.4136L98.2656 63.0508Z" fill="white"/>
<path d="M117.559 63.0508L119.411 68.8888H125.584L120.645 72.4223L122.497 78.2603L117.559 74.7267L112.466 78.2603L114.472 72.4223L109.379 68.8888H115.552L117.559 63.0508Z" fill="white"/>
<path d="M136.689 63.0508L138.541 68.8888H144.715L139.776 72.4223L141.628 78.2603L136.689 74.7267L131.751 78.2603L133.603 72.4223L128.664 68.8888H134.837L136.689 63.0508Z" fill="white"/>
<path d="M95.4427 109.846H89.7323V106.822C89.7323 105.838 88.927 105 87.9021 105H73.8459C72.8575 105 72.0156 105.802 72.0156 106.822V114.984C72.0156 115.968 72.8209 116.806 73.8459 116.806H87.9387C88.927 116.806 89.7689 116.004 89.7689 114.984V112.397L95.4427 109.846Z" fill="white" stroke="#263238" stroke-width="0.5" stroke-miterlimit="10" stroke-linecap="round" stroke-linejoin="round"/>
<path d="M84.6077 111.304L84.0587 111.851L80.5446 115.349L77.0306 111.851L76.4815 111.304C75.4932 110.32 75.4932 108.753 76.4815 107.806C76.9573 107.332 77.6162 107.077 78.2385 107.077C78.8608 107.077 79.5197 107.332 79.9955 107.806L80.5446 108.352L81.0937 107.806C81.5695 107.332 82.2284 107.077 82.8507 107.077C83.473 107.077 84.1319 107.332 84.6077 107.806C85.5961 108.753 85.5961 110.32 84.6077 111.304Z" fill="#00D6EC" stroke="#263238" stroke-width="0.5" stroke-miterlimit="10" stroke-linecap="round" stroke-linejoin="round"/>
<path d="M196.332 159.818H200.285" stroke="#263238" stroke-width="0.5" stroke-miterlimit="10" stroke-linecap="round" stroke-linejoin="round"/>
<path d="M47.5332 159.818H193.586" stroke="#263238" stroke-width="0.5" stroke-miterlimit="10" stroke-linecap="round" stroke-linejoin="round"/>
</g>
<defs>
<clipPath id="clip0_711_27558">
<rect width="243" height="160" fill="white"/>
</clipPath>
</defs>
</svg>
