<svg width="24" height="24" viewBox="0 0 24 24" fill="none" xmlns="http://www.w3.org/2000/svg">
<path d="M5.50095 20.7511C5.50095 20.9501 5.42193 21.1408 5.28128 21.2815C5.14062 21.4221 4.94986 21.5011 4.75095 21.5011C4.55203 21.5011 4.36127 21.4221 4.22062 21.2815C4.07996 21.1408 4.00095 20.9501 4.00095 20.7511V7.56164L2.28195 9.28214C2.21222 9.35187 2.12943 9.40719 2.03832 9.44493C1.94721 9.48266 1.84956 9.50209 1.75095 9.50209C1.55178 9.50209 1.36078 9.42297 1.21995 9.28214C1.07912 9.14131 1 8.9503 1 8.75114C1 8.55198 1.07912 8.36097 1.21995 8.22014L4.21995 5.22164L4.23045 5.21114C4.37145 5.0742 4.56074 4.99834 4.7573 5.00003C4.95385 5.00171 5.14181 5.0808 5.28045 5.22014L8.28045 8.22014C8.35018 8.28977 8.40551 8.37246 8.44329 8.46348C8.48107 8.5545 8.50055 8.65206 8.50061 8.75061C8.50068 8.84916 8.48134 8.94675 8.4437 9.03782C8.40605 9.12889 8.35083 9.21166 8.2812 9.28139C8.21156 9.35112 8.12888 9.40646 8.03786 9.44423C7.94684 9.48201 7.84927 9.50149 7.75073 9.50156C7.65218 9.50163 7.55459 9.48229 7.46352 9.44464C7.37244 9.40699 7.28968 9.35177 7.21995 9.28214L5.50095 7.56164V20.7511ZM11.5009 6.50114C11.302 6.50114 11.1113 6.42212 10.9706 6.28147C10.83 6.14082 10.7509 5.95005 10.7509 5.75114C10.7509 5.55223 10.83 5.36146 10.9706 5.22081C11.1113 5.08016 11.302 5.00114 11.5009 5.00114H13.0009C13.1999 5.00114 13.3906 5.08016 13.5313 5.22081C13.6719 5.36146 13.7509 5.55223 13.7509 5.75114C13.7509 5.95005 13.6719 6.14082 13.5313 6.28147C13.3906 6.42212 13.1999 6.50114 13.0009 6.50114H11.5009ZM11.5009 11.0011C11.302 11.0011 11.1113 10.9221 10.9706 10.7815C10.83 10.6408 10.7509 10.4501 10.7509 10.2511C10.7509 10.0522 10.83 9.86146 10.9706 9.72081C11.1113 9.58016 11.302 9.50114 11.5009 9.50114H16.0009C16.1999 9.50114 16.3906 9.58016 16.5313 9.72081C16.6719 9.86146 16.7509 10.0522 16.7509 10.2511C16.7509 10.4501 16.6719 10.6408 16.5313 10.7815C16.3906 10.9221 16.1999 11.0011 16.0009 11.0011H11.5009ZM11.5009 15.5011C11.302 15.5011 11.1113 15.4221 10.9706 15.2815C10.83 15.1408 10.7509 14.9501 10.7509 14.7511C10.7509 14.5522 10.83 14.3615 10.9706 14.2208C11.1113 14.0802 11.302 14.0011 11.5009 14.0011H19.0009C19.1999 14.0011 19.3906 14.0802 19.5313 14.2208C19.6719 14.3615 19.7509 14.5522 19.7509 14.7511C19.7509 14.9501 19.6719 15.1408 19.5313 15.2815C19.3906 15.4221 19.1999 15.5011 19.0009 15.5011H11.5009ZM10.7509 19.2511C10.7509 19.4501 10.83 19.6408 10.9706 19.7815C11.1113 19.9221 11.302 20.0011 11.5009 20.0011H22.0009C22.1999 20.0011 22.3906 19.9221 22.5313 19.7815C22.6719 19.6408 22.7509 19.4501 22.7509 19.2511C22.7509 19.0522 22.6719 18.8615 22.5313 18.7208C22.3906 18.5802 22.1999 18.5011 22.0009 18.5011H11.5009C11.302 18.5011 11.1113 18.5802 10.9706 18.7208C10.83 18.8615 10.7509 19.0522 10.7509 19.2511Z" fill="#F6F7FA"/>
</svg>
