<svg width="120" height="36" viewBox="0 0 120 36" fill="none" xmlns="http://www.w3.org/2000/svg">
<path d="M41.6082 15.9055V9.06934H45.1637V9.46811H42.0714V11.9861H44.8973V12.3849H42.0714V15.9169H41.6082V15.9055Z" fill="#333333"/>
<path d="M46.8777 15.9048V9.69531H49.8194V10.0713H47.3178V12.3272H49.5646V12.7032H47.3178V15.4946H49.912V15.8934H46.8777V15.9048Z" fill="#333333"/>
<path d="M54.6258 15.5845H54.3594L52.5295 11.198C52.4485 11.0271 52.379 10.822 52.2979 10.5941C52.2979 10.5941 52.2979 10.6283 52.2747 10.708C52.2516 10.765 52.2516 10.8562 52.24 10.9701C52.2168 11.084 52.2168 11.1524 52.2053 11.2321L51.4756 15.9263H51.0355L52.0663 9.67123H52.3327L54.3015 14.2514C54.4521 14.6274 54.5331 14.8325 54.5331 14.8553C54.5679 14.7186 54.6721 14.5135 54.7995 14.2514L57 9.64844H57.2664L58.2161 15.9035H57.7528L57.0695 11.1866C57.0347 10.8675 56.9884 10.6625 56.9884 10.5713L56.6989 11.2094L54.6258 15.5845Z" fill="#333333"/>
<path d="M59.8954 15.9048V9.69531H60.3355V15.9162L59.8954 15.9048Z" fill="#333333"/>
<path d="M64.4932 9.6377C65.4661 9.6377 66.2883 9.93393 66.9369 10.515C67.5855 11.0961 67.9098 11.905 67.9098 12.919C67.9098 13.9331 67.6086 14.7078 67.018 15.2091C66.4273 15.7219 65.6398 15.9839 64.6901 15.9839C64.0415 15.9839 63.3582 15.9497 62.6633 15.8928V9.69466C63.1845 9.64909 63.7867 9.6377 64.4932 9.6377ZM64.6901 15.5851C65.5124 15.5851 66.1841 15.3573 66.6937 14.9243C67.1917 14.4914 67.4581 13.8191 67.4581 12.9304C67.4581 12.0531 67.1685 11.3353 66.601 10.8112C66.0335 10.2871 65.3387 10.0251 64.5048 10.0251C63.9141 10.0251 63.4509 10.0479 63.1498 10.0593V15.5054C63.5204 15.5737 64.0415 15.5851 64.6901 15.5851Z" fill="#333333"/>
<path d="M70.0523 13.7631L69.1605 15.9279H68.6973L71.3494 9.67285H71.6158L74.2911 15.9279H73.7931L72.8782 13.7631H70.0523ZM71.4421 10.3679C71.3494 10.6527 71.2568 10.892 71.1757 11.0857L70.2029 13.3758H72.6813L71.7316 11.0857C71.5926 10.7438 71.4884 10.5046 71.4421 10.3679Z" fill="#333333"/>
<path d="M44.1908 26.3527V19.5166H47.7463V19.9154H44.6425V22.4334H47.4684V22.8321H44.6425V26.3641H44.1908V26.3527Z" fill="#333333"/>
<path d="M52.1125 26.4439C51.2207 26.4439 50.4564 26.1476 49.8426 25.521C49.2287 24.9057 48.9276 24.1538 48.9276 23.2537C48.9276 22.3536 49.2287 21.6016 49.8426 20.9864C50.4564 20.3711 51.2207 20.0635 52.1125 20.0635C53.0043 20.0635 53.7687 20.3597 54.3825 20.9864C54.9963 21.6016 55.2974 22.3536 55.2974 23.2537C55.2974 24.1538 54.9963 24.9057 54.3825 25.521C53.7455 26.1476 53.0043 26.4439 52.1125 26.4439ZM52.1125 20.4281C51.325 20.4281 50.6764 20.6901 50.1668 21.237C49.6457 21.7839 49.4025 22.4333 49.4025 23.2309C49.4025 24.0284 49.6457 24.6779 50.1668 25.2248C50.688 25.7717 51.3366 26.0337 52.1125 26.0337C52.8885 26.0337 53.5486 25.7717 54.0582 25.2248C54.5794 24.6779 54.8226 24.0284 54.8226 23.2309C54.8226 22.4333 54.5794 21.7839 54.0582 21.237C53.5371 20.7129 52.8885 20.4281 52.1125 20.4281Z" fill="#333333"/>
<path d="M57.22 26.3524V20.1657C57.7759 20.1315 58.2507 20.0859 58.6329 20.0859C59.2236 20.0859 59.7216 20.2341 60.1038 20.5417C60.486 20.8379 60.6944 21.2709 60.6944 21.8405C60.6944 22.2165 60.5786 22.5697 60.3701 22.8888C60.1385 23.2078 59.8953 23.4698 59.6289 23.6635C60.3933 24.6775 60.8681 25.2814 61.065 25.4637C61.4241 25.8397 61.8294 26.0448 62.2695 26.1017L62.2463 26.398C61.8873 26.398 61.5978 26.341 61.3661 26.2499C61.1345 26.1587 60.9029 25.9878 60.6944 25.7371C60.4628 25.4979 59.988 24.8712 59.2236 23.8458C58.6908 23.8458 58.1697 23.823 57.6716 23.7888V26.341L57.22 26.3524ZM58.9804 23.4926C59.2236 23.4926 59.5131 23.3217 59.8026 23.0027C60.0922 22.6609 60.2427 22.2849 60.2427 21.8405C60.2427 21.4076 60.0922 21.0658 59.7795 20.8265C59.4784 20.5986 59.073 20.4847 58.5982 20.4847C58.3318 20.4847 58.0307 20.5075 57.6832 20.5189V23.4243C58.1349 23.4698 58.575 23.4926 58.9804 23.4926Z" fill="#333333"/>
<path d="M67.8171 26.0448C67.3423 26.3068 66.6474 26.4436 65.7904 26.4436C64.9333 26.4436 64.169 26.1473 63.4972 25.5207C62.8255 24.894 62.5012 24.1534 62.5012 23.2306C62.5012 22.3305 62.7908 21.5557 63.3583 20.9405C63.9257 20.3252 64.6785 20.0176 65.5703 20.0176C66.3 20.0176 67.018 20.1315 67.7245 20.3594L67.6087 20.7126C66.9369 20.5075 66.2305 20.4164 65.5124 20.4164C64.7944 20.4164 64.1921 20.6784 63.6941 21.2253C63.1961 21.7722 62.9645 22.4216 62.9645 23.2192C62.9645 24.0167 63.254 24.6662 63.8215 25.2131C64.389 25.7599 65.0376 26.0448 65.7904 26.0448C66.5316 26.0448 67.1686 25.9536 67.6434 25.7485L67.8171 26.0448Z" fill="#333333"/>
<path d="M69.4153 26.3517V20.1309H72.357V20.5068H69.8554V22.7628H72.1022V23.1388H69.8554V25.9416H72.4496V26.3404H69.4153V26.3517Z" fill="#333333"/>
<path d="M34.4666 35.5138H1.34346C0.602239 35.5138 0 34.9213 0 34.1921V1.32165C0 0.592466 0.602239 0 1.34346 0H34.4666C35.2078 0 35.81 0.592466 35.81 1.32165V34.1921C35.81 34.9213 35.1962 35.5138 34.4666 35.5138Z" fill="#FB593B"/>
<path d="M20.7424 28.6194C20.6845 28.4258 20.615 28.2321 20.5918 28.0384C20.5223 27.1953 20.6497 26.3749 20.893 25.566C20.9161 25.4634 20.9972 25.3723 21.0783 25.3153C22.0164 24.5633 22.966 23.8228 23.9157 23.0708C24.6338 22.5011 25.4329 22.0226 26.012 21.2934C26.4752 20.7237 26.869 20.0971 27.0196 19.3679C27.0891 19.0375 27.1006 18.6843 26.9732 18.3311C26.8922 18.6159 26.8227 18.9007 26.7184 19.1856C26.4752 19.8578 26.0351 20.4047 25.5719 20.9288C24.9928 21.5896 24.2516 22.0681 23.5335 22.5581C22.387 23.3442 21.2404 24.1304 20.0475 24.8596C18.7156 25.6685 17.6038 26.7167 16.6078 27.8789C15.6813 28.9385 14.8821 30.0892 14.2915 31.3653C14.2683 31.4223 14.1757 31.5134 14.1525 31.5134C14.0714 31.4906 13.9788 31.4337 13.9556 31.3653C13.7008 30.8184 13.4113 30.2715 13.1912 29.7132C12.7743 28.665 12.6006 27.5598 12.6122 26.4433C12.6353 25.3267 12.867 24.2329 13.4692 23.2759C13.7935 22.729 14.2452 22.2277 14.7432 21.8289C15.6234 21.0769 16.573 20.4047 17.4996 19.6983C17.6965 19.5502 17.8933 19.3793 18.1134 19.2425C18.1829 19.1856 18.2871 19.14 18.3798 19.1286C18.1945 19.9375 17.7544 20.6326 17.4301 21.3845C17.4532 21.3959 17.4764 21.4301 17.4996 21.4415C17.6733 21.3048 17.8586 21.1794 18.0092 21.0199C18.8893 20.1768 19.4684 19.1742 19.8854 18.0576C20.2444 17.0778 20.4529 16.0751 20.2791 15.0269C20.0938 13.9331 19.7232 12.9191 19.1557 11.9734C18.8546 11.4721 18.484 10.9936 18.1481 10.5037C18.125 10.4581 18.0671 10.4239 17.9744 10.4239C18.0323 10.5606 18.0786 10.7088 18.125 10.8455C18.5651 12.019 18.8083 13.2153 18.6693 14.48C18.6114 15.0155 18.3682 15.4713 17.9976 15.8814C17.6154 16.303 17.1753 16.3714 16.6078 16.0637C16.214 15.8359 15.855 15.5624 15.4844 15.2776C14.8474 14.8218 14.2336 14.2977 13.4924 14.0129C13.446 14.0015 13.3881 13.9901 13.3071 14.0015C13.3766 14.0813 13.4345 14.1838 13.504 14.2522C14.083 14.8218 14.5579 15.4941 14.8821 16.2346C15.3222 17.2259 15.4612 18.2627 15.1369 19.3223C15.0559 19.6185 14.8821 19.8806 14.7432 20.1426C14.6389 20.3363 14.4768 20.4275 14.2336 20.3819C13.6198 20.268 13.0291 20.2794 12.4153 20.3819C11.7667 20.4844 11.1761 20.7009 10.6086 21.0427C9.91368 21.4643 9.47359 22.0795 9.1493 22.7859C9.01033 23.0936 8.94084 23.1164 8.69763 22.8657C8.08381 22.239 7.60896 21.5554 7.36575 20.7123C7.35417 20.6667 7.31943 20.6098 7.30785 20.5756C7.28468 20.5756 7.24994 20.5756 7.22677 20.587C7.23836 20.849 7.24994 21.1225 7.2731 21.3845C7.2731 21.4529 7.31942 21.5213 7.31942 21.5896C7.31942 21.6352 7.30784 21.7036 7.2731 21.7263C7.26152 21.7377 7.19203 21.7263 7.1457 21.7036C6.63612 21.3162 6.16128 20.8946 6.13811 20.211C6.12653 19.9603 6.19602 19.7097 6.26551 19.4704C6.53188 18.6045 6.98356 17.8525 7.60896 17.1917C7.74794 17.0436 7.8985 17.0436 8.06064 17.1461C8.67446 17.5677 9.29986 17.9551 9.9021 18.388C10.2959 18.6501 10.6781 18.9577 11.0603 19.2425C11.1182 19.2881 11.1761 19.3223 11.234 19.3679C11.4077 19.4704 11.4772 19.4248 11.4656 19.2425C11.4424 18.707 11.1761 18.2969 10.6896 18.069C10.2032 17.8639 9.70521 17.6816 9.23037 17.4651C8.60497 17.2031 8.04906 16.8043 7.77111 16.1777C7.63213 15.87 7.53947 15.5168 7.51631 15.1864C7.49315 14.856 7.80585 14.6851 8.06064 14.5598C8.39651 14.3775 8.75553 14.2408 9.13772 14.0699C9.07981 14.0015 9.02191 13.9445 8.964 13.8762C8.81344 13.7053 8.81344 13.5685 9.03349 13.4888C9.2767 13.3862 9.54308 13.3521 9.79787 13.2837C9.87894 13.2723 9.94843 13.2609 10.0411 13.2381C10.0527 13.2153 10.0527 13.1812 10.0642 13.1584C9.89052 13.09 9.73996 12.9761 9.56624 12.9533C8.97558 12.828 8.36176 12.828 7.79427 13.0103C7.33101 13.1584 6.9604 13.0103 6.55505 12.8849C6.53188 12.8735 6.48556 12.714 6.50872 12.6798C6.58979 12.5773 6.69402 12.4975 6.80984 12.4292C7.70161 11.8139 8.59339 11.2101 9.50833 10.5948C9.56624 10.572 9.62415 10.5379 9.65889 10.5151C9.63573 10.4695 9.61256 10.4467 9.5894 10.4011C9.41568 10.4467 9.23037 10.5037 9.06823 10.5379C8.99874 10.5492 8.92926 10.5492 8.85977 10.5492C8.85977 10.4695 8.84818 10.3783 8.88293 10.31C9.11456 9.87703 9.45042 9.51243 9.87894 9.29595C10.4464 8.98833 10.4928 8.54398 10.3885 8.00848C10.3422 7.76922 10.2843 7.55274 10.2495 7.31347C10.238 7.23372 10.2495 7.14257 10.2495 7.05142C10.2611 7.04003 10.2959 7.02863 10.3075 7.00585C10.5043 7.23372 10.7244 7.4502 10.9792 7.74643C11.0023 7.57552 11.0371 7.46159 11.0371 7.35905C11.095 6.85773 11.1182 6.35641 11.1876 5.8551C11.2108 5.61583 11.3382 5.43353 11.5698 5.3082C12.6353 4.72713 13.7008 4.12327 14.7779 3.56499C15.2991 3.28015 15.8434 3.0181 16.4688 3.10925C16.8626 3.16621 17.2679 3.30294 17.6617 3.41687C17.7312 3.42827 17.7891 3.51941 17.8933 3.59917C17.3722 3.78147 16.8278 3.84983 16.4457 4.21442C16.4457 4.23721 16.4572 4.26 16.4572 4.28278C16.5383 4.27139 16.6425 4.27139 16.7236 4.23721C17.6154 3.94098 18.5303 3.73589 19.4568 3.66753C19.6885 3.65614 19.9548 3.66753 20.1633 3.74729C21.2867 4.18024 22.4101 4.63598 23.522 5.06894C24.1589 5.3196 24.7959 5.57026 25.4561 5.77534C26.0004 5.94624 26.3131 6.31084 26.5447 6.74379C27.0659 7.68946 27.6218 8.62373 28.0966 9.60358C28.4325 10.2986 28.6526 11.0733 28.8958 11.8139C28.9653 12.0532 28.9537 12.3152 28.9768 12.5659C28.9305 12.5773 28.9074 12.5887 28.861 12.6115C28.78 12.4862 28.6757 12.3722 28.5947 12.2469C28.1777 11.6202 27.7839 10.9822 27.3554 10.3442C27.2744 10.2188 27.1585 10.1163 27.0543 10.0137C27.0311 10.0251 27.008 10.0365 26.9848 10.0593C27.008 10.1619 27.0427 10.2644 27.1006 10.3669C27.6797 11.6202 28.2935 12.8621 28.861 14.1268C29.2316 14.97 29.5675 15.8017 29.8802 16.6676C30.0539 17.1461 30.0308 17.6588 29.996 18.1715C29.8686 19.5388 29.3127 20.7237 28.4788 21.7833C27.5292 22.9796 26.4173 24.0278 25.1318 24.8938C24.2284 25.509 23.3251 26.147 22.4449 26.8193C21.889 27.2408 21.4373 27.7535 21.0783 28.3574C21.0088 28.4713 20.9393 28.5625 20.8698 28.6764C20.8119 28.6194 20.7887 28.6194 20.7424 28.6194ZM17.7196 7.64389C17.708 7.66667 17.708 7.70085 17.6965 7.72364C17.8123 7.8034 17.9281 7.87176 18.0207 7.96291C18.704 8.56677 19.4105 9.14784 20.0591 9.77448C20.5455 10.253 21.0088 10.7429 21.4025 11.2784C22.1785 12.3494 22.6649 13.5571 22.8965 14.8674C23.1977 16.6562 22.8502 18.2855 21.8079 19.778C21.7616 19.835 21.7037 19.8806 21.6573 19.9262C21.6342 19.9262 21.611 19.9148 21.5878 19.9148C21.5763 19.8122 21.5647 19.7211 21.5763 19.6071C21.6226 18.7298 21.5763 17.8525 21.3099 16.998C21.2867 16.9296 21.2404 16.8613 21.1941 16.7929C21.1709 16.7929 21.1362 16.8043 21.113 16.8043C21.0551 19.0488 20.4181 21.1339 19.3642 23.1277C19.5727 23.0252 19.758 22.9227 19.9317 22.7973C20.9972 21.9428 21.8658 20.9288 22.5723 19.778C23.1282 18.8666 23.522 17.9095 23.6609 16.8499C23.7767 16.0296 23.7999 15.1978 23.7188 14.3775C23.7073 14.2635 23.7304 14.1496 23.742 14.0471C23.7652 14.0471 23.7999 14.0471 23.8231 14.0471C24.3095 14.913 24.4485 15.8586 24.6222 16.8271C24.6685 16.8043 24.6917 16.7701 24.6917 16.7473C24.7033 16.6904 24.7033 16.622 24.7148 16.5651C24.7959 15.3801 24.6569 14.218 24.1358 13.147C23.962 12.7938 23.8926 12.5203 24.24 12.2583C24.2632 12.2469 24.2632 12.2013 24.2863 12.1785C24.8654 11.1987 25.0855 10.1277 24.9117 9.01111C24.7843 8.20217 24.5295 7.96291 23.7073 8.00848C22.8502 8.05406 21.9932 8.06545 21.1362 8.06545C20.117 8.06545 19.1094 7.88315 18.1018 7.70085C17.9628 7.65528 17.8354 7.65528 17.7196 7.64389ZM11.9173 10.3897C11.9057 10.4011 11.8941 10.4353 11.871 10.4467C11.9173 10.5834 11.952 10.7315 11.9984 10.8683C12.0447 11.005 12.0447 11.1189 11.8941 11.2329C11.6046 11.4266 11.3266 11.643 11.0371 11.8367C10.9908 11.8823 10.956 11.9393 10.8865 12.0304C11.0139 12.019 11.0718 12.019 11.1297 12.0076C11.4656 11.9279 11.8131 11.8139 12.1605 11.7228C12.9133 11.5747 13.6661 11.4152 14.4305 11.2898C14.8011 11.2329 15.1833 11.2329 15.5655 11.2101C15.6929 11.1987 15.855 11.1531 15.7392 11.005C15.4033 10.5492 15.0443 10.0593 14.4305 9.96817C13.8398 9.88842 13.226 9.85424 12.6238 9.83145C12.2879 9.82006 12.2647 9.85424 12.2416 10.196C12.23 10.3783 12.2068 10.5265 11.9173 10.3897ZM13.7819 7.73503C13.9093 7.73503 14.0135 7.74643 14.0946 7.73503C14.6737 7.67807 15.2759 7.6211 15.855 7.54134C16.0866 7.51856 16.3183 7.42741 16.5383 7.33626C16.9089 7.15396 17.2564 6.94888 17.6154 6.7324C17.6965 6.67543 17.7891 6.61846 17.8586 6.5615C17.847 6.5501 17.847 6.51592 17.8354 6.50453C17.7544 6.51592 17.6849 6.52732 17.5922 6.5615C17.3606 6.64125 17.1521 6.75519 16.9089 6.80076C16.0519 6.99445 15.1948 7.16536 14.3378 7.34765C14.1062 7.40462 13.8746 7.42741 13.7819 7.73503ZM14.4073 5.78673C14.3841 5.76395 14.361 5.74116 14.3378 5.71837C13.3997 6.39059 12.589 7.18814 11.8825 8.12242C12.1373 8.11102 12.3805 8.06545 12.6006 7.99709C12.6817 7.9743 12.7512 7.89454 12.7975 7.82618C13.1333 7.38183 13.446 6.9147 13.7935 6.47035C13.9904 6.23108 14.1988 6.00321 14.4073 5.78673Z" fill="white"/>
<path d="M12.5543 23.5609C12.5311 23.6292 12.508 23.709 12.4848 23.7887C11.9984 25.0078 11.9289 26.2497 12.1142 27.5144C12.1605 27.7765 12.23 28.0499 12.2648 28.3006C12.2763 28.4259 12.2648 28.5626 12.2648 28.688C12.1489 28.6196 11.9984 28.5854 11.9289 28.4943C11.5351 28.0044 11.1182 27.5258 10.7707 27.0131C10.5391 26.6941 10.4001 26.3295 10.2496 25.9649C10.0064 25.3838 10.099 24.8255 10.4001 24.29C10.6318 23.9141 10.8866 23.5381 11.095 23.1507C11.234 22.8886 11.3498 22.5924 11.4772 22.3076C11.5583 22.1025 11.6741 22.0569 11.8015 22.2392C12.0563 22.6038 12.2879 22.9912 12.508 23.3672C12.5427 23.4127 12.5427 23.4811 12.5543 23.5609Z" fill="white"/>
<path d="M7.56269 16.5877C7.53952 16.6446 7.50478 16.713 7.44687 16.77C7.31948 16.8953 7.19208 17.0206 7.06468 17.1345C6.94887 17.2485 6.85622 17.2029 6.77515 17.0776C6.47403 16.4965 6.13816 15.9154 5.88337 15.323C5.65174 14.7875 5.57067 14.2064 5.77914 13.6367C5.8023 13.5684 5.88337 13.5228 5.9297 13.4658C5.9876 13.5228 6.06868 13.5798 6.08026 13.6367C6.14975 14.1153 6.50877 14.3887 6.84464 14.6735C7.02994 14.8217 7.11101 14.9926 7.15733 15.2318C7.22682 15.6192 7.3658 16.018 7.47004 16.4054C7.51636 16.4623 7.5511 16.5193 7.56269 16.5877Z" fill="white"/>
<path d="M23.6379 8.60092C23.5684 8.6237 23.5105 8.66928 23.441 8.70346C22.8966 8.95412 22.3639 9.20478 21.8196 9.46683C21.669 9.54658 21.5184 9.66052 21.3563 9.71749C21.2868 9.74027 21.1478 9.72888 21.0899 9.6947C20.7772 9.39847 20.4761 9.07945 20.1866 8.76043C20.1402 8.71485 20.1402 8.64649 20.1171 8.58952C20.175 8.56673 20.2445 8.52116 20.3024 8.52116C21.2984 8.50977 22.2944 8.49837 23.2788 8.47559C23.3946 8.47559 23.5105 8.48698 23.6147 8.49837C23.6263 8.54395 23.6379 8.57813 23.6379 8.60092Z" fill="white"/>
<path d="M23.1746 10.4918C23.0356 10.5145 22.9429 10.5373 22.8618 10.5487C22.6186 10.6057 22.5955 10.6741 22.7113 10.8791C22.885 11.164 23.0124 11.4602 23.0124 11.802C23.0124 11.8704 23.0008 11.9387 22.9661 12.0869C22.8503 11.9615 22.7808 11.8932 22.7229 11.8248C22.4333 11.3805 22.1554 10.9361 21.8543 10.5032C21.7384 10.3209 21.75 10.2639 21.9701 10.2525C22.3754 10.2069 22.7576 10.2411 23.1746 10.4918Z" fill="white"/>
</svg>
