<svg width="24" height="24" viewBox="0 0 24 24" fill="none" xmlns="http://www.w3.org/2000/svg">
<path d="M4.08 11.6199C4.12759 11.4972 4.19896 11.385 4.29 11.2899L8.29 7.28994C8.38324 7.1967 8.49393 7.12274 8.61575 7.07228C8.73757 7.02182 8.86814 6.99585 9 6.99585C9.2663 6.99585 9.5217 7.10164 9.71 7.28994C9.8983 7.47825 10.0041 7.73364 10.0041 7.99994C10.0041 8.26624 9.8983 8.52164 9.71 8.70994L7.41 10.9999H19C19.2652 10.9999 19.5196 11.1053 19.7071 11.2928C19.8946 11.4804 20 11.7347 20 11.9999C20 12.2652 19.8946 12.5195 19.7071 12.707C19.5196 12.8946 19.2652 12.9999 19 12.9999H7.41L9.71 15.2899C9.80373 15.3829 9.87812 15.4935 9.92889 15.6154C9.97966 15.7372 10.0058 15.8679 10.0058 15.9999C10.0058 16.132 9.97966 16.2627 9.92889 16.3845C9.87812 16.5064 9.80373 16.617 9.71 16.7099C9.61704 16.8037 9.50644 16.8781 9.38458 16.9288C9.26272 16.9796 9.13201 17.0057 9 17.0057C8.86799 17.0057 8.73728 16.9796 8.61542 16.9288C8.49356 16.8781 8.38296 16.8037 8.29 16.7099L4.29 12.7099C4.19896 12.6148 4.12759 12.5027 4.08 12.3799C3.97998 12.1365 3.97998 11.8634 4.08 11.6199Z" fill="#0400B8"/>
</svg>
