<svg width="18" height="18" viewBox="0 0 18 18" fill="none" xmlns="http://www.w3.org/2000/svg">
<path d="M9.99442 9.00003L17.7941 1.20035C18.0687 0.925741 18.0687 0.480523 17.7941 0.205954C17.5195 -0.0686161 17.0742 -0.0686512 16.7997 0.205954L8.99999 8.00563L1.20035 0.205954C0.925741 -0.0686512 0.480523 -0.0686512 0.205954 0.205954C-0.0686161 0.480559 -0.0686512 0.925777 0.205954 1.20035L8.0056 8.99999L0.205954 16.7997C-0.0686512 17.0743 -0.0686512 17.5195 0.205954 17.7941C0.343239 17.9314 0.523203 18 0.703167 18C0.883132 18 1.06306 17.9314 1.20038 17.7941L8.99999 9.99442L16.7996 17.7941C16.9369 17.9314 17.1169 18 17.2968 18C17.4768 18 17.6567 17.9314 17.7941 17.7941C18.0687 17.5195 18.0687 17.0742 17.7941 16.7997L9.99442 9.00003Z" fill="#83839E"/>
</svg>
