<svg width="117" height="66" viewBox="0 0 117 66" fill="none" xmlns="http://www.w3.org/2000/svg">
<g clip-path="url(#clip0)">
<path d="M99.175 59.1141C99.5389 59.1147 99.8881 58.9703 100.146 58.7125L116.599 42.2128C117.134 41.6759 117.134 40.8055 116.599 40.2685L100.146 23.7688C99.6011 23.2413 98.7331 23.2564 98.207 23.8026C97.6938 24.3354 97.6938 25.1802 98.207 25.7129L113.689 41.2394L98.207 56.7657C97.6708 57.3019 97.6698 58.1725 98.2045 58.7102C98.4617 58.9687 98.8108 59.1141 99.175 59.1141Z" fill="#0600FF"/>
<path d="M55.2094 42.6143H115.628C116.385 42.6143 116.999 41.9987 116.999 41.2393C116.999 40.4799 116.385 39.8643 115.628 39.8643H55.2094C37.8013 39.8446 23.6943 25.6973 23.6747 8.23981C23.6747 7.48044 23.0608 6.86479 22.3036 6.86479C21.5464 6.86479 20.9325 7.48044 20.9325 8.23981C20.9537 27.2155 36.2877 42.5932 55.2094 42.6143Z" fill="#0600FF"/>
</g>
<defs>
<clipPath id="clip0">
<rect width="117" height="66" fill="white" transform="matrix(-1 0 0 1 117 0)"/>
</clipPath>
</defs>
</svg>
