<svg width="189" height="28" viewBox="0 0 189 28" fill="none" xmlns="http://www.w3.org/2000/svg">
<path d="M0.970304 27.6111C0.711556 27.6111 0.478683 27.5204 0.271685 27.3389C0.0905619 27.1315 0 26.8981 0 26.6389V1.36111C0 1.07593 0.0905619 0.842593 0.271685 0.661112C0.478683 0.47963 0.711556 0.388889 0.970304 0.388889H5.16202C5.78301 0.388889 6.23582 0.674074 6.52044 1.24444L13.3514 13.4944L20.1823 1.24444C20.4669 0.674074 20.9197 0.388889 21.5407 0.388889H25.6936C25.9783 0.388889 26.2111 0.47963 26.3923 0.661112C26.5993 0.842593 26.7028 1.07593 26.7028 1.36111V26.6389C26.7028 26.9241 26.5993 27.1574 26.3923 27.3389C26.2111 27.5204 25.9783 27.6111 25.6936 27.6111H21.075C20.7904 27.6111 20.5446 27.5204 20.3376 27.3389C20.1564 27.1574 20.0659 26.9241 20.0659 26.6389V12.0556L15.7189 20.1833C15.3826 20.7796 14.9297 21.0778 14.3605 21.0778H12.3423C12.0059 21.0778 11.7342 21 11.5272 20.8444C11.3202 20.6889 11.1391 20.4685 10.9838 20.1833L6.59807 12.0556V26.6389C6.59807 26.8981 6.5075 27.1315 6.32638 27.3389C6.14526 27.5204 5.91238 27.6111 5.62776 27.6111H0.970304Z" fill="#0400B8"/>
<path d="M40.874 27.6111C40.6153 27.6111 40.3824 27.5204 40.1754 27.3389C39.9943 27.1315 39.9037 26.8981 39.9037 26.6389V18.2778L30.8993 1.63333C30.8217 1.4 30.7829 1.25741 30.7829 1.20556C30.7829 0.998148 30.8605 0.816667 31.0158 0.661112C31.1969 0.47963 31.4039 0.388889 31.6368 0.388889H36.4883C37.0058 0.388889 37.4586 0.661111 37.8467 1.20556L43.3968 11.2389L48.9858 1.20556C49.2963 0.661111 49.7491 0.388889 50.3442 0.388889H55.1957C55.4286 0.388889 55.6227 0.47963 55.7779 0.661112C55.9332 0.816667 56.0108 0.998148 56.0108 1.20556C56.0108 1.33519 55.9849 1.47778 55.9332 1.63333L46.9287 18.2778V26.6389C46.9287 26.9241 46.8252 27.1574 46.6182 27.3389C46.4371 27.5204 46.2042 27.6111 45.9196 27.6111H40.874Z" fill="#0400B8"/>
<path d="M61.0821 27.6111C60.8234 27.6111 60.5905 27.5204 60.3835 27.3389C60.2024 27.1315 60.1118 26.8981 60.1118 26.6389V1.36111C60.1118 1.07593 60.2024 0.842593 60.3835 0.661112C60.5905 0.47963 60.8234 0.388889 61.0821 0.388889H78.9357C79.2204 0.388889 79.4532 0.47963 79.6343 0.661112C79.8155 0.842593 79.906 1.07593 79.906 1.36111V5.28889C79.906 5.54815 79.8155 5.78148 79.6343 5.98889C79.4532 6.17037 79.2204 6.26111 78.9357 6.26111H66.9428V11.9778H78.1595C78.4441 11.9778 78.677 12.0815 78.8581 12.2889C79.0392 12.4704 79.1298 12.7037 79.1298 12.9889V16.8778C79.1298 17.137 79.0392 17.3704 78.8581 17.5778C78.677 17.7593 78.4441 17.85 78.1595 17.85H66.9428V26.6389C66.9428 26.9241 66.8522 27.1574 66.6711 27.3389C66.49 27.5204 66.2571 27.6111 65.9725 27.6111H61.0821Z" fill="#0400B8"/>
<path d="M95.7911 28C92.1428 28 89.2707 27.1056 87.1748 25.3167C85.079 23.5278 83.9664 20.8963 83.837 17.4222C83.8111 16.6704 83.7982 15.5556 83.7982 14.0778C83.7982 12.5741 83.8111 11.4463 83.837 10.6944C83.9664 7.27222 85.0919 4.64074 87.2136 2.8C89.3612 0.933334 92.2204 0 95.7911 0C99.3618 0 102.221 0.933334 104.369 2.8C106.516 4.64074 107.642 7.27222 107.745 10.6944C107.797 12.1981 107.823 13.3259 107.823 14.0778C107.823 14.8037 107.797 15.9185 107.745 17.4222C107.616 20.8963 106.503 23.5278 104.407 25.3167C102.312 27.1056 99.4395 28 95.7911 28ZM95.7911 22.4C97.2142 22.4 98.3398 21.9722 99.1678 21.1167C100.022 20.2611 100.474 18.9519 100.526 17.1889C100.578 15.6852 100.604 14.6222 100.604 14C100.604 13.3259 100.578 12.263 100.526 10.8111C100.474 9.04815 100.022 7.73889 99.1678 6.88333C98.3139 6.02778 97.1884 5.6 95.7911 5.6C94.3939 5.6 93.2683 6.02778 92.4145 6.88333C91.5865 7.73889 91.1337 9.04815 91.056 10.8111C91.0302 11.537 91.0172 12.6 91.0172 14C91.0172 15.3741 91.0302 16.437 91.056 17.1889C91.1337 18.9519 91.5865 20.2611 92.4145 21.1167C93.2424 21.9722 94.368 22.4 95.7911 22.4Z" fill="#0400B8"/>
<path d="M114.068 27.6111C113.81 27.6111 113.577 27.5204 113.37 27.3389C113.189 27.1315 113.098 26.8981 113.098 26.6389V1.36111C113.098 1.07593 113.189 0.842593 113.37 0.661112C113.577 0.47963 113.81 0.388889 114.068 0.388889H124.625C128.015 0.388889 130.654 1.16667 132.543 2.72222C134.458 4.25185 135.415 6.42963 135.415 9.25556C135.415 11.0704 134.988 12.613 134.134 13.8833C133.28 15.1537 132.103 16.1259 130.602 16.8L135.92 26.3667C135.997 26.5222 136.036 26.6648 136.036 26.7944C136.036 27.0019 135.945 27.1963 135.764 27.3778C135.609 27.5333 135.428 27.6111 135.221 27.6111H130.059C129.309 27.6111 128.778 27.2611 128.468 26.5611L124.043 18.0056H120.084V26.6389C120.084 26.9241 119.981 27.1574 119.774 27.3389C119.593 27.5204 119.36 27.6111 119.075 27.6111H114.068ZM124.548 12.4833C125.738 12.4833 126.643 12.1981 127.264 11.6278C127.885 11.0315 128.196 10.2148 128.196 9.17778C128.196 8.14074 127.885 7.32408 127.264 6.72778C126.669 6.10556 125.764 5.79444 124.548 5.79444H120.084V12.4833H124.548Z" fill="#0400B8"/>
<path d="M151.735 28C148.034 28 145.137 27.1056 143.041 25.3167C140.971 23.5019 139.871 20.8833 139.742 17.4611C139.716 16.7611 139.703 15.6204 139.703 14.0389C139.703 12.4315 139.716 11.2648 139.742 10.5389C139.871 7.16852 140.997 4.57593 143.118 2.76111C145.24 0.92037 148.112 0 151.735 0C154.012 0 156.056 0.388889 157.867 1.16667C159.678 1.91852 161.101 3.00741 162.136 4.43333C163.197 5.83333 163.74 7.47963 163.766 9.37222V9.45C163.766 9.65741 163.676 9.83889 163.495 9.99445C163.339 10.1241 163.158 10.1889 162.951 10.1889H157.712C157.375 10.1889 157.117 10.1241 156.935 9.99445C156.754 9.83889 156.599 9.56667 156.47 9.17778C156.107 7.85556 155.538 6.93519 154.762 6.41667C153.986 5.87222 152.964 5.6 151.696 5.6C148.643 5.6 147.064 7.31111 146.961 10.7333C146.935 11.4333 146.922 12.5093 146.922 13.9611C146.922 15.413 146.935 16.5148 146.961 17.2667C147.064 20.6889 148.643 22.4 151.696 22.4C152.964 22.4 153.999 22.1278 154.801 21.5833C155.603 21.013 156.159 20.0926 156.47 18.8222C156.573 18.4333 156.715 18.1741 156.897 18.0444C157.078 17.8889 157.349 17.8111 157.712 17.8111H162.951C163.184 17.8111 163.378 17.8889 163.533 18.0444C163.715 18.2 163.792 18.3944 163.766 18.6278C163.74 20.5204 163.197 22.1796 162.136 23.6056C161.101 25.0056 159.678 26.0944 157.867 26.8722C156.056 27.6241 154.012 28 151.735 28Z" fill="#0400B8"/>
<path d="M169.594 27.6111C169.335 27.6111 169.102 27.5204 168.895 27.3389C168.714 27.1315 168.624 26.8981 168.624 26.6389V1.36111C168.624 1.07593 168.714 0.842593 168.895 0.661112C169.102 0.47963 169.335 0.388889 169.594 0.388889H187.719C188.004 0.388889 188.237 0.47963 188.418 0.661112C188.599 0.842593 188.689 1.07593 188.689 1.36111V5.01667C188.689 5.27593 188.599 5.50926 188.418 5.71667C188.237 5.89815 188.004 5.98889 187.719 5.98889H175.338V11.2389H186.865C187.15 11.2389 187.383 11.3426 187.564 11.55C187.745 11.7315 187.836 11.9648 187.836 12.25V15.6333C187.836 15.8926 187.745 16.1259 187.564 16.3333C187.383 16.5148 187.15 16.6056 186.865 16.6056H175.338V22.0111H188.03C188.314 22.0111 188.547 22.1019 188.728 22.2833C188.909 22.4648 189 22.6982 189 22.9833V26.6389C189 26.8981 188.909 27.1315 188.728 27.3389C188.547 27.5204 188.314 27.6111 188.03 27.6111H169.594Z" fill="#0400B8"/>
</svg>
