<svg width="49" height="48" viewBox="0 0 49 48" fill="none" xmlns="http://www.w3.org/2000/svg">
<g clip-path="url(#clip0)">
<path d="M24.4999 8.34778C20.4721 8.34778 17.1956 11.6243 17.1956 15.6522C17.1956 19.68 20.472 22.9565 24.4999 22.9565C28.5278 22.9565 31.8043 19.6799 31.8043 15.6522C31.8043 11.6244 28.5278 8.34778 24.4999 8.34778ZM24.4999 20.8695C21.6241 20.8695 19.2826 18.5279 19.2826 15.6522C19.2826 12.7764 21.6241 10.4348 24.4999 10.4348C27.3757 10.4348 29.7173 12.7764 29.7173 15.6522C29.7173 18.5279 27.3758 20.8695 24.4999 20.8695Z" fill="#0066FF"/>
<path d="M39.1087 16.6957C36.233 16.6957 33.8914 19.0372 33.8914 21.913C33.8914 24.7888 36.233 27.1304 39.1087 27.1304C41.9845 27.1304 44.3261 24.7888 44.3261 21.913C44.3261 19.0372 41.9845 16.6957 39.1087 16.6957ZM39.1087 25.0435C37.3828 25.0435 35.9783 23.639 35.9783 21.913C35.9783 20.1871 37.3828 18.7826 39.1087 18.7826C40.8347 18.7826 42.2392 20.1871 42.2392 21.913C42.2392 23.639 40.8346 25.0435 39.1087 25.0435Z" fill="#0066FF"/>
<path d="M10.0395 16.6957C7.16157 16.6957 4.82216 19.0372 4.82216 21.913C4.82216 24.7888 7.16372 27.1304 10.0395 27.1304C12.9153 27.1304 15.2569 24.7888 15.2569 21.913C15.2569 19.0372 12.9174 16.6957 10.0395 16.6957ZM10.0395 25.0435C8.31357 25.0435 6.90908 23.639 6.90908 21.913C6.90908 20.1871 8.31357 18.7826 10.0395 18.7826C11.7655 18.7826 13.1699 20.1871 13.1699 21.913C13.1699 23.639 11.7654 25.0435 10.0395 25.0435Z" fill="#0066FF"/>
<path d="M24.4999 25.0435C17.0202 25.0435 10.9347 31.129 10.9347 38.6087C10.9347 39.1847 11.4022 39.6522 11.9782 39.6522C12.5542 39.6522 13.0217 39.1847 13.0217 38.6087C13.0217 32.279 18.1702 27.1305 24.4999 27.1305C30.8297 27.1305 35.9781 32.279 35.9781 38.6087C35.9781 39.1847 36.4457 39.6522 37.0217 39.6522C37.5977 39.6522 38.0652 39.1847 38.0652 38.6087C38.0652 31.129 31.9796 25.0435 24.4999 25.0435Z" fill="#0066FF"/>
<path d="M39.1087 29.2174C37.3912 29.2174 35.7091 29.687 34.244 30.574C33.7536 30.8745 33.5949 31.5151 33.8934 32.0077C34.196 32.5003 34.8346 32.6568 35.3271 32.3583C36.4645 31.6675 37.7709 31.3043 39.1087 31.3043C43.1365 31.3043 46.4131 34.5808 46.4131 38.6087C46.4131 39.1847 46.8806 39.6522 47.4566 39.6522C48.0326 39.6522 48.5001 39.1847 48.5001 38.6087C48.5 33.431 44.2864 29.2174 39.1087 29.2174Z" fill="#0066FF"/>
<path d="M14.7539 30.5718C13.291 29.687 11.6089 29.2174 9.8913 29.2174C4.71356 29.2174 0.5 33.431 0.5 38.6087C0.5 39.1847 0.967511 39.6522 1.54351 39.6522C2.11951 39.6522 2.58702 39.1847 2.58702 38.6087C2.58692 34.5808 5.86351 31.3043 9.8913 31.3043C11.2291 31.3043 12.5354 31.6675 13.6708 32.3562C14.1612 32.6546 14.804 32.4981 15.1045 32.0055C15.4051 31.513 15.2464 30.8723 14.7539 30.5718Z" fill="#0066FF"/>
</g>
<defs>
<clipPath id="clip0">
<rect width="48" height="48" fill="white" transform="translate(0.5)"/>
</clipPath>
</defs>
</svg>
