<svg width="117" height="66" viewBox="0 0 117 66" fill="none" xmlns="http://www.w3.org/2000/svg">
<g clip-path="url(#clip0)">
<path d="M17.825 59.1141C17.4611 59.1147 17.1119 58.9703 16.8543 58.7125L0.401424 42.2128C-0.133808 41.6759 -0.133808 40.8055 0.401424 40.2685L16.8543 23.7688C17.3989 23.2413 18.2669 23.2564 18.793 23.8026C19.3062 24.3354 19.3062 25.1802 18.793 25.7129L3.31088 41.2394L18.793 56.7657C19.3292 57.3019 19.3302 58.1725 18.7955 58.7102C18.5383 58.9687 18.1892 59.1141 17.825 59.1141Z" fill="#0600FF"/>
<path d="M61.7906 42.6143H1.37217C0.614951 42.6143 0.00105286 41.9987 0.00105286 41.2393C0.00105286 40.4799 0.614951 39.8643 1.37217 39.8643H61.7906C79.1987 39.8446 93.3057 25.6973 93.3253 8.23981C93.3253 7.48044 93.9392 6.86479 94.6964 6.86479C95.4536 6.86479 96.0675 7.48044 96.0675 8.23981C96.0463 27.2155 80.7123 42.5932 61.7906 42.6143Z" fill="#0600FF"/>
</g>
<defs>
<clipPath id="clip0">
<rect width="117" height="66" fill="white"/>
</clipPath>
</defs>
</svg>
