<svg width="49" height="48" viewBox="0 0 49 48" fill="none" xmlns="http://www.w3.org/2000/svg">
<path d="M17.2505 30.5C16.8365 30.5 16.5005 30.164 16.5005 29.75V12.5C16.5005 10.8455 17.846 9.5 19.5005 9.5C21.155 9.5 22.5005 10.8455 22.5005 12.5V28.25C22.5005 28.664 22.1645 29 21.7505 29C21.3365 29 21.0005 28.664 21.0005 28.25V12.5C21.0005 11.672 20.3285 11 19.5005 11C18.6725 11 18.0005 11.672 18.0005 12.5V29.75C18.0005 30.164 17.6645 30.5 17.2505 30.5Z" fill="#0066FF"/>
<path d="M26.2505 29C25.8365 29 25.5005 28.664 25.5005 28.25V21.5C25.5005 20.672 24.8285 20 24.0005 20C23.1725 20 22.5005 20.672 22.5005 21.5C22.5005 21.914 22.1645 22.25 21.7505 22.25C21.3365 22.25 21.0005 21.914 21.0005 21.5C21.0005 19.8455 22.346 18.5 24.0005 18.5C25.655 18.5 27.0005 19.8455 27.0005 21.5V28.25C27.0005 28.664 26.6645 29 26.2505 29Z" fill="#0066FF"/>
<path d="M30.75 29C30.336 29 30 28.664 30 28.25V23C30 22.172 29.328 21.5 28.5 21.5C27.672 21.5 27 22.172 27 23C27 23.414 26.664 23.75 26.25 23.75C25.836 23.75 25.5 23.414 25.5 23C25.5 21.3455 26.8455 20 28.5 20C30.1545 20 31.5 21.3455 31.5 23V28.25C31.5 28.664 31.164 29 30.75 29Z" fill="#0066FF"/>
<path d="M29.2505 41H20.57C18.0455 41 15.4415 39.9005 13.601 38.0585C11.57 36.026 10.4975 33.1265 10.502 29.6765C10.5035 26.8235 12.89 24.5 15.8195 24.5H17.2505C17.6645 24.5 18.0005 24.836 18.0005 25.25C18.0005 25.664 17.6645 26 17.2505 26H15.8195C13.7165 26 12.0035 27.6515 12.002 29.678C11.999 32.765 12.8945 35.2265 14.6615 36.998C16.505 38.843 18.9215 39.5 20.57 39.5H29.2505C32.1455 39.5 34.5005 37.145 34.5005 34.25V24.5C34.5005 23.672 33.8285 23 33.0005 23C32.1725 23 31.5005 23.672 31.5005 24.5C31.5005 24.914 31.1645 25.25 30.7505 25.25C30.3365 25.25 30.0005 24.914 30.0005 24.5C30.0005 22.8455 31.346 21.5 33.0005 21.5C34.655 21.5 36.0005 22.8455 36.0005 24.5V34.25C36.0005 37.9715 32.972 41 29.2505 41Z" fill="#0066FF"/>
<path d="M24.7505 17.48C24.584 17.48 24.4145 17.4245 24.2765 17.3105C23.9555 17.048 23.909 16.577 24.1715 16.256C25.04 15.191 25.5005 13.892 25.5005 12.5C25.5005 9.191 22.8095 6.5 19.5005 6.5C16.1915 6.5 13.5005 9.191 13.5005 12.5C13.5005 13.892 13.961 15.191 14.831 16.256C15.0935 16.577 15.047 17.048 14.726 17.3105C14.4065 17.5745 13.934 17.5265 13.6715 17.2055C12.578 15.869 12.0005 14.2415 12.0005 12.5C12.0005 8.3645 15.365 5 19.5005 5C23.636 5 27.0005 8.3645 27.0005 12.5C27.0005 14.2415 26.423 15.869 25.331 17.2055C25.1825 17.387 24.968 17.48 24.7505 17.48Z" fill="#0066FF"/>
</svg>
