<svg xmlns="http://www.w3.org/2000/svg" width="357" height="326" fill="none"><g clip-path="url(#a)"><g fill="#5761D7" opacity=".2"><path d="m87.492 168.278-5.107-3.075 5.106-3.177 5.107 3.177-5.106 3.075Z"/><path d="m97.802 174.632-5.204-3.177 5.204-3.177 5.107 3.177-5.107 3.177Z" opacity=".1"/><path d="m108.015 180.883-5.106-3.074 5.106-3.177 5.107 3.177-5.107 3.074Z" opacity=".4"/><path d="m118.229 187.237-5.107-3.177 5.107-3.177 5.203 3.177-5.203 3.177Z"/><path d="m128.539 193.489-5.107-3.177 5.107-3.075 5.107 3.075-5.107 3.177Z" opacity=".4"/><path d="m138.753 199.843-5.107-3.177 5.107-3.177 5.107 3.177-5.107 3.177ZM149.063 206.094l-5.203-3.177 5.203-3.074 5.107 3.074-5.107 3.177ZM159.277 212.448l-5.107-3.177 5.107-3.177 5.107 3.177-5.107 3.177Z"/><path d="m169.587 218.7-5.203-3.177 5.203-3.075 5.107 3.075-5.107 3.177Z" opacity=".1"/><path d="m77.181 174.632-5.106-3.177 5.106-3.075 5.107 3.075-5.107 3.177ZM87.491 180.986l-5.203-3.177 5.203-3.177 5.107 3.177-5.107 3.177ZM97.705 187.237l-5.107-3.177 5.107-3.074 5.107 3.074-5.107 3.177ZM108.015 193.489l-5.203-3.075 5.203-3.177 5.107 3.177-5.107 3.075ZM118.229 199.843l-5.107-3.177 5.107-3.177 5.107 3.177-5.107 3.177ZM128.443 206.094l-5.107-3.074 5.107-3.177 5.203 3.177-5.203 3.074ZM138.753 212.448l-5.107-3.177 5.107-3.177 5.107 3.177-5.107 3.177ZM148.967 218.7l-5.107-3.177 5.107-3.075 5.107 3.075-5.107 3.177ZM159.277 225.054l-5.203-3.177 5.203-3.177 5.107 3.177-5.107 3.177ZM66.871 180.986l-5.107-3.177 5.107-3.177 5.204 3.177-5.204 3.177ZM77.181 187.237l-5.106-3.177 5.106-3.074 5.107 3.074-5.107 3.177ZM87.395 193.591l-5.107-3.177 5.107-3.177 5.107 3.177-5.107 3.177Z"/><path d="m97.705 199.843-5.203-3.177 5.203-3.075 5.107 3.075-5.107 3.177Z" opacity=".1"/><path d="m107.919 206.197-5.107-3.177 5.107-3.177 5.107 3.177-5.107 3.177ZM118.229 212.448l-5.203-3.177 5.203-3.074 5.107 3.074-5.107 3.177Z" opacity=".4"/><path d="m128.443 218.7-5.107-3.075 5.107-3.177 5.107 3.177-5.107 3.075ZM138.657 225.054l-5.107-3.177 5.107-3.177 5.203 3.177-5.203 3.177ZM148.967 231.305l-5.107-3.074 5.107-3.177 5.107 3.177-5.107 3.074Z"/><path d="m56.657 187.237-5.203-3.074 5.203-3.177 5.107 3.177-5.107 3.074ZM66.871 193.591l-5.107-3.177 5.107-3.177 5.107 3.177-5.107 3.177Z" opacity=".4"/><path d="m77.085 199.843-5.107-3.075 5.107-3.177 5.203 3.177-5.203 3.075Z" opacity=".1"/><path d="m87.395 206.197-5.107-3.177 5.107-3.177 5.107 3.177-5.107 3.177ZM97.609 212.448l-5.107-3.074 5.107-3.177 5.107 3.177-5.107 3.074ZM107.919 218.802l-5.203-3.177 5.203-3.177 5.107 3.177-5.107 3.177Z"/><path d="m118.133 225.054-5.107-3.177 5.107-3.075 5.107 3.075-5.107 3.177Z" opacity=".4"/><path d="m128.443 231.408-5.203-3.177 5.203-3.177 5.107 3.177-5.107 3.177ZM138.657 237.659l-5.107-3.177 5.107-3.074 5.107 3.074-5.107 3.177ZM46.347 193.591l-5.203-3.177 5.203-3.074 5.107 3.074-5.107 3.177ZM56.561 199.945l-5.107-3.177 5.107-3.177 5.107 3.177-5.107 3.177ZM66.871 206.197l-5.203-3.177 5.203-3.075 5.107 3.075-5.107 3.177ZM77.085 212.551l-5.107-3.177 5.107-3.177 5.107 3.177-5.107 3.177ZM87.299 218.802l-5.107-3.177 5.107-3.074 5.203 3.074-5.203 3.177ZM97.609 225.054l-5.107-3.075 5.107-3.177 5.107 3.177-5.107 3.075ZM107.823 231.408l-5.107-3.177 5.107-3.177 5.107 3.177-5.107 3.177ZM118.133 237.659l-5.203-3.074 5.203-3.177 5.107 3.177-5.107 3.074ZM128.347 244.013l-5.107-3.177 5.107-3.177 5.106 3.177-5.106 3.177ZM36.037 199.945l-5.107-3.177 5.107-3.177 5.107 3.177-5.107 3.177ZM46.251 206.197l-5.107-3.075 5.107-3.177 5.107 3.177-5.107 3.075Z"/><path d="m56.561 212.551-5.203-3.177 5.203-3.177 5.107 3.177-5.107 3.177Z" opacity=".4"/><path d="m66.775 218.802-5.107-3.177 5.107-3.074 5.107 3.074-5.107 3.177Z"/><path d="m77.085 225.156-5.203-3.177 5.203-3.177 5.107 3.177-5.107 3.177Z" opacity=".1"/><path d="m87.299 231.408-5.107-3.177 5.107-3.075 5.107 3.075-5.107 3.177ZM97.513 237.762l-5.107-3.177 5.106-3.177 5.204 3.177-5.203 3.177ZM107.823 244.013l-5.107-3.177 5.107-3.074 5.107 3.074-5.107 3.177ZM118.036 250.265l-5.106-3.075 5.106-3.177 5.107 3.177-5.107 3.075ZM25.727 206.299l-5.107-3.177 5.107-3.177 5.107 3.177-5.107 3.177ZM35.94 212.551l-5.106-3.177 5.107-3.075 5.203 3.075-5.203 3.177Z"/><path d="m46.251 218.802-5.107-3.074 5.107-3.177 5.107 3.177-5.107 3.074Z" opacity=".4"/><path d="m56.465 225.156-5.107-3.177 5.107-3.177 5.107 3.177-5.107 3.177ZM66.775 231.408l-5.203-3.075 5.203-3.177 5.107 3.177-5.107 3.075Z"/><path d="m76.989 237.762-5.107-3.177 5.107-3.177 5.106 3.177-5.106 3.177Z" opacity=".1"/><path d="m87.299 244.013-5.204-3.074 5.204-3.177 5.107 3.177-5.107 3.074Z" opacity=".4"/><path d="m97.513 250.367-5.107-3.177 5.106-3.177 5.107 3.177-5.106 3.177Z"/><path d="m107.726 256.619-5.107-3.177 5.107-3.075 5.204 3.075-5.204 3.177Z" opacity=".1"/><path d="m15.417 212.551-5.107-3.075 5.107-3.177 5.107 3.177-5.107 3.075Z"/><path d="m25.727 218.905-5.203-3.177 5.203-3.177 5.107 3.177-5.107 3.177Z" opacity=".4"/><path d="m35.94 225.156-5.106-3.177 5.107-3.074 5.107 3.074-5.107 3.177ZM46.155 231.51l-5.107-3.177 5.107-3.177 5.203 3.177-5.203 3.177ZM56.465 237.762l-5.107-3.177 5.107-3.075 5.107 3.075-5.107 3.177ZM66.678 244.013l-5.106-3.074 5.106-3.177 5.107 3.177-5.106 3.074ZM76.989 250.367l-5.204-3.177 5.204-3.177 5.106 3.177-5.106 3.177Z"/><path d="m87.202 256.619-5.106-3.075 5.106-3.177 5.107 3.177-5.107 3.075Z" opacity=".4"/><path d="m97.513 262.973-5.204-3.177 5.204-3.177 5.106 3.177-5.106 3.177ZM5.107 218.905 0 215.728l5.107-3.177 5.107 3.177-5.107 3.177Z"/><path d="m15.417 225.156-5.203-3.074 5.203-3.177 5.107 3.177-5.107 3.074Z" opacity=".1"/><path d="m25.63 231.51-5.106-3.177 5.107-3.177 5.107 3.177-5.107 3.177ZM35.94 237.762l-5.202-3.075 5.203-3.177 5.107 3.177-5.107 3.075ZM46.155 244.116l-5.107-3.177 5.107-3.177 5.107 3.177-5.107 3.177ZM56.368 250.367l-5.107-3.177 5.107-3.074 5.204 3.074-5.204 3.177Z"/><path d="m66.678 256.721-5.106-3.177 5.106-3.177 5.107 3.177-5.106 3.177Z" opacity=".4"/><path d="m76.892 262.973-5.107-3.177 5.107-3.075L82 259.796l-5.107 3.177ZM87.202 269.327 82 266.15l5.203-3.177 5.107 3.177-5.107 3.177ZM269.798 168.278l-5.107-3.075 5.107-3.177 5.106 3.177-5.106 3.075Z"/><path d="m280.108 174.632-5.204-3.177 5.204-3.177 5.107 3.177-5.107 3.177Z" opacity=".1"/><path d="m290.321 180.883-5.106-3.074 5.106-3.177 5.107 3.177-5.107 3.074Z" opacity=".4"/><path d="m300.535 187.237-5.107-3.177 5.107-3.177 5.203 3.177-5.203 3.177Z"/><path d="m310.845 193.489-5.107-3.177 5.107-3.075 5.107 3.075-5.107 3.177Z" opacity=".4"/><path d="m321.059 199.843-5.107-3.177 5.107-3.177 5.107 3.177-5.107 3.177ZM331.369 206.094l-5.107-3.177 5.107-3.074 5.107 3.074-5.107 3.177ZM341.583 212.448l-5.107-3.177 5.107-3.177 5.107 3.177-5.107 3.177Z"/><path d="m351.893 218.7-5.203-3.177 5.203-3.075 5.107 3.075-5.107 3.177Z" opacity=".1"/><path d="m259.487 174.632-5.106-3.177 5.106-3.075 5.107 3.075-5.107 3.177ZM269.798 180.986l-5.204-3.177 5.204-3.177 5.106 3.177-5.106 3.177ZM280.011 187.237l-5.107-3.177 5.107-3.074 5.107 3.074-5.107 3.177ZM290.321 193.489l-5.203-3.075 5.203-3.177 5.107 3.177-5.107 3.075ZM300.535 199.843l-5.107-3.177 5.107-3.177 5.107 3.177-5.107 3.177ZM310.749 206.094l-5.107-3.074 5.107-3.177 5.203 3.177-5.203 3.074ZM321.059 212.448l-5.107-3.177 5.107-3.177 5.107 3.177-5.107 3.177ZM331.273 218.7l-5.107-3.177 5.107-3.075 5.107 3.075-5.107 3.177ZM341.583 225.054l-5.107-3.177 5.107-3.177 5.107 3.177-5.107 3.177ZM249.177 180.986l-5.107-3.177 5.107-3.177 5.204 3.177-5.204 3.177ZM259.487 187.237l-5.106-3.177 5.106-3.074 5.107 3.074-5.107 3.177ZM269.701 193.591l-5.107-3.177 5.107-3.177 5.107 3.177-5.107 3.177Z"/><path d="m280.011 199.843-5.203-3.177 5.203-3.075 5.107 3.075-5.107 3.177Z" opacity=".1"/><path d="m290.225 206.197-5.107-3.177 5.107-3.177 5.107 3.177-5.107 3.177ZM300.535 212.448l-5.203-3.177 5.203-3.074 5.107 3.074-5.107 3.177Z" opacity=".4"/><path d="m310.749 218.7-5.107-3.075 5.107-3.177 5.107 3.177-5.107 3.075ZM320.963 225.054l-5.107-3.177 5.107-3.177 5.203 3.177-5.203 3.177ZM331.273 231.305l-5.107-3.074 5.107-3.177 5.107 3.177-5.107 3.074Z"/><path d="m238.964 187.237-5.204-3.074 5.204-3.177 5.106 3.177-5.106 3.074ZM249.177 193.591l-5.107-3.177 5.107-3.177 5.107 3.177-5.107 3.177Z" opacity=".4"/><path d="m259.391 199.843-5.107-3.075 5.107-3.177 5.203 3.177-5.203 3.075Z" opacity=".1"/><path d="m269.701 206.197-5.107-3.177 5.107-3.177 5.107 3.177-5.107 3.177ZM279.915 212.448l-5.107-3.074 5.107-3.177 5.107 3.177-5.107 3.074ZM290.225 218.802l-5.203-3.177 5.203-3.177 5.107 3.177-5.107 3.177Z"/><path d="m300.439 225.054-5.107-3.177 5.107-3.075 5.107 3.075-5.107 3.177Z" opacity=".4"/><path d="m310.749 231.408-5.203-3.177 5.203-3.177 5.107 3.177-5.107 3.177ZM320.963 237.659l-5.107-3.177 5.107-3.074 5.107 3.074-5.107 3.177ZM228.653 193.591l-5.203-3.177 5.203-3.074 5.107 3.074-5.107 3.177ZM238.867 199.945l-5.107-3.177 5.107-3.177 5.107 3.177-5.107 3.177ZM249.177 206.197l-5.203-3.177 5.203-3.075 5.107 3.075-5.107 3.177ZM259.391 212.551l-5.107-3.177 5.107-3.177 5.107 3.177-5.107 3.177ZM269.605 218.802l-5.107-3.177 5.107-3.074 5.203 3.074-5.203 3.177ZM279.915 225.054l-5.107-3.075 5.107-3.177 5.107 3.177-5.107 3.075ZM290.129 231.408l-5.107-3.177 5.107-3.177 5.107 3.177-5.107 3.177ZM300.439 237.659l-5.203-3.074 5.203-3.177 5.107 3.177-5.107 3.074ZM310.653 244.013l-5.107-3.177 5.107-3.177 5.107 3.177-5.107 3.177ZM218.343 199.945l-5.107-3.177 5.107-3.177 5.107 3.177-5.107 3.177ZM228.557 206.197l-5.107-3.075 5.107-3.177 5.107 3.177-5.107 3.075Z"/><path d="m238.867 212.551-5.203-3.177 5.203-3.177 5.107 3.177-5.107 3.177Z" opacity=".4"/><path d="m249.081 218.802-5.107-3.177 5.107-3.074 5.107 3.074-5.107 3.177Z"/><path d="m259.391 225.156-5.203-3.177 5.203-3.177 5.107 3.177-5.107 3.177Z" opacity=".1"/><path d="m269.605 231.408-5.107-3.177 5.107-3.075 5.107 3.075-5.107 3.177ZM279.819 237.762l-5.107-3.177 5.107-3.177 5.203 3.177-5.203 3.177ZM290.129 244.013l-5.107-3.177 5.107-3.074 5.107 3.074-5.107 3.177ZM300.343 250.265l-5.107-3.075 5.107-3.177 5.106 3.177-5.106 3.075ZM208.033 206.299l-5.107-3.177 5.107-3.177 5.107 3.177-5.107 3.177ZM218.247 212.551l-5.107-3.177 5.107-3.075 5.203 3.075-5.203 3.177Z"/><path d="m228.557 218.802-5.107-3.074 5.107-3.177 5.107 3.177-5.107 3.074Z" opacity=".4"/><path d="m238.771 225.156-5.107-3.177 5.107-3.177 5.107 3.177-5.107 3.177ZM249.081 231.408l-5.203-3.075 5.203-3.177 5.107 3.177-5.107 3.075Z"/><path d="m259.295 237.762-5.107-3.177 5.107-3.177 5.107 3.177-5.107 3.177Z" opacity=".1"/><path d="m269.605 244.013-5.203-3.074 5.203-3.177 5.107 3.177-5.107 3.074Z" opacity=".4"/><path d="m279.819 250.367-5.107-3.177 5.107-3.177 5.107 3.177-5.107 3.177Z"/><path d="m290.032 256.619-5.106-3.177 5.106-3.075 5.204 3.075-5.204 3.177Z" opacity=".1"/><path d="m197.723 212.551-5.107-3.075 5.107-3.177 5.107 3.177-5.107 3.075Z"/><path d="m208.033 218.905-5.203-3.177 5.203-3.177 5.107 3.177-5.107 3.177Z" opacity=".4"/><path d="m218.247 225.156-5.107-3.177 5.107-3.074 5.107 3.074-5.107 3.177ZM228.461 231.51l-5.107-3.177 5.107-3.177 5.203 3.177-5.203 3.177ZM238.771 237.762l-5.107-3.177 5.107-3.075 5.107 3.075-5.107 3.177ZM248.985 244.013l-5.107-3.074 5.107-3.177 5.107 3.177-5.107 3.074ZM259.295 250.367l-5.204-3.177 5.204-3.177 5.107 3.177-5.107 3.177Z"/><path d="m269.509 256.619-5.107-3.075 5.107-3.177 5.106 3.177-5.106 3.075Z" opacity=".4"/><path d="m279.819 262.973-5.204-3.177 5.204-3.177 5.107 3.177-5.107 3.177ZM187.413 218.905l-5.107-3.177 5.107-3.177 5.107 3.177-5.107 3.177Z"/><path d="m197.723 225.156-5.203-3.074 5.203-3.177 5.107 3.177-5.107 3.074Z" opacity=".1"/><path d="m207.937 231.51-5.107-3.177 5.107-3.177 5.107 3.177-5.107 3.177ZM218.247 237.762l-5.203-3.075 5.203-3.177 5.107 3.177-5.107 3.075ZM228.461 244.116l-5.107-3.177 5.107-3.177 5.107 3.177-5.107 3.177ZM238.674 250.367l-5.106-3.177 5.106-3.074 5.204 3.074-5.204 3.177Z"/><path d="m248.985 256.721-5.107-3.177 5.107-3.177 5.107 3.177-5.107 3.177Z" opacity=".4"/><path d="m259.198 262.973-5.107-3.177 5.107-3.075 5.107 3.075-5.107 3.177ZM269.508 269.327l-5.203-3.177 5.203-3.177 5.107 3.177-5.107 3.177ZM178.837 111.399l-5.107-3.074 5.107-3.177 5.203 3.177-5.203 3.074Z"/><path d="m189.147 117.753-5.107-3.177 5.107-3.177 5.107 3.177-5.107 3.177Z" opacity=".1"/><path d="m199.361 124.005-5.107-3.075 5.107-3.177 5.203 3.177-5.203 3.075Z" opacity=".4"/><path d="m209.671 130.359-5.107-3.177 5.107-3.177 5.107 3.177-5.107 3.177Z"/><path d="m219.885 136.61-5.107-3.177 5.107-3.074 5.107 3.074-5.107 3.177Z" opacity=".4"/><path d="m230.195 142.964-5.203-3.177 5.203-3.177 5.107 3.177-5.107 3.177ZM240.409 149.216l-5.107-3.177 5.107-3.075 5.107 3.075-5.107 3.177ZM250.623 155.467l-5.107-3.074 5.107-3.177 5.203 3.177-5.203 3.074Z"/><path d="m260.933 161.821-5.107-3.177 5.107-3.177 5.107 3.177-5.107 3.177Z" opacity=".1"/><path d="m168.623 117.753-5.203-3.177 5.203-3.074 5.107 3.074-5.107 3.177ZM178.837 124.005l-5.107-3.075 5.107-3.177 5.107 3.177-5.107 3.075ZM189.051 130.359l-5.107-3.177 5.107-3.177 5.203 3.177-5.203 3.177ZM199.361 136.61l-5.107-3.074 5.107-3.177 5.107 3.177-5.107 3.074ZM209.575 142.964l-5.107-3.177 5.107-3.177 5.203 3.177-5.203 3.177ZM219.885 149.216l-5.107-3.075 5.107-3.177 5.107 3.177-5.107 3.075ZM230.099 155.57l-5.107-3.177 5.107-3.177 5.107 3.177-5.107 3.177ZM240.409 161.821l-5.203-3.177 5.203-3.074 5.107 3.074-5.107 3.177ZM250.623 168.175l-5.107-3.177 5.107-3.177 5.107 3.177-5.107 3.177ZM158.313 124.107l-5.107-3.177 5.107-3.177 5.107 3.177-5.107 3.177ZM168.527 130.359l-5.107-3.177 5.107-3.075 5.107 3.075-5.107 3.177ZM178.837 136.713l-5.203-3.177 5.203-3.177 5.107 3.177-5.107 3.177Z"/><path d="m189.051 142.964-5.107-3.177 5.107-3.074 5.107 3.074-5.107 3.177Z" opacity=".1"/><path d="m199.265 149.318-5.107-3.177 5.107-3.177 5.203 3.177-5.203 3.177ZM209.575 155.57l-5.107-3.177 5.107-3.075 5.107 3.075-5.107 3.177Z" opacity=".4"/><path d="m219.789 161.821-5.107-3.074 5.107-3.177 5.203 3.177-5.203 3.074ZM230.099 168.175l-5.107-3.177 5.107-3.177 5.107 3.177-5.107 3.177ZM240.313 174.427l-5.107-3.075 5.107-3.177 5.106 3.177-5.106 3.075Z"/><path d="m148.003 130.359-5.107-3.075 5.107-3.177 5.107 3.177-5.107 3.075ZM158.217 136.713l-5.107-3.177 5.107-3.177 5.203 3.177-5.203 3.177Z" opacity=".4"/><path d="m168.527 142.964-5.107-3.074 5.107-3.177 5.107 3.177-5.107 3.074Z" opacity=".1"/><path d="m178.741 149.318-5.107-3.177 5.107-3.177 5.107 3.177-5.107 3.177ZM189.051 155.57l-5.203-3.075 5.203-3.177 5.107 3.177-5.107 3.075ZM199.265 161.924l-5.107-3.177 5.107-3.177 5.107 3.177-5.107 3.177Z"/><path d="m209.479 168.175-5.107-3.177 5.107-3.074 5.203 3.074-5.203 3.177Z" opacity=".4"/><path d="m219.789 174.529-5.107-3.177 5.107-3.177 5.107 3.177-5.107 3.177ZM230.002 180.781l-5.106-3.177 5.106-3.075 5.204 3.075-5.204 3.177ZM137.693 136.713l-5.107-3.177 5.107-3.075 5.107 3.075-5.107 3.177ZM147.907 143.067l-5.107-3.177 5.107-3.177 5.203 3.177-5.203 3.177ZM158.217 149.318l-5.107-3.177 5.107-3.074 5.107 3.074-5.107 3.177ZM168.431 155.57l-5.107-3.075 5.107-3.177 5.203 3.177-5.203 3.075ZM178.741 161.924l-5.107-3.177 5.107-3.177 5.107 3.177-5.107 3.177ZM188.955 168.175l-5.107-3.074 5.107-3.177 5.107 3.177-5.107 3.074ZM199.265 174.529l-5.203-3.177 5.203-3.177 5.107 3.177-5.107 3.177ZM209.479 180.781l-5.107-3.075 5.107-3.177 5.106 3.177-5.106 3.075ZM219.692 187.135l-5.107-3.177 5.107-3.177 5.204 3.177-5.204 3.177ZM127.383 143.067l-5.107-3.177 5.107-3.177 5.107 3.177-5.107 3.177ZM137.693 149.318l-5.203-3.074 5.203-3.177 5.107 3.177-5.107 3.074Z"/><path d="m147.907 155.672-5.107-3.177 5.107-3.177 5.107 3.177-5.107 3.177Z" opacity=".4"/><path d="m158.121 161.924-5.107-3.177 5.107-3.075 5.203 3.075-5.203 3.177Z"/><path d="m168.431 168.278-5.107-3.177 5.107-3.177 5.107 3.177-5.107 3.177Z" opacity=".1"/><path d="m178.645 174.529-5.107-3.177 5.107-3.074 5.203 3.074-5.203 3.177ZM188.955 180.883l-5.107-3.177 5.107-3.177 5.107 3.177-5.107 3.177ZM199.168 187.135l-5.106-3.177 5.106-3.075 5.107 3.075-5.107 3.177ZM209.479 193.386l-5.204-3.074 5.204-3.177 5.106 3.177-5.106 3.074ZM117.073 149.421l-5.107-3.177 5.107-3.177 5.107 3.177-5.107 3.177ZM127.383 155.672l-5.203-3.177 5.203-3.074 5.107 3.074-5.107 3.177Z"/><path d="m137.597 161.924-5.107-3.075 5.107-3.177 5.107 3.177-5.107 3.075Z" opacity=".4"/><path d="m147.907 168.278-5.203-3.177 5.203-3.177 5.107 3.177-5.107 3.177ZM158.121 174.529l-5.107-3.074 5.107-3.177 5.107 3.177-5.107 3.074Z"/><path d="m168.334 180.883-5.106-3.177 5.106-3.177 5.204 3.177-5.204 3.177Z" opacity=".1"/><path d="m178.645 187.135-5.107-3.177 5.107-3.075 5.106 3.075-5.106 3.177Z" opacity=".4"/><path d="m188.858 193.489-5.107-3.177 5.107-3.177 5.204 3.177-5.204 3.177Z"/><path d="m199.168 199.74-5.106-3.177 5.106-3.074 5.107 3.074-5.107 3.177Z" opacity=".1"/><path d="m106.763 155.672-5.107-3.074 5.107-3.177 5.203 3.177-5.203 3.074Z"/><path d="m117.073 162.026-5.107-3.177 5.107-3.177 5.107 3.177-5.107 3.177Z" opacity=".4"/><path d="m127.287 168.278-5.107-3.177 5.107-3.075 5.107 3.075-5.107 3.177ZM137.597 174.632l-5.203-3.177 5.203-3.177 5.107 3.177-5.107 3.177ZM147.811 180.883l-5.107-3.177 5.107-3.074 5.106 3.074-5.106 3.177ZM158.121 187.135l-5.204-3.075 5.204-3.177 5.107 3.177-5.107 3.075ZM168.334 193.489l-5.106-3.177 5.106-3.177 5.107 3.177-5.107 3.177Z"/><path d="m178.548 199.74-5.107-3.074 5.107-3.177 5.203 3.177-5.203 3.074Z" opacity=".4"/><path d="m188.858 206.094-5.107-3.177 5.107-3.177 5.107 3.177-5.107 3.177ZM96.549 162.026l-5.203-3.177 5.203-3.177 5.107 3.177-5.107 3.177Z"/><path d="m106.763 168.278-5.107-3.075 5.107-3.177 5.107 3.177-5.107 3.075Z" opacity=".1"/><path d="m116.977 174.632-5.107-3.177 5.107-3.177 5.203 3.177-5.203 3.177ZM127.287 180.883l-5.107-3.074 5.107-3.177 5.107 3.177-5.107 3.074ZM137.5 187.237l-5.106-3.177 5.106-3.177 5.107 3.177-5.107 3.177ZM147.811 193.489l-5.204-3.177 5.204-3.075 5.106 3.075-5.106 3.177Z"/><path d="m158.024 199.843-5.107-3.177 5.107-3.177 5.107 3.177-5.107 3.177Z" opacity=".4"/><path d="m168.334 206.094-5.203-3.177 5.203-3.074 5.107 3.074-5.107 3.177ZM178.548 212.448l-5.107-3.177 5.107-3.177 5.107 3.177-5.107 3.177ZM178.837 224.951l-5.107-3.074 5.107-3.177 5.203 3.177-5.203 3.074Z"/><path d="m189.147 231.305-5.107-3.177 5.107-3.177 5.107 3.177-5.107 3.177Z" opacity=".1"/><path d="m199.361 237.557-5.107-3.075 5.107-3.177 5.203 3.177-5.203 3.075Z" opacity=".4"/><path d="m209.671 243.911-5.107-3.177 5.107-3.177 5.107 3.177-5.107 3.177Z"/><path d="m219.885 250.162-5.107-3.177 5.107-3.074 5.107 3.074-5.107 3.177Z" opacity=".4"/><path d="m230.195 256.516-5.203-3.177 5.203-3.177 5.107 3.177-5.107 3.177ZM240.409 262.768l-5.107-3.177 5.107-3.075 5.107 3.075-5.107 3.177ZM250.623 269.122l-5.107-3.177 5.107-3.177 5.203 3.177-5.203 3.177Z"/><path d="m260.933 275.373-5.107-3.177 5.107-3.074 5.107 3.074-5.107 3.177Z" opacity=".1"/><path d="m168.623 231.305-5.203-3.177 5.203-3.074 5.107 3.074-5.107 3.177ZM178.837 237.659l-5.107-3.177 5.107-3.177 5.107 3.177-5.107 3.177ZM189.051 243.911l-5.107-3.177 5.107-3.075 5.203 3.075-5.203 3.177ZM199.361 250.162l-5.107-3.074 5.107-3.177 5.107 3.177-5.107 3.074ZM209.575 256.516l-5.107-3.177 5.107-3.177 5.203 3.177-5.203 3.177ZM219.885 262.768l-5.107-3.075 5.107-3.177 5.107 3.177-5.107 3.075ZM230.099 269.122l-5.107-3.177 5.107-3.177 5.107 3.177-5.107 3.177ZM240.409 275.373l-5.203-3.074 5.203-3.177 5.107 3.177-5.107 3.074ZM250.623 281.727l-5.107-3.177 5.107-3.177 5.107 3.177-5.107 3.177ZM158.313 237.659l-5.107-3.177 5.107-3.177 5.107 3.177-5.107 3.177ZM168.527 243.911l-5.107-3.075 5.107-3.177 5.107 3.177-5.107 3.075ZM178.837 250.265l-5.203-3.177 5.203-3.177 5.107 3.177-5.107 3.177Z"/><path d="m189.051 256.516-5.107-3.177 5.107-3.074 5.107 3.074-5.107 3.177Z" opacity=".1"/><path d="m199.265 262.87-5.107-3.177 5.107-3.177 5.203 3.177-5.203 3.177ZM209.575 269.122l-5.107-3.177 5.107-3.075 5.107 3.075-5.107 3.177Z" opacity=".4"/><path d="m219.789 275.373-5.107-3.074 5.107-3.177 5.203 3.177-5.203 3.074ZM230.099 281.727l-5.107-3.177 5.107-3.177 5.107 3.177-5.107 3.177ZM240.313 287.979l-5.107-3.075 5.107-3.177 5.106 3.177-5.106 3.075Z"/><path d="m148.003 243.911-5.107-3.075 5.107-3.177 5.107 3.177-5.107 3.075ZM158.217 250.265l-5.107-3.177 5.107-3.177 5.203 3.177-5.203 3.177Z" opacity=".4"/><path d="m168.527 256.516-5.107-3.074 5.107-3.177 5.107 3.177-5.107 3.074Z" opacity=".1"/><path d="m178.741 262.87-5.107-3.177 5.107-3.177 5.107 3.177-5.107 3.177ZM189.051 269.122l-5.203-3.075 5.203-3.177 5.107 3.177-5.107 3.075ZM199.265 275.476l-5.107-3.177 5.107-3.177 5.107 3.177-5.107 3.177Z"/><path d="m209.479 281.727-5.107-3.177 5.107-3.074 5.203 3.074-5.203 3.177Z" opacity=".4"/><path d="m219.789 288.081-5.107-3.177 5.107-3.177 5.107 3.177-5.107 3.177ZM230.002 294.333l-5.106-3.177 5.106-3.075 5.204 3.075-5.204 3.177ZM137.693 250.265l-5.107-3.177 5.107-3.075 5.107 3.075-5.107 3.177ZM147.907 256.619l-5.107-3.177 5.107-3.177 5.203 3.177-5.203 3.177ZM158.217 262.87l-5.107-3.177 5.107-3.074 5.107 3.074-5.107 3.177ZM168.431 269.224l-5.107-3.177 5.107-3.177 5.203 3.177-5.203 3.177ZM178.741 275.476l-5.107-3.177 5.107-3.075 5.107 3.075-5.107 3.177ZM188.955 281.727l-5.107-3.074 5.107-3.177 5.107 3.177-5.107 3.074ZM199.265 288.081l-5.203-3.177 5.203-3.177 5.107 3.177-5.107 3.177ZM209.479 294.333l-5.107-3.075 5.107-3.177 5.106 3.177-5.106 3.075ZM219.692 300.686l-5.107-3.177 5.107-3.176 5.204 3.176-5.204 3.177ZM127.383 256.619l-5.107-3.177 5.107-3.177 5.107 3.177-5.107 3.177ZM137.693 262.87l-5.203-3.074 5.203-3.177 5.107 3.177-5.107 3.074Z"/><path d="m147.907 269.224-5.107-3.177 5.107-3.177 5.107 3.177-5.107 3.177Z" opacity=".4"/><path d="m158.121 275.476-5.107-3.075 5.107-3.177 5.203 3.177-5.203 3.075Z"/><path d="m168.431 281.83-5.107-3.177 5.107-3.177 5.107 3.177-5.107 3.177Z" opacity=".1"/><path d="m178.645 288.081-5.107-3.177 5.107-3.074 5.203 3.074-5.203 3.177ZM188.955 294.435l-5.107-3.177 5.107-3.177 5.107 3.177-5.107 3.177ZM199.168 300.687l-5.106-3.177 5.106-3.075 5.107 3.075-5.107 3.177ZM209.479 306.938l-5.204-3.074 5.204-3.177 5.106 3.177-5.106 3.074ZM117.073 262.973l-5.107-3.177 5.107-3.177 5.107 3.177-5.107 3.177ZM127.383 269.224l-5.203-3.177 5.203-3.074 5.107 3.074-5.107 3.177Z"/><path d="m137.597 275.476-5.107-3.075 5.107-3.177 5.107 3.177-5.107 3.075Z" opacity=".4"/><path d="m147.907 281.83-5.203-3.177 5.203-3.177 5.107 3.177-5.107 3.177ZM158.121 288.081l-5.107-3.074 5.107-3.177 5.107 3.177-5.107 3.074Z"/><path d="m168.334 294.435-5.106-3.177 5.106-3.177 5.204 3.177-5.204 3.177Z" opacity=".1"/><path d="m178.645 300.687-5.107-3.075 5.107-3.177 5.106 3.177-5.106 3.075Z" opacity=".4"/><path d="m188.858 307.041-5.107-3.177 5.107-3.177 5.204 3.177-5.204 3.177Z"/><path d="m199.168 313.292-5.106-3.177 5.106-3.074 5.107 3.074-5.107 3.177Z" opacity=".1"/><path d="m106.763 269.224-5.107-3.074 5.107-3.177 5.203 3.177-5.203 3.074Z"/><path d="m117.073 275.578-5.107-3.177 5.107-3.177 5.107 3.177-5.107 3.177Z" opacity=".4"/><path d="m127.287 281.83-5.107-3.177 5.107-3.075 5.107 3.075-5.107 3.177ZM137.597 288.184l-5.203-3.177 5.203-3.177 5.107 3.177-5.107 3.177ZM147.811 294.435l-5.107-3.177 5.107-3.074 5.106 3.074-5.106 3.177ZM158.121 300.789l-5.204-3.177 5.204-3.177 5.107 3.177-5.107 3.177ZM168.334 307.041l-5.106-3.177 5.106-3.075 5.107 3.075-5.107 3.177Z"/><path d="m178.548 313.292-5.107-3.074 5.107-3.177 5.203 3.177-5.203 3.074Z" opacity=".4"/><path d="m188.858 319.646-5.107-3.177 5.107-3.177 5.107 3.177-5.107 3.177ZM96.549 275.578l-5.203-3.177 5.203-3.074 5.107 3.074-5.107 3.177Z"/><path d="m106.763 281.83-5.107-3.075 5.107-3.177 5.107 3.177-5.107 3.075Z" opacity=".1"/><path d="m116.977 288.184-5.107-3.177 5.107-3.177 5.203 3.177-5.203 3.177ZM127.287 294.435l-5.107-3.074 5.107-3.177 5.107 3.177-5.107 3.074ZM137.5 300.789l-5.106-3.177 5.106-3.177 5.107 3.177-5.107 3.177ZM147.811 307.041l-5.204-3.177 5.204-3.075 5.106 3.075-5.106 3.177Z"/><path d="m158.024 313.394-5.107-3.176 5.107-3.177 5.107 3.177-5.107 3.176Z" opacity=".4"/><path d="m168.334 319.646-5.203-3.177 5.203-3.074 5.107 3.074-5.107 3.177ZM178.548 326l-5.107-3.177 5.107-3.177 5.107 3.177-5.107 3.177Z"/></g><path fill="#0B0244" d="m256.79 166.023-195.7 46.22 48.371 29.721 11.852 47.757 26.498-24.186 33.724 20.702 75.255-120.214Z" opacity=".4"/><path fill="#24126A" d="M117.169 246.575 307.666 72.661 133.742 199.843l-16.573 46.732Z"/><path fill="url(#b)" d="M307.666 72.66 100.5 179.449l-68.028-41.813 275.194-64.974Z"/><path fill="url(#c)" d="M307.666 72.66 133.742 199.844l68.028 41.813L307.666 72.661Z"/><path fill="url(#d)" d="M133.742 199.843 307.666 72.661 100.5 179.448l16.669 67.127 16.573-46.732Z"/><path fill="#fff" d="M97.513 177.604 307.666 72.661 100.5 179.448l-2.987-1.844ZM133.742 199.843 307.666 72.661 136.44 201.482l-2.698-1.639Z"/><path fill="#FCD1C5" d="M169.009 146.859s-.771 2.357-.675 2.869c.097.513 1.542 2.767 1.638 2.87.097.102 1.349 1.845 2.795 2.665 1.445.819 1.542 1.229 1.638 1.229.096 0 .385-.102.385-.102s.193-1.64-.385-2.357c-.675-.82.289-1.947.289-1.947l-1.638-4.51-4.047-.717Z"/><path fill="#160A5B" d="M184.522 196.666s-2.505.615-5.01.717c-2.409.103-9.154 1.435-9.058 3.997.097 2.562 3.565 6.252 7.901 6.764 4.336.513 9.925-.717 12.816-.615 2.794.103 4.818-2.869 3.758-5.739-.964-2.767-10.407-5.124-10.407-5.124ZM199.361 189.902s.867 1.537.386 2.459c-.482.923-1.735 3.28-5.685 1.025-3.951-2.254-11.563-5.534-11.563-5.534s-4.336-2.459-4.047-5.329c.289-2.87 4.336-2.357 4.336-2.357l16.573 9.736Z"/><path fill="#FCD1C5" d="M155.615 87.52s-2.601 0-3.758-.512c-1.156-.512-4.432-1.742-4.625-1.844-.192-.103-2.023-.205-2.89-.82 0 0-.964.512-.193 1.332.771.82 2.12 1.025 2.12 1.025l1.349.82-2.891 1.537c-.193.102-2.505 1.947-2.698 2.05-.193.102-1.252.922-.867 1.64 0 0 0 .204.578.307 0 0-1.445.717-1.06 1.435.386.717 1.253.41 1.253.41s.385 1.332 2.023.307c0 0 .193 1.64 4.047-.102 0 0 1.542-.41 2.698-.308 1.156.103 4.24-.717 5.878-1.947 1.542-1.23-.964-5.33-.964-5.33Z"/><path fill="#E2B1A6" d="M150.605 94.797c1.156.103 4.24-.717 5.878-1.947 1.06-.82.289-2.972-.289-4.202-.771-.41-1.446-.717-1.446-.717s.097 3.996 0 4.611c-.096.615-3.469 1.333-5.685 1.64-2.216.308-5.107 1.23-5.107 1.23.193.41.867 1.127 3.951-.205.096 0 1.638-.41 2.698-.41Z"/><path fill="#4846A5" d="M185.679 79.732s-5.396 1.025-7.227 1.64c-1.735.615-17.248 3.894-22.933 5.329-.385.102-.674.41-.674.82a1.84 1.84 0 0 0 0 1.025c.192.717.674 7.48 3.854 6.353.963-.307 3.758-.922 5.974-1.23 2.216-.307 11.659-1.127 11.659-1.127l15.995-9.736-6.648-3.074Z"/><path fill="#24126A" d="M174.116 149.011s1.445 18.754 4.914 25.826c3.565 7.174 4.336 20.189 5.107 22.649.771 2.459 2.987 6.046 6.745 6.866 3.661.717 4.336-1.845 4.239-3.382-.192-1.537-1.156-4.099-1.156-5.739 0-1.64.386-2.46.482-3.279 0 0 4.24 1.332 5.01-2.05 0 0-.289-1.025-.385-1.537 0-.513.675-12.913.771-14.348.096-1.537-.482-9.634-1.542-13.733-1.06-3.997-.482-12.503-.482-12.503l-12.237-1.947-11.466 3.177Z"/><path fill="#160A5B" d="M193.965 149.113s-.096 2.972-1.349 5.432c0 0-.193 9.941-1.252 14.962 0 0 1.349 10.044 2.312 13.221.964 3.177.675 9.326.675 9.326s.481.205 1.156.205c.674 0 .963-12.196 0-14.348-1.06-2.152-1.638-11.785-1.156-14.655.481-2.87.481-11.273 1.06-12.81.578-1.435-.579-2.255-.579-2.255l-.867.922ZM184.811 79.937s-3.661 2.767-3.565 7.481l2.698-.615s-.674-5.329.867-6.866Z"/><path fill="#160A5B" d="M184.908 153.11c8.19.308 12.622-3.382 12.622-3.382 0-1.229.097-1.947.097-1.947l-12.238-1.947-11.273 3.177s.289 3.689.867 8.506c2.023.205 4.047-4.817 4.047-4.817l5.589.41s-7.805-.307.289 0Z"/><path fill="#453C9E" d="M175.658 149.318s17.633 7.687 26.497-6.456c.29-.41.386-.922.386-1.435v-3.382c0-.41.096-.82.193-1.23a4.961 4.961 0 0 0 .192-2.664c-.578-3.792-2.12-14.04-2.505-16.807-.482-3.485 1.638-17.423 4.722-23.47 3.083-5.943-4.144-19.676-4.144-19.676s-1.831-3.177-5.492-2.152c0 0 3.469 2.664 1.445 5.329-1.927 2.665-7.708 4.817-7.708 4.817s-10.696 5.636-14.357 12.605c0 0-1.253 3.587-1.446 8.199-.192 4.612.193 15.68-.096 17.217-.193 1.537-.964 11.991-.867 12.503 0 .41 3.18 16.602 3.18 16.602Z"/><path fill="#24126A" d="M181.053 150.958s10.985-29.413 10.696-40.276c-.289-10.658-15.706 21.112-15.706 21.112l-.385 17.524s3.372 1.333 5.395 1.64Z"/><path fill="#4846A5" d="M175.85 115.909c.386-2.46.675-4.919.771-7.379.096-4.304 1.349-11.376 8.672-10.043 10.31 1.947 5.589 17.114 4.433 19.677-1.157 2.664-5.878 14.552-6.167 15.27-.193.615-7.612 15.372-10.214 18.959-.193.308-.675.41-.964.103-1.06-.923-3.276-3.075-3.565-4.51-.385-1.742 1.253-8.198 1.253-8.198s4.24-16.09 4.625-16.808c.289-.512.482-3.177 1.156-7.071Z"/><path fill="#FCD1C5" d="M185.004 80.245s-.771-2.05-2.698-2.255c-1.927-.205-2.987-.82-3.18-1.537-.192-.718-.192-1.64-.578-2.767-.482-1.128-.771-3.895-.771-3.997 0-.103-1.445-.513-1.541-1.23-.097-.717.77-3.075.674-3.28-.096-.204-.867-1.742-.674-2.869.096-1.127.289-2.87.867-4.304.578-1.435 4.818-10.044 15.417-5.33 10.599 4.715 2.312 14.143 3.276 20.292 0 0 .964 1.332-.867 3.485-1.927 2.254-6.938 2.562-9.925 3.792Z"/><path fill="#E2B1A6" d="M194.832 76.453c1.831-2.152.868-3.485.868-3.485a9.061 9.061 0 0 1 .096-2.767l-4.24.82s-6.07-5.944-5.685-2.767c.386 3.177-1.156 3.69-1.156 3.69l1.253 1.742c.289.41.096.922-.193 1.434-1.831 3.177-6.071 2.153-6.071 2.153.482.41 1.446.615 2.602.82 1.927.204 2.698 2.254 2.698 2.254 2.987-1.332 7.998-1.64 9.828-3.894Z"/><path fill="#AA8383" d="M176.621 54.726s-.771 2.357.385 3.28a66.796 66.796 0 0 0 2.313 1.947l-.096 2.972c0 .41.096.82.289 1.23l1.445 2.46c.289.512.386 1.024.386 1.639v1.23c0 .307.192.615.578.717l.385.103c.386 0 .675-.205.675-.615l.192-1.64s.771-1.332 2.506.307l1.541.718a2.4 2.4 0 0 1 .964 1.025c.385 1.332 1.349 3.792 2.023 4.201.964.615 4.625-1.332 5.107-2.254.482-.922 1.831-6.764 2.698-9.634.771-2.767.482-9.736-7.323-11.683-7.805-2.05-12.912 1.435-14.068 3.997Z"/><path fill="#936D6D" d="M195.411 71.944c.481-.923 1.83-6.764 2.698-9.634 0 0-3.084 2.152-7.035 2.665-3.95.615-11.755-4.305-11.755-4.305v2.153c0 .41.096.82.289 1.23l1.445 2.459c.29.512.386 1.025.386 1.64v1.23c0 .307.193.614.578.717l.385.102c.386 0 .675-.205.675-.614l.193-1.64s.77-1.333 2.505.307l2.216 1.025s1.253 4.407 2.216 5.022c1.06.512 4.722-1.435 5.204-2.357Z"/><path fill="#F0F6FF" d="M195.603 72.251s2.987 2.05 1.446 4.817c-1.638 2.87-12.719 7.686-13.298 8.403 0 0-.385-4.202 1.157-5.636 0 0 8.479-1.64 9.924-3.895 1.253-2.152.771-3.689.771-3.689Z"/><path fill="#C4CCD6" d="M195.603 72.251s.482 1.537-.867 3.792c-1.06 1.742-6.167 3.074-8.576 3.587 0 0 .868.512 2.313 3.28 3.469-1.845 7.612-4.1 8.576-5.842 1.541-2.767-1.446-4.817-1.446-4.817Z"/><path fill="#24126A" d="M189.918 101.049c2.698 9.223-4.721 23.366-5.878 27.568-1.156 4.202-12.333 23.264-12.333 23.264.289.307.578.512.771.717a.709.709 0 0 0 .963-.102c2.602-3.485 9.925-18.345 10.214-18.96.289-.717 5.011-12.605 6.167-15.27.963-2.05 4.143-12.298.096-17.217ZM197.434 81.372s-5.011 2.87-7.419 4.202c-2.409 1.332-5.107 3.074-5.107 3.074l-.868-1.024-1.156 2.562s-3.854 2.357-5.588 4.304c-1.831 1.947-3.18 4.612-3.373 5.124 0 0 4.818-6.456 8.576-8.301l.963-.513.578-2.05.868 1.026c.096.102 10.984-6.662 12.526-8.404Z"/><path fill="#FCD1C5" d="M117.458 81.987s1.831.307 2.506 0c.674-.41 2.505-.615 4.528.205 2.024.82 1.927.615 2.698.717.771.102 2.12.205 2.602.512.385.308 1.253.82.482 1.948-.771 1.127-3.565.102-4.047 0-.482-.103-.964.82-.771 1.537.193.82 4.529 5.739 5.203 6.251.675.513 3.565 2.562 3.662 3.382.096.82 0 .923 0 .923s.867.82.578 1.537c-.289.717-1.638-.41-1.831-.205 0 0 .193.82-.096 1.025-.289.102-2.217-.615-2.409-.82 0 0-.193.615-1.253 0-1.06-.615-5.203-3.177-5.685-3.587-.482-.513-2.12-2.05-2.794-2.46-.675-.41-1.831-1.844-2.409-2.46-.578-.614-3.084-1.946-4.047-2.151-1.06-.41 3.083-6.354 3.083-6.354Z"/><path fill="#E2B1A6" d="M120.734 91.005c-.963-1.844-4.047-3.28-4.047-3.28.193-1.536 2.217-5.636 2.217-5.636-.675 0-1.349-.102-1.349-.102s-4.144 5.944-3.18 6.149c.964.205 3.469 1.537 4.047 2.152.578.615 1.734 2.05 2.409 2.46.674.41 2.312 2.05 2.794 2.46.482.512 4.529 2.971 5.685 3.586 1.06.615 1.253 0 1.253 0 .193.205 2.12 1.025 2.409.82.289-.103.096-1.025.096-1.025s-1.349-.82-2.698-1.332c-1.445-.308-8.672-4.51-9.636-6.252Z"/><path fill="#FCD1C5" d="M114.375 75.428s.385 2.254.289 3.997c-.193 1.844-3.565-.513-3.469-.923.096-.307 1.638-3.074 1.638-3.074h1.542Z"/><path fill="#24126A" d="M99.44 20.497s1.927-.103 4.239 3.997c2.217 3.894 6.167 17.832 8.191 23.16.192.513.289.923.385 1.436.675 4.201 3.758 23.776 3.951 26.133 0 0-2.409 1.64-3.951 2.152l-3.372-1.23-3.276-35.561-5.396-18.755-.771-1.332Z"/><path fill="#160A5B" d="M88.648 137.533s-.675 3.279-.29 3.894c.386.615 4.337 5.432 4.819 6.149.385.615 2.505 4.612 6.359 5.534 3.854.923 6.456.718 6.938-1.23.481-1.947-1.735-5.021-2.795-6.046-1.06-1.025-5.396-6.559-6.166-7.379-.771-.82-1.928-.922-1.928-.922l-5.01.922-1.927-.922ZM104.065 127.694s3.758 1.538 5.781 2.152c2.024.513 6.745 4.305 6.649 6.149-.097 1.948-2.409 3.177-4.722 2.973-2.409-.205-5.203-1.845-5.685-2.255-.482-.41-2.12-1.332-4.047-2.05-1.927-.615-5.107-.922-5.588-2.049-.482-1.128-.579-3.382-.579-3.382l8.191-1.538Z"/><path fill="#24126A" d="M95.49 127.08c0-.205.192-.513.192-.615.192-1.025 0-5.022 0-5.022l-.867 1.23s.578 4.099 1.734 10.453c.29 1.64 1.06 3.28 1.156 4.202.386 2.767-1.156 3.28-1.156 3.28-3.083 2.459-5.781 1.024-6.649.205-.963-.82-1.252-2.05-2.601-6.662-1.35-4.509-2.41-14.143-2.12-16.5.289-2.049.963-7.686.867-11.58 0-3.895-2.794-16.193-2.794-16.193l11.563-2.357 7.901-4.304 5.974.922s.771-2.664 1.542 5.74c.77 8.505-4.047 23.57-4.047 23.57-1.253 7.482-1.638 16.09-2.313 17.218-.771 1.127-3.565 3.894-6.263 1.742-.482-.41-1.06-.82-1.35-1.23l-.77-4.099Z"/><path fill="#160A5B" d="M94.815 122.57s3.758-10.966 5.588-21.624c1.735-10.453 4.818-11.888 6.071-13.835 0 0 1.927.922 2.89 1.127h.289c.868 0-4.239 6.662-5.106 8.404-.964 1.742-6.167 16.5-6.553 18.549-.385 2.05-.77 16.295-.289 17.115.386.82-1.445-.615-1.445-.615s-1.156-2.972-1.445-9.121Z"/><path fill="#160A5B" d="m104.643 83.422-2.024-.308-7.9 4.305-11.563 2.357s2.794 12.298 2.794 16.192-.675 9.531-.867 11.581c-.29 2.254.867 11.888 2.12 16.5.578 1.947.963 3.382 1.252 4.304.482 2.562 2.409 2.972 2.409 2.972s-4.529-14.86-4.143-23.571c.385-8.609 1.541-15.68 1.349-17.423 0 0 13.104-4.304 15.609-13.322.482-1.435.771-2.563.964-3.587Z"/><path fill="#453C9E" d="M81.903 22.444s-.964.82-1.156 1.64c-.193.82-1.35 3.894-1.35 3.894s-5.492 7.789-6.455 10.146c-.964 2.357-1.35 4.202-1.35 4.202l14.55 19.062s-5.106 18.652-3.661 25.518c1.445 6.867 3.276 9.429 5.589 10.146 2.312.717 14.549-4.612 15.32-11.376.867-6.764.482-7.583.482-7.583s5.685 1.64 6.071.102c.385-1.537-.675-12.708-1.06-14.245-.289-1.537-1.157-19.165-1.157-19.165s-3.469-16.192-3.661-17.012c-.193-.82-2.313-6.866-5.107-7.174-2.794-.307-6.263 4.407-6.263 4.407l-10.792-2.562Z"/><path fill="#F0F6FF" d="M82.577 21.83s-.578.409-.674 1.126c-.097.718-.578 2.05.482 3.382 1.06 1.435 9.443 8.609 12.815 14.758 3.469 6.149 7.709 13.015 7.998 14.45 0 0 1.541-9.736.192-14.245-1.349-4.51-5.781-13.528-6.745-14.245-.963-.718-6.648-1.23-6.648-1.23l-7.42-3.997Z"/><path fill="#C4CCD6" d="M91.25 31.667s-.482.82-.579 1.435c0 0-2.409-1.332-3.469-1.845l3.758 2.767s.193-1.434.386-1.64c0 0 2.12 1.743 2.409 2.46.289.82 4.24 11.273 4.24 11.273l2.023 3.587.578-.82-3.373-9.838s-1.927-3.074-1.927-3.177c0-.102-1.349-3.382-1.349-3.382l-2.698-.82Z"/><path fill="#160A5B" d="M91.25 31.667s1.252-2.46 3.66-2.357c0 0 .675 3.075.868 4.305 0 0-1.542.717-2.216.102-.578-.615-2.313-2.05-2.313-2.05Z"/><path fill="#160A5B" d="M95.393 32.897s6.167 8.096 8.286 17.832l-.481 5.022-3.276-6.15s-5.3-14.142-6.553-16.704c-1.156-2.562 2.024 0 2.024 0Z"/><path fill="#24126A" d="M85.179 65.282c-.386 1.742-.867 3.894-1.349 6.149 0 0 9.154 12.708 18.019 17.832.867-1.23 1.445-2.46 1.638-3.792.481-3.587.578-5.432.578-6.457l-10.407-8.3-8.48-5.432ZM84.504 46.732s2.602 3.792 3.373 4.202c.674.308 6.36 10.966 7.516 13.016 1.156 2.05 4.24 4.816 4.24 4.816l-2.891.308-11.37-16.295-.868-6.047Z"/><path fill="#4846A5" d="M86.142 50.115c-1.156-3.075-2.89-5.74-5.203-7.79-2.601-2.356-6.07-4.61-7.9-2.561-3.18 3.587-1.832 10.35 2.6 16.704 4.53 6.457 11.564 15.578 13.298 17.115 1.638 1.435 15.321 12.503 23.222 16.603.578.307 1.252.102 1.638-.513 1.06-1.947 3.372-5.841 4.143-7.481a.693.693 0 0 0-.193-.922c-2.89-1.948-17.247-11.786-21.487-14.86-.675-.513-1.156-1.128-1.542-1.845-1.252-2.562-4.432-8.916-7.227-12.196-.674-.82-1.06-1.435-1.349-2.254Z"/><path fill="#24126A" d="m96.742 23.878 5.01 5.432-1.252.513 1.638 1.024s4.047 10.146 3.179 21.624c0 0 2.024-9.018-2.312-21.829l-1.349-.717.867-.308-5.781-5.739Z"/><path fill="#FCD1C5" d="M82.481 20.907c.096.205.096.41.096.717 0 .513-.096 1.332-.096 1.64.096.512 3.18 6.149 9.636 6.251 0 0 .77-1.23.963-1.434 0 0 2.602-.103 3.662-1.128s.385-2.767.385-2.767l.193-2.152c0-.307.096-.512.289-.717.193-.205.578-.615.578-.82.096-.205-.096-.718-.193-1.025-.096-.205-.096-.41-.096-.615.096-.512.096-1.64-.29-3.074a2.651 2.651 0 0 1 0-1.23c.194-.718.386-1.64.386-2.05 0-.512-.867-2.05-.867-2.665 0-.614-.77-2.562-.77-2.562S91.537-2.152 83.83 1.947c-7.805 4.1-3.758 13.016-2.794 15.475 0 0 .963 2.05 1.06 2.46.289.41.192.615.385 1.025Z"/><path fill="#AA8383" d="M97.127 8.301a1.91 1.91 0 0 1-.674 1.742c-.964.923-2.795 2.357-5.3 2.665-1.734.205-2.698.307-3.18.41-.385 0-.578.307-.674.717 0 .718-.097 1.742-.193 2.46 0 .307-.096.512-.193.82l-.578 1.23c-.096.307-.481.512-.77.512h-.097c-.385 0-.674-.308-.674-.717v-.103c-.097-.922-.675-1.845-1.446-2.255-.385-.204-.867-.307-1.349-.102-1.349.615-.77 1.947-.77 1.947s-1.639-2.05-2.313-4.817c-.771-2.767-.578-7.686 2.794-10.248C85.083 0 89.42-1.025 93.177 1.742c3.083 2.255 3.757 5.022 3.95 6.56Z"/><path fill="#E2B1A6" d="M84.408 19.882c-.193-.205 0 1.64-1.734 1.742 0 .512-.097 1.332-.097 1.64.097.512 3.18 6.149 9.636 6.251 0 0 .77-1.23.964-1.435 0 0-5.878-3.074-6.938-4.406-1.156-1.538-1.735-3.587-1.83-3.792Z"/><path fill="#C4CCD6" d="M94.815 29.31s1.734.205 2.601.718c0 0 .193-.923-.192-2.05 0 0 .481.41.481 2.665 0 0-2.601-.923-2.794-.923l-.096-.41Z"/><path fill="#24126A" d="M114.471 88.033s-14.935-9.12-19.946-12.81c-5.106-3.485-19.27-18.857-22.161-24.801a29.011 29.011 0 0 0 3.276 6.046c4.528 6.457 11.563 15.578 13.297 17.115 1.638 1.435 15.321 12.503 23.222 16.603.578.307 1.252.102 1.638-.513.192-.41.482-.82.771-1.332-.097-.205-.097-.308-.097-.308ZM80.168 28.49l6.842 10.351 1.734-.615.097 1.947s8.19 6.457 14.26 19.882c0 0-8.094-13.835-14.55-18.447l-.578-1.947-1.349.307-6.456-11.478Z"/><path fill="#936D6D" d="M79.494 14.143c-.096 0-.096 0-.193-.103a16.03 16.03 0 0 0 1.927 3.587s-.578-1.332.771-1.947c.482-.205.964-.103 1.35.102.77.41 1.348 1.23 1.445 2.255v.103c0 .41.289.614.674.717h.096c.29 0 .579-.205.771-.512l.578-1.23c.097-.308.193-.513.193-.82.097-.718.193-1.742.193-2.46.096-.102-4.529 1.537-7.805.308Z"/></g><defs><linearGradient id="b" x1="-71.342" x2="187.947" y1="7.613" y2="106.192" gradientUnits="userSpaceOnUse"><stop stop-color="#C0BFF6"/><stop offset=".294" stop-color="#C5C4F7"/><stop offset=".64" stop-color="#D3D2F9"/><stop offset="1" stop-color="#E9E9FD"/></linearGradient><linearGradient id="c" x1="289.595" x2="211.538" y1="301.572" y2="136.061" gradientUnits="userSpaceOnUse"><stop stop-color="#C0BFF6"/><stop offset=".294" stop-color="#C5C4F7"/><stop offset=".64" stop-color="#D3D2F9"/><stop offset="1" stop-color="#E9E9FD"/></linearGradient><linearGradient id="d" x1="163.321" x2="357.286" y1="137.371" y2="215.113" gradientUnits="userSpaceOnUse"><stop stop-color="#C0BFF6"/><stop offset=".294" stop-color="#C5C4F7"/><stop offset=".64" stop-color="#D3D2F9"/><stop offset="1" stop-color="#E9E9FD"/></linearGradient><clipPath id="a"><path fill="#fff" d="M0 0h357v326H0z"/></clipPath></defs></svg>