<svg xmlns="http://www.w3.org/2000/svg" width="68" height="68" fill="none"><path fill="url(#a)" fill-rule="evenodd" d="M55.25 6.375a6.375 6.375 0 0 0-5.812 9L38.16 24.917A6.35 6.35 0 0 0 34 23.375a6.366 6.366 0 0 0-5.16 2.631l-9.752-4.063a6.375 6.375 0 1 0-1.849 3.834l10.396 4.331a6.375 6.375 0 1 0 12.651-1.423l12.1-10.238A6.375 6.375 0 1 0 55.25 6.375Zm-2.125 6.375a2.125 2.125 0 1 1 4.25 0 2.125 2.125 0 0 1-4.25 0Zm-42.5 8.5a2.125 2.125 0 1 1 4.25 0 2.125 2.125 0 0 1-4.25 0ZM34 27.625a2.125 2.125 0 1 0 0 4.25 2.125 2.125 0 0 0 0-4.25Z" clip-rule="evenodd"/><path fill="url(#b)" fill-rule="evenodd" d="M6.375 38.25a6.375 6.375 0 0 1 12.75 0V59.5A2.125 2.125 0 0 1 17 61.625H8.5A2.125 2.125 0 0 1 6.375 59.5V38.25Zm6.375-2.125a2.125 2.125 0 0 0-2.125 2.125v19.125h4.25V38.25a2.125 2.125 0 0 0-2.125-2.125Z" clip-rule="evenodd"/><path fill="url(#c)" fill-rule="evenodd" d="M34 40.375a6.375 6.375 0 0 0-6.375 6.375V59.5c0 1.174.951 2.125 2.125 2.125h8.5a2.125 2.125 0 0 0 2.125-2.125V46.75A6.375 6.375 0 0 0 34 40.375Zm-2.125 6.375a2.125 2.125 0 0 1 4.25 0v10.625h-4.25V46.75Z" clip-rule="evenodd"/><path fill="url(#d)" fill-rule="evenodd" d="M48.875 29.75a6.375 6.375 0 0 1 12.75 0V59.5a2.125 2.125 0 0 1-2.125 2.125H51a2.125 2.125 0 0 1-2.125-2.125V29.75Zm6.375-2.125a2.125 2.125 0 0 0-2.125 2.125v27.625h4.25V29.75a2.125 2.125 0 0 0-2.125-2.125Z" clip-rule="evenodd"/><defs><linearGradient id="a" x1="44.948" x2="26.998" y1="10.385" y2="59.461" gradientUnits="userSpaceOnUse"><stop offset=".108" stop-color="#01EB6A"/><stop offset=".986" stop-color="#0093D5"/></linearGradient><linearGradient id="b" x1="44.948" x2="26.998" y1="10.385" y2="59.461" gradientUnits="userSpaceOnUse"><stop offset=".108" stop-color="#01EB6A"/><stop offset=".986" stop-color="#0093D5"/></linearGradient><linearGradient id="c" x1="44.948" x2="26.998" y1="10.385" y2="59.461" gradientUnits="userSpaceOnUse"><stop offset=".108" stop-color="#01EB6A"/><stop offset=".986" stop-color="#0093D5"/></linearGradient><linearGradient id="d" x1="44.948" x2="26.998" y1="10.385" y2="59.461" gradientUnits="userSpaceOnUse"><stop offset=".108" stop-color="#01EB6A"/><stop offset=".986" stop-color="#0093D5"/></linearGradient></defs></svg>