<svg xmlns="http://www.w3.org/2000/svg" width="68" height="68" fill="none"><path fill="url(#a)" fill-rule="evenodd" d="M34 14.876c-7.042 0-12.75 5.709-12.75 12.75 0 7.042 5.708 12.75 12.75 12.75s12.75-5.708 12.75-12.75c0-7.041-5.708-12.75-12.75-12.75Zm-8.5 12.75a8.5 8.5 0 1 1 17 0 8.5 8.5 0 0 1-17 0Z" clip-rule="evenodd"/><path fill="url(#b)" fill-rule="evenodd" d="M37.047 7.74a6.375 6.375 0 0 0-6.094 0l-.238.13a2.125 2.125 0 0 1-1.24.246l-.27-.028a6.375 6.375 0 0 0-5.63 2.332l-.17.21c-.272.336-.638.581-1.052.703l-.26.077a6.375 6.375 0 0 0-4.31 4.31l-.076.26c-.122.413-.367.78-.702 1.05l-.211.17a6.375 6.375 0 0 0-2.332 5.632l.028.269c.046.429-.04.861-.247 1.24l-.129.238a6.375 6.375 0 0 0 0 6.095l.13.238c.206.378.292.81.246 1.24l-.028.269a6.375 6.375 0 0 0 2.332 5.63l.21.17c.336.272.58.639.703 1.052l.077.26c.025.086.052.17.08.255L9.64 54.036a2.125 2.125 0 0 0 1.977 3.183l6.232-.402 2.768 5.599a2.125 2.125 0 0 0 3.745.12l8.308-14.389a6.38 6.38 0 0 0 2.666 0l8.308 14.39a2.125 2.125 0 0 0 3.745-.121l2.768-5.599 6.232.402a2.125 2.125 0 0 0 1.977-3.183l-8.229-14.252a6.36 6.36 0 0 0 .08-.251l.077-.26c.122-.414.367-.78.702-1.051l.21-.17a6.375 6.375 0 0 0 2.333-5.631l-.028-.27c-.046-.428.04-.86.246-1.24l.13-.237a6.375 6.375 0 0 0 0-6.095l-.13-.238a2.125 2.125 0 0 1-.246-1.24l.028-.27a6.375 6.375 0 0 0-2.332-5.63l-.21-.17a2.125 2.125 0 0 1-.703-1.052l-.077-.26a6.375 6.375 0 0 0-4.31-4.309l-.26-.077a2.124 2.124 0 0 1-1.05-.702l-.17-.21a6.375 6.375 0 0 0-5.631-2.333l-.27.028a2.125 2.125 0 0 1-1.24-.246l-.238-.13Zm10.198 35.535a6.374 6.374 0 0 1-1.338.568l-.26.076c-.414.122-.78.367-1.051.703l-.17.21a6.375 6.375 0 0 1-4.732 2.364l5.644 9.776 1.636-3.308a2.125 2.125 0 0 1 2.042-1.179l3.683.237-5.454-9.447Zm-31.94 9.447 5.453-9.445c.418.236.865.427 1.335.566l.26.076c.414.122.78.367 1.051.703l.17.21a6.375 6.375 0 0 0 4.736 2.364l-5.644 9.776-1.636-3.308a2.125 2.125 0 0 0-2.042-1.179l-3.683.237Zm17.68-41.249a2.125 2.125 0 0 1 2.03 0l.239.13a6.375 6.375 0 0 0 3.72.74l.269-.029a2.125 2.125 0 0 1 1.877.778l.17.21a6.375 6.375 0 0 0 3.154 2.107l.26.077a2.125 2.125 0 0 1 1.436 1.437l.077.26a6.376 6.376 0 0 0 2.107 3.153l.21.17c.561.454.854 1.16.778 1.877l-.029.27a6.375 6.375 0 0 0 .74 3.72l.13.237a2.125 2.125 0 0 1 0 2.032l-.13.238a6.375 6.375 0 0 0-.74 3.72l.029.27a2.125 2.125 0 0 1-.777 1.876l-.211.17a6.376 6.376 0 0 0-2.107 3.154l-.077.26a2.125 2.125 0 0 1-1.437 1.436l-.26.077a6.376 6.376 0 0 0-3.153 2.107l-.17.21c-.453.562-1.16.854-1.877.778l-.27-.028a6.375 6.375 0 0 0-3.72.74l-.237.13a2.125 2.125 0 0 1-2.032 0l-.238-.13a6.376 6.376 0 0 0-3.72-.74l-.27.028a2.125 2.125 0 0 1-1.876-.777l-.17-.21a6.375 6.375 0 0 0-3.154-2.108l-.26-.077a2.125 2.125 0 0 1-1.436-1.436l-.077-.26a6.375 6.375 0 0 0-2.107-3.154l-.21-.17a2.125 2.125 0 0 1-.778-1.877l.029-.27a6.375 6.375 0 0 0-.74-3.719l-.13-.238a2.125 2.125 0 0 1 0-2.032l.13-.238a6.375 6.375 0 0 0 .74-3.72l-.03-.269a2.125 2.125 0 0 1 .778-1.877l.211-.17a6.375 6.375 0 0 0 2.107-3.153l.077-.26a2.125 2.125 0 0 1 1.436-1.437l.26-.077a6.375 6.375 0 0 0 3.154-2.107l.17-.21a2.125 2.125 0 0 1 1.877-.778l.27.029a6.375 6.375 0 0 0 3.72-.74l.237-.13Z" clip-rule="evenodd"/><defs><linearGradient id="a" x1="43.77" x2="23.401" y1="11.075" y2="59.551" gradientUnits="userSpaceOnUse"><stop offset=".108" stop-color="#01EB6A"/><stop offset=".986" stop-color="#0093D5"/></linearGradient><linearGradient id="b" x1="43.77" x2="23.401" y1="11.075" y2="59.551" gradientUnits="userSpaceOnUse"><stop offset=".108" stop-color="#01EB6A"/><stop offset=".986" stop-color="#0093D5"/></linearGradient></defs></svg>