<svg xmlns="http://www.w3.org/2000/svg" width="22" height="23" fill="none"><path fill="#4135F1" d="M4.813 10.125c0-.38.307-.688.687-.688h3.438a.687.687 0 1 1 0 1.376H5.5a.687.687 0 0 1-.688-.688ZM11.688 10.813a.687.687 0 1 0 0-1.375.687.687 0 0 0 0 1.374Z"/><path fill="#4135F1" fill-rule="evenodd" d="M4.125 6.688c-1.14 0-2.063.923-2.063 2.062v5.5c0 1.14.924 2.063 2.063 2.063h8.938c1.022 0 1.87-.744 2.034-1.72l2.924 1.253a1.375 1.375 0 0 0 1.916-1.264V8.418c0-.988-1.009-1.653-1.916-1.264l-2.924 1.253a2.063 2.063 0 0 0-2.034-1.72H4.124Zm11 3.203v3.218l3.438 1.473V8.418L15.124 9.89ZM13.75 8.75a.687.687 0 0 0-.688-.688H4.126a.687.687 0 0 0-.688.688v5.5c0 .38.308.688.688.688h8.938c.38 0 .687-.308.687-.688v-5.5Z" clip-rule="evenodd"/></svg>