<svg width="64" height="64" viewBox="0 0 64 64" fill="none" xmlns="http://www.w3.org/2000/svg">
<circle cx="32" cy="32" r="32" fill="#FB593B"/>
<g clip-path="url(#clip0)">
<path d="M35.0177 22.2656L19.7626 37.5207L18.0335 44.5622C17.9367 44.9564 18.0529 45.3725 18.34 45.6596C18.628 45.9476 19.0444 46.0625 19.4374 45.966L26.4789 44.237L41.734 28.9819L35.0177 22.2656ZM20.2355 43.7641L20.83 41.343L22.6565 43.1696L20.2355 43.7641Z" fill="white"/>
<path d="M45.486 22.7479L41.2523 18.5142C40.5668 17.8286 39.4553 17.8286 38.7697 18.5142L37.084 20.1999L43.8003 26.9162L45.486 25.2305C46.1716 24.5449 46.1716 23.4334 45.486 22.7479Z" fill="white"/>
</g>
<defs>
<clipPath id="clip0">
<rect width="28" height="28" fill="white" transform="translate(18 18)"/>
</clipPath>
</defs>
</svg>
