<svg width="64" height="64" viewBox="0 0 64 64" fill="none" xmlns="http://www.w3.org/2000/svg">
<circle cx="32" cy="32" r="32" fill="#FB593B"/>
<g clip-path="url(#clip0)">
<path d="M32.8223 18C31.0126 18 29.4863 19.5263 29.4863 21.3359C29.4863 23.1456 31.0126 24.6719 32.8223 24.6719C34.6319 24.6719 36.1035 23.1456 36.1035 21.3359C36.1035 19.5263 34.6319 18 32.8223 18Z" fill="white"/>
<path d="M36.464 24.6719C35.5625 25.6715 34.2712 26.3125 32.8222 26.3125C31.3733 26.3125 30.0273 25.6715 29.1258 24.6719C28.3388 25.5446 27.8457 26.688 27.8457 27.9531V28.7734C27.8457 29.2268 28.2126 29.5937 28.666 29.5937H36.9238C37.3772 29.5937 37.7441 29.2268 37.7441 28.7734V27.9531C37.7441 26.688 37.251 25.5446 36.464 24.6719Z" fill="white"/>
<path d="M25.9264 43.1786L21.746 34.7974C21.3424 33.9881 20.3599 33.6581 19.5496 34.0595L18.457 34.6008C18.0502 34.8025 17.8847 35.297 18.0877 35.7031L23.0096 45.5468C23.212 45.9528 23.7044 46.1143 24.1079 45.9153L25.1864 45.381C25.9999 44.978 26.3315 43.991 25.9264 43.1786Z" fill="white"/>
<path d="M45.329 31.5463C44.6563 31.0541 43.7212 31.1525 43.1634 31.7596L38.6791 37.2721C38.3673 37.6002 37.7767 37.7971 37.465 37.7971H33.6423C33.1829 37.7971 32.822 37.4362 32.822 36.9768C32.822 36.5173 33.1829 36.1564 33.6423 36.1564C34.741 36.1564 35.9573 36.1564 36.9235 36.1564C37.8259 36.1564 38.5642 35.4182 38.5642 34.5158C38.5642 33.6135 37.8259 32.8752 36.9235 32.8752C33.071 32.8752 36.7458 32.8752 32.6251 32.8752C32.2163 32.8752 32.0124 32.6159 31.69 32.3337C30.4207 31.1916 28.5209 30.6413 26.5975 31.0871C25.5296 31.3347 24.8094 31.7661 24.079 32.3446L24.0547 32.3248L22.8682 33.369L27.531 42.7189H28.9118H36.9235C38.4657 42.7189 39.9423 41.9807 40.8611 40.7502L45.6735 33.8596C46.2149 33.1376 46.0673 32.0878 45.329 31.5463Z" fill="white"/>
</g>
<defs>
<clipPath id="clip0">
<rect width="28" height="28" fill="white" transform="translate(18 18)"/>
</clipPath>
</defs>
</svg>
