<svg width="64" height="64" viewBox="0 0 64 64" fill="none" xmlns="http://www.w3.org/2000/svg">
<circle cx="32" cy="32" r="32" fill="#FB593B"/>
<path d="M24.1244 25.7334C24.1244 24.0084 25.5279 22.6049 27.2531 22.6049C28.9781 22.6049 30.3818 24.0084 30.3818 25.7334V28.2548C31.2508 27.989 31.8851 27.1796 31.8851 26.2245V20.1226C31.8851 18.9521 30.9327 18 29.7623 18H24.7439C23.5734 18 22.6211 18.9521 22.6211 20.1226V26.2245C22.6211 27.1796 23.2551 27.989 24.1244 28.2548V25.7334Z" fill="white"/>
<path d="M40.1646 18H35.146C33.9756 18 33.0234 18.9521 33.0234 20.1226V26.2245C33.0234 27.3949 33.9756 28.347 35.146 28.347H40.1646C41.3351 28.347 42.2874 27.3949 42.2874 26.2245V20.1226C42.2874 18.9521 41.3351 18 40.1646 18Z" fill="white"/>
<path d="M36.2772 31.1876C35.4464 31.1876 34.7733 31.861 34.7733 32.6915V31.9255C34.7733 31.0949 34.1 30.4216 33.2692 30.4216C32.4386 30.4216 31.7653 31.0947 31.7653 31.9255V31.2812C31.7653 30.4912 31.1562 29.8441 30.3823 29.7824C30.3423 29.7794 30.3022 29.7773 30.2614 29.7773C29.6551 29.7773 29.133 30.1364 28.895 30.6531C28.807 30.8443 28.7575 31.0569 28.7575 31.2812V25.7334C28.7575 24.9028 28.0841 24.2295 27.2535 24.2295C26.423 24.2295 25.7496 24.9028 25.7496 25.7334V38.6448L25.6845 38.6364L24.758 34.6707C24.5689 33.862 23.76 33.3593 22.9512 33.5484C22.1018 33.5484 21.565 34.2251 21.7581 35.0523L22.8324 39.6501C23.3942 43.2475 26.3023 46 26.3023 46H35.4394C36.9661 43.6779 37.7798 40.9598 37.7802 38.1806L37.7811 32.6915C37.7811 31.861 37.1078 31.1876 36.2772 31.1876Z" fill="white"/>
</svg>
