<svg width="64" height="64" viewBox="0 0 64 64" fill="none" xmlns="http://www.w3.org/2000/svg">
<circle cx="32" cy="32" r="32" fill="#FB593B"/>
<g clip-path="url(#clip0)">
<path d="M32.0009 29.0507C35.0476 29.0507 37.5263 26.5721 37.5263 23.5253C37.5263 20.4786 35.0476 18 32.0009 18C28.9542 18 26.4756 20.4786 26.4756 23.5253C26.4756 26.5721 28.9542 29.0507 32.0009 29.0507Z" fill="white"/>
<path d="M39.415 31.7285C39.4126 31.7278 39.4081 31.7261 39.4058 31.7255C38.6863 31.5498 36.4833 31.2416 36.4833 31.2416C36.2346 31.165 35.9688 31.2968 35.8794 31.5422L32.5633 40.6406C32.372 41.1655 31.6297 41.1655 31.4384 40.6406L28.1223 31.5422C28.0501 31.344 27.8631 31.2197 27.6626 31.2197C27.6151 31.2197 25.3499 31.5373 24.5958 31.7249C22.5351 32.2372 21.2354 34.2636 21.2354 36.3754V43.9459C21.2354 45.0805 22.1551 46.0002 23.2896 46.0002H40.7102C41.8447 46.0002 42.7644 45.0805 42.7644 43.9459V36.3502C42.7643 34.2476 41.4136 32.3816 39.415 31.7285Z" fill="white"/>
<path d="M33.251 31.0673C33.1187 30.9231 32.9252 30.8506 32.7295 30.8506H31.2696C31.0739 30.8506 30.8804 30.9232 30.7481 31.0673C30.5433 31.2906 30.5135 31.6131 30.6589 31.8651L31.4393 33.0416L31.074 36.1234L31.7934 38.0372C31.8636 38.2298 32.1358 38.2298 32.2059 38.0372L32.9253 36.1234L32.56 33.0416L33.3404 31.8651C33.4857 31.6131 33.4559 31.2906 33.251 31.0673Z" fill="white"/>
</g>
<defs>
<clipPath id="clip0">
<rect width="28" height="28" fill="white" transform="translate(18 18)"/>
</clipPath>
</defs>
</svg>
