<svg width="350" height="350" viewBox="0 0 350 350" fill="none" xmlns="http://www.w3.org/2000/svg">
<path d="M350 0H0V350H350V0Z" fill="white"/>
<path d="M97.0902 40.1798C76.7202 43.2598 56.4202 57.3298 52.8502 77.6298C48.8602 100.03 65.4502 121.17 65.8702 143.92C66.2202 161.07 57.3302 176.96 47.6702 191.17C38.0102 205.31 27.0202 219.17 22.2602 235.62C17.4302 252.07 20.5102 272.37 34.5802 282.17C49.2102 292.39 68.9502 287.91 86.7302 289.59C108.92 291.69 128.66 303.87 148.4 314.09C168.21 324.31 190.68 333.13 212.31 327.88C236.32 322.07 252.84 300.79 267.26 280.7C286.58 253.68 305.69 226.1 317.52 195.09C329.28 164.08 333.27 128.87 321.79 97.7198C313.04 74.0598 292.81 52.3598 267.61 51.1698C251.44 50.3998 236.11 57.9598 220.29 61.4598C174.02 71.5398 143.22 33.1798 97.0902 40.1798Z" fill="#E9F2FF"/>
<path d="M293.02 303.66L262.92 252.42C261.66 250.25 259.49 248.85 257.04 248.43C260.19 247.24 262.43 244.23 262.43 240.73V122.99C262.43 118.44 258.72 114.73 254.17 114.73H83.4399C78.8899 114.73 75.1799 118.44 75.1799 122.99V240.73C75.1799 244.02 77.1399 246.82 79.8699 248.15C77.0699 248.29 74.5499 249.9 73.1499 252.28L44.3099 303.1C43.6799 304.29 43.7499 305.55 44.3099 306.6V310.24C44.3099 312.201 45.8499 313.74 47.8099 313.81L289.73 314.86C291.69 314.86 293.3 313.25 293.3 311.29V306.11C293.58 305.41 293.51 304.5 293.02 303.66Z" fill="#B8B8B8"/>
<path d="M50.75 300.019V304.009C50.75 305.969 52.29 307.509 54.25 307.579L296.17 308.629C298.13 308.629 299.74 307.019 299.74 305.059V299.459C299.67 299.459 50.75 300.649 50.75 300.019Z" fill="#D1D3DD"/>
<path d="M260.4 242.69H89.74C85.19 242.69 81.48 238.98 81.48 234.43V116.69C81.48 112.14 85.19 108.43 89.74 108.43H260.4C264.95 108.43 268.66 112.14 268.66 116.69V234.43C268.66 238.98 264.95 242.69 260.4 242.69Z" fill="url(#paint0_linear)"/>
<path d="M79.5199 246.05L50.6799 296.87C49.3499 299.18 51.0299 302.12 53.6899 302.12L296.17 302.75C298.9 302.75 300.58 299.81 299.18 297.43L269.08 246.19C267.61 243.67 264.88 242.13 261.94 242.13L86.6599 241.92C83.7199 241.85 80.9899 243.46 79.5199 246.05Z" fill="#E4E6ED"/>
<path d="M261.94 117.039H89.8096V230.859H261.94V117.039Z" fill="#D0D7E1"/>
<path d="M89.2497 250.179L78.8897 271.529C78.3297 272.649 79.1697 273.979 80.4297 273.979H271.6C272.93 273.979 273.7 272.579 273.07 271.459L261.1 249.689C259.7 247.169 257.11 245.629 254.24 245.629C230.3 245.699 121.03 245.979 96.3897 245.769C93.3097 245.769 90.5797 247.449 89.2497 250.179Z" fill="#C2C4CE"/>
<path d="M138.53 278.599L135.24 295.959C135.03 297.219 135.94 298.339 137.2 298.339H216.51C217.84 298.339 218.82 297.009 218.4 295.679L212.52 278.039C212.24 277.199 211.47 276.639 210.63 276.639C201.39 276.709 150.43 277.059 140.56 276.989C139.58 276.989 138.74 277.689 138.53 278.599Z" fill="#C2C4CE"/>
<path d="M244.79 230.79L250.32 108.5H244.86C244.79 108.5 244.79 231.63 244.79 230.79Z" fill="#B8B8B8"/>
<path d="M108.64 230.79L103.11 108.5H108.57C108.64 108.5 108.64 231.63 108.64 230.79Z" fill="#B8B8B8"/>
<path d="M244.79 76.9295V230.789H108.64V76.9295C108.64 74.7595 110.39 72.9395 112.63 72.9395H240.8C243.04 73.0095 244.79 74.7595 244.79 76.9295Z" fill="white"/>
<path d="M244.79 76.9295V83.6495H108.64V76.9295C108.64 74.7595 110.39 72.9395 112.63 72.9395H240.8C243.04 73.0095 244.79 74.7595 244.79 76.9295Z" fill="#E1E4EA"/>
<path d="M119.28 79.0297C119.28 80.2197 118.3 81.1297 117.18 81.1297C116.06 81.1297 115.08 80.1497 115.08 79.0297C115.08 77.8397 116.06 76.9297 117.18 76.9297C118.3 76.9297 119.28 77.9097 119.28 79.0297Z" fill="#F9544A"/>
<path d="M131.11 79.0297C131.11 80.2197 130.13 81.1297 129.01 81.1297C127.82 81.1297 126.91 80.1497 126.91 79.0297C126.91 77.8397 127.89 76.9297 129.01 76.9297C130.2 76.9297 131.11 77.9097 131.11 79.0297Z" fill="#9ADEBD"/>
<path d="M125.23 79.0297C125.23 80.2197 124.25 81.1297 123.13 81.1297C122.01 81.1297 121.03 80.1497 121.03 79.0297C121.03 77.8397 122.01 76.9297 123.13 76.9297C124.25 76.9297 125.23 77.9097 125.23 79.0297Z" fill="#FCB747"/>
<path d="M239.89 89.8105H115.15V93.4505H239.89V89.8105Z" fill="#E1E4EA"/>
<path d="M239.89 97.5801H115.15V101.22H239.89V97.5801Z" fill="#E1E4EA"/>
<path d="M239.89 105.281H115.15V108.921H239.89V105.281Z" fill="#E1E4EA"/>
<path d="M240.24 119.91H179.41V123.55H240.24V119.91Z" fill="#E1E4EA"/>
<path d="M240.24 127.68H179.41V131.32H240.24V127.68Z" fill="#E1E4EA"/>
<path d="M240.24 135.451H179.41V139.091H240.24V135.451Z" fill="#E1E4EA"/>
<path d="M240.24 142.59H179.41V146.23H240.24V142.59Z" fill="#E1E4EA"/>
<path d="M240.24 150.289H179.41V153.929H240.24V150.289Z" fill="#E1E4EA"/>
<path d="M240.24 158.061H179.41V161.701H240.24V158.061Z" fill="#E1E4EA"/>
<path d="M175.98 114.451H115.43V166.741H175.98V114.451Z" fill="#E1E4EA"/>
<path d="M115.484 219.328H176.314V215.688H115.484V219.328Z" fill="#E1E4EA"/>
<path d="M115.484 211.58H176.314V207.94H115.484V211.58Z" fill="#E1E4EA"/>
<path d="M115.484 203.832H176.314V200.192H115.484V203.832Z" fill="#E1E4EA"/>
<path d="M115.484 196.693H176.314V193.053H115.484V196.693Z" fill="#E1E4EA"/>
<path d="M115.484 188.945H176.314V185.305H115.484V188.945Z" fill="#E1E4EA"/>
<path d="M115.484 181.197H176.314V177.557H115.484V181.197Z" fill="#E1E4EA"/>
<path d="M179.688 224.818H240.238V172.528H179.688V224.818Z" fill="#E1E4EA"/>
<path d="M262.08 49.7001L259.84 65.7301L209.86 34.5801L262.08 49.7001Z" fill="#E4A133"/>
<path d="M276.71 42.0701L262.08 49.7001L209.86 34.5801L276.71 42.0701Z" fill="#FCB747"/>
<path d="M256.9 52.1501L209.86 34.5801L241.5 60.3401L256.9 52.1501Z" fill="#FCB747"/>
<path d="M259.84 65.7304L256.9 52.1504L246.75 57.5404L259.84 65.7304Z" fill="#F9C266"/>
<path d="M260.017 92.0481L250.983 151.92L301.026 159.471L310.06 99.5991L260.017 92.0481Z" fill="#B8B8B8"/>
<path d="M311.8 98.1311L261.757 90.5801L252.723 150.452L302.766 158.003L311.8 98.1311Z" fill="white"/>
<path d="M302.746 139.756L258.933 133.145L258.578 135.498L302.391 142.109L302.746 139.756Z" fill="#E1E4EA"/>
<path d="M301.977 144.795L258.164 138.184L257.808 140.537L301.622 147.148L301.977 144.795Z" fill="#E1E4EA"/>
<path d="M301.208 149.834L257.395 143.223L257.039 145.576L300.853 152.187L301.208 149.834Z" fill="#E1E4EA"/>
<path d="M308.232 102.879L264.626 96.2988L259.884 127.723L303.49 134.303L308.232 102.879Z" fill="#E1E4EA"/>
<path d="M259.84 127.748L276.43 106.818L285.88 131.668L259.84 127.748Z" fill="white"/>
<path d="M278.88 128.168L293.3 116.898L303.45 134.328L279.02 130.688L278.88 128.168Z" fill="white"/>
<path d="M304.01 110.109C303.59 112.839 301 114.729 298.27 114.309C295.54 113.889 293.65 111.299 294.07 108.569C294.49 105.839 297.08 103.949 299.81 104.369C302.54 104.789 304.43 107.379 304.01 110.109Z" fill="white"/>
<path d="M290.99 202.299C290.99 190.959 281.82 181.789 270.48 181.789C261.52 181.789 253.89 187.529 251.16 195.579C250.18 197.959 249.69 200.549 249.69 203.209C249.69 214.549 258.86 223.719 270.2 223.719C279.16 223.719 286.79 217.979 289.52 209.929C290.43 207.619 290.99 205.029 290.99 202.299Z" fill="#B8B8B8"/>
<path d="M271.25 222.53C282.577 222.53 291.76 213.347 291.76 202.02C291.76 190.692 282.577 181.51 271.25 181.51C259.922 181.51 250.74 190.692 250.74 202.02C250.74 213.347 259.922 222.53 271.25 222.53Z" fill="#A0A0A0"/>
<path d="M271.6 221.549C282.927 221.549 292.11 212.367 292.11 201.039C292.11 189.712 282.927 180.529 271.6 180.529C260.272 180.529 251.09 189.712 251.09 201.039C251.09 212.367 260.272 221.549 271.6 221.549Z" fill="#838494"/>
<path opacity="0.5" d="M283.22 202.23L281.4 201.6C281.26 201.53 281.12 201.39 281.12 201.18C281.12 200.76 281.05 200.34 280.98 199.92C280.98 199.78 280.98 199.57 281.12 199.5L283.08 197.96C283.85 197.33 283.99 196.14 283.36 195.37L281.05 192.5C280.42 191.73 279.23 191.59 278.46 192.22L276.78 193.55C276.64 193.69 276.43 193.69 276.29 193.55C276.01 193.41 275.73 193.27 275.45 193.13C275.31 193.06 275.17 192.92 275.17 192.71V190.4C275.17 189.35 274.33 188.58 273.35 188.58H269.71C268.66 188.58 267.89 189.42 267.89 190.4V192.71C267.89 192.92 267.75 193.06 267.61 193.13C267.47 193.2 267.26 193.2 267.12 193.06L265.23 191.45C264.46 190.82 263.27 190.89 262.64 191.66L260.26 194.46C259.63 195.23 259.7 196.42 260.47 197.05L262.22 198.52C262.36 198.66 262.43 198.8 262.36 199.01C262.29 199.15 262.15 199.29 262.01 199.36L259.56 199.78C258.58 199.99 257.88 200.9 258.09 201.95L258.72 205.59C258.93 206.57 259.84 207.27 260.89 207.06L262.99 206.71C263.2 206.71 263.34 206.78 263.48 206.92C263.55 206.99 263.55 207.06 263.62 207.13C263.69 207.27 263.69 207.48 263.62 207.62L262.5 209.58C262.01 210.49 262.29 211.61 263.2 212.1L266.35 213.92C267.26 214.41 268.38 214.13 268.87 213.22L269.78 211.61C269.85 211.47 270.06 211.4 270.27 211.4C270.41 211.4 270.55 211.47 270.69 211.47C270.83 211.47 271.04 211.61 271.04 211.75L271.74 213.64C272.09 214.62 273.14 215.11 274.12 214.76L277.55 213.5C278.53 213.15 279.02 212.1 278.67 211.12L278.04 209.44C277.97 209.3 278.04 209.09 278.18 208.95C278.32 208.81 278.39 208.74 278.53 208.6C278.67 208.46 278.81 208.46 279.02 208.46L280.84 209.09C281.82 209.44 282.87 208.95 283.22 207.97L284.48 204.54C284.62 203.63 284.13 202.58 283.22 202.23ZM271.25 206.64C268.52 206.64 266.28 204.4 266.28 201.67C266.28 198.94 268.52 196.7 271.25 196.7C273.98 196.7 276.22 198.94 276.22 201.67C276.22 204.4 273.98 206.64 271.25 206.64Z" fill="#B8B8B8"/>
<path d="M283.36 201.67L281.61 201.04C281.47 200.97 281.33 200.83 281.33 200.62C281.33 200.2 281.26 199.78 281.19 199.36C281.19 199.22 281.19 199.01 281.33 198.94L283.29 197.4C284.06 196.77 284.2 195.58 283.57 194.81L281.26 191.94C280.63 191.17 279.44 191.03 278.67 191.66L276.99 192.99C276.85 193.13 276.64 193.13 276.5 192.99C276.22 192.85 275.94 192.71 275.66 192.57C275.52 192.5 275.38 192.36 275.38 192.15V189.84C275.38 188.79 274.54 188.02 273.56 188.02H269.92C268.87 188.02 268.1 188.86 268.1 189.84V192.15C268.1 192.36 267.96 192.5 267.82 192.57C267.68 192.64 267.47 192.64 267.33 192.5L265.44 190.89C264.67 190.26 263.48 190.33 262.85 191.1L260.47 193.9C259.84 194.67 259.91 195.86 260.68 196.49L262.43 197.96C262.57 198.1 262.64 198.24 262.57 198.45C262.5 198.59 262.36 198.73 262.22 198.8L259.77 199.22C258.79 199.43 258.09 200.34 258.3 201.39L258.93 205.03C259.14 206.01 260.05 206.71 261.1 206.5L263.2 206.15C263.41 206.15 263.55 206.22 263.69 206.36C263.76 206.43 263.76 206.5 263.83 206.57C263.9 206.71 263.9 206.92 263.83 207.06L262.71 209.02C262.22 209.93 262.5 211.05 263.41 211.54L266.56 213.36C267.47 213.85 268.59 213.57 269.08 212.66L269.99 211.05C270.06 210.91 270.27 210.84 270.48 210.84C270.62 210.84 270.76 210.91 270.9 210.91C271.04 210.91 271.25 211.05 271.25 211.19L271.95 213.08C272.3 214.06 273.35 214.55 274.33 214.2L277.76 212.94C278.74 212.59 279.23 211.54 278.88 210.56L278.25 208.88C278.18 208.74 278.25 208.53 278.39 208.39C278.53 208.25 278.6 208.18 278.74 208.04C278.88 207.9 279.02 207.9 279.23 207.9L281.05 208.53C282.03 208.88 283.08 208.39 283.43 207.41L284.69 203.98C284.83 203.07 284.34 202.02 283.36 201.67ZM271.39 206.08C268.66 206.08 266.42 203.84 266.42 201.11C266.42 198.38 268.66 196.14 271.39 196.14C274.12 196.14 276.36 198.38 276.36 201.11C276.36 203.84 274.12 206.08 271.39 206.08Z" fill="white"/>
<path d="M111.23 103.881C101.99 95.0606 87.3598 95.3406 78.4698 104.581C70.6298 112.771 69.9998 125.301 76.4398 134.191L71.0498 139.791L70.2098 138.951L47.8098 162.261C45.7798 164.361 45.8498 167.791 47.9498 169.821C50.0498 171.851 53.4798 171.781 55.5098 169.681L77.9098 146.371L77.0698 145.531L82.4598 139.931C91.6298 146.021 104.09 144.831 111.93 136.641C120.75 127.401 120.47 112.701 111.23 103.881ZM93.0998 104.441C93.3098 104.441 93.4498 104.371 93.6598 104.371C93.4498 104.371 93.2398 104.371 93.0998 104.441ZM91.6298 104.651C91.7698 104.581 91.9798 104.581 92.1198 104.581C91.9798 104.581 91.8398 104.651 91.6298 104.651ZM78.9598 119.911C78.9598 119.631 78.9598 119.351 79.0298 119.071C78.9598 119.421 78.9598 119.701 78.9598 119.911ZM79.0998 118.371C79.0998 118.091 79.1698 117.881 79.2398 117.601C79.1698 117.881 79.0998 118.091 79.0998 118.371ZM79.3798 116.831C79.4498 116.621 79.5198 116.341 79.5198 116.131C79.4498 116.341 79.4498 116.551 79.3798 116.831ZM79.7998 115.291C79.8698 115.081 79.9398 114.871 80.0098 114.591C79.9398 114.871 79.8698 115.081 79.7998 115.291ZM80.3598 113.821C80.4298 113.611 80.5698 113.401 80.6398 113.191C80.5698 113.401 80.4998 113.611 80.3598 113.821ZM81.1298 112.421C81.2698 112.211 81.3398 112.001 81.4798 111.791C81.3398 112.001 81.1998 112.211 81.1298 112.421ZM81.9698 111.091C82.1098 110.881 82.2498 110.741 82.3898 110.531C82.2498 110.671 82.1098 110.881 81.9698 111.091ZM102.27 105.911C102.41 105.981 102.55 106.051 102.62 106.121C102.48 105.981 102.41 105.911 102.27 105.911ZM99.3998 104.791C99.5398 104.791 99.6798 104.861 99.7498 104.931C99.6798 104.931 99.5398 104.861 99.3998 104.791ZM110.74 115.641C110.67 115.501 110.6 115.291 110.53 115.151C110.6 115.291 110.67 115.431 110.74 115.641ZM83.0898 131.461C82.9498 131.251 82.7398 131.111 82.5998 130.901C82.7398 131.111 82.9498 131.251 83.0898 131.461ZM82.0398 130.131C81.8998 129.921 81.7598 129.781 81.6898 129.571C81.7598 129.781 81.8998 129.991 82.0398 130.131ZM86.5898 134.401C86.5198 134.401 86.5198 134.331 86.4498 134.331C86.5198 134.401 86.5898 134.401 86.5898 134.401ZM85.3298 133.491C85.2598 133.421 85.1898 133.351 85.1198 133.281C85.1198 133.351 85.1898 133.421 85.3298 133.491ZM94.8498 104.301C94.7798 104.301 94.6398 104.301 94.5698 104.301C94.6398 104.301 94.7798 104.301 94.8498 104.301ZM90.3698 105.001H90.2998C90.2998 105.001 90.2998 105.001 90.3698 105.001ZM88.4098 105.771C88.5498 105.701 88.6898 105.631 88.8298 105.561C88.7598 105.631 88.5498 105.701 88.4098 105.771ZM87.5698 106.191C87.4998 106.261 87.4298 106.261 87.3598 106.331C87.4298 106.261 87.4998 106.191 87.5698 106.191ZM78.8898 120.681C78.8898 120.891 78.8898 121.031 78.8898 121.241C78.9598 121.031 78.8898 120.821 78.8898 120.681ZM80.9898 128.521C80.9898 128.451 80.9198 128.451 80.9198 128.381C80.9198 128.451 80.9898 128.521 80.9898 128.521ZM80.2898 127.121C80.2198 126.981 80.2198 126.911 80.1498 126.771C80.2198 126.911 80.2198 126.981 80.2898 127.121ZM79.7998 125.791C79.7298 125.651 79.7298 125.511 79.6598 125.371C79.6598 125.511 79.7298 125.651 79.7998 125.791ZM79.3098 124.181C79.3098 124.111 79.2398 124.041 79.2398 123.901C79.3098 124.041 79.3098 124.111 79.3098 124.181ZM79.0298 122.641C79.0298 122.501 79.0298 122.361 78.9598 122.151C79.0298 122.291 79.0298 122.431 79.0298 122.641ZM87.7098 135.031C87.8498 135.101 87.9898 135.171 88.1298 135.241C87.9898 135.171 87.8498 135.101 87.7098 135.031ZM89.1098 135.661C89.2498 135.731 89.3898 135.801 89.5298 135.801C89.3898 135.801 89.2498 135.731 89.1098 135.661ZM90.7898 136.221C90.8598 136.221 90.8598 136.221 90.9298 136.291C90.8598 136.291 90.7898 136.291 90.7898 136.221ZM92.3998 136.641C92.5398 136.641 92.6098 136.641 92.7498 136.711C92.6098 136.641 92.4698 136.641 92.3998 136.641ZM93.7998 136.781C93.9398 136.781 94.1498 136.781 94.2898 136.781C94.1498 136.851 94.0098 136.851 93.7998 136.781ZM95.2698 136.851C95.4798 136.851 95.6198 136.851 95.8298 136.851C95.6198 136.851 95.4798 136.851 95.2698 136.851ZM105.84 132.931C105.7 133.071 105.56 133.141 105.42 133.281C105.56 133.141 105.7 133.001 105.84 132.931ZM104.65 133.841C104.51 133.981 104.3 134.051 104.16 134.191C104.3 134.051 104.51 133.981 104.65 133.841ZM103.39 134.681C103.18 134.751 103.04 134.891 102.83 134.961C103.04 134.891 103.18 134.751 103.39 134.681ZM101.99 135.381C101.85 135.451 101.64 135.521 101.5 135.591C101.71 135.521 101.85 135.451 101.99 135.381ZM100.45 136.011C100.31 136.081 100.24 136.081 100.1 136.151C100.24 136.081 100.38 136.011 100.45 136.011ZM98.6998 136.501C98.5598 136.501 98.4198 136.571 98.2798 136.571C98.4198 136.501 98.5598 136.501 98.6998 136.501ZM97.2998 136.711C97.0898 136.711 96.9498 136.781 96.7398 136.781C96.9498 136.781 97.0898 136.781 97.2998 136.711Z" fill="#B8B8B8"/>
<path d="M85.957 133.834L79.9966 128.115L70.4498 138.066L76.4102 143.785L85.957 133.834Z" fill="#404057"/>
<path d="M48.65 166.811C46.55 164.781 46.48 161.421 48.51 159.251L70.91 135.941L78.61 143.361L56.21 166.671C54.18 168.771 50.75 168.841 48.65 166.811Z" fill="#7F7F87"/>
<path opacity="0.5" d="M77.1401 131.111L80.9201 139.161L83.6501 136.291L77.1401 131.111Z" fill="#B8B8B8"/>
<path d="M111.93 100.871C102.69 92.0508 88.0602 92.3308 79.1702 101.571C70.3502 110.811 70.6302 125.441 79.8702 134.331C89.1102 143.151 103.74 142.871 112.63 133.631C121.45 124.321 121.17 109.691 111.93 100.871ZM84.6302 129.291C78.1202 123.061 77.9102 112.771 84.1402 106.261C90.3702 99.7508 100.66 99.5408 107.17 105.771C113.68 112.001 113.89 122.291 107.66 128.801C101.43 135.311 91.1402 135.521 84.6302 129.291Z" fill="#FCB747"/>
<path opacity="0.5" d="M107.66 128.8C102.41 134.26 94.2903 135.31 87.9203 131.74C86.7303 131.04 85.6103 130.27 84.5603 129.29C84.4203 129.15 84.2103 128.94 84.0703 128.8C83.3703 128.03 82.7403 127.26 82.1803 126.35C80.4303 123.62 79.5903 120.47 79.5903 117.39C79.5903 113.4 81.1303 109.34 84.1403 106.26C89.3203 100.87 97.3703 99.8197 103.67 103.18C104.93 103.88 106.12 104.72 107.24 105.77C108.5 106.96 109.48 108.36 110.32 109.76C110.81 110.67 111.23 111.65 111.51 112.63C112 114.17 112.28 115.78 112.28 117.46C112.21 121.52 110.74 125.65 107.66 128.8Z" fill="#E4EBFF"/>
<path opacity="0.2" d="M110.25 109.762L82.1803 126.352C80.4303 123.622 79.5903 120.472 79.5903 117.392L103.6 103.182C104.86 103.882 106.05 104.722 107.17 105.772C108.43 106.962 109.48 108.362 110.25 109.762Z" fill="white"/>
<path opacity="0.2" d="M112.21 117.461L87.9901 131.811C86.8001 131.111 85.6801 130.341 84.6301 129.361C84.4901 129.221 84.2801 129.011 84.1401 128.871L111.51 112.701C111.93 114.171 112.21 115.781 112.21 117.461Z" fill="white"/>
<path opacity="0.5" d="M106.05 106.961C112.35 112.981 112.77 122.851 107.1 129.431C107.31 129.221 107.52 129.081 107.66 128.871C113.89 122.361 113.68 112.071 107.17 105.841C100.66 99.6108 90.3701 99.8208 84.1401 106.331C83.9301 106.541 83.7901 106.751 83.5801 106.961C89.8801 100.941 99.7501 100.941 106.05 106.961Z" fill="#B8B8B8"/>
<path d="M211.61 209.021V208.671C211.61 206.151 209.58 204.051 206.99 204.051H175.49C173.74 204.051 172.34 202.651 172.34 200.901V197.751C172.34 195.721 170.66 194.041 168.63 194.041H133.63C131.6 194.041 129.92 195.721 129.92 197.751V204.051V213.711V220.571C127.75 221.761 126.42 224.141 126.7 226.801C127.89 237.371 128.66 255.781 128.94 264.601C129.01 267.401 131.32 269.571 134.05 269.571C148.89 269.571 192.92 269.991 208.39 270.131C211.19 270.131 213.57 267.891 213.57 265.091C213.71 253.331 216.65 230.651 218.4 218.051C219.17 213.501 215.95 209.511 211.61 209.021Z" fill="#B8B8B8"/>
<path d="M176.541 201.881V198.731C176.541 196.701 174.861 195.021 172.831 195.021H137.831C135.801 195.021 134.121 196.701 134.121 198.731V205.031V214.691V262.991H215.671V209.581C215.671 207.061 213.641 204.961 211.051 204.961H179.551C177.941 205.031 176.541 203.631 176.541 201.881Z" fill="#FCB747"/>
<path d="M210.14 208.461H136.36V261.801H210.14V208.461Z" fill="#E9E9E9"/>
<path d="M211.89 206.432H138.11V259.772H211.89V206.432Z" fill="#F4F4F4"/>
<path d="M133.281 265.511C132.931 256.691 132.161 238.281 131.041 227.711C130.621 224.001 133.561 220.711 137.271 220.711H157.361C160.931 220.711 164.431 219.381 167.091 216.931L171.781 212.661C173.741 210.841 176.331 209.861 179.061 209.861H214.971C219.731 209.861 223.441 214.061 222.741 218.821C220.991 231.421 218.051 254.101 217.911 265.861C217.841 268.661 215.531 270.971 212.731 270.901C197.331 270.761 153.301 270.341 138.391 270.341C135.661 270.481 133.351 268.241 133.281 265.511Z" fill="#FCB747"/>
<defs>
<linearGradient id="paint0_linear" x1="81.4894" y1="175.572" x2="268.634" y2="175.572" gradientUnits="userSpaceOnUse">
<stop stop-color="#777388"/>
<stop offset="1" stop-color="#828BAC"/>
</linearGradient>
</defs>
</svg>
