<svg width="20" height="20" viewBox="0 0 20 20" fill="none" xmlns="http://www.w3.org/2000/svg">
<path fill-rule="evenodd" clip-rule="evenodd" d="M19 10C19 14.9705 14.9705 19 10 19C5.02944 19 1 14.9705 1 10C1 5.02944 5.02944 1 10 1C14.9705 1 19 5.02944 19 10ZM14.1118 7.28183C14.4297 6.83017 14.3212 6.20637 13.8695 5.88853C13.4179 5.57069 12.7941 5.67918 12.4762 6.13084L8.53107 11.7371L7.05393 10.2326C6.667 9.83855 6.03386 9.83275 5.63977 10.2197C5.24569 10.6066 5.23988 11.2397 5.62681 11.6338L7.9447 13.9946C8.15263 14.2064 8.44388 14.3149 8.73968 14.2907C9.03548 14.2665 9.30527 14.1122 9.47606 13.8695L14.1118 7.28183Z" fill="#2CCD65"/>
</svg>
