<svg width="40" height="40" viewBox="0 0 40 40" fill="none" xmlns="http://www.w3.org/2000/svg">
<rect width="40" height="40" rx="5" fill="url(#paint0_linear_457_696)"/>
<path d="M17.0412 21.0351C17.0127 21.0351 16.9555 21.0351 16.927 21.0038L13.2708 18.6824C13.1851 18.6196 13.128 18.4942 13.1851 18.3687L16.5271 12.0319C16.5556 11.9692 16.6128 11.9378 16.6413 11.9378C16.6985 11.9378 16.7556 11.9378 16.8127 11.9692L20.4689 14.2906C20.5546 14.3533 20.6117 14.4788 20.5546 14.6043L17.2412 20.9097C17.2126 20.9724 17.1555 21.0038 17.1269 21.0038C17.0984 21.0351 17.0698 21.0351 17.0412 21.0351ZM13.6707 18.4001L16.9555 20.5019L20.069 14.5415L16.7841 12.4397L13.6707 18.4001Z" fill="white"/>
<path d="M17.2719 23.1371C17.2433 23.1371 17.1862 23.1371 17.1576 23.1057L11.5306 19.5295C11.4449 19.4668 11.3877 19.3413 11.4449 19.2158L12.2161 17.7414C12.2447 17.6787 12.3018 17.6473 12.3304 17.6473C12.3875 17.616 12.4446 17.6473 12.5017 17.6787L18.1288 21.2549C18.2145 21.3176 18.2716 21.4431 18.2145 21.5686L17.4433 23.043C17.4147 23.1057 17.3576 23.1371 17.329 23.1371C17.3005 23.1371 17.3005 23.1371 17.2719 23.1371ZM11.9305 19.2472L17.2148 22.6038L17.7861 21.5372L12.5017 18.1806L11.9305 19.2472Z" fill="white"/>
<path d="M21.3832 15.3258C21.3547 15.3258 21.2975 15.3258 21.269 15.2945L15.6419 11.7183C15.5562 11.6555 15.4991 11.53 15.5562 11.4046L16.3274 9.93017C16.356 9.86743 16.4131 9.83606 16.4417 9.83606C16.4988 9.83606 16.5559 9.83606 16.6131 9.86743L22.2401 13.4436C22.3258 13.5064 22.383 13.6318 22.3258 13.7573L21.5546 15.2317C21.526 15.2945 21.4689 15.3258 21.4403 15.3258C21.4118 15.3258 21.3832 15.3258 21.3832 15.3258ZM16.0132 11.4359L21.2975 14.7925L21.8688 13.726L16.5845 10.3694L16.0132 11.4359Z" fill="white"/>
<path d="M19.2393 20.2509C19.2107 20.2509 19.1536 20.251 19.125 20.2196L17.7825 19.3726C17.6968 19.3098 17.6397 19.1844 17.6968 19.0589L19.325 15.9532C19.3535 15.8905 19.4106 15.8591 19.4392 15.8591C19.4963 15.8591 19.5535 15.8591 19.6106 15.8905L20.9531 16.7375C21.0388 16.8002 21.0959 16.9257 21.0388 17.0512L19.4107 20.1568C19.3821 20.2196 19.325 20.2509 19.2964 20.2509C19.2678 20.2509 19.2393 20.2509 19.2393 20.2509ZM18.1824 19.0903L19.1536 19.7177L20.5818 16.9885L19.6106 16.3611L18.1824 19.0903Z" fill="white"/>
<path d="M30.4355 27.466C30.0642 27.466 29.6928 27.3405 29.3786 27.1209L19.4384 19.6548C19.3527 19.5921 19.3242 19.4666 19.3813 19.3411L20.381 17.4276C20.4381 17.3334 20.5524 17.2707 20.6381 17.3335L31.4924 23.0742C31.978 23.3251 32.3207 23.7957 32.4921 24.3604C32.6635 24.9878 32.6064 25.7093 32.2921 26.2739C31.9208 26.9955 31.1782 27.466 30.4355 27.466ZM19.8097 19.3725L29.6072 26.7131C29.8357 26.9013 30.1213 26.9954 30.4355 26.9954C31.0353 26.9954 31.6352 26.619 31.9494 26.023C32.2065 25.5524 32.2636 24.9878 32.1208 24.4545C32.0065 23.9839 31.7209 23.6388 31.3495 23.4506L20.6667 17.804L19.8097 19.3725Z" fill="white"/>
<path d="M28.2077 26.1798C28.1791 26.1798 28.122 26.1798 28.0934 26.1484L26.0654 24.6427C25.9797 24.5799 25.9511 24.4544 26.0082 24.3289L27.6364 21.2547C27.6935 21.1606 27.8078 21.0978 27.8935 21.1606L30.0929 22.3213C30.15 22.3526 30.1786 22.384 30.2071 22.4467C30.2357 22.5095 30.2071 22.5722 30.1786 22.635L28.379 26.0543C28.3505 26.117 28.2933 26.1484 28.2362 26.1484C28.2362 26.1798 28.2362 26.1798 28.2077 26.1798ZM26.4653 24.3603L28.1505 25.6151L29.7215 22.6036L27.8935 21.6311L26.4653 24.3603Z" fill="white"/>
<path d="M19.2124 27.2779H9.0437C8.92945 27.2779 8.84375 27.1838 8.84375 27.0583V24.2036C8.84375 24.0781 8.92945 23.984 9.0437 23.984H19.2124C19.3267 23.984 19.4124 24.0781 19.4124 24.2036V27.0583C19.4409 27.1838 19.3267 27.2779 19.2124 27.2779ZM9.27221 26.8387H19.0125V24.4232H9.27221V26.8387Z" fill="white"/>
<path d="M20.8684 30.1639H7.41479C7.30054 30.1639 7.21484 30.0698 7.21484 29.9444V27.0897C7.21484 26.9642 7.30054 26.8701 7.41479 26.8701H20.8684C20.9826 26.8701 21.0683 26.9642 21.0683 27.0897V29.9444C21.0683 30.0385 20.9826 30.1639 20.8684 30.1639ZM7.61474 29.6934H20.6684V27.2779H7.61474V29.6934Z" fill="white"/>
<defs>
<linearGradient id="paint0_linear_457_696" x1="20" y1="0" x2="20" y2="40" gradientUnits="userSpaceOnUse">
<stop stop-color="#DF2C56"/>
<stop offset="1" stop-color="#C81F47"/>
</linearGradient>
</defs>
</svg>
