<svg xmlns="http://www.w3.org/2000/svg" width="24" height="24" fill="none"><path fill="#5C687E" fill-rule="evenodd" d="M16.886 5.057H12.77V3.771a.771.771 0 0 0-1.542 0v1.286H7.114V3.771a.771.771 0 1 0-1.543 0V5.07A2.829 2.829 0 0 0 3 7.886V18.17A2.829 2.829 0 0 0 5.829 21H18.17A2.829 2.829 0 0 0 21 18.171V7.886a2.829 2.829 0 0 0-2.571-2.817V3.77a.771.771 0 0 0-1.543 0v1.286ZM6.343 6.6h-.514c-.71 0-1.286.576-1.286 1.286v1.8h14.914v-1.8c0-.71-.576-1.286-1.286-1.286H6.343Zm-1.8 11.571V11.23h14.914v6.942c0 .71-.576 1.286-1.286 1.286H5.83c-.71 0-1.286-.576-1.286-1.286Z" clip-rule="evenodd"/></svg>