<svg xmlns="http://www.w3.org/2000/svg" width="28" height="28" fill="none"><circle cx="14" cy="14" r="14" fill="#FB593B"/><path fill="#fff" d="M10.77 24c-2.223-7.326 2.474-10.001 2.474-10.001-.328 3.91 1.893 6.955 1.893 6.955.817-.247 2.377-1.399 2.377-1.399 0 1.399-.823 4.443-.823 4.443s2.88-2.227 3.787-5.927c.906-3.699-1.725-7.413-1.725-7.413a9.92 9.92 0 0 1-2.462 7.161c.086-.1.16-.212.215-.332.312-.624.813-2.244.52-5.997C16.612 6.22 11.838 4 11.838 4c.412 3.21-.822 3.95-3.712 10.042S10.77 24 10.77 24Z"/></svg>