<svg width="20" height="21" fill="none" xmlns="http://www.w3.org/2000/svg"><path fill-rule="evenodd" clip-rule="evenodd" d="M12.917 2.917a1.333 1.333 0 0 1 0 2.667h-1.909l.5-1.67a1.4 1.4 0 0 1 1.342-.997h.067ZM15.75 4.25c0 .482-.12.936-.333 1.334H16.5c.966 0 1.75.783 1.75 1.75v1.333a1.75 1.75 0 0 1-1.667 1.748V16a2.75 2.75 0 0 1-2.75 2.75H6.167A2.75 2.75 0 0 1 3.417 16v-5.585A1.75 1.75 0 0 1 1.75 8.667V7.334c0-.967.784-1.75 1.75-1.75h1.083a2.833 2.833 0 0 1 2.5-4.167h.067a2.9 2.9 0 0 1 2.778 2.067l.072.24.072-.24a2.9 2.9 0 0 1 2.778-2.067h.067A2.833 2.833 0 0 1 15.75 4.25ZM4.167 8.917H9.25V7.084H3.5a.25.25 0 0 0-.25.25v1.333c0 .138.112.25.25.25h.667Zm6.583 0h5.75a.25.25 0 0 0 .25-.25V7.334a.25.25 0 0 0-.25-.25h-5.75v1.833Zm-5.833 1.5V16c0 .69.56 1.25 1.25 1.25H9.25v-6.833H4.917Zm5.833 0v6.833h3.083c.69 0 1.25-.56 1.25-1.25v-5.583H10.75ZM8.992 5.584l-.5-1.67a1.4 1.4 0 0 0-1.342-.997h-.067a1.333 1.333 0 0 0 0 2.667h1.909Z" fill="#F4F7FE" fill-opacity=".5"/></svg>