<svg xmlns="http://www.w3.org/2000/svg" width="16" height="16" fill="none"><path fill="#4135F1" d="M8 15.2C4.032 15.2.8 11.968.8 8S4.032.8 8 .8s7.2 3.232 7.2 7.2-3.232 7.2-7.2 7.2ZM8 2.4A5.606 5.606 0 0 0 2.4 8c0 3.088 2.512 5.6 5.6 5.6 3.088 0 5.6-2.512 5.6-5.6 0-3.088-2.512-5.6-5.6-5.6Zm0 9.76c.528 0 .96-.432.96-.96a.963.963 0 0 0-.96-.96.963.963 0 0 0-.96.96c0 .528.432.96.96.96Zm.8-3.36v-.136A2.398 2.398 0 0 0 10.4 6.4C10.4 5.08 9.32 4 8 4c-.912 0-1.736.504-2.144 1.328-.2.392-.04.872.36 1.072.392.2.872.04 1.072-.36A.79.79 0 0 1 8 5.6c.44 0 .8.36.8.8 0 .336-.216.64-.536.752A1.597 1.597 0 0 0 7.2 8.664V8.8c0 .44.36.8.8.8.44 0 .8-.36.8-.8Z"/></svg>