<svg xmlns="http://www.w3.org/2000/svg" width="160" height="64" fill="none"><path fill="#EC425B" d="M31.681 11H18.084v29.237h13.598V11Z"/><path fill="#EC425B" d="M11.072 46.136V11H5v42.857h30.701v-7.721h-24.63ZM38.61 11v29.237h2.907v13.62h5.73V11h-8.638Z"/><path fill="#333" d="M56.225 11.087h3.933v16.57h7.697v-16.57h3.934v16.57h1.625v7.635h-3.25v-4.338h-13.94V11.087ZM77.52 30.954V11.087h14.538v3.383H81.453v4.425h9.835v3.383h-9.835v5.38H92.4v3.296H77.52ZM97.103 30.954V11.087h3.934v7.808h7.783v-7.808h3.933v19.867h-3.933v-8.676h-7.783v8.676h-3.934ZM122.587 30.954V14.47h-5.816v-3.383h15.565v3.383h-5.815v16.484h-3.934ZM136.27 30.954V11.087h6.328c2.394 0 3.934.087 4.703.26 1.112.26 2.053.955 2.823 1.909.769 1.04 1.111 2.255 1.111 3.904 0 1.214-.256 2.255-.684 3.036-.427.868-1.026 1.475-1.625 1.996-.684.433-1.368.78-2.052.954-.941.173-2.309.26-4.105.26h-2.566v7.548h-3.933Zm3.933-16.484v5.64h2.138c1.54 0 2.566-.087 3.165-.348.513-.173.94-.52 1.197-.954.256-.434.427-.954.427-1.561 0-.695-.171-1.302-.598-1.822-.428-.434-.941-.781-1.625-.868-.428-.087-1.368-.087-2.822-.087h-1.882ZM55.968 47.177l-1.111-.26c.256-.868.855-1.389 1.967-1.389.684 0 1.111.174 1.453.434.342.26.513.607.513 1.041 0 .26-.085.52-.256.694-.171.174-.342.434-.684.607.342.087.598.347.855.521.171.26.257.52.257.868 0 .52-.172.867-.514 1.214-.342.26-.855.434-1.624.434-.6 0-1.027-.087-1.369-.26-.342-.174-.598-.52-.77-1.128l1.027-.347c.085.347.256.52.427.694.171.087.428.173.684.173.343 0 .6-.086.77-.26.171-.173.257-.347.257-.52 0-.26-.086-.434-.257-.521-.17-.173-.427-.173-.855-.173h-.257v-.868h.086c.342 0 .599-.087.77-.26a.793.793 0 0 0 .256-.608c0-.173-.085-.347-.256-.52-.171-.174-.342-.174-.599-.174-.342-.086-.599.174-.77.608ZM65.462 51.255h-1.198l-.427-1.215h-2.224l-.428 1.301h-1.197l2.138-5.552h1.198l2.138 5.466Zm-1.968-2.17-.77-2.081-.769 2.082h1.54ZM66.658 45.702h1.112v4.685h1.625v-4.685h1.112v4.685h1.624v-4.685h1.112v4.685h.513v2.169h-.94V51.34h-6.158v-5.639ZM74.953 45.702h1.026v3.73l2.224-3.73H79.4v5.553h-1.026V47.61l-2.224 3.644H75.04v-5.553h-.086ZM82.308 51.255V46.57h-1.624v-.868h4.361v.955H83.42v4.684h-1.112v-.087ZM86.328 45.702h1.112v2.256h1.454c.427 0 .77.087 1.026.173.257.087.513.26.684.608.171.26.257.607.257.954s-.086.694-.257.954-.427.434-.684.52a3.147 3.147 0 0 1-1.026.174h-2.566v-5.639Zm1.112 4.685h1.112c.342 0 .598 0 .684-.087.17 0 .256-.087.342-.26a.667.667 0 0 0 .17-.434c0-.26-.085-.434-.256-.52-.17-.087-.513-.174-.94-.174H87.44v1.475Zm4.105-4.685h1.111v5.553h-1.111v-5.553ZM97.018 45.702h1.026v3.73l2.223-3.73h1.112v5.553h-1.026V47.61l-2.224 3.644h-1.111v-5.553ZM103.004 51.255v-5.553h1.112v2.169h2.138v-2.169h1.111v5.553h-1.111v-2.43h-2.138v2.43h-1.112ZM109.162 45.702h2.223c.428 0 .77 0 .941.087a.92.92 0 0 1 .599.26c.171.087.342.26.427.434.086.174.171.434.171.694 0 .26-.085.52-.171.694-.171.26-.342.347-.599.52.343.087.599.26.77.521.171.26.257.52.257.868 0 .26-.086.52-.171.78-.086.26-.257.434-.513.608-.171.173-.428.26-.77.26h-3.25v-5.726h.086Zm1.111.955v1.3h1.54a.646.646 0 0 0 .427-.173.665.665 0 0 0 .171-.434.665.665 0 0 0-.171-.433.646.646 0 0 0-.427-.174h-1.54v-.087Zm0 2.168V50.3H112.069a.47.47 0 0 0 .428-.26.67.67 0 0 0 .171-.434c0-.173 0-.347-.086-.434a1.175 1.175 0 0 0-.342-.26c-.171-.087-.513-.087-1.026-.087h-.941ZM115.232 51.255v-5.553h4.105v.955h-2.993v1.214h2.737v.954h-2.737v1.562h3.079v.954h-4.191v-.087ZM124.384 49.259l1.112.347c-.171.607-.428 1.041-.855 1.388-.342.26-.855.434-1.454.434-.77 0-1.368-.26-1.796-.781-.513-.52-.684-1.215-.684-2.082 0-.954.257-1.648.684-2.169.513-.52 1.112-.78 1.882-.78.684 0 1.197.173 1.624.606.257.26.428.608.599 1.042l-1.112.26c-.085-.26-.171-.52-.427-.694-.171-.174-.428-.26-.77-.26-.428 0-.77.173-1.026.433-.257.26-.342.781-.342 1.475 0 .694.085 1.215.342 1.475.256.26.598.434.941.434.256 0 .513-.087.769-.26.257-.174.428-.521.513-.868ZM127.974 51.255V46.57h-1.624v-.868h4.361v.955h-1.625v4.684h-1.112v-.087ZM131.566 48.565c0-.607.086-1.041.257-1.475.085-.26.257-.52.513-.78.257-.261.428-.435.684-.521.342-.174.77-.26 1.197-.26.77 0 1.454.26 1.967.78.514.52.77 1.215.77 2.169 0 .868-.256 1.648-.684 2.082-.513.52-1.112.78-1.967.78s-1.454-.26-1.967-.78c-.513-.434-.77-1.128-.77-1.995Zm1.112-.087c0 .607.171 1.128.428 1.475.256.347.684.52 1.111.52.428 0 .77-.173 1.112-.52.257-.347.428-.781.428-1.475 0-.607-.171-1.128-.428-1.475-.256-.347-.684-.434-1.112-.434-.427 0-.855.174-1.111.52-.257.261-.428.782-.428 1.389ZM138.322 51.255v-5.553h1.796c.684 0 1.112 0 1.283.087.342.087.599.26.77.52.171.26.342.608.342 1.128 0 .347-.086.608-.171.868a.887.887 0 0 1-.428.52.771.771 0 0 1-.599.26c-.342.087-.684.087-1.197.087h-.684v2.083h-1.112Zm1.112-4.599v1.562h.599c.427 0 .769 0 .855-.087.085-.087.256-.173.342-.26.085-.087.085-.26.085-.434 0-.173-.085-.347-.171-.52-.085-.174-.256-.174-.427-.26h-1.283ZM143.625 48.565c0-.607.086-1.041.257-1.475.085-.26.256-.52.513-.78.256-.261.427-.435.684-.521.342-.174.769-.26 1.197-.26.77 0 1.454.26 1.967.78.513.52.77 1.215.77 2.169 0 .868-.257 1.648-.684 2.082-.514.52-1.112.78-1.967.78-.856 0-1.454-.26-1.967-.78-.513-.434-.77-1.128-.77-1.995Zm1.112-.087c0 .607.171 1.128.427 1.475.257.347.684.52 1.112.52.428 0 .77-.173 1.112-.52.256-.347.427-.781.427-1.475 0-.607-.171-1.128-.427-1.475-.257-.347-.684-.434-1.112-.434-.428 0-.855.174-1.112.52-.256.261-.427.782-.427 1.389ZM150.381 45.702h2.223c.428 0 .77 0 .941.087.171 0 .428.087.599.26.171.087.342.26.427.434.086.174.171.434.171.694 0 .26-.085.52-.171.694-.171.26-.342.347-.598.52.342.087.598.26.769.521.171.26.257.52.257.868 0 .26-.086.52-.171.78-.086.26-.257.434-.513.608-.171.173-.428.26-.77.26h-3.164v-5.726Zm1.112.955v1.3H153.032a.65.65 0 0 0 .428-.173.67.67 0 0 0 .171-.434.67.67 0 0 0-.171-.433.65.65 0 0 0-.428-.174h-1.539v-.087Zm0 2.168V50.3h1.796a.468.468 0 0 0 .427-.26.665.665 0 0 0 .171-.434c0-.173 0-.347-.085-.434-.086-.086-.171-.173-.342-.26-.171-.087-.514-.087-1.027-.087h-.94Z"/><path stroke="#EC425B" stroke-miterlimit="10" d="M54.516 41.105h97.149"/></svg>