<svg xmlns="http://www.w3.org/2000/svg" width="32" height="32" fill="none"><path fill="#EEE" fill-rule="evenodd" d="M1.6 16C1.6 8.048 8.048 1.6 16 1.6S30.4 8.048 30.4 16 23.952 30.4 16 30.4 1.6 23.952 1.6 16ZM20 24.8c2.656 0 4.8-2.144 4.8-4.8v-8c0-2.656-2.144-4.8-4.8-4.8h-8A4.794 4.794 0 0 0 7.2 12v8c0 2.656 2.144 4.8 4.8 4.8h8Zm0-15.68h-8A2.888 2.888 0 0 0 9.12 12v8A2.888 2.888 0 0 0 12 22.88h8A2.888 2.888 0 0 0 22.88 20v-8A2.888 2.888 0 0 0 20 9.12Zm-4 11.2A4.322 4.322 0 0 1 11.68 16 4.322 4.322 0 0 1 16 11.68 4.322 4.322 0 0 1 20.32 16 4.322 4.322 0 0 1 16 20.32Zm4.8-8.305a.792.792 0 0 1-.8-.8c0-.447.352-.8.8-.8.448 0 .8.353.8.8 0 .449-.352.8-.8.8ZM16 18.4a2.4 2.4 0 1 0 0-4.8 2.4 2.4 0 0 0 0 4.8Z" clip-rule="evenodd"/></svg>