<svg width="60" height="61" fill="none" xmlns="http://www.w3.org/2000/svg"><g filter="url(#a)"><rect x="8" y=".58" width="52" height="52" rx="11" fill="#D1DDEE"/></g><g filter="url(#b)"><rect y="8.58" width="52" height="52" rx="11" fill="#2096EC" fill-opacity=".33"/></g><g filter="url(#c)"><path fill-rule="evenodd" clip-rule="evenodd" d="M37.877 39.873A12.954 12.954 0 0 0 39 34.58c0-7.18-5.82-13-13-13s-13 5.82-13 13 5.82 13 13 13c4.97 0 9.29-2.79 11.477-6.89.2-.217.367-.48.472-.794l-.072-.023ZM15 34.58c0-.265.01-.528.028-.789.592.968 1.545 1.79 2.972 1.79.983 0 1.904-.337 2.565-1.092.646-.739.935-1.753.935-2.909 0-1.202.166-1.605.306-1.8.153-.213.355-.334.916-.668l.293-.174c1.443-.867 2.38-2.084 2.855-3.309a5.25 5.25 0 0 0 .37-2.046c2.545.054 4.877.973 6.714 2.474-.685.223-1.394.517-2.018.89-.623.373-1.24.871-1.633 1.53-.416.7-.548 1.53-.252 2.42.435 1.302 1.157 2.326 1.676 3.061.142.201.268.38.37.538.261.407.352.644.368.817.011.121-.003.318-.265.667-.861 1.148-1.202 2.284-1.092 3.29.109 1 .664 1.814 1.445 2.204.413.207.963.316 1.482.367.376.037.786.048 1.203.029a10.974 10.974 0 0 1-9.074 3.679 4.457 4.457 0 0 0 .503-1.577c.17-1.297-.123-2.778-.813-3.912-1.07-1.757-2.814-2.867-5.033-2.464-1.047.19-2.082.803-2.841 1.468a6.235 6.235 0 0 0-.685.698A10.952 10.952 0 0 1 15 34.58Zm2.505 6.99a11.012 11.012 0 0 0 5.28 3.533c.424-.12.787-.536.9-1.391.112-.862-.094-1.881-.54-2.612-.746-1.227-1.748-1.758-2.966-1.536-.583.106-1.298.494-1.881 1.005a3.697 3.697 0 0 0-.645.712 1.135 1.135 0 0 0-.148.288Zm-.952-9.162c-.331-.711-.502-1.62-.543-2.439a11.014 11.014 0 0 1 8.233-6.25c.002.332-.063.737-.238 1.187-.317.817-.963 1.683-2.02 2.317l-.242.142c-.523.304-1.143.665-1.561 1.248-.523.727-.682 1.67-.682 2.967 0 .844-.211 1.33-.44 1.592-.214.244-.543.408-1.06.408-.59 0-1.066-.353-1.447-1.172Zm19.311 7.046a1.455 1.455 0 0 1-.156.088c-.278.136-.672.24-1.137.295a6.422 6.422 0 0 1-1.34.013c-.434-.042-.697-.12-.784-.164-.114-.057-.308-.242-.35-.632-.042-.381.064-1.022.703-1.874.488-.65.724-1.33.657-2.051-.063-.672-.377-1.247-.678-1.715-.17-.263-.343-.51-.516-.757-.496-.706-.983-1.399-1.314-2.393-.104-.311-.06-.539.072-.763.158-.263.466-.553.942-.838.764-.457 1.762-.786 2.608-.979A10.954 10.954 0 0 1 37 34.58c0 1.75-.409 3.405-1.136 4.874Z" fill="#fff"/></g><path fill-rule="evenodd" clip-rule="evenodd" d="M14.866 25.117c1.338-1.562 3.38-2.537 6.134-2.537 1.22 0 2.075.296 2.805.548l.021.007c.714.246 1.302.445 2.174.445.872 0 1.46-.199 2.174-.445l.02-.007c.73-.253 1.587-.548 2.806-.548 2.8 0 4.834 1.135 6.149 2.742C38.439 26.898 39 28.88 39 30.58c0 3.177-1.046 7.32-2.592 10.67-.775 1.678-1.7 3.214-2.73 4.346C32.67 46.706 31.42 47.58 30 47.58c-.774 0-1.234-.524-1.466-.962-.223-.422-.345-.944-.427-1.436-.109-.655-.177-1.482-.246-2.307-.034-.405-.068-.81-.106-1.195-.125-1.25-.303-2.36-.641-3.14-.165-.38-.342-.619-.511-.758A.886.886 0 0 0 26 37.58a.886.886 0 0 0-.603.202c-.17.14-.346.378-.51.758-.339.78-.517 1.89-.642 3.14-.038.384-.072.79-.106 1.195-.069.826-.137 1.652-.246 2.307-.082.492-.204 1.014-.427 1.436-.232.438-.692.962-1.466.962-1.42 0-2.67-.875-3.677-1.983-1.03-1.133-1.956-2.67-2.731-4.348C14.046 37.9 13 33.757 13 30.58m1.866-5.463C13.549 26.652 13 28.653 13 30.58l1.866-5.463Zm1.518 1.301C15.45 27.508 15 29.007 15 30.58c0 2.824.954 6.68 2.408 9.831.725 1.571 1.55 2.91 2.394 3.84.749.823 1.41 1.215 1.95 1.307.054-.147.113-.374.168-.705.096-.577.152-1.255.215-2.02.035-.425.072-.877.12-1.352.125-1.251.322-2.641.796-3.736.242-.557.58-1.1 1.075-1.507A2.883 2.883 0 0 1 26 35.58c.729 0 1.36.235 1.874.658.495.407.833.95 1.075 1.507.474 1.095.671 2.485.796 3.736.048.475.085.927.12 1.352.063.765.119 1.443.215 2.02.055.33.114.558.168.705.54-.092 1.201-.484 1.95-1.307.844-.93 1.669-2.269 2.394-3.84 1.454-3.15 2.408-7.007 2.408-9.83 0-1.3-.438-2.819-1.399-3.993-.935-1.142-2.4-2.008-4.601-2.008-.872 0-1.46.199-2.174.445l-.02.008c-.73.252-1.587.547-2.806.547-1.22 0-2.075-.295-2.805-.547l-.021-.008c-.714-.246-1.302-.445-2.174-.445-2.246 0-3.704.775-4.616 1.838Z" fill="#20293A" fill-opacity=".8"/><path fill-rule="evenodd" clip-rule="evenodd" d="M20.326 28.526a1 1 0 0 0-.643-1.894l.317.948a76.854 76.854 0 0 0-.318-.948h-.001l-.003.002-.006.002-.017.006a1.936 1.936 0 0 0-.184.073 4.546 4.546 0 0 0-1.614 1.225c-.843 1.011-1.4 2.594-.827 4.883a1 1 0 0 0 1.94-.485c-.428-1.71.015-2.628.423-3.117a2.548 2.548 0 0 1 .882-.674l.048-.02c.002 0 .003-.001.003-.002Z" fill="#20293A" fill-opacity=".8"/><defs><filter id="a" x="-5" y="-12.42" width="78" height="78" filterUnits="userSpaceOnUse" color-interpolation-filters="sRGB"><feFlood flood-opacity="0" result="BackgroundImageFix"/><feGaussianBlur in="BackgroundImage" stdDeviation="6.5"/><feComposite in2="SourceAlpha" operator="in" result="effect1_backgroundBlur"/><feBlend in="SourceGraphic" in2="effect1_backgroundBlur" result="shape"/></filter><filter id="b" x="-6" y="2.58" width="64" height="64" filterUnits="userSpaceOnUse" color-interpolation-filters="sRGB"><feFlood flood-opacity="0" result="BackgroundImageFix"/><feGaussianBlur in="BackgroundImage" stdDeviation="3"/><feComposite in2="SourceAlpha" operator="in" result="effect1_backgroundBlur"/><feBlend in="SourceGraphic" in2="effect1_backgroundBlur" result="shape"/></filter><filter id="c" x="2" y="10.58" width="48" height="48" filterUnits="userSpaceOnUse" color-interpolation-filters="sRGB"><feFlood flood-opacity="0" result="BackgroundImageFix"/><feBlend in="SourceGraphic" in2="BackgroundImageFix" result="shape"/><feGaussianBlur stdDeviation="5.5" result="effect1_foregroundBlur"/></filter></defs></svg>