<svg width="60" height="61" fill="none" xmlns="http://www.w3.org/2000/svg"><g filter="url(#a)"><rect x="8" y=".58" width="52" height="52" rx="11" fill="#D1DDEE"/></g><g filter="url(#b)"><rect y="8.58" width="52" height="52" rx="11" fill="#2096EC" fill-opacity=".33"/></g><g filter="url(#c)"><path fill-rule="evenodd" clip-rule="evenodd" d="M37.877 39.873A12.954 12.954 0 0 0 39 34.58c0-7.18-5.82-13-13-13s-13 5.82-13 13 5.82 13 13 13c4.97 0 9.29-2.79 11.477-6.89.2-.217.367-.48.472-.794l-.072-.023ZM15 34.58c0-.265.01-.528.028-.789.592.968 1.545 1.79 2.972 1.79.983 0 1.904-.337 2.565-1.092.646-.739.935-1.753.935-2.909 0-1.202.166-1.605.306-1.8.153-.213.355-.334.916-.668l.293-.174c1.443-.867 2.38-2.084 2.855-3.309a5.25 5.25 0 0 0 .37-2.046c2.545.054 4.877.973 6.714 2.474-.685.223-1.394.517-2.018.89-.623.373-1.24.871-1.633 1.53-.416.7-.548 1.53-.252 2.42.435 1.302 1.157 2.326 1.676 3.061.142.201.268.38.37.538.261.407.352.644.368.817.011.121-.003.318-.265.667-.861 1.148-1.202 2.284-1.092 3.29.109 1 .664 1.814 1.445 2.204.413.207.963.316 1.482.367.376.037.786.048 1.203.029a10.974 10.974 0 0 1-9.074 3.679 4.457 4.457 0 0 0 .503-1.577c.17-1.297-.123-2.778-.813-3.912-1.07-1.757-2.814-2.867-5.033-2.464-1.047.19-2.082.803-2.841 1.468a6.235 6.235 0 0 0-.685.698A10.952 10.952 0 0 1 15 34.58Zm2.505 6.99a11.012 11.012 0 0 0 5.28 3.533c.424-.12.787-.536.9-1.391.112-.862-.094-1.881-.54-2.612-.746-1.227-1.748-1.758-2.966-1.536-.583.106-1.298.494-1.881 1.005a3.697 3.697 0 0 0-.645.712 1.135 1.135 0 0 0-.148.288Zm-.952-9.162c-.331-.711-.502-1.62-.543-2.439a11.014 11.014 0 0 1 8.233-6.25c.002.332-.063.737-.238 1.187-.317.817-.963 1.683-2.02 2.317l-.242.142c-.523.304-1.143.665-1.561 1.248-.523.727-.682 1.67-.682 2.967 0 .844-.211 1.33-.44 1.592-.214.244-.543.408-1.06.408-.59 0-1.066-.353-1.447-1.172Zm19.311 7.046a1.455 1.455 0 0 1-.156.088c-.278.136-.672.24-1.137.295a6.422 6.422 0 0 1-1.34.013c-.434-.042-.697-.12-.784-.164-.114-.057-.308-.242-.35-.632-.042-.381.064-1.022.703-1.874.488-.65.724-1.33.657-2.051-.063-.672-.377-1.247-.678-1.715-.17-.263-.343-.51-.516-.757-.496-.706-.983-1.399-1.314-2.393-.104-.311-.06-.539.072-.763.158-.263.466-.553.942-.838.764-.457 1.762-.786 2.608-.979A10.954 10.954 0 0 1 37 34.58c0 1.75-.409 3.405-1.136 4.874Z" fill="#fff"/></g><path d="M18 31.58a1 1 0 0 1 1 1v10a1 1 0 1 1-2 0v-10a1 1 0 0 1 1-1ZM35 32.58a1 1 0 1 0-2 0v10a1 1 0 1 0 2 0v-10ZM26 33.58a1 1 0 0 1 1 1v2h2a1 1 0 1 1 0 2h-2v2a1 1 0 1 1-2 0v-2h-2a1 1 0 1 1 0-2h2v-2a1 1 0 0 1 1-1Z" fill="#20293A" fill-opacity=".8"/><path fill-rule="evenodd" clip-rule="evenodd" d="M16 27.58a3 3 0 0 0-3 3v14a3 3 0 0 0 3 3h20a3 3 0 0 0 3-3v-14a3 3 0 0 0-3-3v-1a1 1 0 0 0-1-1h-2a1 1 0 0 0-1 1v1h-2v-3a3 3 0 0 0-3-3h-2a3 3 0 0 0-3 3v3h-2v-1a1 1 0 0 0-1-1h-2a1 1 0 0 0-1 1v1Zm8-3a1 1 0 0 1 1-1h2a1 1 0 0 1 1 1v3h-4v-3Zm-8 5a1 1 0 0 0-1 1v14a1 1 0 0 0 1 1h20a1 1 0 0 0 1-1v-14a1 1 0 0 0-1-1H16Z" fill="#20293A" fill-opacity=".8"/><defs><filter id="a" x="-5" y="-12.42" width="78" height="78" filterUnits="userSpaceOnUse" color-interpolation-filters="sRGB"><feFlood flood-opacity="0" result="BackgroundImageFix"/><feGaussianBlur in="BackgroundImage" stdDeviation="6.5"/><feComposite in2="SourceAlpha" operator="in" result="effect1_backgroundBlur"/><feBlend in="SourceGraphic" in2="effect1_backgroundBlur" result="shape"/></filter><filter id="b" x="-6" y="2.58" width="64" height="64" filterUnits="userSpaceOnUse" color-interpolation-filters="sRGB"><feFlood flood-opacity="0" result="BackgroundImageFix"/><feGaussianBlur in="BackgroundImage" stdDeviation="3"/><feComposite in2="SourceAlpha" operator="in" result="effect1_backgroundBlur"/><feBlend in="SourceGraphic" in2="effect1_backgroundBlur" result="shape"/></filter><filter id="c" x="2" y="10.58" width="48" height="48" filterUnits="userSpaceOnUse" color-interpolation-filters="sRGB"><feFlood flood-opacity="0" result="BackgroundImageFix"/><feBlend in="SourceGraphic" in2="BackgroundImageFix" result="shape"/><feGaussianBlur stdDeviation="5.5" result="effect1_foregroundBlur"/></filter></defs></svg>