<svg xmlns="http://www.w3.org/2000/svg" width="60" height="61" fill="none"><g filter="url(#a)"><rect width="52" height="52" x="8" y=".111" fill="#D1DDEE" rx="11"/></g><g filter="url(#b)"><rect width="52" height="52" y="8.111" fill="#2096EC" fill-opacity=".33" rx="11"/></g><g filter="url(#c)"><path fill="#fff" fill-rule="evenodd" d="M37.877 39.404A12.954 12.954 0 0 0 39 34.11c0-7.18-5.82-13-13-13s-13 5.82-13 13 5.82 13 13 13c4.97 0 9.29-2.79 11.477-6.89.2-.217.367-.48.472-.793l-.072-.024ZM15 34.11c0-.265.01-.528.028-.789.592.968 1.545 1.79 2.972 1.79.983 0 1.904-.336 2.565-1.092.646-.739.935-1.753.935-2.909 0-1.202.166-1.605.306-1.8.153-.213.355-.333.916-.667l.293-.175c1.443-.867 2.38-2.084 2.855-3.309a5.25 5.25 0 0 0 .37-2.046c2.545.054 4.877.973 6.714 2.474-.685.223-1.394.517-2.018.89-.623.373-1.24.872-1.633 1.53-.416.7-.548 1.53-.252 2.42.435 1.302 1.157 2.326 1.676 3.061.142.201.268.38.37.538.261.407.352.645.368.817.011.121-.003.318-.265.667-.861 1.149-1.202 2.284-1.092 3.291.109.998.664 1.814 1.445 2.204.413.206.963.315 1.482.366.376.037.786.048 1.203.029a10.973 10.973 0 0 1-9.074 3.679 4.457 4.457 0 0 0 .503-1.576c.17-1.298-.123-2.779-.813-3.913-1.07-1.757-2.814-2.867-5.033-2.464-1.047.19-2.082.803-2.841 1.468a6.244 6.244 0 0 0-.685.698A10.953 10.953 0 0 1 15 34.111Zm2.505 6.99a11.013 11.013 0 0 0 5.28 3.533c.424-.12.787-.536.9-1.391.112-.862-.094-1.88-.54-2.612-.746-1.227-1.748-1.757-2.966-1.536-.583.106-1.298.494-1.881 1.005a3.7 3.7 0 0 0-.645.712 1.133 1.133 0 0 0-.148.288Zm-.952-9.162c-.331-.711-.502-1.62-.543-2.438a11.014 11.014 0 0 1 8.233-6.25c.002.332-.063.737-.238 1.186-.317.818-.963 1.683-2.02 2.317a21.78 21.78 0 0 1-.242.142c-.523.305-1.143.666-1.561 1.248-.523.727-.682 1.67-.682 2.967 0 .845-.211 1.33-.44 1.592-.214.244-.543.408-1.06.408-.59 0-1.066-.352-1.447-1.172Zm19.311 7.046a1.439 1.439 0 0 1-.156.088c-.278.136-.672.24-1.137.295a6.422 6.422 0 0 1-1.34.014c-.434-.043-.697-.122-.784-.165-.114-.057-.308-.242-.35-.632-.042-.381.064-1.022.703-1.874.488-.65.724-1.329.657-2.051-.063-.671-.377-1.246-.678-1.714-.17-.263-.343-.511-.516-.758-.496-.705-.983-1.399-1.314-2.393-.104-.31-.06-.539.072-.762.158-.264.466-.553.942-.839.764-.457 1.762-.786 2.608-.979A10.954 10.954 0 0 1 37 34.111c0 1.75-.409 3.405-1.136 4.874Z" clip-rule="evenodd"/></g><path fill="#20293A" fill-opacity=".8" d="M17 32.111a1 1 0 0 0-1 1v3a1 1 0 1 0 2 0v-2h2a1 1 0 1 0 0-2h-3ZM36 43.111a1 1 0 0 1-1 1h-3a1 1 0 1 1 0-2h2v-2a1 1 0 1 1 2 0v3ZM27 33.111a1 1 0 1 0-2 0v.171a3.001 3.001 0 0 0 1 5.83 1 1 0 1 1-1 1 1 1 0 1 0-2 0c0 1.305.835 2.417 2 2.829v.17a1 1 0 1 0 2 0v-.17a3.001 3.001 0 0 0-1-5.83 1 1 0 1 1 1-1 1 1 0 1 0 2 0 3.001 3.001 0 0 0-2-2.829v-.17Z"/><path fill="#20293A" fill-opacity=".8" fill-rule="evenodd" d="M32.44 21.214a1 1 0 0 1 .536.68l.767 3.449 1.06-.212a1 1 0 0 1 1.167.738l.81 3.242H38a1 1 0 0 1 1 1v16a1 1 0 0 1-1 1H14a1 1 0 0 1-1-1v-16a1 1 0 0 1 1-1h.776l16.798-7.905a1 1 0 0 1 .866.008Zm-1.145 2.334.486 2.187-8.928 1.786 8.442-3.973Zm3.424 5.563-.458-1.832L25.1 29.11h9.62ZM15 45.111v-14h22v14H15Z" clip-rule="evenodd"/><defs><filter id="a" width="78" height="78" x="-5" y="-12.889" color-interpolation-filters="sRGB" filterUnits="userSpaceOnUse"><feFlood flood-opacity="0" result="BackgroundImageFix"/><feGaussianBlur in="BackgroundImage" stdDeviation="6.5"/><feComposite in2="SourceAlpha" operator="in" result="effect1_backgroundBlur"/><feBlend in="SourceGraphic" in2="effect1_backgroundBlur" result="shape"/></filter><filter id="b" width="64" height="64" x="-6" y="2.111" color-interpolation-filters="sRGB" filterUnits="userSpaceOnUse"><feFlood flood-opacity="0" result="BackgroundImageFix"/><feGaussianBlur in="BackgroundImage" stdDeviation="3"/><feComposite in2="SourceAlpha" operator="in" result="effect1_backgroundBlur"/><feBlend in="SourceGraphic" in2="effect1_backgroundBlur" result="shape"/></filter><filter id="c" width="48" height="48" x="2" y="10.111" color-interpolation-filters="sRGB" filterUnits="userSpaceOnUse"><feFlood flood-opacity="0" result="BackgroundImageFix"/><feBlend in="SourceGraphic" in2="BackgroundImageFix" result="shape"/><feGaussianBlur result="effect1_foregroundBlur" stdDeviation="5.5"/></filter></defs></svg>