<svg xmlns="http://www.w3.org/2000/svg" width="60" height="60" fill="none"><g filter="url(#a)"><rect width="52" height="52" x="8" fill="#2CCD65" fill-opacity=".27" rx="11"/></g><g filter="url(#b)"><rect width="52" height="52" y="8" fill="#2CCD65" fill-opacity=".33" rx="11"/></g><g filter="url(#c)"><path fill="#2CCD65" fill-rule="evenodd" d="M37.877 39.292A12.954 12.954 0 0 0 39 34c0-7.18-5.82-13-13-13s-13 5.82-13 13 5.82 13 13 13c4.97 0 9.29-2.79 11.477-6.89.2-.217.367-.48.472-.794l-.072-.024ZM15 34c0-.265.01-.528.028-.789C15.62 34.18 16.573 35 18 35c.983 0 1.904-.336 2.565-1.092.646-.738.935-1.752.935-2.908 0-1.202.166-1.605.306-1.8.153-.213.355-.334.916-.668l.293-.174c1.443-.867 2.38-2.085 2.855-3.309a5.25 5.25 0 0 0 .37-2.046c2.545.054 4.877.973 6.714 2.474-.685.223-1.394.517-2.018.89-.623.373-1.24.871-1.633 1.53-.416.7-.548 1.53-.252 2.42.435 1.302 1.157 2.326 1.676 3.061.142.2.268.38.37.538.261.407.352.644.368.817.011.121-.003.318-.265.667-.861 1.148-1.202 2.284-1.092 3.29.109.999.664 1.814 1.445 2.204.413.207.963.316 1.482.367.376.037.786.048 1.203.028a10.974 10.974 0 0 1-9.074 3.68 4.457 4.457 0 0 0 .503-1.577c.17-1.297-.123-2.778-.813-3.912-1.07-1.757-2.814-2.867-5.033-2.464-1.047.19-2.082.803-2.841 1.468a6.243 6.243 0 0 0-.685.698A10.952 10.952 0 0 1 15 34Zm2.505 6.99a11.012 11.012 0 0 0 5.28 3.533c.424-.12.787-.536.9-1.392.112-.86-.094-1.88-.54-2.611-.746-1.227-1.748-1.758-2.966-1.536-.583.106-1.298.494-1.881 1.004a3.697 3.697 0 0 0-.645.713 1.136 1.136 0 0 0-.148.288Zm-.952-9.162c-.331-.711-.502-1.62-.543-2.438a11.014 11.014 0 0 1 8.233-6.25c.002.331-.063.736-.238 1.186-.317.817-.963 1.683-2.02 2.316-.077.047-.158.094-.242.143-.523.304-1.143.665-1.561 1.248-.523.727-.682 1.67-.682 2.967 0 .844-.211 1.33-.44 1.592-.214.244-.543.408-1.06.408-.59 0-1.066-.353-1.447-1.172Zm19.311 7.046a1.438 1.438 0 0 1-.156.088c-.278.136-.672.24-1.137.295a6.415 6.415 0 0 1-1.34.013c-.434-.042-.697-.12-.784-.164-.114-.057-.308-.242-.35-.632-.042-.381.064-1.022.703-1.874.488-.65.724-1.33.657-2.052-.063-.67-.377-1.246-.678-1.714-.17-.263-.343-.51-.516-.757-.496-.706-.983-1.399-1.314-2.393-.104-.311-.06-.539.072-.763.158-.263.466-.553.942-.838.764-.457 1.762-.786 2.608-.979A10.954 10.954 0 0 1 37 34c0 1.75-.409 3.405-1.136 4.874Z" clip-rule="evenodd"/></g><path fill="#20293A" fill-opacity=".8" d="M24 30a1 1 0 0 1 1 1v.17c1.165.412 2 1.524 2 2.83a1 1 0 1 1-2 0 1 1 0 1 0-1 1 3 3 0 0 1 1 5.83V41a1 1 0 1 1-2 0v-.17A3.001 3.001 0 0 1 21 38a1 1 0 1 1 2 0 1 1 0 1 0 1-1 3 3 0 0 1-1-5.83V31a1 1 0 0 1 1-1Z"/><path fill="#20293A" fill-opacity=".8" fill-rule="evenodd" d="M19.73 25.86C21.62 23.356 24.275 21 28 21c6.075 0 11 4.925 11 11 0 1.888-.737 3.743-1.746 5.33a15.529 15.529 0 0 1-3.584 3.917A10.998 10.998 0 0 1 24 47c-6.075 0-11-4.925-11-11 0-4.561 2.776-8.474 6.73-10.14Zm3.428-.828C24.53 23.797 26.118 23 28 23a9 9 0 0 1 9 9c0 1.383-.549 2.865-1.433 4.256-.196.308-.406.608-.627.897.04-.379.06-.764.06-1.153 0-6.075-4.925-11-11-11-.283 0-.564.01-.842.032ZM24 27a9 9 0 1 0 0 18 9 9 0 0 0 0-18Z" clip-rule="evenodd"/><defs><filter id="a" width="78" height="78" x="-5" y="-13" color-interpolation-filters="sRGB" filterUnits="userSpaceOnUse"><feFlood flood-opacity="0" result="BackgroundImageFix"/><feGaussianBlur in="BackgroundImage" stdDeviation="6.5"/><feComposite in2="SourceAlpha" operator="in" result="effect1_backgroundBlur"/><feBlend in="SourceGraphic" in2="effect1_backgroundBlur" result="shape"/></filter><filter id="b" width="66" height="66" x="-7" y="1" color-interpolation-filters="sRGB" filterUnits="userSpaceOnUse"><feFlood flood-opacity="0" result="BackgroundImageFix"/><feGaussianBlur in="BackgroundImage" stdDeviation="3.5"/><feComposite in2="SourceAlpha" operator="in" result="effect1_backgroundBlur"/><feBlend in="SourceGraphic" in2="effect1_backgroundBlur" result="shape"/></filter><filter id="c" width="48" height="48" x="2" y="10" color-interpolation-filters="sRGB" filterUnits="userSpaceOnUse"><feFlood flood-opacity="0" result="BackgroundImageFix"/><feBlend in="SourceGraphic" in2="BackgroundImageFix" result="shape"/><feGaussianBlur result="effect1_foregroundBlur" stdDeviation="5.5"/></filter></defs></svg>