<svg xmlns="http://www.w3.org/2000/svg" width="60" height="61" fill="none"><g filter="url(#a)"><rect width="52" height="52" x="8" y=".58" fill="#D1DDEE" rx="11"/></g><g filter="url(#b)"><rect width="52" height="52" y="8.58" fill="#2096EC" fill-opacity=".33" rx="11"/></g><g filter="url(#c)"><path fill="#fff" fill-rule="evenodd" d="M37.877 39.873A12.954 12.954 0 0 0 39 34.58c0-7.18-5.82-13-13-13s-13 5.82-13 13 5.82 13 13 13c4.97 0 9.29-2.79 11.477-6.89.2-.217.367-.48.472-.794l-.072-.023ZM15 34.58c0-.265.01-.528.028-.789.592.968 1.545 1.79 2.972 1.79.983 0 1.904-.337 2.565-1.092.646-.739.935-1.753.935-2.909 0-1.202.166-1.605.306-1.8.153-.213.355-.334.916-.668l.293-.174c1.443-.867 2.38-2.084 2.855-3.309a5.25 5.25 0 0 0 .37-2.046c2.545.054 4.877.973 6.714 2.474-.685.223-1.394.517-2.018.89-.623.373-1.24.871-1.633 1.53-.416.7-.548 1.53-.252 2.42.435 1.302 1.157 2.326 1.676 3.061.142.201.268.38.37.538.261.407.352.644.368.817.011.121-.003.318-.265.667-.861 1.148-1.202 2.284-1.092 3.29.109 1 .664 1.814 1.445 2.204.413.207.963.316 1.482.367.376.037.786.048 1.203.029a10.974 10.974 0 0 1-9.074 3.679 4.457 4.457 0 0 0 .503-1.577c.17-1.297-.123-2.778-.813-3.912-1.07-1.757-2.814-2.867-5.033-2.464-1.047.19-2.082.803-2.841 1.468a6.235 6.235 0 0 0-.685.698A10.952 10.952 0 0 1 15 34.58Zm2.505 6.99a11.012 11.012 0 0 0 5.28 3.533c.424-.12.787-.536.9-1.391.112-.862-.094-1.881-.54-2.612-.746-1.227-1.748-1.758-2.966-1.536-.583.106-1.298.494-1.881 1.005a3.697 3.697 0 0 0-.645.712 1.135 1.135 0 0 0-.148.288Zm-.952-9.162c-.331-.711-.502-1.62-.543-2.439a11.014 11.014 0 0 1 8.233-6.25c.002.332-.063.737-.238 1.187-.317.817-.963 1.683-2.02 2.317l-.242.142c-.523.304-1.143.665-1.561 1.248-.523.727-.682 1.67-.682 2.967 0 .844-.211 1.33-.44 1.592-.214.244-.543.408-1.06.408-.59 0-1.066-.353-1.447-1.172Zm19.311 7.046a1.455 1.455 0 0 1-.156.088c-.278.136-.672.24-1.137.295a6.422 6.422 0 0 1-1.34.013c-.434-.042-.697-.12-.784-.164-.114-.057-.308-.242-.35-.632-.042-.381.064-1.022.703-1.874.488-.65.724-1.33.657-2.051-.063-.672-.377-1.247-.678-1.715-.17-.263-.343-.51-.516-.757-.496-.706-.983-1.399-1.314-2.393-.104-.311-.06-.539.072-.763.158-.263.466-.553.942-.838.764-.457 1.762-.786 2.608-.979A10.954 10.954 0 0 1 37 34.58c0 1.75-.409 3.405-1.136 4.874Z" clip-rule="evenodd"/></g><path fill="#20293A" fill-opacity=".8" fill-rule="evenodd" d="M31.376 27.654a1 1 0 0 1 .55 1.302v.002l-.002.005-.005.013-.02.046-.07.163c-.06.138-.15.331-.262.56a14.06 14.06 0 0 1-.954 1.659c-.395.583-.907 1.215-1.518 1.656-.62.448-1.469.783-2.411.469-.89-.297-1.298-1.014-1.518-1.403l-.032-.055c-.259-.452-.329-.503-.436-.537-.108-.035-.298-.038-.627.143-.33.18-.688.489-1.037.864a10.104 10.104 0 0 0-1.158 1.524l-.014.023-.003.004a1 1 0 0 1-1.718-1.023l.001-.003.002-.003.007-.011.022-.037a10.529 10.529 0 0 1 .372-.56c.246-.352.6-.821 1.025-1.278.419-.448.944-.927 1.539-1.254.595-.326 1.37-.557 2.193-.296.906.287 1.317 1.01 1.54 1.401l.028.05c.261.457.333.516.446.554.106.035.28.044.607-.192.336-.243.694-.655 1.036-1.16a12.997 12.997 0 0 0 1.098-2.037l.014-.031.002-.007m1.303-.551a1 1 0 0 0-1.303.55l1.303-.55Z" clip-rule="evenodd"/><path fill="#20293A" fill-opacity=".8" fill-rule="evenodd" d="M26 21.58a1 1 0 0 1 1 1v1h11a1 1 0 1 1 0 2h-1v7a7 7 0 0 1-7 7h-3v2.741a8.113 8.113 0 0 0 1.207 1.552c.891.891 2.152 1.707 3.793 1.707a1 1 0 1 1 0 2c-2.359 0-4.098-1.184-5.207-2.293a9.956 9.956 0 0 1-.793-.896 9.956 9.956 0 0 1-.793.896C24.098 46.397 22.36 47.58 20 47.58a1 1 0 1 1 0-2c1.641 0 2.902-.816 3.793-1.707A8.113 8.113 0 0 0 25 42.321v-2.74h-3a7 7 0 0 1-7-7v-7h-1a1 1 0 1 1 0-2h11v-1a1 1 0 0 1 1-1Zm-9 4h18v7a5 5 0 0 1-5 5h-8a5 5 0 0 1-5-5v-7Z" clip-rule="evenodd"/><defs><filter id="a" width="78" height="78" x="-5" y="-12.42" color-interpolation-filters="sRGB" filterUnits="userSpaceOnUse"><feFlood flood-opacity="0" result="BackgroundImageFix"/><feGaussianBlur in="BackgroundImage" stdDeviation="6.5"/><feComposite in2="SourceAlpha" operator="in" result="effect1_backgroundBlur"/><feBlend in="SourceGraphic" in2="effect1_backgroundBlur" result="shape"/></filter><filter id="b" width="64" height="64" x="-6" y="2.58" color-interpolation-filters="sRGB" filterUnits="userSpaceOnUse"><feFlood flood-opacity="0" result="BackgroundImageFix"/><feGaussianBlur in="BackgroundImage" stdDeviation="3"/><feComposite in2="SourceAlpha" operator="in" result="effect1_backgroundBlur"/><feBlend in="SourceGraphic" in2="effect1_backgroundBlur" result="shape"/></filter><filter id="c" width="48" height="48" x="2" y="10.58" color-interpolation-filters="sRGB" filterUnits="userSpaceOnUse"><feFlood flood-opacity="0" result="BackgroundImageFix"/><feBlend in="SourceGraphic" in2="BackgroundImageFix" result="shape"/><feGaussianBlur result="effect1_foregroundBlur" stdDeviation="5.5"/></filter></defs></svg>