<svg xmlns="http://www.w3.org/2000/svg" width="60" height="60" fill="none"><g filter="url(#a)"><rect width="52" height="52" x="8" fill="#EEE" rx="11"/></g><g filter="url(#b)"><rect width="52" height="52" y="8" fill="#FFD34A" fill-opacity=".56" rx="11"/></g><g filter="url(#c)"><path fill="#CC8B09" fill-rule="evenodd" d="M37.877 39.292A12.954 12.954 0 0 0 39 34c0-7.18-5.82-13-13-13s-13 5.82-13 13 5.82 13 13 13c4.97 0 9.29-2.79 11.477-6.89.2-.217.367-.48.472-.794l-.072-.024ZM15 34c0-.265.01-.528.028-.789C15.62 34.18 16.573 35 18 35c.983 0 1.904-.336 2.565-1.092.646-.738.935-1.752.935-2.908 0-1.202.166-1.605.306-1.8.153-.213.355-.334.916-.668l.293-.174c1.443-.867 2.38-2.085 2.855-3.309a5.25 5.25 0 0 0 .37-2.046c2.545.054 4.877.973 6.714 2.474-.685.223-1.394.517-2.018.89-.623.373-1.24.871-1.633 1.53-.416.7-.548 1.53-.252 2.42.435 1.302 1.157 2.326 1.676 3.061.142.2.268.38.37.538.261.407.352.644.368.817.011.121-.003.318-.265.667-.861 1.148-1.202 2.284-1.092 3.29.109.999.664 1.814 1.445 2.204.413.207.963.316 1.482.367.376.037.786.048 1.203.028a10.974 10.974 0 0 1-9.074 3.68 4.457 4.457 0 0 0 .503-1.577c.17-1.297-.123-2.778-.813-3.912-1.07-1.757-2.814-2.867-5.033-2.464-1.047.19-2.082.803-2.841 1.468a6.243 6.243 0 0 0-.685.698A10.952 10.952 0 0 1 15 34Zm2.505 6.99a11.012 11.012 0 0 0 5.28 3.533c.424-.12.787-.536.9-1.392.112-.86-.094-1.88-.54-2.611-.746-1.227-1.748-1.758-2.966-1.536-.583.106-1.298.494-1.881 1.004a3.697 3.697 0 0 0-.645.713 1.136 1.136 0 0 0-.148.288Zm-.952-9.162c-.331-.711-.502-1.62-.543-2.438a11.014 11.014 0 0 1 8.233-6.25c.002.331-.063.736-.238 1.186-.317.817-.963 1.683-2.02 2.316-.077.047-.158.094-.242.143-.523.304-1.143.665-1.561 1.248-.523.727-.682 1.67-.682 2.967 0 .844-.211 1.33-.44 1.592-.214.244-.543.408-1.06.408-.59 0-1.066-.353-1.447-1.172Zm19.311 7.046a1.438 1.438 0 0 1-.156.088c-.278.136-.672.24-1.137.295a6.415 6.415 0 0 1-1.34.013c-.434-.042-.697-.12-.784-.164-.114-.057-.308-.242-.35-.632-.042-.381.064-1.022.703-1.874.488-.65.724-1.33.657-2.052-.063-.67-.377-1.246-.678-1.714-.17-.263-.343-.51-.516-.757-.496-.706-.983-1.399-1.314-2.393-.104-.311-.06-.539.072-.763.158-.263.466-.553.942-.838.764-.457 1.762-.786 2.608-.979A10.954 10.954 0 0 1 37 34c0 1.75-.409 3.405-1.136 4.874Z" clip-rule="evenodd"/></g><path fill="#20293A" fill-opacity=".8" d="M26 31a1 1 0 0 1 1 1v.17c1.165.413 2 1.524 2 2.83a1 1 0 1 1-2 0 1 1 0 1 0-1 1 3 3 0 0 1 1 5.83V42a1 1 0 1 1-2 0v-.17A3.001 3.001 0 0 1 23 39a1 1 0 1 1 2 0 1 1 0 1 0 1-1 3 3 0 0 1-1-5.83V32a1 1 0 0 1 1-1Z"/><path fill="#20293A" fill-opacity=".8" fill-rule="evenodd" d="M21 28.4a14.737 14.737 0 0 1-1.189-1.444c-.331-.464-.681-1.029-.869-1.593-.174-.523-.317-1.403.35-2.07.415-.414.895-.626 1.409-.651.461-.023.87.112 1.138.208l.27.1c.151.058.25.095.365.121a.458.458 0 0 0 .113.016c.008 0 .009-.001.009-.002.044-.02.113-.064.242-.22.064-.078.127-.162.21-.274l.011-.015c.083-.112.186-.25.301-.386a3.274 3.274 0 0 1 1.01-.829c.458-.236.994-.361 1.63-.361.636 0 1.172.125 1.63.361.455.235.772.547 1.01.829.115.137.218.274.3.386l.012.015c.083.112.146.196.21.273.129.157.198.202.242.221l.003.001a.49.49 0 0 0 .128-.015c.12-.027.222-.066.38-.125.074-.028.16-.06.265-.097.266-.095.678-.23 1.137-.207.517.025.998.242 1.405.666.645.673.49 1.547.317 2.06-.189.559-.535 1.121-.864 1.585a14.936 14.936 0 0 1-1.177 1.445c1.263 1.245 2.509 2.89 3.521 4.546.704 1.15 1.316 2.337 1.755 3.446.43 1.089.726 2.179.726 3.11 0 2.494-1.37 4.41-3.407 5.656C31.583 46.386 28.886 47 26 47s-5.582-.613-7.593-1.844C16.37 43.91 15 41.994 15 39.5c0-.931.295-2.021.726-3.11.44-1.109 1.05-2.296 1.755-3.447C18.493 31.29 19.738 29.645 21 28.4Zm2.404-3.485c.456-.202.762-.517.977-.777.097-.118.188-.241.264-.343l.019-.025c.084-.114.154-.206.226-.291.137-.164.257-.268.396-.34.136-.07.35-.139.714-.139s.578.07.714.14c.139.07.259.175.396.339.072.085.142.177.226.291l.02.025c.075.102.166.225.263.343.215.26.521.575.977.777.515.227 1.005.191 1.38.106.264-.06.551-.167.746-.24a7.99 7.99 0 0 1 .13-.048c.17-.061.265-.084.319-.091a1.48 1.48 0 0 1-.027.085c-.096.284-.31.659-.6 1.07a12.961 12.961 0 0 1-1.081 1.316A.999.999 0 0 0 29 27h-6a1 1 0 0 0-.464.114 14.2 14.2 0 0 1-1.097-1.32c-.294-.411-.506-.784-.6-1.063a1.39 1.39 0 0 1-.027-.092c.044 0 .138.017.349.092l.128.048c.191.073.477.182.737.241.376.087.864.122 1.378-.105Zm7.788-.38a.047.047 0 0 1 0-.017v.017Zm-10.397-.001c.001 0 .002.006 0 .017v-.017ZM23.332 29c-1.344 1.05-2.894 2.943-4.146 4.988-.657 1.073-1.212 2.157-1.6 3.138-.395.998-.586 1.814-.586 2.374 0 1.648.869 2.982 2.45 3.95C21.06 44.434 23.364 45 26 45s4.94-.566 6.55-1.55c1.582-.968 2.45-2.302 2.45-3.95 0-.56-.19-1.376-.586-2.374-.388-.98-.943-2.065-1.6-3.138-1.252-2.045-2.802-3.938-4.146-4.988h-5.336Z" clip-rule="evenodd"/><defs><filter id="a" width="78" height="78" x="-5" y="-13" color-interpolation-filters="sRGB" filterUnits="userSpaceOnUse"><feFlood flood-opacity="0" result="BackgroundImageFix"/><feGaussianBlur in="BackgroundImage" stdDeviation="6.5"/><feComposite in2="SourceAlpha" operator="in" result="effect1_backgroundBlur"/><feBlend in="SourceGraphic" in2="effect1_backgroundBlur" result="shape"/></filter><filter id="b" width="64" height="64" x="-6" y="2" color-interpolation-filters="sRGB" filterUnits="userSpaceOnUse"><feFlood flood-opacity="0" result="BackgroundImageFix"/><feGaussianBlur in="BackgroundImage" stdDeviation="3"/><feComposite in2="SourceAlpha" operator="in" result="effect1_backgroundBlur"/><feBlend in="SourceGraphic" in2="effect1_backgroundBlur" result="shape"/></filter><filter id="c" width="48" height="48" x="2" y="10" color-interpolation-filters="sRGB" filterUnits="userSpaceOnUse"><feFlood flood-opacity="0" result="BackgroundImageFix"/><feBlend in="SourceGraphic" in2="BackgroundImageFix" result="shape"/><feGaussianBlur result="effect1_foregroundBlur" stdDeviation="5.5"/></filter></defs></svg>