<svg width="35" height="29" fill="none" xmlns="http://www.w3.org/2000/svg"><path fill-rule="evenodd" clip-rule="evenodd" d="M3.883 3.685c-.904.84-1.525 2.214-1.525 4.41v8.095c0 1.587.325 2.74.834 3.566.5.81 1.225 1.382 2.182 1.74a4.938 4.938 0 0 0 .968.255 8.022 8.022 0 0 0 1.753.176H21.91c1.894 0 3.292-.474 4.212-1.328.904-.839 1.525-2.213 1.525-4.41V8.096c0-.646-.067-1.216-.168-1.796-.288-1.435-.936-2.375-1.809-2.977-.9-.623-2.154-.964-3.76-.964H8.095c-1.894 0-3.293.473-4.212 1.327ZM2.279 1.958C3.779.564 5.839 0 8.095 0H21.91c1.915 0 3.687.405 5.1 1.382 1.44.995 2.394 2.504 2.784 4.472l.005.026c.117.673.206 1.388.206 2.215v8.095c0 2.645-.762 4.728-2.279 6.137-1.5 1.394-3.56 1.957-5.816 1.957H8.095c-.763 0-1.515-.066-2.235-.225a7.328 7.328 0 0 1-1.296-.349l-.01-.003c-1.398-.522-2.565-1.41-3.368-2.713C.39 19.704 0 18.09 0 16.19V8.095c0-2.646.762-4.729 2.279-6.137Z" fill="url(#a)"/><path fill-rule="evenodd" clip-rule="evenodd" d="M27.807 5.247c.282-.28.686-.4 1.075-.317 1.708.36 3.204 1.166 4.262 2.535 1.052 1.363 1.578 3.163 1.578 5.345v8.095c0 2.645-.762 4.729-2.279 6.137C30.942 28.436 28.883 29 26.627 29H12.81c-1.262 0-2.463-.17-3.542-.578-2.272-.841-3.81-2.617-4.342-5.29a1.179 1.179 0 0 1 1.415-1.38 8.022 8.022 0 0 0 1.753.175h13.816c1.894 0 3.293-.474 4.212-1.328.904-.839 1.525-2.213 1.525-4.41V8.096c0-.671-.057-1.25-.164-1.775a1.18 1.18 0 0 1 .323-1.073Zm2.196 2.57c.002.092.003.185.003.278v8.095c0 2.645-.762 4.729-2.279 6.137-1.5 1.394-3.56 1.958-5.816 1.958H8.095c-.098 0-.196-.002-.294-.004.519.95 1.3 1.565 2.29 1.931l.01.004c.743.282 1.647.426 2.71.426h13.816c1.894 0 3.292-.473 4.212-1.327.903-.84 1.525-2.214 1.525-4.41V12.81c0-1.81-.433-3.058-1.086-3.904a4.135 4.135 0 0 0-1.275-1.088Z" fill="url(#b)"/><path fill-rule="evenodd" clip-rule="evenodd" d="M14.992 9.18a2.97 2.97 0 1 0 0 5.94 2.97 2.97 0 0 0 0-5.94Zm-5.328 2.97a5.328 5.328 0 1 1 10.657 0 5.328 5.328 0 0 1-10.657 0Z" fill="url(#c)"/><path fill-rule="evenodd" clip-rule="evenodd" d="M6.005 7.513c.651 0 1.179.528 1.179 1.179v6.916a1.179 1.179 0 1 1-2.358 0V8.692c0-.651.528-1.179 1.179-1.179Z" fill="url(#d)"/><path fill-rule="evenodd" clip-rule="evenodd" d="M23.988 7.514c.65 0 1.178.527 1.178 1.179v6.915a1.179 1.179 0 1 1-2.357 0V8.694c0-.652.527-1.18 1.178-1.18Z" fill="url(#e)"/><defs><linearGradient id="a" x1="15.003" y1="0" x2="15.003" y2="24.284" gradientUnits="userSpaceOnUse"><stop stop-color="#DF2C56"/><stop offset="1" stop-color="#C81F47"/></linearGradient><linearGradient id="b" x1="19.813" y1="4.904" x2="19.813" y2="29" gradientUnits="userSpaceOnUse"><stop stop-color="#DF2C56"/><stop offset="1" stop-color="#C81F47"/></linearGradient><linearGradient id="c" x1="14.992" y1="6.821" x2="14.992" y2="17.478" gradientUnits="userSpaceOnUse"><stop stop-color="#DF2C56"/><stop offset="1" stop-color="#C81F47"/></linearGradient><linearGradient id="d" x1="6.005" y1="7.513" x2="6.005" y2="16.787" gradientUnits="userSpaceOnUse"><stop stop-color="#DF2C56"/><stop offset="1" stop-color="#C81F47"/></linearGradient><linearGradient id="e" x1="23.988" y1="7.514" x2="23.988" y2="16.787" gradientUnits="userSpaceOnUse"><stop stop-color="#DF2C56"/><stop offset="1" stop-color="#C81F47"/></linearGradient></defs></svg>