<svg width="20" height="21" fill="none" xmlns="http://www.w3.org/2000/svg"><path fill-rule="evenodd" clip-rule="evenodd" d="M3.615 3a2.5 2.5 0 0 1 2.39 1.765l.034.11h10.045c1.128 0 2 .988 1.86 2.108l-.329 2.634a1.875 1.875 0 0 1-1.62 1.627l-8.34 1.076a1.755 1.755 0 0 1-.367.4.508.508 0 0 0 .318.905h8.644a.625.625 0 1 1 0 1.25H7.606c-1.662 0-2.396-2.093-1.098-3.132a.508.508 0 0 0 .168-.546L4.81 5.132a1.25 1.25 0 0 0-1.195-.882H2.5A.625.625 0 1 1 2.5 3h1.115Zm4.304 8.025 7.916-1.021a.625.625 0 0 0 .54-.542l.33-2.634a.625.625 0 0 0-.621-.703h-9.66l1.447 4.704c.02.065.036.13.048.196Z" fill="#20293A"/><path d="M5.625 16.75a1.25 1.25 0 1 1 2.5 0 1.25 1.25 0 0 1-2.5 0ZM14.375 15.5a1.25 1.25 0 1 0 0 2.5 1.25 1.25 0 0 0 0-2.5Z" fill="#20293A"/></svg>