<svg width="20" height="21" fill="none" xmlns="http://www.w3.org/2000/svg"><path fill-rule="evenodd" clip-rule="evenodd" d="M10.442 3.7a.625.625 0 0 0-.884 0L3.755 9.505a1.875 1.875 0 0 0-.543 1.47l.448 5.824a.625.625 0 0 0 .623.577h3.842V14.25a1.875 1.875 0 0 1 3.75 0v3.125h3.843a.625.625 0 0 0 .623-.577l.448-5.825a1.875 1.875 0 0 0-.544-1.47l-5.803-5.802Zm-1.768-.883a1.875 1.875 0 0 1 2.652 0L17.13 8.62c.645.645.976 1.54.906 2.45l-.448 5.824a1.875 1.875 0 0 1-1.87 1.73h-3.842c-.69 0-1.25-.559-1.25-1.25V14.25a.625.625 0 1 0-1.25 0v3.125c0 .69-.56 1.25-1.25 1.25H4.283c-.98 0-1.795-.755-1.87-1.731l-.448-5.825c-.07-.91.261-1.804.906-2.45l5.803-5.802Z" fill="#20293A"/></svg>