<svg width="20" height="21" fill="none" xmlns="http://www.w3.org/2000/svg"><path d="M6.25 4.875c0 .345-.28.625-.625.625H5a.625.625 0 1 1 0-1.25h.625c.345 0 .625.28.625.625ZM8.125 5.5a.625.625 0 1 0 0-1.25H7.5a.625.625 0 1 0 0 1.25h.625Z" fill="#20293A"/><path fill-rule="evenodd" clip-rule="evenodd" d="M5.625 11.125c0-.345.28-.625.625-.625H7.5a2.5 2.5 0 1 1 5 0h1.25c.345 0 .625.28.625.625V15.5c0 .345-.28.625-.625.625h-7.5a.625.625 0 0 1-.625-.625v-4.375Zm5.625.625a.625.625 0 0 0 1.25 0h.625v3.125h-6.25V11.75H7.5a.625.625 0 1 0 1.25 0h2.5Zm0-1.25a1.25 1.25 0 1 0-2.5 0h2.5Z" fill="#20293A"/><path fill-rule="evenodd" clip-rule="evenodd" d="M4.375 2.375a2.5 2.5 0 0 0-2.5 2.5V18c0 .345.28.625.625.625h15c.345 0 .625-.28.625-.625V4.875a2.5 2.5 0 0 0-2.5-2.5H4.375Zm-1.25 5H15a.625.625 0 1 0 0-1.25H3.125v-1.25c0-.69.56-1.25 1.25-1.25h11.25c.69 0 1.25.56 1.25 1.25v12.5H3.125v-10Z" fill="#20293A"/></svg>