<svg width="20" height="21" fill="none" xmlns="http://www.w3.org/2000/svg"><path fill-rule="evenodd" clip-rule="evenodd" d="M9.696 2.315a.75.75 0 0 1 .609 0l7.5 3.333a.75.75 0 0 1 0 1.37l-7.5 3.334a.75.75 0 0 1-.61 0l-7.5-3.333a.75.75 0 0 1 0-1.371l7.5-3.333Zm-5.35 4.018L10 8.846l5.653-2.513L10 3.821 4.347 6.333Zm-2.531 3.862a.75.75 0 0 1 .99-.38L10 13.013l7.196-3.198a.75.75 0 1 1 .609 1.37l-7.5 3.334a.75.75 0 0 1-.61 0l-7.5-3.334a.75.75 0 0 1-.38-.99Zm.99 3.786a.75.75 0 1 0-.61 1.371l7.5 3.333a.75.75 0 0 0 .61 0l7.5-3.333a.75.75 0 1 0-.61-1.37L10 17.178l-7.195-3.198Z" fill="#20293A"/></svg>