<svg width="20" height="21" fill="none" xmlns="http://www.w3.org/2000/svg"><path fill-rule="evenodd" clip-rule="evenodd" d="M6.25 4.25C6.25 3.56 6.81 3 7.5 3h.478a1.87 1.87 0 0 1 1.397-.625A1.87 1.87 0 0 1 10.773 3h.477c.69 0 1.25.56 1.25 1.25h1.25c1.036 0 1.875.84 1.875 1.875V9.25a.625.625 0 1 1-1.25 0V6.125a.625.625 0 0 0-.625-.625H12.5c0 .69-.56 1.25-1.25 1.25H7.5c-.69 0-1.25-.56-1.25-1.25H5a.625.625 0 0 0-.625.625v10c0 .345.28.625.625.625h2.5a.625.625 0 1 1 0 1.25H5a1.875 1.875 0 0 1-1.875-1.875v-10c0-1.036.84-1.875 1.875-1.875h1.25Zm2.583-.312a.625.625 0 0 1 1.084 0l.18.312h1.153V5.5H7.5V4.25h1.153l.18-.312Z" fill="#20293A"/><path d="M14.817 13.442a.625.625 0 1 0-.884-.884l-2.058 2.058-.808-.808a.625.625 0 1 0-.884.884l1.25 1.25c.244.244.64.244.884 0l2.5-2.5Z" fill="#20293A"/><path fill-rule="evenodd" clip-rule="evenodd" d="M8.125 14.25a4.375 4.375 0 1 1 8.75 0 4.375 4.375 0 0 1-8.75 0Zm4.375-3.125a3.125 3.125 0 1 0 0 6.25 3.125 3.125 0 0 0 0-6.25Z" fill="#20293A"/></svg>