<svg width="32" height="32" viewBox="0 0 32 32" fill="none" xmlns="http://www.w3.org/2000/svg">
<path fill-rule="evenodd" clip-rule="evenodd" d="M1.59998 15.9996C1.59998 8.04761 8.04798 1.59961 16 1.59961C23.952 1.59961 30.4 8.04761 30.4 15.9996C30.4 23.9516 23.952 30.3996 16 30.3996C8.04798 30.3996 1.59998 23.9516 1.59998 15.9996ZM20.16 11.8396C20.16 9.55161 18.288 7.67961 16 7.67961C13.712 7.67961 11.84 9.55161 11.84 11.8396C11.84 14.1276 13.712 15.9996 16 15.9996C18.288 15.9996 20.16 14.1276 20.16 11.8396ZM18.432 20.1436C19.024 19.9836 19.6 19.7756 20.16 19.5036C20.784 19.1836 21.04 18.4156 20.688 17.7916C20.384 17.1516 19.6 16.8956 18.976 17.2156C17.104 18.1596 14.848 18.1596 12.976 17.2156C12.352 16.8956 11.584 17.1516 11.264 17.7756C10.944 18.4156 11.2 19.1836 11.824 19.5036C12.384 19.7916 12.96 19.9996 13.552 20.1596L11.888 21.8236C11.392 22.3196 11.392 23.1356 11.888 23.6316C12.144 23.8716 12.48 23.9996 12.8 23.9996C13.12 23.9996 13.456 23.8716 13.712 23.6156L16 21.3276L18.288 23.6316C18.544 23.8716 18.88 23.9996 19.2 23.9996C19.52 23.9996 19.856 23.8716 20.096 23.6156C20.592 23.1196 20.592 22.3036 20.096 21.8076L18.432 20.1436ZM17.6 11.8395C17.6 12.7195 16.88 13.4395 16 13.4395C15.12 13.4395 14.4 12.7195 14.4 11.8395C14.4 10.9595 15.12 10.2395 16 10.2395C16.88 10.2395 17.6 10.9595 17.6 11.8395Z" fill="#EEEEEE"/>
</svg>
