<svg width="22" height="23" viewBox="0 0 22 23" fill="none" xmlns="http://www.w3.org/2000/svg">
<path d="M7.5625 6C7.1828 6 6.875 6.3078 6.875 6.6875V8.0625C6.875 8.4422 7.1828 8.75 7.5625 8.75H9.625C10.0047 8.75 10.3125 8.4422 10.3125 8.0625V6.6875C10.3125 6.3078 10.0047 6 9.625 6H7.5625Z" fill="#4135F1"/>
<path d="M6.1875 12.1875C6.1875 11.8078 6.4953 11.5 6.875 11.5H13.75C14.1297 11.5 14.4375 11.8078 14.4375 12.1875C14.4375 12.5672 14.1297 12.875 13.75 12.875H6.875C6.4953 12.875 6.1875 12.5672 6.1875 12.1875Z" fill="#4135F1"/>
<path d="M6.875 15.625C6.4953 15.625 6.1875 15.9328 6.1875 16.3125C6.1875 16.6922 6.4953 17 6.875 17H15.125C15.5047 17 15.8125 16.6922 15.8125 16.3125C15.8125 15.9328 15.5047 15.625 15.125 15.625H6.875Z" fill="#4135F1"/>
<path fill-rule="evenodd" clip-rule="evenodd" d="M6.1875 2.5625C5.04841 2.5625 4.125 3.48591 4.125 4.625V18.375C4.125 19.5141 5.04841 20.4375 6.1875 20.4375H15.8125C16.9516 20.4375 17.875 19.5141 17.875 18.375V8.2C17.875 5.08649 15.351 2.5625 12.2375 2.5625H6.1875ZM5.5 4.625C5.5 4.2453 5.8078 3.9375 6.1875 3.9375H11.55V7.375C11.55 8.51409 12.4734 9.4375 13.6125 9.4375H16.5V18.375C16.5 18.7547 16.1922 19.0625 15.8125 19.0625H6.1875C5.8078 19.0625 5.5 18.7547 5.5 18.375V4.625ZM12.925 7.375V3.99265C14.9082 4.31425 16.4326 6.00429 16.4978 8.0625H13.6125C13.2328 8.0625 12.925 7.7547 12.925 7.375Z" fill="#4135F1"/>
</svg>
