<svg width="100" height="71" viewBox="0 0 100 71" fill="none" xmlns="http://www.w3.org/2000/svg">
<path opacity="0.6" d="M99.9296 24.4258C99.8743 23.2569 99.8189 22.0324 99.7635 20.8635C99.3757 15.8539 98.8218 10.065 95.4984 6.05737C92.6734 2.60633 88.2976 1.82706 84.0879 1.38176C78.8257 0.769482 73.5082 0.43551 68.1907 0.212862C57.4449 -0.176772 46.699 0.0458756 35.9532 0.268524C30.4141 0.324186 24.9304 0.491172 19.3913 0.936468C12.6336 1.49309 5.65439 2.495 2.5525 9.28577C-0.272433 15.3529 0.0599126 23.0899 0.0045217 29.6024C0.0045217 35.5026 -0.0508692 41.4027 0.226085 47.2473C0.50304 54.873 1.00156 64.7808 9.14402 68.1205C13.5199 69.9017 18.782 70.2913 23.4903 70.6253C28.42 70.9593 33.4052 70.9036 38.335 70.9593C48.7485 71.1263 59.1066 70.7366 69.5201 70.5696C76.7209 70.4026 84.1432 70.347 91.0671 67.9535C97.0493 65.894 98.6003 59.4372 99.3757 53.7597C100.151 48.1378 99.985 42.4603 99.985 36.8385C99.9296 32.7751 100.04 28.6005 99.9296 24.4258Z" fill="#333333"/>
<path d="M65.7535 35.391C57.0018 30.2145 48.4716 25.2049 39.886 20.084C39.886 30.3258 39.886 40.4563 39.886 50.6424C48.527 45.5772 57.0572 40.5119 65.7535 35.391Z" fill="white"/>
</svg>
