<svg width="20" height="20" viewBox="0 0 20 20" fill="none" xmlns="http://www.w3.org/2000/svg">
<path fill-rule="evenodd" clip-rule="evenodd" d="M11.0008 4C11.0008 3.44772 10.5531 3 10.0008 3C9.44852 3 9.0008 3.44772 9.0008 4V9.00076H4C3.44772 9.00076 3 9.44847 3 10.0008C3 10.553 3.44772 11.0008 4 11.0008H9.0008V16.0015C9.0008 16.5538 9.44852 17.0015 10.0008 17.0015C10.5531 17.0015 11.0008 16.5538 11.0008 16.0015V11.0008H16.0015C16.5538 11.0008 17.0015 10.553 17.0015 10.0008C17.0015 9.44847 16.5538 9.00076 16.0015 9.00076H11.0008V4Z" fill="#7A6BDE"/>
</svg>
