<svg width="332" height="211" viewBox="0 0 332 211" fill="none" xmlns="http://www.w3.org/2000/svg">
<path d="M48.9639 34.5139C48.9639 27.3362 54.5306 21.5176 61.3975 21.5176H271.199C278.066 21.5176 283.632 27.3362 283.632 34.5139V180.071C283.632 187.248 278.066 193.067 271.199 193.067H61.3975C54.5306 193.067 48.9639 187.248 48.9639 180.071V34.5139Z" fill="#20293A"/>
<g filter="url(#filter0_b)">
<path d="M7.06897 64.8732C3.16489 64.8731 0.00180266 61.8662 0.00402635 58.1571L0.034867 6.71521C0.0370906 3.00611 3.20378 -0.000622334 7.10786 -0.000533846L102.5 0.00162824C106.404 0.00171672 109.567 3.00861 109.565 6.71771L109.534 58.1596C109.532 61.8687 106.365 64.8755 102.461 64.8754L7.06897 64.8732Z" fill="#2096EC" fill-opacity="0.14"/>
</g>
<g filter="url(#filter1_b)">
<path fill-rule="evenodd" clip-rule="evenodd" d="M0.329407 6.71522L0.298567 58.1571C0.296436 61.7117 3.32772 64.5933 7.06914 64.5934L102.461 64.5955C106.203 64.5956 109.237 61.7142 109.239 58.1596L109.27 6.7177C109.272 3.16315 106.241 0.281544 102.5 0.281459L7.1077 0.279297C3.36628 0.279212 0.331538 3.16067 0.329407 6.71522ZM0.00402635 58.1571C0.00180266 61.8662 3.16489 64.8731 7.06897 64.8732L102.461 64.8754C106.365 64.8755 109.532 61.8687 109.534 58.1596L109.565 6.71771C109.567 3.0086 106.404 0.00171672 102.5 0.00162824L7.10786 -0.000533846C3.20378 -0.000622334 0.0370906 3.00612 0.034867 6.71521L0.00402635 58.1571Z" fill="white"/>
<path fill-rule="evenodd" clip-rule="evenodd" d="M0.329407 6.71522L0.298567 58.1571C0.296436 61.7117 3.32772 64.5933 7.06914 64.5934L102.461 64.5955C106.203 64.5956 109.237 61.7142 109.239 58.1596L109.27 6.7177C109.272 3.16315 106.241 0.281544 102.5 0.281459L7.1077 0.279297C3.36628 0.279212 0.331538 3.16067 0.329407 6.71522ZM0.00402635 58.1571C0.00180266 61.8662 3.16489 64.8731 7.06897 64.8732L102.461 64.8754C106.365 64.8755 109.532 61.8687 109.534 58.1596L109.565 6.71771C109.567 3.0086 106.404 0.00171672 102.5 0.00162824L7.10786 -0.000533846C3.20378 -0.000622334 0.0370906 3.00612 0.034867 6.71521L0.00402635 58.1571Z" fill="url(#paint0_linear)"/>
</g>
<rect opacity="0.6" x="26.2729" y="9.49805" width="1.84915" height="47.3414" rx="0.924574" fill="white"/>
<g opacity="0.9" filter="url(#filter2_f)">
<rect x="32.7451" y="30.0703" width="2.77372" height="7.37285" rx="1" fill="white"/>
</g>
<rect x="32.7451" y="30.0703" width="2.77372" height="7.37285" rx="1" fill="white"/>
<rect opacity="0.7" x="33.6702" y="16.4844" width="0.92509" height="34.924" rx="0.462545" fill="white"/>
<g opacity="0.9" filter="url(#filter3_f)">
<rect x="39.6785" y="23.4707" width="2.77372" height="11.2533" rx="1" fill="white"/>
</g>
<rect x="39.6785" y="23.4707" width="2.77372" height="11.2533" rx="1" fill="white"/>
<rect opacity="0.7" x="40.6035" y="11.8281" width="0.92509" height="34.924" rx="0.462545" fill="white"/>
<g opacity="0.9" filter="url(#filter4_f)">
<rect x="46.6138" y="18.0391" width="2.77372" height="6.9848" rx="1" fill="white"/>
</g>
<rect x="46.6138" y="18.0391" width="2.77372" height="6.9848" rx="1" fill="white"/>
<rect opacity="0.7" x="47.5388" y="7.17383" width="0.92509" height="34.924" rx="0.462545" fill="white"/>
<g opacity="0.9" filter="url(#filter5_f)">
<rect x="53.5481" y="22.6953" width="2.77372" height="15.9098" rx="1" fill="white"/>
</g>
<rect x="53.5481" y="22.6953" width="2.77372" height="15.9098" rx="1" fill="white"/>
<rect opacity="0.7" x="54.4729" y="13.3809" width="0.92509" height="34.924" rx="0.462545" fill="white"/>
<g opacity="0.9" filter="url(#filter6_f)">
<rect x="60.4822" y="27.7383" width="2.77372" height="12.0294" rx="1" fill="white"/>
</g>
<rect x="60.4822" y="27.7383" width="2.77372" height="12.0294" rx="1" fill="white"/>
<rect opacity="0.7" x="61.4072" y="16.4844" width="0.92509" height="34.924" rx="0.462545" fill="white"/>
<g opacity="0.9" filter="url(#filter7_f)">
<rect x="67.4167" y="31.6191" width="2.77372" height="7.37285" rx="1" fill="white"/>
</g>
<rect x="67.4167" y="31.6191" width="2.77372" height="7.37285" rx="1" fill="white"/>
<rect opacity="0.7" x="68.3418" y="18.0391" width="0.92509" height="34.924" rx="0.462545" fill="white"/>
<g opacity="0.9" filter="url(#filter8_f)">
<rect x="74.3516" y="26.9629" width="2.77372" height="7.37285" rx="1" fill="white"/>
</g>
<rect x="74.3516" y="26.9629" width="2.77372" height="7.37285" rx="1" fill="white"/>
<rect opacity="0.7" x="75.2764" y="13.3809" width="0.92509" height="34.924" rx="0.462545" fill="white"/>
<rect opacity="0.6" x="83.5967" y="55.291" width="1.55218" height="56.399" rx="0.776089" transform="rotate(90 83.5967 55.291)" fill="white"/>
<g filter="url(#filter9_b)">
<path d="M197.115 205.02C191.977 205.02 187.815 201.03 187.818 196.109L187.859 127.859C187.862 122.938 192.029 118.949 197.167 118.949L322.698 118.952C327.835 118.952 331.998 122.942 331.995 127.863L331.954 196.113C331.951 201.034 327.783 205.023 322.646 205.023L197.115 205.02Z" fill="#2096EC" fill-opacity="0.14"/>
</g>
<g filter="url(#filter10_b)">
<path fill-rule="evenodd" clip-rule="evenodd" d="M188.247 127.859L188.205 196.109C188.203 200.825 192.192 204.648 197.115 204.648L322.646 204.651C327.57 204.651 331.563 200.828 331.566 196.113L331.607 127.863C331.61 123.147 327.621 119.324 322.697 119.324L197.167 119.321C192.243 119.321 188.249 123.144 188.247 127.859ZM187.818 196.109C187.815 201.03 191.977 205.02 197.115 205.02L322.646 205.023C327.783 205.023 331.951 201.034 331.954 196.113L331.995 127.863C331.998 122.942 327.835 118.952 322.698 118.952L197.167 118.949C192.029 118.949 187.862 122.938 187.859 127.859L187.818 196.109Z" fill="white"/>
<path fill-rule="evenodd" clip-rule="evenodd" d="M188.247 127.859L188.205 196.109C188.203 200.825 192.192 204.648 197.115 204.648L322.646 204.651C327.57 204.651 331.563 200.828 331.566 196.113L331.607 127.863C331.61 123.147 327.621 119.324 322.697 119.324L197.167 119.321C192.243 119.321 188.249 123.144 188.247 127.859ZM187.818 196.109C187.815 201.03 191.977 205.02 197.115 205.02L322.646 205.023C327.783 205.023 331.951 201.034 331.954 196.113L331.995 127.863C331.998 122.942 327.835 118.952 322.698 118.952L197.167 118.949C192.029 118.949 187.862 122.938 187.859 127.859L187.818 196.109Z" fill="url(#paint1_linear)"/>
</g>
<g opacity="0.9" filter="url(#filter11_f)">
<path d="M286.794 161.691C287.899 161.691 288.801 162.588 288.726 163.69C288.402 168.45 286.923 173.07 284.406 177.145C281.537 181.787 277.432 185.538 272.552 187.975C267.672 190.413 262.211 191.441 256.78 190.944C251.349 190.448 246.163 188.446 241.805 185.164C237.448 181.881 234.09 177.448 232.109 172.362C230.128 167.275 229.602 161.737 230.59 156.368C231.579 151 234.042 146.013 237.704 141.967C240.917 138.417 244.941 135.716 249.419 134.086C250.458 133.708 251.57 134.327 251.875 135.389L252.918 139.009C253.223 140.07 252.607 141.169 251.579 141.572C248.482 142.786 245.699 144.703 243.454 147.183C240.76 150.159 238.948 153.827 238.222 157.776C237.495 161.725 237.881 165.799 239.339 169.54C240.796 173.282 243.266 176.542 246.471 178.957C249.676 181.371 253.491 182.844 257.485 183.209C261.48 183.574 265.498 182.818 269.087 181.025C272.677 179.232 275.696 176.473 277.806 173.058C279.565 170.212 280.635 167.003 280.942 163.689C281.044 162.589 281.93 161.691 283.035 161.691H286.794Z" fill="white"/>
</g>
<path opacity="0.8" d="M286.794 161.691C287.899 161.691 288.801 162.588 288.726 163.69C288.402 168.45 286.923 173.07 284.406 177.145C281.537 181.787 277.432 185.538 272.552 187.975C267.672 190.413 262.211 191.441 256.78 190.944C251.349 190.448 246.163 188.446 241.805 185.164C237.448 181.881 234.09 177.448 232.109 172.362C230.128 167.275 229.602 161.737 230.59 156.368C231.579 151 234.042 146.013 237.704 141.967C240.917 138.417 244.941 135.716 249.419 134.086C250.458 133.708 251.57 134.327 251.875 135.389L252.918 139.009C253.223 140.07 252.607 141.169 251.579 141.572C248.482 142.786 245.699 144.703 243.454 147.183C240.76 150.159 238.948 153.827 238.222 157.776C237.495 161.725 237.881 165.799 239.339 169.54C240.796 173.282 243.266 176.542 246.471 178.957C249.676 181.371 253.491 182.844 257.485 183.209C261.48 183.574 265.498 182.818 269.087 181.025C272.677 179.232 275.696 176.473 277.806 173.058C279.565 170.212 280.635 167.003 280.942 163.689C281.044 162.589 281.93 161.691 283.035 161.691H286.794Z" fill="white"/>
<path opacity="0.7" d="M255.053 134.666C254.876 133.576 255.615 132.541 256.715 132.438C261.453 131.994 266.23 132.711 270.63 134.526C271.651 134.947 272.054 136.153 271.566 137.143L269.898 140.52C269.409 141.511 268.211 141.908 267.18 141.511C264.246 140.385 261.101 139.913 257.966 140.129C256.864 140.205 255.835 139.475 255.658 138.385L255.053 134.666Z" fill="white"/>
<path opacity="0.4" d="M275.719 139.682C276.375 138.793 277.632 138.6 278.474 139.316C281.069 141.524 283.265 144.17 284.957 147.139C286.65 150.108 287.81 153.346 288.388 156.704C288.575 157.793 287.769 158.778 286.671 158.891L282.928 159.276C281.829 159.389 280.856 158.586 280.642 157.502C280.191 155.218 279.373 153.017 278.215 150.987C277.058 148.956 275.581 147.131 273.845 145.58C273.021 144.844 272.826 143.598 273.482 142.709L275.719 139.682Z" fill="white"/>
<path opacity="0.7" d="M254.16 162.628C253.089 162.628 252.228 162.343 251.578 161.774C250.945 161.205 250.596 160.433 250.531 159.458C250.514 159.181 250.506 158.815 250.506 158.36C250.506 157.873 250.514 157.482 250.531 157.19C250.596 156.182 250.937 155.385 251.554 154.8C252.171 154.215 253.04 153.922 254.16 153.922C255.281 153.922 256.15 154.215 256.767 154.8C257.401 155.385 257.742 156.182 257.79 157.19C257.823 157.84 257.839 158.263 257.839 158.458C257.839 158.637 257.823 158.97 257.79 159.458C257.742 160.433 257.392 161.205 256.743 161.774C256.109 162.343 255.249 162.628 254.16 162.628ZM252.163 171.115C252.017 171.115 251.895 171.074 251.797 170.993C251.7 170.895 251.651 170.773 251.651 170.627C251.651 170.529 251.684 170.44 251.749 170.359L263.759 154.507C263.889 154.345 264.011 154.231 264.124 154.166C264.238 154.084 264.392 154.044 264.587 154.044H265.879C266.041 154.044 266.163 154.093 266.244 154.19C266.341 154.271 266.39 154.385 266.39 154.532C266.39 154.629 266.358 154.719 266.293 154.8L254.282 170.651C254.152 170.814 254.031 170.936 253.917 171.017C253.803 171.082 253.649 171.115 253.454 171.115H252.163ZM254.16 160.823C254.631 160.823 254.981 160.685 255.208 160.409C255.435 160.116 255.565 159.758 255.598 159.336C255.63 158.783 255.647 158.442 255.647 158.311C255.647 158.133 255.63 157.799 255.598 157.312C255.582 156.889 255.452 156.539 255.208 156.263C254.981 155.97 254.631 155.824 254.16 155.824C253.689 155.824 253.34 155.97 253.113 156.263C252.886 156.539 252.764 156.889 252.748 157.312C252.731 157.556 252.723 157.889 252.723 158.311C252.723 158.718 252.731 159.059 252.748 159.336C252.78 159.758 252.902 160.116 253.113 160.409C253.34 160.685 253.689 160.823 254.16 160.823ZM263.881 171.261C262.809 171.261 261.948 170.968 261.298 170.383C260.665 169.781 260.316 168.985 260.251 167.993C260.235 167.717 260.227 167.351 260.227 166.896C260.227 166.424 260.235 166.042 260.251 165.749C260.316 164.741 260.657 163.945 261.274 163.36C261.891 162.774 262.76 162.482 263.881 162.482C265.001 162.482 265.87 162.774 266.488 163.36C267.121 163.945 267.462 164.741 267.511 165.749C267.543 166.4 267.559 166.814 267.559 166.993C267.559 167.172 267.543 167.505 267.511 167.993C267.446 168.985 267.088 169.781 266.439 170.383C265.805 170.968 264.953 171.261 263.881 171.261ZM263.881 169.359C264.368 169.359 264.717 169.22 264.928 168.944C265.156 168.651 265.286 168.302 265.318 167.895C265.351 167.343 265.367 167.001 265.367 166.871C265.367 166.692 265.351 166.359 265.318 165.871C265.302 165.449 265.172 165.091 264.928 164.798C264.701 164.506 264.352 164.359 263.881 164.359C263.41 164.359 263.061 164.506 262.833 164.798C262.606 165.075 262.476 165.432 262.443 165.871C262.427 166.115 262.419 166.449 262.419 166.871C262.419 167.278 262.427 167.619 262.443 167.895C262.492 168.318 262.622 168.668 262.833 168.944C263.061 169.22 263.41 169.359 263.881 169.359Z" fill="white"/>
<g filter="url(#filter12_b)">
<path d="M86.2926 155.979C79.8571 155.979 74.6431 150.981 74.6469 144.817L74.6984 59.3252C74.7021 53.161 79.9221 48.1641 86.3576 48.1642L243.602 48.1678C250.037 48.1679 255.251 53.1651 255.248 59.3293L255.196 144.821C255.192 150.986 249.972 155.982 243.537 155.982L86.2926 155.979Z" fill="#2096EC" fill-opacity="0.14"/>
</g>
<g filter="url(#filter13_b)">
<path fill-rule="evenodd" clip-rule="evenodd" d="M75.1839 59.3252L75.1324 144.817C75.1288 150.725 80.1256 155.514 86.2929 155.514L243.537 155.517C249.704 155.517 254.707 150.729 254.711 144.821L254.762 59.3293C254.766 53.422 249.769 48.633 243.602 48.6328L86.3573 48.6293C80.19 48.6292 75.1875 53.4179 75.1839 59.3252ZM74.6469 144.817C74.6431 150.981 79.8571 155.979 86.2926 155.979L243.537 155.982C249.972 155.982 255.192 150.986 255.196 144.821L255.248 59.3293C255.251 53.1651 250.037 48.1679 243.602 48.1678L86.3576 48.1642C79.9221 48.1641 74.7021 53.161 74.6984 59.3252L74.6469 144.817Z" fill="white"/>
<path fill-rule="evenodd" clip-rule="evenodd" d="M75.1839 59.3252L75.1324 144.817C75.1288 150.725 80.1256 155.514 86.2929 155.514L243.537 155.517C249.704 155.517 254.707 150.729 254.711 144.821L254.762 59.3293C254.766 53.422 249.769 48.633 243.602 48.6328L86.3573 48.6293C80.19 48.6292 75.1875 53.4179 75.1839 59.3252ZM74.6469 144.817C74.6431 150.981 79.8571 155.979 86.2926 155.979L243.537 155.982C249.972 155.982 255.192 150.986 255.196 144.821L255.248 59.3293C255.251 53.1651 250.037 48.1679 243.602 48.1678L86.3576 48.1642C79.9221 48.1641 74.7021 53.161 74.6984 59.3252L74.6469 144.817Z" fill="url(#paint2_linear)"/>
</g>
<path d="M90.2935 82.9949C90.1521 82.9949 90.0248 82.9465 89.9117 82.8496C89.8127 82.7389 89.7632 82.6143 89.7632 82.4759V68.9806C89.7632 68.8283 89.8127 68.7037 89.9117 68.6069C90.0248 68.51 90.1521 68.4615 90.2935 68.4615H92.5842C92.9236 68.4615 93.1711 68.6138 93.3266 68.9183L97.0597 75.4583L100.793 68.9183C100.948 68.6138 101.196 68.4615 101.535 68.4615H103.805C103.96 68.4615 104.088 68.51 104.187 68.6069C104.3 68.7037 104.356 68.8283 104.356 68.9806V82.4759C104.356 82.6281 104.3 82.7527 104.187 82.8496C104.088 82.9465 103.96 82.9949 103.805 82.9949H101.281C101.125 82.9949 100.991 82.9465 100.878 82.8496C100.779 82.7527 100.729 82.6281 100.729 82.4759V74.6901L98.3536 79.0294C98.1698 79.3477 97.9223 79.5069 97.6112 79.5069H96.5083C96.3244 79.5069 96.176 79.4654 96.0628 79.3823C95.9497 79.2993 95.8507 79.1816 95.7659 79.0294L93.369 74.6901V82.4759C93.369 82.6143 93.3195 82.7389 93.2206 82.8496C93.1216 82.9465 92.9943 82.9949 92.8388 82.9949H90.2935Z" fill="white"/>
<path d="M112.101 82.9949C111.96 82.9949 111.832 82.9465 111.719 82.8496C111.62 82.7389 111.571 82.6143 111.571 82.4759V78.0121L106.65 69.1259C106.607 69.0013 106.586 68.9252 106.586 68.8975C106.586 68.7868 106.629 68.6899 106.713 68.6069C106.812 68.51 106.925 68.4615 107.053 68.4615H109.704C109.987 68.4615 110.234 68.6069 110.446 68.8975L113.48 74.2541L116.534 68.8975C116.704 68.6069 116.951 68.4615 117.276 68.4615H119.928C120.055 68.4615 120.161 68.51 120.246 68.6069C120.331 68.6899 120.373 68.7868 120.373 68.8975C120.373 68.9667 120.359 69.0429 120.331 69.1259L115.41 78.0121V82.4759C115.41 82.6281 115.353 82.7527 115.24 82.8496C115.141 82.9465 115.014 82.9949 114.858 82.9949H112.101Z" fill="white"/>
<path d="M123.145 82.9949C123.003 82.9949 122.876 82.9465 122.763 82.8496C122.664 82.7389 122.614 82.6143 122.614 82.4759V68.9806C122.614 68.8283 122.664 68.7037 122.763 68.6069C122.876 68.51 123.003 68.4615 123.145 68.4615H132.902C133.057 68.4615 133.185 68.51 133.284 68.6069C133.383 68.7037 133.432 68.8283 133.432 68.9806V71.0775C133.432 71.216 133.383 71.3405 133.284 71.4513C133.185 71.5481 133.057 71.5966 132.902 71.5966H126.348V74.6486H132.478C132.633 74.6486 132.76 74.704 132.859 74.8147C132.958 74.9116 133.008 75.0362 133.008 75.1884V77.2646C133.008 77.403 132.958 77.5276 132.859 77.6383C132.76 77.7352 132.633 77.7837 132.478 77.7837H126.348V82.4759C126.348 82.6281 126.298 82.7527 126.199 82.8496C126.1 82.9465 125.973 82.9949 125.817 82.9949H123.145Z" fill="white"/>
<path d="M142.113 83.2026C140.119 83.2026 138.55 82.725 137.404 81.77C136.259 80.8149 135.651 79.41 135.58 77.5553C135.566 77.1539 135.559 76.5587 135.559 75.7698C135.559 74.967 135.566 74.3649 135.58 73.9635C135.651 72.1364 136.266 70.7315 137.426 69.7488C138.599 68.7522 140.162 68.2539 142.113 68.2539C144.065 68.2539 145.627 68.7522 146.801 69.7488C147.975 70.7315 148.59 72.1364 148.646 73.9635C148.674 74.7663 148.689 75.3684 148.689 75.7698C148.689 76.1573 148.674 76.7525 148.646 77.5553C148.576 79.41 147.967 80.8149 146.822 81.77C145.677 82.725 144.107 83.2026 142.113 83.2026ZM142.113 80.2128C142.891 80.2128 143.506 79.9844 143.959 79.5277C144.425 79.0709 144.673 78.3719 144.701 77.4307C144.729 76.6279 144.743 76.0604 144.743 75.7282C144.743 75.3684 144.729 74.8009 144.701 74.0257C144.673 73.0845 144.425 72.3855 143.959 71.9288C143.492 71.472 142.877 71.2436 142.113 71.2436C141.35 71.2436 140.735 71.472 140.268 71.9288C139.815 72.3855 139.568 73.0845 139.526 74.0257C139.511 74.4133 139.504 74.9808 139.504 75.7282C139.504 76.4618 139.511 77.0293 139.526 77.4307C139.568 78.3719 139.815 79.0709 140.268 79.5277C140.72 79.9844 141.336 80.2128 142.113 80.2128Z" fill="white"/>
<path d="M152.102 82.9949C151.96 82.9949 151.833 82.9465 151.72 82.8496C151.621 82.7389 151.571 82.6143 151.571 82.4759V68.9806C151.571 68.8283 151.621 68.7037 151.72 68.6069C151.833 68.51 151.96 68.4615 152.102 68.4615H157.871C159.724 68.4615 161.166 68.8768 162.198 69.7072C163.245 70.5239 163.768 71.6866 163.768 73.1953C163.768 74.1642 163.534 74.9877 163.068 75.6659C162.601 76.3442 161.958 76.8632 161.138 77.2231L164.044 82.3306C164.086 82.4136 164.107 82.4897 164.107 82.5589C164.107 82.6697 164.058 82.7735 163.959 82.8704C163.874 82.9534 163.775 82.9949 163.662 82.9949H160.841C160.431 82.9949 160.141 82.8081 159.971 82.4344L157.553 77.8667H155.389V82.4759C155.389 82.6281 155.333 82.7527 155.22 82.8496C155.121 82.9465 154.994 82.9949 154.838 82.9949H152.102ZM157.829 74.9185C158.479 74.9185 158.974 74.7663 159.313 74.4617C159.653 74.1434 159.823 73.7074 159.823 73.1537C159.823 72.6001 159.653 72.1641 159.313 71.8457C158.988 71.5135 158.493 71.3474 157.829 71.3474H155.389V74.9185H157.829Z" fill="white"/>
<path d="M172.686 83.2026C170.664 83.2026 169.081 82.725 167.935 81.77C166.804 80.8011 166.203 79.4031 166.132 77.576C166.118 77.2023 166.111 76.5933 166.111 75.749C166.111 74.8908 166.118 74.268 166.132 73.8804C166.203 72.081 166.818 70.6969 167.978 69.728C169.137 68.7453 170.707 68.2539 172.686 68.2539C173.931 68.2539 175.048 68.4615 176.038 68.8768C177.028 69.2782 177.805 69.8595 178.371 70.6208C178.951 71.3682 179.248 72.2471 179.262 73.2576V73.2991C179.262 73.4098 179.212 73.5067 179.113 73.5897C179.029 73.659 178.93 73.6936 178.816 73.6936H175.953C175.769 73.6936 175.628 73.659 175.529 73.5897C175.43 73.5067 175.345 73.3614 175.274 73.1537C175.076 72.4478 174.765 71.9565 174.341 71.6796C173.917 71.389 173.358 71.2436 172.665 71.2436C170.997 71.2436 170.134 72.1572 170.078 73.9842C170.063 74.3579 170.056 74.9324 170.056 75.7075C170.056 76.4826 170.063 77.0708 170.078 77.4722C170.134 79.2993 170.997 80.2128 172.665 80.2128C173.358 80.2128 173.924 80.0675 174.362 79.7768C174.8 79.4723 175.105 78.9809 175.274 78.3027C175.331 78.0951 175.409 77.9567 175.508 77.8875C175.607 77.8044 175.755 77.7629 175.953 77.7629H178.816C178.944 77.7629 179.05 77.8044 179.135 77.8875C179.234 77.9705 179.276 78.0743 179.262 78.1989C179.248 79.2093 178.951 80.0952 178.371 80.8564C177.805 81.6039 177.028 82.1852 176.038 82.6005C175.048 83.0019 173.931 83.2026 172.686 83.2026Z" fill="white"/>
<path d="M182.447 82.9949C182.305 82.9949 182.178 82.9465 182.065 82.8496C181.966 82.7389 181.916 82.6143 181.916 82.4759V68.9806C181.916 68.8283 181.966 68.7037 182.065 68.6069C182.178 68.51 182.305 68.4615 182.447 68.4615H192.352C192.508 68.4615 192.635 68.51 192.734 68.6069C192.833 68.7037 192.882 68.8283 192.882 68.9806V70.9322C192.882 71.0706 192.833 71.1952 192.734 71.3059C192.635 71.4028 192.508 71.4513 192.352 71.4513H185.586V74.2541H191.886C192.041 74.2541 192.168 74.3095 192.267 74.4202C192.366 74.5171 192.416 74.6417 192.416 74.7939V76.6002C192.416 76.7386 192.366 76.8632 192.267 76.974C192.168 77.0708 192.041 77.1193 191.886 77.1193H185.586V80.0052H192.522C192.677 80.0052 192.805 80.0536 192.904 80.1505C193.003 80.2474 193.052 80.372 193.052 80.5243V82.4759C193.052 82.6143 193.003 82.7389 192.904 82.8496C192.805 82.9465 192.677 82.9949 192.522 82.9949H182.447Z" fill="white"/>
<g filter="url(#filter14_f)">
<path d="M90.2935 82.9949C90.1521 82.9949 90.0248 82.9465 89.9117 82.8496C89.8127 82.7389 89.7632 82.6143 89.7632 82.4759V68.9806C89.7632 68.8283 89.8127 68.7037 89.9117 68.6069C90.0248 68.51 90.1521 68.4615 90.2935 68.4615H92.5842C92.9236 68.4615 93.1711 68.6138 93.3266 68.9183L97.0597 75.4583L100.793 68.9183C100.948 68.6138 101.196 68.4615 101.535 68.4615H103.805C103.96 68.4615 104.088 68.51 104.187 68.6069C104.3 68.7037 104.356 68.8283 104.356 68.9806V82.4759C104.356 82.6281 104.3 82.7527 104.187 82.8496C104.088 82.9465 103.96 82.9949 103.805 82.9949H101.281C101.125 82.9949 100.991 82.9465 100.878 82.8496C100.779 82.7527 100.729 82.6281 100.729 82.4759V74.6901L98.3536 79.0294C98.1698 79.3477 97.9223 79.5069 97.6112 79.5069H96.5083C96.3244 79.5069 96.176 79.4654 96.0628 79.3823C95.9497 79.2993 95.8507 79.1816 95.7659 79.0294L93.369 74.6901V82.4759C93.369 82.6143 93.3195 82.7389 93.2206 82.8496C93.1216 82.9465 92.9943 82.9949 92.8388 82.9949H90.2935Z" fill="white"/>
<path d="M112.101 82.9949C111.96 82.9949 111.832 82.9465 111.719 82.8496C111.62 82.7389 111.571 82.6143 111.571 82.4759V78.0121L106.65 69.1259C106.607 69.0013 106.586 68.9252 106.586 68.8975C106.586 68.7868 106.629 68.6899 106.713 68.6069C106.812 68.51 106.925 68.4615 107.053 68.4615H109.704C109.987 68.4615 110.234 68.6069 110.446 68.8975L113.48 74.2541L116.534 68.8975C116.704 68.6069 116.951 68.4615 117.276 68.4615H119.928C120.055 68.4615 120.161 68.51 120.246 68.6069C120.331 68.6899 120.373 68.7868 120.373 68.8975C120.373 68.9667 120.359 69.0429 120.331 69.1259L115.41 78.0121V82.4759C115.41 82.6281 115.353 82.7527 115.24 82.8496C115.141 82.9465 115.014 82.9949 114.858 82.9949H112.101Z" fill="white"/>
<path d="M123.145 82.9949C123.003 82.9949 122.876 82.9465 122.763 82.8496C122.664 82.7389 122.614 82.6143 122.614 82.4759V68.9806C122.614 68.8283 122.664 68.7037 122.763 68.6069C122.876 68.51 123.003 68.4615 123.145 68.4615H132.902C133.057 68.4615 133.185 68.51 133.284 68.6069C133.383 68.7037 133.432 68.8283 133.432 68.9806V71.0775C133.432 71.216 133.383 71.3405 133.284 71.4513C133.185 71.5481 133.057 71.5966 132.902 71.5966H126.348V74.6486H132.478C132.633 74.6486 132.76 74.704 132.859 74.8147C132.958 74.9116 133.008 75.0362 133.008 75.1884V77.2646C133.008 77.403 132.958 77.5276 132.859 77.6383C132.76 77.7352 132.633 77.7837 132.478 77.7837H126.348V82.4759C126.348 82.6281 126.298 82.7527 126.199 82.8496C126.1 82.9465 125.973 82.9949 125.817 82.9949H123.145Z" fill="white"/>
<path d="M142.113 83.2026C140.119 83.2026 138.55 82.725 137.404 81.77C136.259 80.8149 135.651 79.41 135.58 77.5553C135.566 77.1539 135.559 76.5587 135.559 75.7698C135.559 74.967 135.566 74.3649 135.58 73.9635C135.651 72.1364 136.266 70.7315 137.426 69.7488C138.599 68.7522 140.162 68.2539 142.113 68.2539C144.065 68.2539 145.627 68.7522 146.801 69.7488C147.975 70.7315 148.59 72.1364 148.646 73.9635C148.674 74.7663 148.689 75.3684 148.689 75.7698C148.689 76.1573 148.674 76.7525 148.646 77.5553C148.576 79.41 147.967 80.8149 146.822 81.77C145.677 82.725 144.107 83.2026 142.113 83.2026ZM142.113 80.2128C142.891 80.2128 143.506 79.9844 143.959 79.5277C144.425 79.0709 144.673 78.3719 144.701 77.4307C144.729 76.6279 144.743 76.0604 144.743 75.7282C144.743 75.3684 144.729 74.8009 144.701 74.0257C144.673 73.0845 144.425 72.3855 143.959 71.9288C143.492 71.472 142.877 71.2436 142.113 71.2436C141.35 71.2436 140.735 71.472 140.268 71.9288C139.815 72.3855 139.568 73.0845 139.526 74.0257C139.511 74.4133 139.504 74.9808 139.504 75.7282C139.504 76.4618 139.511 77.0293 139.526 77.4307C139.568 78.3719 139.815 79.0709 140.268 79.5277C140.72 79.9844 141.336 80.2128 142.113 80.2128Z" fill="white"/>
<path d="M152.102 82.9949C151.96 82.9949 151.833 82.9465 151.72 82.8496C151.621 82.7389 151.571 82.6143 151.571 82.4759V68.9806C151.571 68.8283 151.621 68.7037 151.72 68.6069C151.833 68.51 151.96 68.4615 152.102 68.4615H157.871C159.724 68.4615 161.166 68.8768 162.198 69.7072C163.245 70.5239 163.768 71.6866 163.768 73.1953C163.768 74.1642 163.534 74.9877 163.068 75.6659C162.601 76.3442 161.958 76.8632 161.138 77.2231L164.044 82.3306C164.086 82.4136 164.107 82.4897 164.107 82.5589C164.107 82.6697 164.058 82.7735 163.959 82.8704C163.874 82.9534 163.775 82.9949 163.662 82.9949H160.841C160.431 82.9949 160.141 82.8081 159.971 82.4344L157.553 77.8667H155.389V82.4759C155.389 82.6281 155.333 82.7527 155.22 82.8496C155.121 82.9465 154.994 82.9949 154.838 82.9949H152.102ZM157.829 74.9185C158.479 74.9185 158.974 74.7663 159.313 74.4617C159.653 74.1434 159.823 73.7074 159.823 73.1537C159.823 72.6001 159.653 72.1641 159.313 71.8457C158.988 71.5135 158.493 71.3474 157.829 71.3474H155.389V74.9185H157.829Z" fill="white"/>
<path d="M172.686 83.2026C170.664 83.2026 169.081 82.725 167.935 81.77C166.804 80.8011 166.203 79.4031 166.132 77.576C166.118 77.2023 166.111 76.5933 166.111 75.749C166.111 74.8908 166.118 74.268 166.132 73.8804C166.203 72.081 166.818 70.6969 167.978 69.728C169.137 68.7453 170.707 68.2539 172.686 68.2539C173.931 68.2539 175.048 68.4615 176.038 68.8768C177.028 69.2782 177.805 69.8595 178.371 70.6208C178.951 71.3682 179.248 72.2471 179.262 73.2576V73.2991C179.262 73.4098 179.212 73.5067 179.113 73.5897C179.029 73.659 178.93 73.6936 178.816 73.6936H175.953C175.769 73.6936 175.628 73.659 175.529 73.5897C175.43 73.5067 175.345 73.3614 175.274 73.1537C175.076 72.4478 174.765 71.9565 174.341 71.6796C173.917 71.389 173.358 71.2436 172.665 71.2436C170.997 71.2436 170.134 72.1572 170.078 73.9842C170.063 74.3579 170.056 74.9324 170.056 75.7075C170.056 76.4826 170.063 77.0708 170.078 77.4722C170.134 79.2993 170.997 80.2128 172.665 80.2128C173.358 80.2128 173.924 80.0675 174.362 79.7768C174.8 79.4723 175.105 78.9809 175.274 78.3027C175.331 78.0951 175.409 77.9567 175.508 77.8875C175.607 77.8044 175.755 77.7629 175.953 77.7629H178.816C178.944 77.7629 179.05 77.8044 179.135 77.8875C179.234 77.9705 179.276 78.0743 179.262 78.1989C179.248 79.2093 178.951 80.0952 178.371 80.8564C177.805 81.6039 177.028 82.1852 176.038 82.6005C175.048 83.0019 173.931 83.2026 172.686 83.2026Z" fill="white"/>
<path d="M182.447 82.9949C182.305 82.9949 182.178 82.9465 182.065 82.8496C181.966 82.7389 181.916 82.6143 181.916 82.4759V68.9806C181.916 68.8283 181.966 68.7037 182.065 68.6069C182.178 68.51 182.305 68.4615 182.447 68.4615H192.352C192.508 68.4615 192.635 68.51 192.734 68.6069C192.833 68.7037 192.882 68.8283 192.882 68.9806V70.9322C192.882 71.0706 192.833 71.1952 192.734 71.3059C192.635 71.4028 192.508 71.4513 192.352 71.4513H185.586V74.2541H191.886C192.041 74.2541 192.168 74.3095 192.267 74.4202C192.366 74.5171 192.416 74.6417 192.416 74.7939V76.6002C192.416 76.7386 192.366 76.8632 192.267 76.974C192.168 77.0708 192.041 77.1193 191.886 77.1193H185.586V80.0052H192.522C192.677 80.0052 192.805 80.0536 192.904 80.1505C193.003 80.2474 193.052 80.372 193.052 80.5243V82.4759C193.052 82.6143 193.003 82.7389 192.904 82.8496C192.805 82.9465 192.677 82.9949 192.522 82.9949H182.447Z" fill="white"/>
</g>
<path d="M120.232 104.969L88.7238 104.721C88.0319 104.715 87.4661 105.273 87.4602 105.965L87.4083 112.579C87.4028 113.272 87.9598 113.838 88.6521 113.843L120.161 114.091C120.853 114.096 121.418 113.539 121.424 112.846L121.476 106.233C121.481 105.54 120.924 104.974 120.232 104.969Z" fill="white"/>
<path d="M159.42 105.281L127.92 105.033C127.227 105.028 126.661 105.585 126.656 106.278L126.604 112.893C126.598 113.586 127.155 114.152 127.848 114.158L159.348 114.406C160.041 114.411 160.606 113.854 160.611 113.161L160.664 106.546C160.669 105.853 160.112 105.287 159.42 105.281Z" fill="white"/>
<path d="M198.62 105.592L167.119 105.344C166.427 105.338 165.861 105.896 165.856 106.589L165.804 113.203C165.799 113.896 166.355 114.463 167.047 114.468L198.548 114.716C199.24 114.722 199.806 114.165 199.812 113.471L199.863 106.856C199.868 106.163 199.312 105.597 198.62 105.592Z" fill="white"/>
<path d="M237.812 105.901L206.311 105.653C205.618 105.647 205.052 106.205 205.047 106.897L204.995 113.512C204.99 114.206 205.546 114.772 206.239 114.777L237.74 115.025C238.432 115.03 238.997 114.473 239.003 113.78L239.055 107.165C239.06 106.472 238.503 105.906 237.812 105.901Z" fill="white"/>
<path opacity="0.7" d="M145.972 134.501L88.3657 134.048C87.3329 134.038 86.4872 134.87 86.48 135.902C86.468 136.94 87.2996 137.786 88.3372 137.791L145.943 138.245C146.978 138.253 147.822 137.422 147.83 136.388C147.839 135.354 147.007 134.509 145.972 134.501Z" fill="white"/>
<g filter="url(#filter15_b)">
<path d="M32.1676 210.996C29.242 210.996 26.8717 208.724 26.8734 205.922L26.8968 167.058C26.8985 164.255 29.2715 161.984 32.1971 161.984L103.68 161.986C106.606 161.986 108.976 164.257 108.974 167.06L108.951 205.924C108.949 208.726 106.576 210.998 103.65 210.998L32.1676 210.996Z" fill="#2096EC" fill-opacity="0.14"/>
</g>
<g filter="url(#filter16_b)">
<path fill-rule="evenodd" clip-rule="evenodd" d="M27.1176 167.058L27.0941 205.922C27.0925 208.608 29.364 210.785 32.1677 210.785L103.651 210.786C106.454 210.786 108.728 208.61 108.73 205.924L108.753 167.06C108.755 164.374 106.483 162.197 103.68 162.197L32.197 162.195C29.3933 162.195 27.1192 164.372 27.1176 167.058ZM26.8734 205.922C26.8717 208.724 29.242 210.996 32.1676 210.996L103.65 210.998C106.576 210.998 108.949 208.726 108.951 205.924L108.974 167.06C108.976 164.257 106.606 161.986 103.68 161.986L32.1971 161.984C29.2715 161.984 26.8985 164.255 26.8968 167.058L26.8734 205.922Z" fill="white"/>
<path fill-rule="evenodd" clip-rule="evenodd" d="M27.1176 167.058L27.0941 205.922C27.0925 208.608 29.364 210.785 32.1677 210.785L103.651 210.786C106.454 210.786 108.728 208.61 108.73 205.924L108.753 167.06C108.755 164.374 106.483 162.197 103.68 162.197L32.197 162.195C29.3933 162.195 27.1192 164.372 27.1176 167.058ZM26.8734 205.922C26.8717 208.724 29.242 210.996 32.1676 210.996L103.65 210.998C106.576 210.998 108.949 208.726 108.951 205.924L108.974 167.06C108.976 164.257 106.606 161.986 103.68 161.986L32.1971 161.984C29.2715 161.984 26.8985 164.255 26.8968 167.058L26.8734 205.922Z" fill="url(#paint3_linear)"/>
</g>
<g filter="url(#filter17_f)">
<path d="M80.3112 184.309C79.6004 184.309 78.991 184.309 78.2801 184.309C78.1786 184.309 78.1786 184.309 78.077 184.309C77.7724 182.987 77.2646 181.767 76.5537 180.649C76.5537 180.547 76.6553 180.547 76.7568 180.446C77.1631 180.039 77.6708 179.531 78.077 179.124C77.2646 178.006 76.3506 177.091 75.2335 176.278C74.7258 176.786 74.3195 177.193 73.8117 177.701C73.7102 177.802 73.7102 177.802 73.6086 177.802C72.4915 177.091 71.2729 176.583 69.9527 176.278V176.176C69.9527 175.871 69.9527 175.464 69.9527 175.159C69.9527 174.854 69.9527 174.448 69.9527 174.143C69.3434 174.041 68.6325 173.939 67.9216 173.939C67.2107 173.939 66.6014 174.041 65.8905 174.143C65.8905 174.448 65.8905 174.854 65.8905 175.159C65.8905 175.464 65.8905 175.871 65.8905 176.176C65.8905 176.278 65.8905 176.278 65.8905 176.278C64.5703 176.583 63.3517 177.091 62.2346 177.802C62.133 177.802 62.133 177.701 62.0315 177.701C61.5237 177.193 61.1175 176.786 60.6097 176.278C59.4926 177.091 58.5786 178.006 57.7662 179.124C58.1724 179.531 58.6802 180.039 59.0864 180.446C59.1879 180.547 59.2895 180.649 59.2895 180.649C58.5786 181.767 58.0708 182.987 57.7662 184.309C57.6646 184.309 57.6646 184.309 57.5631 184.309C56.9537 184.309 56.2429 184.309 55.6335 184.309C55.532 185.02 55.532 185.63 55.532 186.342C55.532 187.053 55.6335 187.663 55.7351 188.375H55.8367C56.5475 188.375 57.1569 188.375 57.8677 188.375C57.8677 188.375 57.8678 188.375 57.9693 188.375C58.274 189.696 58.7817 190.916 59.4926 192.035L59.3911 192.136C58.9848 192.543 58.4771 192.95 58.0708 193.458C57.9693 193.56 57.9693 193.56 57.9693 193.56C58.7817 194.678 59.6957 195.593 60.8128 196.406C61.3206 195.898 61.7268 195.491 62.2346 194.983L62.3361 194.881C63.4532 195.593 64.6719 196.101 65.9921 196.406C65.9921 196.406 65.9921 196.508 65.9921 196.609C65.9921 197.321 65.9921 197.931 65.9921 198.642C66.6014 198.744 67.3123 198.846 67.9216 198.846C68.6325 198.846 69.2418 198.744 69.8512 198.642C69.8512 197.931 69.8512 197.321 69.8512 196.609C69.8512 196.508 69.8512 196.508 69.8512 196.406C71.1714 196.101 72.39 195.593 73.5071 194.881L73.6086 194.983C74.1164 195.491 74.5226 195.898 75.0304 196.406C76.1475 195.593 77.0615 194.678 77.8739 193.56L77.7724 193.458C77.3662 193.051 76.96 192.543 76.4522 192.136L76.3506 192.035C77.0615 190.916 77.5692 189.696 77.8739 188.375C77.8739 188.375 77.8739 188.375 77.9755 188.375C78.6864 188.375 79.2957 188.375 80.0066 188.375H80.1081C80.2097 187.663 80.3112 187.053 80.3112 186.342C80.4128 185.63 80.4128 184.919 80.3112 184.309ZM74.218 187.358C74.0149 188.375 73.7102 189.29 73.1008 190.001C72.6946 190.51 72.1869 191.018 71.6791 191.425C70.8667 191.933 70.0542 192.34 69.0387 192.543C68.734 192.645 68.3278 192.645 68.0231 192.645C67.7185 192.645 67.3123 192.645 67.0076 192.543C65.9921 192.34 65.1796 192.035 64.3672 191.425C63.7579 191.018 63.3517 190.51 62.9455 190.001C62.3361 189.188 62.0315 188.375 61.8284 187.358C61.7268 187.053 61.7268 186.647 61.7268 186.342C61.7268 186.037 61.7268 185.63 61.8284 185.325C62.0315 184.41 62.3361 183.495 62.9455 182.682C63.3517 182.072 63.8594 181.665 64.3672 181.259C65.1796 180.751 65.9921 180.344 67.0076 180.141C67.3123 180.039 67.7185 180.039 68.0231 180.039C68.3278 180.039 68.734 180.039 69.0387 180.141C69.9527 180.344 70.8667 180.649 71.6791 181.259C72.2885 181.665 72.6946 182.174 73.1008 182.682C73.7102 183.495 74.0149 184.309 74.218 185.325C74.3195 185.63 74.3195 186.037 74.3195 186.342C74.3195 186.647 74.3195 187.053 74.218 187.358Z" fill="white"/>
</g>
<path d="M80.3112 184.309C79.6004 184.309 78.991 184.309 78.2801 184.309C78.1786 184.309 78.1786 184.309 78.077 184.309C77.7724 182.987 77.2646 181.767 76.5537 180.649C76.5537 180.547 76.6553 180.547 76.7568 180.446C77.1631 180.039 77.6708 179.531 78.077 179.124C77.2646 178.006 76.3506 177.091 75.2335 176.278C74.7258 176.786 74.3195 177.193 73.8117 177.701C73.7102 177.802 73.7102 177.802 73.6086 177.802C72.4915 177.091 71.2729 176.583 69.9527 176.278V176.176C69.9527 175.871 69.9527 175.464 69.9527 175.159C69.9527 174.854 69.9527 174.448 69.9527 174.143C69.3434 174.041 68.6325 173.939 67.9216 173.939C67.2107 173.939 66.6014 174.041 65.8905 174.143C65.8905 174.448 65.8905 174.854 65.8905 175.159C65.8905 175.464 65.8905 175.871 65.8905 176.176C65.8905 176.278 65.8905 176.278 65.8905 176.278C64.5703 176.583 63.3517 177.091 62.2346 177.802C62.133 177.802 62.133 177.701 62.0315 177.701C61.5237 177.193 61.1175 176.786 60.6097 176.278C59.4926 177.091 58.5786 178.006 57.7662 179.124C58.1724 179.531 58.6802 180.039 59.0864 180.446C59.1879 180.547 59.2895 180.649 59.2895 180.649C58.5786 181.767 58.0708 182.987 57.7662 184.309C57.6646 184.309 57.6646 184.309 57.5631 184.309C56.9537 184.309 56.2429 184.309 55.6335 184.309C55.532 185.02 55.532 185.63 55.532 186.342C55.532 187.053 55.6335 187.663 55.7351 188.375H55.8367C56.5475 188.375 57.1569 188.375 57.8677 188.375C57.8677 188.375 57.8678 188.375 57.9693 188.375C58.274 189.696 58.7817 190.916 59.4926 192.035L59.3911 192.136C58.9848 192.543 58.4771 192.95 58.0708 193.458C57.9693 193.56 57.9693 193.56 57.9693 193.56C58.7817 194.678 59.6957 195.593 60.8128 196.406C61.3206 195.898 61.7268 195.491 62.2346 194.983L62.3361 194.881C63.4532 195.593 64.6719 196.101 65.9921 196.406C65.9921 196.406 65.9921 196.508 65.9921 196.609C65.9921 197.321 65.9921 197.931 65.9921 198.642C66.6014 198.744 67.3123 198.846 67.9216 198.846C68.6325 198.846 69.2418 198.744 69.8512 198.642C69.8512 197.931 69.8512 197.321 69.8512 196.609C69.8512 196.508 69.8512 196.508 69.8512 196.406C71.1714 196.101 72.39 195.593 73.5071 194.881L73.6086 194.983C74.1164 195.491 74.5226 195.898 75.0304 196.406C76.1475 195.593 77.0615 194.678 77.8739 193.56L77.7724 193.458C77.3662 193.051 76.96 192.543 76.4522 192.136L76.3506 192.035C77.0615 190.916 77.5692 189.696 77.8739 188.375C77.8739 188.375 77.8739 188.375 77.9755 188.375C78.6864 188.375 79.2957 188.375 80.0066 188.375H80.1081C80.2097 187.663 80.3112 187.053 80.3112 186.342C80.4128 185.63 80.4128 184.919 80.3112 184.309ZM74.218 187.358C74.0149 188.375 73.7102 189.29 73.1008 190.001C72.6946 190.51 72.1869 191.018 71.6791 191.425C70.8667 191.933 70.0542 192.34 69.0387 192.543C68.734 192.645 68.3278 192.645 68.0231 192.645C67.7185 192.645 67.3123 192.645 67.0076 192.543C65.9921 192.34 65.1796 192.035 64.3672 191.425C63.7579 191.018 63.3517 190.51 62.9455 190.001C62.3361 189.188 62.0315 188.375 61.8284 187.358C61.7268 187.053 61.7268 186.647 61.7268 186.342C61.7268 186.037 61.7268 185.63 61.8284 185.325C62.0315 184.41 62.3361 183.495 62.9455 182.682C63.3517 182.072 63.8594 181.665 64.3672 181.259C65.1796 180.751 65.9921 180.344 67.0076 180.141C67.3123 180.039 67.7185 180.039 68.0231 180.039C68.3278 180.039 68.734 180.039 69.0387 180.141C69.9527 180.344 70.8667 180.649 71.6791 181.259C72.2885 181.665 72.6946 182.174 73.1008 182.682C73.7102 183.495 74.0149 184.309 74.218 185.325C74.3195 185.63 74.3195 186.037 74.3195 186.342C74.3195 186.647 74.3195 187.053 74.218 187.358Z" fill="white"/>
<defs>
<filter id="filter0_b" x="-12.9961" y="-13" width="135.561" height="90.8759" filterUnits="userSpaceOnUse" color-interpolation-filters="sRGB">
<feFlood flood-opacity="0" result="BackgroundImageFix"/>
<feGaussianBlur in="BackgroundImage" stdDeviation="6.5"/>
<feComposite in2="SourceAlpha" operator="in" result="effect1_backgroundBlur"/>
<feBlend mode="normal" in="SourceGraphic" in2="effect1_backgroundBlur" result="shape"/>
</filter>
<filter id="filter1_b" x="-12.9961" y="-13" width="135.561" height="90.8759" filterUnits="userSpaceOnUse" color-interpolation-filters="sRGB">
<feFlood flood-opacity="0" result="BackgroundImageFix"/>
<feGaussianBlur in="BackgroundImage" stdDeviation="6.5"/>
<feComposite in2="SourceAlpha" operator="in" result="effect1_backgroundBlur"/>
<feBlend mode="normal" in="SourceGraphic" in2="effect1_backgroundBlur" result="shape"/>
</filter>
<filter id="filter2_f" x="26.7451" y="24.0703" width="14.7737" height="19.3728" filterUnits="userSpaceOnUse" color-interpolation-filters="sRGB">
<feFlood flood-opacity="0" result="BackgroundImageFix"/>
<feBlend mode="normal" in="SourceGraphic" in2="BackgroundImageFix" result="shape"/>
<feGaussianBlur stdDeviation="3" result="effect1_foregroundBlur"/>
</filter>
<filter id="filter3_f" x="33.6785" y="17.4707" width="14.7737" height="23.2533" filterUnits="userSpaceOnUse" color-interpolation-filters="sRGB">
<feFlood flood-opacity="0" result="BackgroundImageFix"/>
<feBlend mode="normal" in="SourceGraphic" in2="BackgroundImageFix" result="shape"/>
<feGaussianBlur stdDeviation="3" result="effect1_foregroundBlur"/>
</filter>
<filter id="filter4_f" x="40.6138" y="12.0391" width="14.7737" height="18.9848" filterUnits="userSpaceOnUse" color-interpolation-filters="sRGB">
<feFlood flood-opacity="0" result="BackgroundImageFix"/>
<feBlend mode="normal" in="SourceGraphic" in2="BackgroundImageFix" result="shape"/>
<feGaussianBlur stdDeviation="3" result="effect1_foregroundBlur"/>
</filter>
<filter id="filter5_f" x="47.5481" y="16.6953" width="14.7737" height="27.9098" filterUnits="userSpaceOnUse" color-interpolation-filters="sRGB">
<feFlood flood-opacity="0" result="BackgroundImageFix"/>
<feBlend mode="normal" in="SourceGraphic" in2="BackgroundImageFix" result="shape"/>
<feGaussianBlur stdDeviation="3" result="effect1_foregroundBlur"/>
</filter>
<filter id="filter6_f" x="54.4822" y="21.7383" width="14.7737" height="24.0294" filterUnits="userSpaceOnUse" color-interpolation-filters="sRGB">
<feFlood flood-opacity="0" result="BackgroundImageFix"/>
<feBlend mode="normal" in="SourceGraphic" in2="BackgroundImageFix" result="shape"/>
<feGaussianBlur stdDeviation="3" result="effect1_foregroundBlur"/>
</filter>
<filter id="filter7_f" x="61.4167" y="25.6191" width="14.7737" height="19.3728" filterUnits="userSpaceOnUse" color-interpolation-filters="sRGB">
<feFlood flood-opacity="0" result="BackgroundImageFix"/>
<feBlend mode="normal" in="SourceGraphic" in2="BackgroundImageFix" result="shape"/>
<feGaussianBlur stdDeviation="3" result="effect1_foregroundBlur"/>
</filter>
<filter id="filter8_f" x="68.3516" y="20.9629" width="14.7737" height="19.3728" filterUnits="userSpaceOnUse" color-interpolation-filters="sRGB">
<feFlood flood-opacity="0" result="BackgroundImageFix"/>
<feBlend mode="normal" in="SourceGraphic" in2="BackgroundImageFix" result="shape"/>
<feGaussianBlur stdDeviation="3" result="effect1_foregroundBlur"/>
</filter>
<filter id="filter9_b" x="174.818" y="105.949" width="170.177" height="112.073" filterUnits="userSpaceOnUse" color-interpolation-filters="sRGB">
<feFlood flood-opacity="0" result="BackgroundImageFix"/>
<feGaussianBlur in="BackgroundImage" stdDeviation="6.5"/>
<feComposite in2="SourceAlpha" operator="in" result="effect1_backgroundBlur"/>
<feBlend mode="normal" in="SourceGraphic" in2="effect1_backgroundBlur" result="shape"/>
</filter>
<filter id="filter10_b" x="174.818" y="105.949" width="170.177" height="112.073" filterUnits="userSpaceOnUse" color-interpolation-filters="sRGB">
<feFlood flood-opacity="0" result="BackgroundImageFix"/>
<feGaussianBlur in="BackgroundImage" stdDeviation="6.5"/>
<feComposite in2="SourceAlpha" operator="in" result="effect1_backgroundBlur"/>
<feBlend mode="normal" in="SourceGraphic" in2="effect1_backgroundBlur" result="shape"/>
</filter>
<filter id="filter11_f" x="221.104" y="124.975" width="76.6261" height="75.0923" filterUnits="userSpaceOnUse" color-interpolation-filters="sRGB">
<feFlood flood-opacity="0" result="BackgroundImageFix"/>
<feBlend mode="normal" in="SourceGraphic" in2="BackgroundImageFix" result="shape"/>
<feGaussianBlur stdDeviation="4.5" result="effect1_foregroundBlur"/>
</filter>
<filter id="filter12_b" x="61.647" y="35.1641" width="206.601" height="133.818" filterUnits="userSpaceOnUse" color-interpolation-filters="sRGB">
<feFlood flood-opacity="0" result="BackgroundImageFix"/>
<feGaussianBlur in="BackgroundImage" stdDeviation="6.5"/>
<feComposite in2="SourceAlpha" operator="in" result="effect1_backgroundBlur"/>
<feBlend mode="normal" in="SourceGraphic" in2="effect1_backgroundBlur" result="shape"/>
</filter>
<filter id="filter13_b" x="61.647" y="35.1641" width="206.601" height="133.818" filterUnits="userSpaceOnUse" color-interpolation-filters="sRGB">
<feFlood flood-opacity="0" result="BackgroundImageFix"/>
<feGaussianBlur in="BackgroundImage" stdDeviation="6.5"/>
<feComposite in2="SourceAlpha" operator="in" result="effect1_backgroundBlur"/>
<feBlend mode="normal" in="SourceGraphic" in2="effect1_backgroundBlur" result="shape"/>
</filter>
<filter id="filter14_f" x="85.7632" y="64.2539" width="111.289" height="22.9486" filterUnits="userSpaceOnUse" color-interpolation-filters="sRGB">
<feFlood flood-opacity="0" result="BackgroundImageFix"/>
<feBlend mode="normal" in="SourceGraphic" in2="BackgroundImageFix" result="shape"/>
<feGaussianBlur stdDeviation="2" result="effect1_foregroundBlur"/>
</filter>
<filter id="filter15_b" x="13.8735" y="148.984" width="108.101" height="75.0139" filterUnits="userSpaceOnUse" color-interpolation-filters="sRGB">
<feFlood flood-opacity="0" result="BackgroundImageFix"/>
<feGaussianBlur in="BackgroundImage" stdDeviation="6.5"/>
<feComposite in2="SourceAlpha" operator="in" result="effect1_backgroundBlur"/>
<feBlend mode="normal" in="SourceGraphic" in2="effect1_backgroundBlur" result="shape"/>
</filter>
<filter id="filter16_b" x="13.8735" y="148.984" width="108.101" height="75.0139" filterUnits="userSpaceOnUse" color-interpolation-filters="sRGB">
<feFlood flood-opacity="0" result="BackgroundImageFix"/>
<feGaussianBlur in="BackgroundImage" stdDeviation="6.5"/>
<feComposite in2="SourceAlpha" operator="in" result="effect1_backgroundBlur"/>
<feBlend mode="normal" in="SourceGraphic" in2="effect1_backgroundBlur" result="shape"/>
</filter>
<filter id="filter17_f" x="44.532" y="162.939" width="46.8554" height="46.9063" filterUnits="userSpaceOnUse" color-interpolation-filters="sRGB">
<feFlood flood-opacity="0" result="BackgroundImageFix"/>
<feBlend mode="normal" in="SourceGraphic" in2="BackgroundImageFix" result="shape"/>
<feGaussianBlur stdDeviation="5.5" result="effect1_foregroundBlur"/>
</filter>
<linearGradient id="paint0_linear" x1="0.0194466" y1="32.4362" x2="109.549" y2="32.5018" gradientUnits="userSpaceOnUse">
<stop stop-color="#5C687E"/>
<stop offset="1" stop-color="white" stop-opacity="0"/>
</linearGradient>
<linearGradient id="paint1_linear" x1="187.838" y1="161.984" x2="331.974" y2="162.071" gradientUnits="userSpaceOnUse">
<stop stop-color="#5C687E"/>
<stop offset="1" stop-color="white" stop-opacity="0"/>
</linearGradient>
<linearGradient id="paint2_linear" x1="86.5826" y1="64.5546" x2="365.791" y2="232.726" gradientUnits="userSpaceOnUse">
<stop stop-color="#353D4C"/>
<stop offset="1" stop-color="white" stop-opacity="0"/>
</linearGradient>
<linearGradient id="paint3_linear" x1="26.8851" y1="186.49" x2="108.962" y2="186.539" gradientUnits="userSpaceOnUse">
<stop stop-color="#5C687E"/>
<stop offset="1" stop-color="white" stop-opacity="0"/>
</linearGradient>
</defs>
</svg>
