<svg width="370" height="235" viewBox="0 0 370 235" fill="none" xmlns="http://www.w3.org/2000/svg">
<path d="M54.5693 38.424C54.5693 30.433 60.7732 23.9551 68.4261 23.9551H302.24C309.893 23.9551 316.096 30.433 316.096 38.424V200.474C316.096 208.465 309.893 214.943 302.24 214.943H68.4261C60.7732 214.943 54.5693 208.465 54.5693 200.474V38.424Z" fill="#20293A"/>
<g filter="url(#filter0_b)">
<path d="M7.8795 72.2248C3.52858 72.2247 0.0034727 68.8771 0.00594952 64.7477L0.0403008 7.47681C0.0427776 3.34743 3.5719 -9.68609e-06 7.92282 8.88826e-05L114.233 0.0024973C118.584 0.00259587 122.109 3.3502 122.106 7.47958L122.072 64.7505C122.069 68.8799 118.54 72.2273 114.189 72.2272L7.8795 72.2248Z" fill="#2096EC" fill-opacity="0.14"/>
</g>
<g filter="url(#filter1_b)">
<path fill-rule="evenodd" clip-rule="evenodd" d="M0.368552 7.47681L0.334201 64.7477C0.331827 68.705 3.71006 71.9132 7.87969 71.9132L114.19 71.9157C118.359 71.9158 121.741 68.7078 121.744 64.7505L121.778 7.47957C121.78 3.52225 118.402 0.31413 114.232 0.314036L7.92264 0.311628C3.753 0.311533 0.370926 3.51949 0.368552 7.47681ZM0.00594952 64.7477C0.0034727 68.8771 3.52858 72.2247 7.8795 72.2248L114.189 72.2272C118.54 72.2273 122.069 68.8799 122.072 64.7505L122.106 7.47958C122.109 3.3502 118.584 0.00259587 114.233 0.0024973L7.92282 8.88826e-05C3.5719 -9.68609e-06 0.0427776 3.34743 0.0403008 7.47681L0.00594952 64.7477Z" fill="white"/>
<path fill-rule="evenodd" clip-rule="evenodd" d="M0.368552 7.47681L0.334201 64.7477C0.331827 68.705 3.71006 71.9132 7.87969 71.9132L114.19 71.9157C118.359 71.9158 121.741 68.7078 121.744 64.7505L121.778 7.47957C121.78 3.52225 118.402 0.31413 114.232 0.314036L7.92264 0.311628C3.753 0.311533 0.370926 3.51949 0.368552 7.47681ZM0.00594952 64.7477C0.0034727 68.8771 3.52858 72.2247 7.8795 72.2248L114.189 72.2272C118.54 72.2273 122.069 68.8799 122.072 64.7505L122.106 7.47958C122.109 3.3502 118.584 0.00259587 114.233 0.0024973L7.92282 8.88826e-05C3.5719 -9.68609e-06 0.0427776 3.34743 0.0403008 7.47681L0.00594952 64.7477Z" fill="url(#paint0_linear)"/>
</g>
<rect opacity="0.6" x="29.2817" y="10.5781" width="2.06079" height="52.7058" rx="1" fill="white"/>
<g opacity="0.9" filter="url(#filter2_f)">
<rect x="36.4946" y="33.4746" width="3.09118" height="8.20827" rx="1" fill="white"/>
</g>
<rect x="36.4946" y="33.4746" width="3.09118" height="8.20827" rx="1" fill="white"/>
<rect opacity="0.7" x="37.5249" y="18.3535" width="1.03039" height="38.8813" rx="0.515197" fill="white"/>
<g opacity="0.9" filter="url(#filter3_f)">
<rect x="44.2217" y="26.1309" width="3.09118" height="12.5284" rx="1" fill="white"/>
</g>
<rect x="44.2217" y="26.1309" width="3.09118" height="12.5284" rx="1" fill="white"/>
<rect opacity="0.7" x="45.252" y="13.1699" width="1.03039" height="38.8813" rx="0.515197" fill="white"/>
<g opacity="0.9" filter="url(#filter4_f)">
<rect x="51.9507" y="20.082" width="3.09118" height="7.77626" rx="1" fill="white"/>
</g>
<rect x="51.9507" y="20.082" width="3.09118" height="7.77626" rx="1" fill="white"/>
<rect opacity="0.7" x="52.981" y="7.98633" width="1.03039" height="38.8813" rx="0.515197" fill="white"/>
<g opacity="0.9" filter="url(#filter5_f)">
<rect x="59.6792" y="25.2656" width="3.09118" height="17.7126" rx="1" fill="white"/>
</g>
<rect x="59.6792" y="25.2656" width="3.09118" height="17.7126" rx="1" fill="white"/>
<rect opacity="0.7" x="60.7095" y="14.8984" width="1.03039" height="38.8813" rx="0.515197" fill="white"/>
<g opacity="0.9" filter="url(#filter6_f)">
<rect x="67.4062" y="30.8809" width="3.09118" height="13.3924" rx="1" fill="white"/>
</g>
<rect x="67.4062" y="30.8809" width="3.09118" height="13.3924" rx="1" fill="white"/>
<rect opacity="0.7" x="68.4365" y="18.3535" width="1.03039" height="38.8813" rx="0.515197" fill="white"/>
<g opacity="0.9" filter="url(#filter7_f)">
<rect x="75.1348" y="35.2031" width="3.09118" height="8.20827" rx="1" fill="white"/>
</g>
<rect x="75.1348" y="35.2031" width="3.09118" height="8.20827" rx="1" fill="white"/>
<rect opacity="0.7" x="76.165" y="20.082" width="1.03039" height="38.8813" rx="0.515197" fill="white"/>
<g opacity="0.9" filter="url(#filter8_f)">
<rect x="82.8623" y="30.0195" width="3.09118" height="8.20827" rx="1" fill="white"/>
</g>
<rect x="82.8623" y="30.0195" width="3.09118" height="8.20827" rx="1" fill="white"/>
<rect opacity="0.7" x="83.8926" y="14.8984" width="1.03039" height="38.8813" rx="0.515197" fill="white"/>
<rect opacity="0.6" x="93.166" y="61.5547" width="1.72806" height="62.8541" rx="0.864029" transform="rotate(90 93.166 61.5547)" fill="white"/>
<g filter="url(#filter9_b)">
<path d="M219.677 228.248C213.952 228.248 209.313 223.807 209.316 218.328L209.362 142.345C209.365 136.866 214.009 132.425 219.735 132.425L359.633 132.428C365.359 132.428 369.998 136.87 369.994 142.348L369.948 218.332C369.945 223.81 365.301 228.252 359.575 228.251L219.677 228.248Z" fill="#2096EC" fill-opacity="0.14"/>
</g>
<g filter="url(#filter10_b)">
<path fill-rule="evenodd" clip-rule="evenodd" d="M209.794 142.345L209.748 218.328C209.745 223.578 214.19 227.835 219.677 227.835L359.576 227.838C365.063 227.838 369.513 223.582 369.517 218.332L369.562 142.348C369.566 137.098 365.12 132.842 359.633 132.842L219.735 132.839C214.248 132.838 209.797 137.095 209.794 142.345ZM209.316 218.328C209.313 223.807 213.952 228.248 219.677 228.248L359.575 228.251C365.301 228.252 369.945 223.81 369.948 218.332L369.994 142.348C369.998 136.87 365.359 132.428 359.633 132.428L219.735 132.425C214.009 132.425 209.365 136.866 209.362 142.345L209.316 218.328Z" fill="white"/>
<path fill-rule="evenodd" clip-rule="evenodd" d="M209.794 142.345L209.748 218.328C209.745 223.578 214.19 227.835 219.677 227.835L359.576 227.838C365.063 227.838 369.513 223.582 369.517 218.332L369.562 142.348C369.566 137.098 365.12 132.842 359.633 132.842L219.735 132.839C214.248 132.838 209.797 137.095 209.794 142.345ZM209.316 218.328C209.313 223.807 213.952 228.248 219.677 228.248L359.575 228.251C365.301 228.252 369.945 223.81 369.948 218.332L369.994 142.348C369.998 136.87 365.359 132.428 359.633 132.428L219.735 132.425C214.009 132.425 209.365 136.866 209.362 142.345L209.316 218.328Z" fill="url(#paint1_linear)"/>
</g>
<g opacity="0.9" filter="url(#filter11_f)">
<path d="M319.849 180.008C320.953 180.008 321.855 180.905 321.788 182.007C321.458 187.386 319.804 192.612 316.958 197.212C313.761 202.381 309.186 206.557 303.748 209.271C298.309 211.984 292.223 213.129 286.17 212.576C280.117 212.023 274.339 209.794 269.482 206.14C264.626 202.486 260.884 197.55 258.676 191.888C256.468 186.225 255.882 180.059 256.983 174.082C258.085 168.105 260.83 162.553 264.911 158.049C268.543 154.04 273.106 151.003 278.184 149.197C279.224 148.826 280.335 149.445 280.641 150.506L281.929 154.972C282.235 156.033 281.618 157.134 280.586 157.527C277.05 158.873 273.872 161.038 271.319 163.856C268.317 167.169 266.298 171.252 265.488 175.649C264.678 180.046 265.109 184.581 266.733 188.746C268.357 192.912 271.109 196.542 274.682 199.23C278.254 201.918 282.505 203.557 286.957 203.964C291.409 204.371 295.886 203.529 299.886 201.533C303.887 199.536 307.251 196.465 309.603 192.663C311.604 189.429 312.804 185.776 313.118 182.006C313.21 180.905 314.096 180.008 315.201 180.008H319.849Z" fill="white"/>
</g>
<path opacity="0.8" d="M319.849 180.008C320.953 180.008 321.855 180.905 321.788 182.007C321.458 187.386 319.804 192.612 316.958 197.212C313.761 202.381 309.186 206.557 303.748 209.271C298.309 211.984 292.223 213.129 286.17 212.576C280.117 212.023 274.339 209.794 269.482 206.14C264.626 202.486 260.884 197.55 258.676 191.888C256.468 186.225 255.882 180.059 256.983 174.082C258.085 168.105 260.83 162.553 264.911 158.049C268.543 154.04 273.106 151.003 278.184 149.197C279.224 148.826 280.335 149.445 280.641 150.506L281.929 154.972C282.235 156.033 281.618 157.134 280.586 157.527C277.05 158.873 273.872 161.038 271.319 163.856C268.317 167.169 266.298 171.252 265.488 175.649C264.678 180.046 265.109 184.581 266.733 188.746C268.357 192.912 271.109 196.542 274.682 199.23C278.254 201.918 282.505 203.557 286.957 203.964C291.409 204.371 295.886 203.529 299.886 201.533C303.887 199.536 307.251 196.465 309.603 192.663C311.604 189.429 312.804 185.776 313.118 182.006C313.21 180.905 314.096 180.008 315.201 180.008H319.849Z" fill="white"/>
<path opacity="0.7" d="M284.209 149.701C284.032 148.611 284.772 147.577 285.871 147.466C291.301 146.92 296.783 147.741 301.815 149.856C302.833 150.284 303.237 151.489 302.748 152.48L300.689 156.647C300.2 157.637 299.003 158.034 297.975 157.629C294.573 156.287 290.909 155.737 287.263 156.024C286.162 156.11 285.134 155.379 284.957 154.289L284.209 149.701Z" fill="white"/>
<path opacity="0.4" d="M307.395 155.316C308.051 154.428 309.308 154.236 310.154 154.945C313.122 157.433 315.628 160.431 317.552 163.804C319.476 167.177 320.781 170.86 321.412 174.681C321.592 175.771 320.786 176.755 319.688 176.868L315.064 177.343C313.965 177.456 312.992 176.654 312.788 175.569C312.295 172.945 311.368 170.416 310.04 168.089C308.713 165.762 307.008 163.677 305 161.917C304.17 161.189 303.976 159.942 304.632 159.054L307.395 155.316Z" fill="white"/>
<path opacity="0.7" d="M283.251 181.05C282.057 181.05 281.097 180.733 280.373 180.1C279.667 179.466 279.278 178.606 279.206 177.52C279.188 177.213 279.179 176.806 279.179 176.299C279.179 175.756 279.188 175.321 279.206 174.996C279.278 173.873 279.658 172.986 280.346 172.335C281.034 171.683 282.002 171.357 283.251 171.357C284.5 171.357 285.468 171.683 286.156 172.335C286.862 172.986 287.242 173.873 287.297 174.996C287.333 175.72 287.351 176.19 287.351 176.407C287.351 176.606 287.333 176.977 287.297 177.52C287.242 178.606 286.853 179.466 286.129 180.1C285.423 180.733 284.464 181.05 283.251 181.05ZM281.025 190.498C280.862 190.498 280.726 190.453 280.618 190.362C280.509 190.254 280.455 190.118 280.455 189.955C280.455 189.847 280.491 189.747 280.563 189.657L293.948 172.009C294.093 171.828 294.229 171.701 294.356 171.629C294.482 171.538 294.654 171.493 294.871 171.493H296.31C296.491 171.493 296.627 171.547 296.718 171.656C296.826 171.747 296.881 171.873 296.881 172.036C296.881 172.145 296.844 172.244 296.772 172.335L283.387 189.982C283.242 190.163 283.106 190.299 282.98 190.39C282.853 190.462 282.681 190.498 282.464 190.498H281.025ZM283.251 179.041C283.776 179.041 284.165 178.887 284.419 178.579C284.672 178.254 284.817 177.855 284.853 177.385C284.889 176.769 284.907 176.389 284.907 176.244C284.907 176.045 284.889 175.674 284.853 175.131C284.835 174.661 284.69 174.272 284.419 173.964C284.165 173.638 283.776 173.475 283.251 173.475C282.726 173.475 282.337 173.638 282.084 173.964C281.83 174.272 281.695 174.661 281.677 175.131C281.658 175.403 281.649 175.774 281.649 176.244C281.649 176.697 281.658 177.077 281.677 177.385C281.713 177.855 281.848 178.254 282.084 178.579C282.337 178.887 282.726 179.041 283.251 179.041ZM294.084 190.661C292.889 190.661 291.93 190.335 291.206 189.684C290.5 189.014 290.111 188.127 290.039 187.023C290.021 186.715 290.012 186.308 290.012 185.801C290.012 185.276 290.021 184.851 290.039 184.525C290.111 183.403 290.491 182.516 291.179 181.864C291.867 181.213 292.835 180.887 294.084 180.887C295.333 180.887 296.301 181.213 296.989 181.864C297.695 182.516 298.075 183.403 298.129 184.525C298.166 185.249 298.184 185.711 298.184 185.91C298.184 186.109 298.166 186.48 298.129 187.023C298.057 188.127 297.659 189.014 296.935 189.684C296.229 190.335 295.279 190.661 294.084 190.661ZM294.084 188.543C294.627 188.543 295.016 188.39 295.252 188.082C295.505 187.756 295.65 187.367 295.686 186.914C295.722 186.299 295.74 185.919 295.74 185.774C295.74 185.575 295.722 185.204 295.686 184.661C295.668 184.19 295.523 183.792 295.252 183.466C294.998 183.141 294.609 182.978 294.084 182.978C293.559 182.978 293.17 183.141 292.917 183.466C292.663 183.774 292.518 184.172 292.482 184.661C292.464 184.932 292.455 185.304 292.455 185.774C292.455 186.227 292.464 186.607 292.482 186.914C292.537 187.385 292.681 187.774 292.917 188.082C293.17 188.39 293.559 188.543 294.084 188.543Z" fill="white"/>
<g filter="url(#filter12_b)">
<path d="M96.1707 173.653C88.9987 173.652 83.1879 168.089 83.1921 161.226L83.2495 66.0471C83.2536 59.1844 89.0711 53.6213 96.2431 53.6214L271.484 53.6254C278.656 53.6255 284.467 59.189 284.463 66.0516L284.406 161.231C284.402 168.094 278.584 173.657 271.412 173.657L96.1707 173.653Z" fill="#2096EC" fill-opacity="0.14"/>
</g>
<g filter="url(#filter13_b)">
<path fill-rule="evenodd" clip-rule="evenodd" d="M83.7906 66.0471L83.7332 161.226C83.7292 167.803 89.2978 173.135 96.171 173.135L271.412 173.139C278.286 173.139 283.861 167.808 283.865 161.231L283.922 66.0516C283.926 59.4749 278.357 54.1433 271.484 54.1431L96.2428 54.1392C89.3696 54.139 83.7945 59.4704 83.7906 66.0471ZM83.1921 161.226C83.1879 168.089 88.9987 173.652 96.1707 173.653L271.412 173.657C278.584 173.657 284.402 168.094 284.406 161.231L284.463 66.0516C284.467 59.189 278.656 53.6255 271.484 53.6254L96.2431 53.6214C89.0711 53.6213 83.2536 59.1844 83.2495 66.0471L83.1921 161.226Z" fill="white"/>
<path fill-rule="evenodd" clip-rule="evenodd" d="M83.7906 66.0471L83.7332 161.226C83.7292 167.803 89.2978 173.135 96.171 173.135L271.412 173.139C278.286 173.139 283.861 167.808 283.865 161.231L283.922 66.0516C283.926 59.4749 278.357 54.1433 271.484 54.1431L96.2428 54.1392C89.3696 54.139 83.7945 59.4704 83.7906 66.0471ZM83.1921 161.226C83.1879 168.089 88.9987 173.652 96.1707 173.653L271.412 173.657C278.584 173.657 284.402 168.094 284.406 161.231L284.463 66.0516C284.467 59.189 278.656 53.6255 271.484 53.6254L96.2431 53.6214C89.0711 53.6213 83.2536 59.1844 83.2495 66.0471L83.1921 161.226Z" fill="url(#paint2_linear)"/>
</g>
<g opacity="0.78" filter="url(#filter14_f)">
<path d="M102.46 122.3C102.289 122.3 102.135 122.239 101.997 122.117C101.877 121.978 101.817 121.822 101.817 121.649V104.722C101.817 104.531 101.877 104.375 101.997 104.253C102.135 104.132 102.289 104.071 102.46 104.071H105.855C106.044 104.071 106.198 104.132 106.318 104.253C106.438 104.375 106.498 104.531 106.498 104.722V118.367H114.291C114.48 118.367 114.634 118.437 114.754 118.576C114.874 118.697 114.934 118.854 114.934 119.045V121.649C114.934 121.822 114.874 121.978 114.754 122.117C114.634 122.239 114.48 122.3 114.291 122.3H102.46Z" fill="#2CCD65"/>
<path d="M118.321 122.3C118.149 122.3 117.995 122.239 117.858 122.117C117.738 121.978 117.678 121.822 117.678 121.649V104.722C117.678 104.531 117.738 104.375 117.858 104.253C117.995 104.132 118.149 104.071 118.321 104.071H130.331C130.52 104.071 130.674 104.132 130.794 104.253C130.914 104.375 130.974 104.531 130.974 104.722V107.17C130.974 107.343 130.914 107.5 130.794 107.639C130.674 107.76 130.52 107.821 130.331 107.821H122.127V111.336H129.765C129.954 111.336 130.108 111.406 130.228 111.545C130.348 111.666 130.408 111.822 130.408 112.013V114.279C130.408 114.453 130.348 114.609 130.228 114.748C130.108 114.869 129.954 114.93 129.765 114.93H122.127V118.55H130.537C130.726 118.55 130.88 118.611 131 118.732C131.12 118.854 131.18 119.01 131.18 119.201V121.649C131.18 121.822 131.12 121.978 131 122.117C130.88 122.239 130.726 122.3 130.537 122.3H118.321Z" fill="#2CCD65"/>
<path d="M133.589 122.3C133.452 122.3 133.323 122.248 133.203 122.143C133.1 122.022 133.049 121.892 133.049 121.753C133.049 121.649 133.058 121.57 133.075 121.518L139.119 104.8C139.17 104.592 139.282 104.418 139.453 104.279C139.624 104.14 139.847 104.071 140.122 104.071H143.928C144.202 104.071 144.425 104.14 144.597 104.279C144.768 104.418 144.88 104.592 144.931 104.8L150.949 121.518L151.001 121.753C151.001 121.892 150.941 122.022 150.821 122.143C150.718 122.248 150.589 122.3 150.435 122.3H147.271C146.86 122.3 146.586 122.117 146.448 121.753L145.445 119.097H138.579L137.601 121.753C137.464 122.117 137.181 122.3 136.753 122.3H133.589ZM144.417 115.347L142.025 108.472L139.633 115.347H144.417Z" fill="#2CCD65"/>
<path d="M154.185 122.3C154.014 122.3 153.859 122.239 153.722 122.117C153.602 121.978 153.542 121.822 153.542 121.649V104.722C153.542 104.531 153.602 104.375 153.722 104.253C153.859 104.132 154.014 104.071 154.185 104.071H160.872C163.393 104.071 165.347 104.679 166.736 105.894C168.125 107.109 168.853 108.871 168.922 111.18C168.939 111.684 168.948 112.352 168.948 113.185C168.948 114.019 168.939 114.678 168.922 115.164C168.836 117.578 168.125 119.374 166.787 120.555C165.467 121.718 163.538 122.3 161.001 122.3H154.185ZM160.872 118.55C162.004 118.55 162.835 118.281 163.367 117.742C163.898 117.187 164.181 116.31 164.216 115.112C164.25 114.609 164.267 113.958 164.267 113.159C164.267 112.361 164.25 111.718 164.216 111.232C164.181 110.069 163.873 109.21 163.29 108.654C162.724 108.099 161.875 107.821 160.743 107.821H158.172V118.55H160.872Z" fill="#2CCD65"/>
<path d="M172.522 122.3C172.351 122.3 172.197 122.239 172.059 122.117C171.939 121.978 171.879 121.822 171.879 121.649V118.341C171.879 118.15 171.939 117.994 172.059 117.873C172.197 117.751 172.351 117.69 172.522 117.69H175.789C175.977 117.69 176.131 117.751 176.251 117.873C176.372 117.994 176.432 118.15 176.432 118.341V121.649C176.432 121.822 176.372 121.978 176.251 122.117C176.131 122.239 175.977 122.3 175.789 122.3H172.522Z" fill="#2CCD65"/>
<path d="M180.757 122.3C180.585 122.3 180.431 122.239 180.294 122.117C180.174 121.978 180.114 121.822 180.114 121.649V104.722C180.114 104.531 180.174 104.375 180.294 104.253C180.431 104.132 180.585 104.071 180.757 104.071H192.588C192.776 104.071 192.93 104.132 193.05 104.253C193.171 104.375 193.231 104.531 193.231 104.722V107.352C193.231 107.526 193.171 107.682 193.05 107.821C192.93 107.942 192.776 108.003 192.588 108.003H184.64V111.831H192.073C192.262 111.831 192.416 111.901 192.536 112.039C192.656 112.161 192.716 112.317 192.716 112.508V115.112C192.716 115.286 192.656 115.442 192.536 115.581C192.416 115.703 192.262 115.763 192.073 115.763H184.64V121.649C184.64 121.84 184.58 121.996 184.46 122.117C184.34 122.239 184.186 122.3 183.997 122.3H180.757Z" fill="#2CCD65"/>
<path d="M203.757 122.56C201.339 122.56 199.436 121.961 198.047 120.763C196.658 119.565 195.921 117.803 195.835 115.477C195.818 114.973 195.81 114.227 195.81 113.237C195.81 112.23 195.818 111.475 195.835 110.972C195.921 108.68 196.667 106.918 198.073 105.685C199.496 104.436 201.391 103.811 203.757 103.811C206.123 103.811 208.017 104.436 209.441 105.685C210.864 106.918 211.61 108.68 211.678 110.972C211.712 111.979 211.73 112.734 211.73 113.237C211.73 113.723 211.712 114.47 211.678 115.477C211.592 117.803 210.855 119.565 209.466 120.763C208.077 121.961 206.174 122.56 203.757 122.56ZM203.757 118.81C204.7 118.81 205.446 118.524 205.994 117.951C206.56 117.378 206.86 116.501 206.894 115.321C206.929 114.314 206.946 113.602 206.946 113.185C206.946 112.734 206.929 112.022 206.894 111.05C206.86 109.869 206.56 108.993 205.994 108.42C205.428 107.847 204.683 107.56 203.757 107.56C202.831 107.56 202.085 107.847 201.519 108.42C200.971 108.993 200.67 109.869 200.619 111.05C200.602 111.536 200.593 112.248 200.593 113.185C200.593 114.105 200.602 114.817 200.619 115.321C200.67 116.501 200.971 117.378 201.519 117.951C202.068 118.524 202.814 118.81 203.757 118.81Z" fill="#2CCD65"/>
<path d="M215.868 122.3C215.697 122.3 215.542 122.239 215.405 122.117C215.285 121.978 215.225 121.822 215.225 121.649V104.722C215.225 104.531 215.285 104.375 215.405 104.253C215.542 104.132 215.697 104.071 215.868 104.071H222.864C225.11 104.071 226.859 104.592 228.11 105.633C229.379 106.658 230.013 108.116 230.013 110.008C230.013 111.224 229.73 112.257 229.165 113.107C228.599 113.958 227.819 114.609 226.824 115.06L230.348 121.466C230.399 121.57 230.425 121.666 230.425 121.753C230.425 121.892 230.365 122.022 230.245 122.143C230.142 122.248 230.022 122.3 229.885 122.3H226.464C225.967 122.3 225.615 122.065 225.41 121.597L222.478 115.868H219.854V121.649C219.854 121.84 219.786 121.996 219.649 122.117C219.529 122.239 219.374 122.3 219.186 122.3H215.868ZM222.812 112.17C223.601 112.17 224.201 111.979 224.612 111.597C225.024 111.198 225.23 110.651 225.23 109.956C225.23 109.262 225.024 108.715 224.612 108.316C224.218 107.899 223.618 107.691 222.812 107.691H219.854V112.17H222.812Z" fill="#2CCD65"/>
<path d="M240.827 122.56C238.376 122.56 236.455 121.961 235.066 120.763C233.695 119.548 232.966 117.795 232.88 115.503C232.863 115.034 232.855 114.27 232.855 113.211C232.855 112.135 232.863 111.354 232.88 110.868C232.966 108.611 233.712 106.875 235.118 105.659C236.524 104.427 238.427 103.811 240.827 103.811C242.336 103.811 243.691 104.071 244.891 104.592C246.091 105.095 247.034 105.824 247.72 106.779C248.423 107.717 248.783 108.819 248.8 110.086V110.139C248.8 110.277 248.74 110.399 248.62 110.503C248.517 110.59 248.397 110.633 248.26 110.633H244.788C244.565 110.633 244.394 110.59 244.274 110.503C244.154 110.399 244.051 110.217 243.965 109.956C243.725 109.071 243.348 108.455 242.834 108.107C242.319 107.743 241.642 107.56 240.802 107.56C238.779 107.56 237.733 108.706 237.664 110.998C237.647 111.467 237.638 112.187 237.638 113.159C237.638 114.131 237.647 114.869 237.664 115.373C237.733 117.664 238.779 118.81 240.802 118.81C241.642 118.81 242.328 118.628 242.859 118.263C243.391 117.881 243.759 117.265 243.965 116.414C244.034 116.154 244.128 115.98 244.248 115.894C244.368 115.789 244.548 115.737 244.788 115.737H248.26C248.415 115.737 248.543 115.789 248.646 115.894C248.766 115.998 248.817 116.128 248.8 116.284C248.783 117.552 248.423 118.663 247.72 119.617C247.034 120.555 246.091 121.284 244.891 121.805C243.691 122.308 242.336 122.56 240.827 122.56Z" fill="#2CCD65"/>
<path d="M252.662 122.3C252.491 122.3 252.336 122.239 252.199 122.117C252.079 121.978 252.019 121.822 252.019 121.649V104.722C252.019 104.531 252.079 104.375 252.199 104.253C252.336 104.132 252.491 104.071 252.662 104.071H264.673C264.861 104.071 265.016 104.132 265.136 104.253C265.256 104.375 265.316 104.531 265.316 104.722V107.17C265.316 107.343 265.256 107.5 265.136 107.639C265.016 107.76 264.861 107.821 264.673 107.821H256.468V111.336H264.107C264.295 111.336 264.45 111.406 264.57 111.545C264.69 111.666 264.75 111.822 264.75 112.013V114.279C264.75 114.453 264.69 114.609 264.57 114.748C264.45 114.869 264.295 114.93 264.107 114.93H256.468V118.55H264.878C265.067 118.55 265.221 118.611 265.341 118.732C265.461 118.854 265.521 119.01 265.521 119.201V121.649C265.521 121.822 265.461 121.978 265.341 122.117C265.221 122.239 265.067 122.3 264.878 122.3H252.662Z" fill="#2CCD65"/>
</g>
<path d="M102.46 122.3C102.289 122.3 102.135 122.239 101.997 122.117C101.877 121.978 101.817 121.822 101.817 121.649V104.722C101.817 104.531 101.877 104.375 101.997 104.253C102.135 104.132 102.289 104.071 102.46 104.071H105.855C106.044 104.071 106.198 104.132 106.318 104.253C106.438 104.375 106.498 104.531 106.498 104.722V118.367H114.291C114.48 118.367 114.634 118.437 114.754 118.576C114.874 118.697 114.934 118.854 114.934 119.045V121.649C114.934 121.822 114.874 121.978 114.754 122.117C114.634 122.239 114.48 122.3 114.291 122.3H102.46Z" fill="#2CCD65"/>
<path d="M118.321 122.3C118.149 122.3 117.995 122.239 117.858 122.117C117.738 121.978 117.678 121.822 117.678 121.649V104.722C117.678 104.531 117.738 104.375 117.858 104.253C117.995 104.132 118.149 104.071 118.321 104.071H130.331C130.52 104.071 130.674 104.132 130.794 104.253C130.914 104.375 130.974 104.531 130.974 104.722V107.17C130.974 107.343 130.914 107.5 130.794 107.639C130.674 107.76 130.52 107.821 130.331 107.821H122.127V111.336H129.765C129.954 111.336 130.108 111.406 130.228 111.545C130.348 111.666 130.408 111.822 130.408 112.013V114.279C130.408 114.453 130.348 114.609 130.228 114.748C130.108 114.869 129.954 114.93 129.765 114.93H122.127V118.55H130.537C130.726 118.55 130.88 118.611 131 118.732C131.12 118.854 131.18 119.01 131.18 119.201V121.649C131.18 121.822 131.12 121.978 131 122.117C130.88 122.239 130.726 122.3 130.537 122.3H118.321Z" fill="#2CCD65"/>
<path d="M133.589 122.3C133.452 122.3 133.323 122.248 133.203 122.143C133.1 122.022 133.049 121.892 133.049 121.753C133.049 121.649 133.058 121.57 133.075 121.518L139.119 104.8C139.17 104.592 139.282 104.418 139.453 104.279C139.624 104.14 139.847 104.071 140.122 104.071H143.928C144.202 104.071 144.425 104.14 144.597 104.279C144.768 104.418 144.88 104.592 144.931 104.8L150.949 121.518L151.001 121.753C151.001 121.892 150.941 122.022 150.821 122.143C150.718 122.248 150.589 122.3 150.435 122.3H147.271C146.86 122.3 146.586 122.117 146.448 121.753L145.445 119.097H138.579L137.601 121.753C137.464 122.117 137.181 122.3 136.753 122.3H133.589ZM144.417 115.347L142.025 108.472L139.633 115.347H144.417Z" fill="#2CCD65"/>
<path d="M154.185 122.3C154.014 122.3 153.859 122.239 153.722 122.117C153.602 121.978 153.542 121.822 153.542 121.649V104.722C153.542 104.531 153.602 104.375 153.722 104.253C153.859 104.132 154.014 104.071 154.185 104.071H160.872C163.393 104.071 165.347 104.679 166.736 105.894C168.125 107.109 168.853 108.871 168.922 111.18C168.939 111.684 168.948 112.352 168.948 113.185C168.948 114.019 168.939 114.678 168.922 115.164C168.836 117.578 168.125 119.374 166.787 120.555C165.467 121.718 163.538 122.3 161.001 122.3H154.185ZM160.872 118.55C162.004 118.55 162.835 118.281 163.367 117.742C163.898 117.187 164.181 116.31 164.216 115.112C164.25 114.609 164.267 113.958 164.267 113.159C164.267 112.361 164.25 111.718 164.216 111.232C164.181 110.069 163.873 109.21 163.29 108.654C162.724 108.099 161.875 107.821 160.743 107.821H158.172V118.55H160.872Z" fill="#2CCD65"/>
<path d="M172.522 122.3C172.351 122.3 172.197 122.239 172.059 122.117C171.939 121.978 171.879 121.822 171.879 121.649V118.341C171.879 118.15 171.939 117.994 172.059 117.873C172.197 117.751 172.351 117.69 172.522 117.69H175.789C175.977 117.69 176.131 117.751 176.251 117.873C176.372 117.994 176.432 118.15 176.432 118.341V121.649C176.432 121.822 176.372 121.978 176.251 122.117C176.131 122.239 175.977 122.3 175.789 122.3H172.522Z" fill="#2CCD65"/>
<path d="M180.757 122.3C180.585 122.3 180.431 122.239 180.294 122.117C180.174 121.978 180.114 121.822 180.114 121.649V104.722C180.114 104.531 180.174 104.375 180.294 104.253C180.431 104.132 180.585 104.071 180.757 104.071H192.588C192.776 104.071 192.93 104.132 193.05 104.253C193.171 104.375 193.231 104.531 193.231 104.722V107.352C193.231 107.526 193.171 107.682 193.05 107.821C192.93 107.942 192.776 108.003 192.588 108.003H184.64V111.831H192.073C192.262 111.831 192.416 111.901 192.536 112.039C192.656 112.161 192.716 112.317 192.716 112.508V115.112C192.716 115.286 192.656 115.442 192.536 115.581C192.416 115.703 192.262 115.763 192.073 115.763H184.64V121.649C184.64 121.84 184.58 121.996 184.46 122.117C184.34 122.239 184.186 122.3 183.997 122.3H180.757Z" fill="#2CCD65"/>
<path d="M203.757 122.56C201.339 122.56 199.436 121.961 198.047 120.763C196.658 119.565 195.921 117.803 195.835 115.477C195.818 114.973 195.81 114.227 195.81 113.237C195.81 112.23 195.818 111.475 195.835 110.972C195.921 108.68 196.667 106.918 198.073 105.685C199.496 104.436 201.391 103.811 203.757 103.811C206.123 103.811 208.017 104.436 209.441 105.685C210.864 106.918 211.61 108.68 211.678 110.972C211.712 111.979 211.73 112.734 211.73 113.237C211.73 113.723 211.712 114.47 211.678 115.477C211.592 117.803 210.855 119.565 209.466 120.763C208.077 121.961 206.174 122.56 203.757 122.56ZM203.757 118.81C204.7 118.81 205.446 118.524 205.994 117.951C206.56 117.378 206.86 116.501 206.894 115.321C206.929 114.314 206.946 113.602 206.946 113.185C206.946 112.734 206.929 112.022 206.894 111.05C206.86 109.869 206.56 108.993 205.994 108.42C205.428 107.847 204.683 107.56 203.757 107.56C202.831 107.56 202.085 107.847 201.519 108.42C200.971 108.993 200.67 109.869 200.619 111.05C200.602 111.536 200.593 112.248 200.593 113.185C200.593 114.105 200.602 114.817 200.619 115.321C200.67 116.501 200.971 117.378 201.519 117.951C202.068 118.524 202.814 118.81 203.757 118.81Z" fill="#2CCD65"/>
<path d="M215.868 122.3C215.697 122.3 215.542 122.239 215.405 122.117C215.285 121.978 215.225 121.822 215.225 121.649V104.722C215.225 104.531 215.285 104.375 215.405 104.253C215.542 104.132 215.697 104.071 215.868 104.071H222.864C225.11 104.071 226.859 104.592 228.11 105.633C229.379 106.658 230.013 108.116 230.013 110.008C230.013 111.224 229.73 112.257 229.165 113.107C228.599 113.958 227.819 114.609 226.824 115.06L230.348 121.466C230.399 121.57 230.425 121.666 230.425 121.753C230.425 121.892 230.365 122.022 230.245 122.143C230.142 122.248 230.022 122.3 229.885 122.3H226.464C225.967 122.3 225.615 122.065 225.41 121.597L222.478 115.868H219.854V121.649C219.854 121.84 219.786 121.996 219.649 122.117C219.529 122.239 219.374 122.3 219.186 122.3H215.868ZM222.812 112.17C223.601 112.17 224.201 111.979 224.612 111.597C225.024 111.198 225.23 110.651 225.23 109.956C225.23 109.262 225.024 108.715 224.612 108.316C224.218 107.899 223.618 107.691 222.812 107.691H219.854V112.17H222.812Z" fill="#2CCD65"/>
<path d="M240.827 122.56C238.376 122.56 236.455 121.961 235.066 120.763C233.695 119.548 232.966 117.795 232.88 115.503C232.863 115.034 232.855 114.27 232.855 113.211C232.855 112.135 232.863 111.354 232.88 110.868C232.966 108.611 233.712 106.875 235.118 105.659C236.524 104.427 238.427 103.811 240.827 103.811C242.336 103.811 243.691 104.071 244.891 104.592C246.091 105.095 247.034 105.824 247.72 106.779C248.423 107.717 248.783 108.819 248.8 110.086V110.139C248.8 110.277 248.74 110.399 248.62 110.503C248.517 110.59 248.397 110.633 248.26 110.633H244.788C244.565 110.633 244.394 110.59 244.274 110.503C244.154 110.399 244.051 110.217 243.965 109.956C243.725 109.071 243.348 108.455 242.834 108.107C242.319 107.743 241.642 107.56 240.802 107.56C238.779 107.56 237.733 108.706 237.664 110.998C237.647 111.467 237.638 112.187 237.638 113.159C237.638 114.131 237.647 114.869 237.664 115.373C237.733 117.664 238.779 118.81 240.802 118.81C241.642 118.81 242.328 118.628 242.859 118.263C243.391 117.881 243.759 117.265 243.965 116.414C244.034 116.154 244.128 115.98 244.248 115.894C244.368 115.789 244.548 115.737 244.788 115.737H248.26C248.415 115.737 248.543 115.789 248.646 115.894C248.766 115.998 248.817 116.128 248.8 116.284C248.783 117.552 248.423 118.663 247.72 119.617C247.034 120.555 246.091 121.284 244.891 121.805C243.691 122.308 242.336 122.56 240.827 122.56Z" fill="#2CCD65"/>
<path d="M252.662 122.3C252.491 122.3 252.336 122.239 252.199 122.117C252.079 121.978 252.019 121.822 252.019 121.649V104.722C252.019 104.531 252.079 104.375 252.199 104.253C252.336 104.132 252.491 104.071 252.662 104.071H264.673C264.861 104.071 265.016 104.132 265.136 104.253C265.256 104.375 265.316 104.531 265.316 104.722V107.17C265.316 107.343 265.256 107.5 265.136 107.639C265.016 107.76 264.861 107.821 264.673 107.821H256.468V111.336H264.107C264.295 111.336 264.45 111.406 264.57 111.545C264.69 111.666 264.75 111.822 264.75 112.013V114.279C264.75 114.453 264.69 114.609 264.57 114.748C264.45 114.869 264.295 114.93 264.107 114.93H256.468V118.55H264.878C265.067 118.55 265.221 118.611 265.341 118.732C265.461 118.854 265.521 119.01 265.521 119.201V121.649C265.521 121.822 265.461 121.978 265.341 122.117C265.221 122.239 265.067 122.3 264.878 122.3H252.662Z" fill="#2CCD65"/>
<g filter="url(#filter15_b)">
<path d="M35.8512 234.904C32.5908 234.904 29.9493 232.375 29.9512 229.255L29.9773 185.987C29.9791 182.867 32.6237 180.338 35.8841 180.339L115.548 180.34C118.809 180.34 121.45 182.869 121.449 185.989L121.422 229.258C121.421 232.377 118.776 234.906 115.516 234.906L35.8512 234.904Z" fill="#2096EC" fill-opacity="0.14"/>
</g>
<g filter="url(#filter16_b)">
<path fill-rule="evenodd" clip-rule="evenodd" d="M30.2232 185.987L30.1971 229.255C30.1953 232.245 32.7268 234.669 35.8514 234.669L115.516 234.671C118.64 234.671 121.175 232.247 121.176 229.258L121.203 185.989C121.204 182.999 118.673 180.576 115.548 180.576L35.884 180.574C32.7594 180.574 30.225 182.997 30.2232 185.987ZM29.9512 229.255C29.9493 232.375 32.5908 234.904 35.8512 234.904L115.516 234.906C118.776 234.906 121.421 232.377 121.422 229.258L121.449 185.989C121.45 182.869 118.809 180.34 115.548 180.34L35.8841 180.339C32.6237 180.338 29.9791 182.867 29.9773 185.987L29.9512 229.255Z" fill="white"/>
<path fill-rule="evenodd" clip-rule="evenodd" d="M30.2232 185.987L30.1971 229.255C30.1953 232.245 32.7268 234.669 35.8514 234.669L115.516 234.671C118.64 234.671 121.175 232.247 121.176 229.258L121.203 185.989C121.204 182.999 118.673 180.576 115.548 180.576L35.884 180.574C32.7594 180.574 30.225 182.997 30.2232 185.987ZM29.9512 229.255C29.9493 232.375 32.5908 234.904 35.8512 234.904L115.516 234.906C118.776 234.906 121.421 232.377 121.422 229.258L121.449 185.989C121.45 182.869 118.809 180.34 115.548 180.34L35.8841 180.339C32.6237 180.338 29.9791 182.867 29.9773 185.987L29.9512 229.255Z" fill="url(#paint3_linear)"/>
</g>
<g filter="url(#filter17_f)">
<path d="M89.5054 205.193C88.7132 205.193 88.0341 205.193 87.2419 205.193C87.1287 205.193 87.1287 205.193 87.0155 205.193C86.676 203.721 86.1101 202.363 85.3179 201.118C85.3179 201.005 85.4311 201.005 85.5442 200.892C85.997 200.439 86.5628 199.873 87.0155 199.42C86.1101 198.176 85.0915 197.157 83.8466 196.252C83.2807 196.817 82.828 197.27 82.2621 197.836C82.1489 197.949 82.1489 197.949 82.0357 197.949C80.7907 197.157 79.4326 196.591 77.9613 196.252V196.138C77.9613 195.799 77.9613 195.346 77.9613 195.007C77.9613 194.667 77.9613 194.214 77.9613 193.875C77.2823 193.762 76.49 193.648 75.6978 193.648C74.9056 193.648 74.2265 193.762 73.4342 193.875C73.4342 194.214 73.4342 194.667 73.4342 195.007C73.4342 195.346 73.4342 195.799 73.4342 196.138C73.4342 196.252 73.4342 196.252 73.4342 196.252C71.9629 196.591 70.6048 197.157 69.3599 197.949C69.2467 197.949 69.2467 197.836 69.1335 197.836C68.5676 197.27 68.1149 196.817 67.549 196.252C66.3041 197.157 65.2855 198.176 64.3801 199.42C64.8328 199.873 65.3986 200.439 65.8513 200.892C65.9645 201.005 66.0777 201.118 66.0777 201.118C65.2855 202.363 64.7196 203.721 64.3801 205.193C64.2669 205.193 64.2669 205.193 64.1537 205.193C63.4746 205.193 62.6824 205.193 62.0033 205.193C61.8901 205.985 61.8901 206.664 61.8901 207.456C61.8901 208.248 62.0033 208.927 62.1165 209.72H62.2297C63.0219 209.72 63.701 209.72 64.4932 209.72C64.4932 209.72 64.4932 209.72 64.6064 209.72C64.946 211.191 65.5118 212.549 66.3041 213.794L66.1909 213.907C65.7382 214.36 65.1723 214.813 64.7196 215.378C64.6064 215.492 64.6064 215.492 64.6064 215.492C65.5118 216.737 66.5304 217.755 67.7754 218.661C68.3413 218.095 68.794 217.642 69.3599 217.076L69.473 216.963C70.718 217.755 72.0761 218.321 73.5474 218.661C73.5474 218.661 73.5474 218.774 73.5474 218.887C73.5474 219.679 73.5474 220.358 73.5474 221.151C74.2265 221.264 75.0187 221.377 75.6978 221.377C76.49 221.377 77.1691 221.264 77.8482 221.151C77.8482 220.358 77.8482 219.679 77.8482 218.887C77.8482 218.774 77.8482 218.774 77.8482 218.661C79.3195 218.321 80.6776 217.755 81.9226 216.963L82.0357 217.076C82.6016 217.642 83.0543 218.095 83.6202 218.661C84.8652 217.755 85.8837 216.737 86.7892 215.492L86.676 215.378C86.2233 214.926 85.7706 214.36 85.2047 213.907L85.0915 213.794C85.8837 212.549 86.4496 211.191 86.7892 209.72C86.7892 209.72 86.7892 209.72 86.9024 209.72C87.6946 209.72 88.3737 209.72 89.1659 209.72H89.2791C89.3923 208.927 89.5054 208.248 89.5054 207.456C89.6186 206.664 89.6186 205.872 89.5054 205.193ZM82.7148 208.588C82.4885 209.72 82.1489 210.738 81.4698 211.53C81.0171 212.096 80.4513 212.662 79.8854 213.115C78.98 213.681 78.0745 214.134 76.9427 214.36C76.6032 214.473 76.1505 214.473 75.8109 214.473C75.4714 214.473 75.0187 214.473 74.6792 214.36C73.5474 214.134 72.642 213.794 71.7366 213.115C71.0575 212.662 70.6048 212.096 70.1521 211.53C69.473 210.625 69.1335 209.72 68.9071 208.588C68.794 208.248 68.794 207.796 68.794 207.456C68.794 207.117 68.794 206.664 68.9071 206.324C69.1335 205.306 69.473 204.287 70.1521 203.382C70.6048 202.703 71.1707 202.25 71.7366 201.797C72.642 201.231 73.5474 200.779 74.6792 200.552C75.0187 200.439 75.4714 200.439 75.8109 200.439C76.1505 200.439 76.6032 200.439 76.9427 200.552C77.9613 200.779 78.98 201.118 79.8854 201.797C80.5644 202.25 81.0171 202.816 81.4698 203.382C82.1489 204.287 82.4885 205.193 82.7148 206.324C82.828 206.664 82.828 207.117 82.828 207.456C82.828 207.796 82.828 208.248 82.7148 208.588Z" fill="white"/>
</g>
<path d="M89.5054 205.193C88.7132 205.193 88.0341 205.193 87.2419 205.193C87.1287 205.193 87.1287 205.193 87.0155 205.193C86.676 203.721 86.1101 202.363 85.3179 201.118C85.3179 201.005 85.4311 201.005 85.5442 200.892C85.997 200.439 86.5628 199.873 87.0155 199.42C86.1101 198.176 85.0915 197.157 83.8466 196.252C83.2807 196.817 82.828 197.27 82.2621 197.836C82.1489 197.949 82.1489 197.949 82.0357 197.949C80.7907 197.157 79.4326 196.591 77.9613 196.252V196.138C77.9613 195.799 77.9613 195.346 77.9613 195.007C77.9613 194.667 77.9613 194.214 77.9613 193.875C77.2823 193.762 76.49 193.648 75.6978 193.648C74.9056 193.648 74.2265 193.762 73.4342 193.875C73.4342 194.214 73.4342 194.667 73.4342 195.007C73.4342 195.346 73.4342 195.799 73.4342 196.138C73.4342 196.252 73.4342 196.252 73.4342 196.252C71.9629 196.591 70.6048 197.157 69.3599 197.949C69.2467 197.949 69.2467 197.836 69.1335 197.836C68.5676 197.27 68.1149 196.817 67.549 196.252C66.3041 197.157 65.2855 198.176 64.3801 199.42C64.8328 199.873 65.3986 200.439 65.8513 200.892C65.9645 201.005 66.0777 201.118 66.0777 201.118C65.2855 202.363 64.7196 203.721 64.3801 205.193C64.2669 205.193 64.2669 205.193 64.1537 205.193C63.4746 205.193 62.6824 205.193 62.0033 205.193C61.8901 205.985 61.8901 206.664 61.8901 207.456C61.8901 208.248 62.0033 208.927 62.1165 209.72H62.2297C63.0219 209.72 63.701 209.72 64.4932 209.72C64.4932 209.72 64.4932 209.72 64.6064 209.72C64.946 211.191 65.5118 212.549 66.3041 213.794L66.1909 213.907C65.7382 214.36 65.1723 214.813 64.7196 215.378C64.6064 215.492 64.6064 215.492 64.6064 215.492C65.5118 216.737 66.5304 217.755 67.7754 218.661C68.3413 218.095 68.794 217.642 69.3599 217.076L69.473 216.963C70.718 217.755 72.0761 218.321 73.5474 218.661C73.5474 218.661 73.5474 218.774 73.5474 218.887C73.5474 219.679 73.5474 220.358 73.5474 221.151C74.2265 221.264 75.0187 221.377 75.6978 221.377C76.49 221.377 77.1691 221.264 77.8482 221.151C77.8482 220.358 77.8482 219.679 77.8482 218.887C77.8482 218.774 77.8482 218.774 77.8482 218.661C79.3195 218.321 80.6776 217.755 81.9226 216.963L82.0357 217.076C82.6016 217.642 83.0543 218.095 83.6202 218.661C84.8652 217.755 85.8837 216.737 86.7892 215.492L86.676 215.378C86.2233 214.926 85.7706 214.36 85.2047 213.907L85.0915 213.794C85.8837 212.549 86.4496 211.191 86.7892 209.72C86.7892 209.72 86.7892 209.72 86.9024 209.72C87.6946 209.72 88.3737 209.72 89.1659 209.72H89.2791C89.3923 208.927 89.5054 208.248 89.5054 207.456C89.6186 206.664 89.6186 205.872 89.5054 205.193ZM82.7148 208.588C82.4885 209.72 82.1489 210.738 81.4698 211.53C81.0171 212.096 80.4513 212.662 79.8854 213.115C78.9799 213.681 78.0745 214.134 76.9427 214.36C76.6032 214.473 76.1505 214.473 75.8109 214.473C75.4714 214.473 75.0187 214.473 74.6792 214.36C73.5474 214.134 72.642 213.794 71.7366 213.115C71.0575 212.662 70.6048 212.096 70.1521 211.53C69.473 210.625 69.1335 209.72 68.9071 208.588C68.794 208.248 68.794 207.796 68.794 207.456C68.794 207.117 68.794 206.664 68.9071 206.324C69.1335 205.306 69.473 204.287 70.1521 203.382C70.6048 202.703 71.1707 202.25 71.7366 201.797C72.642 201.231 73.5474 200.779 74.6792 200.552C75.0187 200.439 75.4714 200.439 75.8109 200.439C76.1505 200.439 76.6032 200.439 76.9427 200.552C77.9613 200.779 78.9799 201.118 79.8854 201.797C80.5644 202.25 81.0171 202.816 81.4698 203.382C82.1489 204.287 82.4885 205.193 82.7148 206.324C82.828 206.664 82.828 207.117 82.828 207.456C82.828 207.796 82.828 208.248 82.7148 208.588Z" fill="white"/>
<defs>
<filter id="filter0_b" x="-12.9941" y="-13" width="148.1" height="98.2271" filterUnits="userSpaceOnUse" color-interpolation-filters="sRGB">
<feFlood flood-opacity="0" result="BackgroundImageFix"/>
<feGaussianBlur in="BackgroundImage" stdDeviation="6.5"/>
<feComposite in2="SourceAlpha" operator="in" result="effect1_backgroundBlur"/>
<feBlend mode="normal" in="SourceGraphic" in2="effect1_backgroundBlur" result="shape"/>
</filter>
<filter id="filter1_b" x="-12.9941" y="-13" width="148.1" height="98.2271" filterUnits="userSpaceOnUse" color-interpolation-filters="sRGB">
<feFlood flood-opacity="0" result="BackgroundImageFix"/>
<feGaussianBlur in="BackgroundImage" stdDeviation="6.5"/>
<feComposite in2="SourceAlpha" operator="in" result="effect1_backgroundBlur"/>
<feBlend mode="normal" in="SourceGraphic" in2="effect1_backgroundBlur" result="shape"/>
</filter>
<filter id="filter2_f" x="30.4946" y="27.4746" width="15.0912" height="20.2083" filterUnits="userSpaceOnUse" color-interpolation-filters="sRGB">
<feFlood flood-opacity="0" result="BackgroundImageFix"/>
<feBlend mode="normal" in="SourceGraphic" in2="BackgroundImageFix" result="shape"/>
<feGaussianBlur stdDeviation="3" result="effect1_foregroundBlur"/>
</filter>
<filter id="filter3_f" x="38.2217" y="20.1309" width="15.0912" height="24.5284" filterUnits="userSpaceOnUse" color-interpolation-filters="sRGB">
<feFlood flood-opacity="0" result="BackgroundImageFix"/>
<feBlend mode="normal" in="SourceGraphic" in2="BackgroundImageFix" result="shape"/>
<feGaussianBlur stdDeviation="3" result="effect1_foregroundBlur"/>
</filter>
<filter id="filter4_f" x="45.9507" y="14.082" width="15.0912" height="19.7763" filterUnits="userSpaceOnUse" color-interpolation-filters="sRGB">
<feFlood flood-opacity="0" result="BackgroundImageFix"/>
<feBlend mode="normal" in="SourceGraphic" in2="BackgroundImageFix" result="shape"/>
<feGaussianBlur stdDeviation="3" result="effect1_foregroundBlur"/>
</filter>
<filter id="filter5_f" x="53.6792" y="19.2656" width="15.0912" height="29.7126" filterUnits="userSpaceOnUse" color-interpolation-filters="sRGB">
<feFlood flood-opacity="0" result="BackgroundImageFix"/>
<feBlend mode="normal" in="SourceGraphic" in2="BackgroundImageFix" result="shape"/>
<feGaussianBlur stdDeviation="3" result="effect1_foregroundBlur"/>
</filter>
<filter id="filter6_f" x="61.4062" y="24.8809" width="15.0912" height="25.3924" filterUnits="userSpaceOnUse" color-interpolation-filters="sRGB">
<feFlood flood-opacity="0" result="BackgroundImageFix"/>
<feBlend mode="normal" in="SourceGraphic" in2="BackgroundImageFix" result="shape"/>
<feGaussianBlur stdDeviation="3" result="effect1_foregroundBlur"/>
</filter>
<filter id="filter7_f" x="69.1348" y="29.2031" width="15.0912" height="20.2083" filterUnits="userSpaceOnUse" color-interpolation-filters="sRGB">
<feFlood flood-opacity="0" result="BackgroundImageFix"/>
<feBlend mode="normal" in="SourceGraphic" in2="BackgroundImageFix" result="shape"/>
<feGaussianBlur stdDeviation="3" result="effect1_foregroundBlur"/>
</filter>
<filter id="filter8_f" x="76.8623" y="24.0195" width="15.0912" height="20.2083" filterUnits="userSpaceOnUse" color-interpolation-filters="sRGB">
<feFlood flood-opacity="0" result="BackgroundImageFix"/>
<feBlend mode="normal" in="SourceGraphic" in2="BackgroundImageFix" result="shape"/>
<feGaussianBlur stdDeviation="3" result="effect1_foregroundBlur"/>
</filter>
<filter id="filter9_b" x="196.316" y="119.426" width="186.678" height="121.826" filterUnits="userSpaceOnUse" color-interpolation-filters="sRGB">
<feFlood flood-opacity="0" result="BackgroundImageFix"/>
<feGaussianBlur in="BackgroundImage" stdDeviation="6.5"/>
<feComposite in2="SourceAlpha" operator="in" result="effect1_backgroundBlur"/>
<feBlend mode="normal" in="SourceGraphic" in2="effect1_backgroundBlur" result="shape"/>
</filter>
<filter id="filter10_b" x="196.316" y="119.426" width="186.678" height="121.826" filterUnits="userSpaceOnUse" color-interpolation-filters="sRGB">
<feFlood flood-opacity="0" result="BackgroundImageFix"/>
<feGaussianBlur in="BackgroundImage" stdDeviation="6.5"/>
<feComposite in2="SourceAlpha" operator="in" result="effect1_backgroundBlur"/>
<feBlend mode="normal" in="SourceGraphic" in2="effect1_backgroundBlur" result="shape"/>
</filter>
<filter id="filter11_f" x="247.442" y="140.088" width="83.3494" height="81.623" filterUnits="userSpaceOnUse" color-interpolation-filters="sRGB">
<feFlood flood-opacity="0" result="BackgroundImageFix"/>
<feBlend mode="normal" in="SourceGraphic" in2="BackgroundImageFix" result="shape"/>
<feGaussianBlur stdDeviation="4.5" result="effect1_foregroundBlur"/>
</filter>
<filter id="filter12_b" x="70.1919" y="40.6211" width="227.271" height="146.035" filterUnits="userSpaceOnUse" color-interpolation-filters="sRGB">
<feFlood flood-opacity="0" result="BackgroundImageFix"/>
<feGaussianBlur in="BackgroundImage" stdDeviation="6.5"/>
<feComposite in2="SourceAlpha" operator="in" result="effect1_backgroundBlur"/>
<feBlend mode="normal" in="SourceGraphic" in2="effect1_backgroundBlur" result="shape"/>
</filter>
<filter id="filter13_b" x="70.1919" y="40.6211" width="227.271" height="146.035" filterUnits="userSpaceOnUse" color-interpolation-filters="sRGB">
<feFlood flood-opacity="0" result="BackgroundImageFix"/>
<feGaussianBlur in="BackgroundImage" stdDeviation="6.5"/>
<feComposite in2="SourceAlpha" operator="in" result="effect1_backgroundBlur"/>
<feBlend mode="normal" in="SourceGraphic" in2="effect1_backgroundBlur" result="shape"/>
</filter>
<filter id="filter14_f" x="93.8174" y="95.8105" width="179.704" height="34.7495" filterUnits="userSpaceOnUse" color-interpolation-filters="sRGB">
<feFlood flood-opacity="0" result="BackgroundImageFix"/>
<feBlend mode="normal" in="SourceGraphic" in2="BackgroundImageFix" result="shape"/>
<feGaussianBlur stdDeviation="4" result="effect1_foregroundBlur"/>
</filter>
<filter id="filter15_b" x="16.9512" y="167.338" width="117.497" height="80.5677" filterUnits="userSpaceOnUse" color-interpolation-filters="sRGB">
<feFlood flood-opacity="0" result="BackgroundImageFix"/>
<feGaussianBlur in="BackgroundImage" stdDeviation="6.5"/>
<feComposite in2="SourceAlpha" operator="in" result="effect1_backgroundBlur"/>
<feBlend mode="normal" in="SourceGraphic" in2="effect1_backgroundBlur" result="shape"/>
</filter>
<filter id="filter16_b" x="16.9512" y="167.338" width="117.497" height="80.5677" filterUnits="userSpaceOnUse" color-interpolation-filters="sRGB">
<feFlood flood-opacity="0" result="BackgroundImageFix"/>
<feGaussianBlur in="BackgroundImage" stdDeviation="6.5"/>
<feComposite in2="SourceAlpha" operator="in" result="effect1_backgroundBlur"/>
<feBlend mode="normal" in="SourceGraphic" in2="effect1_backgroundBlur" result="shape"/>
</filter>
<filter id="filter17_f" x="50.8901" y="182.648" width="49.7002" height="49.7285" filterUnits="userSpaceOnUse" color-interpolation-filters="sRGB">
<feFlood flood-opacity="0" result="BackgroundImageFix"/>
<feBlend mode="normal" in="SourceGraphic" in2="BackgroundImageFix" result="shape"/>
<feGaussianBlur stdDeviation="5.5" result="effect1_foregroundBlur"/>
</filter>
<linearGradient id="paint0_linear" x1="0.0231251" y1="36.1123" x2="122.089" y2="36.1855" gradientUnits="userSpaceOnUse">
<stop stop-color="#5C687E"/>
<stop offset="1" stop-color="white" stop-opacity="0"/>
</linearGradient>
<linearGradient id="paint1_linear" x1="209.339" y1="180.336" x2="369.971" y2="180.433" gradientUnits="userSpaceOnUse">
<stop stop-color="#5C687E"/>
<stop offset="1" stop-color="white" stop-opacity="0"/>
</linearGradient>
<linearGradient id="paint2_linear" x1="96.4938" y1="71.869" x2="407.489" y2="259.377" gradientUnits="userSpaceOnUse">
<stop stop-color="#353D4C"/>
<stop offset="1" stop-color="white" stop-opacity="0"/>
</linearGradient>
<linearGradient id="paint3_linear" x1="29.9642" y1="207.621" x2="121.435" y2="207.676" gradientUnits="userSpaceOnUse">
<stop stop-color="#5C687E"/>
<stop offset="1" stop-color="white" stop-opacity="0"/>
</linearGradient>
</defs>
</svg>
