<svg xmlns="http://www.w3.org/2000/svg" width="16" height="108" fill="none"><path fill="#2CCD65" d="M9 1a1 1 0 0 0-2 0h2ZM7.293 107.707a1 1 0 0 0 1.414 0l6.364-6.364a1 1 0 1 0-1.414-1.414L8 105.586l-5.657-5.657a1 1 0 0 0-1.414 1.414l6.364 6.364ZM7 2.927a1 1 0 1 0 2 0H7Zm2 6.746a1 1 0 1 0-2 0h2Zm-2 3.854a1 1 0 1 0 2 0H7Zm2 6.746a1 1 0 1 0-2 0h2Zm-2 3.854a1 1 0 1 0 2 0H7Zm2 6.746a1 1 0 1 0-2 0h2Zm-2 3.854a1 1 0 1 0 2 0H7Zm2 6.746a1 1 0 1 0-2 0h2Zm-2 3.854a1 1 0 1 0 2 0H7Zm2 6.746a1 1 0 1 0-2 0h2Zm-2 3.854a1 1 0 1 0 2 0H7Zm2 6.746a1 1 0 1 0-2 0h2Zm-2 3.854a1 1 0 1 0 2 0H7Zm2 6.746a1 1 0 1 0-2 0h2Zm-2 3.854a1 1 0 1 0 2 0H7Zm2 6.746a1 1 0 1 0-2 0h2Zm-2 3.854a1 1 0 0 0 2 0H7Zm2 6.746a1 1 0 1 0-2 0h2Zm-2 3.854a1 1 0 0 0 2 0H7Zm2 6.746a1 1 0 1 0-2 0h2ZM7 1v1.927h2V1H7Zm0 8.673v3.854h2V9.673H7Zm0 10.6v3.854h2v-3.854H7Zm0 10.6v3.854h2v-3.854H7Zm0 10.6v3.854h2v-3.854H7Zm0 10.6v3.854h2v-3.854H7Zm0 10.6v3.854h2v-3.854H7Zm0 10.6v3.854h2v-3.854H7Zm0 10.6v3.854h2v-3.854H7Zm0 10.6v3.854h2v-3.854H7Zm0 10.6V107h2v-1.927H7Z"/></svg>