<svg xmlns="http://www.w3.org/2000/svg" width="108" height="16" fill="none"><path fill="#2CCD65" d="M.293 7.293a1 1 0 0 0 0 1.414l6.364 6.364a1 1 0 0 0 1.414-1.414L2.414 8l5.657-5.657A1 1 0 0 0 6.657.93L.293 7.293ZM107 9a1 1 0 0 0 0-2v2ZM2.927 9a1 1 0 1 0 0-2v2Zm6.746-2a1 1 0 1 0 0 2V7Zm3.854 2a1 1 0 1 0 0-2v2Zm6.746-2a1 1 0 1 0 0 2V7Zm3.854 2a1 1 0 1 0 0-2v2Zm6.746-2a1 1 0 1 0 0 2V7Zm3.854 2a1 1 0 1 0 0-2v2Zm6.746-2a1 1 0 1 0 0 2V7Zm3.854 2a1 1 0 1 0 0-2v2Zm6.746-2a1 1 0 1 0 0 2V7Zm3.854 2a1 1 0 1 0 0-2v2Zm6.746-2a1 1 0 1 0 0 2V7Zm3.854 2a1 1 0 1 0 0-2v2Zm6.746-2a1 1 0 1 0 0 2V7Zm3.854 2a1 1 0 1 0 0-2v2Zm6.746-2a1 1 0 1 0 0 2V7Zm3.854 2a1 1 0 0 0 0-2v2Zm6.746-2a1 1 0 1 0 0 2V7Zm3.854 2a1 1 0 0 0 0-2v2Zm6.746-2a1 1 0 1 0 0 2V7ZM1 9h1.927V7H1v2Zm8.673 0h3.854V7H9.673v2Zm10.6 0h3.854V7h-3.854v2Zm10.6 0h3.854V7h-3.854v2Zm10.6 0h3.854V7h-3.854v2Zm10.6 0h3.854V7h-3.854v2Zm10.6 0h3.854V7h-3.854v2Zm10.6 0h3.854V7h-3.854v2Zm10.6 0h3.854V7h-3.854v2Zm10.6 0h3.854V7h-3.854v2Zm10.6 0H107V7h-1.927v2Z"/></svg>