<svg xmlns="http://www.w3.org/2000/svg" width="108" height="16" fill="none"><path fill="#2CCD65" d="M1 7a1 1 0 0 0 0 2V7Zm106.707 1.707a1 1 0 0 0 0-1.414L101.343.929a1 1 0 1 0-1.414 1.414L105.586 8l-5.657 5.657a1 1 0 0 0 1.414 1.414l6.364-6.364ZM1 9h1.927V7H1v2Zm8.673 0h3.854V7H9.673v2Zm10.6 0h3.854V7h-3.854v2Zm10.6 0h3.854V7h-3.854v2Zm10.6 0h3.854V7h-3.854v2Zm10.6 0h3.854V7h-3.854v2Zm10.6 0h3.854V7h-3.854v2Zm10.6 0h3.854V7h-3.854v2Zm10.6 0h3.854V7h-3.854v2Zm10.6 0h3.854V7h-3.854v2Zm10.6 0H107V7h-1.927v2Z"/></svg>