<svg xmlns="http://www.w3.org/2000/svg" width="80" height="80" fill="none"><g filter="url(#a)"><path fill="#2CCD65" d="M25.327 31.345c0-3.87 3.107-7.017 6.926-7.017 3.818 0 6.925 3.148 6.925 7.017V37h14.815C57.479 37 58 33.83 58 32.446V18.761C58 16.136 55.892 14 53.301 14H26.7C24.108 14 22 16.136 22 18.76v13.686A4.761 4.761 0 0 0 25.327 37v-5.655Z"/></g><path fill="#2CCD65" d="M25.327 31.345c0-3.87 3.107-7.017 6.926-7.017 3.818 0 6.925 3.148 6.925 7.017V37h14.815C57.479 37 58 33.83 58 32.446V18.761C58 16.136 55.892 14 53.301 14H26.7C24.108 14 22 16.136 22 18.76v13.686A4.761 4.761 0 0 0 25.327 37v-5.655Z"/><path fill="#fff" d="M52.63 43.341c-1.863 0-3.371 1.485-3.371 3.316v-1.689c0-1.831-1.51-3.316-3.371-3.316-1.862 0-3.371 1.484-3.371 3.316v-1.42c0-1.742-1.365-3.169-3.1-3.305a3.374 3.374 0 0 0-3.333 1.92c-.197.422-.308.89-.308 1.385V31.316c0-1.831-1.51-3.316-3.371-3.316-1.862 0-3.37 1.485-3.37 3.316v28.467l-.147-.018-2.076-8.744c-.424-1.783-2.237-2.891-4.05-2.475-1.904 0-3.107 1.492-2.674 3.316L22.496 62C23.756 69.931 30.273 76 30.273 76h20.479a31.025 31.025 0 0 0 5.246-17.24L56 46.657c0-1.831-1.51-3.316-3.37-3.316Z"/><defs><filter id="a" width="58" height="45" x="11" y="3" color-interpolation-filters="sRGB" filterUnits="userSpaceOnUse"><feFlood flood-opacity="0" result="BackgroundImageFix"/><feBlend in="SourceGraphic" in2="BackgroundImageFix" result="shape"/><feGaussianBlur result="effect1_foregroundBlur" stdDeviation="5.5"/></filter></defs></svg>