<svg xmlns="http://www.w3.org/2000/svg" width="80" height="80" fill="none"><g clip-path="url(#a)"><path fill="#fff" d="M40 33.882 46.724 24 66 29.177l-7.62 18.352-9.863.471L40 33.882Z"/><path fill="#2CCD65" d="M80 54.423c0-4.263-3.47-7.733-7.73-7.733-.185 0-.365.032-.545.042.765-1.81 1.185-3.825 1.185-6.037 0-5.163-6.6-17.006-10.908-20.92-2.36.507-4.87.782-7.473.782-2.685 0-5.26-.293-7.685-.83-4.255 3.437-11.708 15.645-11.708 20.97 0 .898.082 1.753.23 2.568a57.712 57.712 0 0 0-3.925-.138c-3.448 0-6.768.373-9.908 1.06a168.77 168.77 0 0 0-.157-1.84H.9s-.898 7.5-.898 16.743c0 9.243.898 16.738.898 16.738h20.473s.18-1.957.375-4.735c3.048-.512 6.168.293 9.77 2.533 4.57 2.98 10.2 4.752 16.296 4.752 6.18 0 11.488-1.822 15.9-4.887l.005.005c.053-.038.103-.075.17-.135a29.411 29.411 0 0 0 3.535-2.92c.866-.885 2.038-2.018 3.796-3.738 5.902-5.8 6.63-6.948 6.63-6.948h-.023A7.626 7.626 0 0 0 80 54.423ZM49.579 34.302c.19-.46.462-.87.797-1.225.35-.362.756-.66 1.22-.892.47-.24.978-.396 1.53-.478v-1.343h2.846v1.548c.42.117.797.282 1.137.483v-.606h2.848v4.263h-2.865a9.595 9.595 0 0 0-.673-.677 3.47 3.47 0 0 0-.69-.488 3.517 3.517 0 0 0-.797-.293 4.566 4.566 0 0 0-1.025-.102c-.57 0-1.003.138-1.31.405-.303.273-.458.563-.458.875 0 .88.948 1.46 2.85 1.748 1.178.175 2.115.465 2.813.86.69.4 1.222.832 1.592 1.302.365.465.6.928.703 1.383.102.457.155.82.155 1.102 0 .543-.108 1.05-.328 1.51-.217.47-.512.885-.892 1.23-.373.353-.83.635-1.345.855a5.448 5.448 0 0 1-1.703.385v1.28H53.14v-1.665c-.155-.067-.29-.132-.44-.195-.145-.052-.275-.122-.415-.19v.625H49.44V41.74h2.845c.248.272.48.502.723.702.235.195.475.363.732.483.253.132.528.225.83.287a5.97 5.97 0 0 0 1.05.085c.513 0 .938-.102 1.28-.312.34-.21.508-.48.508-.823 0-.282-.093-.53-.265-.745a2.359 2.359 0 0 0-.678-.537 4.15 4.15 0 0 0-.91-.353c-.335-.087-.662-.16-.99-.215-1.152-.175-2.07-.452-2.76-.815-.688-.365-1.22-.762-1.595-1.197-.367-.435-.62-.88-.733-1.333a4.83 4.83 0 0 1-.172-1.205 3.588 3.588 0 0 1 .275-1.46ZM75.302 57.45c-1.035 1.025-5.41 5.538-6.6 6.703-3.07 3.012-4.503 4.425-5.173 5.205l-.017-.012c-.47.422-.963.8-1.465 1.17-3.96 2.677-8.893 4.282-14.236 4.282-5.395 0-10.365-1.625-14.34-4.345h-.025c-3.443-2.095-7.475-3.385-11.465-2.992.16-2.755.287-5.773.287-8.366 0-3.607-.25-8.027-.477-11.425a43.985 43.985 0 0 1 9.642-1.065c10.293 0 19.401 3.403 24.979 8.735a4.119 4.119 0 0 1 1.072 2.755 4.15 4.15 0 0 1-4.145 4.145c-.08 0-.162-.025-.257-.03l-.01.045c-2.133-.072-5.47-.967-11.106-3.125l-1.28 3.36c5.958 2.265 9.883 3.29 12.666 3.36v-.024c3.487-.005 6.43-2.336 7.387-5.503v.005c1.205-2.003 5.718-6.173 8.28-8.453v.005c.03-.035.053-.052.073-.072.473-.42.885-.78 1.178-1.033.542-.345 1.102-.487 1.997-.487a4.15 4.15 0 0 1 4.14 4.145c.005 1.137-.502 2.212-1.105 3.017Z"/><g filter="url(#b)"><path fill="#2CCD65" d="M47.821 17.186s3.475.825 6.88.825c3.403 0 5.643-.483 5.643-.483 1.978-.972 6.423-11.225 3.815-14.84-2.915-4.033-7.788 4.732-10.038 3.832-2.24-.897-7.02-5.572-10.172-3.667-2.74 1.657 1.717 12.73 3.872 14.333Z"/></g><path fill="#2CCD65" d="M47.821 17.186s3.475.825 6.88.825c3.403 0 5.643-.483 5.643-.483 1.978-.972 6.423-11.225 3.815-14.84-2.915-4.033-7.788 4.732-10.038 3.832-2.24-.897-7.02-5.572-10.172-3.667-2.74 1.657 1.717 12.73 3.872 14.333Z"/></g><defs><clipPath id="a"><path fill="#fff" d="M0 0h80v80H0z"/></clipPath><filter id="b" width="31.874" height="26.39" x="38.084" y="-3.379" color-interpolation-filters="sRGB" filterUnits="userSpaceOnUse"><feFlood flood-opacity="0" result="BackgroundImageFix"/><feBlend in="SourceGraphic" in2="BackgroundImageFix" result="shape"/><feGaussianBlur result="effect1_foregroundBlur" stdDeviation="2.5"/></filter></defs></svg>