<svg xmlns="http://www.w3.org/2000/svg" width="80" height="80" fill="none"><g filter="url(#a)"><path fill="#2CCD65" d="M54.667 14.666H20v4h34.667v-4Z"/></g><path fill="#2CCD65" d="M54.667 14.666H20v4h34.667v-4Z"/><g filter="url(#b)"><path fill="#2CCD65" d="M33.334 29.334h-8v2.667h8v-2.667Z"/></g><path fill="#2CCD65" d="M33.334 29.334h-8v2.667h8v-2.667Z"/><g filter="url(#c)"><path fill="#2CCD65" d="M57.792 38.467a1.483 1.483 0 0 1-.444-1.067c0-.403.157-.782.441-1.067l1.032-1.032L50 32.654l1.688 5.628.958 3.195.963-.963c.338-.338.784-.51 1.23-.51.446 0 .891.17 1.231.51l2.93 2.932 1.886-1.886-3.093-3.093Z"/></g><path fill="#2CCD65" d="M57.792 38.467a1.483 1.483 0 0 1-.444-1.067c0-.403.157-.782.441-1.067l1.032-1.032L50 32.654l1.688 5.628.958 3.195.963-.963c.338-.338.784-.51 1.23-.51.446 0 .891.17 1.231.51l2.93 2.932 1.886-1.886-3.093-3.093Z"/><path fill="#fff" d="M20.002 21.334v16h28.615l-1.237-4.125-.463-1.539c-.196-.655-.418-1.327.111-1.903l.04-.041c.67-.673 1.585-.257 2.361-.025l2.582.774 2.657.798v-9.939H20.002Zm15.998 12c0 .736-.597 1.333-1.333 1.333H24a1.334 1.334 0 0 1-1.333-1.333v-5.333c0-.736.597-1.334 1.333-1.334h10.667c.736 0 1.333.598 1.333 1.334v5.333ZM73.333 52H0v5.332a5.34 5.34 0 0 0 5.335 5.335h26.6c-.315 5.288-2.516 8-6.602 8h-2.666c-2.206 0-4 1.794-4 4 0 2.205 1.794 4 4 4h34.666c2.206 0 4-1.795 4-4 0-2.206-1.794-4-4-4h-2.666c-4.086 0-6.286-2.712-6.603-8h26.601A5.341 5.341 0 0 0 80 57.332V52h-6.667ZM36 54.667h8a1.334 1.334 0 0 1 0 2.666h-8a1.334 1.334 0 0 1 0-2.666Zm12.172 16H31.827c1.642-1.819 2.61-4.527 2.802-8h10.74c.195 3.473 1.16 6.181 2.803 8Z"/><path fill="#fff" d="M8 9.334v40h64v-40H8Zm55.712 33.17-3.77 3.773a1.332 1.332 0 0 1-1.886 0l-3.218-3.22-1.886 1.886a1.332 1.332 0 0 1-2.22-.56l-1.315-4.382H18.668a1.334 1.334 0 0 1-1.333-1.334V13.334c0-.736.597-1.333 1.333-1.333h37.333c.736 0 1.334.597 1.334 1.333V32.073l4.392 1.317a1.335 1.335 0 0 1 .558 2.22l-1.79 1.79 3.218 3.22c.52.52.52 1.365-.001 1.885Z"/><path fill="#fff" d="M74.665 1.334H5.335A5.341 5.341 0 0 0 0 6.669v42.665h5.333V8.001c0-.736.598-1.334 1.334-1.334h66.666c.736 0 1.334.598 1.334 1.334v41.333H80V6.669a5.341 5.341 0 0 0-5.335-5.335Z"/><defs><filter id="a" width="56.667" height="26" x="9" y="3.666" color-interpolation-filters="sRGB" filterUnits="userSpaceOnUse"><feFlood flood-opacity="0" result="BackgroundImageFix"/><feBlend in="SourceGraphic" in2="BackgroundImageFix" result="shape"/><feGaussianBlur result="effect1_foregroundBlur" stdDeviation="5.5"/></filter><filter id="b" width="30" height="24.667" x="14.334" y="18.334" color-interpolation-filters="sRGB" filterUnits="userSpaceOnUse"><feFlood flood-opacity="0" result="BackgroundImageFix"/><feBlend in="SourceGraphic" in2="BackgroundImageFix" result="shape"/><feGaussianBlur result="effect1_foregroundBlur" stdDeviation="5.5"/></filter><filter id="c" width="32.886" height="32.792" x="38.998" y="21.654" color-interpolation-filters="sRGB" filterUnits="userSpaceOnUse"><feFlood flood-opacity="0" result="BackgroundImageFix"/><feBlend in="SourceGraphic" in2="BackgroundImageFix" result="shape"/><feGaussianBlur result="effect1_foregroundBlur" stdDeviation="5.5"/></filter></defs></svg>