<svg width="37" height="37" fill="none" xmlns="http://www.w3.org/2000/svg"><path fill-rule="evenodd" clip-rule="evenodd" d="M18.973 6.938c-.289 0-.577.01-.861.03-.343.026-.708.326-.783.845l-.11.755c-.188 1.3-1.08 2.265-2.07 2.797-.15.08-.295.165-.439.253-.957.595-2.24.884-3.46.398l-.71-.284c-.487-.194-.928-.03-1.123.256-.323.473-.612.971-.863 1.493-.15.31-.072.772.34 1.097l.604.478c1.029.811 1.421 2.063 1.385 3.188l-.003.256.003.256c.036 1.125-.356 2.377-1.385 3.189l-.605.477c-.411.325-.489.787-.339 1.097.251.522.54 1.02.863 1.493.195.286.636.45 1.124.255l.71-.283c1.22-.487 2.502-.196 3.46.398.143.088.288.173.438.253.99.532 1.882 1.498 2.07 2.797l.11.755c.075.52.44.819.783.844a11.824 11.824 0 0 0 1.723 0c.344-.025.707-.325.783-.844l.11-.755c.188-1.3 1.08-2.265 2.07-2.797.15-.08.295-.165.44-.253.956-.594 2.238-.885 3.458-.398l.71.283c.488.195.928.03 1.124-.255.322-.473.611-.972.862-1.493.15-.31.073-.772-.338-1.097l-.605-.477c-1.03-.812-1.421-2.064-1.385-3.19l.003-.255-.003-.256c-.036-1.125.356-2.377 1.385-3.188l.605-.478c.411-.325.489-.787.338-1.097-.25-.52-.54-1.02-.862-1.493-.196-.286-.636-.45-1.124-.255l-.71.283c-1.22.486-2.502.197-3.458-.398a9.255 9.255 0 0 0-.44-.253c-.99-.532-1.882-1.498-2.07-2.797l-.11-.755c-.076-.52-.439-.819-.783-.844-.285-.021-.573-.032-.862-.032Zm-1.03-2.275a13.799 13.799 0 0 1 2.06 0c1.602.117 2.698 1.407 2.903 2.818l.11.755c.058.398.356.812.876 1.091.192.103.38.212.564.328.502.31 1.01.362 1.383.212l.711-.283c1.322-.527 2.985-.223 3.889 1.1a13.95 13.95 0 0 1 1.037 1.79c.697 1.446.127 3.04-.991 3.92l-.604.477c-.315.248-.524.713-.506 1.302a10.154 10.154 0 0 1 0 .654c-.018.589.19 1.054.506 1.302l.604.476c1.118.882 1.688 2.475.99 3.92a13.95 13.95 0 0 1-1.036 1.791c-.904 1.323-2.567 1.627-3.889 1.1l-.71-.283c-.374-.15-.882-.099-1.384.212a9.424 9.424 0 0 1-.564.328c-.52.28-.819.693-.876 1.091l-.11.755c-.205 1.41-1.301 2.701-2.902 2.818a13.766 13.766 0 0 1-2.06 0c-1.601-.117-2.698-1.407-2.903-2.818l-.11-.755c-.058-.398-.356-.812-.876-1.091a9.424 9.424 0 0 1-.564-.328c-.502-.31-1.01-.362-1.383-.212l-.712.283c-1.321.527-2.984.223-3.888-1.1a13.814 13.814 0 0 1-1.036-1.79c-.698-1.446-.128-3.04.99-3.92l.603-.477c.316-.248.525-.713.507-1.302a10.272 10.272 0 0 1 0-.654c.018-.589-.191-1.054-.507-1.302l-.603-.476c-1.118-.882-1.688-2.475-.99-3.92.3-.625.649-1.223 1.036-1.791.904-1.323 2.567-1.627 3.888-1.1l.712.283c.373.15.88.099 1.383-.212.183-.116.372-.225.564-.328.52-.28.818-.693.876-1.091l.11-.755c.205-1.41 1.302-2.701 2.902-2.818Zm1.03 10.368a3.469 3.469 0 1 0 0 6.937 3.469 3.469 0 0 0 0-6.937Zm-5.78 3.469a5.781 5.781 0 1 1 11.561 0 5.781 5.781 0 0 1-11.562 0Z" fill="#fff"/></svg>