<svg width="20" height="13" fill="none" xmlns="http://www.w3.org/2000/svg"><path fill-rule="evenodd" clip-rule="evenodd" d="M19 11.5v-10H1v10h18Zm1-10v10a1 1 0 0 1-1 1H1a1 1 0 0 1-1-1v-10a1 1 0 0 1 1-1h18a1 1 0 0 1 1 1ZM2.667 3.417a.25.25 0 0 1 .25-.25H7.75a.25.25 0 0 1 .25.25v6.166a.25.25 0 0 1-.25.25H2.917a.25.25 0 0 1-.25-.25V3.417ZM10 6a.5.5 0 0 0 0 1h4a.5.5 0 0 0 0-1h-4Zm-.5 3.167a.5.5 0 0 1 .5-.5h6.667a.5.5 0 0 1 0 1H10a.5.5 0 0 1-.5-.5Zm.5-5.834a.5.5 0 0 0 0 1h5.333a.5.5 0 1 0 0-1H10Z" fill="#181240"/></svg>