<svg width="62" height="62" fill="none" xmlns="http://www.w3.org/2000/svg"><g filter="url(#a)"><circle cx="31" cy="28" r="18" fill="#5B93FF"/><path d="M39 28.003c0 .55-.45 1-1 1H26.41l3.3 3.29c.39.39.39 1.03 0 1.42-.4.38-1.01.39-1.42 0l-5-5c-.39-.39-.39-1.03 0-1.42l5-5c.39-.39 1.03-.39 1.42 0 .39.39.39 1.03 0 1.42l-3.3 3.29H38c.55 0 1 .45 1 1Z" fill="#fff"/></g><defs><filter id="a" x="0" y="0" width="62" height="62" filterUnits="userSpaceOnUse" color-interpolation-filters="sRGB"><feFlood flood-opacity="0" result="BackgroundImageFix"/><feColorMatrix in="SourceAlpha" values="0 0 0 0 0 0 0 0 0 0 0 0 0 0 0 0 0 0 127 0"/><feOffset dy="3"/><feGaussianBlur stdDeviation="6.5"/><feColorMatrix values="0 0 0 0 0 0 0 0 0 0 0 0 0 0 0 0 0 0 0.25 0"/><feBlend in2="BackgroundImageFix" result="effect1_dropShadow"/><feBlend in="SourceGraphic" in2="effect1_dropShadow" result="shape"/></filter></defs></svg>