<svg width="50" height="50" fill="none" xmlns="http://www.w3.org/2000/svg"><g filter="url(#a)"><circle r="18" transform="matrix(-1 0 0 1 25 25)" fill="#4135F1"/><path d="M17 25.003c0 .55.45 1 1 1h11.59l-3.3 3.29c-.39.39-.39 1.03 0 1.42.4.38 1.01.39 1.42 0l5-5c.39-.39.39-1.03 0-1.42l-5-5c-.39-.39-1.03-.39-1.42 0-.39.39-.39 1.03 0 1.42l3.3 3.29H18c-.55 0-1 .45-1 1Z" fill="#fff"/></g><defs><filter id="a" x="0" y="0" width="50" height="50" filterUnits="userSpaceOnUse" color-interpolation-filters="sRGB"><feFlood flood-opacity="0" result="BackgroundImageFix"/><feColorMatrix in="SourceAlpha" values="0 0 0 0 0 0 0 0 0 0 0 0 0 0 0 0 0 0 127 0"/><feOffset/><feGaussianBlur stdDeviation="3.5"/><feColorMatrix values="0 0 0 0 0 0 0 0 0 0 0 0 0 0 0 0 0 0 0.09 0"/><feBlend in2="BackgroundImageFix" result="effect1_dropShadow"/><feBlend in="SourceGraphic" in2="effect1_dropShadow" result="shape"/></filter></defs></svg>