<svg width="18" height="17" fill="none" xmlns="http://www.w3.org/2000/svg"><path fill-rule="evenodd" clip-rule="evenodd" d="M8.695.315a.75.75 0 0 1 .61 0l7.5 3.333a.75.75 0 0 1 0 1.37l-7.5 3.334a.75.75 0 0 1-.61 0l-7.5-3.333a.75.75 0 0 1 0-1.371l7.5-3.333ZM3.347 4.333 9 6.846l5.653-2.513L9 1.821 3.347 4.333ZM.815 8.195a.75.75 0 0 1 .99-.38L9 11.013l7.195-3.198a.75.75 0 0 1 .61 1.37l-7.5 3.334a.75.75 0 0 1-.61 0l-7.5-3.334a.75.75 0 0 1-.38-.99Zm.99 3.786a.75.75 0 1 0-.61 1.371l7.5 3.333a.75.75 0 0 0 .61 0l7.5-3.333a.75.75 0 1 0-.61-1.37L9 15.178l-7.195-3.198Z" fill="#181240"/></svg>