<svg width="144" height="129" fill="none" xmlns="http://www.w3.org/2000/svg"><rect opacity=".2" width="144" height="129" rx="15" fill="url(#a)"/><path d="M86.1 2 74.9 27.7l4.1 2.5V105l14 8.1V38.3l4.3 2.4L86.1 2ZM65.5 45l2.5 1.5v53.4l6.3 3.6V50.1l2.3 1.3L71 32.2 65.5 45Zm-8.1 13.9 2.2 1.3v34.9l4.8 2.8V63l2.3 1.3-4.6-16-4.7 10.6Z" fill="url(#b)"/><path opacity=".4" d="M59.2 104.7c13.365 0 24.2-5.06 24.2-11.3 0-6.24-10.835-11.3-24.2-11.3-13.365 0-24.2 5.06-24.2 11.3 0 6.24 10.835 11.3 24.2 11.3Z" fill="url(#c)"/><path d="M74.7 86.8H37.8v5.3c0 5.9 8.2 10.7 18.4 10.7S74.6 98 74.6 92.1v-5.3h.1Z" fill="url(#d)"/><path d="M56.2 101.7c-10.2 0-18.4-4.8-18.4-10.7v1.1c0 5.9 8.2 10.7 18.4 10.7S74.6 98 74.6 92.1V91c.1 5.9-8.2 10.7-18.4 10.7Z" fill="url(#e)"/><path d="M61.9 102.4c.2 0 .3-.1.5-.1V88.7h-.5v13.7ZM64.2 101.8c.2 0 .3-.1.5-.1v-13h-.5v13.1ZM66.5 101.1c.2-.1.3-.1.5-.2V88.7h-.5v12.4ZM59.6 102.7c.2 0 .3 0 .5-.1v-14h-.5v14.1ZM71.1 98.4c.2-.1.4-.3.5-.4v-9.4h-.5v9.8ZM73.5 95.9c.2-.3.4-.6.5-.9v-6.4h-.5v7.3ZM68.8 100c.2-.1.4-.2.5-.3V88.6h-.5V100ZM57.3 102.8h.5V88.6h-.5v14.2ZM54.9 102.8h.5V88.6h-.5v14.2ZM50.3 102.3c.2 0 .3.1.5.1V88.6h-.5v13.7ZM52.6 102.7h.5V88.6h-.5v14.1ZM48 101.7c.2 0 .3.1.5.1V88.5H48v13.2ZM38.7 95.5c.2.3.3.6.5.8v-7.7h-.5v6.9ZM41.1 98.2c.2.1.3.3.5.4v-10h-.5v9.6ZM45.7 100.9c.2.1.3.1.5.2V88.6h-.5v12.3ZM43.4 99.8c.2.1.3.2.5.3V88.6h-.5v11.2Z" fill="#FFE585"/><path d="M56.2 97.6c10.162 0 18.4-4.79 18.4-10.7 0-5.91-8.238-10.7-18.4-10.7-10.162 0-18.4 4.79-18.4 10.7 0 5.91 8.238 10.7 18.4 10.7Z" fill="url(#f)"/><path d="M56.2 97.3c-10 0-18-4.6-18.4-10.4v.4C37.8 93.2 46 98 56.2 98s18.4-4.8 18.4-10.7v-.4c-.3 5.8-8.4 10.4-18.4 10.4Z" fill="url(#g)"/><path d="M56.2 94.9c7.621 0 13.8-3.582 13.8-8s-6.179-8-13.8-8c-7.622 0-13.8 3.582-13.8 8s6.178 8 13.8 8Z" fill="url(#h)"/><path d="M56.7 79.3c7.4 0 13.3 3.4 13.7 7.6v-.4c0-4.4-6.2-8-13.8-8-7.6 0-13.8 3.6-13.8 8v.4c.6-4.3 6.5-7.6 13.9-7.6Z" fill="url(#i)"/><path d="M56.2 79.7c7.4 0 13.3 3.4 13.7 7.6v-.4c0-4.4-6.2-8-13.8-8-7.6 0-13.8 3.6-13.8 8v.4c.6-4.2 6.6-7.6 13.9-7.6Z" fill="url(#j)"/><path d="M65.9 76.5c4.1 1.4 6.9 4.2 6.2 6.3-.7 2-4.6 2.6-8.8 1.2-4.1-1.4-6.9-4.2-6.2-6.3.8-2 4.7-2.6 8.8-1.2Z" fill="url(#k)"/><path d="M57.3 84.4c-.3.1-.7.1-1.1.2-.3.1-.7.2-1 .3-.4.1-.7.2-1 .4l1.1.6c.1 0 .2-.1.4-.1.1 0 .3-.1.4-.1l1.8-.6c.6-.2 1.1-.3 1.6-.3h1.4c.4.1.9.2 1.3.5.5.3.8.6.9.9.1.3.1.6 0 1-.1.3-.4.6-.7 1-.3.3-.7.6-1.2.9l1.5.9-1.2.7-1.5-.9c-.8.4-1.6.7-2.5 1-.9.3-1.7.5-2.5.7l-.8-2c.4-.1.8-.2 1.3-.3.4-.1.8-.2 1.2-.4.5-.1.9-.3 1.3-.5l-1.2-.5c-.4.1-.8.3-1.2.4-.6.2-1.2.4-1.7.5-.5.1-1 .2-1.4.2-.4 0-.8 0-1.2-.1-.4-.1-.7-.2-1-.4-.4-.3-.7-.5-.9-.8-.2-.3-.2-.6-.1-.9.1-.3.3-.7.5-1 .3-.3.6-.6 1.1-1l-1.2-.7 1.2-.7 1.3.7c.4-.2.8-.3 1.1-.5.4-.1.8-.3 1.1-.4.4-.1.7-.2 1.1-.3.4-.1.7-.2 1-.3l.8 1.9Zm-4.2 1.9c.1.1.3.1.5.1s.4-.1.7-.1l-.9-.5c-.4.2-.5.4-.3.5Zm6 1c-.1-.1-.3-.1-.5-.1s-.5.1-.7.2l.9.5c.2-.2.4-.3.4-.4 0 0 0-.1-.1-.2Z" fill="#FF9E6E"/><path d="M57.3 83.9c-.3.1-.7.1-1.1.2-.3.1-.7.2-1 .3-.4.1-.7.2-1 .4l1.1.6c.1 0 .2-.1.4-.1.1 0 .3-.1.4-.1l1.8-.6c.6-.2 1.1-.3 1.6-.3.5-.1 1 0 1.4 0 .4.1.9.2 1.3.5.5.3.8.6.9.9.1.3.1.6 0 1-.1.3-.4.6-.7 1-.3.3-.7.6-1.2.9l1.5.9-1.2.7-1.5-.9c-.8.4-1.6.7-2.5 1-.9.3-1.7.5-2.5.7l-.8-2c.4-.1.8-.2 1.3-.3.4-.1.8-.2 1.2-.4.5-.1.9-.3 1.3-.5l-1.1-.6c-.4.1-.8.3-1.2.4-.6.2-1.2.4-1.7.5-.5.1-1 .2-1.4.2-.4 0-.8 0-1.2-.1-.4-.1-.7-.2-1-.4-.4-.3-.7-.5-.9-.8-.2-.3-.2-.6-.1-.9.1-.3.3-.7.5-1 .3-.3.6-.6 1.1-1l-1.2-.7 1.2-.7 1.3.7c.4-.2.8-.3 1.1-.5.4-.1.8-.3 1.1-.4.4-.1.7-.2 1.1-.3.4-.1.7-.2 1-.3l.7 2Zm-4.2 2c.1.1.3.1.5.1s.4-.1.7-.1l-.9-.5c-.4.1-.5.3-.3.5Zm6 1c-.1-.1-.3-.1-.5-.1s-.5.1-.7.2l.9.5c.2-.2.4-.3.4-.4 0-.1 0-.2-.1-.2Z" fill="#FFE585"/><path d="M74.7 80.6H37.8v5.3c0 5.9 8.2 10.7 18.4 10.7s18.4-4.8 18.4-10.7v-5.3h.1Z" fill="url(#l)"/><path d="M56.2 95.6c-10.1 0-18.4-4.8-18.4-10.8v1.1c0 5.9 8.2 10.7 18.4 10.7s18.4-4.8 18.4-10.7v-1.1c.1 6-8.2 10.8-18.4 10.8Z" fill="url(#m)"/><path d="M61.9 96.2c.2 0 .3-.1.5-.1V82.5h-.5v13.7ZM64.2 95.6c.2 0 .3-.1.5-.1v-13h-.5v13.1ZM66.5 94.9c.2-.1.3-.1.5-.2V82.5h-.5v12.4ZM59.6 96.5c.2 0 .3 0 .5-.1v-14h-.5v14.1ZM71.1 92.3c.2-.1.4-.3.5-.4v-9.4h-.5v9.8ZM73.5 89.8c.2-.3.4-.6.5-.9v-6.4h-.5v7.3ZM68.8 93.8c.2-.1.4-.2.5-.3V82.4h-.5v11.4ZM57.3 96.7h.5V82.5h-.5v14.2ZM54.9 96.7h.5V82.5h-.5v14.2ZM50.3 96.1c.2 0 .3.1.5.1V82.4h-.5v13.7ZM52.6 96.5h.5V82.4h-.5v14.1ZM48 95.6c.2 0 .3.1.5.1V82.4H48v13.2ZM38.7 89.3c.2.3.3.6.5.8v-7.7h-.5v6.9ZM41.1 92.1c.2.1.3.3.5.4v-10h-.5v9.6ZM45.7 94.8c.2.1.3.1.5.2V82.5h-.5v12.3ZM43.4 93.6c.2.1.3.2.5.3V82.4h-.5v11.2Z" fill="#FFE585"/><path d="M56.2 91.4c10.162 0 18.4-4.79 18.4-10.7 0-5.91-8.238-10.7-18.4-10.7-10.162 0-18.4 4.79-18.4 10.7 0 5.91 8.238 10.7 18.4 10.7Z" fill="url(#n)"/><path d="M56.2 91.2c-10 0-18-4.6-18.4-10.4v.4c0 5.9 8.2 10.7 18.4 10.7s18.4-4.8 18.4-10.7v-.4c-.3 5.7-8.4 10.4-18.4 10.4Z" fill="url(#o)"/><path d="M56.2 88.7c7.621 0 13.8-3.582 13.8-8s-6.179-8-13.8-8c-7.622 0-13.8 3.582-13.8 8s6.178 8 13.8 8Z" fill="url(#p)"/><path d="M56.7 73.1c7.4 0 13.3 3.4 13.7 7.6v-.4c0-4.4-6.2-8-13.8-8-7.6 0-13.8 3.6-13.8 8v.4c.6-4.2 6.5-7.6 13.9-7.6Z" fill="url(#q)"/><path d="M56.2 73.6c7.4 0 13.3 3.4 13.7 7.6v-.4c0-4.4-6.2-8-13.8-8-7.6 0-13.8 3.6-13.8 8v.4c.6-4.3 6.6-7.6 13.9-7.6Z" fill="url(#r)"/><path d="M65.9 70.4c4.1 1.4 6.9 4.2 6.2 6.3-.7 2.1-4.6 2.6-8.8 1.2-4.1-1.4-6.9-4.2-6.2-6.3.8-2.1 4.7-2.6 8.8-1.2Z" fill="url(#s)"/><path d="M57.3 78.2c-.3.1-.7.1-1.1.2-.3.1-.7.2-1 .3-.4.1-.7.2-1 .4l1.1.6c.1 0 .2-.1.4-.1.1 0 .3-.1.4-.1l1.8-.6c.6-.2 1.1-.3 1.6-.3.5-.1 1 0 1.4 0 .4.1.9.2 1.3.5.5.3.8.6.9.9.1.3.1.6 0 1-.1.3-.4.6-.7 1-.3.3-.7.6-1.2.9l1.5.9-1.2.7-1.5-.9c-.8.4-1.6.7-2.5 1-.9.3-1.7.5-2.5.7l-.8-2c.4-.1.8-.2 1.3-.3.4-.1.8-.2 1.2-.4.5-.1.9-.3 1.3-.5l-1.1-.6c-.4.1-.8.3-1.2.4-.6.2-1.2.4-1.7.5-.5.1-1 .2-1.4.2-.4 0-.8 0-1.2-.1-.4-.1-.7-.2-1-.4-.4-.3-.7-.5-.9-.8-.2-.3-.2-.6-.1-.9.1-.3.3-.7.5-1 .3-.3.6-.6 1.1-1l-1.2-.6 1.2-.7 1.3.7c.4-.2.8-.3 1.1-.5.4-.1.8-.3 1.1-.4.4-.1.7-.2 1.1-.3.4-.1.7-.2 1-.3l.7 1.9Zm-4.2 2c.1.1.3.1.5.1s.4-.1.7-.1l-.9-.5c-.4.1-.5.3-.3.5Zm6 1c-.1-.1-.3-.1-.5-.1s-.5.1-.7.2l.9.5c.2-.2.4-.3.4-.4 0-.1 0-.2-.1-.2Z" fill="#FF9E6E"/><path d="M57.3 77.7c-.3.1-.7.1-1.1.2-.3.1-.7.2-1 .3-.4.1-.7.2-1 .4l1.1.6c.1 0 .2-.1.4-.1.1 0 .3-.1.4-.1l1.8-.6c.6-.2 1.1-.3 1.6-.3.5-.1 1 0 1.4 0 .4.1.9.2 1.3.5.5.3.8.6.9.9.1.3.1.6 0 1-.1.3-.4.6-.7 1-.3.3-.7.6-1.2.9l1.5.9-1.2.7-1.5-.9c-.8.4-1.6.7-2.5 1-.9.3-1.7.5-2.5.7l-.8-2c.4-.1.8-.2 1.3-.3.4-.1.8-.2 1.2-.4.5-.1.9-.3 1.3-.5l-1.1-.6c-.4.1-.8.3-1.2.4-.6.2-1.2.4-1.7.5-.5.1-1 .2-1.4.2-.4 0-.8 0-1.2-.1-.4-.1-.7-.2-1-.4-.4-.3-.7-.5-.9-.8-.2-.3-.2-.6-.1-.9.1-.3.3-.7.5-1 .3-.3.6-.6 1.1-1l-1.2-.7 1.2-.7 1.3.7c.4-.2.8-.3 1.1-.5.4-.1.8-.3 1.1-.4.4-.1.7-.2 1.1-.3.4-.1.7-.2 1-.3l.7 2Zm-4.2 2c.1.1.3.1.5.1s.4-.1.7-.1l-.9-.5c-.4.2-.5.4-.3.5Zm6 1c-.1-.1-.3-.1-.5-.1s-.5.1-.7.2l.9.5c.2-.2.4-.3.4-.4 0-.1 0-.1-.1-.2Z" fill="#FFE585"/><path d="M74.7 74.5H37.8v5.3c0 5.9 8.2 10.7 18.4 10.7s18.4-4.8 18.4-10.7v-5.3h.1Z" fill="url(#t)"/><path d="M56.2 89.4c-10.2 0-18.4-4.8-18.4-10.7v1.1c0 5.9 8.2 10.7 18.4 10.7s18.4-4.8 18.4-10.7v-1.1c.1 5.9-8.2 10.7-18.4 10.7Z" fill="url(#u)"/><path d="M61.9 90c.2 0 .3-.1.5-.1V76.3h-.5V90ZM64.2 89.5c.2 0 .3-.1.5-.1v-13h-.5v13.1ZM66.5 88.7c.2-.1.3-.1.5-.2V76.3h-.5v12.4ZM59.6 90.4c.2 0 .3 0 .5-.1v-14h-.5v14.1ZM71.1 86.1c.2-.1.4-.3.5-.4v-9.4h-.5v9.8ZM73.5 83.6c.2-.3.4-.6.5-.9v-6.4h-.5v7.3ZM68.8 87.6c.2-.1.4-.2.5-.3V76.2h-.5v11.4ZM57.3 90.5h.5V76.3h-.5v14.2ZM54.9 90.5h.5V76.3h-.5v14.2ZM50.3 90c.2 0 .3.1.5.1V76.3h-.5V90ZM52.6 90.3h.5V76.2h-.5v14.1ZM48 89.4c.2 0 .3.1.5.1V76.2H48v13.2ZM38.7 83.2c.2.3.3.6.5.8v-7.7h-.5v6.9ZM41.1 85.9c.2.1.3.3.5.4v-10h-.5v9.6ZM45.7 88.6c.2.1.3.1.5.2V76.3h-.5v12.3ZM43.4 87.5c.2.1.3.2.5.3V76.3h-.5v11.2Z" fill="#FFE585"/><path d="M56.2 85.2c10.162 0 18.4-4.79 18.4-10.7 0-5.91-8.238-10.7-18.4-10.7-10.162 0-18.4 4.79-18.4 10.7 0 5.91 8.238 10.7 18.4 10.7Z" fill="url(#v)"/><path d="M56.2 85c-10 0-18-4.6-18.4-10.4v.4c0 5.9 8.2 10.7 18.4 10.7S74.6 80.9 74.6 75v-.4C74.3 80.4 66.2 85 56.2 85Z" fill="url(#w)"/><path d="M56.2 82.5c7.621 0 13.8-3.582 13.8-8s-6.179-8-13.8-8c-7.622 0-13.8 3.582-13.8 8s6.178 8 13.8 8Z" fill="url(#x)"/><path d="M56.7 66.9c7.4 0 13.3 3.4 13.7 7.6v-.4c0-4.4-6.2-8-13.8-8-7.6 0-13.8 3.6-13.8 8v.4c.6-4.2 6.5-7.6 13.9-7.6Z" fill="url(#y)"/><path d="M56.2 67.4c7.4 0 13.3 3.4 13.7 7.6v-.4c0-4.4-6.2-8-13.8-8-7.6 0-13.8 3.6-13.8 8v.4c.6-4.3 6.6-7.6 13.9-7.6Z" fill="url(#z)"/><path d="M57.3 72c-.3.1-.7.1-1.1.2-.3.1-.7.2-1 .3-.4.1-.7.2-1 .4l1.1.6c.1 0 .2-.1.4-.1.1 0 .3-.1.4-.1l1.8-.6c.6-.2 1.1-.3 1.6-.3.5-.1 1 0 1.4 0 .4.1.9.2 1.3.5.5.3.8.6.9.9.1.3.1.6 0 1-.1.3-.4.6-.7 1-.3.3-.7.6-1.2.9l1.5.9-1.2.7-1.5-.9c-.8.4-1.6.7-2.5 1-.9.3-1.7.5-2.5.7l-.8-2c.4-.1.8-.2 1.3-.3.4-.1.8-.2 1.2-.4.5-.1.9-.3 1.3-.5l-1.1-.6c-.4.1-.8.3-1.2.4-.6.2-1.2.4-1.7.5-.5.1-1 .2-1.4.2-.4 0-.8 0-1.2-.1-.4-.1-.7-.2-1-.4-.4-.3-.7-.5-.9-.8-.2-.3-.2-.6-.1-.9.1-.3.3-.7.5-1 .3-.3.6-.6 1.1-1l-1.2-.7 1.2-.7 1.3.7c.4-.2.8-.3 1.1-.5.4-.1.8-.3 1.1-.4.4-.1.7-.2 1.1-.3.4-.1.7-.2 1-.3l.7 2Zm-4.2 2c.1.1.3.1.5.1s.4-.1.7-.1l-.9-.5c-.4.2-.5.4-.3.5Zm6 1c-.1-.1-.3-.1-.5-.1s-.5.1-.7.2l.9.5c.2-.2.4-.3.4-.4 0-.1 0-.2-.1-.2Z" fill="#FF9E6E"/><path d="M57.3 71.6c-.3.1-.7.1-1.1.2-.3.1-.7.2-1 .3-.4.1-.7.2-1 .4l1.1.6c.1 0 .2-.1.4-.1.1 0 .3-.1.4-.1l1.8-.6c.6-.2 1.1-.3 1.6-.3.5-.1 1 0 1.4 0 .4.1.9.2 1.3.5.5.3.8.6.9.9.1.3.1.6 0 1-.1.3-.4.6-.7 1-.3.3-.7.6-1.2.9l1.5.9-1.2.7L60 77c-.8.4-1.6.7-2.5 1-.9.3-1.7.5-2.5.7l-.8-2c.4-.1.8-.2 1.3-.3.4-.1.8-.2 1.2-.4.5-.1.9-.3 1.3-.5l-1.1-.6c-.4.1-.8.3-1.2.4-.6.2-1.2.4-1.7.5-.5.1-1 .2-1.4.2-.4 0-.8 0-1.2-.1-.4-.1-.7-.2-1-.4-.4-.3-.7-.5-.9-.8-.2-.3-.2-.6-.1-.9.1-.3.3-.7.5-1 .3-.3.6-.6 1.1-1l-1.2-.7 1.2-.7 1.3.7c.4-.2.8-.3 1.1-.5.4-.1.8-.3 1.1-.4.4-.1.7-.2 1.1-.3.4-.1.7-.2 1-.3l.7 2Zm-4.2 1.9c.1.1.3.1.5.1s.4-.1.7-.1l-.9-.5c-.4.2-.5.4-.3.5Zm6 1c-.1-.1-.3-.1-.5-.1s-.5.1-.7.2l.9.5c.2-.2.4-.3.4-.4 0 0 0-.1-.1-.2Z" fill="#FFE585"/><path opacity=".4" d="M85.9 120.4c13.365 0 24.2-5.059 24.2-11.3 0-6.241-10.834-11.3-24.2-11.3-13.365 0-24.2 5.059-24.2 11.3 0 6.241 10.835 11.3 24.2 11.3Z" fill="url(#A)"/><path d="M101.4 102.4H64.6v5.3c0 5.9 8.2 10.7 18.4 10.7s18.4-4.8 18.4-10.7v-5.3Z" fill="url(#B)"/><path d="M83 117.4c-10.2 0-18.4-4.8-18.4-10.7v1.1c0 5.9 8.2 10.7 18.4 10.7s18.4-4.8 18.4-10.7v-1.1c0 5.9-8.2 10.7-18.4 10.7Z" fill="url(#C)"/><path d="M88.6 118c.2 0 .3-.1.5-.1v-13.6h-.5V118ZM90.9 117.4c.2 0 .3-.1.5-.1v-13h-.5v13.1ZM93.2 116.7c.2-.1.3-.1.5-.2v-12.2h-.5v12.4ZM86.3 118.3c.2 0 .3 0 .5-.1v-14h-.5v14.1ZM97.9 114.1c.2-.1.4-.3.5-.4v-9.4h-.5v9.8ZM100.2 111.6c.2-.3.4-.6.5-.9v-6.4h-.5v7.3ZM95.6 115.6c.2-.1.4-.2.5-.3v-11.1h-.5v11.4ZM84 118.5h.5v-14.2H84v14.2ZM81.7 118.5h.5v-14.2h-.5v14.2ZM77 117.9c.2 0 .3.1.5.1v-13.8H77v13.7ZM79.4 118.3h.5v-14.1h-.5v14.1ZM74.7 117.4c.2 0 .3.1.5.1v-13.3h-.5v13.2ZM65.5 111.1c.2.3.3.6.5.8v-7.7h-.5v6.9ZM67.8 113.8c.2.1.3.3.5.4v-10h-.5v9.6ZM72.4 116.6c.2.1.3.1.5.2v-12.5h-.5v12.3ZM70.1 115.4c.2.1.3.2.5.3v-11.5h-.5v11.2Z" fill="#FFE585"/><path d="M83 113.2c10.162 0 18.4-4.791 18.4-10.7 0-5.91-8.238-10.7-18.4-10.7-10.162 0-18.4 4.79-18.4 10.7 0 5.909 8.238 10.7 18.4 10.7Z" fill="url(#D)"/><path d="M83 112.9c-10 0-18-4.6-18.4-10.4v.4c0 5.9 8.2 10.7 18.4 10.7s18.4-4.8 18.4-10.7v-.4c-.4 5.8-8.5 10.4-18.4 10.4Z" fill="url(#E)"/><path d="M83 110.5c7.622 0 13.8-3.582 13.8-8s-6.178-8-13.8-8c-7.621 0-13.8 3.582-13.8 8s6.179 8 13.8 8Z" fill="url(#F)"/><path d="M83.4 94.9c7.4 0 13.3 3.4 13.7 7.6v-.4c0-4.4-6.2-8-13.8-8-7.6 0-13.8 3.6-13.8 8v.4c.6-4.2 6.6-7.6 13.9-7.6Z" fill="url(#G)"/><path d="M83 95.3c7.4 0 13.3 3.4 13.7 7.6v-.4c0-4.4-6.2-8-13.8-8-7.6 0-13.8 3.6-13.8 8v.4c.5-4.2 6.5-7.6 13.9-7.6Z" fill="url(#H)"/><path d="M92.7 92.2c4.1 1.4 6.9 4.2 6.2 6.3-.7 2-4.6 2.6-8.8 1.2-4.1-1.4-6.9-4.2-6.2-6.3.7-2.1 4.6-2.6 8.8-1.2Z" fill="url(#I)"/><path d="M84 100c-.3.1-.7.1-1.1.2-.3.1-.7.2-1 .3-.4.1-.7.2-1 .4l1.1.6c.1 0 .2-.1.4-.1.1 0 .3-.1.4-.1l1.8-.6c.6-.2 1.1-.3 1.6-.3.5-.1 1 0 1.4 0 .4.1.9.2 1.3.5.5.3.8.6.9.9.1.3.1.6 0 1-.1.3-.4.6-.7 1-.3.3-.7.6-1.2.9l1.5.9-1.2.7-1.5-.9c-.8.4-1.6.7-2.5 1-.9.3-1.7.5-2.5.7l-.8-2c.4-.1.8-.2 1.3-.3.4-.1.8-.2 1.2-.4.5-.1.9-.3 1.3-.5l-1.1-.6c-.4.1-.8.3-1.2.4-.6.2-1.2.4-1.7.5-.5.1-1 .2-1.4.2-.4 0-.8 0-1.2-.1-.4-.1-.7-.2-1-.4-.4-.3-.7-.5-.9-.8-.2-.3-.2-.6-.1-.9.1-.3.3-.7.5-1 .3-.3.6-.6 1.1-1l-1.2-.7 1.2-.7 1.3.7c.4-.2.8-.3 1.1-.5.4-.1.8-.3 1.1-.4.4-.1.7-.2 1.1-.3.4-.1.7-.2 1-.3l.7 2Zm-4.1 2c.1.1.3.1.5.1s.4-.1.7-.1l-.9-.5c-.5.1-.6.3-.3.5Zm5.9 1c-.1-.1-.3-.1-.5-.1s-.5.1-.7.2l.9.5c.2-.2.4-.3.4-.4 0-.1 0-.2-.1-.2Z" fill="#FF9E6E"/><path d="M84 99.5c-.3.1-.7.1-1.1.2-.3.1-.7.2-1 .3-.4.1-.7.2-1 .4l1.1.6c.1 0 .2-.1.4-.1.1 0 .3-.1.4-.1l1.8-.6c.6-.2 1.1-.3 1.6-.3.5-.1 1 0 1.4 0 .4.1.9.2 1.3.5.5.3.8.6.9.9.1.3.1.6 0 1-.1.3-.4.6-.7 1-.3.3-.7.6-1.2.9l1.5.9-1.2.7-1.5-.9c-.8.4-1.6.7-2.5 1-.9.3-1.7.5-2.5.7l-.8-2c.4-.1.8-.2 1.3-.3.4-.1.8-.2 1.2-.4.5-.1.9-.3 1.3-.5l-1.1-.6c-.4.1-.8.3-1.2.4-.6.2-1.2.4-1.7.5-.5.1-1 .2-1.4.2-.4 0-.8 0-1.2-.1-.4-.1-.7-.2-1-.4-.4-.3-.7-.5-.9-.8-.2-.3-.2-.6-.1-.9.1-.3.3-.7.5-1 .3-.3.6-.6 1.1-1l-1.2-.7 1.2-.7 1.3.7c.4-.2.8-.3 1.1-.5.4-.1.8-.3 1.1-.4.4-.1.7-.2 1.1-.3.4-.1.7-.2 1-.3l.7 2Zm-4.1 2c.1.1.3.1.5.1s.4-.1.7-.1l-.9-.5c-.5.2-.6.4-.3.5Zm5.9 1c-.1-.1-.3-.1-.5-.1s-.5.1-.7.2l.9.5c.2-.2.4-.3.4-.4 0-.1 0-.1-.1-.2Z" fill="#FFE585"/><path d="M101.4 96.3H64.6v5.3c0 5.9 8.2 10.7 18.4 10.7s18.4-4.8 18.4-10.7v-5.3Z" fill="url(#J)"/><path d="M83 111.2c-10.2 0-18.4-4.8-18.4-10.7v1.1c0 5.9 8.2 10.7 18.4 10.7s18.4-4.8 18.4-10.7v-1.1c0 5.9-8.2 10.7-18.4 10.7Z" fill="url(#K)"/><path d="M88.6 111.8c.2 0 .3-.1.5-.1V98.1h-.5v13.7ZM90.9 111.3c.2 0 .3-.1.5-.1v-13h-.5v13.1ZM93.2 110.5c.2-.1.3-.1.5-.2V98.1h-.5v12.4ZM86.3 112.2c.2 0 .3 0 .5-.1v-14h-.5v14.1ZM97.9 107.9c.2-.1.4-.3.5-.4v-9.4h-.5v9.8ZM100.2 105.4c.2-.3.4-.6.5-.9v-6.4h-.5v7.3ZM95.6 109.4c.2-.1.4-.2.5-.3V98h-.5v11.4ZM84 112.3h.5V98.1H84v14.2ZM81.7 112.3h.5V98.1h-.5v14.2ZM77 111.8c.2 0 .3.1.5.1V98.1H77v13.7ZM79.4 112.1h.5V98h-.5v14.1ZM74.7 111.2c.2 0 .3.1.5.1V98h-.5v13.2ZM65.5 105c.2.3.3.6.5.8v-7.7h-.5v6.9ZM67.8 107.7c.2.1.3.3.5.4v-10h-.5v9.6ZM72.4 110.4c.2.1.3.1.5.2V98.1h-.5v12.3ZM70.1 109.3c.2.1.3.2.5.3V98.1h-.5v11.2Z" fill="#FFE585"/><path d="M83 107c10.162 0 18.4-4.791 18.4-10.7 0-5.91-8.238-10.7-18.4-10.7-10.162 0-18.4 4.79-18.4 10.7 0 5.909 8.238 10.7 18.4 10.7Z" fill="url(#L)"/><path d="M83 106.8c-10 0-18-4.6-18.4-10.4v.4c0 5.9 8.2 10.7 18.4 10.7s18.4-4.8 18.4-10.7v-.4c-.4 5.8-8.5 10.4-18.4 10.4Z" fill="url(#M)"/><path d="M83 104.3c7.622 0 13.8-3.582 13.8-8s-6.178-8-13.8-8c-7.621 0-13.8 3.582-13.8 8s6.179 8 13.8 8Z" fill="url(#N)"/><path d="M83.4 88.7c7.4 0 13.3 3.4 13.7 7.6v-.4c0-4.4-6.2-8-13.8-8-7.6 0-13.8 3.6-13.8 8v.4c.6-4.2 6.6-7.6 13.9-7.6Z" fill="url(#O)"/><path d="M83 89.2c7.4 0 13.3 3.4 13.7 7.6v-.4c0-4.4-6.2-8-13.8-8-7.6 0-13.8 3.6-13.8 8v.4c.5-4.3 6.5-7.6 13.9-7.6Z" fill="url(#P)"/><path d="M92.7 86c4.1 1.4 6.9 4.2 6.2 6.3-.7 2-4.6 2.6-8.8 1.2-4.1-1.4-6.9-4.2-6.2-6.3.7-2.1 4.6-2.6 8.8-1.2Z" fill="url(#Q)"/><path d="M84 93.8c-.3.1-.7.1-1.1.2-.3.1-.7.2-1 .3-.4.1-.7.2-1 .4l1.1.6c.1 0 .2-.1.4-.1.1 0 .3-.1.4-.1l1.8-.6c.6-.2 1.1-.3 1.6-.3.5-.1 1 0 1.4 0 .4.1.9.2 1.3.5.5.3.8.6.9.9.1.3.1.6 0 1-.1.3-.4.6-.7 1-.3.3-.7.6-1.2.9l1.5.9-1.2.7-1.5-.9c-.8.4-1.6.7-2.5 1-.9.3-1.7.5-2.5.7l-.8-2c.4-.1.8-.2 1.3-.3.4-.1.8-.2 1.2-.4.5-.1.9-.3 1.3-.5l-1.1-.6c-.4.1-.8.3-1.2.4-.6.2-1.2.4-1.7.5-.5.1-1 .2-1.4.2-.4 0-.8 0-1.2-.1-.4-.1-.7-.2-1-.4-.4-.3-.7-.5-.9-.8-.2-.3-.2-.6-.1-.9.1-.3.3-.7.5-1 .3-.3.6-.6 1.1-1l-1.2-.7 1.2-.7 1.3.7c.4-.2.8-.3 1.1-.5.4-.1.8-.3 1.1-.4.4-.1.7-.2 1.1-.3.4-.1.7-.2 1-.3l.7 2Zm-4.1 2c.1.1.3.1.5.1s.4-.1.7-.1l-.9-.5c-.5.2-.6.4-.3.5Zm5.9 1c-.1-.1-.3-.1-.5-.1s-.5.1-.7.2l.9.5c.2-.2.4-.3.4-.4 0-.1 0-.2-.1-.2Z" fill="#FF9E6E"/><path d="M84 93.4c-.3.1-.7.1-1.1.2-.3.1-.7.2-1 .3-.4.1-.7.2-1 .4l1.1.6c.1 0 .2-.1.4-.1.1 0 .3-.1.4-.1l1.8-.6c.6-.1 1.1-.3 1.6-.3.5-.1 1 0 1.4 0 .4.1.9.2 1.3.5.5.3.8.6.9.9.1.3.1.6 0 1-.1.3-.4.6-.7 1-.3.3-.7.6-1.2.9l1.5.9-1.2.7-1.5-.9c-.8.4-1.6.7-2.5 1-.9.3-1.7.5-2.5.7l-.8-2c.4-.1.8-.2 1.3-.3.4-.1.8-.2 1.2-.4.5-.1.9-.3 1.3-.5l-1.1-.6c-.4.1-.8.3-1.2.4-.6.2-1.2.4-1.7.5-.5.1-1 .2-1.4.2-.4 0-.8 0-1.2-.1-.4-.1-.7-.2-1-.4-.4-.3-.7-.5-.9-.8-.2-.3-.2-.6-.1-.9.1-.3.3-.7.5-1 .3-.3.6-.6 1.1-1l-1.2-.7 1.2-.7 1.3.7c.4-.2.8-.3 1.1-.5.4-.1.8-.3 1.1-.4.4-.1.7-.2 1.1-.3.4-.1.7-.2 1-.3l.7 2Zm-4.1 1.9c.1.1.3.1.5.1s.4-.1.7-.1l-.9-.5c-.5.2-.6.4-.3.5Zm5.9 1c-.1-.1-.3-.1-.5-.1s-.5.1-.7.2l.9.5c.2-.2.4-.3.4-.4 0 0 0-.1-.1-.2Z" fill="#FFE585"/><path d="M101.4 90.1H64.6v5.3c0 5.9 8.2 10.7 18.4 10.7s18.4-4.8 18.4-10.7v-5.3Z" fill="url(#R)"/><path d="M83 105c-10.2 0-18.4-4.8-18.4-10.7v1.1c0 5.9 8.2 10.7 18.4 10.7s18.4-4.8 18.4-10.7v-1.1c0 5.9-8.2 10.7-18.4 10.7Z" fill="url(#S)"/><path d="M88.6 105.7c.2 0 .3-.1.5-.1V92h-.5v13.7ZM90.9 105.1c.2 0 .3-.1.5-.1V92h-.5v13.1ZM93.2 104.3c.2-.1.3-.1.5-.2V91.9h-.5v12.4ZM86.3 106c.2 0 .3 0 .5-.1v-14h-.5V106ZM97.9 101.7c.2-.1.4-.3.5-.4v-9.4h-.5v9.8ZM100.2 99.2c.2-.3.4-.6.5-.9v-6.4h-.5v7.3ZM95.6 103.3c.2-.1.4-.2.5-.3V91.9h-.5v11.4ZM84 106.1h.5V91.9H84v14.2ZM81.7 106.1h.5V91.9h-.5v14.2ZM77 105.6c.2 0 .3.1.5.1V91.9H77v13.7ZM79.4 106h.5V91.9h-.5V106ZM74.7 105c.2 0 .3.1.5.1V91.8h-.5V105ZM65.5 98.8c.2.3.3.6.5.8v-7.7h-.5v6.9ZM67.8 101.5c.2.1.3.3.5.4v-10h-.5v9.6ZM72.4 104.2c.2.1.3.1.5.2V91.9h-.5v12.3ZM70.1 103.1c.2.1.3.2.5.3V91.9h-.5v11.2Z" fill="#FFE585"/><path d="M83 100.9c10.162 0 18.4-4.79 18.4-10.7 0-5.91-8.238-10.7-18.4-10.7-10.162 0-18.4 4.79-18.4 10.7 0 5.91 8.238 10.7 18.4 10.7Z" fill="url(#T)"/><path d="M83 100.6c-10 0-18-4.6-18.4-10.4v.4c0 5.9 8.2 10.7 18.4 10.7s18.4-4.8 18.4-10.7v-.4c-.4 5.8-8.5 10.4-18.4 10.4Z" fill="url(#U)"/><path d="M83 98.2c7.622 0 13.8-3.582 13.8-8s-6.178-8-13.8-8c-7.621 0-13.8 3.582-13.8 8s6.179 8 13.8 8Z" fill="url(#V)"/><path d="M83.4 82.6c7.4 0 13.3 3.4 13.7 7.6v-.4c0-4.4-6.2-8-13.8-8-7.6 0-13.8 3.6-13.8 8v.4c.6-4.3 6.6-7.6 13.9-7.6Z" fill="url(#W)"/><path d="M83 83c7.4 0 13.3 3.4 13.7 7.6v-.4c0-4.4-6.2-8-13.8-8-7.6 0-13.8 3.6-13.8 8v.4c.5-4.2 6.5-7.6 13.9-7.6Z" fill="url(#X)"/><path d="M92.7 79.8c4.1 1.4 6.9 4.2 6.2 6.3-.7 2-4.6 2.6-8.8 1.2-4.1-1.4-6.9-4.2-6.2-6.3.7-2.1 4.6-2.6 8.8-1.2Z" fill="url(#Y)"/><path d="M84 87.7c-.3.1-.7.1-1.1.2-.3.1-.7.2-1 .3-.4.1-.7.2-1 .4l1.1.6c.1 0 .2-.1.4-.1.1 0 .3-.1.4-.1l1.8-.6c.6-.2 1.1-.3 1.6-.3.5-.1 1 0 1.4 0 .4.1.9.2 1.3.5.5.3.8.6.9.9.1.3.1.6 0 1-.1.3-.4.6-.7 1-.3.3-.7.6-1.2.9l1.5.9-1.2.7-1.5-.9c-.8.4-1.6.7-2.5 1-.9.3-1.7.5-2.5.7l-.8-2c.4-.1.8-.2 1.3-.3.4-.1.8-.2 1.2-.4.5-.1.9-.3 1.3-.5l-1.1-.6c-.4.1-.8.3-1.2.4-.6.2-1.2.4-1.7.5-.5.1-1 .2-1.4.2-.4 0-.8 0-1.2-.1-.4-.1-.7-.2-1-.4-.4-.3-.7-.5-.9-.8-.2-.3-.2-.6-.1-.9.1-.3.3-.7.5-1 .3-.3.6-.6 1.1-1l-1.2-.7 1.2-.7 1.3.7c.4-.2.8-.3 1.1-.5.4-.1.8-.3 1.1-.4.4-.1.7-.2 1.1-.3.4-.1.7-.2 1-.3l.7 2Zm-4.1 1.9c.1.1.3.1.5.1s.4-.1.7-.1l-.9-.5c-.5.2-.6.4-.3.5Zm5.9 1c-.1-.1-.3-.1-.5-.1s-.5.1-.7.2l.9.5c.2-.2.4-.3.4-.4 0 0 0-.1-.1-.2Z" fill="#FF9E6E"/><path d="M84 87.2c-.3.1-.7.1-1.1.2-.3.1-.7.2-1 .3-.4.1-.7.2-1 .4l1.1.6c.1 0 .2-.1.4-.1.1 0 .3-.1.4-.1l1.8-.6c.6-.2 1.1-.3 1.6-.3.5-.1 1 0 1.4 0 .4.1.9.2 1.3.5.5.3.8.6.9.9.1.3.1.6 0 1-.1.3-.4.6-.7 1-.3.3-.7.6-1.2.9l1.5.9-1.2.7-1.5-.9c-.8.4-1.6.7-2.5 1-.9.3-1.7.5-2.5.7l-.8-2c.4-.1.8-.2 1.3-.3.4-.1.8-.2 1.2-.4.5-.1.9-.3 1.3-.5l-1.1-.6c-.4.1-.8.3-1.2.4-.6.2-1.2.4-1.7.5-.5.1-1 .2-1.4.2-.4 0-.8 0-1.2-.1-.4-.1-.7-.2-1-.4-.4-.3-.7-.5-.9-.8-.2-.3-.2-.6-.1-.9.1-.3.3-.7.5-1 .3-.3.6-.6 1.1-1l-1.2-.7 1.2-.7 1.3.7c.4-.2.8-.3 1.1-.5.4-.1.8-.3 1.1-.4.4-.1.7-.2 1.1-.3.4-.1.7-.2 1-.3l.7 2Zm-4.1 2c.1.1.3.1.5.1s.4-.1.7-.1l-.9-.5c-.5.1-.6.3-.3.5Zm5.9 1c-.1-.1-.3-.1-.5-.1s-.5.1-.7.2l.9.5c.2-.2.4-.3.4-.4 0-.1 0-.2-.1-.2Z" fill="#FFE585"/><path d="M101.4 83.9H64.6v5.3c0 5.9 8.2 10.7 18.4 10.7s18.4-4.8 18.4-10.7v-5.3Z" fill="url(#Z)"/><path d="M83 98.8c-10.2 0-18.4-4.8-18.4-10.7v1.1c0 5.9 8.2 10.7 18.4 10.7s18.4-4.8 18.4-10.7v-1.1c0 5.9-8.2 10.7-18.4 10.7Z" fill="url(#aa)"/><path d="M88.6 99.5c.2 0 .3-.1.5-.1V85.8h-.5v13.7ZM90.9 98.9c.2 0 .3-.1.5-.1v-13h-.5v13.1ZM93.2 98.2c.2-.1.3-.1.5-.2V85.8h-.5v12.4ZM86.3 99.8c.2 0 .3 0 .5-.1v-14h-.5v14.1ZM97.9 95.5c.2-.1.4-.3.5-.4v-9.4h-.5v9.8ZM100.2 93c.2-.3.4-.6.5-.9v-6.4h-.5V93ZM95.6 97.1c.2-.1.4-.2.5-.3V85.7h-.5v11.4ZM84 99.9h.5V85.7H84v14.2ZM81.7 99.9h.5V85.7h-.5v14.2ZM77 99.4c.2 0 .3.1.5.1V85.7H77v13.7ZM79.4 99.8h.5V85.7h-.5v14.1ZM74.7 98.8c.2 0 .3.1.5.1V85.6h-.5v13.2ZM65.5 92.6c.2.3.3.6.5.8v-7.7h-.5v6.9ZM67.8 95.3c.2.1.3.3.5.4v-10h-.5v9.6ZM72.4 98c.2.1.3.1.5.2V85.7h-.5V98ZM70.1 96.9c.2.1.3.2.5.3V85.7h-.5v11.2Z" fill="#FFE585"/><path d="M83 94.7c10.162 0 18.4-4.79 18.4-10.7 0-5.91-8.238-10.7-18.4-10.7-10.162 0-18.4 4.79-18.4 10.7 0 5.91 8.238 10.7 18.4 10.7Z" fill="url(#ab)"/><path d="M83 94.4c-10 0-18-4.6-18.4-10.4v.4c0 5.9 8.2 10.7 18.4 10.7s18.4-4.8 18.4-10.7V84c-.4 5.8-8.5 10.4-18.4 10.4Z" fill="url(#ac)"/><path d="M83 92c7.622 0 13.8-3.582 13.8-8s-6.178-8-13.8-8c-7.621 0-13.8 3.582-13.8 8s6.179 8 13.8 8Z" fill="url(#ad)"/><path d="M83.4 76.4c7.4 0 13.3 3.4 13.7 7.6v-.4c0-4.4-6.2-8-13.8-8-7.6 0-13.8 3.6-13.8 8v.4c.6-4.3 6.6-7.6 13.9-7.6Z" fill="url(#ae)"/><path d="M83 76.8c7.4 0 13.3 3.4 13.7 7.6V84c0-4.4-6.2-8-13.8-8-7.6 0-13.8 3.6-13.8 8v.4c.5-4.2 6.5-7.6 13.9-7.6Z" fill="url(#af)"/><path d="M92.7 73.6c4.1 1.4 6.9 4.2 6.2 6.3-.7 2.1-4.6 2.6-8.8 1.2-4.1-1.4-6.9-4.2-6.2-6.3.7-2 4.6-2.6 8.8-1.2Z" fill="url(#ag)"/><path d="M84 81.5c-.3.1-.7.1-1.1.2-.3.1-.7.2-1 .3-.4.1-.7.2-1 .4l1.1.6c.1 0 .2-.1.4-.1.1 0 .3-.1.4-.1l1.8-.6c.6-.2 1.1-.3 1.6-.3.5-.1 1 0 1.4 0 .4.1.9.2 1.3.5.5.3.8.6.9.9.1.3.1.6 0 1-.1.3-.4.6-.7 1-.3.3-.7.6-1.2.9l1.5.9-1.2.7-1.5-.9c-.8.4-1.6.7-2.5 1-.9.3-1.7.5-2.5.7l-.8-2c.4-.1.8-.2 1.3-.3.4-.1.8-.2 1.2-.4.5-.1.9-.3 1.3-.5l-1.1-.6c-.4.1-.8.3-1.2.4-.6.2-1.2.4-1.7.5-.5.1-1 .2-1.4.2-.4 0-.8 0-1.2-.1-.4-.1-.7-.2-1-.4-.4-.3-.7-.5-.9-.8-.2-.3-.2-.6-.1-.9.1-.3.3-.7.5-1 .3-.3.6-.6 1.1-1l-1.2-.7 1.2-.7 1.3.7c.4-.2.8-.3 1.1-.5.4-.1.8-.3 1.1-.4.4-.1.7-.2 1.1-.3.4-.1.7-.2 1-.3l.7 2Zm-4.1 1.9c.1.1.3.1.5.1s.4-.1.7-.1l-.9-.5c-.5.2-.6.4-.3.5Zm5.9 1c-.1-.1-.3-.1-.5-.1s-.5.1-.7.2l.9.5c.2-.2.4-.3.4-.4 0 0 0-.1-.1-.2Z" fill="#FF9E6E"/><path d="M84 81c-.3.1-.7.1-1.1.2-.3.1-.7.2-1 .3-.4.1-.7.2-1 .4l1.1.6c.1 0 .2-.1.4-.1.1 0 .3-.1.4-.1l1.8-.6c.6-.2 1.1-.3 1.6-.3.5-.1 1 0 1.4 0 .4.1.9.2 1.3.5.5.3.8.6.9.9.1.3.1.6 0 1-.1.3-.4.6-.7 1-.3.3-.7.6-1.2.9l1.5.9-1.2.7-1.5-.9c-.8.4-1.6.7-2.5 1-.9.3-1.7.5-2.5.7l-.8-2c.4-.1.8-.2 1.3-.3.4-.1.8-.2 1.2-.4.5-.1.9-.3 1.3-.5l-1.1-.6c-.4.1-.8.3-1.2.4-.6.2-1.2.4-1.7.5-.5.1-1 .2-1.4.2-.4 0-.8 0-1.2-.1-.4-.1-.7-.2-1-.4-.4-.3-.7-.5-.9-.8-.2-.3-.2-.6-.1-.9.1-.3.3-.7.5-1 .3-.3.6-.6 1.1-1l-1.2-.7 1.2-.7 1.3.7c.4-.2.8-.3 1.1-.5.4-.1.8-.3 1.1-.4.4-.1.7-.2 1.1-.3.4-.1.7-.2 1-.3l.7 2Zm-4.1 2c.1.1.3.1.5.1s.4-.1.7-.1l-.9-.5c-.5.1-.6.3-.3.5Zm5.9 1c-.1-.1-.3-.1-.5-.1s-.5.1-.7.2l.9.5c.2-.2.4-.3.4-.4 0-.1 0-.2-.1-.2Z" fill="#FFE585"/><path d="M101.4 78H64.6v5.3C64.6 89.2 72.8 94 83 94s18.4-4.8 18.4-10.7V78Z" fill="url(#ah)"/><path d="M83 92.9c-10.2 0-18.4-4.8-18.4-10.7v1.1C64.6 89.2 72.8 94 83 94s18.4-4.8 18.4-10.7v-1.1c0 5.9-8.2 10.7-18.4 10.7Z" fill="url(#ai)"/><path d="M88.6 93.5c.2 0 .3-.1.5-.1V79.8h-.5v13.7ZM90.9 93c.2 0 .3-.1.5-.1v-13h-.5V93ZM93.2 92.2c.2-.1.3-.1.5-.2V79.8h-.5v12.4ZM86.3 93.9c.2 0 .3 0 .5-.1v-14h-.5v14.1ZM97.9 89.6c.2-.1.4-.3.5-.4v-9.4h-.5v9.8ZM100.2 87.1c.2-.3.4-.6.5-.9v-6.4h-.5v7.3ZM95.6 91.2c.2-.1.4-.2.5-.3V79.8h-.5v11.4ZM84 94h.5V79.8H84V94ZM81.7 94h.5V79.8h-.5V94ZM77 93.5c.2 0 .3.1.5.1V79.8H77v13.7ZM79.4 93.9h.5V79.8h-.5v14.1ZM74.7 92.9c.2 0 .3.1.5.1V79.8h-.5v13.1ZM65.5 86.7c.2.3.3.6.5.8v-7.7h-.5v6.9ZM67.8 89.4c.2.1.3.3.5.4v-10h-.5v9.6ZM72.4 92.1c.2.1.3.1.5.2V79.8h-.5v12.3ZM70.1 91c.2.1.3.2.5.3V79.8h-.5V91Z" fill="#FFE585"/><path d="M83 88.8c10.162 0 18.4-4.79 18.4-10.7 0-5.91-8.238-10.7-18.4-10.7-10.162 0-18.4 4.79-18.4 10.7 0 5.91 8.238 10.7 18.4 10.7Z" fill="url(#aj)"/><path d="M83 88.5c-10 0-18-4.6-18.4-10.4v.4c0 5.9 8.2 10.7 18.4 10.7s18.4-4.8 18.4-10.7v-.4c-.4 5.8-8.5 10.4-18.4 10.4Z" fill="url(#ak)"/><path d="M83 86.1c7.622 0 13.8-3.582 13.8-8s-6.178-8-13.8-8c-7.621 0-13.8 3.582-13.8 8s6.179 8 13.8 8Z" fill="url(#al)"/><path d="M83.4 70.4c7.4 0 13.3 3.4 13.7 7.6v-.4c0-4.4-6.2-8-13.8-8-7.6 0-13.8 3.6-13.8 8v.4c.6-4.2 6.6-7.6 13.9-7.6Z" fill="url(#am)"/><path d="M83 70.9c7.4 0 13.3 3.4 13.7 7.6v-.4c0-4.4-6.2-8-13.8-8-7.6 0-13.8 3.6-13.8 8v.4c.5-4.2 6.5-7.6 13.9-7.6Z" fill="url(#an)"/><path d="M84 75.5c-.3.1-.7.1-1.1.2-.3.1-.7.2-1 .3-.4.1-.7.2-1 .4l1.1.6c.1 0 .2-.1.4-.1.1 0 .3-.1.4-.1l1.8-.6c.6-.2 1.1-.3 1.6-.3.5-.1 1 0 1.4 0 .4.1.9.2 1.3.5.5.3.8.6.9.9.1.3.1.6 0 1-.1.3-.4.6-.7 1-.3.3-.7.6-1.2.9l1.5.9-1.2.7-1.5-.9c-.8.4-1.6.7-2.5 1-.9.3-1.7.5-2.5.7l-.8-2c.4-.1.8-.2 1.3-.3.4-.1.8-.2 1.2-.4.5-.1.9-.3 1.3-.5l-1.1-.6c-.4.1-.8.3-1.2.4-.6.2-1.2.4-1.7.5-.5.1-1 .2-1.4.2-.4 0-.8 0-1.2-.1-.4-.1-.7-.2-1-.4-.4-.3-.7-.5-.9-.8-.2-.3-.2-.6-.1-.9.1-.3.3-.7.5-1 .3-.3.6-.6 1.1-1l-1.2-.7 1.2-.7 1.3.7c.4-.2.8-.3 1.1-.5.4-.1.8-.3 1.1-.4.4-.1.7-.2 1.1-.3.4-.1.7-.2 1-.3l.7 2Zm-4.1 2c.1.1.3.1.5.1s.4-.1.7-.1l-.9-.5c-.5.2-.6.4-.3.5Zm5.9 1c-.1-.1-.3-.1-.5-.1s-.5.1-.7.2l.9.5c.2-.2.4-.3.4-.4 0-.1 0-.1-.1-.2Z" fill="#FF9E6E"/><path d="M84 75.1c-.3.1-.7.1-1.1.2-.3.1-.7.2-1 .3-.4.1-.7.2-1 .4l1.1.6c.1 0 .2-.1.4-.1.1 0 .3-.1.4-.1l1.8-.6c.6-.2 1.1-.3 1.6-.3.5-.1 1 0 1.4 0 .4.1.9.2 1.3.5.5.3.8.6.9.9.1.3.1.6 0 1-.1.3-.4.6-.7 1-.3.3-.7.6-1.2.9l1.5.9-1.2.7-1.5-.9c-.8.4-1.6.7-2.5 1-.9.3-1.7.5-2.5.7l-.8-2c.4-.1.8-.2 1.3-.3.4-.1.8-.2 1.2-.4.5-.1.9-.3 1.3-.5l-1.1-.6c-.4.1-.8.3-1.2.4-.6.2-1.2.4-1.7.5-.5.1-1 .2-1.4.2-.4 0-.8 0-1.2-.1-.4-.1-.7-.2-1-.4-.4-.3-.7-.5-.9-.8-.2-.3-.2-.6-.1-.9.1-.3.3-.7.5-1 .3-.3.6-.6 1.1-1l-1.2-.7 1.2-.7 1.3.7c.4-.2.8-.3 1.1-.5.4-.1.8-.3 1.1-.4.4-.1.7-.2 1.1-.3.4-.1.7-.2 1-.3l.7 2Zm-4.1 2c.1.1.3.1.5.1s.4-.1.7-.1l-.9-.5c-.5.1-.6.3-.3.5Zm5.9.9c-.1-.1-.3-.1-.5-.1s-.5.1-.7.2l.9.5c.2-.2.4-.3.4-.4 0 0 0-.1-.1-.2Z" fill="#FFE585"/><path d="M101.4 72.1H64.6v5.3c0 5.9 8.2 10.7 18.4 10.7s18.4-4.8 18.4-10.7v-5.3Z" fill="url(#ao)"/><path d="M83 87c-10.2 0-18.4-4.8-18.4-10.7v1.1c0 5.9 8.2 10.7 18.4 10.7s18.4-4.8 18.4-10.7v-1.1c0 5.9-8.2 10.7-18.4 10.7Z" fill="url(#ap)"/><path d="M88.6 87.7c.2 0 .3-.1.5-.1V74h-.5v13.7ZM90.9 87.1c.2 0 .3-.1.5-.1V74h-.5v13.1ZM93.2 86.4c.2-.1.3-.1.5-.2V74h-.5v12.4ZM86.3 88c.2 0 .3 0 .5-.1v-14h-.5V88ZM97.9 83.7c.2-.1.4-.3.5-.4v-9.4h-.5v9.8ZM100.2 81.3c.2-.3.4-.6.5-.9V74h-.5v7.3ZM95.6 85.3c.2-.1.4-.2.5-.3V73.9h-.5v11.4ZM84 88.2h.5V74H84v14.2ZM81.7 88.1h.5V73.9h-.5v14.2ZM77 87.6c.2 0 .3.1.5.1V73.9H77v13.7ZM79.4 88h.5V73.9h-.5V88ZM74.7 87c.2 0 .3.1.5.1V73.8h-.5V87ZM65.5 80.8c.2.3.3.6.5.8v-7.7h-.5v6.9ZM67.8 83.5c.2.1.3.3.5.4v-10h-.5v9.6ZM72.4 86.2c.2.1.3.1.5.2V73.9h-.5v12.3ZM70.1 85.1c.2.1.3.2.5.3V73.9h-.5v11.2Z" fill="#FFE585"/><path d="M83 82.9c10.162 0 18.4-4.79 18.4-10.7 0-5.91-8.238-10.7-18.4-10.7-10.162 0-18.4 4.79-18.4 10.7 0 5.91 8.238 10.7 18.4 10.7Z" fill="url(#aq)"/><path d="M83 82.6c-10 0-18-4.6-18.4-10.4v.4c0 5.9 8.2 10.7 18.4 10.7s18.4-4.8 18.4-10.7v-.4C101 78 92.9 82.6 83 82.6Z" fill="url(#ar)"/><path d="M83 80.2c7.622 0 13.8-3.582 13.8-8s-6.178-8-13.8-8c-7.621 0-13.8 3.582-13.8 8s6.179 8 13.8 8Z" fill="url(#as)"/><path d="M83.4 64.6c7.4 0 13.3 3.4 13.7 7.6v-.4c0-4.4-6.2-8-13.8-8-7.6 0-13.8 3.6-13.8 8v.4c.6-4.3 6.6-7.6 13.9-7.6Z" fill="url(#at)"/><path d="M83 65c7.4 0 13.3 3.4 13.7 7.6v-.4c0-4.4-6.2-8-13.8-8-7.6 0-13.8 3.6-13.8 8v.4c.5-4.2 6.5-7.6 13.9-7.6Z" fill="url(#au)"/><path d="M84 69.7c-.3.1-.7.1-1.1.2-.3.1-.7.2-1 .3-.4.1-.7.2-1 .4l1.1.6c.1 0 .2-.1.4-.1.1 0 .3-.1.4-.1l1.8-.6c.6-.2 1.1-.3 1.6-.3.5-.1 1 0 1.4 0 .4.1.9.2 1.3.5.5.3.8.6.9.9.1.3.1.6 0 1-.1.3-.4.6-.7 1-.3.3-.7.6-1.2.9l1.5.9-1.2.7-1.5-.9c-.8.4-1.6.7-2.5 1-.9.3-1.7.5-2.5.7l-.8-2c.4-.1.8-.2 1.3-.3.4-.1.8-.2 1.2-.4.5-.1.9-.3 1.3-.5l-1.1-.6c-.4.1-.8.3-1.2.4-.6.2-1.2.4-1.7.5-.5.1-1 .2-1.4.2-.4 0-.8 0-1.2-.1-.4-.1-.7-.2-1-.4-.4-.3-.7-.5-.9-.8-.2-.3-.2-.6-.1-.9.1-.3.3-.7.5-1 .3-.3.6-.6 1.1-1l-1.2-.7 1.2-.7 1.3.7c.4-.2.8-.3 1.1-.5.4-.1.8-.3 1.1-.4.4-.1.7-.2 1.1-.3.4-.1.7-.2 1-.3l.7 2Zm-4.1 1.9c.1.1.3.1.5.1s.4-.1.7-.1l-.9-.5c-.5.2-.6.4-.3.5Zm5.9 1c-.1-.1-.3-.1-.5-.1s-.5.1-.7.2l.9.5c.2-.2.4-.3.4-.4 0 0 0-.1-.1-.2Z" fill="#FF9E6E"/><path d="M84 69.2c-.3.1-.7.1-1.1.2-.3.1-.7.2-1 .3-.4.1-.7.2-1 .4l1.1.6c.1 0 .2-.1.4-.1.1 0 .3-.1.4-.1l1.8-.6c.6-.2 1.1-.3 1.6-.3.5-.1 1 0 1.4 0 .4.1.9.2 1.3.5.5.3.8.6.9.9.1.3.1.6 0 1-.1.3-.4.6-.7 1-.3.3-.7.6-1.2.9l1.5.9-1.2.7-1.5-.9c-.8.4-1.6.7-2.5 1-.9.3-1.7.5-2.5.7l-.8-2c.4-.1.8-.2 1.3-.3.4-.1.8-.2 1.2-.4.5-.1.9-.3 1.3-.5l-1.1-.6c-.4.1-.8.3-1.2.4-.6.2-1.2.4-1.7.5-.5.1-1 .2-1.4.2-.4 0-.8 0-1.2-.1-.4-.1-.7-.2-1-.4-.4-.3-.7-.5-.9-.8-.2-.3-.2-.6-.1-.9.1-.3.3-.7.5-1 .3-.3.6-.6 1.1-1l-1.2-.7 1.2-.7 1.3.7c.4-.2.8-.3 1.1-.5.4-.1.8-.3 1.1-.4.4-.1.7-.2 1.1-.3.4-.1.7-.2 1-.3l.7 2Zm-4.1 2c.1.1.3.1.5.1s.4-.1.7-.1l-.9-.5c-.5.1-.6.3-.3.5Zm5.9 1c-.1-.1-.3-.1-.5-.1s-.5.1-.7.2l.9.5c.2-.2.4-.3.4-.4 0-.1 0-.2-.1-.2Z" fill="#FFE585"/><defs><linearGradient id="K" x1="64.73" y1="106.402" x2="100.991" y2="106.402" gradientUnits="userSpaceOnUse"><stop stop-color="#FF9E6E"/><stop offset=".192" stop-color="#FFE585"/><stop offset=".303" stop-color="#FFE4A7"/><stop offset=".429" stop-color="#FFE585"/><stop offset=".566" stop-color="#FF9E6E"/><stop offset=".677" stop-color="#FFA16F"/><stop offset=".774" stop-color="#FFAC73"/><stop offset=".865" stop-color="#FFBE79"/><stop offset=".904" stop-color="#FFC87C"/><stop offset="1" stop-color="#FF9E6E"/></linearGradient><linearGradient id="a" x1="72" y1="0" x2="72" y2="129" gradientUnits="userSpaceOnUse"><stop stop-color="#21FFE4"/><stop offset="1" stop-color="#19EFD5"/></linearGradient><linearGradient id="c" x1="59.2" y1="82.1" x2="59.2" y2="104.7" gradientUnits="userSpaceOnUse"><stop stop-color="#21FFE4"/><stop offset="1" stop-color="#19EFD5"/></linearGradient><linearGradient id="d" x1="37.994" y1="94.842" x2="74.255" y2="94.842" gradientUnits="userSpaceOnUse"><stop stop-color="#FF9E6E"/><stop offset=".192" stop-color="#FFE585"/><stop offset=".303" stop-color="#FFE4A7"/><stop offset=".429" stop-color="#FFE585"/><stop offset=".566" stop-color="#FF9E6E"/><stop offset=".677" stop-color="#FFA16F"/><stop offset=".774" stop-color="#FFAC73"/><stop offset=".865" stop-color="#FFBE79"/><stop offset=".904" stop-color="#FFC87C"/><stop offset="1" stop-color="#FF9E6E"/></linearGradient><linearGradient id="e" x1="37.994" y1="96.941" x2="74.255" y2="96.941" gradientUnits="userSpaceOnUse"><stop stop-color="#FF9E6E"/><stop offset=".192" stop-color="#FFE585"/><stop offset=".303" stop-color="#FFE4A7"/><stop offset=".429" stop-color="#FFE585"/><stop offset=".566" stop-color="#FF9E6E"/><stop offset=".677" stop-color="#FFA16F"/><stop offset=".774" stop-color="#FFAC73"/><stop offset=".865" stop-color="#FFBE79"/><stop offset=".904" stop-color="#FFC87C"/><stop offset="1" stop-color="#FF9E6E"/></linearGradient><linearGradient id="f" x1="90.279" y1="52.623" x2="54.245" y2="88.888" gradientUnits="userSpaceOnUse"><stop offset=".035" stop-color="#FF9E6E"/><stop offset=".304" stop-color="#FFAD73"/><stop offset=".821" stop-color="#FFD680"/><stop offset="1" stop-color="#FFE585"/></linearGradient><linearGradient id="as" x1="97.78" y1="57.287" x2="70.843" y2="84.396" gradientUnits="userSpaceOnUse"><stop offset=".035" stop-color="#FF9E6E"/><stop offset=".304" stop-color="#FFAD73"/><stop offset=".821" stop-color="#FFD680"/><stop offset="1" stop-color="#FFE585"/></linearGradient><linearGradient id="h" x1="71.044" y1="71.981" x2="44.107" y2="99.09" gradientUnits="userSpaceOnUse"><stop offset=".035" stop-color="#FF9E6E"/><stop offset=".304" stop-color="#FFAD73"/><stop offset=".821" stop-color="#FFD680"/><stop offset="1" stop-color="#FFE585"/></linearGradient><linearGradient id="aq" x1="117.015" y1="37.93" x2="80.981" y2="74.194" gradientUnits="userSpaceOnUse"><stop offset=".035" stop-color="#FF9E6E"/><stop offset=".304" stop-color="#FFAD73"/><stop offset=".821" stop-color="#FFD680"/><stop offset="1" stop-color="#FFE585"/></linearGradient><linearGradient id="j" x1="76.002" y1="66.11" x2="50.582" y2="91.693" gradientUnits="userSpaceOnUse"><stop stop-color="#FF9E6E"/><stop offset=".192" stop-color="#FFE585"/><stop offset=".303" stop-color="#FFE4A7"/><stop offset=".429" stop-color="#FFE585"/><stop offset=".566" stop-color="#FF9E6E"/><stop offset=".677" stop-color="#FFA16F"/><stop offset=".774" stop-color="#FFAC73"/><stop offset=".865" stop-color="#FFBE79"/><stop offset=".904" stop-color="#FFC87C"/><stop offset="1" stop-color="#FF9E6E"/></linearGradient><linearGradient id="ap" x1="64.73" y1="82.247" x2="100.991" y2="82.247" gradientUnits="userSpaceOnUse"><stop stop-color="#FF9E6E"/><stop offset=".192" stop-color="#FFE585"/><stop offset=".303" stop-color="#FFE4A7"/><stop offset=".429" stop-color="#FFE585"/><stop offset=".566" stop-color="#FF9E6E"/><stop offset=".677" stop-color="#FFA16F"/><stop offset=".774" stop-color="#FFAC73"/><stop offset=".865" stop-color="#FFBE79"/><stop offset=".904" stop-color="#FFC87C"/><stop offset="1" stop-color="#FF9E6E"/></linearGradient><linearGradient id="l" x1="37.994" y1="88.673" x2="74.255" y2="88.673" gradientUnits="userSpaceOnUse"><stop stop-color="#FF9E6E"/><stop offset=".192" stop-color="#FFE585"/><stop offset=".303" stop-color="#FFE4A7"/><stop offset=".429" stop-color="#FFE585"/><stop offset=".566" stop-color="#FF9E6E"/><stop offset=".677" stop-color="#FFA16F"/><stop offset=".774" stop-color="#FFAC73"/><stop offset=".865" stop-color="#FFBE79"/><stop offset=".904" stop-color="#FFC87C"/><stop offset="1" stop-color="#FF9E6E"/></linearGradient><linearGradient id="m" x1="37.994" y1="90.772" x2="74.255" y2="90.772" gradientUnits="userSpaceOnUse"><stop stop-color="#FF9E6E"/><stop offset=".192" stop-color="#FFE585"/><stop offset=".303" stop-color="#FFE4A7"/><stop offset=".429" stop-color="#FFE585"/><stop offset=".566" stop-color="#FF9E6E"/><stop offset=".677" stop-color="#FFA16F"/><stop offset=".774" stop-color="#FFAC73"/><stop offset=".865" stop-color="#FFBE79"/><stop offset=".904" stop-color="#FFC87C"/><stop offset="1" stop-color="#FF9E6E"/></linearGradient><linearGradient id="n" x1="90.279" y1="46.455" x2="54.245" y2="82.719" gradientUnits="userSpaceOnUse"><stop offset=".035" stop-color="#FF9E6E"/><stop offset=".304" stop-color="#FFAD73"/><stop offset=".821" stop-color="#FFD680"/><stop offset="1" stop-color="#FFE585"/></linearGradient><linearGradient id="ao" x1="64.73" y1="80.148" x2="100.991" y2="80.148" gradientUnits="userSpaceOnUse"><stop stop-color="#FF9E6E"/><stop offset=".192" stop-color="#FFE585"/><stop offset=".303" stop-color="#FFE4A7"/><stop offset=".429" stop-color="#FFE585"/><stop offset=".566" stop-color="#FF9E6E"/><stop offset=".677" stop-color="#FFA16F"/><stop offset=".774" stop-color="#FFAC73"/><stop offset=".865" stop-color="#FFBE79"/><stop offset=".904" stop-color="#FFC87C"/><stop offset="1" stop-color="#FF9E6E"/></linearGradient><linearGradient id="p" x1="71.044" y1="65.812" x2="44.107" y2="92.921" gradientUnits="userSpaceOnUse"><stop offset=".035" stop-color="#FF9E6E"/><stop offset=".304" stop-color="#FFAD73"/><stop offset=".821" stop-color="#FFD680"/><stop offset="1" stop-color="#FFE585"/></linearGradient><linearGradient id="an" x1="102.738" y1="57.291" x2="77.317" y2="82.874" gradientUnits="userSpaceOnUse"><stop stop-color="#FF9E6E"/><stop offset=".192" stop-color="#FFE585"/><stop offset=".303" stop-color="#FFE4A7"/><stop offset=".429" stop-color="#FFE585"/><stop offset=".566" stop-color="#FF9E6E"/><stop offset=".677" stop-color="#FFA16F"/><stop offset=".774" stop-color="#FFAC73"/><stop offset=".865" stop-color="#FFBE79"/><stop offset=".904" stop-color="#FFC87C"/><stop offset="1" stop-color="#FF9E6E"/></linearGradient><linearGradient id="r" x1="76.002" y1="59.941" x2="50.582" y2="85.524" gradientUnits="userSpaceOnUse"><stop stop-color="#FF9E6E"/><stop offset=".192" stop-color="#FFE585"/><stop offset=".303" stop-color="#FFE4A7"/><stop offset=".429" stop-color="#FFE585"/><stop offset=".566" stop-color="#FF9E6E"/><stop offset=".677" stop-color="#FFA16F"/><stop offset=".774" stop-color="#FFAC73"/><stop offset=".865" stop-color="#FFBE79"/><stop offset=".904" stop-color="#FFC87C"/><stop offset="1" stop-color="#FF9E6E"/></linearGradient><linearGradient id="al" x1="97.78" y1="63.162" x2="70.843" y2="90.271" gradientUnits="userSpaceOnUse"><stop offset=".035" stop-color="#FF9E6E"/><stop offset=".304" stop-color="#FFAD73"/><stop offset=".821" stop-color="#FFD680"/><stop offset="1" stop-color="#FFE585"/></linearGradient><linearGradient id="t" x1="37.994" y1="82.504" x2="74.255" y2="82.504" gradientUnits="userSpaceOnUse"><stop stop-color="#FF9E6E"/><stop offset=".192" stop-color="#FFE585"/><stop offset=".303" stop-color="#FFE4A7"/><stop offset=".429" stop-color="#FFE585"/><stop offset=".566" stop-color="#FF9E6E"/><stop offset=".677" stop-color="#FFA16F"/><stop offset=".774" stop-color="#FFAC73"/><stop offset=".865" stop-color="#FFBE79"/><stop offset=".904" stop-color="#FFC87C"/><stop offset="1" stop-color="#FF9E6E"/></linearGradient><linearGradient id="u" x1="37.994" y1="84.603" x2="74.255" y2="84.603" gradientUnits="userSpaceOnUse"><stop stop-color="#FF9E6E"/><stop offset=".192" stop-color="#FFE585"/><stop offset=".303" stop-color="#FFE4A7"/><stop offset=".429" stop-color="#FFE585"/><stop offset=".566" stop-color="#FF9E6E"/><stop offset=".677" stop-color="#FFA16F"/><stop offset=".774" stop-color="#FFAC73"/><stop offset=".865" stop-color="#FFBE79"/><stop offset=".904" stop-color="#FFC87C"/><stop offset="1" stop-color="#FF9E6E"/></linearGradient><linearGradient id="v" x1="90.279" y1="40.286" x2="54.245" y2="76.55" gradientUnits="userSpaceOnUse"><stop offset=".035" stop-color="#FF9E6E"/><stop offset=".304" stop-color="#FFAD73"/><stop offset=".821" stop-color="#FFD680"/><stop offset="1" stop-color="#FFE585"/></linearGradient><linearGradient id="aj" x1="117.015" y1="43.805" x2="80.981" y2="80.069" gradientUnits="userSpaceOnUse"><stop offset=".035" stop-color="#FF9E6E"/><stop offset=".304" stop-color="#FFAD73"/><stop offset=".821" stop-color="#FFD680"/><stop offset="1" stop-color="#FFE585"/></linearGradient><linearGradient id="x" x1="71.044" y1="59.644" x2="44.107" y2="86.752" gradientUnits="userSpaceOnUse"><stop offset=".035" stop-color="#FF9E6E"/><stop offset=".304" stop-color="#FFAD73"/><stop offset=".821" stop-color="#FFD680"/><stop offset="1" stop-color="#FFE585"/></linearGradient><linearGradient id="ai" x1="64.73" y1="88.122" x2="100.991" y2="88.122" gradientUnits="userSpaceOnUse"><stop stop-color="#FF9E6E"/><stop offset=".192" stop-color="#FFE585"/><stop offset=".303" stop-color="#FFE4A7"/><stop offset=".429" stop-color="#FFE585"/><stop offset=".566" stop-color="#FF9E6E"/><stop offset=".677" stop-color="#FFA16F"/><stop offset=".774" stop-color="#FFAC73"/><stop offset=".865" stop-color="#FFBE79"/><stop offset=".904" stop-color="#FFC87C"/><stop offset="1" stop-color="#FF9E6E"/></linearGradient><linearGradient id="z" x1="76.002" y1="53.772" x2="50.582" y2="79.355" gradientUnits="userSpaceOnUse"><stop stop-color="#FF9E6E"/><stop offset=".192" stop-color="#FFE585"/><stop offset=".303" stop-color="#FFE4A7"/><stop offset=".429" stop-color="#FFE585"/><stop offset=".566" stop-color="#FF9E6E"/><stop offset=".677" stop-color="#FFA16F"/><stop offset=".774" stop-color="#FFAC73"/><stop offset=".865" stop-color="#FFBE79"/><stop offset=".904" stop-color="#FFC87C"/><stop offset="1" stop-color="#FF9E6E"/></linearGradient><linearGradient id="A" x1="85.9" y1="97.8" x2="85.9" y2="120.4" gradientUnits="userSpaceOnUse"><stop stop-color="#21FFE4"/><stop offset="1" stop-color="#19EFD5"/></linearGradient><linearGradient id="B" x1="64.73" y1="110.472" x2="100.991" y2="110.472" gradientUnits="userSpaceOnUse"><stop stop-color="#FF9E6E"/><stop offset=".192" stop-color="#FFE585"/><stop offset=".303" stop-color="#FFE4A7"/><stop offset=".429" stop-color="#FFE585"/><stop offset=".566" stop-color="#FF9E6E"/><stop offset=".677" stop-color="#FFA16F"/><stop offset=".774" stop-color="#FFAC73"/><stop offset=".865" stop-color="#FFBE79"/><stop offset=".904" stop-color="#FFC87C"/><stop offset="1" stop-color="#FF9E6E"/></linearGradient><linearGradient id="C" x1="64.73" y1="112.571" x2="100.991" y2="112.571" gradientUnits="userSpaceOnUse"><stop stop-color="#FF9E6E"/><stop offset=".192" stop-color="#FFE585"/><stop offset=".303" stop-color="#FFE4A7"/><stop offset=".429" stop-color="#FFE585"/><stop offset=".566" stop-color="#FF9E6E"/><stop offset=".677" stop-color="#FFA16F"/><stop offset=".774" stop-color="#FFAC73"/><stop offset=".865" stop-color="#FFBE79"/><stop offset=".904" stop-color="#FFC87C"/><stop offset="1" stop-color="#FF9E6E"/></linearGradient><linearGradient id="D" x1="117.015" y1="68.253" x2="80.981" y2="104.517" gradientUnits="userSpaceOnUse"><stop offset=".035" stop-color="#FF9E6E"/><stop offset=".304" stop-color="#FFAD73"/><stop offset=".821" stop-color="#FFD680"/><stop offset="1" stop-color="#FFE585"/></linearGradient><linearGradient id="ah" x1="64.73" y1="86.023" x2="100.991" y2="86.023" gradientUnits="userSpaceOnUse"><stop stop-color="#FF9E6E"/><stop offset=".192" stop-color="#FFE585"/><stop offset=".303" stop-color="#FFE4A7"/><stop offset=".429" stop-color="#FFE585"/><stop offset=".566" stop-color="#FF9E6E"/><stop offset=".677" stop-color="#FFA16F"/><stop offset=".774" stop-color="#FFAC73"/><stop offset=".865" stop-color="#FFBE79"/><stop offset=".904" stop-color="#FFC87C"/><stop offset="1" stop-color="#FF9E6E"/></linearGradient><linearGradient id="F" x1="97.78" y1="87.611" x2="70.843" y2="114.719" gradientUnits="userSpaceOnUse"><stop offset=".035" stop-color="#FF9E6E"/><stop offset=".304" stop-color="#FFAD73"/><stop offset=".821" stop-color="#FFD680"/><stop offset="1" stop-color="#FFE585"/></linearGradient><linearGradient id="af" x1="102.738" y1="63.209" x2="77.317" y2="88.791" gradientUnits="userSpaceOnUse"><stop stop-color="#FF9E6E"/><stop offset=".192" stop-color="#FFE585"/><stop offset=".303" stop-color="#FFE4A7"/><stop offset=".429" stop-color="#FFE585"/><stop offset=".566" stop-color="#FF9E6E"/><stop offset=".677" stop-color="#FFA16F"/><stop offset=".774" stop-color="#FFAC73"/><stop offset=".865" stop-color="#FFBE79"/><stop offset=".904" stop-color="#FFC87C"/><stop offset="1" stop-color="#FF9E6E"/></linearGradient><linearGradient id="H" x1="102.738" y1="81.74" x2="77.317" y2="107.322" gradientUnits="userSpaceOnUse"><stop stop-color="#FF9E6E"/><stop offset=".192" stop-color="#FFE585"/><stop offset=".303" stop-color="#FFE4A7"/><stop offset=".429" stop-color="#FFE585"/><stop offset=".566" stop-color="#FF9E6E"/><stop offset=".677" stop-color="#FFA16F"/><stop offset=".774" stop-color="#FFAC73"/><stop offset=".865" stop-color="#FFBE79"/><stop offset=".904" stop-color="#FFC87C"/><stop offset="1" stop-color="#FF9E6E"/></linearGradient><linearGradient id="ad" x1="97.78" y1="69.08" x2="70.843" y2="96.189" gradientUnits="userSpaceOnUse"><stop offset=".035" stop-color="#FF9E6E"/><stop offset=".304" stop-color="#FFAD73"/><stop offset=".821" stop-color="#FFD680"/><stop offset="1" stop-color="#FFE585"/></linearGradient><linearGradient id="J" x1="64.73" y1="104.303" x2="100.991" y2="104.303" gradientUnits="userSpaceOnUse"><stop stop-color="#FF9E6E"/><stop offset=".192" stop-color="#FFE585"/><stop offset=".303" stop-color="#FFE4A7"/><stop offset=".429" stop-color="#FFE585"/><stop offset=".566" stop-color="#FF9E6E"/><stop offset=".677" stop-color="#FFA16F"/><stop offset=".774" stop-color="#FFAC73"/><stop offset=".865" stop-color="#FFBE79"/><stop offset=".904" stop-color="#FFC87C"/><stop offset="1" stop-color="#FF9E6E"/></linearGradient><linearGradient id="b" x1="72.232" y1="101.231" x2="91.565" y2="1.23" gradientUnits="userSpaceOnUse"><stop offset=".096" stop-color="#45108A"/><stop offset="1" stop-color="#7C1DC9"/></linearGradient><linearGradient id="L" x1="117.015" y1="62.084" x2="80.981" y2="98.348" gradientUnits="userSpaceOnUse"><stop offset=".035" stop-color="#FF9E6E"/><stop offset=".304" stop-color="#FFAD73"/><stop offset=".821" stop-color="#FFD680"/><stop offset="1" stop-color="#FFE585"/></linearGradient><linearGradient id="ab" x1="117.015" y1="49.722" x2="80.981" y2="85.986" gradientUnits="userSpaceOnUse"><stop offset=".035" stop-color="#FF9E6E"/><stop offset=".304" stop-color="#FFAD73"/><stop offset=".821" stop-color="#FFD680"/><stop offset="1" stop-color="#FFE585"/></linearGradient><linearGradient id="N" x1="97.78" y1="81.442" x2="70.843" y2="108.55" gradientUnits="userSpaceOnUse"><stop offset=".035" stop-color="#FF9E6E"/><stop offset=".304" stop-color="#FFAD73"/><stop offset=".821" stop-color="#FFD680"/><stop offset="1" stop-color="#FFE585"/></linearGradient><linearGradient id="aa" x1="64.73" y1="94.04" x2="100.991" y2="94.04" gradientUnits="userSpaceOnUse"><stop stop-color="#FF9E6E"/><stop offset=".192" stop-color="#FFE585"/><stop offset=".303" stop-color="#FFE4A7"/><stop offset=".429" stop-color="#FFE585"/><stop offset=".566" stop-color="#FF9E6E"/><stop offset=".677" stop-color="#FFA16F"/><stop offset=".774" stop-color="#FFAC73"/><stop offset=".865" stop-color="#FFBE79"/><stop offset=".904" stop-color="#FFC87C"/><stop offset="1" stop-color="#FF9E6E"/></linearGradient><linearGradient id="P" x1="102.738" y1="75.571" x2="77.317" y2="101.153" gradientUnits="userSpaceOnUse"><stop stop-color="#FF9E6E"/><stop offset=".192" stop-color="#FFE585"/><stop offset=".303" stop-color="#FFE4A7"/><stop offset=".429" stop-color="#FFE585"/><stop offset=".566" stop-color="#FF9E6E"/><stop offset=".677" stop-color="#FFA16F"/><stop offset=".774" stop-color="#FFAC73"/><stop offset=".865" stop-color="#FFBE79"/><stop offset=".904" stop-color="#FFC87C"/><stop offset="1" stop-color="#FF9E6E"/></linearGradient><linearGradient id="Z" x1="64.73" y1="91.941" x2="100.991" y2="91.941" gradientUnits="userSpaceOnUse"><stop stop-color="#FF9E6E"/><stop offset=".192" stop-color="#FFE585"/><stop offset=".303" stop-color="#FFE4A7"/><stop offset=".429" stop-color="#FFE585"/><stop offset=".566" stop-color="#FF9E6E"/><stop offset=".677" stop-color="#FFA16F"/><stop offset=".774" stop-color="#FFAC73"/><stop offset=".865" stop-color="#FFBE79"/><stop offset=".904" stop-color="#FFC87C"/><stop offset="1" stop-color="#FF9E6E"/></linearGradient><linearGradient id="R" x1="64.73" y1="98.134" x2="100.991" y2="98.134" gradientUnits="userSpaceOnUse"><stop stop-color="#FF9E6E"/><stop offset=".192" stop-color="#FFE585"/><stop offset=".303" stop-color="#FFE4A7"/><stop offset=".429" stop-color="#FFE585"/><stop offset=".566" stop-color="#FF9E6E"/><stop offset=".677" stop-color="#FFA16F"/><stop offset=".774" stop-color="#FFAC73"/><stop offset=".865" stop-color="#FFBE79"/><stop offset=".904" stop-color="#FFC87C"/><stop offset="1" stop-color="#FF9E6E"/></linearGradient><linearGradient id="S" x1="64.73" y1="100.233" x2="100.991" y2="100.233" gradientUnits="userSpaceOnUse"><stop stop-color="#FF9E6E"/><stop offset=".192" stop-color="#FFE585"/><stop offset=".303" stop-color="#FFE4A7"/><stop offset=".429" stop-color="#FFE585"/><stop offset=".566" stop-color="#FF9E6E"/><stop offset=".677" stop-color="#FFA16F"/><stop offset=".774" stop-color="#FFAC73"/><stop offset=".865" stop-color="#FFBE79"/><stop offset=".904" stop-color="#FFC87C"/><stop offset="1" stop-color="#FF9E6E"/></linearGradient><linearGradient id="T" x1="117.015" y1="55.915" x2="80.981" y2="92.179" gradientUnits="userSpaceOnUse"><stop offset=".035" stop-color="#FF9E6E"/><stop offset=".304" stop-color="#FFAD73"/><stop offset=".821" stop-color="#FFD680"/><stop offset="1" stop-color="#FFE585"/></linearGradient><linearGradient id="X" x1="102.738" y1="69.402" x2="77.317" y2="94.984" gradientUnits="userSpaceOnUse"><stop stop-color="#FF9E6E"/><stop offset=".192" stop-color="#FFE585"/><stop offset=".303" stop-color="#FFE4A7"/><stop offset=".429" stop-color="#FFE585"/><stop offset=".566" stop-color="#FF9E6E"/><stop offset=".677" stop-color="#FFA16F"/><stop offset=".774" stop-color="#FFAC73"/><stop offset=".865" stop-color="#FFBE79"/><stop offset=".904" stop-color="#FFC87C"/><stop offset="1" stop-color="#FF9E6E"/></linearGradient><linearGradient id="V" x1="97.78" y1="75.273" x2="70.843" y2="102.381" gradientUnits="userSpaceOnUse"><stop offset=".035" stop-color="#FF9E6E"/><stop offset=".304" stop-color="#FFAD73"/><stop offset=".821" stop-color="#FFD680"/><stop offset="1" stop-color="#FFE585"/></linearGradient><linearGradient id="au" x1="102.738" y1="51.416" x2="77.317" y2="76.999" gradientUnits="userSpaceOnUse"><stop stop-color="#FF9E6E"/><stop offset=".192" stop-color="#FFE585"/><stop offset=".303" stop-color="#FFE4A7"/><stop offset=".429" stop-color="#FFE585"/><stop offset=".566" stop-color="#FF9E6E"/><stop offset=".677" stop-color="#FFA16F"/><stop offset=".774" stop-color="#FFAC73"/><stop offset=".865" stop-color="#FFBE79"/><stop offset=".904" stop-color="#FFC87C"/><stop offset="1" stop-color="#FF9E6E"/></linearGradient><radialGradient id="W" cx="0" cy="0" r="1" gradientUnits="userSpaceOnUse" gradientTransform="translate(89.46 81.384) scale(10.1856)"><stop stop-color="#fff"/><stop offset="1"/></radialGradient><radialGradient id="Y" cx="0" cy="0" r="1" gradientUnits="userSpaceOnUse" gradientTransform="matrix(1.26286 -3.71274 7.4944 2.54916 91.388 83.55)"><stop stop-color="#F49587"/><stop offset=".116" stop-color="#BD7368"/><stop offset=".236" stop-color="#8B554D"/><stop offset=".359" stop-color="#603B35"/><stop offset=".483" stop-color="#3E2622"/><stop offset=".609" stop-color="#231513"/><stop offset=".735" stop-color="#0F0908"/><stop offset=".864" stop-color="#040202"/><stop offset="1"/></radialGradient><radialGradient id="Q" cx="0" cy="0" r="1" gradientUnits="userSpaceOnUse" gradientTransform="rotate(-71.215 108.336 -18.948) scale(3.92163 7.91604)"><stop stop-color="#F49587"/><stop offset=".116" stop-color="#BD7368"/><stop offset=".236" stop-color="#8B554D"/><stop offset=".359" stop-color="#603B35"/><stop offset=".483" stop-color="#3E2622"/><stop offset=".609" stop-color="#231513"/><stop offset=".735" stop-color="#0F0908"/><stop offset=".864" stop-color="#040202"/><stop offset="1"/></radialGradient><radialGradient id="O" cx="0" cy="0" r="1" gradientUnits="userSpaceOnUse" gradientTransform="translate(89.46 87.553) scale(10.1856)"><stop stop-color="#fff"/><stop offset="1"/></radialGradient><radialGradient id="M" cx="0" cy="0" r="1" gradientUnits="userSpaceOnUse" gradientTransform="translate(75.058 104.23) scale(23.155)"><stop stop-color="#fff"/><stop offset="1"/></radialGradient><radialGradient id="ac" cx="0" cy="0" r="1" gradientUnits="userSpaceOnUse" gradientTransform="matrix(23.155 0 0 23.1549 75.058 91.868)"><stop stop-color="#fff"/><stop offset="1"/></radialGradient><radialGradient id="I" cx="0" cy="0" r="1" gradientUnits="userSpaceOnUse" gradientTransform="matrix(1.26286 -3.71274 7.4944 2.54916 91.388 95.888)"><stop stop-color="#F49587"/><stop offset=".116" stop-color="#BD7368"/><stop offset=".236" stop-color="#8B554D"/><stop offset=".359" stop-color="#603B35"/><stop offset=".483" stop-color="#3E2622"/><stop offset=".609" stop-color="#231513"/><stop offset=".735" stop-color="#0F0908"/><stop offset=".864" stop-color="#040202"/><stop offset="1"/></radialGradient><radialGradient id="ae" cx="0" cy="0" r="1" gradientUnits="userSpaceOnUse" gradientTransform="translate(89.46 75.191) scale(10.1856)"><stop stop-color="#fff"/><stop offset="1"/></radialGradient><radialGradient id="G" cx="0" cy="0" r="1" gradientUnits="userSpaceOnUse" gradientTransform="translate(89.46 93.722) scale(10.1856)"><stop stop-color="#fff"/><stop offset="1"/></radialGradient><radialGradient id="ag" cx="0" cy="0" r="1" gradientUnits="userSpaceOnUse" gradientTransform="rotate(-71.215 99.705 -25.129) scale(3.92164 7.91607)"><stop stop-color="#F49587"/><stop offset=".116" stop-color="#BD7368"/><stop offset=".236" stop-color="#8B554D"/><stop offset=".359" stop-color="#603B35"/><stop offset=".483" stop-color="#3E2622"/><stop offset=".609" stop-color="#231513"/><stop offset=".735" stop-color="#0F0908"/><stop offset=".864" stop-color="#040202"/><stop offset="1"/></radialGradient><radialGradient id="E" cx="0" cy="0" r="1" gradientUnits="userSpaceOnUse" gradientTransform="matrix(23.155 0 0 23.1549 75.058 110.399)"><stop stop-color="#fff"/><stop offset="1"/></radialGradient><radialGradient id="U" cx="0" cy="0" r="1" gradientUnits="userSpaceOnUse" gradientTransform="translate(75.058 98.06) scale(23.155)"><stop stop-color="#fff"/><stop offset="1"/></radialGradient><radialGradient id="w" cx="0" cy="0" r="1" gradientUnits="userSpaceOnUse" gradientTransform="translate(48.323 82.432) scale(23.1551)"><stop stop-color="#fff"/><stop offset="1"/></radialGradient><radialGradient id="ak" cx="0" cy="0" r="1" gradientUnits="userSpaceOnUse" gradientTransform="translate(75.058 85.95) scale(23.155)"><stop stop-color="#fff"/><stop offset="1"/></radialGradient><radialGradient id="s" cx="0" cy="0" r="1" gradientUnits="userSpaceOnUse" gradientTransform="rotate(-71.215 84.056 -8.096) scale(3.92166 7.9161)"><stop stop-color="#F49587"/><stop offset=".116" stop-color="#BD7368"/><stop offset=".236" stop-color="#8B554D"/><stop offset=".359" stop-color="#603B35"/><stop offset=".483" stop-color="#3E2622"/><stop offset=".609" stop-color="#231513"/><stop offset=".735" stop-color="#0F0908"/><stop offset=".864" stop-color="#040202"/><stop offset="1"/></radialGradient><radialGradient id="am" cx="0" cy="0" r="1" gradientUnits="userSpaceOnUse" gradientTransform="translate(89.46 69.274) scale(10.1856)"><stop stop-color="#fff"/><stop offset="1"/></radialGradient><radialGradient id="q" cx="0" cy="0" r="1" gradientUnits="userSpaceOnUse" gradientTransform="translate(62.724 71.924) scale(10.1856)"><stop stop-color="#fff"/><stop offset="1"/></radialGradient><radialGradient id="o" cx="0" cy="0" r="1" gradientUnits="userSpaceOnUse" gradientTransform="translate(48.323 88.6) scale(23.155)"><stop stop-color="#fff"/><stop offset="1"/></radialGradient><radialGradient id="k" cx="0" cy="0" r="1" gradientUnits="userSpaceOnUse" gradientTransform="rotate(-71.215 88.363 -5.011) scale(3.92166 7.9161)"><stop stop-color="#F49587"/><stop offset=".116" stop-color="#BD7368"/><stop offset=".236" stop-color="#8B554D"/><stop offset=".359" stop-color="#603B35"/><stop offset=".483" stop-color="#3E2622"/><stop offset=".609" stop-color="#231513"/><stop offset=".735" stop-color="#0F0908"/><stop offset=".864" stop-color="#040202"/><stop offset="1"/></radialGradient><radialGradient id="i" cx="0" cy="0" r="1" gradientUnits="userSpaceOnUse" gradientTransform="translate(62.724 78.093) scale(10.1856)"><stop stop-color="#fff"/><stop offset="1"/></radialGradient><radialGradient id="ar" cx="0" cy="0" r="1" gradientUnits="userSpaceOnUse" gradientTransform="translate(75.058 80.075) scale(23.155)"><stop stop-color="#fff"/><stop offset="1"/></radialGradient><radialGradient id="g" cx="0" cy="0" r="1" gradientUnits="userSpaceOnUse" gradientTransform="translate(48.323 94.77) scale(23.155)"><stop stop-color="#fff"/><stop offset="1"/></radialGradient><radialGradient id="at" cx="0" cy="0" r="1" gradientUnits="userSpaceOnUse" gradientTransform="translate(89.46 63.399) scale(10.1856)"><stop stop-color="#fff"/><stop offset="1"/></radialGradient><radialGradient id="y" cx="0" cy="0" r="1" gradientUnits="userSpaceOnUse" gradientTransform="translate(62.724 65.755) scale(10.1856)"><stop stop-color="#fff"/><stop offset="1"/></radialGradient></defs></svg>