<svg width="144" height="129" fill="none" xmlns="http://www.w3.org/2000/svg"><rect opacity=".2" width="144" height="129" rx="15" fill="url(#a)"/><g opacity=".2" fill="#777C9C"><path opacity=".091" d="m37.1 86.3 14.2-7.6c.1-.1 4.1-2.1 4.2-2.1l.9-.3c.7-.2 1.6-.3 2.3-.3.9 0 2 .3 2.6.7l22.1 12.7 1.2.7 23.3 13.4c.7.4 1.3 1.1 1.5 1.8.1.2.1.4.1.6.1 1.1-.6 2.1-1.8 2.8l-14.2 7.6c-.1.1-4.1 2.1-4.2 2.1l-.9.3c-.7.2-1.6.3-2.3.3-.9 0-2-.3-2.6-.7l-22.1-12.7-1.2-.7-23.3-13.4c-.7-.4-1.3-1.1-1.5-1.8-.1-.2-.1-.4-.1-.6 0-1.1.6-2.1 1.8-2.8Z"/><path opacity=".182" d="m37.3 86.5 14-7.5c.2-.1 4-2 4.2-2l.9-.3c.6-.2 1.6-.2 2.3-.2.8 0 2 .4 2.6.7l21.8 12.6 1.2.7 23 13.2c.6.4 1.3 1.1 1.5 1.7.1.2.1.4.1.6.1 1-.5 2-1.7 2.7l-14 7.5c-.2.1-4 2-4.2 2l-.9.3c-.6.2-1.6.2-2.3.2-.8 0-2-.4-2.6-.7l-21.8-12.6-1.2-.7-23-13.2c-.6-.4-1.3-1.1-1.5-1.7-.1-.2-.1-.4-.1-.6-.1-1 .5-2 1.7-2.7Z"/><path opacity=".273" d="m37.6 86.7 13.8-7.3c.3-.2 3.8-1.9 4.2-1.8.3-.1.6-.1.8-.2.6-.1 1.6 0 2.2 0 .7 0 2 .5 2.5.8l21.5 12.4 1.1.7 22.6 13.1c.6.3 1.3 1.1 1.5 1.6.1.2.1.4.2.6.2 1-.4 2-1.6 2.7l-13.8 7.3c-.3.2-3.8 1.9-4.2 1.8-.3.1-.6.1-.8.2-.6.1-1.6 0-2.2 0-.7 0-2-.5-2.5-.8l-21.4-12.6-1.1-.7-22.6-13.1c-.6-.3-1.3-1.1-1.5-1.6-.1-.2-.1-.4-.2-.6-.3-.8.3-1.8 1.5-2.5Z"/><path opacity=".364" d="m37.8 86.9 13.6-7.2c.4-.2 3.7-1.7 4.1-1.6.3-.1.6-.1.8-.1.5-.1 1.6.1 2.2.1.7 0 2 .6 2.4.8L82 91.1l1.1.6 22.3 12.9c.5.3 1.4 1.1 1.6 1.5.1.2.2.3.2.5.2 1-.3 2-1.5 2.6l-13.6 7.2c-.4.2-3.7 1.7-4.1 1.6-.3.1-.6.1-.8.1-.5.1-1.6-.1-2.2-.1-.7 0-2-.6-2.4-.8L61.5 105l-1.1-.6-22.3-12.9c-.5-.3-1.4-1.1-1.6-1.5-.1-.2-.2-.3-.2-.5-.2-1 .3-2 1.5-2.6Z"/><path opacity=".455" d="m38.1 87 13.4-7.1c.5-.3 3.6-1.6 4.1-1.5.3-.1.6 0 .8-.1.4-.1 1.7.2 2.1.2.6 0 2 .7 2.4.9l20.8 12 1.1.6 21.9 12.7c.4.2 1.5 1.1 1.6 1.5.1.2.2.3.3.5.3.9-.2 1.9-1.4 2.6l-13.4 7.1c-.5.3-3.6 1.6-4.1 1.5-.3.1-.6 0-.8.1-.4.1-1.7-.2-2.1-.2-.6 0-2-.7-2.4-.9l-20.8-12-1.1-.6-21.9-12.7c-.4-.2-1.5-1.1-1.6-1.5-.1-.2-.2-.3-.3-.5-.3-.9.2-1.9 1.4-2.6Z"/><path opacity=".545" d="m38.3 87.2 13.2-6.9c.6-.4 3.4-1.5 4.1-1.3h.8c.3-.1 1.7.4 2.1.4.5 0 2 .7 2.3.9l20.5 11.8 1.1.6 21.5 12.5c.3.2 1.5 1 1.6 1.4.1.2.2.3.3.5.4.9-.1 1.9-1.3 2.6l-13.2 6.9c-.6.4-3.4 1.5-4.1 1.3h-.8c-.3.1-1.7-.4-2.1-.4-.5 0-2-.7-2.3-.9l-20.5-11.8-1.1-.6-21.5-12.6c-.3-.2-1.5-1-1.6-1.4-.1-.2-.2-.3-.3-.5-.3-.8.1-1.8 1.3-2.5Z"/><path opacity=".636" d="m38.5 87.4 13-6.8c.7-.4 3.3-1.4 4-1.1.3 0 .6 0 .8.1.3-.1 1.7.5 2 .5.4 0 2 .8 2.3 1l20.1 11.7 1.1.6 21.2 12.3c.3.2 1.6 1 1.6 1.3.1.1.2.3.3.5.4.8 0 1.8-1.2 2.5l-13 6.8c-.7.4-3.3 1.4-4 1.1-.3 0-.6 0-.8-.1-.3.1-1.7-.5-2-.5-.4 0-2-.8-2.3-1l-20.1-11.7-1.1-.6-21.2-12.3c-.3-.2-1.6-1-1.6-1.3-.1-.1-.2-.3-.3-.5-.4-.9.1-1.9 1.2-2.5Z"/><path opacity=".727" d="m38.8 87.5 12.8-6.7c.8-.5 3.1-1.2 4-1 .3 0 .6.1.8.1.2-.1 1.7.6 1.9.6.3 0 2 .9 2.2 1L80.3 93l1 .6 20.9 12.1c.2.1 1.6 1 1.7 1.2l.4.4c.5.8.1 1.8-1.1 2.5l-12.8 6.7c-.8.5-3.1 1.2-4 1-.3 0-.6-.1-.8-.1-.2.1-1.7-.6-1.9-.6-.3 0-2-.9-2.2-1l-19.8-11.5-1-.6-20.9-12.1c-.2-.1-1.6-1-1.7-1.2l-.4-.4c-.5-.8-.1-1.8 1.1-2.5Z"/><path opacity=".818" d="m39 87.7 12.6-6.5c.9-.5 3-1.1 4-.8.3 0 .5.1.8.2.1-.1 1.7.8 1.9.8.2 0 2 1 2.1 1.1l19.5 11.1 1 .6 20.6 11.9c.1.1 1.6 1 1.7 1.2.2.1.3.3.4.4.5.8.2 1.8-1 2.4L90 116.6c-.9.5-3 1.1-4 .8-.3 0-.5-.1-.8-.2-.1.1-1.7-.8-1.9-.8-.2 0-2-1-2.1-1.1l-19.5-11.1-1-.6-20.6-11.9c-.1-.1-1.6-1-1.7-1.2-.2-.1-.3-.3-.4-.4-.5-.7-.2-1.7 1-2.4Z"/><path opacity=".909" d="m39.3 87.9 12.4-6.4c1-.6 2.9-1 4-.7.3.1.5.1.8.2.1 0 1.7.9 1.8.9.1 0 2 1.1 2.1 1.1l19 11.2 1 .6 20.2 11.7c.1 0 1.7 1 1.7 1.1.2.1.3.2.4.4.6.7.3 1.7-.9 2.4l-12.4 6.4c-1 .6-2.9 1-4 .7-.3-.1-.5-.1-.8-.2-.1 0-1.7-.9-1.8-.9-.1 0-2-1.1-2.1-1.1l-19.1-11.1-1-.6-20.2-11.7c-.1 0-1.7-1-1.7-1.1-.2-.1-.3-.2-.4-.4-.5-.9-.2-1.9 1-2.5Z"/><path d="m84.3 117-22.6-13.1-22.6-13.1c-1.2-.7-1.1-1.9.3-2.7l12.2-6.3c1.4-.8 3.5-.9 4.7-.2l22.6 13.1 22.6 13.1c1.2.7 1.1 1.9-.3 2.7L89 116.8c-1.4.8-3.5.9-4.7.2Z"/></g><path d="m38.8 16 8.7-3 3.2-4 4.2 71-16.6-31.7.5-32.3Z" fill="url(#b)"/><path d="M103.6 108.1 54.9 80 50.7 9l48.7 28.1 4.2 71Z" fill="url(#c)"/><path d="m85.4 96.3.3 22.3 17.9-10.5-18.2-11.8Z" fill="url(#d)"/><path d="m87.5 44.1 4-5 7.9-2 4.2 71-18-11.5 1.9-52.5Z" fill="url(#e)"/><path d="M85.7 118.6 37 90.5 38.8 16l48.7 28.1-1.8 74.5Z" fill="url(#f)"/><path opacity=".5" d="m85.8 105.2-48.3-28-.1 2.8 48.7 28.2-.3-3Z" fill="#E5E9FF"/><path d="M56.8 37.1c0 1.1-.8 1.6-1.8 1-1-.6-1.8-1.9-1.8-3s.8-1.6 1.8-1c1.1.6 1.8 1.9 1.8 3Z" fill="url(#g)"/><path d="M74.5 47.2c0 1.1-.8 1.6-1.8 1-1-.6-1.8-1.9-1.8-3s.8-1.6 1.8-1c1 .5 1.8 1.9 1.8 3Z" fill="url(#h)"/><path d="M55.9 37.5c-1-.6-1.8-1.9-1.8-3 0-.2 0-.4.1-.5-.5 0-.9.5-.9 1.2 0 1.1.8 2.5 1.8 3 .8.5 1.5.2 1.7-.5-.3 0-.6-.1-.9-.2ZM73.5 47.5c-1-.6-1.8-1.9-1.8-3 0-.2 0-.4.1-.5-.5 0-.9.5-.9 1.2 0 1.1.8 2.5 1.8 3 .8.5 1.5.2 1.7-.5-.2 0-.5 0-.9-.2Z" fill="#CED3F4"/><path d="M64.2 26.3c0 1.1-.8 1.6-1.8 1-1-.6-1.8-1.9-1.8-3s.8-1.6 1.8-1c1 .5 1.8 1.9 1.8 3ZM81.9 36.3c0 1.1-.8 1.6-1.8 1-1-.6-1.8-1.9-1.8-3s.8-1.6 1.8-1c1 .5 1.8 1.9 1.8 3Z" fill="#fff"/><path d="M63.2 26.6c-1-.6-1.8-1.9-1.8-3 0-.2 0-.4.1-.5-.5 0-.9.5-.9 1.2 0 1.1.8 2.5 1.8 3 .8.5 1.5.2 1.7-.5-.3 0-.5 0-.9-.2Z" fill="url(#i)"/><path d="M80.9 36.6c-1-.6-1.8-1.9-1.8-3 0-.2 0-.4.1-.5-.5 0-.9.5-.9 1.2 0 1.1.8 2.5 1.8 3 .8.5 1.5.2 1.7-.5-.3.1-.6 0-.9-.2Z" fill="url(#j)"/><path d="M61.6 27.6v-2.5c0-.5.4-.9.9-.9s.9.4.9.9v3.5l-1.8-1ZM79.1 37.5v-2.6c0-.5.4-.9.9-.9s.9.4.9.9v3.5l-1.8-.9Z" fill="#EBEEFF"/><path d="m103 97.6-1.1-17.3-3.6-5.4L69.1 58v24.5l29.2 16.9 4.7-1.8Z" fill="#E5E9FF"/><path d="M96.8 100 67.7 83.1V58.6l29.1 16.8L110 94.9 96.8 100Z" fill="url(#k)"/><path d="m96.5 75.9 13 19.2.5-.2-13.2-19.5-29.1-16.8v.6l28.8 16.7Z" fill="url(#l)"/><path d="M78.7 76.5c-.6-.9-.9-1.8-.9-2.8v-2.2c.1-1 .3-1.6.9-1.9.5-.3 1.3-.1 2.2.4 1 .6 1.7 1.3 2.3 2.2.5.9.8 1.8.9 2.9v2.3c-.1.9-.4 1.5-.9 1.8-.6.2-1.3.1-2.2-.4-1-.7-1.7-1.4-2.3-2.3Zm.2 9.2c-.1-.1-.1-.3-.1-.4 0-.1 0-.2.1-.2l10.3-9.7c.1-.1.2-.2.3-.2.1 0 .2 0 .4.1l1.1.6.3.3c.1.1.1.3.1.4 0 .1 0 .2-.1.2L81 86.5c-.1.1-.2.2-.3.2-.1 0-.2 0-.4-.1l-1.1-.6c-.1 0-.2-.1-.3-.3Zm2.9-8.7c.2-.2.3-.4.3-.8v-2c0-.4-.1-.8-.3-1.2-.2-.4-.5-.7-.9-.9-.4-.2-.7-.3-.9-.1-.2.2-.3.5-.3.9v2c0 .4.1.8.3 1.2.2.4.5.7.9.9.5.1.8.1.9 0Zm5.3 12.9c-.6-.9-.9-1.9-.9-2.9v-2.2c.1-1 .4-1.6.9-1.9.5-.3 1.3-.1 2.2.4 1 .6 1.7 1.3 2.3 2.2.5.9.8 1.8.9 2.9v2.3c-.1.9-.4 1.6-.9 1.8-.6.3-1.3.1-2.2-.4-1-.6-1.7-1.3-2.3-2.2Zm3.2.4c.2-.2.3-.5.3-.8v-2c0-.4-.1-.8-.3-1.2-.2-.4-.5-.7-.9-.9-.4-.2-.7-.3-.9-.1-.2.2-.3.5-.3.9v2c0 .4.1.8.3 1.2.2.4.5.7.9.9.4.1.7.1.9 0Z" fill="#fff"/><path d="M66.1 67.4c-1.4 0-2.9-.4-4.1-1.2-4.7-3-7.4-8.2-7.4-13.7V38.6c0-.5.4-.9.9-.9s.9.4.9.9v13.9c0 5 2.5 9.6 6.7 12.3 1.8 1.2 4.1 1.3 6 .2 1.9-1 3.1-3 3.1-5.2V48.4c0-.5.4-.9.9-.9s.9.4.9.9v11.4c0 2.8-1.5 5.3-4 6.7-1.4.6-2.6.9-3.9.9Z" fill="#E5E9FF"/><path d="M65.8 64.9c-1.4 0-2.9-.4-4.1-1.2-4.7-3-7.4-8.2-7.4-13.7V36c0-.5.4-.9.9-.9s.9.4.9.9v13.9c0 5 2.5 9.6 6.7 12.3 1.8 1.2 4.1 1.3 6 .2 1.9-1 3.1-3 3.1-5.2V45.8c0-.5.4-.9.9-.9s.9.4.9.9v11.4c0 2.8-1.5 5.3-4 6.7-1.4.6-2.7 1-3.9 1Z" fill="#EBEEFF"/><defs><linearGradient id="g" x1="57.573" y1="30.666" x2="59.794" y2="25.807" gradientUnits="userSpaceOnUse"><stop stop-color="#AFB6E5"/><stop offset=".306" stop-color="#BEC4EC"/><stop offset=".55" stop-color="#CED3F4"/><stop offset="1" stop-color="#E5E9FF"/></linearGradient><linearGradient id="a" x1="72" y1="0" x2="72" y2="129" gradientUnits="userSpaceOnUse"><stop stop-color="#21FFE4"/><stop offset="1" stop-color="#19EFD5"/></linearGradient><linearGradient id="c" x1="71.457" y1="67.058" x2="119.779" y2="-5.138" gradientUnits="userSpaceOnUse"><stop stop-color="#AFB6E5"/><stop offset=".306" stop-color="#BEC4EC"/><stop offset=".55" stop-color="#CED3F4"/><stop offset="1" stop-color="#E5E9FF"/></linearGradient><linearGradient id="d" x1="74.619" y1="95.433" x2="95.475" y2="114.139" gradientUnits="userSpaceOnUse"><stop stop-color="#3863F5"/><stop offset=".088" stop-color="#3D6EF5"/><stop offset=".499" stop-color="#509BF3"/><stop offset=".817" stop-color="#5CB7F2"/><stop offset="1" stop-color="#61C2F2"/></linearGradient><linearGradient id="e" x1="81.047" y1="62.187" x2="135.295" y2="89.938" gradientUnits="userSpaceOnUse"><stop stop-color="#3863F5"/><stop offset=".088" stop-color="#3D6EF5"/><stop offset=".499" stop-color="#509BF3"/><stop offset=".817" stop-color="#5CB7F2"/><stop offset="1" stop-color="#61C2F2"/></linearGradient><linearGradient id="f" x1="148.609" y1="31.242" x2="23.488" y2="83.453" gradientUnits="userSpaceOnUse"><stop stop-color="#3863F5"/><stop offset=".088" stop-color="#3D6EF5"/><stop offset=".499" stop-color="#509BF3"/><stop offset=".817" stop-color="#5CB7F2"/><stop offset="1" stop-color="#61C2F2"/></linearGradient><linearGradient id="b" x1="49.95" y1="44.418" x2="78.725" y2="45.492" gradientUnits="userSpaceOnUse"><stop stop-color="#AFB6E5"/><stop offset=".306" stop-color="#BEC4EC"/><stop offset=".55" stop-color="#CED3F4"/><stop offset="1" stop-color="#E5E9FF"/></linearGradient><linearGradient id="h" x1="75.979" y1="39.081" x2="78.201" y2="34.221" gradientUnits="userSpaceOnUse"><stop stop-color="#AFB6E5"/><stop offset=".306" stop-color="#BEC4EC"/><stop offset=".55" stop-color="#CED3F4"/><stop offset="1" stop-color="#E5E9FF"/></linearGradient><linearGradient id="i" x1="65.388" y1="21.995" x2="69.623" y2="17.343" gradientUnits="userSpaceOnUse"><stop stop-color="#AFB6E5"/><stop offset=".306" stop-color="#BEC4EC"/><stop offset=".55" stop-color="#CED3F4"/><stop offset="1" stop-color="#E5E9FF"/></linearGradient><linearGradient id="j" x1="80.042" y1="35.337" x2="84.277" y2="30.686" gradientUnits="userSpaceOnUse"><stop stop-color="#AFB6E5"/><stop offset=".306" stop-color="#BEC4EC"/><stop offset=".55" stop-color="#CED3F4"/><stop offset="1" stop-color="#E5E9FF"/></linearGradient><linearGradient id="k" x1="79.789" y1="93.691" x2="102.141" y2="51.852" gradientUnits="userSpaceOnUse"><stop offset=".096" stop-color="#45108A"/><stop offset="1" stop-color="#7C1DC9"/></linearGradient><radialGradient id="l" cx="0" cy="0" r="1" gradientUnits="userSpaceOnUse" gradientTransform="translate(88.843 76.832) scale(19.7521)"><stop stop-color="#fff"/><stop offset="1"/></radialGradient></defs></svg>