<svg width="144" height="129" fill="none" xmlns="http://www.w3.org/2000/svg"><rect opacity=".2" width="144" height="129" rx="15" fill="url(#a)"/><path d="M108.8 114.003c1.1 2 .3 4.6-1.7 5.6-2 1.1-4.6.3-5.6-1.7-1.1-2-.3-4.6 1.7-5.6 2-1.1 4.5-.4 5.6 1.7Z" fill="#35004D"/><path d="m92.3 81.703-9 4.9 16.8 30.9c.8 1.5 3.4 1.5 5.9.2 2.5-1.3 3.9-3.6 3.1-5.1l-16.8-30.9Z" fill="url(#b)"/><path d="M92.3 81.703c.8 1.5-.6 3.7-3.1 5.1-2.5 1.4-5.1 1.3-5.9-.2-.8-1.5.6-3.7 3.1-5.1 2.5-1.3 5.1-1.2 5.9.2Z" fill="url(#c)"/><path d="m87 76.303-5.4 2.9 3.2 5.8c.5.9 2 .9 3.5.1s2.3-2.1 1.8-3l-3.1-5.8Z" fill="url(#d)"/><path d="m76.52 63.869 7.12-3.968 26.842-22.291-7.119 3.968-26.843 22.29Z" fill="#00719E"/><path d="m25.403 66.203 7.003-3.968 29.643-21.357-7.002 4.084-29.644 21.24Z" fill="#1F45CC"/><path d="m55.397 33.525 7.119-4.085 21.24 18.79-7.002 4.085-21.358-18.79Z" fill="url(#e)"/><path d="m92.042 30.024 7.002-3.968 27.893-8.753-7.119 3.968-27.776 8.753Z" fill="#00E0DE"/><path d="m108.381 46.713 7.119-3.968 11.437-25.442-7.119 3.968-11.437 25.442Z" fill="#00849E"/><path d="m92.042 30.024 5.019 5.135.116.117-20.423 17.039-21.358-18.79L17 61.185l8.403 5.018 29.643-21.24L76.52 63.984l26.959-22.29 4.902 5.018 11.437-25.442-27.776 8.753Z" fill="url(#f)"/><path d="m119.585 21.738 6.885-4.202-7.119 3.968-27.309 8.52.467.583 27.076-8.87Z" fill="url(#g)"/><path d="m55.396 34.225 21.358 18.79 20.423-17.04-.116-.116-.234-.233-20.073 16.689-21.358-18.79L17 61.185l.584.35 37.812-27.31Z" fill="url(#h)"/><mask id="i" style="mask-type:luminance" maskUnits="userSpaceOnUse" x="41" y="17" width="49" height="63"><path d="M82.684 78.043c9.44-5.52 9.366-23.212-.167-39.518S57.603 13.474 48.163 18.993c-9.44 5.519-9.365 23.212.168 39.518 9.532 16.306 24.913 25.05 34.353 19.532Z" fill="#fff"/></mask><g mask="url(#i)"><path d="M93.3 13.603h-56v75.5h56v-75.5Z" fill="#fff"/></g><mask id="j" style="mask-type:luminance" maskUnits="userSpaceOnUse" x="41" y="17" width="49" height="63"><path d="M82.684 78.043c9.44-5.52 9.366-23.212-.167-39.518S57.603 13.474 48.163 18.993c-9.44 5.519-9.365 23.212.168 39.518 9.532 16.306 24.913 25.05 34.353 19.532Z" fill="#fff"/></mask><g mask="url(#j)"><path d="m76.4 66.603 7.6-4.3 35-29-7.6 4.3-35 29Z" fill="#006D9C"/><path d="m21.5 69.103 7.6-4.3 31.8-22.8-7.6 4.3-31.8 22.8Z" fill="#1F45CC"/><path d="m53.8 34.103 7.6-4.4 22.8 20.2-7.6 4.3-22.8-20.1Z" fill="url(#k)"/><path d="m99.2 25.203 5.4 5.5.2.2-28.2 23.3-22.8-20.1-41.2 29.7 8.9 5.3 31.8-22.8 23.1 20.4 35-29 .1.1 5.3 5.3 12.2-27.2-29.8 9.3Z" fill="url(#l)"/><path d="m53.8 34.803 22.8 20.1 28.2-23.3-.2-.2-.2-.2-27.8 23-22.8-20.1-41.2 29.7.5.3 40.7-29.3Z" fill="url(#m)"/></g><path d="M69 75.903c-14.2-8.2-25.7-28-25.7-44.3 0-6.5 1.9-11.5 5-14.6-6 1.9-9.8 8.1-9.8 17.5 0 16.3 11.5 36.1 25.7 44.3 8.5 4.9 16 4.5 20.7-.1-4.4 1.5-9.9.6-15.9-2.8Z" fill="url(#n)"/><path opacity=".5" d="M65.4 20.603c-13.4-7.7-24.3-1.5-24.3 13.8s10.9 34.1 24.3 41.9c13.4 7.7 24.3 1.5 24.3-13.8 0-15.4-10.8-34.1-24.3-41.9Z" fill="url(#o)" fill-opacity=".5"/><path d="M65.4 20.603c-13.4-7.7-24.3-1.5-24.3 13.8s10.9 34.1 24.3 41.9c13.4 7.7 24.3 1.5 24.3-13.8 0-15.4-10.8-34.1-24.3-41.9Z" fill="url(#p)" fill-opacity=".7"/><path d="M69.7 16.803c-7-4-13.3-4.5-17.9-2-.1.1-6.8 3.8-7 4.1 4.7-3.5 11.7-3.5 19.4 1 14.2 8.2 25.7 28 25.7 44.3 0 8.3-3 14.1-7.8 16.6.3-.1.8-.3 1.3-.6.1-.1 4.7-2.8 4.8-2.9 4.5-2.7 7.2-8.3 7.2-16.3-.1-16.2-11.6-36-25.7-44.2Z" fill="url(#q)"/><path d="M64.2 19.903c-14.2-8.2-25.7-1.6-25.7 14.6s11.5 36.1 25.7 44.3c14.2 8.2 25.7 1.6 25.7-14.6 0-16.3-11.5-36.1-25.7-44.3Zm-.2 56.9c-13.1-7.6-23.7-25.8-23.7-40.9 0-15 10.6-21.1 23.7-13.5 13.1 7.6 23.7 25.8 23.7 40.9 0 15.1-10.6 21.1-23.7 13.5Z" fill="url(#r)" fill-opacity=".4"/><defs><linearGradient id="k" x1="88.382" y1="61.259" x2="43.442" y2="16.587" gradientUnits="userSpaceOnUse"><stop offset=".01" stop-color="#29FFFD"/><stop offset=".675" stop-color="#69A9F3"/><stop offset="1" stop-color="#8484EF"/></linearGradient><linearGradient id="a" x1="72" y1="0" x2="72" y2="129" gradientUnits="userSpaceOnUse"><stop stop-color="#21FFE4"/><stop offset="1" stop-color="#19EFD5"/></linearGradient><linearGradient id="c" x1="89.545" y1="76.976" x2="86.954" y2="87.62" gradientUnits="userSpaceOnUse"><stop stop-color="#3B3ABA"/><stop offset=".167" stop-color="#3F34BF"/><stop offset=".571" stop-color="#4528C9"/><stop offset=".594" stop-color="#472BCB"/><stop offset=".852" stop-color="#5A47DC"/><stop offset="1" stop-color="#6152E3"/></linearGradient><linearGradient id="d" x1="83.673" y1="82.951" x2="88.996" y2="80.083" gradientUnits="userSpaceOnUse"><stop stop-color="#B9BFEA"/><stop offset=".106" stop-color="#E5E9FF"/><stop offset=".172" stop-color="#fff"/><stop offset=".404" stop-color="#DFE3FC"/><stop offset=".702" stop-color="#AFB6E5"/><stop offset=".946" stop-color="#BAC0EA"/><stop offset="1" stop-color="#BDC3EC"/></linearGradient><linearGradient id="e" x1="87.724" y1="58.876" x2="45.809" y2="17.211" gradientUnits="userSpaceOnUse"><stop offset=".106" stop-color="#84EFA9"/><stop offset=".136" stop-color="#80F0AD"/><stop offset=".493" stop-color="#51F8D8"/><stop offset=".768" stop-color="#34FDF3"/><stop offset=".924" stop-color="#29FFFD"/></linearGradient><linearGradient id="f" x1="122.774" y1="28.863" x2="17.353" y2="65.749" gradientUnits="userSpaceOnUse"><stop stop-color="#00C7C5"/><stop offset=".386" stop-color="#2D9BE0"/><stop offset=".737" stop-color="#5277F7"/><stop offset=".78" stop-color="#5B76F7"/><stop offset=".85" stop-color="#7374F6"/><stop offset=".936" stop-color="#9A70F4"/><stop offset="1" stop-color="#BB6DF3"/></linearGradient><linearGradient id="q" x1="58.555" y1="12.562" x2="90.961" y2="74.591" gradientUnits="userSpaceOnUse"><stop stop-color="#9DA6EA"/><stop offset=".106" stop-color="#E5E9FF"/><stop offset=".172" stop-color="#fff"/><stop offset=".404" stop-color="#DFE3FC"/><stop offset=".702" stop-color="#AFB6E5"/><stop offset=".946" stop-color="#BAC0EA"/><stop offset="1" stop-color="#BDC3EC"/></linearGradient><linearGradient id="n" x1="44.445" y1="21.074" x2="71.147" y2="82.9" gradientUnits="userSpaceOnUse"><stop stop-color="#9DA6EA"/><stop offset=".106" stop-color="#E5E9FF"/><stop offset=".404" stop-color="#DFE3FC"/><stop offset=".702" stop-color="#AFB6E5"/><stop offset=".946" stop-color="#BAC0EA"/><stop offset="1" stop-color="#BDC3EC"/></linearGradient><linearGradient id="b" x1="92.381" y1="103.334" x2="101.37" y2="98.49" gradientUnits="userSpaceOnUse"><stop stop-color="#3B3ABA"/><stop offset=".143" stop-color="#564BD7"/><stop offset=".227" stop-color="#6152E3"/><stop offset=".399" stop-color="#4528C9"/><stop offset=".483" stop-color="#4221A9"/><stop offset=".574" stop-color="#401B8D"/><stop offset=".626" stop-color="#3F1982"/><stop offset=".869" stop-color="#5E239E"/><stop offset="1" stop-color="#491C8B"/></linearGradient><linearGradient id="l" x1="133.111" y1="26.579" x2="12.854" y2="68.656" gradientUnits="userSpaceOnUse"><stop stop-color="#00C7C5"/><stop offset=".343" stop-color="#2D9BE0"/><stop offset=".657" stop-color="#5277F7"/><stop offset=".712" stop-color="#5B76F7"/><stop offset=".803" stop-color="#7374F6"/><stop offset=".917" stop-color="#9A70F4"/><stop offset="1" stop-color="#BB6DF3"/></linearGradient><linearGradient id="r" x1="41.875" y1="56.567" x2="75.745" y2="45.635" gradientUnits="userSpaceOnUse"><stop stop-color="#AFB6E5"/><stop offset=".145" stop-color="#B6BCE8"/><stop offset=".348" stop-color="#C8CDF1"/><stop offset=".581" stop-color="#E5E9FF"/><stop offset=".955" stop-color="#F5F4FC"/><stop offset="1" stop-color="#F7F6FB"/></linearGradient><radialGradient id="m" cx="0" cy="0" r="1" gradientUnits="userSpaceOnUse" gradientTransform="translate(54.96 54.313) scale(34.466)"><stop stop-color="#fff"/><stop offset="1"/></radialGradient><radialGradient id="h" cx="0" cy="0" r="1" gradientUnits="userSpaceOnUse" gradientTransform="translate(53.89 53.196) scale(29.9574)"><stop stop-color="#fff"/><stop offset="1"/></radialGradient><radialGradient id="o" cx="0" cy="0" r="1" gradientUnits="userSpaceOnUse" gradientTransform="translate(60.637 40.074) scale(34.7777)"><stop offset=".005" stop-color="#6CF"/><stop offset="1" stop-color="#5277F7"/></radialGradient><radialGradient id="p" cx="0" cy="0" r="1" gradientUnits="userSpaceOnUse" gradientTransform="translate(60.505 40.339) scale(34.7778)"><stop offset=".485" stop-color="#fff"/><stop offset="1" stop-color="#AFB6E5"/></radialGradient><radialGradient id="g" cx="0" cy="0" r="1" gradientUnits="userSpaceOnUse" gradientTransform="translate(118.208 6.744) scale(27.894)"><stop stop-color="#fff"/><stop offset="1"/></radialGradient></defs></svg>