<svg width="144" height="129" fill="none" xmlns="http://www.w3.org/2000/svg"><rect opacity=".2" width="144" height="129" rx="15" fill="url(#a)"/><path opacity=".5" d="M71.3 118c13.862 0 25.1-6.089 25.1-13.6 0-7.511-11.238-13.6-25.1-13.6-13.862 0-25.1 6.089-25.1 13.6 0 7.511 11.238 13.6 25.1 13.6Z" fill="url(#b)"/><path d="M86.5 83.1 99.6 90v-8.8c0-1.2-.2-2.3-.7-3.2l-5.7-10.7c-1.2-2.3-3.8-2.7-6.7-1v16.8Z" fill="url(#c)"/><path d="m57 83.1-13 7v-8.8c0-1.2.2-2.3.7-3.2l5.6-10.7c1.2-2.3 3.8-2.7 6.7-1.1v16.8Z" fill="url(#d)"/><path d="M78 102.5H65.6v1.8c0 2 2.8 3.6 6.2 3.6 3.4 0 6.2-1.6 6.2-3.6v-1.8Z" fill="url(#e)"/><path d="M86.6 87H56.9v8.9c0 4.8 6.7 8.6 14.9 8.6s14.8-3.9 14.8-8.7V87Z" fill="url(#f)"/><path opacity=".5" d="M86.6 87.3H56.9v7.1c0 3.8 6.7 6.9 14.8 6.9 8.2 0 14.8-3.1 14.8-6.9v-.1l.1-7Z" fill="#AFB6E5"/><path d="M94.9 57.8c1.5-12.6-1.4-25.4-8.7-35.8-.3-.4-.6-.9-.9-1.3L71.6 2 58 20.7c-.3.4-.6.9-.9 1.3-7.2 10.4-10.1 23.2-8.5 35.8L52.1 87v.2c0 6.3 8.8 11.5 19.7 11.4 10.9 0 19.7-5.2 19.7-11.5v-.2l3.4-29.1Z" fill="url(#g)"/><path d="M85.3 20.7 71.6 2 58 20.7c-.1.1-.1.2-.2.3 2.4 3.1 7.7 5.3 13.9 5.2 6.2 0 11.5-2.2 13.9-5.3-.1 0-.2-.1-.3-.2Z" fill="url(#h)"/><path opacity=".3" d="M85.3 20.7 71.6 2 58 20.7c-.1.1-.1.2-.2.3 2.4 3.1 7.7 5.3 13.9 5.2 6.2 0 11.5-2.2 13.9-5.3-.1 0-.2-.1-.3-.2Z" fill="url(#i)"/><path opacity=".5" d="M94.9 57.8c1.5-12.6-1.4-25.4-8.7-35.8-.3-.4-.6-.9-.9-1.3L71.6 2 58 20.7c-.3.4-.6.9-.9 1.3-7.2 10.4-10.1 23.2-8.5 35.8L52.1 87v.2c0 6.3 8.8 11.5 19.7 11.4 10.9 0 19.7-5.2 19.7-11.5v-.2l3.4-29.1Z" fill="url(#j)"/><path d="M68.7 65.6c0 2.7-.9 4.7-2.5 5.6 0 0-1.5.9-1.5 1-1.6.9-.6-1.1-3-2.5-4.9-2.8-8.8-9.6-8.8-15.2 0-2.8-2.6-2.8-1-3.7l1.8-1c1.6-.9 3.8-.7 6.1.7 5 2.7 8.9 9.5 8.9 15.1Z" fill="url(#k)"/><path d="M67 66.6c0 5.6-3.9 7.8-8.8 5s-8.8-9.6-8.8-15.2 3.9-7.8 8.8-5C63 54.2 67 61 67 66.6Z" fill="url(#l)"/><path d="M65.4 65.6c0 4.5-3.2 6.4-7.1 4.1-3.9-2.3-7.2-7.8-7.2-12.3 0-4.5 3.2-6.4 7.1-4.1 3.9 2.3 7.1 7.8 7.2 12.3Z" fill="url(#m)"/><path d="M59.6 69.1c-3.9-2.3-7.2-7.8-7.2-12.3 0-2.1.7-3.6 1.8-4.4-1.9.4-3.2 2.1-3.2 5 0 4.5 3.2 10 7.2 12.3 2.1 1.2 4 1.3 5.3.3-1.1.2-2.4 0-3.9-.9Z" fill="url(#n)"/><path d="M58.4 51.2c-2.3-1.3-4.7-1.2-5.9-.7 1.5-.4 3.5-.2 5.5 1 4.9 2.8 8.8 9.6 8.8 15.2 0 2.9-1.3 5-3 5.8 1.8-.7 3.4-2.8 3.4-6.1.1-5.6-3.9-12.4-8.8-15.2Z" fill="url(#o)"/><path d="m57.2 95.2-10.4 19.9-2.1-1.2v-8.4c0-1.2.2-2.5.7-3.8l5.4-16.5c1.2-3.6 3.7-6.8 6.4-8.4l2 1.2-2 17.2Z" fill="url(#p)"/><path d="m59.3 96.4-12.5 18.7v-8.4c0-1.2.2-2.5.7-3.8l5.4-16.5c1.2-3.5 3.7-6.8 6.4-8.4v18.4Z" fill="url(#q)"/><path d="M47 106.9c0-1.2.2-2.5.7-3.8l5.4-16.5c1.1-3.4 3.4-6.5 6.1-8.2v-.5c-2.8 1.6-5.3 4.9-6.4 8.4l-5.4 16.5c-.4 1.3-.7 2.6-.6 3.8v8.4l.4-.5-.2-7.6Z" fill="url(#r)"/><path d="M86.4 95.1 96.8 115l2.1-1.2v-8.4c0-1.2-.2-2.5-.7-3.8l-5.4-16.5c-1.2-3.5-3.7-6.8-6.4-8.4l-2 1.2 2 17.2Z" fill="url(#s)"/><path d="M84.3 96.4 96.8 115v-8.4c0-1.2-.2-2.5-.7-3.8l-5.4-16.5c-1.2-3.5-3.7-6.8-6.4-8.4v18.5Z" fill="url(#t)"/><path d="M96.4 102.8 91 86.3c-1.2-3.5-3.7-6.8-6.4-8.4v.1c2.5 1.7 4.7 4.7 5.8 8l5.4 16.5c.4 1.3.7 2.6.7 3.8v7.8l.7 1v-8.4c-.1-1.3-.4-2.6-.8-3.9Z" fill="url(#u)"/><defs><linearGradient id="k" x1="54.533" y1="49.086" x2="67.185" y2="70.924" gradientUnits="userSpaceOnUse"><stop stop-color="#676FAE"/><stop offset=".048" stop-color="#757CB8"/><stop offset=".106" stop-color="#8B92C8"/><stop offset=".227" stop-color="#AFB6E5"/><stop offset=".349" stop-color="#949BCF"/><stop offset=".379" stop-color="#8D94C9"/><stop offset=".545" stop-color="#5E67A8"/><stop offset=".612" stop-color="#616AAA"/><stop offset=".67" stop-color="#6C75B2"/><stop offset=".725" stop-color="#7E86BF"/><stop offset=".777" stop-color="#979ED1"/><stop offset=".778" stop-color="#979ED1"/><stop offset="1" stop-color="#7179B5"/></linearGradient><linearGradient id="a" x1="72" y1="0" x2="72" y2="129" gradientUnits="userSpaceOnUse"><stop stop-color="#21FFE4"/><stop offset="1" stop-color="#19EFD5"/></linearGradient><linearGradient id="c" x1="103.76" y1="91.838" x2="83.29" y2="67.211" gradientUnits="userSpaceOnUse"><stop stop-color="#3863F5"/><stop offset="1" stop-color="#61C2F2"/></linearGradient><linearGradient id="d" x1="72.128" y1="82.817" x2="29.469" y2="73.321" gradientUnits="userSpaceOnUse"><stop stop-color="#3863F5"/><stop offset="1" stop-color="#61C2F2"/></linearGradient><linearGradient id="e" x1="71.8" y1="99.809" x2="71.752" y2="109.074" gradientUnits="userSpaceOnUse"><stop offset=".005" stop-color="#273B98"/><stop offset=".227" stop-color="#2F2BA2"/><stop offset=".399" stop-color="#361CAC"/><stop offset=".768" stop-color="#440B89"/><stop offset="1" stop-color="#4E0070"/></linearGradient><linearGradient id="f" x1="57.074" y1="95.782" x2="86.28" y2="95.738" gradientUnits="userSpaceOnUse"><stop stop-color="#676FAE"/><stop offset=".048" stop-color="#757CB8"/><stop offset=".106" stop-color="#8B92C8"/><stop offset=".227" stop-color="#AFB6E5"/><stop offset=".349" stop-color="#949BCF"/><stop offset=".379" stop-color="#8D94C9"/><stop offset=".545" stop-color="#5E67A8"/><stop offset=".612" stop-color="#616AAA"/><stop offset=".67" stop-color="#6C75B2"/><stop offset=".725" stop-color="#7E86BF"/><stop offset=".777" stop-color="#979ED1"/><stop offset=".778" stop-color="#979ED1"/><stop offset="1" stop-color="#7179B5"/></linearGradient><linearGradient id="g" x1="48.345" y1="50.33" x2="94.765" y2="50.26" gradientUnits="userSpaceOnUse"><stop offset=".01" stop-color="#CED3F4"/><stop offset=".066" stop-color="#D8DCF6"/><stop offset=".162" stop-color="#F3F4FC"/><stop offset=".197" stop-color="#fff"/><stop offset=".273" stop-color="#F5F7FF"/><stop offset=".359" stop-color="#E5E9FF"/><stop offset=".388" stop-color="#DBDFFA"/><stop offset=".47" stop-color="#C3C9EE"/><stop offset=".547" stop-color="#B4BBE7"/><stop offset=".611" stop-color="#AFB6E5"/><stop offset=".783" stop-color="#BAC0EA"/><stop offset="1" stop-color="#CED3F4"/></linearGradient><linearGradient id="h" x1="62.749" y1="11.492" x2="87.236" y2="21.368" gradientUnits="userSpaceOnUse"><stop stop-color="#5277F7"/><stop offset=".036" stop-color="#547EF8"/><stop offset=".089" stop-color="#5993FA"/><stop offset=".152" stop-color="#60B4FD"/><stop offset=".192" stop-color="#6CF"/><stop offset=".343" stop-color="#5277F7"/><stop offset=".621" stop-color="#5A99FA"/><stop offset=".85" stop-color="#5FAEFC"/><stop offset="1" stop-color="#61B6FD"/></linearGradient><linearGradient id="i" x1="82.388" y1="10.198" x2="50.806" y2="25.719" gradientUnits="userSpaceOnUse"><stop stop-color="#5277F7"/><stop offset=".036" stop-color="#547EF8"/><stop offset=".089" stop-color="#5993FA"/><stop offset=".152" stop-color="#60B4FD"/><stop offset=".192" stop-color="#6CF"/><stop offset=".343" stop-color="#5277F7"/><stop offset=".35" stop-color="#5379F7"/><stop offset=".458" stop-color="#5A97FA"/><stop offset=".572" stop-color="#5FAEFC"/><stop offset=".694" stop-color="#63BFFE"/><stop offset=".828" stop-color="#65C9FF"/><stop offset="1" stop-color="#6CF"/></linearGradient><linearGradient id="t" x1="101.137" y1="116.587" x2="76.436" y2="70.414" gradientUnits="userSpaceOnUse"><stop stop-color="#3863F5"/><stop offset="1" stop-color="#61C2F2"/></linearGradient><linearGradient id="b" x1="71.3" y1="90.8" x2="71.3" y2="118" gradientUnits="userSpaceOnUse"><stop stop-color="#21FFE4"/><stop offset="1" stop-color="#19EFD5"/></linearGradient><linearGradient id="l" x1="49.4" y1="61.527" x2="66.998" y2="61.501" gradientUnits="userSpaceOnUse"><stop offset=".035" stop-color="#929AD6"/><stop offset=".364" stop-color="#AFB6E5"/><stop offset=".614" stop-color="#949CD4"/><stop offset="1" stop-color="#646EB5"/></linearGradient><linearGradient id="m" x1="51.751" y1="57.906" x2="66.867" y2="66.363" gradientUnits="userSpaceOnUse"><stop offset=".096" stop-color="#45108A"/><stop offset="1" stop-color="#7C1DC9"/></linearGradient><linearGradient id="n" x1="61.19" y1="71.334" x2="51.21" y2="54.108" gradientUnits="userSpaceOnUse"><stop stop-color="#676FAE"/><stop offset=".048" stop-color="#757CB8"/><stop offset=".106" stop-color="#8B92C8"/><stop offset=".227" stop-color="#AFB6E5"/><stop offset=".349" stop-color="#949BCF"/><stop offset=".379" stop-color="#8D94C9"/><stop offset=".545" stop-color="#5E67A8"/><stop offset=".612" stop-color="#616AAA"/><stop offset=".67" stop-color="#6C75B2"/><stop offset=".725" stop-color="#7E86BF"/><stop offset=".777" stop-color="#979ED1"/><stop offset=".778" stop-color="#979ED1"/><stop offset="1" stop-color="#7179B5"/></linearGradient><linearGradient id="s" x1="92.649" y1="99.098" x2="86.014" y2="79.567" gradientUnits="userSpaceOnUse"><stop stop-color="#4666D4"/><stop offset=".329" stop-color="#4E72EC"/><stop offset=".465" stop-color="#5277F7"/><stop offset=".503" stop-color="#537DF8"/><stop offset=".552" stop-color="#578DF9"/><stop offset=".609" stop-color="#5EA8FC"/><stop offset=".667" stop-color="#6CF"/><stop offset=".803" stop-color="#5277F7"/></linearGradient><linearGradient id="p" x1="47.188" y1="110.89" x2="59.243" y2="73.807" gradientUnits="userSpaceOnUse"><stop stop-color="#4666D4"/><stop offset=".329" stop-color="#4E72EC"/><stop offset=".465" stop-color="#5277F7"/><stop offset=".503" stop-color="#537DF8"/><stop offset=".552" stop-color="#578DF9"/><stop offset=".609" stop-color="#5EA8FC"/><stop offset=".667" stop-color="#6CF"/><stop offset=".803" stop-color="#5277F7"/></linearGradient><linearGradient id="q" x1="41.67" y1="99.906" x2="83.227" y2="87.394" gradientUnits="userSpaceOnUse"><stop stop-color="#3863F5"/><stop offset="1" stop-color="#61C2F2"/></linearGradient><radialGradient id="r" cx="0" cy="0" r="1" gradientUnits="userSpaceOnUse" gradientTransform="rotate(-.084 63580.465 -41335.565) scale(13.8526)"><stop stop-color="#fff"/><stop offset="1"/></radialGradient><radialGradient id="o" cx="0" cy="0" r="1" gradientUnits="userSpaceOnUse" gradientTransform="rotate(-.086 40875.256 -39921.924) scale(9.44291)"><stop stop-color="#fff"/><stop offset="1"/></radialGradient><radialGradient id="j" cx="0" cy="0" r="1" gradientUnits="userSpaceOnUse" gradientTransform="matrix(32.93806 -.0494 .07905 52.70094 71.704 50.295)"><stop offset=".525" stop-color="#fff"/><stop offset=".709" stop-color="#FAFBFF"/><stop offset=".921" stop-color="#ECEFFF"/><stop offset="1" stop-color="#E5E9FF"/></radialGradient><radialGradient id="u" cx="0" cy="0" r="1" gradientUnits="userSpaceOnUse" gradientTransform="rotate(-.086 60728.463 -56260.055) scale(13.8525)"><stop stop-color="#fff"/><stop offset="1"/></radialGradient></defs></svg>