<svg width="193" height="177" fill="none" xmlns="http://www.w3.org/2000/svg"><path d="m62.536 127.176 46.945 46.912c2.031.172 2.187.343 4.242 0 34.369-5.566 71.386-33.453 75.12-77.203.093-1.164-.204.343-.258-.781l-36.713-36.693-89.336 67.765Z" fill="url(#a)"/><path d="M103.638 0a88.411 88.411 0 0 0-57.216 21l3.038 3.569a83.713 83.713 0 0 1 91.66-11.014 83.652 83.652 0 0 1 35.042 33.081 83.59 83.59 0 0 1-5.78 92.09 83.67 83.67 0 0 1-38.903 28.446 83.726 83.726 0 0 1-48.15 2.275 83.688 83.688 0 0 1-41.414-24.651H4.687v-19.705h24.042V62.464H7.514V47.99c11.35-2.343 19.302-5.38 27.675-10.524h19.263v87.625h22.496v-4.684h-17.81V32.782H33.846l-.57.35c-8.515 5.325-16.521 8.308-28.55 10.642l-1.898.367v23.007h21.215v53.259H0v29.073h39.884a88.375 88.375 0 0 0 36.59 22.885 88.41 88.41 0 0 0 82.346-15.063 88.325 88.325 0 0 0 26.109-34.355 88.28 88.28 0 0 0-7.573-83.326 88.352 88.352 0 0 0-31.875-29.09A88.402 88.402 0 0 0 103.623 0h.015Z" fill="#DF2C56"/><path d="M159.801 88.235a56.391 56.391 0 0 1-9.512 31.341 56.446 56.446 0 0 1-25.332 20.778 56.473 56.473 0 0 1-61.511-12.229 56.386 56.386 0 0 1-12.235-61.479A56.421 56.421 0 0 1 71.999 41.33a56.466 56.466 0 0 1 71.27 7.015 56.399 56.399 0 0 1 16.532 39.89Z" fill="#fff"/><path d="M159.801 88.235a56.392 56.392 0 0 0-9.512-31.342 56.442 56.442 0 0 0-25.332-20.778 56.47 56.47 0 0 0-61.511 12.23 56.386 56.386 0 0 0-12.235 61.479 56.424 56.424 0 0 0 20.788 25.317 56.471 56.471 0 0 0 31.359 9.507 56.254 56.254 0 0 0 39.971-16.463 56.208 56.208 0 0 0 16.472-39.95Z" fill="url(#b)"/><path d="M154.091 63.494a56.4 56.4 0 0 1 2.147 40.372 56.43 56.43 0 0 1-25.427 31.443 56.473 56.473 0 0 1-73.899-15.605 56.855 56.855 0 0 0 5.624 7.472 56.46 56.46 0 0 0 35.178 17.166 56.47 56.47 0 0 0 37.892-9.83 56.425 56.425 0 0 0 22.383-32.101 56.397 56.397 0 0 0-3.89-38.933l-.008.016Z" fill="#EDEEF0"/><path d="M103.638 59c-10.353 0-18.879 8.526-18.879 18.879 0 3.45 1.015 6.699 2.64 9.744a6.168 6.168 0 0 0 1.014 1.42v.204c.406.609 3.857 5.48 5.481 11.774l-.609.609c-.812.812-1.218 1.827-1.218 3.045 0 1.015.406 2.233 1.015 2.842-.812.812-1.218 1.827-1.218 2.842 0 1.218.406 2.233 1.218 3.045.812.812 1.827 1.218 2.842 1.218 1.218 3.045 4.263 5.278 7.714 5.278 3.248 0 6.293-2.03 7.714-5.075 2.436 0 4.263-2.03 4.263-4.263 0-1.015-.406-2.233-1.218-2.842.812-.812 1.218-1.827 1.218-2.842 0-1.624-.812-3.045-2.233-3.857 1.624-6.293 5.075-11.165 5.481-11.774v-.203c.406-.406.609-1.015 1.015-1.421 1.827-2.842 2.639-6.293 2.639-9.744 0-10.353-8.526-18.879-18.879-18.879Zm4.263 56.028c-1.015 1.421-2.639 2.233-4.263 2.233-1.827 0-3.451-.812-4.466-2.233h8.729Zm-12.789-5.481a1.55 1.55 0 0 1 1.015-.406l15.225.203c.812 0 1.421.609 1.421 1.421 0 .406-.203.812-.406 1.015a1.55 1.55 0 0 1-1.015.406l-15.225-.203a1.55 1.55 0 0 1-1.015-.406 1.55 1.55 0 0 1-.406-1.015c0-.406.203-.812.406-1.015Zm16.24-3.248-15.225-.203a1.55 1.55 0 0 1-1.015-.406 1.55 1.55 0 0 1-.406-1.015c0-.406.203-.812.406-1.015.203-.203.406-.203.61-.406h15.63c.812 0 1.421.609 1.421 1.421s-.609 1.624-1.421 1.624Zm-13.398-20.3c.61 0 1.218.609 1.218 1.218v1.218h-1.218c-.609 0-1.218-.61-1.218-1.218 0-.812.61-1.218 1.218-1.218Zm7.511 5.075v9.135h-3.451v-9.135h3.451Zm5.278-3.857c0 .609-.609 1.218-1.218 1.218h-1.218v-1.218c0-.61.609-1.218 1.218-1.218s1.218.406 1.218 1.218Zm5.684.203c-.609 1.015-4.263 6.09-5.887 12.992h-2.233v-9.135h1.218a4.072 4.072 0 0 0 4.06-4.06 4.072 4.072 0 0 0-4.06-4.06 4.072 4.072 0 0 0-4.06 4.06v1.218h-3.451v-1.218a4.072 4.072 0 0 0-4.06-4.06 4.072 4.072 0 0 0-4.06 4.06 4.072 4.072 0 0 0 4.06 4.06h1.218v9.135h-2.436c-1.624-6.7-5.278-11.977-5.887-12.789v-.203c-.203-.406-.609-.812-.812-1.218a16.457 16.457 0 0 1-2.233-8.323c0-8.932 7.105-16.037 16.037-16.037 8.932 0 16.037 7.105 16.037 16.037 0 2.842-.812 5.684-2.233 8.323l-1.218 1.218Z" fill="url(#c)"/><path d="M130.637 79.909h-4.872c-.812 0-1.421.609-1.421 1.42 0 .813.609 1.422 1.421 1.422h4.872c.812 0 1.421-.61 1.421-1.421 0-.812-.609-1.421-1.421-1.421Z" fill="url(#d)"/><path d="M125.968 76.661c.203 0 .406 0 .609-.203l4.263-2.233c.406-.203.609-.406.812-.812.203-.406 0-.812 0-1.015-.203-.406-.406-.609-.812-.812-.406-.203-.812 0-1.015 0l-4.263 2.233c-.406.203-.609.406-.812.812-.203.406 0 .812 0 1.015 0 .61.609 1.015 1.218 1.015Z" fill="url(#e)"/><path d="m129.216 88.03-4.263-2.234c-.609-.406-1.624 0-2.03.61-.203.405-.203.811 0 1.014.203.406.406.61.812.812l4.263 2.233c.203.203.406.203.609.203.609 0 1.015-.203 1.218-.812.406-.609 0-1.42-.609-1.827Z" fill="url(#f)"/><path d="M81.714 81.33c0-.812-.609-1.421-1.421-1.421h-4.872c-.812 0-1.421.609-1.421 1.42 0 .813.609 1.422 1.421 1.422h4.872c.812 0 1.421-.61 1.421-1.421Z" fill="url(#g)"/><path d="m75.218 74.224 4.263 2.233c.203.203.406.203.609.203.609 0 1.015-.203 1.218-.812.203-.406.203-.812 0-1.015-.203-.406-.406-.609-.812-.812l-4.263-2.233c-.609-.406-1.624 0-2.03.61-.203.406-.203.812 0 1.014.406.406.609.61 1.015.812Z" fill="url(#h)"/><path d="m81.308 85.796-4.263 2.233c-.406.203-.609.406-.812.812-.203.406 0 .812 0 1.015.203.406.812.812 1.218.812.203 0 .406 0 .61-.203l4.262-2.233c.406-.203.61-.406.812-.812.203-.406 0-.812 0-1.015-.406-.609-1.218-.812-1.827-.609Z" fill="url(#i)"/><defs><linearGradient id="c" x1="103.638" y1="59" x2="103.638" y2="119.9" gradientUnits="userSpaceOnUse"><stop stop-color="#DF2C56"/><stop offset="1" stop-color="#C81F47"/></linearGradient><linearGradient id="d" x1="128.201" y1="79.909" x2="128.201" y2="82.751" gradientUnits="userSpaceOnUse"><stop stop-color="#DF2C56"/><stop offset="1" stop-color="#C81F47"/></linearGradient><linearGradient id="e" x1="128.201" y1="71.496" x2="128.201" y2="76.661" gradientUnits="userSpaceOnUse"><stop stop-color="#DF2C56"/><stop offset="1" stop-color="#C81F47"/></linearGradient><linearGradient id="f" x1="126.379" y1="85.633" x2="126.379" y2="90.668" gradientUnits="userSpaceOnUse"><stop stop-color="#DF2C56"/><stop offset="1" stop-color="#C81F47"/></linearGradient><linearGradient id="g" x1="77.857" y1="79.909" x2="77.857" y2="82.751" gradientUnits="userSpaceOnUse"><stop stop-color="#DF2C56"/><stop offset="1" stop-color="#C81F47"/></linearGradient><linearGradient id="h" x1="77.755" y1="71.625" x2="77.755" y2="76.66" gradientUnits="userSpaceOnUse"><stop stop-color="#DF2C56"/><stop offset="1" stop-color="#C81F47"/></linearGradient><linearGradient id="i" x1="79.684" y1="85.72" x2="79.684" y2="90.668" gradientUnits="userSpaceOnUse"><stop stop-color="#DF2C56"/><stop offset="1" stop-color="#C81F47"/></linearGradient><radialGradient id="a" cx="0" cy="0" r="1" gradientUnits="userSpaceOnUse" gradientTransform="matrix(98.5221 0 0 98.4695 107.114 85.627)"><stop stop-color="#828282"/><stop offset=".3" stop-color="#848484" stop-opacity=".98"/><stop offset=".47" stop-color="#8B8B8B" stop-opacity=".92"/><stop offset=".6" stop-color="#969697" stop-opacity=".81"/><stop offset=".72" stop-color="#A6A6A7" stop-opacity=".66"/><stop offset=".83" stop-color="#BBBCBD" stop-opacity=".47"/><stop offset=".92" stop-color="#D4D5D7" stop-opacity=".23"/><stop offset="1" stop-color="#EDEEF0" stop-opacity="0"/></radialGradient><radialGradient id="b" cx="0" cy="0" r="1" gradientUnits="userSpaceOnUse" gradientTransform="matrix(163.113 0 0 163.026 56.834 35.467)"><stop stop-color="#F7F7F8"/><stop offset=".51" stop-color="#FBFBFB"/><stop offset=".72" stop-color="#fff"/></radialGradient></defs></svg>