<svg width="197" height="177" fill="none" xmlns="http://www.w3.org/2000/svg"><path d="m67.25 127.176 46.937 46.912c2.031.172 2.195.344 4.241 0 34.369-5.566 71.394-33.452 75.12-77.203.102-1.163-.195.344-.25-.78l-36.712-36.693-89.337 67.764Z" fill="url(#a)"/><path d="M108.047 0A87.585 87.585 0 0 0 54.33 18.19l2.851 3.717a82.928 82.928 0 0 1 50.866-17.222 83.72 83.72 0 0 1 59.694 24.207 83.635 83.635 0 0 1 24.796 59.425 83.601 83.601 0 0 1-6.448 32.193 83.648 83.648 0 0 1-45.771 45.307 83.717 83.717 0 0 1-32.271 6.132c-23.09 0-46-10.281-61.778-27.152H7.049v-13.951c27.34-25.1 47.023-43.251 47.023-59.334 0-10.765-6.03-17.175-16.13-17.175-7.81 0-13.794 5.153-18.38 9.642L6.573 50.996c11.217-11.367 21.09-15.614 35.612-15.614 21.644 0 36.189 13.826 36.189 34.405 0 17.285-16.833 36.693-31.503 51.721l-4.686 4.794 6.655-.835a178.294 178.294 0 0 1 18.41-1.414h16.404v23.101h4.687v-27.785H67.25c-3.406 0-8.163.32-12.584.734 14.06-14.903 28.362-33.195 28.362-50.34 0-11.507-3.984-21.336-11.513-28.425-7.53-7.088-17.544-10.68-29.331-10.68-16.482 0-27.863 5.262-40.618 18.737L.003 51.042 19.531 70.56l1.656-1.663c5.429-5.418 10.436-9.915 16.732-9.915 7.483 0 11.443 4.325 11.443 12.491 0 14.053-20.13 32.548-45.61 55.976l-1.413 1.296v20.689h41.954a88.398 88.398 0 0 0 118.938 7.87 88.322 88.322 0 0 0 26.119-34.351 88.267 88.267 0 0 0-7.563-83.332 88.344 88.344 0 0 0-31.877-29.093A88.398 88.398 0 0 0 108.047 0Z" fill="#8736C0"/><path d="M164.498 88.235a56.395 56.395 0 0 1-9.512 31.342 56.441 56.441 0 0 1-25.331 20.777 56.469 56.469 0 0 1-61.512-12.229 56.386 56.386 0 0 1-12.235-61.478 56.42 56.42 0 0 1 20.788-25.318 56.465 56.465 0 0 1 71.27 7.016 56.4 56.4 0 0 1 16.532 39.89Z" fill="#fff"/><path d="M164.498 88.235a56.392 56.392 0 0 0-9.512-31.341 56.44 56.44 0 0 0-25.331-20.778 56.473 56.473 0 0 0-61.512 12.229 56.388 56.388 0 0 0-12.235 61.48 56.42 56.42 0 0 0 20.788 25.316 56.463 56.463 0 0 0 31.359 9.507 56.268 56.268 0 0 0 39.971-16.463 56.198 56.198 0 0 0 16.472-39.95Z" fill="url(#b)"/><path d="M158.788 63.495a56.394 56.394 0 0 1 2.148 40.371 56.43 56.43 0 0 1-25.427 31.443 56.48 56.48 0 0 1-39.945 6.37 56.453 56.453 0 0 1-33.954-21.974 56.857 56.857 0 0 0 5.64 7.471 56.476 56.476 0 0 0 73.07 7.336 56.398 56.398 0 0 0 18.493-71.033l-.025.016Z" fill="#EDEEF0"/><path d="M110.521 86.303a13.133 13.133 0 0 0 13.159-13.159c0-7.288-5.871-13.16-13.159-13.16a13.133 13.133 0 0 0-13.16 13.16c0 7.288 5.872 13.16 13.16 13.16Zm0-23.484c5.668 0 10.325 4.656 10.325 10.325 0 5.668-4.657 10.325-10.325 10.325-5.669 0-10.325-4.656-10.325-10.325s4.656-10.325 10.325-10.325ZM110.521 89.947C95.945 89.947 84 101.891 84 116.468c0 .81.607 1.417 1.417 1.417h50.41c.81 0 1.417-.607 1.417-1.417 0-14.577-11.945-26.521-26.723-26.521Zm2.024 5.466h-3.846l-1.013-2.43c1.822-.202 3.847-.202 5.871 0l-1.012 2.43Zm-3.644 2.834h3.239l3.037 16.804h-9.313l3.037-16.804Zm-4.049-4.656 1.417 3.442-3.239 18.018H86.834c.608-10.123 7.896-19.03 18.018-21.46Zm10.123 3.442 1.417-3.442c10.122 2.43 17.208 11.337 18.018 21.662h-16.196l-3.239-18.22Z" fill="#8736C0"/><defs><radialGradient id="a" cx="0" cy="0" r="1" gradientUnits="userSpaceOnUse" gradientTransform="matrix(98.5221 0 0 98.4695 111.812 85.627)"><stop stop-color="#828282"/><stop offset=".3" stop-color="#848484" stop-opacity=".98"/><stop offset=".47" stop-color="#8B8B8B" stop-opacity=".92"/><stop offset=".6" stop-color="#969697" stop-opacity=".81"/><stop offset=".72" stop-color="#A6A6A7" stop-opacity=".66"/><stop offset=".83" stop-color="#BBBCBD" stop-opacity=".47"/><stop offset=".92" stop-color="#D4D5D7" stop-opacity=".23"/><stop offset="1" stop-color="#EDEEF0" stop-opacity="0"/></radialGradient><radialGradient id="b" cx="0" cy="0" r="1" gradientUnits="userSpaceOnUse" gradientTransform="matrix(163.113 0 0 163.026 61.532 35.468)"><stop stop-color="#F7F7F8"/><stop offset=".51" stop-color="#FBFBFB"/><stop offset=".72" stop-color="#fff"/></radialGradient></defs></svg>