<svg width="194" height="177" fill="none" xmlns="http://www.w3.org/2000/svg"><path d="m64.779 127.207 46.937 46.912c2.031.172 2.195.344 4.242 0 34.369-5.566 71.394-33.453 75.119-77.203.102-1.163-.195.343-.25-.78l-36.712-36.694-89.336 67.765Z" fill="url(#a)"/><path d="M105.6.031a87.515 87.515 0 0 0-53.764 18.206l2.851 3.716a82.89 82.89 0 0 1 50.882-17.238 83.688 83.688 0 0 1 59.693 24.208 83.598 83.598 0 0 1 18.349 91.618 83.65 83.65 0 0 1-45.771 45.306 83.702 83.702 0 0 1-32.271 6.133c-22.137 0-43.844-9.493-59.607-25.037h-2.57c-15.732 0-28.456-4.739-36.947-13.717l11.17-15.458c7.32 6.129 15.263 9.478 22.598 9.478 11.646 0 18.606-4.84 18.606-12.944 0-11.078-7.624-15.45-27.933-15.754V81.989c11.1-.234 24.395-2.436 24.395-15.036 0-8.002-5.109-12.593-14.014-12.593-7.53 0-13.044 2.998-19.528 8.229L9.54 47.84C20.262 39.347 30.831 35.35 42.641 35.35c23.996 0 38.322 10.93 38.322 29.284 0 9.907-5.468 17.129-16.638 22.063l-1.398.616v3.982l1.656.507c12.841 3.904 19.91 12.663 19.91 24.616h4.687c0-12.726-6.632-22.344-18.794-27.496C80.542 83.246 85.65 75.103 85.65 64.65c0-10.602-4.147-19.354-11.982-25.295-7.467-5.676-18.2-8.673-31.026-8.673-13.443 0-25.847 4.918-37.915 15.036l-1.789 1.49 18.2 22 1.812-1.56c6.585-5.598 11.451-8.635 18.278-8.635 4.008 0 9.327.82 9.327 7.908 0 5.13-2.625 10.376-22.051 10.376h-2.343v25.888h2.343c25.59 0 25.59 6.152 25.59 11.086 0 7.19-8.726 8.26-13.92 8.26-6.82 0-14.42-3.545-21.395-9.978l-1.945-1.795L.431 133.476l1.203 1.405c9.373 10.93 23.808 16.715 41.727 16.715h.547a88.398 88.398 0 0 0 118.26 4.508 88.318 88.318 0 0 0 25.231-34.547 88.274 88.274 0 0 0-8.558-82.556 88.35 88.35 0 0 0-31.782-28.644A88.398 88.398 0 0 0 105.538 0l.062.031Z" fill="url(#b)"/><path d="M162.051 88.266a56.39 56.39 0 0 1-9.512 31.341 56.446 56.446 0 0 1-25.332 20.778 56.465 56.465 0 0 1-61.511-12.229 56.386 56.386 0 0 1-12.235-61.479A56.42 56.42 0 0 1 74.249 41.36a56.465 56.465 0 0 1 71.27 7.016 56.399 56.399 0 0 1 16.532 39.89Z" fill="#fff"/><path d="M162.051 88.266a56.392 56.392 0 0 0-9.512-31.342 56.443 56.443 0 0 0-25.332-20.777 56.47 56.47 0 0 0-61.511 12.229 56.384 56.384 0 0 0-12.235 61.478 56.423 56.423 0 0 0 20.788 25.318 56.463 56.463 0 0 0 31.359 9.507 56.255 56.255 0 0 0 39.971-16.463 56.208 56.208 0 0 0 16.472-39.95Z" fill="url(#c)"/><path d="M156.341 63.525a56.389 56.389 0 0 1 2.147 40.372 56.428 56.428 0 0 1-25.426 31.443 56.48 56.48 0 0 1-39.946 6.37 56.458 56.458 0 0 1-33.953-21.974 56.892 56.892 0 0 0 5.616 7.518 56.472 56.472 0 0 0 73.07 7.336 56.42 56.42 0 0 0 22.382-32.101 56.39 56.39 0 0 0-3.89-38.932v-.032Z" fill="#EDEEF0"/><path d="M115.853 86.434c1.627 0 3.253-.61 4.677-1.83 1.22-1.22 1.83-2.846 1.83-4.676s-.61-3.457-1.83-4.677c-2.44-2.44-6.71-2.44-9.15 0-1.22 1.22-1.83 2.847-1.83 4.677 0 1.83.61 3.456 1.83 4.676a6.307 6.307 0 0 0 4.473 1.83Zm-3.457-6.506c0-.814.407-1.83 1.017-2.44 1.22-1.22 3.457-1.22 4.677 0a3.367 3.367 0 0 1 1.016 2.44c0 .813-.406 1.83-1.016 2.44-1.22 1.22-3.457 1.22-4.677 0a3.367 3.367 0 0 1-1.017-2.44Z" fill="url(#d)"/><path d="M136.797 60.611c0-.407-.204-.813-.407-1.22-.203-.203-.813-.407-1.22-.407-.407 0-7.727.204-17.08 4.27-5.693 2.44-11.183 5.897-15.86 10.167-5.083-2.643-15.656-3.66-23.586 8.743-.204.204-.204.61-.204.814 0 .203 0 .61.204.813.406.407.813.813 1.423.813 2.033-.203 7.93-.203 10.777 1.627-1.22 1.627-2.237 3.457-3.254 5.083-.203.204-.203.407-.203.813 0 .407.203.814.407 1.017l.61.61-2.644 6.1c0 .203-.203.407-.203.61 0 .407.203.813.407 1.017l8.133 8.133c.407.407 1.22.61 1.83.407l6.1-2.644.61.61c.407.407 1.22.61 1.83.204 1.83-1.017 3.457-2.034 5.083-3.254 1.83 3.05 1.83 8.744 1.627 10.777 0 .61.203 1.22.813 1.423.204.204.61.204.813.204.204 0 .61 0 .814-.204 12.2-7.93 11.386-18.3 8.743-23.383 14.03-15.86 14.437-32.94 14.437-33.143ZM99.384 75.658c-2.44 2.44-4.677 5.083-6.914 7.93-2.846-1.83-6.71-2.237-9.556-2.237 6.303-7.93 13.216-6.913 16.47-5.694Zm34.159-13.217c-.61 5.897-4.066 22.977-21.146 36.803h-.204a85.59 85.59 0 0 1-8.336 5.693L90.844 91.924c14.436-24.603 36.803-28.873 42.699-29.483Zm-19.723 39.446c.203-.203.407-.406.813-.61.407-.406.814-.61 1.22-1.016 1.424-1.22 2.847-2.644 4.27-3.864 1.22 3.254 2.237 10.167-5.49 16.47 0-2.846-.406-6.913-2.236-9.556.406-.407.813-1.017 1.423-1.424Zm-14.03 3.254-4.066 1.83-6.71-6.71 1.83-4.067 8.946 8.947Z" fill="url(#e)"/><path d="M88.2 109.207c0-.406-.204-.813-.407-1.016a1.55 1.55 0 0 0-1.017-.407 1.55 1.55 0 0 0-1.016.407l-8.337 8.336c-.203.204-.406.61-.406 1.017 0 .407.203.813.406 1.016.204.204.61.407 1.017.407a1.55 1.55 0 0 0 1.017-.407l8.336-8.336c.203 0 .407-.407.407-1.017Z" fill="url(#f)"/><path d="m78.44 112.664 5.897-5.897c.203-.203.406-.61.406-1.017 0-.406-.203-.813-.406-1.016a1.55 1.55 0 0 0-1.017-.407 1.55 1.55 0 0 0-1.017.407l-5.896 5.896c-.204.204-.407.61-.407 1.017 0 .407.203.813.407 1.017.406.406.61.406 1.016.406.204.203.61 0 1.017-.406Z" fill="url(#g)"/><path d="M90.03 111.241c-.407 0-.814.204-1.017.407l-5.897 5.897c-.203.203-.406.61-.406 1.016 0 .407.203.813.406 1.017.407.406.61.407 1.017.407.407 0 .813-.204 1.017-.407l5.896-5.897c.203-.203.407-.61.407-1.016 0-.407-.204-.814-.407-1.017a1.555 1.555 0 0 0-1.017-.407Z" fill="url(#h)"/><defs><linearGradient id="b" x1="97.165" y1="0" x2="97.165" y2="176.625" gradientUnits="userSpaceOnUse"><stop stop-color="#DF2C56"/><stop offset="1" stop-color="#C81F47"/></linearGradient><linearGradient id="d" x1="115.955" y1="73.421" x2="115.955" y2="86.434" gradientUnits="userSpaceOnUse"><stop stop-color="#DF2C56"/><stop offset="1" stop-color="#C81F47"/></linearGradient><linearGradient id="e" x1="107.619" y1="58.984" x2="107.619" y2="117.341" gradientUnits="userSpaceOnUse"><stop stop-color="#DF2C56"/><stop offset="1" stop-color="#C81F47"/></linearGradient><linearGradient id="f" x1="82.608" y1="107.784" x2="82.608" y2="118.967" gradientUnits="userSpaceOnUse"><stop stop-color="#DF2C56"/><stop offset="1" stop-color="#C81F47"/></linearGradient><linearGradient id="g" x1="80.372" y1="104.327" x2="80.372" y2="113.15" gradientUnits="userSpaceOnUse"><stop stop-color="#DF2C56"/><stop offset="1" stop-color="#C81F47"/></linearGradient><linearGradient id="h" x1="87.081" y1="111.241" x2="87.081" y2="119.985" gradientUnits="userSpaceOnUse"><stop stop-color="#DF2C56"/><stop offset="1" stop-color="#C81F47"/></linearGradient><radialGradient id="a" cx="0" cy="0" r="1" gradientUnits="userSpaceOnUse" gradientTransform="matrix(98.5221 0 0 98.4695 109.365 85.658)"><stop stop-color="#828282"/><stop offset=".3" stop-color="#848484" stop-opacity=".98"/><stop offset=".47" stop-color="#8B8B8B" stop-opacity=".92"/><stop offset=".6" stop-color="#969697" stop-opacity=".81"/><stop offset=".72" stop-color="#A6A6A7" stop-opacity=".66"/><stop offset=".83" stop-color="#BBBCBD" stop-opacity=".47"/><stop offset=".92" stop-color="#D4D5D7" stop-opacity=".23"/><stop offset="1" stop-color="#EDEEF0" stop-opacity="0"/></radialGradient><radialGradient id="c" cx="0" cy="0" r="1" gradientUnits="userSpaceOnUse" gradientTransform="matrix(163.113 0 0 163.026 59.084 35.498)"><stop stop-color="#F7F7F8"/><stop offset=".51" stop-color="#FBFBFB"/><stop offset=".72" stop-color="#fff"/></radialGradient></defs></svg>