<svg width="202" height="177" fill="none" xmlns="http://www.w3.org/2000/svg"><path d="M40.04 79.273 27.964 101.74H53.32V86.689c0-5.73.398-13.537.781-20.43.11-2.132.211-4.154.297-5.965l.117-2.452h-4.687l-.609 1.43c-2.859 6.666-6.069 13.443-9.178 20Zm8.592 7.416v10.368H35.8l8.397-15.614.054-.11c1.625-3.427 3.281-6.916 4.898-10.43-.273 5.559-.516 11.274-.516 15.786Zm153.013 1.562a88.286 88.286 0 0 1-14.813 48.943 88.36 88.36 0 0 1-39.468 32.537 88.414 88.414 0 0 1-50.894 5.223 88.383 88.383 0 0 1-45.26-23.842c-.672-.663-1.93-2.178-2.578-2.865v-23.53H.898v-24.202l.32-.538 38.861-66.89h41.524v63.97h12.014v27.652H79.26v-4.684h9.67v-18.284H76.917V37.794H42.774L5.585 101.811v18.23H53.32v26.543c.39.406.781.781 1.187 1.21a83.69 83.69 0 0 0 41.575 22.313 83.722 83.722 0 0 0 47.042-3.72 83.672 83.672 0 0 0 37.548-28.568 83.592 83.592 0 0 0 5.658-90.323 83.649 83.649 0 0 0-33.688-33.027 83.712 83.712 0 0 0-90.245 7.399l-2.851-3.662A87.586 87.586 0 0 1 113.278 0a88.492 88.492 0 0 1 62.441 25.885 88.394 88.394 0 0 1 25.926 62.397v-.031Z" fill="#8736C0"/><path d="m69.949 127.504 46.937 46.912c2.031.172 2.195.344 4.241 0 34.37-5.566 71.387-33.453 75.12-77.203.102-1.163-.195.344-.25-.78l-36.712-36.694-89.336 67.765Z" fill="url(#a)"/><path d="M167.229 88.563a56.386 56.386 0 0 1-9.513 31.342 56.434 56.434 0 0 1-25.332 20.778 56.48 56.48 0 0 1-32.613 3.209 56.454 56.454 0 0 1-28.9-15.442 56.386 56.386 0 0 1-12.23-61.48 56.42 56.42 0 0 1 20.792-25.317 56.465 56.465 0 0 1 71.267 7.023 56.396 56.396 0 0 1 16.529 39.887Z" fill="#fff"/><path d="M167.229 88.563a56.387 56.387 0 0 0-9.513-31.342 56.435 56.435 0 0 0-25.332-20.778 56.473 56.473 0 0 0-61.513 12.233 56.387 56.387 0 0 0-12.23 61.481 56.421 56.421 0 0 0 20.792 25.316 56.46 56.46 0 0 0 31.361 9.503 56.26 56.26 0 0 0 39.966-16.466 56.204 56.204 0 0 0 16.469-39.947Z" fill="url(#b)"/><path d="M161.511 63.822a56.389 56.389 0 0 1 2.147 40.372 56.422 56.422 0 0 1-25.427 31.443 56.477 56.477 0 0 1-39.945 6.37 56.453 56.453 0 0 1-33.954-21.974 56.892 56.892 0 0 0 5.617 7.518 56.466 56.466 0 0 0 35.178 17.167 56.479 56.479 0 0 0 37.892-9.831 56.42 56.42 0 0 0 22.382-32.1 56.393 56.393 0 0 0-3.89-38.933v-.032Z" fill="#EDEEF0"/><path d="M110.503 66.932c-6.49 0-11.867 5.378-11.867 11.868s5.377 11.867 11.867 11.867c6.49 0 11.868-5.377 11.868-11.867 0-6.676-5.192-11.868-11.868-11.868Zm9.272 11.868c0 5.006-4.08 9.271-9.272 9.271s-9.271-4.08-9.271-9.271c0-5.007 4.079-9.272 9.271-9.272 5.192 0 9.272 4.08 9.272 9.272Z" fill="#8736C0"/><path d="M125.894 100.309c-.371 0-7.788-.927-12.795 3.709-.371.371-.741.927-1.112 1.298V95.303c8.715-.742 15.391-7.974 15.391-16.689a16.62 16.62 0 0 0-16.689-16.689A16.62 16.62 0 0 0 94 78.614c0 8.715 6.675 15.947 15.391 16.689v9.828c-.371-.371-.742-.928-1.113-1.298-4.821-4.636-12.424-3.894-12.795-3.709-.556 0-1.112.556-1.112 1.113 0 .37-.927 7.788 3.709 12.794 2.41 2.596 5.933 3.894 10.384 3.894.741 0 1.483 0 2.225-.185.741 0 1.483.185 2.225.185 4.45 0 7.973-1.298 10.384-3.894 4.636-4.821 3.894-12.424 3.709-12.794-.186-.371-.557-.928-1.113-.928Zm-23.735 7.788c-.556.557-.556 1.299 0 1.855l5.377 5.377c-3.152-.185-5.748-1.112-7.602-2.967-2.782-2.967-3.153-7.417-3.153-9.457 2.04 0 6.491.186 9.457 3.153 1.669 1.669 2.596 3.708 2.967 6.49v.927l-5.192-5.192c-.556-.742-1.298-.742-1.854-.186ZM124.596 78.8c0 7.788-6.305 14.092-14.093 14.092S96.411 86.588 96.411 78.8c0-7.788 6.304-14.092 14.092-14.092s14.093 6.304 14.093 14.093Zm-5.563 31.152c.556-.556.556-1.298 0-1.855a1.416 1.416 0 0 0-.927-.37c-.371 0-.742.185-.927.37l-5.192 5.193v-.371c.185-3.153 1.298-5.563 2.967-7.232 2.967-2.782 7.417-3.152 9.457-3.152 0 2.225-.186 6.49-3.153 9.457-1.669 1.854-4.265 2.781-7.602 2.966l5.377-5.006Z" fill="#8736C0"/><path d="M107.054 83.925a.455.455 0 0 1-.298-.11.374.374 0 0 1-.116-.283v-1.587h-1.226a.416.416 0 0 1-.298-.11.356.356 0 0 1-.116-.267v-.55c0-.105.039-.194.116-.267a.416.416 0 0 1 .298-.11h1.226v-.817h-1.226a.416.416 0 0 1-.298-.11.374.374 0 0 1-.116-.283V78.41c0-.105.039-.194.116-.268a.416.416 0 0 1 .298-.11h1.226v-4.714c0-.115.039-.21.116-.283a.455.455 0 0 1 .298-.11h4.539c.895 0 1.668.131 2.32.393.662.262 1.176.66 1.54 1.194.365.524.547 1.179.547 1.965 0 .764-.182 1.393-.547 1.885-.364.493-.878.86-1.54 1.1-.652.241-1.425.362-2.32.362h-2.236v.817h2.485c.11 0 .204.037.281.11a.352.352 0 0 1 .116.267v.55a.352.352 0 0 1-.116.267.393.393 0 0 1-.281.11h-2.485v1.587c0 .116-.039.21-.116.283a.416.416 0 0 1-.298.11h-1.889Zm2.27-5.893h2.187c.552 0 .982-.13 1.292-.392.32-.262.48-.655.48-1.179 0-.46-.143-.838-.431-1.131-.276-.294-.723-.44-1.341-.44h-2.187v3.142Z" fill="#8736C0"/><defs><radialGradient id="a" cx="0" cy="0" r="1" gradientUnits="userSpaceOnUse" gradientTransform="matrix(98.5221 0 0 98.4695 114.535 85.955)"><stop stop-color="#828282"/><stop offset=".3" stop-color="#848484" stop-opacity=".98"/><stop offset=".47" stop-color="#8B8B8B" stop-opacity=".92"/><stop offset=".6" stop-color="#969697" stop-opacity=".81"/><stop offset=".72" stop-color="#A6A6A7" stop-opacity=".66"/><stop offset=".83" stop-color="#BBBCBD" stop-opacity=".47"/><stop offset=".92" stop-color="#D4D5D7" stop-opacity=".23"/><stop offset="1" stop-color="#EDEEF0" stop-opacity="0"/></radialGradient><radialGradient id="b" cx="0" cy="0" r="1" gradientUnits="userSpaceOnUse" gradientTransform="matrix(163.113 0 0 163.025 64.255 35.795)"><stop stop-color="#F7F7F8"/><stop offset=".51" stop-color="#FBFBFB"/><stop offset=".72" stop-color="#fff"/></radialGradient></defs></svg>