<svg width="216" height="112" viewBox="0 0 216 112" fill="none" xmlns="http://www.w3.org/2000/svg">
<g filter="url(#filter0_d)">
<g filter="url(#filter1_dd)">
<path fill-rule="evenodd" clip-rule="evenodd" d="M32.8719 32.3681C32 34.0794 32 36.3196 32 40.8V55.2C32 59.6804 32 61.9206 32.8719 63.6319C33.6389 65.1372 34.8628 66.3611 36.3681 67.1281C38.0794 68 40.3196 68 44.8 68H98C100.127 68 101.982 70.2908 103.707 72.4207C105.205 74.2711 106.605 76 108 76C109.392 76 110.785 74.2769 112.277 72.4301C114 70.2975 115.856 68 118 68H171.2C175.68 68 177.921 68 179.632 67.1281C181.137 66.3611 182.361 65.1372 183.128 63.6319C184 61.9206 184 59.6804 184 55.2V40.8C184 36.3196 184 34.0794 183.128 32.3681C182.361 30.8628 181.137 29.6389 179.632 28.8719C177.921 28 175.68 28 171.2 28H44.8C40.3196 28 38.0794 28 36.3681 28.8719C34.8628 29.6389 33.6389 30.8628 32.8719 32.3681Z" fill="#23213D"/>
</g>
<path d="M58.144 53.946C58.0507 53.946 57.9713 53.918 57.906 53.862C57.85 53.806 57.822 53.7267 57.822 53.624V51.062C57.822 50.9687 57.85 50.894 57.906 50.838C57.9713 50.7727 58.0507 50.74 58.144 50.74H58.438C59.3433 50.74 59.796 49.004 59.796 45.532V42.522C59.796 42.4287 59.824 42.354 59.88 42.298C59.9453 42.2327 60.0247 42.2 60.118 42.2H65.578C65.6807 42.2 65.76 42.2327 65.816 42.298C65.8813 42.354 65.914 42.4333 65.914 42.536V50.74H66.6C66.6933 50.74 66.7727 50.7727 66.838 50.838C66.9033 50.894 66.936 50.9687 66.936 51.062V53.624C66.936 53.7173 66.9033 53.792 66.838 53.848C66.782 53.9133 66.7027 53.946 66.6 53.946H65.886C65.7927 53.946 65.7133 53.918 65.648 53.862C65.592 53.806 65.564 53.7267 65.564 53.624V52H59.194V53.624C59.194 53.7173 59.1613 53.792 59.096 53.848C59.04 53.9133 58.9607 53.946 58.858 53.946H58.144ZM64.542 50.74V43.46H61.14V45.714C61.14 47.03 61.0653 48.094 60.916 48.906C60.7667 49.718 60.538 50.3293 60.23 50.74H64.542ZM71.4301 52.14C70.4034 52.14 69.6054 51.8507 69.0361 51.272C68.4761 50.6933 68.1774 49.9233 68.1401 48.962L68.1261 48.36L68.1401 47.758C68.1774 46.806 68.4808 46.0407 69.0501 45.462C69.6194 44.874 70.4128 44.58 71.4301 44.58C72.4474 44.58 73.2408 44.874 73.8101 45.462C74.3794 46.0407 74.6828 46.806 74.7201 47.758C74.7294 47.8607 74.7341 48.0613 74.7341 48.36C74.7341 48.6587 74.7294 48.8593 74.7201 48.962C74.6828 49.9233 74.3794 50.6933 73.8101 51.272C73.2501 51.8507 72.4568 52.14 71.4301 52.14ZM71.4301 51.062C72.0181 51.062 72.4801 50.8753 72.8161 50.502C73.1614 50.1287 73.3481 49.592 73.3761 48.892C73.3854 48.7987 73.3901 48.6213 73.3901 48.36C73.3901 48.0987 73.3854 47.9213 73.3761 47.828C73.3481 47.128 73.1614 46.5913 72.8161 46.218C72.4801 45.8447 72.0181 45.658 71.4301 45.658C70.8421 45.658 70.3754 45.8447 70.0301 46.218C69.6848 46.5913 69.5028 47.128 69.4841 47.828L69.4701 48.36L69.4841 48.892C69.5028 49.592 69.6848 50.1287 70.0301 50.502C70.3754 50.8753 70.8421 51.062 71.4301 51.062ZM79.4272 52.14C78.4285 52.14 77.6445 51.86 77.0752 51.3C76.5152 50.7307 76.2165 49.9373 76.1792 48.92L76.1652 48.36L76.1792 47.8C76.2165 46.7827 76.5152 45.994 77.0752 45.434C77.6445 44.8647 78.4285 44.58 79.4272 44.58C80.0992 44.58 80.6685 44.7013 81.1352 44.944C81.6018 45.1867 81.9472 45.4853 82.1712 45.84C82.4045 46.1947 82.5305 46.5493 82.5492 46.904C82.5585 46.9973 82.5305 47.072 82.4652 47.128C82.3998 47.184 82.3205 47.212 82.2272 47.212H81.5552C81.4618 47.212 81.3918 47.1933 81.3452 47.156C81.2985 47.1187 81.2518 47.044 81.2052 46.932C81.0465 46.484 80.8225 46.1667 80.5332 45.98C80.2438 45.784 79.8798 45.686 79.4412 45.686C78.8625 45.686 78.4005 45.868 78.0552 46.232C77.7192 46.5867 77.5372 47.1327 77.5092 47.87L77.4952 48.374L77.5092 48.85C77.5372 49.5967 77.7192 50.1473 78.0552 50.502C78.3912 50.8567 78.8532 51.034 79.4412 51.034C79.8798 51.034 80.2438 50.9407 80.5332 50.754C80.8225 50.558 81.0465 50.236 81.2052 49.788C81.2518 49.676 81.2985 49.6013 81.3452 49.564C81.3918 49.5173 81.4618 49.494 81.5552 49.494H82.2272C82.3205 49.494 82.3998 49.5267 82.4652 49.592C82.5305 49.648 82.5585 49.7227 82.5492 49.816C82.5305 50.1613 82.4045 50.516 82.1712 50.88C81.9472 51.2347 81.6018 51.5333 81.1352 51.776C80.6778 52.0187 80.1085 52.14 79.4272 52.14ZM86.4378 52C86.3444 52 86.2651 51.972 86.1998 51.916C86.1438 51.8507 86.1158 51.7713 86.1158 51.678V45.84H83.6798C83.5864 45.84 83.5071 45.812 83.4418 45.756C83.3858 45.6907 83.3578 45.6113 83.3578 45.518V45.042C83.3578 44.9487 83.3858 44.874 83.4418 44.818C83.5071 44.7527 83.5864 44.72 83.6798 44.72H89.8398C89.9331 44.72 90.0078 44.7527 90.0638 44.818C90.1291 44.874 90.1618 44.9487 90.1618 45.042V45.518C90.1618 45.6113 90.1291 45.6907 90.0638 45.756C90.0078 45.812 89.9331 45.84 89.8398 45.84H87.4038V51.678C87.4038 51.7713 87.3758 51.8507 87.3198 51.916C87.2638 51.972 87.1891 52 87.0958 52H86.4378ZM97.3538 44.72C97.4285 44.72 97.4938 44.748 97.5498 44.804C97.6058 44.86 97.6338 44.9253 97.6338 45C97.6338 45.0653 97.6105 45.1493 97.5638 45.252L94.9038 51.552L94.7778 51.832C94.5352 52.42 94.3112 52.9053 94.1058 53.288C93.9005 53.6707 93.6438 53.9927 93.3358 54.254C93.0278 54.5247 92.6638 54.66 92.2438 54.66H91.7118C91.6185 54.66 91.5392 54.632 91.4738 54.576C91.4178 54.52 91.3898 54.4407 91.3898 54.338V53.862C91.3898 53.7687 91.4178 53.6893 91.4738 53.624C91.5392 53.568 91.6185 53.54 91.7118 53.54H92.0758C92.2812 53.54 92.4492 53.498 92.5798 53.414C92.7105 53.3393 92.8272 53.2087 92.9298 53.022C93.0418 52.8353 93.1772 52.5507 93.3358 52.168L93.5738 51.594L90.8298 45.252C90.7832 45.1307 90.7598 45.0513 90.7598 45.014C90.7692 44.93 90.8018 44.86 90.8578 44.804C90.9138 44.748 90.9792 44.72 91.0538 44.72H91.7118C91.8705 44.72 91.9872 44.7993 92.0618 44.958L94.2038 50.096L96.3738 44.958C96.4392 44.7993 96.5558 44.72 96.7238 44.72H97.3538ZM99.3678 52C99.2744 52 99.1951 51.972 99.1298 51.916C99.0738 51.8507 99.0458 51.7713 99.0458 51.678V45.042C99.0458 44.9487 99.0738 44.874 99.1298 44.818C99.1951 44.7527 99.2744 44.72 99.3678 44.72H104.926C105.019 44.72 105.094 44.7527 105.15 44.818C105.215 44.874 105.248 44.9487 105.248 45.042V51.678C105.248 51.7713 105.215 51.8507 105.15 51.916C105.094 51.972 105.019 52 104.926 52H104.254C104.16 52 104.086 51.972 104.03 51.916C103.974 51.8507 103.946 51.7713 103.946 51.678V45.84H100.362V51.678C100.362 51.7713 100.329 51.8507 100.264 51.916C100.208 51.972 100.133 52 100.04 52H99.3678ZM113.297 52.14C112.615 52.14 112.051 52.0327 111.603 51.818C111.164 51.6033 110.842 51.342 110.637 51.034C110.441 50.726 110.338 50.4227 110.329 50.124V50.096C110.329 50.0213 110.357 49.9607 110.413 49.914C110.469 49.8673 110.534 49.844 110.609 49.844H111.267C111.435 49.844 111.547 49.9327 111.603 50.11C111.705 50.4647 111.906 50.7167 112.205 50.866C112.513 51.006 112.914 51.076 113.409 51.076C113.885 51.076 114.277 50.978 114.585 50.782C114.893 50.586 115.047 50.2967 115.047 49.914C115.047 49.522 114.935 49.2327 114.711 49.046C114.496 48.85 114.16 48.752 113.703 48.752H112.933C112.849 48.752 112.779 48.724 112.723 48.668C112.667 48.612 112.639 48.5373 112.639 48.444V48.066C112.639 47.9727 112.667 47.898 112.723 47.842C112.779 47.786 112.849 47.758 112.933 47.758H113.619C114.412 47.758 114.809 47.4453 114.809 46.82C114.809 46.484 114.687 46.204 114.445 45.98C114.211 45.756 113.829 45.644 113.297 45.644C112.783 45.644 112.41 45.7327 112.177 45.91C111.953 46.078 111.789 46.3487 111.687 46.722C111.649 46.8153 111.603 46.8853 111.547 46.932C111.5 46.9693 111.43 46.988 111.337 46.988H110.707C110.623 46.988 110.553 46.9647 110.497 46.918C110.441 46.862 110.413 46.7967 110.413 46.722C110.422 46.3393 110.534 45.9847 110.749 45.658C110.963 45.3313 111.285 45.07 111.715 44.874C112.144 44.678 112.671 44.58 113.297 44.58C113.95 44.58 114.487 44.6827 114.907 44.888C115.327 45.0933 115.63 45.35 115.817 45.658C116.003 45.966 116.097 46.288 116.097 46.624C116.097 47.0067 116.031 47.3193 115.901 47.562C115.779 47.7953 115.555 47.9913 115.229 48.15C115.63 48.2993 115.915 48.5327 116.083 48.85C116.26 49.1673 116.349 49.5547 116.349 50.012C116.349 50.6933 116.069 51.2207 115.509 51.594C114.949 51.958 114.211 52.14 113.297 52.14ZM119.957 52.14C119.499 52.14 119.075 52.0467 118.683 51.86C118.291 51.6733 117.978 51.4213 117.745 51.104C117.521 50.7773 117.409 50.418 117.409 50.026C117.409 49.41 117.661 48.906 118.165 48.514C118.678 48.1127 119.369 47.8513 120.237 47.73L122.323 47.436V47.03C122.323 46.078 121.777 45.602 120.685 45.602C120.274 45.602 119.938 45.6907 119.677 45.868C119.415 46.036 119.219 46.2367 119.089 46.47C119.061 46.554 119.023 46.6147 118.977 46.652C118.939 46.6893 118.883 46.708 118.809 46.708H118.207C118.123 46.708 118.048 46.68 117.983 46.624C117.927 46.5587 117.899 46.484 117.899 46.4C117.908 46.176 118.011 45.924 118.207 45.644C118.412 45.3547 118.725 45.1073 119.145 44.902C119.565 44.6873 120.083 44.58 120.699 44.58C121.744 44.58 122.495 44.8273 122.953 45.322C123.41 45.8073 123.639 46.414 123.639 47.142V51.678C123.639 51.7713 123.606 51.8507 123.541 51.916C123.485 51.972 123.41 52 123.317 52H122.673C122.579 52 122.5 51.972 122.435 51.916C122.379 51.8507 122.351 51.7713 122.351 51.678V51.076C122.145 51.3747 121.847 51.6267 121.455 51.832C121.063 52.0373 120.563 52.14 119.957 52.14ZM120.251 51.09C120.857 51.09 121.352 50.894 121.735 50.502C122.127 50.1007 122.323 49.5267 122.323 48.78V48.388L120.699 48.626C120.036 48.7193 119.537 48.878 119.201 49.102C118.865 49.3167 118.697 49.592 118.697 49.928C118.697 50.3013 118.851 50.5907 119.159 50.796C119.467 50.992 119.831 51.09 120.251 51.09ZM131.727 51.594C131.774 51.65 131.797 51.7107 131.797 51.776C131.797 51.8413 131.769 51.8973 131.713 51.944C131.667 51.9813 131.601 52 131.517 52H130.663C130.514 52 130.393 51.93 130.299 51.79L128.269 48.864H126.953V51.678C126.953 51.7713 126.921 51.8507 126.855 51.916C126.799 51.972 126.725 52 126.631 52H125.973C125.88 52 125.801 51.972 125.735 51.916C125.679 51.8507 125.651 51.7713 125.651 51.678V45.042C125.651 44.9487 125.679 44.874 125.735 44.818C125.801 44.7527 125.88 44.72 125.973 44.72H126.631C126.725 44.72 126.799 44.7527 126.855 44.818C126.921 44.874 126.953 44.9487 126.953 45.042V47.73H128.241L130.117 44.93C130.229 44.79 130.355 44.72 130.495 44.72H131.223C131.307 44.72 131.377 44.7433 131.433 44.79C131.489 44.8273 131.517 44.8787 131.517 44.944C131.517 44.9907 131.494 45.0467 131.447 45.112L129.361 48.206L131.727 51.594ZM133.493 54.66C133.4 54.66 133.32 54.6273 133.255 54.562C133.199 54.506 133.171 54.4313 133.171 54.338V45.042C133.171 44.9487 133.199 44.874 133.255 44.818C133.32 44.7527 133.4 44.72 133.493 44.72H134.137C134.23 44.72 134.305 44.7527 134.361 44.818C134.426 44.874 134.459 44.9487 134.459 45.042V45.658C134.982 44.9393 135.747 44.58 136.755 44.58C137.735 44.58 138.468 44.888 138.953 45.504C139.448 46.12 139.714 46.9133 139.751 47.884C139.76 47.9867 139.765 48.1453 139.765 48.36C139.765 48.5747 139.76 48.7333 139.751 48.836C139.714 49.7973 139.448 50.5907 138.953 51.216C138.458 51.832 137.726 52.14 136.755 52.14C135.784 52.14 135.028 51.79 134.487 51.09V54.338C134.487 54.4313 134.459 54.506 134.403 54.562C134.347 54.6273 134.272 54.66 134.179 54.66H133.493ZM136.461 51.006C137.124 51.006 137.604 50.8007 137.903 50.39C138.211 49.9793 138.379 49.438 138.407 48.766C138.416 48.6727 138.421 48.5373 138.421 48.36C138.421 46.596 137.768 45.714 136.461 45.714C135.817 45.714 135.332 45.9287 135.005 46.358C134.688 46.778 134.515 47.282 134.487 47.87L134.473 48.402L134.487 48.948C134.506 49.4987 134.683 49.9793 135.019 50.39C135.355 50.8007 135.836 51.006 136.461 51.006ZM141.819 52C141.726 52 141.646 51.972 141.581 51.916C141.525 51.8507 141.497 51.7713 141.497 51.678V45.042C141.497 44.9487 141.525 44.874 141.581 44.818C141.646 44.7527 141.726 44.72 141.819 44.72H142.491C142.584 44.72 142.659 44.7527 142.715 44.818C142.78 44.874 142.813 44.9487 142.813 45.042V47.1H144.269C145.193 47.1 145.879 47.3193 146.327 47.758C146.784 48.1873 147.013 48.7987 147.013 49.592C147.013 50.4133 146.77 51.02 146.285 51.412C145.809 51.804 145.081 52 144.101 52H141.819ZM148.329 52C148.236 52 148.156 51.972 148.091 51.916C148.035 51.8507 148.007 51.7713 148.007 51.678V45.042C148.007 44.9487 148.035 44.874 148.091 44.818C148.156 44.7527 148.236 44.72 148.329 44.72H149.001C149.094 44.72 149.169 44.7527 149.225 44.818C149.29 44.874 149.323 44.9487 149.323 45.042V51.678C149.323 51.7713 149.29 51.8507 149.225 51.916C149.169 51.972 149.094 52 149.001 52H148.329ZM144.143 50.95C144.722 50.95 145.137 50.8473 145.389 50.642C145.65 50.4367 145.781 50.0867 145.781 49.592C145.781 49.0973 145.65 48.7333 145.389 48.5C145.137 48.2667 144.722 48.15 144.143 48.15H142.799V50.95H144.143ZM153.635 52C153.542 52 153.462 51.972 153.397 51.916C153.341 51.8507 153.313 51.7713 153.313 51.678V45.84H150.877C150.784 45.84 150.704 45.812 150.639 45.756C150.583 45.6907 150.555 45.6113 150.555 45.518V45.042C150.555 44.9487 150.583 44.874 150.639 44.818C150.704 44.7527 150.784 44.72 150.877 44.72H157.037C157.13 44.72 157.205 44.7527 157.261 44.818C157.326 44.874 157.359 44.9487 157.359 45.042V45.518C157.359 45.6113 157.326 45.6907 157.261 45.756C157.205 45.812 157.13 45.84 157.037 45.84H154.601V51.678C154.601 51.7713 154.573 51.8507 154.517 51.916C154.461 51.972 154.386 52 154.293 52H153.635Z" fill="#F4F7FE"/>
</g>
<defs>
<filter id="filter0_d" x="25" y="25" width="166.15" height="62" filterUnits="userSpaceOnUse" color-interpolation-filters="sRGB">
<feFlood flood-opacity="0" result="BackgroundImageFix"/>
<feColorMatrix in="SourceAlpha" type="matrix" values="0 0 0 0 0 0 0 0 0 0 0 0 0 0 0 0 0 0 127 0" result="hardAlpha"/>
<feOffset dy="4"/>
<feGaussianBlur stdDeviation="3.5"/>
<feColorMatrix type="matrix" values="0 0 0 0 0.47451 0 0 0 0 0.494118 0 0 0 0 0.576471 0 0 0 0.06 0"/>
<feBlend mode="normal" in2="BackgroundImageFix" result="effect1_dropShadow"/>
<feBlend mode="normal" in="SourceGraphic" in2="effect1_dropShadow" result="shape"/>
</filter>
<filter id="filter1_dd" x="0" y="0" width="216" height="112" filterUnits="userSpaceOnUse" color-interpolation-filters="sRGB">
<feFlood flood-opacity="0" result="BackgroundImageFix"/>
<feColorMatrix in="SourceAlpha" type="matrix" values="0 0 0 0 0 0 0 0 0 0 0 0 0 0 0 0 0 0 127 0" result="hardAlpha"/>
<feOffset dy="4"/>
<feGaussianBlur stdDeviation="16"/>
<feColorMatrix type="matrix" values="0 0 0 0 0 0 0 0 0 0 0 0 0 0 0 0 0 0 0.16 0"/>
<feBlend mode="normal" in2="BackgroundImageFix" result="effect1_dropShadow"/>
<feColorMatrix in="SourceAlpha" type="matrix" values="0 0 0 0 0 0 0 0 0 0 0 0 0 0 0 0 0 0 127 0" result="hardAlpha"/>
<feOffset/>
<feGaussianBlur stdDeviation="2"/>
<feColorMatrix type="matrix" values="0 0 0 0 0 0 0 0 0 0 0 0 0 0 0 0 0 0 0.04 0"/>
<feBlend mode="normal" in2="effect1_dropShadow" result="effect2_dropShadow"/>
<feBlend mode="normal" in="SourceGraphic" in2="effect2_dropShadow" result="shape"/>
</filter>
</defs>
</svg>
