<svg width="262" height="229" viewBox="0 0 262 229" fill="none" xmlns="http://www.w3.org/2000/svg">
<g clip-path="url(#clip0)">
<path opacity="0.7" d="M144.475 0.7894C143.754 0.7894 142.96 0.860781 142.196 0.917886C126.962 1.96563 112.231 6.74388 99.3261 14.8229C96.7646 16.44 94.294 18.1938 91.9251 20.0765C84.9858 25.5871 78.7606 32.3184 75.464 40.4915C73.7472 44.7743 72.8672 49.2785 71.8573 53.7469C69.0874 65.5819 64.6439 77.8023 55.0428 85.3687C43.0757 94.8052 28.5262 98.0459 18.1244 109.902C7.83802 121.63 0.667862 135.171 0.689502 151.018C0.689502 190.47 35.1193 204.175 67.3489 214.068C105.465 225.818 146.012 231.2 185.765 225.853C202.608 223.584 219.668 219.208 233.374 209.322C253.946 194.531 263.836 167.392 259.565 142.845C257.401 130.389 253.593 119.132 252.561 106.333C251.22 89.6444 254.054 72.5344 249.113 56.231C240.89 29.1847 212.325 11.5037 185.483 6.4856C171.778 3.93016 158.599 0.246905 144.475 0.7894Z" fill="white"/>
<path opacity="0.7" d="M144.475 0.7894C143.754 0.7894 142.96 0.860781 142.196 0.917886C126.962 1.96563 112.231 6.74388 99.3261 14.8229C96.7646 16.44 94.294 18.1938 91.9251 20.0765C84.9858 25.5871 78.7606 32.3184 75.464 40.4915C73.7472 44.7743 72.8672 49.2785 71.8573 53.7469C69.0874 65.5819 64.6439 77.8023 55.0428 85.3687C43.0757 94.8052 28.5262 98.0459 18.1244 109.902C7.83802 121.63 0.667862 135.171 0.689502 151.018C0.689502 190.47 35.1193 204.175 67.3489 214.068C105.465 225.818 146.012 231.2 185.765 225.853C202.608 223.584 219.668 219.208 233.374 209.322C253.946 194.531 263.836 167.392 259.565 142.845C257.401 130.389 253.593 119.132 252.561 106.333C251.22 89.6444 254.054 72.5344 249.113 56.231C240.89 29.1847 212.325 11.5037 185.483 6.4856C171.778 3.93016 158.599 0.246905 144.475 0.7894Z" fill="#F6F7FA"/>
<path d="M113.151 29.8361H177.075C184.083 29.8361 189.765 35.5244 189.765 42.5425V196.593C189.765 203.611 184.083 209.299 177.075 209.299H113.151C106.143 209.299 100.461 203.611 100.461 196.593V42.5425C100.461 35.5244 106.143 29.8361 113.151 29.8361Z" fill="#43419E" stroke="#010101"/>
<path d="M174.786 32.1422H115.229C108.377 32.1422 102.823 37.7718 102.823 44.7164V192.504C102.823 199.448 108.377 205.078 115.229 205.078H174.786C181.638 205.078 187.192 199.448 187.192 192.504V44.7164C187.192 37.7718 181.638 32.1422 174.786 32.1422Z" fill="#473F47"/>
<path d="M185.082 46.465V190.755C185.092 192.35 184.793 193.93 184.203 195.407C183.613 196.884 182.743 198.228 181.643 199.362C180.544 200.496 179.236 201.398 177.794 202.017C176.352 202.636 174.804 202.96 173.24 202.969H116.793C114.724 202.972 112.692 202.415 110.903 201.355C109.084 200.276 107.575 198.729 106.527 196.869C105.479 195.008 104.929 192.9 104.933 190.755V46.465C104.919 43.2432 106.16 40.1474 108.383 37.8573C110.607 35.5673 113.632 34.2703 116.793 34.2511H126.34V36.0646C126.353 37.2173 126.696 38.3411 127.329 39.2969C127.961 40.2526 128.855 40.9983 129.899 41.4416C130.593 41.7229 131.333 41.8675 132.079 41.8678H158.31C159.836 41.8582 161.297 41.2327 162.373 40.1282C163.448 39.0236 164.051 37.53 164.049 35.9739V34.2511H173.284C176.342 34.2534 179.278 35.4699 181.47 37.6423C182.623 38.7904 183.536 40.1633 184.157 41.6791C184.778 43.1949 185.092 44.8225 185.082 46.465Z" fill="white"/>
<path d="M185.082 46.3972V89.0844H104.933V46.3972C104.926 44.8078 105.228 43.2325 105.822 41.7615C106.416 40.2905 107.29 38.9527 108.394 37.8246C109.499 36.6965 110.812 35.8002 112.258 35.1871C113.704 34.5739 115.256 34.2558 116.824 34.2511H126.384V36.0545C126.396 37.2009 126.74 38.3185 127.372 39.2689C128.005 40.2193 128.898 40.9608 129.942 41.4017C130.635 41.6815 131.374 41.8253 132.121 41.8255H158.339C159.865 41.816 161.326 41.194 162.401 40.0956C163.476 38.9972 164.078 37.5118 164.076 35.9644V34.2511H173.307C176.363 34.2534 179.298 35.4632 181.489 37.6235C182.638 38.7668 183.548 40.1327 184.166 41.64C184.783 43.1473 185.095 44.7652 185.082 46.3972Z" fill="#43419E"/>
<path d="M137.904 49.3868H113.859C112.648 49.3868 111.667 50.4924 111.667 51.8563V51.9302C111.667 53.294 112.648 54.3997 113.859 54.3997H137.904C139.115 54.3997 140.096 53.294 140.096 51.9302V51.8563C140.096 50.4924 139.115 49.3868 137.904 49.3868Z" fill="white"/>
<path d="M157.968 59.4128H115.535C113.399 59.4128 111.667 60.887 111.667 62.7055V62.804C111.667 64.6224 113.399 66.0966 115.535 66.0966H157.968C160.104 66.0966 161.836 64.6224 161.836 62.804V62.7055C161.836 60.887 160.104 59.4128 157.968 59.4128Z" fill="white"/>
<path d="M157.968 69.4385H115.535C113.399 69.4385 111.667 70.9127 111.667 72.7311V72.8296C111.667 74.6481 113.399 76.1223 115.535 76.1223H157.968C160.104 76.1223 161.836 74.6481 161.836 72.8296V72.7311C161.836 70.9127 160.104 69.4385 157.968 69.4385Z" fill="white"/>
<path d="M173.086 100.684H141.501C140.525 100.684 139.734 101.419 139.734 102.326V102.384C139.734 103.291 140.525 104.026 141.501 104.026H173.086C174.062 104.026 174.853 103.291 174.853 102.384V102.326C174.853 101.419 174.062 100.684 173.086 100.684Z" fill="#757575"/>
<path d="M173.086 110.71H141.501C140.525 110.71 139.734 111.445 139.734 112.351V112.41C139.734 113.317 140.525 114.052 141.501 114.052H173.086C174.062 114.052 174.853 113.317 174.853 112.41V112.351C174.853 111.445 174.062 110.71 173.086 110.71Z" fill="#757575"/>
<path d="M173.086 120.736H141.501C140.525 120.736 139.734 121.471 139.734 122.377V122.436C139.734 123.343 140.525 124.078 141.501 124.078H173.086C174.062 124.078 174.853 123.343 174.853 122.436V122.377C174.853 121.471 174.062 120.736 173.086 120.736Z" fill="#757575"/>
<path d="M173.086 130.761H141.501C140.525 130.761 139.734 131.496 139.734 132.403V132.462C139.734 133.368 140.525 134.103 141.501 134.103H173.086C174.062 134.103 174.853 133.368 174.853 132.462V132.403C174.853 131.496 174.062 130.761 173.086 130.761Z" fill="#757575"/>
<path d="M173.086 140.787H141.501C140.525 140.787 139.734 141.522 139.734 142.429V142.488C139.734 143.394 140.525 144.129 141.501 144.129H173.086C174.062 144.129 174.853 143.394 174.853 142.488V142.429C174.853 141.522 174.062 140.787 173.086 140.787Z" fill="#757575"/>
<path d="M171.353 155.517H114.443C112.685 155.517 111.26 156.909 111.26 158.625V158.737C111.26 160.453 112.685 161.844 114.443 161.844H171.353C173.111 161.844 174.536 160.453 174.536 158.737V158.625C174.536 156.909 173.111 155.517 171.353 155.517Z" fill="#757575"/>
<path d="M171.353 165.008H114.443C112.685 165.008 111.26 166.399 111.26 168.115V168.227C111.26 169.943 112.685 171.335 114.443 171.335H171.353C173.111 171.335 174.536 169.943 174.536 168.227V168.115C174.536 166.399 173.111 165.008 171.353 165.008Z" fill="#757575"/>
<path d="M245.374 24.9602V53.9319C245.395 55.2594 245.154 56.5782 244.663 57.813C244.172 59.0477 243.441 60.1742 242.512 61.1281C241.583 62.082 240.474 62.8447 239.249 63.3725C238.023 63.9003 236.705 64.1829 235.37 64.2042H213.112L203.053 78.6855V64.2042H184.125C181.427 64.1588 178.859 63.0518 176.982 61.1261C175.104 59.2003 174.072 56.6131 174.111 53.9319V24.9602C174.072 22.2789 175.104 19.6917 176.982 17.766C178.859 15.8402 181.427 14.7333 184.125 14.6878H235.333C236.67 14.702 237.991 14.9782 239.22 15.5006C240.45 16.023 241.564 16.7812 242.498 17.732C243.432 18.6827 244.169 19.8073 244.665 21.0414C245.162 22.2755 245.409 23.5948 245.392 24.9238L245.374 24.9602Z" fill="url(#paint0_linear)"/>
<path d="M241.609 53.9319L241.609 53.9401C241.629 55.2015 241.4 56.4548 240.933 57.6282C240.467 58.8017 239.772 59.8724 238.889 60.7793C238.006 61.6861 236.951 62.4113 235.786 62.9132C234.622 63.4147 233.369 63.6834 232.101 63.7042H209.866H209.604L209.455 63.919L200.307 77.0892V64.2042V63.7042H199.807H180.844C179.574 63.6892 178.319 63.4257 177.151 62.9289C175.982 62.4317 174.924 61.7106 174.036 60.807C173.148 59.9033 172.448 58.8347 171.975 57.6624L171.512 57.8492L171.975 57.6624C171.503 56.49 171.267 55.2368 171.282 53.9741H171.282V53.9682V24.9602H171.283L171.282 24.9524C171.263 23.6869 171.495 22.4299 171.965 21.2536C172.435 20.0773 173.135 19.0046 174.023 18.0973C174.912 17.1899 175.972 16.4657 177.143 15.9664C178.313 15.4674 179.571 15.2028 180.844 15.1878H232.047C233.316 15.2017 234.57 15.4638 235.738 15.9591C236.906 16.4548 237.964 17.1743 238.852 18.0763C239.74 18.9783 240.44 20.0453 240.913 21.2161C241.386 22.3869 241.622 23.6387 241.609 24.9002V24.9056V24.9602L241.609 53.9319Z" fill="white" stroke="black"/>
<path d="M185.004 45.9512L192.842 36.8049L205.504 49L213.945 36.8049L219.372 39.8537L226.004 24" stroke="#43419E" stroke-linecap="round"/>
<path d="M82.725 153.013H122.192C124.845 152.968 127.372 151.879 129.218 149.983C131.063 148.087 132.076 145.541 132.034 142.903V56.9272C132.055 55.6217 131.817 54.3248 131.333 53.1108C130.85 51.8967 130.131 50.7892 129.217 49.8515C128.303 48.9138 127.212 48.1643 126.007 47.6458C124.801 47.1272 123.505 46.8498 122.192 46.8294H82.725V145.35H32.5098C32.5098 145.35 32.8729 148.669 33.8071 150.536C35.1045 153.128 36.4019 153.128 36.4019 153.128C42.8888 153.128 82.725 153.013 82.725 153.013Z" fill="url(#paint1_linear)"/>
<path d="M32.3853 47.3294H116.227C120.901 47.3294 124.685 51.0952 124.685 55.7343V137.481C124.685 142.12 120.901 145.885 116.227 145.885H32.3853C27.7115 145.885 23.9277 142.12 23.9277 137.481V55.7343C23.9277 51.0952 27.7115 47.3294 32.3853 47.3294Z" fill="white" stroke="#010101"/>
<path d="M47.1064 128.392L107.003 74.9897M107.003 74.9897L83.9106 80.0413M107.003 74.9897L101.23 94.4743" stroke="#43419E" stroke-linecap="round"/>
<path d="M77.416 112.516L94.7356 96.6392M94.7356 96.6392L88.0582 98.141M94.7356 96.6392L93.0663 102.432" stroke="#43419E" stroke-linecap="round"/>
<path d="M37.0039 126.949L54.3235 111.072M54.3235 111.072L47.6461 112.574M54.3235 111.072L52.6541 116.865" stroke="#43419E" stroke-linecap="round"/>
<path d="M70.2002 77.8763L87.5198 62M87.5198 62L80.8424 63.5018M87.5198 62L85.8504 67.7927" stroke="#43419E" stroke-linecap="round"/>
<path d="M211.891 227.915H127.762C125.162 227.915 122.951 225.705 122.951 223.105V182.68C122.951 180.08 125.162 177.87 127.762 177.87H211.891C214.492 177.87 216.702 180.08 216.702 182.68V223.105C216.702 225.705 214.492 227.915 211.891 227.915Z" fill="white" stroke="#263238" stroke-miterlimit="10" stroke-linecap="round" stroke-linejoin="round"/>
<path d="M128.543 221.544H209.681" stroke="#263238" stroke-miterlimit="10" stroke-linecap="round" stroke-linejoin="round"/>
<path d="M142.887 212.055H135.524C134.972 212.055 134.524 212.503 134.524 213.055V220.414C134.524 220.966 134.972 221.414 135.524 221.414H142.887C143.439 221.414 143.887 220.966 143.887 220.414V213.055C143.887 212.503 143.439 212.055 142.887 212.055Z" fill="#43419E" stroke="#263238" stroke-miterlimit="10"/>
<path d="M156.67 199.579H149.308C148.755 199.579 148.308 200.027 148.308 200.579V220.547C148.308 221.099 148.755 221.547 149.308 221.547H156.67C157.222 221.547 157.67 221.099 157.67 220.547V200.579C157.67 200.027 157.222 199.579 156.67 199.579Z" fill="#43419E" stroke="#263238" stroke-miterlimit="10"/>
<path d="M172.273 203.347H164.911C164.359 203.347 163.911 203.794 163.911 204.347V220.675C163.911 221.227 164.359 221.675 164.911 221.675H172.273C172.826 221.675 173.273 221.227 173.273 220.675V204.347C173.273 203.794 172.826 203.347 172.273 203.347Z" fill="#43419E" stroke="#263238" stroke-miterlimit="10"/>
<path d="M188.527 185.148H181.165C180.613 185.148 180.165 185.596 180.165 186.148V220.284C180.165 220.836 180.613 221.284 181.165 221.284H188.527C189.079 221.284 189.527 220.836 189.527 220.284V186.148C189.527 185.596 189.079 185.148 188.527 185.148Z" fill="#43419E" stroke="#263238" stroke-miterlimit="10"/>
<path d="M204.91 185.407H197.548C196.996 185.407 196.548 185.855 196.548 186.407V220.543C196.548 221.096 196.996 221.543 197.548 221.543H204.91C205.462 221.543 205.91 221.096 205.91 220.543V186.407C205.91 185.855 205.462 185.407 204.91 185.407Z" fill="#43419E" stroke="#263238" stroke-miterlimit="10"/>
</g>
<defs>
<linearGradient id="paint0_linear" x1="306.586" y1="102.012" x2="125.577" y2="-15.8947" gradientUnits="userSpaceOnUse">
<stop offset="0.01"/>
<stop offset="0.08" stop-opacity="0.69"/>
<stop offset="0.21" stop-opacity="0.32"/>
<stop offset="1" stop-opacity="0"/>
</linearGradient>
<linearGradient id="paint1_linear" x1="2260.27" y1="29937.5" x2="26824.8" y2="21086.9" gradientUnits="userSpaceOnUse">
<stop offset="0.01"/>
<stop offset="0.08" stop-opacity="0.69"/>
<stop offset="0.21" stop-opacity="0.32"/>
<stop offset="1" stop-opacity="0"/>
</linearGradient>
<clipPath id="clip0">
<rect width="261" height="229" fill="white" transform="translate(0.00390625)"/>
</clipPath>
</defs>
</svg>
