<svg width="283" height="283" viewBox="0 0 283 283" fill="none" xmlns="http://www.w3.org/2000/svg">
<path d="M259.794 74.6158C244.755 45.9196 216.212 26.036 185.484 18.5026C156.148 11.32 120.829 11.6709 98.7497 35.3354C84.2092 50.9174 78.3737 72.6122 65.5538 89.4393C59.175 97.8048 51.1944 101.631 42.8346 107.483C22.4699 121.752 7.48789 144.715 10.7537 170.683C16.2439 214.101 55.8526 237.42 95.6537 240.041C148.258 243.499 185.772 236.469 217.638 216.104C234.194 205.526 250.698 192.972 260.801 175.602C276.083 149.333 275.455 116.2 265.573 87.996C263.97 83.4028 262.039 78.9312 259.794 74.6158Z" fill="#F6F7FA"/>
<path opacity="0.8" d="M259.794 74.6158C244.755 45.9196 216.212 26.036 185.484 18.5026C156.148 11.32 120.829 11.6709 98.7497 35.3354C84.2092 50.9174 78.3737 72.6122 65.5538 89.4393C59.175 97.8048 51.1944 101.631 42.8346 107.483C22.4699 121.752 7.48789 144.715 10.7537 170.683C16.2439 214.101 55.8526 237.42 95.6537 240.041C148.258 243.499 185.772 236.469 217.638 216.104C234.194 205.526 250.698 192.972 260.801 175.602C276.083 149.333 275.455 116.2 265.573 87.996C263.97 83.4028 262.039 78.9312 259.794 74.6158Z" fill="#F6F7FA"/>
<path d="M139.293 265.341H133.888V30.1905C133.888 29.4744 134.172 28.7877 134.678 28.2814C135.185 27.7751 135.871 27.4907 136.588 27.4907C136.943 27.4899 137.294 27.5592 137.622 27.6945C137.951 27.8299 138.249 28.0286 138.5 28.2794C138.752 28.5302 138.951 28.8281 139.087 29.156C139.223 29.4839 139.293 29.8355 139.293 30.1905V265.341Z" fill="#6E6BEA" stroke="#263238" stroke-linecap="round" stroke-linejoin="round"/>
<path d="M133.735 58.8132H86.3662V75.4932H133.735V58.8132Z" fill="#263238" stroke="#263238" stroke-linecap="round" stroke-linejoin="round"/>
<path d="M186.752 40.9332H139.384V57.6132H186.752V40.9332Z" fill="#263238" stroke="#263238" stroke-linecap="round" stroke-linejoin="round"/>
<path d="M139.384 86.898L165.833 90.26V66.8559L139.384 70.218V86.898Z" fill="#263238" stroke="#263238" stroke-linecap="round" stroke-linejoin="round"/>
<path d="M160.501 79.0024L154.665 72.567V75.3743L142.474 75.8554V81.9683L154.665 82.5739V85.3812L160.501 79.0024Z" fill="#6E6BEA" stroke="#263238" stroke-linecap="round" stroke-linejoin="round"/>
<path d="M179.53 48.0591L170.53 42.8632V45.1385H146.798V50.9797H170.53V53.2606L179.53 48.0591Z" fill="#6E6BEA" stroke="#263238" stroke-linecap="round" stroke-linejoin="round"/>
<path d="M93.9619 67.2748L102.961 62.0789V64.3542H126.694V70.1953H102.961V72.4707L93.9619 67.2748Z" fill="#6E6BEA" stroke="#263238" stroke-linecap="round" stroke-linejoin="round"/>
<path d="M210.18 75.5496C221.02 75.5496 229.809 66.7615 229.809 55.9208C229.809 45.08 221.02 36.2919 210.18 36.2919C199.339 36.2919 190.551 45.08 190.551 55.9208C190.551 66.7615 199.339 75.5496 210.18 75.5496Z" stroke="#263238" stroke-linecap="round" stroke-linejoin="round"/>
<path d="M223.09 68.8821C221.772 70.1911 220.265 71.294 218.618 72.1536" stroke="#263238" stroke-linecap="round" stroke-linejoin="round"/>
<path d="M216.003 73.2687C211.933 74.6377 207.511 74.5324 203.511 72.971C199.511 71.4096 196.187 68.4916 194.121 64.7274C192.055 60.9632 191.377 56.5924 192.208 52.3794C193.038 48.1665 195.324 44.3796 198.664 41.6811C202.004 38.9826 206.186 37.5443 210.48 37.6177C214.773 37.6912 218.904 39.2717 222.15 42.0829C225.396 44.894 227.55 48.7569 228.236 52.9958C228.922 57.2346 228.096 61.5797 225.902 65.2711" stroke="#263238" stroke-linecap="round" stroke-linejoin="round"/>
<path d="M210.178 57.3697C210.979 57.3697 211.627 56.721 211.627 55.9207C211.627 55.1205 210.979 54.4718 210.178 54.4718C209.378 54.4718 208.729 55.1205 208.729 55.9207C208.729 56.721 209.378 57.3697 210.178 57.3697Z" fill="#263238" stroke="#263238" stroke-linecap="round" stroke-linejoin="round"/>
<path d="M212.262 64.0542L210.179 55.9208L222.336 47.5949" stroke="#263238" stroke-linecap="round" stroke-linejoin="round"/>
<path d="M81.1933 106.849V135.846H59.5947" stroke="#263238" stroke-linecap="round" stroke-linejoin="round"/>
<path d="M41.873 131.295V98.9367H81.1931V104.291" stroke="#263238" stroke-linecap="round" stroke-linejoin="round"/>
<path d="M56.4928 135.846H41.873V133.485" stroke="#263238" stroke-linecap="round" stroke-linejoin="round"/>
<path d="M48.1041 108.021H44.2666V111.859H48.1041V108.021Z" stroke="#263238" stroke-linecap="round" stroke-linejoin="round"/>
<path d="M53.2213 108.021H49.3838V111.859H53.2213V108.021Z" stroke="#263238" stroke-linecap="round" stroke-linejoin="round"/>
<path d="M58.3385 108.021H54.501V111.859H58.3385V108.021Z" stroke="#263238" stroke-linecap="round" stroke-linejoin="round"/>
<path d="M63.4556 108.021H59.6182V111.859H63.4556V108.021Z" stroke="#263238" stroke-linecap="round" stroke-linejoin="round"/>
<path d="M68.5719 108.021H64.7344V111.859H68.5719V108.021Z" stroke="#263238" stroke-linecap="round" stroke-linejoin="round"/>
<path d="M73.6881 108.021H69.8506V111.859H73.6881V108.021Z" stroke="#263238" stroke-linecap="round" stroke-linejoin="round"/>
<path d="M78.8043 108.021H74.9668V111.859H78.8043V108.021Z" stroke="#263238" stroke-linecap="round" stroke-linejoin="round"/>
<path d="M48.1041 114.077H44.2666V117.915H48.1041V114.077Z" stroke="#263238" stroke-linecap="round" stroke-linejoin="round"/>
<path d="M53.2213 114.077H49.3838V117.915H53.2213V114.077Z" stroke="#263238" stroke-linecap="round" stroke-linejoin="round"/>
<path d="M58.3385 114.077H54.501V117.915H58.3385V114.077Z" stroke="#263238" stroke-linecap="round" stroke-linejoin="round"/>
<path d="M63.4556 114.077H59.6182V117.915H63.4556V114.077Z" stroke="#263238" stroke-linecap="round" stroke-linejoin="round"/>
<path d="M68.5719 114.077H64.7344V117.915H68.5719V114.077Z" stroke="#263238" stroke-linecap="round" stroke-linejoin="round"/>
<path d="M73.6881 114.077H69.8506V117.915H73.6881V114.077Z" stroke="#263238" stroke-linecap="round" stroke-linejoin="round"/>
<path d="M78.8043 114.077H74.9668V117.915H78.8043V114.077Z" stroke="#263238" stroke-linecap="round" stroke-linejoin="round"/>
<path d="M48.1041 120.133H44.2666V123.971H48.1041V120.133Z" stroke="#263238" stroke-linecap="round" stroke-linejoin="round"/>
<path d="M53.2213 120.133H49.3838V123.971H53.2213V120.133Z" stroke="#263238" stroke-linecap="round" stroke-linejoin="round"/>
<path d="M58.3385 120.133H54.501V123.971H58.3385V120.133Z" stroke="#263238" stroke-linecap="round" stroke-linejoin="round"/>
<path d="M63.4556 120.133H59.6182V123.971H63.4556V120.133Z" stroke="#263238" stroke-linecap="round" stroke-linejoin="round"/>
<path d="M68.5719 120.133H64.7344V123.971H68.5719V120.133Z" stroke="#263238" stroke-linecap="round" stroke-linejoin="round"/>
<path d="M73.6881 120.133H69.8506V123.971H73.6881V120.133Z" stroke="#263238" stroke-linecap="round" stroke-linejoin="round"/>
<path d="M78.8043 120.133H74.9668V123.971H78.8043V120.133Z" stroke="#263238" stroke-linecap="round" stroke-linejoin="round"/>
<path d="M48.1041 126.19H44.2666V130.027H48.1041V126.19Z" stroke="#263238" stroke-linecap="round" stroke-linejoin="round"/>
<path d="M53.2213 126.19H49.3838V130.027H53.2213V126.19Z" stroke="#263238" stroke-linecap="round" stroke-linejoin="round"/>
<path d="M58.3385 126.19H54.501V130.027H58.3385V126.19Z" stroke="#263238" stroke-linecap="round" stroke-linejoin="round"/>
<path d="M63.4556 126.19H59.6182V130.027H63.4556V126.19Z" stroke="#263238" stroke-linecap="round" stroke-linejoin="round"/>
<path d="M68.5719 126.19H64.7344V130.027H68.5719V126.19Z" stroke="#263238" stroke-linecap="round" stroke-linejoin="round"/>
<path d="M73.6881 126.19H69.8506V130.027H73.6881V126.19Z" stroke="#263238" stroke-linecap="round" stroke-linejoin="round"/>
<path d="M78.8043 126.19H74.9668V130.027H78.8043V126.19Z" stroke="#263238" stroke-linecap="round" stroke-linejoin="round"/>
<path d="M48.8289 101.546H47.1309V95.32H48.8289V101.546ZM55.6209 95.32H53.9229V101.546H55.6209V95.32ZM62.4129 95.32H60.7149V101.546H62.4129V95.32ZM69.2049 95.32H67.5069V101.546H69.2049V95.32ZM75.9969 95.32H74.2989V101.546H75.9969V95.32Z" fill="#263238" stroke="#263238" stroke-linecap="round" stroke-linejoin="round"/>
<path d="M61.5359 160.659C58.5692 160.658 55.6687 161.537 53.2014 163.184C50.7341 164.832 48.8107 167.174 47.6746 169.914C46.5385 172.655 46.2407 175.671 46.8188 178.581C47.3969 181.491 48.8249 184.164 50.9224 186.262C53.0198 188.36 55.6923 189.789 58.602 190.368C61.5117 190.948 64.5278 190.651 67.2688 189.516C70.0099 188.381 72.3527 186.458 74.0011 183.992C75.6494 181.525 76.5293 178.625 76.5293 175.658C76.53 173.689 76.1427 171.738 75.3896 169.919C74.6364 168.099 73.5321 166.445 72.1398 165.053C70.7475 163.66 69.0944 162.555 67.2749 161.801C65.4555 161.047 63.5053 160.659 61.5359 160.659V160.659ZM61.5359 185.144C59.6581 185.145 57.8222 184.589 56.2604 183.547C54.6986 182.504 53.4812 181.022 52.762 179.287C52.0429 177.553 51.8545 175.644 52.2205 173.802C52.5866 171.96 53.4907 170.268 54.8185 168.941C56.1463 167.613 57.8381 166.709 59.6799 166.343C61.5216 165.977 63.4306 166.165 65.1652 166.884C66.8999 167.603 68.3822 168.821 69.4248 170.383C70.4673 171.944 71.0232 173.78 71.0221 175.658C71.0206 178.173 70.0207 180.585 68.242 182.364C66.4633 184.143 64.0513 185.143 61.5359 185.144V185.144Z" stroke="#263238" stroke-linecap="round" stroke-linejoin="round"/>
<path d="M61.8418 160.665V166.183C63.686 166.24 65.4735 166.834 66.9848 167.892C68.4962 168.951 69.6656 170.427 70.3496 172.141C71.0336 173.855 71.2024 175.731 70.8353 177.539C70.4681 179.347 69.581 181.009 68.2829 182.32L72.6128 185.761C74.5539 183.634 75.8414 180.993 76.3213 178.153C76.8012 175.314 76.4533 172.396 75.319 169.749C74.1848 167.102 72.3122 164.838 69.9253 163.227C67.5383 161.616 64.7379 160.726 61.8588 160.665H61.8418Z" stroke="#263238" stroke-linecap="round" stroke-linejoin="round"/>
<path d="M56.0234 175.041H66.7378" stroke="#263238" stroke-linecap="round" stroke-linejoin="round"/>
<path d="M56.0234 177.798H66.7378" stroke="#263238" stroke-linecap="round" stroke-linejoin="round"/>
<path d="M197.575 108.338H226.753" stroke="#263238" stroke-linecap="round" stroke-linejoin="round"/>
<path d="M185.949 108.338H188.949" stroke="#263238" stroke-linecap="round" stroke-linejoin="round"/>
<path d="M207.292 112.968H226.751" stroke="#263238" stroke-linecap="round" stroke-linejoin="round"/>
<path d="M185.949 112.968H189.187" stroke="#263238" stroke-linecap="round" stroke-linejoin="round"/>
<path d="M216.648 117.598H226.752" stroke="#263238" stroke-linecap="round" stroke-linejoin="round"/>
<path d="M185.949 117.598H188.949" stroke="#263238" stroke-linecap="round" stroke-linejoin="round"/>
<path d="M224.946 122.222H226.752" stroke="#263238" stroke-linecap="round" stroke-linejoin="round"/>
<path d="M185.949 122.222H188.949" stroke="#263238" stroke-linecap="round" stroke-linejoin="round"/>
<path d="M224.946 127.61H226.752" stroke="#263238" stroke-linecap="round" stroke-linejoin="round"/>
<path d="M185.949 127.61H188.949" stroke="#263238" stroke-linecap="round" stroke-linejoin="round"/>
<path d="M224.946 132.999H226.752" stroke="#263238" stroke-linecap="round" stroke-linejoin="round"/>
<path d="M185.949 132.999H188.949" stroke="#263238" stroke-linecap="round" stroke-linejoin="round"/>
<path d="M196.481 105.134H189.718V133.491H196.481V105.134Z" stroke="#263238" stroke-linecap="round" stroke-linejoin="round"/>
<path d="M205.735 110.472H198.972V133.491H205.735V110.472Z" stroke="#263238" stroke-linecap="round" stroke-linejoin="round"/>
<path d="M214.995 115.458H208.231V133.491H214.995V115.458Z" stroke="#263238" stroke-linecap="round" stroke-linejoin="round"/>
<path d="M224.256 121.871H217.492V133.497H224.256V121.871Z" stroke="#263238" stroke-linecap="round" stroke-linejoin="round"/>
<path d="M71.464 41.5274C68.0261 38.9573 63.7295 37.8119 59.4684 38.3298C55.2073 38.8476 51.3101 40.9888 48.5879 44.3076C45.8656 47.6264 44.5281 51.8671 44.8537 56.1472C45.1793 60.4273 47.143 64.4169 50.3359 67.2857C53.5289 70.1545 57.7052 71.6814 61.9956 71.5487C66.2859 71.416 70.3599 69.6339 73.3694 66.5732C76.379 63.5126 78.0923 59.4092 78.1528 55.1172C78.2132 50.8252 76.6162 46.6753 73.6941 43.531" stroke="#263238" stroke-linecap="round" stroke-linejoin="round"/>
<path d="M53.708 62.4694C55.6649 64.4769 58.3197 65.6539 61.1214 65.7559C63.923 65.8579 66.6564 64.8771 68.7541 63.0172C70.8518 61.1572 72.1528 58.5609 72.3869 55.7671C72.621 52.9734 71.7704 50.1968 70.0115 48.0136C68.2526 45.8304 65.7206 44.4084 62.941 44.0427C60.1615 43.6769 57.3478 44.3956 55.084 46.0494C52.8203 47.7033 51.2803 50.1654 50.7838 52.9246C50.2873 55.6838 50.8723 58.5283 52.4175 60.8676" stroke="#263238" stroke-linecap="round" stroke-linejoin="round"/>
<path d="M61.5356 60.5563C64.6834 60.5563 67.2352 58.0044 67.2352 54.8566C67.2352 51.7088 64.6834 49.157 61.5356 49.157C58.3877 49.157 55.8359 51.7088 55.8359 54.8566C55.8359 58.0044 58.3877 60.5563 61.5356 60.5563Z" stroke="#263238" stroke-linecap="round" stroke-linejoin="round"/>
<path d="M206.528 168.204C208.356 168.464 209.194 169.902 209.194 171.906V172.319H207.626V171.798C207.626 170.468 207.088 169.647 205.882 169.647C204.677 169.647 204.156 170.468 204.156 171.798C204.156 175.194 209.216 175.194 209.216 179.445C209.216 181.465 208.356 182.909 206.528 183.169V184.301H205.147V183.169C203.273 182.909 202.436 181.471 202.436 179.445V178.516H204.009V179.552C204.009 180.905 204.575 181.68 205.775 181.68C206.975 181.68 207.535 180.905 207.535 179.552C207.535 176.19 202.498 176.156 202.498 171.906C202.498 169.84 203.341 168.51 205.147 168.204V166.998H206.528V168.204Z" fill="#263238"/>
<path d="M211.334 188.399C212.394 187.941 213.393 187.352 214.305 186.644" stroke="#263238" stroke-linecap="round" stroke-linejoin="round"/>
<path d="M200.931 162.663C197.649 163.889 194.952 166.311 193.38 169.442C191.808 172.573 191.477 176.183 192.454 179.547C193.432 182.912 195.644 185.783 198.649 187.585C201.653 189.387 205.228 189.987 208.657 189.265" stroke="#263238" stroke-linecap="round" stroke-linejoin="round"/>
<path d="M216.054 185.042C218.071 182.839 219.325 180.044 219.628 177.072C219.931 174.101 219.268 171.11 217.738 168.545C216.207 165.98 213.89 163.976 211.13 162.832C208.371 161.688 205.316 161.464 202.419 162.193" stroke="#263238" stroke-linecap="round" stroke-linejoin="round"/>
<path d="M213.559 183.999C218.17 179.727 218.446 172.525 214.174 167.914C209.902 163.302 202.7 163.027 198.088 167.299C193.477 171.571 193.201 178.772 197.473 183.384C201.745 187.995 208.947 188.271 213.559 183.999Z" stroke="#263238" stroke-linecap="round" stroke-linejoin="round"/>
<path d="M150.555 125.403L150.957 125.358C152.655 125.148 159.311 124.254 163.12 122.748C167.513 121.011 177.525 121.928 177.525 121.928L181.917 125.097L176.914 128.369C176.914 128.369 169.862 126.014 164.96 126.218C160.058 126.422 157.709 127.854 154.642 127.65C151.574 127.446 147.799 125.386 147.799 125.386L150.555 125.403Z" fill="#263238" stroke="#263238" stroke-linecap="round" stroke-linejoin="round"/>
<path d="M131.77 115.464V122.035H142.603V114.428L131.77 115.464Z" fill="white" stroke="#263238" stroke-linecap="round" stroke-linejoin="round"/>
<path d="M128.81 109.085C128.81 109.085 126.246 107.387 127.112 110.364C127.978 113.341 128.81 114.502 130.106 114.36C131.402 114.219 132.104 113.794 131.674 112.662C131.244 111.53 128.81 109.085 128.81 109.085Z" fill="white" stroke="#263238" stroke-linecap="round" stroke-linejoin="round"/>
<path d="M145.954 109.085C145.954 109.085 148.518 107.387 147.652 110.364C146.786 113.341 145.954 114.502 144.658 114.36C143.362 114.219 142.666 113.794 143.09 112.662C143.515 111.53 145.954 109.085 145.954 109.085Z" fill="white" stroke="#263238" stroke-linecap="round" stroke-linejoin="round"/>
<path d="M134.374 95.3993C134.374 95.3993 130.095 96.8199 128.669 100.816C127.243 104.812 128.527 109.651 129.235 111.649C129.942 113.647 133.372 117.496 133.372 117.496H141.07C142.897 115.679 144.393 113.556 145.49 111.225C147.058 107.659 147.058 102.667 147.058 102.667C147.058 102.667 148.337 103.097 148.337 101.382C148.337 99.6669 144.375 96.3954 144.375 96.3954C144.375 96.3954 146.232 95.6823 144.941 94.6974C143.651 93.7126 139.095 94.1314 139.095 94.1314C139.095 94.1314 138.506 91.126 134.374 95.3993Z" fill="#263238" stroke="#263238" stroke-linecap="round" stroke-linejoin="round"/>
<path d="M151.24 259.194L152.412 259.924C153.158 259.929 153.88 260.187 154.461 260.654C155.191 261.39 154.919 265.024 154.919 265.024C154.919 265.024 154.353 265.454 151.552 265.454C148.75 265.454 142.632 266.133 142.066 265.109C141.5 264.084 142.167 259.777 142.167 259.777L151.24 259.194Z" fill="#858585" stroke="#263238" stroke-linecap="round" stroke-linejoin="round"/>
<path d="M119.182 167.123C119.182 167.123 118.294 173.564 118.294 174.894C118.294 176.224 117.999 187.629 117.999 187.629C117.999 187.629 118.146 217.627 118.146 218.193C118.146 218.759 115.656 226.977 116.539 232.541C117.422 238.105 119.171 259.471 119.171 259.471C119.171 259.471 118.605 264.158 119.024 264.594C119.443 265.029 124.882 265.618 126.053 265.035C127.225 264.452 126.489 258.741 126.489 258.741C126.896 257.359 127.143 255.935 127.225 254.496V249.81C127.225 248.349 127.955 235.32 128.685 230.198C129.416 225.076 129.857 218.193 129.857 218.193L132.93 186.576L135.274 186.429C135.274 186.429 138.2 220.389 138.347 222.879C138.494 225.37 137.917 230.362 139.236 236.062C140.554 241.761 141.285 257.287 141.285 257.287C141.285 257.287 140.99 258.753 141.285 259.336C141.579 259.918 142.309 261.679 142.309 261.679C143.331 261.772 144.36 261.772 145.382 261.679C147.026 261.598 148.633 261.162 150.092 260.4C150.617 259.975 150.993 259.393 151.165 258.739C151.336 258.085 151.293 257.394 151.042 256.766C150.165 254.621 149.775 254.213 149.775 254.213C149.775 254.213 151.093 235.773 151.093 231.234C151.093 226.694 150.363 221.136 150.363 220.695C150.363 220.253 151.24 187.301 151.24 183.956C151.24 180.611 150.946 171.504 149.48 167.542C148.014 163.58 124.576 164.615 122.256 164.763C121.571 164.821 120.918 165.074 120.373 165.492C119.828 165.911 119.415 166.476 119.182 167.123Z" fill="#263238" stroke="#263238" stroke-linecap="round" stroke-linejoin="round"/>
<path d="M127.82 186.367L140.408 185.784" stroke="#757575" stroke-linecap="round" stroke-linejoin="round"/>
<path d="M135.138 121.747L127.214 123.648C127.214 123.648 115.792 129.212 113.308 130.672C110.823 132.133 101.009 151.897 101.45 152.922C101.891 153.946 103.793 155.265 105.695 155.559C107.597 155.854 117.281 144.896 117.281 144.896C117.281 144.896 120.06 158.655 120.06 159.238C120.06 159.821 118.453 166.851 119.183 168.023C119.913 169.194 148.02 168.023 148.02 168.023C148.02 168.023 150.069 168.17 150.364 166.268C150.658 164.366 149.798 158.803 149.798 158.803L153.018 141.97C153.018 141.97 159.171 151.297 160.552 152.797C162.946 155.407 165.923 154.314 167.508 152.362C168.895 150.664 167.655 147.381 167.219 146.356C166.783 145.332 158.995 127.916 156.658 127.163C154.32 126.41 144.506 122.918 144.506 122.918L135.138 121.747Z" fill="white" stroke="#263238" stroke-linecap="round" stroke-linejoin="round"/>
<path d="M127.236 123.648C127.236 123.648 136.909 123.45 138.517 123.45C140.124 123.45 146.028 123.388 146.028 123.388L144.539 120.218C142.002 119.597 139.396 119.3 136.785 119.335C133.987 119.33 131.211 119.826 128.589 120.801L127.236 123.648Z" fill="white" stroke="#263238" stroke-linecap="round" stroke-linejoin="round"/>
<path d="M114.303 137.153L117.28 144.873L112.158 139.751" stroke="#263238" stroke-linecap="round" stroke-linejoin="round"/>
<path d="M113.33 134.623L113.681 135.546" stroke="#263238" stroke-linecap="round" stroke-linejoin="round"/>
<path d="M129.801 157.942C129.313 158.353 128.799 158.731 128.262 159.074" stroke="#263238" stroke-linecap="round" stroke-linejoin="round"/>
<path d="M143.198 135.795C143.198 135.795 137.849 150.426 130.684 157.172" stroke="#263238" stroke-linecap="round" stroke-linejoin="round"/>
<path d="M156.364 133.599L152.996 141.947L158.413 136.089" stroke="#263238" stroke-linecap="round" stroke-linejoin="round"/>
<path d="M100.181 156.584C101.015 158.896 102.486 160.925 104.426 162.436C107.646 164.927 116.312 173.122 116.312 173.122C116.223 173.557 116.223 174.006 116.312 174.441C116.459 175.171 118.802 177.073 118.802 177.073V175.613L119.368 174.441L119.934 172.975C120.587 172.722 121.224 172.429 121.841 172.098C122.124 171.897 122.371 171.65 122.572 171.368C123.441 171.524 124.321 171.621 125.204 171.656C126.228 171.656 127.694 170.632 126.817 170.343C125.939 170.055 125.062 170.343 123.89 169.777C122.719 169.211 122.13 168.606 120.959 168.606H117.885L109.803 155.412L100.181 156.584Z" fill="white" stroke="#263238" stroke-linecap="round" stroke-linejoin="round"/>
<path d="M103.617 147.585C103.617 147.585 101.919 148.094 101.472 148.53C101.025 148.966 98.8347 152.339 99.2762 154.094C99.7177 155.848 100.301 158.339 104.104 159.069C107.908 159.799 109.962 158.191 110.257 157.756C110.551 157.32 111.27 152.135 110.681 152.135C110.092 152.135 108.496 154.094 108.496 154.094C108.496 154.094 104.138 153.109 103.261 152.396C102.384 151.682 103.617 147.585 103.617 147.585Z" fill="white" stroke="#263238" stroke-linecap="round" stroke-linejoin="round"/>
<path d="M170.772 156.584C169.938 158.896 168.467 160.925 166.527 162.436C163.307 164.927 154.641 173.122 154.641 173.122C154.731 173.558 154.731 174.006 154.641 174.441C154.494 175.171 151.274 177.424 151.274 177.424V175.29L151.047 173.943L150.985 172.975C150.332 172.722 149.695 172.429 149.078 172.098C148.795 171.897 148.548 171.651 148.348 171.368C147.478 171.524 146.599 171.621 145.716 171.656C144.691 171.656 143.225 170.632 144.103 170.343C144.98 170.055 145.857 170.343 147.029 169.777C148.2 169.211 148.789 168.606 149.961 168.606H153.034L161.083 155.435L170.772 156.584Z" fill="white" stroke="#263238" stroke-linecap="round" stroke-linejoin="round"/>
<path d="M167.921 148.292C167.921 148.292 169.019 148.083 169.455 148.518C169.891 148.954 172.092 152.328 171.651 154.082C171.21 155.837 170.627 158.327 166.823 159.057C163.02 159.787 160.965 158.18 160.671 157.744C160.376 157.308 160.144 152.322 160.529 152.763C161.072 153.321 161.718 153.769 162.431 154.082C162.431 154.082 166.959 153.85 167.678 151.286C167.875 150.301 167.957 149.296 167.921 148.292Z" fill="white" stroke="#263238" stroke-linecap="round" stroke-linejoin="round"/>
<path d="M126.065 265.046C126.988 264.582 126.727 260.932 126.575 259.415C125.534 259.903 124.422 260.222 123.28 260.36C121.854 260.556 120.404 260.245 119.183 259.483C119.183 259.483 118.713 264.548 119.109 265.024C119.505 265.499 124.894 265.629 126.065 265.046Z" fill="#858585" stroke="#263238" stroke-linecap="round" stroke-linejoin="round"/>
<path d="M226.966 265.641C226.906 265.641 226.848 265.617 226.806 265.575C226.763 265.532 226.739 265.474 226.739 265.414V236.22C226.739 236.16 226.763 236.103 226.806 236.06C226.848 236.018 226.906 235.994 226.966 235.994C227.026 235.994 227.083 236.018 227.126 236.06C227.168 236.103 227.192 236.16 227.192 236.22V265.414C227.192 265.474 227.168 265.532 227.126 265.575C227.083 265.617 227.026 265.641 226.966 265.641Z" fill="#263238"/>
<path d="M226.741 262.782C225.795 261.466 224.601 260.347 223.226 259.488C221.25 258.39 217.962 258.39 217.962 258.39C217.962 258.39 219.717 264.758 226.741 262.782Z" fill="#263238"/>
<path d="M226.967 262.782C227.912 261.468 229.104 260.349 230.476 259.488C232.451 258.39 235.745 258.39 235.745 258.39C235.745 258.39 233.985 264.758 226.967 262.782Z" fill="#263238"/>
<path d="M226.741 254.881C225.795 253.565 224.601 252.446 223.226 251.587C221.25 250.489 217.962 250.489 217.962 250.489C217.962 250.489 219.717 256.857 226.741 254.881Z" fill="#263238"/>
<path d="M226.967 254.881C227.912 253.566 229.104 252.447 230.476 251.587C232.451 250.489 235.745 250.489 235.745 250.489C235.745 250.489 233.985 256.857 226.967 254.881Z" fill="#263238"/>
<path d="M226.741 246.974C225.795 245.659 224.601 244.542 223.226 243.686C221.25 242.588 217.962 242.588 217.962 242.588C217.962 242.588 219.717 248.95 226.741 246.974Z" fill="#263238"/>
<path d="M226.967 246.974C227.912 245.66 229.104 244.543 230.476 243.686C232.451 242.588 235.745 242.588 235.745 242.588C235.745 242.588 233.985 248.95 226.967 246.974Z" fill="#263238"/>
<path d="M226.741 239.073C225.795 237.756 224.601 236.637 223.226 235.779C221.25 234.681 217.962 234.681 217.962 234.681C217.962 234.681 219.717 241.048 226.741 239.073Z" fill="#263238"/>
<path d="M226.967 239.073C227.912 237.758 229.104 236.639 230.476 235.779C232.451 234.681 235.745 234.681 235.745 234.681C235.745 234.681 233.985 241.048 226.967 239.073Z" fill="#263238"/>
<path d="M226.967 236.22C226.967 236.22 225.207 233.854 225.122 231.596C225.037 229.338 226.514 226.4 226.514 226.4C226.514 226.4 231.891 230.843 226.967 236.22Z" fill="#263238"/>
<path d="M33.5022 265.641C33.4376 265.641 33.3757 265.615 33.3301 265.57C33.2844 265.524 33.2588 265.462 33.2588 265.397V233.837C33.2588 233.773 33.2844 233.711 33.3301 233.665C33.3757 233.62 33.4376 233.594 33.5022 233.594C33.5667 233.594 33.6286 233.62 33.6743 233.665C33.7199 233.711 33.7456 233.773 33.7456 233.837V265.397C33.7456 265.462 33.7199 265.524 33.6743 265.57C33.6286 265.615 33.5667 265.641 33.5022 265.641Z" fill="#263238"/>
<path d="M33.2643 262.551C32.2409 261.129 30.951 259.92 29.4664 258.99C27.3326 257.802 23.7725 257.802 23.7725 257.802C23.7725 257.802 25.6686 264.684 33.2643 262.551Z" fill="#263238"/>
<path d="M33.501 262.551C34.5244 261.129 35.8142 259.92 37.2988 258.99C39.4327 257.802 42.9928 257.802 42.9928 257.802C42.9928 257.802 41.091 264.684 33.501 262.551Z" fill="#263238"/>
<path d="M33.2643 254.01C32.2425 252.587 30.9523 251.377 29.4664 250.449C27.3326 249.261 23.7725 249.261 23.7725 249.261C23.7725 249.261 25.6686 256.143 33.2643 254.01Z" fill="#263238"/>
<path d="M33.501 254.01C34.5228 252.587 35.8129 251.377 37.2988 250.449C39.4327 249.261 42.9928 249.261 42.9928 249.261C42.9928 249.261 41.091 256.143 33.501 254.01Z" fill="#263238"/>
<path d="M33.2643 245.463C32.2409 244.041 30.951 242.832 29.4664 241.903C27.3326 240.72 23.7725 240.72 23.7725 240.72C23.7725 240.72 25.6686 247.602 33.2643 245.463Z" fill="#263238"/>
<path d="M33.501 245.463C34.5244 244.041 35.8142 242.832 37.2988 241.903C39.4327 240.72 43.0154 240.72 43.0154 240.72C43.0154 240.72 41.091 247.602 33.501 245.463Z" fill="#263238"/>
<path d="M33.2643 236.922C32.2409 235.5 30.951 234.291 29.4664 233.362C27.3326 232.179 23.7725 232.179 23.7725 232.179C23.7725 232.179 25.6686 239.056 33.2643 236.922Z" fill="#263238"/>
<path d="M33.501 236.922C34.5244 235.5 35.8142 234.291 37.2988 233.362C39.4327 232.179 42.9928 232.179 42.9928 232.179C42.9928 232.179 41.091 239.056 33.501 236.922Z" fill="#263238"/>
<path d="M33.5021 233.837C33.5021 233.837 31.6004 231.285 31.5042 228.84C31.4079 226.394 33.0154 223.225 33.0154 223.225C33.0154 223.225 38.8339 228.024 33.5021 233.837Z" fill="#263238"/>
<path d="M53.894 265.499V251.146C53.894 251.081 53.8683 251.019 53.8227 250.973C53.7771 250.928 53.7152 250.902 53.6506 250.902C53.5861 250.902 53.5242 250.928 53.4785 250.973C53.4329 251.019 53.4072 251.081 53.4072 251.146V265.499H53.894Z" fill="#263238"/>
<path d="M53.4137 262.771C52.3886 261.356 51.0989 260.153 49.6158 259.228C47.482 258.045 43.9219 258.045 43.9219 258.045C43.9219 258.045 45.8463 264.888 53.4137 262.771Z" fill="#263238"/>
<path d="M53.6523 262.771C54.6774 261.356 55.9672 260.153 57.4502 259.228C59.584 258.045 63.1442 258.045 63.1442 258.045C63.1442 258.045 61.2481 264.888 53.6523 262.771Z" fill="#263238"/>
<path d="M53.4137 254.23C52.3903 252.809 51.1004 251.6 49.6158 250.67C47.482 249.482 43.9219 249.482 43.9219 249.482C43.9219 249.482 45.8463 256.364 53.4137 254.23Z" fill="#263238"/>
<path d="M53.6523 254.23C54.6758 252.809 55.9656 251.6 57.4502 250.67C59.584 249.482 63.1442 249.482 63.1442 249.482C63.1442 249.482 61.2481 256.364 53.6523 254.23Z" fill="#263238"/>
<path d="M53.6513 251.146C53.6513 251.146 51.7495 248.593 51.659 246.148C51.5684 243.703 53.1645 240.55 53.1645 240.55C53.1645 240.55 58.983 245.333 53.6513 251.146Z" fill="#263238"/>
<path d="M207.683 265.511V252.232C207.683 252.172 207.659 252.115 207.617 252.072C207.574 252.03 207.517 252.006 207.457 252.006C207.397 252.006 207.339 252.03 207.297 252.072C207.254 252.115 207.23 252.172 207.23 252.232V265.511H207.683Z" fill="#263238"/>
<path d="M207.236 262.986C206.29 261.671 205.099 260.553 203.726 259.692C201.751 258.594 198.457 258.594 198.457 258.594C198.457 258.594 200.212 264.962 207.236 262.986Z" fill="#263238"/>
<path d="M207.457 262.986C208.403 261.67 209.597 260.551 210.972 259.692C212.947 258.594 216.236 258.594 216.236 258.594C216.236 258.594 214.481 264.962 207.457 262.986Z" fill="#263238"/>
<path d="M207.236 255.085C206.29 253.77 205.099 252.651 203.726 251.791C201.751 250.693 198.457 250.693 198.457 250.693C198.457 250.693 200.212 257.06 207.236 255.085Z" fill="#263238"/>
<path d="M207.457 255.085C208.403 253.768 209.597 252.649 210.972 251.791C212.947 250.693 216.236 250.693 216.236 250.693C216.236 250.693 214.481 257.06 207.457 255.085Z" fill="#263238"/>
<path d="M207.456 252.232C207.456 252.232 205.701 249.866 205.61 247.608C205.52 245.35 207.008 242.412 207.008 242.412C207.008 242.412 212.385 246.85 207.456 252.232Z" fill="#263238"/>
<path d="M245.91 265.511V252.232C245.91 252.172 245.886 252.115 245.844 252.072C245.801 252.03 245.743 252.006 245.683 252.006C245.623 252.006 245.566 252.03 245.523 252.072C245.481 252.115 245.457 252.172 245.457 252.232V265.511H245.91Z" fill="#263238"/>
<path d="M245.463 262.986C244.518 261.671 243.326 260.553 241.954 259.692C239.979 258.594 236.685 258.594 236.685 258.594C236.685 258.594 238.439 264.962 245.463 262.986Z" fill="#263238"/>
<path d="M245.685 262.986C246.633 261.672 247.826 260.553 249.199 259.692C251.175 258.594 254.469 258.594 254.469 258.594C254.469 258.594 252.709 264.962 245.685 262.986Z" fill="#263238"/>
<path d="M245.463 255.085C244.518 253.77 243.326 252.651 241.954 251.791C239.979 250.693 236.685 250.693 236.685 250.693C236.685 250.693 238.439 257.06 245.463 255.085Z" fill="#263238"/>
<path d="M245.685 255.085C246.633 253.77 247.826 252.652 249.199 251.791C251.175 250.693 254.469 250.693 254.469 250.693C254.469 250.693 252.709 257.06 245.685 255.085Z" fill="#263238"/>
<path d="M245.684 252.232C245.684 252.232 243.929 249.866 243.839 247.608C243.748 245.35 245.237 242.412 245.237 242.412C245.237 242.412 250.614 246.85 245.684 252.232Z" fill="#263238"/>
<path d="M268.985 265.454H272.812" stroke="#263238" stroke-linecap="round" stroke-linejoin="round"/>
<path d="M66.7256 265.454H263.761" stroke="#263238" stroke-linecap="round" stroke-linejoin="round"/>
<path d="M22.6396 265.454H61.5012" stroke="#263238" stroke-linecap="round" stroke-linejoin="round"/>
</svg>
