<svg width="244" height="244" viewBox="0 0 244 244" fill="none" xmlns="http://www.w3.org/2000/svg">
<path opacity="0.7" d="M27.0983 72.5847C27.0983 72.5847 12.4314 110.462 33.043 148.602C53.6545 186.743 96.1087 206.891 130.088 224.12C164.067 241.349 199.351 232.958 216.117 204.74C232.883 176.521 209.888 156.378 209.856 116.138C209.825 75.899 215.88 65.246 194.074 31.2511C172.268 -2.74382 118.814 -10.2719 78.3905 14.9428C37.967 40.1575 27.0983 72.5847 27.0983 72.5847Z" fill="white"/>
<path d="M115.052 3.4745C180.286 -2.31231 180.417 34.4761 209.819 68.7761C239.222 103.076 245.508 118.622 234.408 158.161C223.308 197.701 186.009 228.692 139.788 211.132C93.5676 193.571 67.1166 210.432 37.9773 194.823C8.8381 179.215 -2.0043 149.102 19.3438 113.592C40.6919 78.0824 34.5947 10.6396 115.052 3.4745Z" fill="white"/>
<path opacity="0.7" d="M115.052 3.4745C180.286 -2.31231 180.417 34.4761 209.819 68.7761C239.222 103.076 245.508 118.622 234.408 158.161C223.308 197.701 186.009 228.692 139.788 211.132C93.5676 193.571 67.1166 210.432 37.9773 194.823C8.8381 179.215 -2.0043 149.102 19.3438 113.592C40.6919 78.0824 34.5947 10.6396 115.052 3.4745Z" fill="white"/>
<path d="M158.493 19.2178L55.958 30.6284L71.8203 173.167L174.356 161.756L158.493 19.2178Z" fill="white" stroke="#263238" stroke-linecap="round" stroke-linejoin="round"/>
<path d="M158.493 19.2181L55.957 30.6287L58.1518 50.3504L160.687 38.9398L158.493 19.2181Z" fill="#BFBFBF" stroke="#263238" stroke-linecap="round" stroke-linejoin="round"/>
<path d="M130.003 28.3053L85.7395 33.2293C85.5338 33.2396 85.3323 33.2917 85.1475 33.3824C84.9626 33.4731 84.7981 33.6006 84.6642 33.757C84.5302 33.9134 84.4295 34.0955 84.3683 34.2921C84.3071 34.4887 84.2866 34.6958 84.3081 34.9006C84.3296 35.1054 84.3926 35.3037 84.4933 35.4834C84.594 35.663 84.7302 35.8202 84.8937 35.9454C85.0572 36.0706 85.2446 36.1612 85.4442 36.2116C85.6439 36.262 85.8518 36.2711 86.0551 36.2385L130.319 31.3144C130.706 31.2559 131.056 31.0496 131.294 30.7389C131.533 30.4281 131.642 30.0372 131.598 29.6479C131.555 29.2586 131.362 28.9014 131.061 28.6511C130.759 28.4007 130.373 28.2768 129.982 28.3053H130.003Z" fill="white"/>
<path d="M119.624 35.7125L97.4975 38.1745C97.3987 38.1843 97.3028 38.2137 97.2155 38.261C97.1282 38.3082 97.0512 38.3725 96.989 38.4498C96.9268 38.5272 96.8806 38.6163 96.8532 38.7117C96.8258 38.8071 96.8177 38.9071 96.8294 39.0057C96.8506 39.2051 96.95 39.3879 97.1058 39.5141C97.2616 39.6404 97.4611 39.6997 97.6606 39.6791L119.793 37.217C119.986 37.1877 120.161 37.0846 120.28 36.9292C120.399 36.7739 120.454 36.5784 120.432 36.3838C120.41 36.1891 120.314 36.0105 120.163 35.8853C120.013 35.7602 119.82 35.6982 119.624 35.7125Z" fill="white"/>
<path opacity="0.3" d="M136.164 52.7677L78.1648 59.2174C78.0162 59.2341 77.8803 59.3092 77.7871 59.4261C77.6938 59.543 77.6509 59.6922 77.6676 59.8408C77.6844 59.9894 77.7594 60.1252 77.8764 60.2184C77.9933 60.3117 78.1424 60.3547 78.291 60.3379L136.275 53.8882C136.424 53.8715 136.559 53.7964 136.653 53.6795C136.746 53.5626 136.789 53.4134 136.772 53.2649C136.755 53.1163 136.68 52.9804 136.563 52.8872C136.446 52.7939 136.297 52.751 136.149 52.7677H136.164Z" fill="black"/>
<path opacity="0.3" d="M136.611 56.7922L69.9255 64.2098C69.7769 64.2266 69.641 64.3017 69.5478 64.4186C69.4546 64.5355 69.4116 64.6846 69.4284 64.8332C69.4451 64.9818 69.5202 65.1177 69.6371 65.2109C69.754 65.3042 69.9032 65.3471 70.0517 65.3304L136.737 57.9127C136.813 57.9082 136.887 57.8883 136.955 57.8542C137.023 57.8202 137.083 57.7728 137.133 57.7148C137.182 57.6567 137.219 57.5894 137.241 57.5167C137.263 57.444 137.271 57.3676 137.263 57.292C137.255 57.2156 137.231 57.1417 137.193 57.0748C137.156 57.0079 137.105 56.9493 137.044 56.9025C136.983 56.8558 136.913 56.822 136.838 56.803C136.764 56.784 136.687 56.7804 136.611 56.7922Z" fill="black"/>
<path opacity="0.3" d="M119.655 62.7526L70.3728 68.2343C70.2242 68.251 70.0883 68.3261 69.9951 68.443C69.9018 68.5599 69.8589 68.7091 69.8756 68.8577C69.8924 69.0063 69.9674 69.1421 70.0844 69.2354C70.2013 69.3286 70.3504 69.3716 70.499 69.3548L119.776 63.8731C119.852 63.8686 119.926 63.8487 119.994 63.8147C120.063 63.7806 120.123 63.7332 120.172 63.6752C120.221 63.6171 120.258 63.5498 120.281 63.4771C120.303 63.4044 120.31 63.328 120.302 63.2524C120.294 63.1765 120.271 63.1031 120.233 63.0366C120.196 62.9701 120.145 62.9117 120.085 62.8651C120.025 62.8184 119.955 62.7844 119.882 62.7651C119.808 62.7458 119.731 62.7415 119.655 62.7526Z" fill="black"/>
<path opacity="0.3" d="M150.869 50.6303L144.987 51.2849C144.196 51.373 143.626 52.0857 143.714 52.8769L144.369 58.759C144.457 59.5502 145.17 60.1202 145.961 60.0321L151.843 59.3776C152.634 59.2895 153.204 58.5767 153.116 57.7855L152.461 51.9035C152.373 51.1123 151.661 50.5423 150.869 50.6303Z" stroke="#263238" stroke-linecap="round" stroke-linejoin="round"/>
<path d="M146.033 55.1509L147.969 56.9763L150.515 53.0781" stroke="#FF6359" stroke-width="3" stroke-linecap="round" stroke-linejoin="round"/>
<path opacity="0.3" d="M138.284 71.8326L80.3005 78.2823C80.1519 78.2991 80.016 78.3742 79.9228 78.4911C79.8296 78.608 79.7866 78.7571 79.8034 78.9057C79.8201 79.0543 79.8952 79.1902 80.0121 79.2834C80.129 79.3766 80.2782 79.4196 80.4267 79.4029L138.411 72.9532C138.484 72.9449 138.555 72.9222 138.62 72.8864C138.685 72.8506 138.742 72.8023 138.788 72.7444C138.834 72.6866 138.869 72.6201 138.889 72.549C138.91 72.4779 138.916 72.4034 138.908 72.3298C138.899 72.2562 138.877 72.185 138.841 72.1202C138.805 72.0554 138.757 71.9983 138.699 71.9521C138.641 71.9059 138.575 71.8716 138.504 71.8511C138.432 71.8306 138.358 71.8244 138.284 71.8326Z" fill="black"/>
<path opacity="0.3" d="M138.731 75.8573L72.0456 83.2749C71.972 83.2832 71.9008 83.3059 71.836 83.3418C71.7712 83.3776 71.7141 83.4258 71.6679 83.4837C71.6218 83.5416 71.5875 83.608 71.567 83.6791C71.5465 83.7503 71.5402 83.8248 71.5485 83.8983C71.5568 83.9719 71.5795 84.0431 71.6153 84.1079C71.6511 84.1727 71.6993 84.2299 71.7572 84.276C71.8151 84.3222 71.8815 84.3565 71.9527 84.377C72.0238 84.3975 72.0983 84.4038 72.1719 84.3955L138.857 76.9778C139.006 76.9611 139.141 76.886 139.235 76.7691C139.328 76.6522 139.371 76.503 139.354 76.3545C139.337 76.2059 139.262 76.07 139.145 75.9768C139.029 75.8835 138.879 75.8406 138.731 75.8573Z" fill="black"/>
<path opacity="0.3" d="M121.776 81.8175L72.4939 87.2992C72.3453 87.3159 72.2094 87.391 72.1162 87.5079C72.0229 87.6249 71.98 87.774 71.9967 87.9226C72.0135 88.0712 72.0885 88.207 72.2055 88.3003C72.3224 88.3935 72.4715 88.4365 72.6201 88.4197L121.897 82.9381C121.973 82.9335 122.048 82.9136 122.116 82.8796C122.184 82.8456 122.244 82.7981 122.293 82.7401C122.342 82.6821 122.379 82.6147 122.402 82.542C122.424 82.4694 122.432 82.3929 122.424 82.3173C122.415 82.2414 122.392 82.1681 122.354 82.1015C122.317 82.035 122.267 81.9767 122.206 81.93C122.146 81.8834 122.077 81.8494 122.003 81.8301C121.929 81.8107 121.852 81.8065 121.776 81.8175Z" fill="black"/>
<path opacity="0.3" d="M152.991 69.6909L147.109 70.3455C146.318 70.4335 145.748 71.1463 145.836 71.9375L146.491 77.8195C146.579 78.6107 147.292 79.1807 148.083 79.0927L153.965 78.4381C154.756 78.3501 155.326 77.6373 155.238 76.8461L154.583 70.9641C154.495 70.1729 153.783 69.6028 152.991 69.6909Z" stroke="#263238" stroke-linecap="round" stroke-linejoin="round"/>
<path d="M148.158 74.2158L150.089 76.0413L152.635 72.1431" stroke="#FF6359" stroke-width="3" stroke-linecap="round" stroke-linejoin="round"/>
<path opacity="0.3" d="M140.404 90.8973L82.4202 97.3469C82.2811 97.3738 82.1571 97.4521 82.0732 97.5663C81.9893 97.6805 81.9515 97.8222 81.9674 97.963C81.9834 98.1038 82.0519 98.2334 82.1592 98.326C82.2665 98.4185 82.4048 98.4672 82.5465 98.4622L140.53 92.002C140.604 91.9937 140.675 91.971 140.74 91.9352C140.805 91.8994 140.862 91.8512 140.908 91.7933C140.954 91.7354 140.988 91.669 141.009 91.5978C141.029 91.5267 141.036 91.4522 141.027 91.3786C141.019 91.305 140.997 91.2338 140.961 91.169C140.925 91.1042 140.877 91.0471 140.819 91.0009C140.761 90.9548 140.694 90.9205 140.623 90.9C140.552 90.8795 140.478 90.8732 140.404 90.8815V90.8973Z" fill="black"/>
<path opacity="0.3" d="M140.857 94.9221L74.1661 102.34C74.0924 102.347 74.0209 102.369 73.9558 102.404C73.8907 102.439 73.8334 102.487 73.7873 102.545C73.7412 102.603 73.7072 102.67 73.6873 102.741C73.6674 102.813 73.6621 102.887 73.6716 102.961C73.6794 103.034 73.7017 103.105 73.7372 103.17C73.7727 103.235 73.8206 103.293 73.8783 103.339C73.9359 103.386 74.0022 103.42 74.0732 103.441C74.1443 103.462 74.2187 103.468 74.2923 103.46L140.978 96.0427C141.054 96.0374 141.128 96.0169 141.196 95.9823C141.264 95.9477 141.324 95.8998 141.374 95.8414C141.423 95.7829 141.459 95.7152 141.482 95.6423C141.504 95.5693 141.512 95.4925 141.504 95.4166C141.495 95.341 141.472 95.2678 141.434 95.2015C141.397 95.1352 141.346 95.0772 141.286 95.0309C141.225 94.9847 141.156 94.9512 141.082 94.9325C141.009 94.9138 140.932 94.9103 140.857 94.9221Z" fill="black"/>
<path opacity="0.3" d="M123.897 100.883L74.614 106.364C74.4654 106.381 74.3295 106.456 74.2363 106.573C74.1431 106.69 74.1001 106.839 74.1168 106.988C74.1336 107.136 74.2087 107.272 74.3256 107.365C74.4425 107.459 74.5916 107.501 74.7402 107.485L124.018 101.998C124.166 101.982 124.302 101.907 124.396 101.791C124.49 101.675 124.533 101.526 124.517 101.377C124.501 101.228 124.427 101.092 124.311 100.999C124.194 100.905 124.045 100.861 123.897 100.877V100.883Z" fill="black"/>
<path opacity="0.3" d="M155.112 88.7517L149.23 89.4062C148.439 89.4943 147.869 90.2071 147.957 90.9983L148.612 96.8803C148.7 97.6715 149.413 98.2415 150.204 98.1535L156.086 97.4989C156.877 97.4108 157.447 96.6981 157.359 95.9069L156.704 90.0248C156.616 89.2336 155.904 88.6636 155.112 88.7517Z" stroke="#263238" stroke-linecap="round" stroke-linejoin="round"/>
<path d="M150.279 93.2806L152.21 95.1061L154.762 91.2026" stroke="#FF6359" stroke-width="3" stroke-linecap="round" stroke-linejoin="round"/>
<path opacity="0.3" d="M142.524 109.963L84.5403 116.412C84.4012 116.439 84.2773 116.517 84.1933 116.632C84.1094 116.746 84.0716 116.887 84.0876 117.028C84.1035 117.169 84.172 117.299 84.2793 117.391C84.3867 117.484 84.525 117.532 84.6666 117.528L142.65 111.078C142.728 111.075 142.804 111.056 142.874 111.023C142.944 110.989 143.006 110.942 143.057 110.883C143.108 110.824 143.146 110.755 143.169 110.681C143.192 110.607 143.199 110.529 143.19 110.452C143.181 110.375 143.157 110.3 143.118 110.233C143.079 110.166 143.027 110.108 142.964 110.062C142.902 110.016 142.83 109.983 142.755 109.966C142.679 109.949 142.6 109.948 142.524 109.963Z" fill="black"/>
<path opacity="0.3" d="M142.977 113.987L76.2862 121.405C76.2125 121.412 76.141 121.434 76.0759 121.469C76.0109 121.504 75.9536 121.552 75.9074 121.61C75.8613 121.668 75.8273 121.735 75.8074 121.806C75.7875 121.877 75.7822 121.952 75.7917 122.025C75.7996 122.099 75.8219 122.17 75.8573 122.235C75.8928 122.3 75.9407 122.358 75.9984 122.404C76.0561 122.451 76.1223 122.485 76.1934 122.506C76.2644 122.527 76.3389 122.533 76.4125 122.525L143.098 115.108C143.247 115.09 143.383 115.015 143.477 114.898C143.57 114.78 143.614 114.631 143.597 114.482C143.58 114.334 143.505 114.199 143.389 114.106C143.273 114.014 143.124 113.971 142.977 113.987Z" fill="black"/>
<path opacity="0.3" d="M126.038 119.947L76.7549 125.429C76.6813 125.436 76.6097 125.458 76.5447 125.494C76.4796 125.529 76.4223 125.577 76.3762 125.635C76.3301 125.693 76.296 125.759 76.2762 125.831C76.2563 125.902 76.2509 125.977 76.2604 126.05C76.2683 126.124 76.2906 126.195 76.3261 126.26C76.3615 126.325 76.4095 126.382 76.4671 126.429C76.5248 126.475 76.5911 126.51 76.6621 126.53C76.7332 126.551 76.8076 126.558 76.8812 126.55L126.159 121.068C126.232 121.06 126.304 121.038 126.368 121.002C126.433 120.967 126.491 120.919 126.537 120.861C126.584 120.804 126.618 120.737 126.639 120.666C126.66 120.595 126.666 120.521 126.658 120.447C126.651 120.373 126.629 120.302 126.594 120.236C126.559 120.171 126.511 120.113 126.453 120.067C126.395 120.02 126.329 119.986 126.257 119.965C126.186 119.945 126.111 119.939 126.038 119.947Z" fill="black"/>
<path opacity="0.3" d="M157.235 107.817L151.353 108.472C150.561 108.56 149.991 109.273 150.079 110.064L150.734 115.946C150.822 116.737 151.535 117.307 152.326 117.219L158.208 116.565C158.999 116.477 159.569 115.764 159.481 114.973L158.827 109.091C158.739 108.299 158.026 107.729 157.235 107.817Z" stroke="#263238" stroke-linecap="round" stroke-linejoin="round"/>
<path d="M152.398 112.341L154.329 114.166L156.881 110.268" stroke="#FF6359" stroke-width="3" stroke-linecap="round" stroke-linejoin="round"/>
<path opacity="0.3" d="M144.65 129.022L86.6661 135.472C86.5925 135.48 86.5212 135.502 86.4563 135.538C86.3914 135.573 86.3341 135.621 86.2877 135.679C86.2413 135.736 86.2067 135.803 86.1858 135.874C86.165 135.945 86.1584 136.019 86.1663 136.093C86.1743 136.166 86.1966 136.237 86.2321 136.302C86.2676 136.367 86.3156 136.425 86.3732 136.471C86.4309 136.517 86.4971 136.552 86.5681 136.573C86.6391 136.594 86.7135 136.6 86.7871 136.592L144.771 130.143C144.845 130.135 144.916 130.112 144.981 130.077C145.046 130.042 145.103 129.994 145.15 129.936C145.196 129.878 145.231 129.812 145.251 129.741C145.272 129.67 145.279 129.595 145.271 129.522C145.254 129.374 145.179 129.238 145.063 129.145C144.947 129.051 144.798 129.007 144.65 129.022Z" fill="black"/>
<path opacity="0.3" d="M145.097 133.036L78.4065 140.454C78.3289 140.457 78.2528 140.475 78.1828 140.509C78.1128 140.542 78.0505 140.59 77.9999 140.649C77.9492 140.708 77.9112 140.776 77.8883 140.85C77.8654 140.925 77.8581 141.003 77.8669 141.08C77.8756 141.157 77.9002 141.231 77.9391 141.298C77.9779 141.366 78.0303 141.424 78.0928 141.47C78.1554 141.516 78.2267 141.548 78.3024 141.566C78.3781 141.583 78.4565 141.584 78.5327 141.569L145.218 134.152C145.296 134.15 145.372 134.132 145.443 134.099C145.514 134.066 145.576 134.018 145.628 133.96C145.679 133.901 145.718 133.832 145.741 133.758C145.765 133.684 145.772 133.606 145.764 133.528C145.756 133.451 145.731 133.376 145.692 133.308C145.654 133.241 145.601 133.182 145.538 133.136C145.476 133.089 145.404 133.057 145.328 133.04C145.252 133.023 145.173 133.021 145.097 133.036Z" fill="black"/>
<path opacity="0.3" d="M128.142 139.012L78.8591 144.494C78.7105 144.511 78.5746 144.586 78.4814 144.703C78.3882 144.82 78.3452 144.969 78.3619 145.118C78.3787 145.266 78.4538 145.402 78.5707 145.495C78.6876 145.589 78.8367 145.631 78.9853 145.615L128.268 140.133C128.416 140.115 128.551 140.039 128.644 139.921C128.736 139.804 128.779 139.655 128.762 139.507C128.755 139.434 128.732 139.362 128.697 139.298C128.661 139.233 128.613 139.176 128.555 139.13C128.498 139.084 128.431 139.05 128.36 139.03C128.289 139.01 128.215 139.004 128.142 139.012Z" fill="black"/>
<path opacity="0.3" d="M159.357 126.883L153.475 127.538C152.683 127.626 152.113 128.339 152.201 129.13L152.856 135.012C152.944 135.803 153.657 136.373 154.448 136.285L160.33 135.63C161.121 135.542 161.691 134.83 161.603 134.038L160.949 128.156C160.861 127.365 160.148 126.795 159.357 126.883Z" stroke="#263238" stroke-linecap="round" stroke-linejoin="round"/>
<path d="M154.519 131.405L156.449 133.231L159.001 129.333" stroke="#FF6359" stroke-width="3" stroke-linecap="round" stroke-linejoin="round"/>
<path opacity="0.3" d="M146.265 143.558L88.281 150.018C88.1324 150.035 87.9965 150.11 87.9033 150.227C87.8101 150.344 87.7671 150.493 87.7838 150.641C87.8006 150.79 87.8756 150.926 87.9926 151.019C88.1095 151.112 88.2586 151.155 88.4072 151.138L146.391 144.689C146.465 144.682 146.536 144.66 146.601 144.624C146.666 144.589 146.724 144.541 146.77 144.483C146.816 144.425 146.85 144.359 146.87 144.287C146.89 144.216 146.895 144.141 146.886 144.068C146.879 143.993 146.858 143.921 146.823 143.855C146.788 143.789 146.74 143.73 146.682 143.683C146.625 143.635 146.558 143.599 146.486 143.578C146.415 143.557 146.339 143.55 146.265 143.558Z" fill="black"/>
<path opacity="0.3" d="M146.712 147.598L80.0269 155.015C79.9491 155.017 79.8724 155.035 79.8018 155.068C79.7313 155.101 79.6683 155.149 79.617 155.207C79.5657 155.266 79.5271 155.334 79.5036 155.409C79.4802 155.483 79.4724 155.561 79.4808 155.639C79.4892 155.716 79.5136 155.791 79.5524 155.859C79.5913 155.926 79.6437 155.985 79.7064 156.031C79.7691 156.077 79.8407 156.11 79.9167 156.127C79.9927 156.144 80.0715 156.146 80.1479 156.131L146.838 148.713C146.978 148.686 147.101 148.608 147.185 148.494C147.269 148.379 147.307 148.238 147.291 148.097C147.275 147.956 147.207 147.827 147.099 147.734C146.992 147.641 146.854 147.593 146.712 147.598Z" fill="black"/>
<path opacity="0.3" d="M129.751 153.553L80.4738 159.035C80.4002 159.043 80.3289 159.065 80.2639 159.1C80.1989 159.136 80.1416 159.184 80.0951 159.241C80.0487 159.299 80.0141 159.365 79.9933 159.436C79.9726 159.508 79.966 159.582 79.974 159.656C79.9912 159.805 80.0667 159.941 80.184 160.035C80.3013 160.128 80.4509 160.172 80.6001 160.155L129.877 154.674C129.951 154.665 130.022 154.643 130.087 154.607C130.152 154.571 130.209 154.523 130.255 154.465C130.301 154.407 130.336 154.341 130.356 154.269C130.377 154.198 130.383 154.124 130.375 154.05C130.366 153.977 130.344 153.905 130.308 153.841C130.272 153.776 130.224 153.719 130.166 153.673C130.108 153.626 130.042 153.592 129.97 153.572C129.899 153.551 129.825 153.545 129.751 153.553Z" fill="black"/>
<path opacity="0.3" d="M160.977 141.424L155.095 142.078C154.304 142.166 153.733 142.879 153.822 143.67L154.476 149.552C154.564 150.344 155.277 150.914 156.068 150.826L161.95 150.171C162.741 150.083 163.311 149.37 163.223 148.579L162.569 142.697C162.481 141.906 161.768 141.336 160.977 141.424Z" stroke="#263238" stroke-linecap="round" stroke-linejoin="round"/>
<path d="M156.134 145.951L158.064 147.776L160.616 143.878" stroke="#FF6359" stroke-width="3" stroke-linecap="round" stroke-linejoin="round"/>
<path d="M98.0556 106.349C98.1064 105.744 97.9566 105.139 97.6295 104.628L96.9824 103.481L95.6988 104.207L96.3985 105.438C96.7457 106.054 96.6036 106.433 96.1723 106.675C95.7409 106.917 95.3411 106.854 94.9939 106.238L93.4945 103.576L91.8848 103.892L93.5998 106.917C94.3836 108.3 95.5199 108.695 96.8509 107.969C97.0625 107.847 97.2585 107.701 97.4348 107.532C97.3601 107.359 97.3469 107.165 97.3977 106.983C97.4484 106.801 97.5599 106.642 97.7137 106.533C97.8168 106.453 97.9323 106.391 98.0556 106.349Z" fill="#FF6359"/>
<path d="M91.0591 102.434L91.3642 102.961H93.1371L92.3638 101.593C92.0165 100.977 92.1533 100.588 92.5847 100.346C93.0161 100.104 93.4212 100.178 93.7684 100.798L94.2944 101.719L95.5728 100.993L95.0993 100.157C94.3155 98.7782 93.1792 98.3784 91.8482 99.136C91.5427 99.3007 91.2713 99.5221 91.0486 99.7883C91.3509 99.8855 91.6676 99.9299 91.985 99.9198L90.7224 100.393C90.6299 100.738 90.612 101.098 90.6701 101.45C90.7282 101.802 90.8608 102.138 91.0591 102.434Z" fill="#FF6359"/>
<path d="M100.891 96.8265C101.06 96.7421 101.236 96.6735 101.417 96.6213C102.096 96.3162 102.248 95.3377 102.19 94.6485L101.491 93.7805L99.6074 94.8327L100.786 96.9054C100.817 96.8738 100.852 96.8472 100.891 96.8265Z" fill="#FF6359"/>
<path d="M108.913 100.946L110.192 100.22L105.305 91.6028L104.089 92.2867C104.479 92.3814 104.757 92.5655 104.768 92.8496C104.389 92.9022 103.926 92.8496 103.516 92.9232L105.978 99.3045L102.864 95.4221C102.872 95.5081 102.859 95.5948 102.826 95.6746C102.793 95.7544 102.741 95.8249 102.674 95.8798C102.532 95.9797 102.327 95.9797 102.217 96.1112C102.106 96.2428 102.122 96.4006 102.027 96.5163C101.932 96.6321 101.785 96.6636 101.669 96.7478C101.554 96.832 101.427 97.0477 101.296 97.1897C101.233 97.2565 101.153 97.3055 101.064 97.3317L104.526 103.434L105.704 102.761L102.248 96.6689L106.688 102.203L107.972 101.477L105.378 94.7803L108.913 100.946Z" fill="#FF6359"/>
<path d="M112.149 93.4437C112.242 93.4905 112.325 93.5556 112.393 93.6351C112.461 93.7146 112.512 93.807 112.543 93.9067C112.654 93.2566 112.513 92.5889 112.149 92.0391L111.512 90.9133C110.728 89.535 109.639 89.1615 108.282 89.9296L106.288 91.0606L111.181 99.683L112.448 98.9623C112.038 98.7045 111.58 98.4835 111.191 98.2047C111.008 98.088 110.858 97.927 110.754 97.7365C110.705 97.6404 110.685 97.5321 110.696 97.4247C110.707 97.3173 110.75 97.2154 110.818 97.1315C110.907 97.0564 111.015 97.0081 111.131 96.9923C111.246 96.9764 111.364 96.9937 111.47 97.0421L110.697 95.6743L111.338 95.3113C111.691 95.1201 111.998 94.8544 112.238 94.5327C111.97 94.1066 111.501 93.2018 112.149 93.4437ZM110.639 94.1066L109.997 94.4696L108.34 91.5499L108.982 91.1869C109.413 90.9449 109.76 91.008 110.107 91.6235L110.844 92.9177C111.191 93.5069 111.07 93.8383 110.639 94.1066Z" fill="#FF6359"/>
<path d="M119.404 95.0168L118.709 93.7858L116.479 95.0483L113.217 89.2983L113.07 89.4141C112.975 89.5024 112.859 89.5657 112.733 89.5982C112.67 89.6124 112.603 89.6032 112.546 89.5723C112.489 89.5413 112.445 89.4907 112.423 89.4299C112.405 89.3484 112.405 89.264 112.423 89.1826C112.424 88.6931 112.269 88.2159 111.981 87.8201L110.929 88.4303L115.816 97.0474L119.404 95.0168Z" fill="#FF6359"/>
<path d="M118.793 92.0023C118.941 91.6183 119.398 91.4763 119.656 91.129C119.679 91.0934 119.7 91.0565 119.719 91.0186L119.193 90.1348L120.524 89.3825C120.5 89.2985 120.457 89.2212 120.398 89.1563C120.207 89.0629 120.003 88.9991 119.793 88.9669C119.76 88.9015 119.744 88.8292 119.745 88.7562C119.746 88.6832 119.765 88.6115 119.799 88.5471C119.834 88.4828 119.883 88.4276 119.944 88.3862C120.004 88.3448 120.073 88.3185 120.145 88.3093C120.235 88.3093 120.34 88.3093 120.408 88.2672C120.456 88.21 120.481 88.1366 120.477 88.062L120.356 87.8516L118.494 88.9038L117.136 86.5049L119.472 85.1739L118.772 83.9429L115.09 86.0472L118.709 92.4284C118.716 92.283 118.744 92.1393 118.793 92.0023Z" fill="#FF6359"/>
<path d="M123.691 92.5865L122.991 91.3555L120.65 92.6812L119.951 91.4765L119.088 92.2866L118.788 92.576L119.998 94.7066L123.691 92.5865Z" fill="#FF6359"/>
<path d="M121.949 82.5751C121.949 82.7593 121.818 82.9644 121.639 82.9802C121.548 82.9791 121.457 82.9649 121.37 82.9381C121.208 82.9411 121.045 82.9252 120.886 82.8908C120.852 82.8766 120.82 82.8571 120.792 82.8329L119.245 83.7115L119.945 84.9477L121.36 84.1428L125.569 91.5079L126.921 90.7398L122.712 83.3748L124.132 82.5699L123.433 81.3389L121.981 82.1595C121.954 82.2963 121.965 82.4384 121.949 82.5751Z" fill="#FF6359"/>
<path d="M127.858 87.7937L128.91 89.6507L130.33 88.8458C130.364 88.7526 130.406 88.6628 130.457 88.5775C130.769 88.1206 131.19 87.7482 131.682 87.4938L132.335 87.0887L131.903 86.3207L129.562 87.6516L128.131 85.1265L129.994 84.0743L129.294 82.8433L127.432 83.8955L126.074 81.4808L128.415 80.1551L127.716 78.9241L124.033 81.0284L126.69 85.7157C127.332 85.3737 127.653 86.6048 127.858 87.7937Z" fill="#FF6359"/>
<path d="M100.613 104.818C100.834 104.854 100.965 105.075 101.139 105.223C101.202 105.281 101.275 105.327 101.354 105.359C101.455 105.319 101.553 105.274 101.649 105.223C102.975 104.47 103.254 103.271 102.475 101.887L102.396 101.751L100.576 101.703L101.17 102.755C101.518 103.371 101.381 103.76 100.949 104.002C100.518 104.244 100.113 104.165 99.7657 103.55L97.1353 98.894C96.7828 98.2785 96.9249 97.8945 97.3563 97.6472C97.7876 97.4 98.1875 97.4841 98.5399 98.0996L100.323 101.256C100.871 101.12 101.432 101.05 101.996 101.046L99.9393 97.421C99.1607 96.0427 97.9876 95.6692 96.6566 96.4215C95.3256 97.1737 95.0468 98.3785 95.8307 99.7568L98.3716 104.239C98.5322 104.584 98.7722 104.887 99.0721 105.122C99.372 105.357 99.7232 105.518 100.097 105.591C100.094 105.559 100.094 105.528 100.097 105.496C100.034 105.154 100.287 104.754 100.613 104.818Z" fill="#FF6359"/>
<path d="M118.778 80.0761L122.907 77.7351C121.724 78.0613 120.682 79.0503 119.462 78.9135C119.241 78.8556 119.009 78.8556 118.788 78.9135C118.65 79.0024 118.551 79.1401 118.51 79.299C118.469 79.458 118.489 79.6265 118.567 79.771C118.621 79.8834 118.692 79.9864 118.778 80.0761Z" fill="#FF6359"/>
<path d="M108.419 85.9527C108.41 85.8617 108.428 85.7701 108.472 85.6896C108.573 85.7249 108.68 85.7427 108.787 85.7422L110.213 84.9373C110.436 84.6849 110.691 84.4621 110.971 84.2745C111.241 84.1299 111.527 84.017 111.823 83.9378L112.139 83.8431L114.769 82.3596C114.797 82.3058 114.834 82.2576 114.879 82.2175C114.92 82.1905 114.964 82.1692 115.011 82.1544L112.296 81.3337L111.565 81.7441L111.486 82.3228L108.356 83.9957C108.046 84.1892 107.701 84.3197 107.341 84.3797C107.206 84.3955 107.07 84.3955 106.936 84.3797L102.475 86.9101C102.51 87.1215 102.57 87.3281 102.653 87.5256C102.392 87.4769 102.143 87.3748 101.922 87.2258L101.007 87.7518C101.659 88.1832 102.301 88.6251 102.927 89.0933L108.419 85.9527Z" fill="#FF6359"/>
<path d="M127.515 75.126L125.358 73.916L124.338 74.4947C124.939 75.1131 125.716 75.5318 126.563 75.6941L127.515 75.126Z" fill="#FF6359"/>
<path d="M139.115 87.8622L130.972 73.5056C130.655 72.9504 130.131 72.5431 129.515 72.3726C128.899 72.2021 128.241 72.2822 127.684 72.5955L126.705 73.1532L127.079 73.5161C127.468 73.9054 127.868 74.3 128.231 74.7156L128.725 74.4368C128.794 74.3985 128.875 74.3886 128.95 74.4093C129.026 74.4299 129.091 74.4795 129.13 74.5473L137.279 88.9091C137.317 88.9782 137.326 89.0595 137.304 89.1353C137.283 89.2112 137.232 89.2754 137.163 89.3141L126.079 95.627C127.037 95.6849 128.005 95.5481 128.962 95.6586C129.307 95.7021 129.649 95.7635 129.988 95.8427L138.205 91.1817C138.484 91.0248 138.729 90.8142 138.926 90.5619C139.124 90.3096 139.269 90.0207 139.353 89.712C139.438 89.4032 139.46 89.0807 139.42 88.7632C139.379 88.4457 139.275 88.1394 139.115 87.8622Z" fill="#FF6359"/>
<path d="M89.2122 106.133L85.3823 99.3676C85.3626 99.3335 85.3497 99.2957 85.3446 99.2566C85.3394 99.2174 85.3421 99.1777 85.3523 99.1395C85.3626 99.1014 85.3803 99.0657 85.4044 99.0344C85.4285 99.0031 85.4585 98.9769 85.4928 98.9573L96.5404 92.6865C96.5035 92.6023 96.4562 92.5182 96.4246 92.434C96.5807 92.4275 96.7369 92.4452 96.8876 92.4866L101.354 89.9562C101.207 89.9088 101.065 89.851 100.923 89.7984L98.8183 88.9619L97.1348 89.9194L98.9656 91.0399C98.329 90.6506 97.0296 90.598 95.9091 90.6138L84.4775 97.1213C83.9213 97.4371 83.513 97.9606 83.3424 98.5771C83.1718 99.1935 83.2527 99.8524 83.5674 100.409L86.8922 106.27C87.0447 106.228 87.2026 106.191 87.3551 106.165C87.7766 106.104 88.2028 106.083 88.6282 106.101C88.8233 106.1 89.0183 106.111 89.2122 106.133Z" fill="#FF6359"/>
<path d="M102.859 108.774C103.046 108.942 103.259 109.078 103.49 109.179C103.727 109.284 104.042 109.537 103.858 109.705C103.006 110.094 101.954 109.805 101.117 110.231C100.66 110.452 100.218 110.889 99.7285 110.757C100.32 111.116 100.853 111.565 101.307 112.088L122.197 100.241C122.197 100.157 122.223 100.072 122.239 99.983C122.24 99.8175 122.278 99.6542 122.351 99.5056C122.424 99.357 122.53 99.2271 122.661 99.1256C122.792 99.0242 122.944 98.9539 123.106 98.9202C123.268 98.8864 123.436 98.8901 123.596 98.9309C123.867 98.919 124.139 98.9473 124.401 99.0151L127.005 97.5368C126.648 96.921 126.225 96.3459 125.743 95.8218L102.859 108.774Z" fill="#FF6359"/>
<path d="M99.4753 112.251C98.9715 112.088 98.5073 111.821 98.1128 111.467L93.9463 113.835C93.9125 113.854 93.8752 113.867 93.8364 113.872C93.7977 113.877 93.7583 113.875 93.7206 113.864C93.6829 113.854 93.6476 113.836 93.6168 113.812C93.586 113.788 93.5603 113.758 93.5412 113.724L89.8587 107.269C89.5058 107.147 89.1305 107.104 88.7592 107.143C88.3331 107.227 87.9596 107.722 88.191 108.085C88.4085 108.09 88.6206 108.154 88.8055 108.268C88.9904 108.383 89.1415 108.545 89.2432 108.737C89.0163 108.917 88.7669 109.068 88.5014 109.184L91.6579 114.766C91.8147 115.048 92.0263 115.295 92.2802 115.494C92.5341 115.693 92.8253 115.839 93.1365 115.924C93.4477 116.009 93.7728 116.031 94.0925 115.988C94.4123 115.945 94.7203 115.839 94.9984 115.676L100.459 112.577L100.396 112.541C100.095 112.428 99.7872 112.331 99.4753 112.251Z" fill="#FF6359"/>
<g opacity="0.2">
<path opacity="0.2" d="M98.0556 106.348C98.1064 105.744 97.9566 105.139 97.6295 104.628L96.9824 103.481L95.6988 104.207L96.3985 105.438C96.7457 106.054 96.6036 106.432 96.1723 106.674C95.7409 106.916 95.3411 106.853 94.9939 106.238L93.4945 103.576L91.8848 103.892L93.5998 106.916C94.3836 108.3 95.5199 108.695 96.8509 107.969C97.0625 107.847 97.2585 107.701 97.4348 107.532C97.3601 107.359 97.3469 107.165 97.3977 106.983C97.4484 106.801 97.5599 106.642 97.7137 106.532C97.8168 106.453 97.9323 106.391 98.0556 106.348Z" fill="black"/>
<path opacity="0.2" d="M91.0591 102.434L91.3642 102.96H93.1371L92.3638 101.593C92.0165 100.977 92.1533 100.588 92.5847 100.346C93.0161 100.104 93.4212 100.177 93.7684 100.798L94.2944 101.719L95.5728 100.993L95.0993 100.156C94.3155 98.778 93.1792 98.3782 91.8482 99.1357C91.5427 99.3005 91.2713 99.5219 91.0486 99.7881C91.3509 99.8852 91.6676 99.9297 91.985 99.9196L90.7224 100.393C90.6299 100.738 90.612 101.098 90.6701 101.45C90.7282 101.802 90.8608 102.138 91.0591 102.434Z" fill="black"/>
<path opacity="0.2" d="M100.891 96.8265C101.06 96.7421 101.236 96.6735 101.417 96.6213C102.096 96.3162 102.248 95.3377 102.19 94.6485L101.491 93.7805L99.6074 94.8327L100.786 96.9054C100.817 96.8738 100.852 96.8472 100.891 96.8265Z" fill="black"/>
<path opacity="0.2" d="M108.913 100.946L110.192 100.22L105.305 91.6028L104.089 92.2867C104.479 92.3814 104.757 92.5655 104.768 92.8496C104.389 92.9022 103.926 92.8496 103.516 92.9232L105.978 99.3045L102.864 95.4221C102.872 95.5081 102.859 95.5948 102.826 95.6746C102.793 95.7544 102.741 95.8249 102.674 95.8798C102.532 95.9797 102.327 95.9797 102.217 96.1112C102.106 96.2428 102.122 96.4006 102.027 96.5163C101.932 96.6321 101.785 96.6636 101.669 96.7478C101.554 96.832 101.427 97.0477 101.296 97.1897C101.233 97.2565 101.153 97.3055 101.064 97.3317L104.526 103.434L105.704 102.761L102.248 96.6689L106.688 102.203L107.972 101.477L105.378 94.7803L108.913 100.946Z" fill="black"/>
<path opacity="0.2" d="M112.149 93.4437C112.242 93.4905 112.325 93.5556 112.393 93.6351C112.461 93.7146 112.512 93.807 112.543 93.9067C112.654 93.2566 112.513 92.5889 112.149 92.0391L111.512 90.9133C110.728 89.535 109.639 89.1615 108.282 89.9296L106.288 91.0606L111.181 99.683L112.448 98.9623C112.038 98.7045 111.58 98.4835 111.191 98.2047C111.008 98.088 110.858 97.927 110.754 97.7365C110.705 97.6404 110.685 97.5321 110.696 97.4247C110.707 97.3173 110.75 97.2154 110.818 97.1315C110.907 97.0564 111.015 97.0081 111.131 96.9923C111.246 96.9764 111.364 96.9937 111.47 97.0421L110.697 95.6743L111.338 95.3113C111.691 95.1201 111.998 94.8544 112.238 94.5327C111.97 94.1066 111.501 93.2018 112.149 93.4437ZM110.639 94.1066L109.997 94.4696L108.34 91.5499L108.982 91.1869C109.413 90.9449 109.76 91.008 110.107 91.6235L110.844 92.9177C111.191 93.5069 111.07 93.8383 110.639 94.1066Z" fill="black"/>
<path opacity="0.2" d="M119.404 95.0168L118.709 93.7858L116.479 95.0483L113.217 89.2983L113.07 89.4141C112.975 89.5024 112.859 89.5657 112.733 89.5982C112.67 89.6124 112.603 89.6032 112.546 89.5723C112.489 89.5413 112.445 89.4907 112.423 89.4299C112.405 89.3484 112.405 89.264 112.423 89.1826C112.424 88.6931 112.269 88.2159 111.981 87.8201L110.929 88.4303L115.816 97.0474L119.404 95.0168Z" fill="black"/>
<path opacity="0.2" d="M118.793 92.0023C118.941 91.6183 119.398 91.4763 119.656 91.129C119.679 91.0934 119.7 91.0565 119.719 91.0186L119.193 90.1348L120.524 89.3825C120.5 89.2985 120.457 89.2212 120.398 89.1563C120.207 89.0629 120.003 88.9991 119.793 88.9669C119.76 88.9015 119.744 88.8292 119.745 88.7562C119.746 88.6832 119.765 88.6115 119.799 88.5471C119.834 88.4828 119.883 88.4276 119.944 88.3862C120.004 88.3448 120.073 88.3185 120.145 88.3093C120.235 88.3093 120.34 88.3093 120.408 88.2672C120.456 88.21 120.481 88.1366 120.477 88.062L120.356 87.8516L118.494 88.9038L117.136 86.5049L119.472 85.1739L118.772 83.9429L115.09 86.0472L118.709 92.4284C118.716 92.283 118.744 92.1393 118.793 92.0023Z" fill="black"/>
<path opacity="0.2" d="M123.691 92.5862L122.991 91.3552L120.65 92.6809L119.951 91.4762L119.088 92.2864L118.788 92.5757L119.998 94.7063L123.691 92.5862Z" fill="black"/>
<path opacity="0.2" d="M121.95 82.5749C121.95 82.759 121.819 82.9642 121.64 82.98C121.549 82.9788 121.458 82.9647 121.371 82.9379C121.209 82.9409 121.046 82.925 120.887 82.8905C120.853 82.8764 120.821 82.8568 120.793 82.8327L119.246 83.7112L119.946 84.9475L121.361 84.1426L125.57 91.5076L126.922 90.7396L122.713 83.3745L124.133 82.5696L123.434 81.3386L121.982 82.1593C121.955 82.2961 121.966 82.4381 121.95 82.5749Z" fill="black"/>
<path opacity="0.2" d="M127.858 87.7934L128.91 89.6505L130.33 88.8456C130.364 88.7524 130.406 88.6626 130.457 88.5773C130.769 88.1203 131.19 87.748 131.682 87.4936L132.335 87.0885L131.903 86.3204L129.562 87.6514L128.131 85.1262L129.994 84.0741L129.294 82.8431L127.432 83.8952L126.074 81.4806L128.415 80.1548L127.716 78.9238L124.033 81.0281L126.69 85.7155C127.332 85.3735 127.653 86.6045 127.858 87.7934Z" fill="black"/>
<path opacity="0.2" d="M100.613 104.818C100.834 104.854 100.965 105.075 101.139 105.223C101.202 105.281 101.275 105.327 101.354 105.359C101.455 105.319 101.553 105.274 101.649 105.223C102.975 104.47 103.254 103.271 102.475 101.887L102.396 101.751L100.576 101.703L101.17 102.755C101.518 103.371 101.381 103.76 100.949 104.002C100.518 104.244 100.113 104.165 99.7657 103.55L97.1353 98.894C96.7828 98.2785 96.9249 97.8945 97.3563 97.6472C97.7876 97.4 98.1875 97.4841 98.5399 98.0996L100.323 101.256C100.871 101.12 101.432 101.05 101.996 101.046L99.9393 97.421C99.1607 96.0427 97.9876 95.6692 96.6566 96.4215C95.3256 97.1737 95.0468 98.3785 95.8307 99.7568L98.3716 104.239C98.5322 104.584 98.7722 104.887 99.0721 105.122C99.372 105.357 99.7232 105.518 100.097 105.591C100.094 105.559 100.094 105.528 100.097 105.496C100.034 105.154 100.287 104.754 100.613 104.818Z" fill="black"/>
<path opacity="0.2" d="M118.778 80.0761L122.907 77.7351C121.724 78.0613 120.682 79.0503 119.462 78.9135C119.241 78.8556 119.009 78.8556 118.788 78.9135C118.65 79.0024 118.551 79.1401 118.51 79.299C118.469 79.458 118.489 79.6265 118.567 79.771C118.621 79.8834 118.692 79.9864 118.778 80.0761Z" fill="black"/>
<path opacity="0.2" d="M108.419 85.9527C108.41 85.8617 108.428 85.7701 108.472 85.6896C108.573 85.7249 108.68 85.7427 108.787 85.7422L110.213 84.9373C110.436 84.6849 110.691 84.4621 110.971 84.2745C111.241 84.1299 111.527 84.017 111.823 83.9378L112.139 83.8431L114.769 82.3596C114.797 82.3058 114.834 82.2576 114.879 82.2175C114.92 82.1905 114.964 82.1692 115.011 82.1544L112.296 81.3337L111.565 81.7441L111.486 82.3228L108.356 83.9957C108.046 84.1892 107.701 84.3197 107.341 84.3797C107.206 84.3955 107.07 84.3955 106.936 84.3797L102.475 86.9101C102.51 87.1215 102.57 87.3281 102.653 87.5256C102.392 87.4769 102.143 87.3748 101.922 87.2258L101.007 87.7518C101.659 88.1832 102.301 88.6251 102.927 89.0933L108.419 85.9527Z" fill="black"/>
<path opacity="0.2" d="M127.515 75.126L125.358 73.916L124.338 74.4947C124.939 75.1131 125.716 75.5318 126.563 75.6941L127.515 75.126Z" fill="black"/>
<path opacity="0.2" d="M139.115 87.8622L130.972 73.5056C130.655 72.9504 130.131 72.5431 129.515 72.3726C128.899 72.2021 128.241 72.2822 127.684 72.5955L126.705 73.1532L127.079 73.5161C127.468 73.9054 127.868 74.3 128.231 74.7156L128.725 74.4368C128.794 74.3985 128.875 74.3886 128.95 74.4093C129.026 74.4299 129.091 74.4795 129.13 74.5473L137.279 88.9091C137.317 88.9782 137.326 89.0595 137.304 89.1353C137.283 89.2112 137.232 89.2754 137.163 89.3141L126.079 95.627C127.037 95.6849 128.005 95.5481 128.962 95.6586C129.307 95.7021 129.649 95.7635 129.988 95.8427L138.205 91.1817C138.484 91.0248 138.729 90.8142 138.926 90.5619C139.124 90.3096 139.269 90.0207 139.353 89.712C139.438 89.4032 139.46 89.0807 139.42 88.7632C139.379 88.4457 139.275 88.1394 139.115 87.8622Z" fill="black"/>
<path opacity="0.2" d="M89.2122 106.133L85.3823 99.3674C85.3626 99.3332 85.3497 99.2955 85.3446 99.2563C85.3394 99.2172 85.3421 99.1774 85.3523 99.1393C85.3626 99.1012 85.3803 99.0654 85.4044 99.0342C85.4285 99.0029 85.4585 98.9767 85.4928 98.9571L96.5404 92.6863C96.5035 92.6021 96.4562 92.5179 96.4246 92.4338C96.5807 92.4272 96.7369 92.445 96.8876 92.4864L101.354 89.9559C101.207 89.9086 101.065 89.8507 100.923 89.7981L98.8183 88.9617L97.1348 89.9191L98.9656 91.0397C98.329 90.6504 97.0296 90.5978 95.9091 90.6135L84.4775 97.1211C83.9213 97.4368 83.513 97.9604 83.3424 98.5768C83.1718 99.1932 83.2527 99.8522 83.5674 100.409L86.8922 106.269C87.0447 106.227 87.2026 106.191 87.3551 106.164C87.7766 106.104 88.2028 106.083 88.6282 106.101C88.8233 106.1 89.0183 106.11 89.2122 106.133Z" fill="black"/>
<path opacity="0.2" d="M102.859 108.773C103.046 108.941 103.259 109.078 103.49 109.179C103.727 109.284 104.042 109.536 103.858 109.705C103.006 110.094 101.954 109.805 101.117 110.231C100.66 110.452 100.218 110.888 99.7285 110.757C100.32 111.116 100.853 111.565 101.307 112.088L122.197 100.241C122.197 100.156 122.223 100.072 122.239 99.9828C122.24 99.8172 122.278 99.6539 122.351 99.5053C122.424 99.3568 122.53 99.2268 122.661 99.1254C122.792 99.0239 122.944 98.9537 123.106 98.9199C123.268 98.8862 123.436 98.8898 123.596 98.9306C123.867 98.9187 124.139 98.9471 124.401 99.0148L127.005 97.5365C126.648 96.9207 126.225 96.3456 125.743 95.8215L102.859 108.773Z" fill="black"/>
<path opacity="0.2" d="M99.4753 112.251C98.9715 112.088 98.5073 111.821 98.1128 111.467L93.9463 113.834C93.9125 113.854 93.8752 113.867 93.8364 113.872C93.7977 113.877 93.7583 113.874 93.7206 113.864C93.6829 113.854 93.6476 113.836 93.6168 113.812C93.586 113.788 93.5603 113.758 93.5412 113.724L89.8587 107.269C89.5058 107.147 89.1305 107.104 88.7592 107.143C88.3331 107.227 87.9596 107.721 88.191 108.084C88.4085 108.09 88.6206 108.153 88.8055 108.268C88.9904 108.383 89.1415 108.544 89.2432 108.737C89.0163 108.917 88.7669 109.068 88.5014 109.184L91.6579 114.766C91.8147 115.047 92.0263 115.295 92.2802 115.494C92.5341 115.693 92.8253 115.839 93.1365 115.924C93.4477 116.009 93.7728 116.031 94.0925 115.988C94.4123 115.945 94.7203 115.839 94.9984 115.676L100.459 112.577L100.396 112.54C100.095 112.427 99.7872 112.331 99.4753 112.251Z" fill="black"/>
</g>
<path opacity="0.3" d="M75.7861 93.4646C78.9952 95.8214 81.6781 107.143 81.9201 117.522C82.1621 127.901 87.1809 145.404 87.7806 148.271C88.3803 151.138 88.1594 155.273 91.884 149.518C95.6086 143.763 106.504 133.772 111.044 137.092C115.584 140.411 107.94 151.57 103.8 157.577C99.6594 163.585 99.2385 174.164 94.2776 180.788C89.3167 187.411 84.8346 197.412 79.9737 197.259C75.1127 197.106 42.917 220.99 42.917 220.99L43.5483 188.3L72.4824 140.953L75.7861 93.4646Z" fill="black" fill-opacity="0.7"/>
<path d="M113.685 138.696C113.521 139.722 107.856 147.229 104.526 152.848C101.196 158.466 98.0759 168.246 97.2394 169.682C96.403 171.118 86.1919 180.088 83.3932 183.839C80.5945 187.59 75.5967 189.247 70.6043 192.782C67.3953 195.055 57.3946 206.781 50.6556 214.877C46.9099 219.375 44.1691 222.768 44.1691 222.768L1.08887 211.537C1.08887 211.537 4.65565 208.596 9.34823 204.629H9.3798L9.42714 204.592C17.1394 198.043 27.8871 188.8 30.8541 185.312C35.6362 179.693 42.2963 173.018 42.2963 173.018C41.8912 165.216 42.7171 157.824 41.9859 155.015C41.6071 153.548 40.9337 145.199 40.4077 142.631C39.1293 136.071 33.5687 129.274 32.9427 126.597C32.3166 123.919 24.9779 112.519 28.5605 110.415C29.2118 110.005 29.9859 109.835 30.7489 109.936C35.5888 110.604 39.5765 122.293 42.3226 125.271C43.4993 126.681 44.5651 128.179 45.5106 129.753C47.678 133.188 49.8033 137.05 49.8033 137.05C50.6345 133.72 44.6005 121.857 42.9328 110.62C41.2652 99.3829 36.4831 93.3488 42.9328 92.6544C43.4627 92.595 43.9992 92.6415 44.511 92.7912C49.051 94.1169 51.0186 103.549 53.7331 112.703C53.9856 113.545 56.0531 119.589 57.6629 124.25C58.715 127.302 59.5568 129.758 59.5568 129.758C59.7619 124.035 57.9785 118.711 57.6839 113.524C57.5577 111.446 58.21 103.118 57.3893 94.7955C56.6844 87.7724 57.0053 84.9264 59.7514 84.374C60.3396 84.2681 60.9392 84.2398 61.5348 84.2898C66.2958 84.5897 67.9845 97.2418 67.9845 102.176C67.9845 105.043 68.4737 110.641 68.884 114.839C69.1839 117.874 69.4417 120.179 69.4417 120.179C69.4417 120.179 70.2729 113.208 69.6521 98.1729C69.5101 94.8797 69.7258 92.5229 71.0199 91.5707C71.7301 91.0446 72.756 90.9552 74.229 91.355C78.3902 92.4808 79.7422 107.9 79.7422 113.729C79.7422 119.558 83.0723 129.543 83.6983 137.402C84.3243 145.262 87.0494 154.921 87.0494 154.921C87.0494 154.921 88.5908 155.547 89.6271 155.341C90.6635 155.136 97.8497 144.52 97.8497 144.52C101.196 137.255 107.708 135.051 111.254 135.866C112.885 136.24 113.937 137.244 113.685 138.696Z" fill="white"/>
<path opacity="0.4" d="M113.684 138.696C113.521 139.722 107.855 147.229 104.525 152.848C101.195 158.466 98.0756 168.246 97.2392 169.682C96.4027 171.118 86.1916 180.088 83.3929 183.839C80.5942 187.59 75.5965 189.247 70.604 192.782C67.395 195.055 57.3943 206.781 50.6553 214.877C51.397 211.942 53.0594 208.191 57.4048 204.587C64.9487 198.322 65.4011 193.408 69.4572 189.247C73.5132 185.086 80.6573 186.332 83.2245 181.356C85.7918 176.379 94.7456 171.781 96.6184 167.41C98.4912 163.038 94.7456 162.112 98.0756 156.851C101.406 151.591 104.636 150.312 104.162 148.25C103.689 146.188 102.289 143.063 105.178 140.459C106.982 138.839 109.102 136.803 111.27 135.866C112.885 136.24 113.937 137.245 113.684 138.696Z" fill="#FF6359"/>
<path opacity="0.4" d="M59.7089 163.39C58.3254 162.696 59.4354 161.312 58.4621 160.16C57.4889 159.008 55.2689 166.447 54.7796 166.473C54.2904 166.499 52.8016 162.691 52.2124 162.312C51.6232 161.933 51.276 163.527 50.4395 166.473C49.603 169.419 46.5308 170.913 44.7474 173.017C42.964 175.122 32.2373 186.564 29.6017 190.862C26.9661 195.16 10.6893 203.667 9.42676 204.582C17.139 198.043 27.8867 188.8 30.8538 185.312C35.6358 179.693 42.2959 173.017 42.2959 173.017C41.8908 165.216 42.7167 157.824 41.9855 155.015C41.6067 153.547 40.9333 145.199 40.4073 142.631C39.1289 136.071 33.5683 129.274 32.9423 126.597C32.3162 123.919 24.9775 112.519 28.5601 110.415C29.2114 110.005 29.9855 109.835 30.7485 109.936C29.9331 110.515 29.1388 111.346 29.8805 112.566C31.201 114.702 32.6529 116.948 32.6529 119.311C32.6529 121.673 36.6774 124.997 38.2398 127.202C39.8023 129.406 38.3451 128.627 39.3867 131.647C40.4283 134.667 41.6751 134.035 42.2959 137.087C42.9166 140.138 46.3887 142.084 45.8364 145.888C45.284 149.691 47.4987 154.984 47.4987 154.984C47.4987 154.984 49.3032 149.854 48.6456 147.093C47.988 144.331 48.7508 140.848 48.1195 139.912C47.5934 139.07 46.152 133.357 45.4891 129.806C47.6566 133.241 49.7819 137.102 49.7819 137.102C50.6131 133.772 44.579 121.909 42.9114 110.672C41.2437 99.4354 36.4617 93.4014 42.9114 92.7069C43.4413 92.6475 43.9778 92.694 44.4896 92.8437C47.241 97.9835 45.3261 101.787 44.7158 104.018C44.0477 106.448 48.0248 112.687 48.614 116.985C49.1401 120.999 50.2238 120.584 50.3659 120.51C50.2449 120.62 49.219 121.667 49.8398 124.645C50.4869 127.801 55.1005 135.298 55.1005 137.392C55.1005 139.485 54.7217 142.931 54.7217 143.952C54.7217 144.972 58.4043 151.801 58.8462 153.59C59.2881 155.378 58.6726 150.144 59.6774 148.329C60.6822 146.514 61.2135 140.18 61.345 140.522C63.0758 144.92 61.0978 164.074 59.7089 163.39Z" fill="#FF6359"/>
<path opacity="0.4" d="M62.6922 116.38C61.5138 118.164 61.5454 132.084 59.5358 132.131C58.5625 132.131 58.0891 128.633 57.6945 124.24C58.7467 127.291 59.5884 129.748 59.5884 129.748C59.7936 124.024 58.0102 118.7 57.7156 113.513C57.5893 111.435 58.2416 103.108 57.421 94.7851C56.716 87.762 57.0369 84.9159 59.783 84.3635C60.3617 86.2364 61.7821 88.4459 62.1451 90.4976C62.6396 93.3278 61.6716 95.6689 60.8404 96.0213C60.0093 96.3738 59.8672 98.1993 60.9088 98.4676C61.9505 98.7359 60.9088 112.019 61.3928 113.724C61.8768 115.428 63.8759 114.623 62.6922 116.38Z" fill="#FF6359"/>
<path opacity="0.4" d="M73.5029 100.798C71.3408 101.75 71.225 103.455 70.578 105.901C69.9309 108.347 71.5038 111.919 70.578 117.533C69.6521 123.146 73.0295 126.765 70.578 133.047C68.1265 139.328 69.2786 127.786 68.8682 122.525C68.7268 119.963 68.7374 117.395 68.8998 114.834C69.1996 117.869 69.4574 120.174 69.4574 120.174C69.4574 120.174 70.2886 113.203 69.6678 98.1679C69.5258 94.8747 69.7415 92.5179 71.0356 91.5657C73.2557 93.5805 75.3442 99.9881 73.5029 100.798Z" fill="#FF6359"/>
<path d="M44.1693 222.774C44.1693 222.774 65.6068 196.344 70.6045 192.788C75.6022 189.232 80.5999 187.585 83.3934 183.845C86.1868 180.104 96.4085 171.145 97.2397 169.688C98.0709 168.231 101.196 158.451 104.526 152.854C107.856 147.256 113.522 139.702 113.685 138.702C114.411 134.12 102.758 133.915 97.8657 144.531C97.8657 144.531 90.6848 155.142 89.6431 155.353C88.6015 155.563 87.0654 154.932 87.0654 154.932C87.0654 154.932 84.3403 145.278 83.7143 137.414C83.0883 129.549 79.7582 119.553 79.7582 113.74C79.7582 107.927 78.4062 92.4921 74.245 91.3663C70.0837 90.2405 69.4524 93.0918 69.6681 98.2053C70.2889 113.24 69.4577 120.211 69.4577 120.211C69.4577 120.211 68.0004 107.149 68.0004 102.209C68.0004 97.2689 66.3118 84.6168 61.5508 84.3222C57.1791 84.0434 56.5689 86.5001 57.4053 94.8437C58.2418 103.187 57.5737 111.494 57.6999 113.572C58.0103 118.775 59.8042 124.093 59.5727 129.807C59.5727 129.807 54.1594 114.135 53.7438 112.741C50.7294 102.524 48.6409 92.0029 42.9172 92.6342C36.4676 93.3286 41.2548 99.3626 42.9172 110.6C44.5796 121.837 50.619 133.699 49.7878 137.03C49.7878 137.03 44.7953 127.965 42.307 125.251C39.1505 121.837 34.3843 106.959 28.5554 110.394C24.9728 112.499 32.3326 123.936 32.9534 126.613C33.5742 129.291 39.14 136.083 40.4184 142.648C40.9445 145.215 41.6021 153.564 41.9966 155.032C42.7279 157.841 41.9019 165.232 42.307 173.034C42.307 173.034 35.6469 179.694 30.8649 185.313C26.0829 190.931 1.09961 211.537 1.09961 211.537" stroke="#263238" stroke-linecap="round" stroke-linejoin="round"/>
<path d="M87.0654 154.926C88.0256 157.296 88.0256 159.947 87.0654 162.317" stroke="#263238" stroke-linecap="round" stroke-linejoin="round"/>
<path d="M88.8174 155.368C89.4146 155.806 89.8571 156.423 90.0812 157.129C90.3053 157.836 90.2993 158.595 90.0642 159.297" stroke="#263238" stroke-linecap="round" stroke-linejoin="round"/>
<path d="M69.457 120.174C69.457 120.174 71.1247 131.931 70.3935 134.115" stroke="#263238" stroke-linecap="round" stroke-linejoin="round"/>
<path d="M59.5723 129.748C59.7509 130.884 59.7509 132.042 59.5723 133.178" stroke="#263238" stroke-linecap="round" stroke-linejoin="round"/>
<path d="M49.793 137.029C49.793 137.029 50.1033 138.802 49.793 139.217" stroke="#263238" stroke-linecap="round" stroke-linejoin="round"/>
<path d="M102.548 147.019C102.548 147.019 104.431 148.04 105.047 149.518" stroke="#263238" stroke-linecap="round" stroke-linejoin="round"/>
<path d="M59.6406 98.1675C60.2511 98.3141 60.8886 98.3047 61.4945 98.1401C62.1004 97.9756 62.6551 97.6611 63.1075 97.2258" stroke="#263238" stroke-linecap="round" stroke-linejoin="round"/>
<path d="M60.2773 115.075C60.2773 115.075 64.023 116.322 65.3803 115.075" stroke="#263238" stroke-linecap="round" stroke-linejoin="round"/>
<path d="M72.4766 118.716C72.4766 118.716 74.9702 117.78 76.6378 118.301" stroke="#263238" stroke-linecap="round" stroke-linejoin="round"/>
<path d="M48.6465 122.046C48.6465 122.046 50.6245 119.442 52.187 120.173" stroke="#263238" stroke-linecap="round" stroke-linejoin="round"/>
<path d="M40.5287 129.748C40.5287 129.748 38.761 130.579 38.2402 131.463" stroke="#263238" stroke-linecap="round" stroke-linejoin="round"/>
<path d="M42.2959 173.018C42.7296 172.531 43.1137 172.002 43.4427 171.439C43.7531 170.813 43.3375 164.153 43.4427 159.866" stroke="#263238" stroke-linecap="round" stroke-linejoin="round"/>
<path d="M64.128 199.237C61.6765 201.983 54.1589 206.96 51.1445 209.974" stroke="#263238" stroke-linecap="round" stroke-linejoin="round"/>
<path d="M74.0344 137.029C72.7876 140.569 74.1396 145.041 74.0344 147.024C73.9292 149.008 73.5083 158.072 73.5083 158.072" stroke="#263238" stroke-linecap="round" stroke-linejoin="round"/>
<path d="M62.692 137.029C61.0296 139.838 61.5504 143.584 62.0713 145.446C62.5921 147.308 62.1291 154.915 62.1291 154.915" stroke="#263238" stroke-linecap="round" stroke-linejoin="round"/>
<path d="M44.7951 145.978C44.6573 147.81 45.021 149.645 45.8472 151.286" stroke="#263238" stroke-linecap="round" stroke-linejoin="round"/>
<path d="M55.0955 140.464C54.1591 143.899 55.4112 145.457 55.5164 145.977" stroke="#263238" stroke-linecap="round" stroke-linejoin="round"/>
<path opacity="0.3" d="M139.62 117.779L137.847 107.489C137.769 107.032 137.784 106.564 137.891 106.113C137.998 105.662 138.196 105.237 138.472 104.864C138.747 104.491 139.096 104.177 139.495 103.942C139.895 103.707 140.338 103.556 140.798 103.496L144.77 102.97C144.77 102.97 143.445 100.282 147.711 92.4489C151.978 84.6157 172.489 63.8095 188.04 98.7618C203.591 133.714 217.8 204.939 217.8 204.939C217.8 204.939 175.824 156.057 174.488 153.552C173.152 151.048 160.374 152.548 157.422 145.83C154.471 139.112 148.274 119.942 148.274 119.942L143.476 120.599C142.594 120.719 141.699 120.492 140.98 119.966C140.261 119.44 139.774 118.657 139.62 117.779Z" fill="black" fill-opacity="0.7"/>
<path d="M176.614 94.1694L168.559 95.6319L157.365 97.6678L142.703 100.335C142.422 100.387 142.133 100.382 141.854 100.322C141.574 100.262 141.309 100.147 141.074 99.9844C140.839 99.8216 140.638 99.6141 140.484 99.3737C140.329 99.1332 140.223 98.8646 140.173 98.5832L136.953 80.8808C136.852 80.3132 136.979 79.7285 137.307 79.2544C137.635 78.7803 138.138 78.4553 138.705 78.3504L147.232 76.7722L159.637 74.5206L172.616 72.1585C172.897 72.1069 173.185 72.1113 173.465 72.1715C173.744 72.2316 174.009 72.3464 174.244 72.5091C174.479 72.6719 174.68 72.8794 174.835 73.1199C174.99 73.3603 175.095 73.6289 175.146 73.9103L178.366 91.6127C178.421 91.8958 178.419 92.1872 178.361 92.4697C178.303 92.7523 178.189 93.0204 178.026 93.2584C177.863 93.4964 177.654 93.6995 177.411 93.8559C177.169 94.0124 176.898 94.1189 176.614 94.1694Z" fill="#FF6359"/>
<path opacity="0.3" d="M170.916 82.4169L168.559 95.6318L157.364 97.6678C154.124 96.2421 148.779 93.759 147.711 92.407C146.438 90.8288 146.617 81.5278 147.232 76.7721L159.637 74.5205C164.009 77.5349 170.916 82.4169 170.916 82.4169Z" fill="black" fill-opacity="0.7"/>
<path opacity="0.3" d="M144.928 99.9299L142.703 100.335C142.422 100.387 142.133 100.382 141.854 100.322C141.574 100.262 141.309 100.147 141.074 99.9844C140.839 99.8216 140.638 99.6141 140.484 99.3736C140.329 99.1332 140.223 98.8646 140.172 98.5832L136.953 80.8808C136.852 80.3132 136.979 79.7285 137.307 79.2544C137.635 78.7803 138.138 78.4553 138.705 78.3504L140.925 77.9453C140.358 78.0502 139.856 78.3754 139.529 78.8497C139.201 79.324 139.075 79.9087 139.178 80.4757L142.398 98.1781C142.448 98.4595 142.554 98.7281 142.709 98.9686C142.864 99.209 143.064 99.4166 143.299 99.5793C143.534 99.7421 143.799 99.8568 144.079 99.917C144.358 99.9771 144.647 99.9815 144.928 99.9299Z" fill="black" fill-opacity="0.7"/>
<path d="M176.614 94.1694L168.559 95.6319L157.365 97.6678L142.703 100.335C142.422 100.387 142.133 100.382 141.854 100.322C141.574 100.262 141.309 100.147 141.074 99.9844C140.839 99.8216 140.638 99.6141 140.484 99.3737C140.329 99.1332 140.223 98.8646 140.173 98.5832L136.953 80.8808C136.852 80.3132 136.979 79.7285 137.307 79.2544C137.635 78.7803 138.138 78.4553 138.705 78.3504L147.232 76.7722L159.637 74.5206L172.616 72.1585C172.897 72.1069 173.185 72.1113 173.465 72.1715C173.744 72.2316 174.009 72.3464 174.244 72.5091C174.479 72.6719 174.68 72.8794 174.835 73.1199C174.99 73.3603 175.095 73.6289 175.146 73.9103L178.366 91.6127C178.421 91.8958 178.419 92.1872 178.361 92.4697C178.303 92.7523 178.189 93.0204 178.026 93.2584C177.863 93.4964 177.654 93.6995 177.411 93.8559C177.169 94.0124 176.898 94.1189 176.614 94.1694V94.1694Z" stroke="#263238" stroke-linecap="round" stroke-linejoin="round"/>
<path d="M174.222 71.2232L140.448 77.4266C139.269 77.6431 138.489 78.7742 138.706 79.953L141.943 97.5797C142.16 98.7585 143.291 99.5386 144.469 99.3221L178.243 93.1187C179.422 92.9022 180.202 91.7711 179.986 90.5923L176.748 72.9656C176.532 71.7868 175.401 71.0067 174.222 71.2232Z" stroke="#263238" stroke-width="0.996394" stroke-linecap="round" stroke-linejoin="round"/>
<path d="M173.276 73.3521L141.449 79.1361C140.878 79.24 140.498 79.7877 140.602 80.3594L143.772 97.8024C143.876 98.3741 144.424 98.7534 144.995 98.6495L176.822 92.8655C177.394 92.7616 177.773 92.2139 177.67 91.6422L174.5 74.1992C174.396 73.6275 173.848 73.2482 173.276 73.3521Z" stroke="#263238" stroke-linecap="round" stroke-linejoin="round"/>
<path d="M178.839 93.7642L176.629 94.1641C177.193 94.058 177.693 93.7328 178.018 93.2597C178.343 92.7865 178.468 92.2038 178.365 91.6389L175.146 73.9365C175.095 73.6551 174.989 73.3865 174.835 73.1461C174.68 72.9056 174.479 72.6981 174.244 72.5353C174.009 72.3726 173.744 72.2578 173.465 72.1976C173.185 72.1375 172.896 72.1331 172.615 72.1847L174.841 71.7796C175.408 71.6783 175.993 71.8056 176.467 72.1338C176.941 72.462 177.266 72.9644 177.371 73.5314L180.591 91.2338C180.692 91.8015 180.564 92.3861 180.236 92.8602C179.908 93.3343 179.406 93.6593 178.839 93.7642V93.7642Z" stroke="#263238" stroke-linecap="round" stroke-linejoin="round"/>
<path d="M242.825 150.47L221.041 208.906C221.041 208.906 211.929 191.546 203.512 175.48C196.789 162.633 190.507 150.586 189.66 148.813C187.761 144.82 181.275 136.455 181.275 136.455C181.275 136.455 174.62 132.647 171.574 126.013C168.528 119.379 165.177 95.6478 165.177 95.6478C165.177 95.6478 156.428 92.3545 154.34 90.9131C152.251 89.4717 150.347 76.1515 150.347 74.6311C150.347 73.1108 152.451 70.0648 152.451 70.0648C152.451 70.0648 151.983 67.8342 154.655 65.5826C155.529 64.8656 156.497 64.2725 157.533 63.8203H157.585C157.585 63.8203 157.238 58.7858 159.858 57.318C159.983 57.2472 160.113 57.1857 160.247 57.1339C162.583 56.2343 170.243 55.0717 170.243 55.0717C171.326 54.1202 172.586 53.3925 173.952 52.9305C175.309 52.557 182.758 54.2878 186.919 55.3137C188.592 55.724 189.734 56.0186 189.734 56.0186C189.734 56.0186 196.773 56.3395 198.104 57.1339C199.032 57.7426 199.881 58.4654 200.629 59.2855L200.76 59.4381C200.76 59.4381 207.036 60.7428 208.367 63.0417C209.698 65.3406 210.267 76.7459 209.32 84.1583C208.373 91.5707 210.072 104.149 210.072 104.149C210.072 104.149 212.034 113.866 213.554 117.554C215.075 121.241 242.825 150.47 242.825 150.47Z" fill="white"/>
<path opacity="0.4" d="M203.512 175.479C196.789 162.633 190.507 150.586 189.66 148.813C187.761 144.82 181.275 136.455 181.275 136.455C181.275 136.455 174.62 132.646 171.574 126.013C168.528 119.379 165.177 95.6476 165.177 95.6476C165.177 95.6476 156.428 92.3544 154.34 90.913C152.251 89.4715 150.347 76.1513 150.347 74.631C150.347 73.1106 152.451 70.0646 152.451 70.0646C152.451 70.0646 151.983 67.8341 154.655 65.5825C154.655 66.1822 154.655 67.1923 154.655 68.781C154.592 71.7954 158.143 89.9713 159.022 89.4189C159.9 88.8665 161.257 87.5356 160.9 86.3624C160.9 86.3624 159.179 79.3078 157.554 63.8201H157.607C157.607 63.8201 157.259 58.7856 159.879 57.3179C159.428 58.4081 159.14 59.5583 159.022 60.7321C158.964 63.1836 161.878 84.1897 163.02 84.7211C164.161 85.2524 167.055 82.4537 167.055 82.4537C167.055 82.4537 166.066 76.4933 166.418 73.9523C166.418 73.9523 175.219 79.3183 175.483 85.4102C175.509 86.0783 177.198 95.6266 177.198 95.6266C177.198 95.6266 169.627 110.041 177.355 123.193C177.355 123.193 173.426 120.836 172.489 117.09C172.489 117.09 171.348 128.106 179.465 133.925C179.465 133.925 185.289 128.206 191.039 127.48C191.039 127.48 191.144 127.859 187.293 130.895C183.442 133.93 182.921 135.282 182.921 135.282C182.921 135.282 187.088 131.073 190.418 130.895C190.418 130.895 186.983 134.866 187.088 135.698C187.193 136.529 196.91 153.142 200.445 164.732C201.886 169.572 202.87 173.065 203.512 175.479Z" fill="#FF6359"/>
<path opacity="0.4" d="M176.229 65.2247C176.229 65.2247 179.033 67.329 179.865 65.2247C180.342 64.0986 180.645 62.9066 180.764 61.6894C180.764 61.6894 181.843 61.1949 182.869 63.7937C183.894 66.3925 194.179 67.0554 196.589 68.3864C198.998 69.7173 199.955 68.3864 199.955 68.3864C200.517 68.8476 200.902 69.4883 201.045 70.2003C201.189 70.9124 201.083 71.6523 200.745 72.2951C199.577 74.7098 202.886 74.9255 204.169 73.1473C205.453 71.3692 204.459 78.2345 201.286 78.9342C201.286 78.9342 201.376 81.9328 199.335 83.9897H201.065C201.065 83.9897 196.457 87.6459 195.231 87.8459C194.006 88.0458 199.792 90.0922 198.719 90.5236C197.646 90.955 194.605 90.9181 194.605 90.9181C194.605 90.9181 196.573 92.2807 196.589 93.1803C196.604 94.0798 195.657 94.7585 195.231 94.0062C194.805 93.2539 191.407 82.4799 189.713 78.4975C188.019 74.5151 181.022 71.3639 176.229 65.2247Z" fill="#FF6359"/>
<path opacity="0.4" d="M200.624 59.2487C194.721 57.6337 186.804 55.3347 186.804 55.3347L186.914 55.2769C188.587 55.6872 189.729 55.9818 189.729 55.9818C189.729 55.9818 196.768 56.3027 198.099 57.0971C199.027 57.7058 199.875 58.4286 200.624 59.2487Z" fill="#FF6359"/>
<path d="M192.323 68.5338C187.188 67.4816 183.521 71.8691 183.521 71.8691C183.521 71.8691 188.624 76.488 189.755 78.4713C190.887 80.4546 192.765 87.1411 192.765 87.1411C194.916 87.4883 198.883 85.2682 199.835 79.3762C200.787 73.4842 197.431 69.5807 192.323 68.5338Z" fill="#FF6359"/>
<path d="M221.041 208.906C221.041 208.906 191.58 152.806 189.66 148.813C187.74 144.82 181.275 136.455 181.275 136.455C181.275 136.455 174.62 132.646 171.574 126.013C168.528 119.379 165.177 95.6477 165.177 95.6477C165.177 95.6477 156.428 92.3544 154.34 90.913C152.251 89.4715 150.347 76.1513 150.347 74.631C150.347 73.1106 152.451 70.0647 152.451 70.0647C152.451 70.0647 151.693 66.4611 157.585 63.7939C157.585 63.7939 157.207 58.2754 160.247 57.1075C162.583 56.2079 170.243 55.0453 170.243 55.0453C171.326 54.0938 172.586 53.3661 173.952 52.9041C175.851 52.3781 189.734 55.9922 189.734 55.9922C189.734 55.9922 196.773 56.3131 198.104 57.1075C199.077 57.7496 199.963 58.5153 200.739 59.3854C200.739 59.3854 207.015 60.69 208.346 62.989C209.677 65.2879 210.245 76.6932 209.299 84.1056C208.352 91.518 210.051 104.096 210.051 104.096C210.051 104.096 212.013 113.813 213.533 117.501C215.054 121.189 242.825 150.47 242.825 150.47" stroke="#263238" stroke-linecap="round" stroke-linejoin="round"/>
<path d="M196.1 94.8746C196.1 94.8746 194.769 94.5905 193.059 88.3145C191.349 82.0384 190.897 79.1029 187.351 75.3835C184.836 72.7532 179.081 68.4552 176.23 65.2251C173.379 61.995 170.227 59.3856 167.765 61.3847C165.798 62.9629 164.514 67.0611 166.245 73.3845C168.47 81.5071 175.488 85.3737 175.488 85.3737L177.203 95.5901C177.203 95.5901 169.759 110.499 178.15 124.571" stroke="#263238" stroke-linecap="round" stroke-linejoin="round"/>
<path d="M183.495 71.869C183.495 71.869 187.178 67.4868 192.296 68.5337C197.415 69.5806 200.74 73.4788 199.809 79.3761C198.878 85.2734 194.89 87.4881 192.738 87.1409" stroke="#263238" stroke-linecap="round" stroke-linejoin="round"/>
<path d="M170.228 55.0347C169.459 56.9674 168.867 58.9659 168.46 61.0056" stroke="#263238" stroke-linecap="round" stroke-linejoin="round"/>
<path d="M167.113 75.6357C167.113 75.6357 167.555 82.1328 168.471 84.1266C169.386 86.1204 170.906 87.7407 171.569 90.3079C172.232 92.8752 172.332 96.8681 172.521 97.4415C172.711 98.0149 173.81 98.1622 173.81 98.1622C175.388 98.1991 176.025 97.3784 176.935 96.1263" stroke="#263238" stroke-linecap="round" stroke-linejoin="round"/>
<path d="M157.602 63.7834C157.602 63.7834 159.027 77.6613 160.169 83.5586C161.31 89.4559 163.325 90.3081 166.634 92.2125C169.943 94.1169 171.769 97.9993 172.058 98.5833C172.347 99.1672 173.431 99.2303 173.431 99.2303C174.068 99.1774 174.681 98.9663 175.216 98.6163C175.751 98.2663 176.19 97.7884 176.493 97.226" stroke="#263238" stroke-linecap="round" stroke-linejoin="round"/>
<path d="M152.457 70.0537C152.099 70.6061 155.15 84.6996 156.739 88.7872C158.328 92.8748 158.506 93.5219 162.71 94.6792C166.913 95.8366 170.106 97.762 171.243 97.0834" stroke="#263238" stroke-linecap="round" stroke-linejoin="round"/>
<path d="M181.648 62.2578C181.648 62.2578 183.832 67.487 182.39 70.9275" stroke="#263238" stroke-linecap="round" stroke-linejoin="round"/>
<path d="M189.729 55.9814C193.306 57.3959 196.987 58.5338 200.739 59.3851" stroke="#263238" stroke-linecap="round" stroke-linejoin="round"/>
<path d="M204.185 74.0525C204.185 74.0525 202.512 77.109 199.977 77.7666" stroke="#263238" stroke-linecap="round" stroke-linejoin="round"/>
<path d="M199.972 70.7224C199.972 70.7224 199.372 72.3006 198.735 72.7373" stroke="#263238" stroke-linecap="round" stroke-linejoin="round"/>
<path d="M202.076 83.2742C202.076 83.2742 198.272 86.1518 194.621 86.8988" stroke="#263238" stroke-linecap="round" stroke-linejoin="round"/>
<path d="M193.059 88.3193C193.059 88.3193 194.637 90.3132 198.735 90.5026" stroke="#263238" stroke-linecap="round" stroke-linejoin="round"/>
<path d="M180.749 79.5921C180.749 79.5921 184.474 76.0148 186.599 76.5093" stroke="#263238" stroke-linecap="round" stroke-linejoin="round"/>
<path d="M188.04 80.3179C188.04 80.3179 185.221 82.4222 184.705 82.4222" stroke="#263238" stroke-linecap="round" stroke-linejoin="round"/>
<path d="M159.006 91.476C159.006 91.476 159.942 91.6496 160.673 90.5186" stroke="#263238" stroke-linecap="round" stroke-linejoin="round"/>
<path d="M162.336 86.352C162.336 86.352 164.598 84.9526 166.076 84.6843" stroke="#263238" stroke-linecap="round" stroke-linejoin="round"/>
<path d="M182.264 133.804C182.732 133.388 187.104 129.853 189.808 128.601" stroke="#263238" stroke-linecap="round" stroke-linejoin="round"/>
<path d="M187.934 132.131C187.624 132.036 185.141 134.635 183.831 135.677" stroke="#263238" stroke-linecap="round" stroke-linejoin="round"/>
<path d="M189.166 139.838C189.166 139.838 197.494 155.62 199.367 161.933" stroke="#263238" stroke-linecap="round" stroke-linejoin="round"/>
<path d="M213.555 117.522C214.26 121.399 216.548 124.256 217.8 125.802" stroke="#263238" stroke-linecap="round" stroke-linejoin="round"/>
<path opacity="0.4" d="M187.304 70.0543C186.094 70.8014 187.367 73.2423 188.04 74.4891C188.713 75.7359 191.723 77.7192 192.349 79.592C192.975 81.4649 196.931 81.4123 198.135 79.592C199.34 77.7718 199.188 74.1367 195.905 71.3695C192.622 68.6024 189.024 69.0022 187.304 70.0543Z" fill="white"/>
<path d="M164.204 174.896C158.846 173.985 153.338 174.917 148.578 177.538C143.817 180.16 140.086 184.317 137.991 189.332C135.897 194.346 135.563 199.923 137.044 205.152C138.526 210.38 141.735 214.953 146.149 218.123" stroke="#263238" stroke-linecap="round" stroke-linejoin="round"/>
<path d="M174.225 179.089C171.995 177.478 169.503 176.264 166.86 175.501" stroke="#263238" stroke-linecap="round" stroke-linejoin="round"/>
<path d="M171.806 219.617C175.048 217.822 177.831 215.301 179.937 212.252C182.044 209.202 183.416 205.707 183.947 202.039C184.478 198.371 184.153 194.63 182.997 191.109C181.842 187.587 179.888 184.381 177.287 181.74" stroke="#263238" stroke-linecap="round" stroke-linejoin="round"/>
<path d="M172.969 227.204L174.4 228.466L172.169 220.822" stroke="#263238" stroke-linecap="round" stroke-linejoin="round"/>
<path d="M156.134 222.29C159.671 222.897 163.299 222.701 166.75 221.717L171.279 225.715" stroke="#263238" stroke-linecap="round" stroke-linejoin="round"/>
<path d="M150.621 220.659C151.519 221.046 152.44 221.378 153.378 221.653" stroke="#263238" stroke-linecap="round" stroke-linejoin="round"/>
<path d="M162.068 186.901C165.048 187.41 167.729 189.017 169.584 191.404C171.439 193.791 172.333 196.786 172.09 199.799C171.847 202.812 170.486 205.625 168.273 207.685C166.06 209.744 163.156 210.901 160.133 210.927C157.111 210.953 154.188 209.847 151.94 207.825C149.692 205.804 148.282 203.015 147.987 200.006C147.693 196.998 148.535 193.988 150.349 191.569C152.162 189.151 154.815 187.498 157.786 186.938" stroke="#263238" stroke-linecap="round" stroke-linejoin="round"/>
<path d="M157.786 212.042C154.282 211.445 151.159 209.481 149.103 206.581C147.047 203.682 146.227 200.085 146.823 196.581" stroke="#263238" stroke-linecap="round" stroke-linejoin="round"/>
<path d="M172.642 203.383C171.817 205.664 170.388 207.68 168.509 209.214C166.629 210.748 164.368 211.743 161.968 212.095" stroke="#263238" stroke-linecap="round" stroke-linejoin="round"/>
<path d="M147.854 193.235C149.212 190.281 151.597 187.922 154.565 186.596C157.533 185.271 160.882 185.069 163.988 186.028C167.094 186.987 169.745 189.043 171.449 191.811C173.152 194.58 173.791 197.874 173.247 201.078" stroke="#263238" stroke-linecap="round" stroke-linejoin="round"/>
<path d="M168.081 193.998L168.234 193.834" stroke="#263238" stroke-width="2" stroke-linecap="round" stroke-linejoin="round"/>
<path d="M165.935 196.312L167.003 195.16" stroke="#263238" stroke-width="2" stroke-linecap="round" stroke-linejoin="round"/>
<path d="M152.83 198.011L157.991 204.871L164.998 197.322" stroke="#263238" stroke-width="2" stroke-linecap="round" stroke-linejoin="round"/>
</svg>
