<svg width="120" height="120" viewBox="0 0 120 120" fill="none" xmlns="http://www.w3.org/2000/svg">
<path d="M31.0924 107.31C37.1025 113.651 51.8474 111.334 58.2395 107.31C78.9945 94.2457 115.335 72.5229 116.99 41.0466C117.678 27.6768 105.887 20.6481 100.972 18.5853C89.1301 13.6449 76.1423 12.1424 63.3327 11.5821C49.9375 10.9709 35.5745 11.4548 23.5289 17.9741C18.945 20.4444 14.6412 23.6277 11.6871 27.9569C8.68209 32.3626 6.97585 37.6086 6.51746 42.8802C5.77893 51.4114 8.0709 59.968 11.5343 67.7862C14.9977 75.6043 19.6326 82.8622 23.8855 90.2984C26.6613 95.1624 26.0246 101.962 31.0924 107.31Z" fill="#F6F7FA"/>
<path opacity="0.7" d="M31.0924 107.31C37.1025 113.651 51.8474 111.334 58.2395 107.31C78.9945 94.2457 115.335 72.5229 116.99 41.0466C117.678 27.6768 105.887 20.6481 100.972 18.5853C89.1301 13.6449 76.1423 12.1424 63.3327 11.5821C49.9375 10.9709 35.5745 11.4548 23.5289 17.9741C18.945 20.4444 14.6412 23.6277 11.6871 27.9569C8.68209 32.3626 6.97585 37.6086 6.51746 42.8802C5.77893 51.4114 8.0709 59.968 11.5343 67.7862C14.9977 75.6043 19.6326 82.8622 23.8855 90.2984C26.6613 95.1624 26.0246 101.962 31.0924 107.31Z" fill="#F6F7FA"/>
<path opacity="0.2" d="M63.869 81.8942C63.869 81.8942 61.9081 91.8515 49.8625 94.118C49.8625 94.118 46.7047 96.6392 45.6606 98.1162C44.6164 99.5933 39.0393 102.114 33.3604 110.009C27.6814 117.904 19.2266 92.8702 19.2266 92.8702L37.9188 68.6008L63.869 81.8942Z" fill="black" fill-opacity="0.7"/>
<path d="M74.5904 35.1131C74.5904 35.1131 81.0843 31.9298 82.5104 32.4901C83.9365 33.0503 85.3117 36.31 79.8364 39.4679C74.3866 42.6257 76.0165 48.4829 76.0165 48.4829H79.9128C79.9128 48.4829 82.2557 49.4252 83.1725 50.6475C84.0893 51.8699 84.7259 56.0464 85.2607 57.4725C85.7701 58.8986 85.5154 60.2993 84.0893 60.7577C84.0893 60.7577 83.1725 64.7304 83.4272 66.4876C83.6818 68.2447 83.5545 69.3653 81.8737 69.5945C80.1929 69.7982 78.4867 68.3721 78.614 66.4876L77.3153 71.1988L78.232 73.0069C78.232 73.0069 79.9128 73.5672 81.7464 75.1206C83.5545 76.6741 85.3881 77.107 84.8533 78.8387C84.344 80.5704 83.2998 82.4549 77.85 80.2648C72.4003 78.1002 67.8418 69.569 67.8418 69.569L64.5566 39.8498L74.5904 35.1131Z" fill="white"/>
<path opacity="0.4" d="M81.4153 52.1755C78.4612 56.1992 81.7209 60.8086 81.7209 60.8086C81.7209 60.8086 79.6836 61.9545 79.6327 64.8322C79.6072 66.0291 79.9128 67.7099 80.2693 69.2888C79.2507 68.805 78.5122 67.7354 78.614 66.4621L77.3152 71.1733L78.232 72.9814C78.232 72.9814 79.429 73.3889 80.906 74.4585C80.0911 76.3175 79.8619 78.6095 79.9128 80.9779C79.3016 80.8251 78.614 80.5959 77.8246 80.2903C72.3748 78.1256 67.8163 69.5944 67.8163 69.5944L64.5566 39.8498L74.5904 35.1131C74.5904 35.1131 78.1302 33.3814 80.5749 32.6938C80.3967 34.9603 80.8296 37.3287 81.1607 38.6274C80.7787 38.9076 80.3457 39.1877 79.8619 39.4678C74.4121 42.6002 76.0165 48.4829 76.0165 48.4829H79.9128C79.9128 48.4829 82.1284 49.3997 83.0961 50.5711C82.5358 50.9022 81.9756 51.4115 81.4153 52.1755Z" fill="#43419E"/>
<path d="M64.4287 77.1069C64.4287 77.1069 57.3745 90.9605 44.6414 94.0929C44.6414 94.0929 44.1575 96.8432 41.9929 98.0147C40.8469 98.6513 36.1866 105.604 32.112 111.945L9.54883 98.1165C10.9495 96.7414 12.5284 95.1624 14.1328 93.5071C18.844 88.694 23.8609 83.2952 25.4143 80.6467C26.7895 78.2783 28.5212 74.1782 30.0492 70.3074C31.9846 65.3669 33.5635 60.8339 33.5635 60.8339L41.1015 52.4555L52.9434 39.2894L53.4527 40.9702L64.4287 77.1069Z" fill="white"/>
<path opacity="0.4" d="M52.9174 39.2894L64.4282 77.0814C64.4282 77.0814 57.374 90.935 44.6409 94.0674C44.6409 94.0674 44.157 96.8177 41.9924 97.9892C40.9483 98.5494 37.1028 104.228 33.3848 109.958C34.7599 105.222 38.7582 97.6836 38.7582 97.6836C36.1861 94.6531 36.95 91.4443 37.9687 92.3611C38.9619 93.2525 41.5849 95.8245 41.7377 96.0028C40.5917 94.6786 40.3371 92.5649 40.3371 92.5649C40.3371 92.5649 43.5203 94.6786 43.775 91.2915C44.0297 87.9045 41.865 79.628 41.865 79.628L36.2115 57.8798L52.9174 39.2894Z" fill="#43419E"/>
<path d="M64.5566 39.8498L74.5904 35.1131C74.5904 35.1131 81.0843 31.9298 82.5104 32.4901C83.9365 33.0503 85.3117 36.31 79.8364 39.4679C74.3866 42.6257 76.0165 48.4829 76.0165 48.4829H79.9128C79.9128 48.4829 82.2557 49.4252 83.1725 50.6475C84.0893 51.8699 84.7259 56.0464 85.2607 57.4725C85.7701 58.8986 85.5154 60.2993 84.0893 60.7577C84.0893 60.7577 83.1725 64.7304 83.4272 66.4876C83.6818 68.2447 83.5545 69.3653 81.8737 69.5945C80.1929 69.7982 78.4867 68.3721 78.614 66.4876L77.3153 71.1988L78.232 73.0069C78.232 73.0069 79.9128 73.5672 81.7464 75.1206C83.5545 76.6741 85.3881 77.107 84.8533 78.8387C84.344 80.5704 83.2998 82.4549 77.85 80.2648C72.4003 78.1002 67.8418 69.569 67.8418 69.569" stroke="#263238" stroke-miterlimit="10" stroke-linecap="round" stroke-linejoin="round"/>
<path d="M84.0644 60.7576C82.1035 61.2924 79.837 60.8849 78.9967 57.447C78.1563 54.009 79.837 50.3164 80.9576 49.9854" stroke="#263238" stroke-miterlimit="10" stroke-linecap="round" stroke-linejoin="round"/>
<path d="M78.6137 66.462C78.6137 66.462 78.4863 62.0308 80.1162 60.9358" stroke="#263238" stroke-miterlimit="10" stroke-linecap="round" stroke-linejoin="round"/>
<path opacity="0.4" d="M31.2462 88.4902C31.2462 88.4902 26.484 87.9045 25.4144 85.7654C24.5231 84.0082 19.7609 90.604 14.1328 93.4816C18.8441 88.6685 23.8609 83.2697 25.4144 80.6212C26.7896 78.2528 28.5213 74.1527 30.0492 70.2819C29.9728 73.4906 28.2666 78.3801 28.7505 80.9522C28.7505 80.9522 26.9169 81.4106 27.2734 83.4225C27.6554 85.4852 31.2462 88.4902 31.2462 88.4902Z" fill="#43419E"/>
<path d="M64.4281 77.1068C64.4281 77.1068 57.3739 90.9604 44.6407 94.0927C44.6407 94.0927 44.1569 96.8431 41.9922 98.0146C40.8463 98.6512 36.1859 105.604 32.1113 111.945" stroke="#263238" stroke-miterlimit="10" stroke-linecap="round" stroke-linejoin="round"/>
<path d="M9.54883 98.1166C14.9986 92.7433 23.3516 84.2121 25.4143 80.6468C28.5467 75.2479 33.5635 60.834 33.5635 60.834L52.9179 39.315" stroke="#263238" stroke-miterlimit="10" stroke-linecap="round" stroke-linejoin="round"/>
<path d="M41.8652 55.7407C41.8652 55.7407 44.8448 58.4146 45.6852 60.8339" stroke="#263238" stroke-miterlimit="10" stroke-linecap="round" stroke-linejoin="round"/>
<path d="M76.983 88.4902H44.9719C44.0296 88.4902 43.2656 87.7263 43.2656 86.784V18.6362C43.2656 17.694 44.0296 16.93 44.9719 16.93H76.983C77.9252 16.93 78.6892 17.694 78.6892 18.6362V86.7585C78.6892 87.7263 77.9252 88.4902 76.983 88.4902Z" fill="#263238"/>
<path d="M67.9935 18.8913L67.3059 20.1391C67.1531 20.4193 66.873 20.572 66.5674 20.572H55.3622C55.0566 20.572 54.7765 20.3938 54.6237 20.1391L53.9361 18.8913C53.7833 18.6111 53.5032 18.4583 53.1976 18.4583H45.3795C44.9211 18.4583 44.5391 18.8403 44.5391 19.2987V86.3005C44.5391 86.7589 44.9211 87.1409 45.3795 87.1409H76.5757C77.034 87.1409 77.416 86.7589 77.416 86.3005V19.2987C77.416 18.8403 77.034 18.4583 76.5757 18.4583H68.7575C68.4264 18.4329 68.1463 18.6111 67.9935 18.8913Z" fill="#43419E" stroke="white" stroke-width="0.5" stroke-miterlimit="10" stroke-linecap="round" stroke-linejoin="round"/>
<path d="M58.5443 19.4765C58.7975 19.4765 59.0027 19.2713 59.0027 19.0181C59.0027 18.765 58.7975 18.5598 58.5443 18.5598C58.2912 18.5598 58.0859 18.765 58.0859 19.0181C58.0859 19.2713 58.2912 19.4765 58.5443 19.4765Z" stroke="white" stroke-miterlimit="10"/>
<path d="M63.8669 19.0182C63.8669 19.171 63.7396 19.2983 63.5868 19.2983C63.434 19.2983 63.3066 19.171 63.3066 19.0182C63.3066 18.8654 63.434 18.738 63.5868 18.738C63.7396 18.738 63.8669 18.8654 63.8669 19.0182Z" stroke="white" stroke-miterlimit="10"/>
<path d="M62.5928 18.8401H59.8169C59.7151 18.8401 59.6387 18.9165 59.6387 19.0184C59.6387 19.1203 59.7151 19.1967 59.8169 19.1967H62.5928C62.6946 19.1967 62.771 19.1203 62.771 19.0184C62.771 18.942 62.6946 18.8401 62.5928 18.8401Z" fill="white"/>
<path d="M50.3194 20.1388H47.3398V21.4121H50.3194V20.1388Z" stroke="#263238" stroke-width="0.5" stroke-miterlimit="10" stroke-linecap="round" stroke-linejoin="round"/>
<path d="M50.8041 20.3677H50.3457V21.2081H50.8041V20.3677Z" stroke="#263238" stroke-width="0.5" stroke-miterlimit="10" stroke-linecap="round" stroke-linejoin="round"/>
<path d="M71.5074 20.954H70.9727V21.4124H71.5074V20.954Z" stroke="#263238" stroke-width="0.5" stroke-miterlimit="10" stroke-linecap="round" stroke-linejoin="round"/>
<path d="M72.5524 20.4954H72.0176V21.4121H72.5524V20.4954Z" stroke="#263238" stroke-width="0.5" stroke-miterlimit="10" stroke-linecap="round" stroke-linejoin="round"/>
<path d="M73.5699 20.0367H73.0352V21.4119H73.5699V20.0367Z" stroke="#263238" stroke-width="0.5" stroke-miterlimit="10" stroke-linecap="round" stroke-linejoin="round"/>
<path d="M74.6149 19.5531H74.0801V21.4121H74.6149V19.5531Z" stroke="#263238" stroke-width="0.5" stroke-miterlimit="10" stroke-linecap="round" stroke-linejoin="round"/>
<path opacity="0.5" d="M77.1862 33.2542H44.7422V64.1957H77.1862V33.2542Z" fill="white"/>
<path d="M74.5888 36.9975H47.3398V41.0721H74.5888V36.9975Z" fill="white" stroke="#263238" stroke-width="0.5" stroke-miterlimit="10" stroke-linecap="round" stroke-linejoin="round"/>
<path d="M74.5888 44.6373H47.3398V48.7119H74.5888V44.6373Z" fill="white" stroke="#263238" stroke-width="0.5" stroke-miterlimit="10" stroke-linecap="round" stroke-linejoin="round"/>
<path d="M74.5888 51.5898H47.3398V55.6644H74.5888V51.5898Z" fill="white" stroke="#263238" stroke-width="0.5" stroke-miterlimit="10" stroke-linecap="round" stroke-linejoin="round"/>
<path d="M60.2512 57.1415H47.3398V61.9037H60.2512V57.1415Z" fill="white" stroke="#263238" stroke-width="0.5" stroke-miterlimit="10" stroke-linecap="round" stroke-linejoin="round"/>
<path d="M74.6145 57.1415H61.7031V61.9037H74.6145V57.1415Z" fill="white" stroke="#263238" stroke-width="0.5" stroke-miterlimit="10" stroke-linecap="round" stroke-linejoin="round"/>
<path d="M57.9348 53.1688V54.3657H57.8075V53.2707H57.5273V53.1688H57.9348Z" fill="#263238"/>
<path d="M59.0554 54.2636V54.3655H58.1895V54.2891L58.6989 53.8052C58.8262 53.6779 58.8517 53.6015 58.8517 53.4997C58.8517 53.3723 58.7498 53.2705 58.5715 53.2705C58.4187 53.2705 58.3169 53.3214 58.2405 53.3978L58.1641 53.3214C58.2659 53.2195 58.4187 53.1431 58.597 53.1431C58.8517 53.1431 59.0044 53.2705 59.0044 53.4742C59.0044 53.6015 58.979 53.7034 58.8007 53.8562L58.3933 54.2636H59.0554Z" fill="#263238"/>
<path d="M59.9987 54.0341C59.9987 54.2378 59.8459 54.3906 59.5657 54.3906C59.3875 54.3906 59.2347 54.3397 59.1328 54.2378L59.1837 54.1359C59.2601 54.2123 59.4129 54.2633 59.5657 54.2633C59.7695 54.2633 59.8713 54.1614 59.8713 54.0086C59.8713 53.8558 59.7695 53.7794 59.5403 53.7794H59.4639V53.6775L59.7949 53.2701H59.1837V53.1682H59.9477V53.2446L59.6167 53.6775C59.8713 53.703 59.9987 53.8303 59.9987 54.0341Z" fill="#263238"/>
<path d="M61.1945 54.0595H60.9653V54.3651H60.838V54.0595H60.1504V53.9577L60.7871 53.1682H60.9144L60.3032 53.9577H60.838V53.6775H60.9653V53.9577H61.1945V54.0595Z" fill="#263238"/>
<path d="M62.569 54.0089C62.569 54.2126 62.4162 54.3654 62.136 54.3654C61.9578 54.3654 61.805 54.3145 61.7031 54.2126L61.7541 54.1107C61.8305 54.1871 61.9578 54.2381 62.136 54.2381C62.3398 54.2381 62.4416 54.1362 62.4416 53.9834C62.4416 53.8306 62.3398 53.7287 62.0342 53.7287H61.7795L61.8305 53.1176H62.4926V53.2194H61.9323L61.8814 53.6014H62.0342C62.4416 53.6523 62.569 53.8051 62.569 54.0089Z" fill="#263238"/>
<path d="M63.6394 54.0086C63.6394 54.2378 63.4611 54.3906 63.2319 54.3906C62.9008 54.3906 62.748 54.1614 62.748 53.7794C62.748 53.3719 62.9772 53.1682 63.3083 53.1682C63.4102 53.1682 63.512 53.1937 63.5884 53.2446L63.5375 53.3465C63.4866 53.2955 63.3847 53.2955 63.3083 53.2955C63.0536 53.2955 62.8754 53.4738 62.8754 53.7794C62.8754 53.8049 62.8754 53.8303 62.8754 53.8813C62.9263 53.7539 63.0791 53.6775 63.2319 53.6775C63.4611 53.6521 63.6394 53.7794 63.6394 54.0086ZM63.512 54.0086C63.512 53.8558 63.3847 53.7539 63.2064 53.7539C63.0282 53.7539 62.9008 53.8558 62.9008 54.0086C62.9008 54.1359 63.0027 54.2633 63.2319 54.2633C63.3847 54.2633 63.512 54.1614 63.512 54.0086Z" fill="#263238"/>
<path d="M64.6062 53.1682V53.2446L64.0968 54.3651H63.9695L64.4534 53.2701H63.8422V53.4993H63.7148V53.1682H64.6062Z" fill="#263238"/>
<path d="M65.6766 54.0344C65.6766 54.2382 65.4983 54.391 65.2182 54.391C64.938 54.391 64.7598 54.2636 64.7598 54.0344C64.7598 53.8816 64.8362 53.7798 64.989 53.7288C64.8616 53.6779 64.8107 53.6015 64.8107 53.4742C64.8107 53.2705 64.989 53.1431 65.2436 53.1431C65.4983 53.1431 65.6766 53.2705 65.6766 53.4742C65.6766 53.6015 65.6002 53.7034 65.4728 53.7288C65.6002 53.7798 65.6766 53.8816 65.6766 54.0344ZM65.5492 54.0344C65.5492 53.8816 65.4219 53.8052 65.2182 53.8052C65.0144 53.8052 64.8871 53.9071 64.8871 54.0344C64.8871 54.1872 65.0144 54.2891 65.2182 54.2891C65.4219 54.2636 65.5492 54.1872 65.5492 54.0344ZM65.2182 53.7034C65.3964 53.7034 65.5238 53.627 65.5238 53.4997C65.5238 53.3723 65.3964 53.2705 65.2182 53.2705C65.0399 53.2705 64.9126 53.3469 64.9126 53.4997C64.9126 53.6015 65.0144 53.7034 65.2182 53.7034Z" fill="#263238"/>
<path d="M67.153 53.7542C67.153 54.1617 66.9238 54.3654 66.5928 54.3654C66.4909 54.3654 66.3891 54.3399 66.3127 54.289L66.3636 54.1871C66.4145 54.2381 66.5164 54.2381 66.5928 54.2381C66.8474 54.2381 67.0257 54.0598 67.0257 53.7542C67.0257 53.7287 67.0257 53.7033 67.0257 53.6523C66.9748 53.7797 66.822 53.8561 66.6692 53.8561C66.44 53.8561 66.2617 53.7033 66.2617 53.4995C66.2617 53.2704 66.44 53.1176 66.6692 53.1176C67.0002 53.143 67.153 53.3722 67.153 53.7542ZM67.0002 53.525C67.0002 53.3977 66.8984 53.2704 66.6946 53.2704C66.5164 53.2704 66.3891 53.3722 66.3891 53.525C66.3891 53.6778 66.5164 53.7797 66.6946 53.7797C66.8729 53.7797 67.0002 53.6778 67.0002 53.525Z" fill="#263238"/>
<path d="M67.6633 53.1682V54.3651H67.536V53.2701H67.2559V53.1682H67.6633Z" fill="#263238"/>
<path d="M67.9688 53.7794C67.9688 53.3974 68.1725 53.1682 68.4526 53.1682C68.7327 53.1682 68.9365 53.3974 68.9365 53.7794C68.9365 54.1614 68.7327 54.3906 68.4526 54.3906C68.1725 54.3906 67.9688 54.1614 67.9688 53.7794ZM68.8092 53.7794C68.8092 53.4483 68.6563 53.2701 68.4526 53.2701C68.2489 53.2701 68.0961 53.4483 68.0961 53.7794C68.0961 54.1105 68.2489 54.2887 68.4526 54.2887C68.6563 54.2633 68.8092 54.085 68.8092 53.7794Z" fill="#263238"/>
<path d="M69.4192 53.1682V54.3651H69.2919V53.2701H69.0117V53.1682H69.4192Z" fill="#263238"/>
<path d="M70.5149 53.1682V54.3651H70.3876V53.2701H70.1074V53.1682H70.5149Z" fill="#263238"/>
<path d="M71.1262 53.1682V54.3651H70.9989V53.2701H70.7188V53.1682H71.1262Z" fill="#263238"/>
<path d="M72.2467 54.2636V54.3655H71.4063V54.2891L71.9156 53.8052C72.043 53.6779 72.0684 53.6015 72.0684 53.4997C72.0684 53.3723 71.9666 53.2705 71.7883 53.2705C71.6355 53.2705 71.5337 53.3214 71.4573 53.3978L71.3809 53.3214C71.4827 53.2195 71.6355 53.1431 71.8138 53.1431C72.0684 53.1431 72.2212 53.2705 72.2212 53.4742C72.2212 53.6015 72.1958 53.7034 72.0175 53.8562L71.6101 54.2636H72.2467Z" fill="#263238"/>
<path d="M72.7317 53.1682V54.3651H72.6044V53.2701H72.3242V53.1682H72.7317Z" fill="#263238"/>
<path d="M52.4081 52.8881V52.7098C52.4081 52.5316 52.2554 52.3788 52.0771 52.3788H48.8174C48.6391 52.3788 48.4863 52.5316 48.4863 52.7098V52.8881H52.4081Z" fill="#263238"/>
<path d="M48.5117 53.1428V54.4925C48.5117 54.6707 48.6645 54.8235 48.8428 54.8235H52.1025C52.2807 54.8235 52.4335 54.6707 52.4335 54.4925V53.1428H48.5117Z" fill="#263238"/>
<path d="M48.5625 60.248C48.5625 59.866 48.7662 59.6368 49.0464 59.6368C49.3265 59.6368 49.5302 59.866 49.5302 60.248C49.5302 60.63 49.3265 60.8592 49.0464 60.8592C48.7662 60.8592 48.5625 60.63 48.5625 60.248ZM49.4029 60.248C49.4029 59.917 49.2501 59.7387 49.0464 59.7387C48.8426 59.7387 48.6898 59.917 48.6898 60.248C48.6898 60.5791 48.8426 60.7574 49.0464 60.7574C49.2501 60.7574 49.4029 60.5791 49.4029 60.248Z" fill="#263238"/>
<path d="M50.6258 60.5282C50.6258 60.7319 50.4475 60.8847 50.1674 60.8847C49.8872 60.8847 49.709 60.7573 49.709 60.5282C49.709 60.3754 49.7854 60.2735 49.9382 60.2226C49.8109 60.1716 49.7599 60.0952 49.7599 59.9679C49.7599 59.7642 49.9382 59.6368 50.1928 59.6368C50.4475 59.6368 50.6258 59.7642 50.6258 59.9679C50.6258 60.0952 50.5494 60.1971 50.422 60.2226C50.5494 60.2735 50.6258 60.3754 50.6258 60.5282ZM50.4984 60.5027C50.4984 60.3499 50.3711 60.2735 50.1674 60.2735C49.9636 60.2735 49.8363 60.3754 49.8363 60.5027C49.8363 60.6555 49.9636 60.7573 50.1674 60.7573C50.3711 60.7573 50.4984 60.6555 50.4984 60.5027ZM50.1674 60.1716C50.3456 60.1716 50.473 60.0952 50.473 59.9679C50.473 59.8406 50.3456 59.7387 50.1674 59.7387C49.9891 59.7387 49.8618 59.8151 49.8618 59.9679C49.8618 60.0952 49.9891 60.1716 50.1674 60.1716Z" fill="#263238"/>
<path d="M51.236 59.4079H51.3379L50.7776 61.0377H50.6758L51.236 59.4079Z" fill="#263238"/>
<path d="M52.2037 60.7323V60.8341H51.3634V60.7577L51.8727 60.2739C52 60.1466 52.0255 60.0702 52.0255 59.9683C52.0255 59.841 51.9236 59.7391 51.7454 59.7391C51.5926 59.7391 51.4907 59.79 51.4143 59.8664L51.3379 59.79C51.4398 59.6882 51.5926 59.6118 51.7708 59.6118C52.0255 59.6118 52.1783 59.7391 52.1783 59.9428C52.1783 60.0702 52.1528 60.172 51.9746 60.3248L51.5671 60.7323H52.2037Z" fill="#263238"/>
<path d="M53.1725 60.5031C53.1725 60.7068 53.0197 60.8596 52.7396 60.8596C52.5613 60.8596 52.4085 60.8087 52.3066 60.7068L52.3576 60.6049C52.434 60.6813 52.5613 60.7323 52.7396 60.7323C52.9433 60.7323 53.0452 60.6304 53.0452 60.4776C53.0452 60.3248 52.9433 60.2229 52.6377 60.2229H52.383L52.434 59.6118H53.0961V59.7136H52.5358L52.4849 60.0956H52.6377C53.0452 60.1466 53.1725 60.2739 53.1725 60.5031Z" fill="#263238"/>
<path d="M49.1227 58.873V58.9494H48.5879V58.2109H49.0972V58.2873H48.6643V58.5419H49.0463V58.6183H48.6643V58.8985H49.1227V58.873Z" fill="#263238"/>
<path d="M49.7849 58.9494L49.5303 58.6183L49.3011 58.9494H49.1992L49.4793 58.5674L49.2247 58.2109H49.3265L49.5557 58.5165L49.7849 58.2109H49.8613L49.6067 58.5674L49.8868 58.9494H49.7849Z" fill="#263238"/>
<path d="M50.574 58.44C50.574 58.5928 50.4467 58.6946 50.2684 58.6946H50.0647V58.9238H49.9883V58.1853H50.2684C50.4467 58.1853 50.574 58.2872 50.574 58.44ZM50.4976 58.44C50.4976 58.3126 50.4212 58.2617 50.2684 58.2617H50.0647V58.6437H50.2684C50.4212 58.6437 50.4976 58.5673 50.4976 58.44Z" fill="#263238"/>
<path d="M51.0332 58.1853H51.3388C51.568 58.1853 51.7463 58.3381 51.7463 58.5673C51.7463 58.7965 51.5935 58.9493 51.3388 58.9493H51.0332V58.1853ZM51.3388 58.8729C51.5425 58.8729 51.6699 58.7455 51.6699 58.5673C51.6699 58.389 51.5425 58.2617 51.3388 58.2617H51.1096V58.8729H51.3388Z" fill="#263238"/>
<path d="M52.3315 58.5929V58.9494H52.2551V58.873C52.2296 58.9239 52.1532 58.9749 52.0514 58.9749C51.9241 58.9749 51.8477 58.8985 51.8477 58.8221C51.8477 58.7457 51.8986 58.6693 52.0768 58.6693H52.2551V58.6438C52.2551 58.5419 52.2042 58.491 52.1023 58.491C52.0259 58.491 51.9495 58.5165 51.9241 58.5674L51.8986 58.5165C51.9495 58.4655 52.0259 58.4401 52.1278 58.4401C52.2551 58.3637 52.3315 58.4401 52.3315 58.5929ZM52.2551 58.7711V58.6693H52.0768C51.975 58.6693 51.9241 58.7202 51.9241 58.7711C51.9241 58.8475 51.975 58.873 52.0768 58.873C52.1532 58.873 52.2296 58.8475 52.2551 58.7711Z" fill="#263238"/>
<path d="M52.841 58.8985C52.8155 58.924 52.7646 58.9494 52.7137 58.9494C52.6118 58.9494 52.5608 58.8985 52.5608 58.7966V58.4656H52.459V58.3892H52.5608V58.2618H52.6373V58.3892H52.8155V58.4656H52.6373V58.7966C52.6373 58.873 52.6627 58.8985 52.7391 58.8985C52.7646 58.8985 52.79 58.8985 52.8155 58.873L52.841 58.8985Z" fill="#263238"/>
<path d="M53.4274 58.6691H52.969C52.969 58.7964 53.0708 58.8728 53.1982 58.8728C53.2746 58.8728 53.3255 58.8474 53.3764 58.7964L53.4274 58.8474C53.3764 58.8983 53.3 58.9492 53.1982 58.9492C53.0199 58.9492 52.8926 58.8219 52.8926 58.6691C52.8926 58.4909 53.0199 58.389 53.1727 58.389C53.3255 58.3635 53.4274 58.4909 53.4274 58.6691ZM52.969 58.6182H53.3764C53.3764 58.5163 53.2746 58.4399 53.1727 58.4399C53.0454 58.4399 52.969 58.5163 52.969 58.6182Z" fill="#263238"/>
<path d="M62.7981 59.6371V60.8341H62.6708V59.739H62.3906V59.6371H62.7981Z" fill="#263238"/>
<path d="M63.8932 60.7321V60.834H63.0528V60.7576L63.5621 60.2737C63.6895 60.1464 63.7149 60.07 63.7149 59.9681C63.7149 59.8408 63.6131 59.7389 63.4348 59.7389C63.282 59.7389 63.1801 59.7898 63.1037 59.8662L63.0273 59.7898C63.1292 59.688 63.282 59.6116 63.4603 59.6116C63.7149 59.6116 63.8677 59.7389 63.8677 59.9426C63.8677 60.07 63.8423 60.1718 63.664 60.3246L63.2565 60.7321H63.8932Z" fill="#263238"/>
<path d="M64.862 60.503C64.862 60.7067 64.7092 60.8595 64.429 60.8595C64.2508 60.8595 64.098 60.8086 63.9961 60.7067L64.047 60.6049C64.1234 60.6813 64.2762 60.7322 64.429 60.7322C64.6328 60.7322 64.7346 60.6303 64.7346 60.4775C64.7346 60.3247 64.6328 60.2483 64.4036 60.2483H64.3272V60.1465L64.6582 59.739H64.047V59.6371H64.811V59.7135L64.48 60.1465C64.7346 60.1719 64.862 60.3247 64.862 60.503Z" fill="#263238"/>
<path d="M62.416 58.5673C62.416 58.3381 62.5943 58.1853 62.798 58.1853C62.8999 58.1853 63.0017 58.2108 63.0781 58.2872L63.0272 58.3381C62.9763 58.2872 62.8999 58.2617 62.798 58.2617C62.6197 58.2617 62.4924 58.389 62.4924 58.5673C62.4924 58.7456 62.6197 58.8729 62.798 58.8729C62.8744 58.8729 62.9508 58.8474 63.0272 58.771L63.0781 58.822C63.0017 58.8984 62.9253 58.9238 62.798 58.9238C62.5943 58.9493 62.416 58.771 62.416 58.5673Z" fill="#263238"/>
<path d="M64.2748 58.1853L64.0201 58.9238H63.9437L63.7146 58.2872L63.4854 58.9238H63.409L63.1543 58.1853H63.2307L63.4344 58.822L63.6636 58.1853H63.74L63.9692 58.822L64.1984 58.1853H64.2748Z" fill="#263238"/>
<path d="M60.5567 71.8099V72.4466H58.061V71.9372L59.3343 70.7403C59.6399 70.4602 59.6908 70.2819 59.6908 70.1291C59.6908 69.8745 59.5126 69.7217 59.1561 69.7217C58.8759 69.7217 58.6213 69.8235 58.4685 70.0527L57.9082 69.6962C58.1629 69.3142 58.6213 69.085 59.2325 69.085C59.971 69.085 60.4548 69.467 60.4548 70.0527C60.4548 70.3838 60.353 70.6639 59.8946 71.0969L59.1306 71.8099H60.5567Z" fill="white"/>
<path d="M60.8633 70.7913C60.8633 69.6962 61.4745 69.085 62.2894 69.085C63.1043 69.085 63.7155 69.6962 63.7155 70.7913C63.7155 71.8863 63.1043 72.4975 62.2894 72.4975C61.449 72.4975 60.8633 71.8863 60.8633 70.7913ZM62.9261 70.7913C62.9261 70.0273 62.6714 69.7217 62.2894 69.7217C61.9074 69.7217 61.6527 70.0273 61.6527 70.7913C61.6527 71.5552 61.9074 71.8608 62.2894 71.8608C62.6459 71.8608 62.9261 71.5298 62.9261 70.7913Z" fill="white"/>
<path d="M64.0703 70.7913C64.0703 69.6962 64.6815 69.085 65.4964 69.085C66.3113 69.085 66.9225 69.6962 66.9225 70.7913C66.9225 71.8863 66.3113 72.4975 65.4964 72.4975C64.656 72.4975 64.0703 71.8863 64.0703 70.7913ZM66.1331 70.7913C66.1331 70.0273 65.8784 69.7217 65.4964 69.7217C65.1144 69.7217 64.8598 70.0273 64.8598 70.7913C64.8598 71.5552 65.1144 71.8608 65.4964 71.8608C65.8529 71.8608 66.1331 71.5298 66.1331 70.7913Z" fill="white"/>
<path d="M66.2614 80.8756H55.6929C54.3177 80.8756 53.2227 79.7805 53.2227 78.4053C53.2227 77.0302 54.3177 75.9351 55.6929 75.9351H66.2614C67.6366 75.9351 68.7316 77.0302 68.7316 78.4053C68.7316 79.7551 67.6111 80.8756 66.2614 80.8756Z" fill="#92E3A9"/>
<path d="M44.9977 73.0833C45.3797 78.966 42.6548 85.4854 42.6548 85.4854L27.9608 81.3599L25.3887 80.6468C27.9353 77.107 29.1577 70.1292 28.4956 64.5012C28.4446 64.0682 28.4192 63.6862 28.3937 63.3043C28.139 58.6439 30.0745 57.2942 31.7043 55.2314C33.4869 53.0159 37.4597 44.612 37.4597 42.6256C37.4597 40.6393 42.4256 35.7752 41.3306 30.249C41.3306 30.249 42.8331 29.3068 44.3611 30.0708C45.0486 30.4273 45.7362 31.1149 46.2965 32.3882C47.5953 35.4187 45.7617 43.9753 44.2337 46.0636L41.2542 58.4147C41.2542 58.4147 42.2474 60.1464 43.2405 63.3043C43.9791 65.749 44.743 69.0596 44.9977 73.0833Z" fill="white"/>
<path opacity="0.4" d="M28.3937 63.3044C29.2341 65.5709 30.0999 67.1243 30.0235 70.3076C29.9471 73.5164 28.2409 78.4059 28.7248 80.978C28.7248 80.978 28.3428 81.0798 27.9608 81.3854L25.3887 80.6724C27.9353 77.1326 29.1577 70.1548 28.4956 64.5268C28.4701 64.0684 28.4192 63.6609 28.3937 63.3044Z" fill="#43419E"/>
<path opacity="0.4" d="M44.2074 46.064L41.2278 58.4151C41.2278 58.4151 42.221 60.1469 43.2142 63.3047C41.2023 60.045 39.4961 59.0773 39.4961 59.0773C40.8458 57.4729 41.8899 45.682 41.8899 45.682C41.8899 45.682 46.1173 40.7161 45.7099 35.5464C45.5316 33.1526 44.9459 31.3445 44.3856 30.0712C45.0732 30.4277 45.7608 31.1153 46.3211 32.3886C47.5689 35.4191 45.7608 43.9758 44.2074 46.064Z" fill="#43419E"/>
<path d="M25.4141 80.6467C27.9607 77.1069 29.1831 70.1546 28.5209 64.5011C27.8588 58.873 29.9471 57.4469 31.7297 55.2313C33.4869 53.0158 37.4851 44.6119 37.4851 42.6255C37.4851 40.6392 42.451 35.7751 41.356 30.2489C41.356 30.2489 44.5392 28.288 46.2964 32.4136C47.5952 35.444 45.7616 44.0007 44.2336 46.0889L41.2541 58.4401C41.2541 58.4401 44.4374 63.9153 45.0231 73.1087C45.4051 78.9914 42.6802 85.5108 42.6802 85.5108" stroke="#263238" stroke-miterlimit="10" stroke-linecap="round" stroke-linejoin="round"/>
<path d="M35.2441 90.1967C35.2441 90.1967 38.5802 92.2595 40.5411 95.5192" stroke="#263238" stroke-miterlimit="10" stroke-linecap="round" stroke-linejoin="round"/>
<path d="M44.6159 94.0931C44.6159 94.0931 41.7382 94.5005 39.1406 91.3936C37.4599 89.4073 32.4175 88.4905 31.2461 83.2699" stroke="#263238" stroke-miterlimit="10" stroke-linecap="round" stroke-linejoin="round"/>
<path d="M56.7838 78.4258C56.7838 78.5954 56.7548 78.7436 56.6967 78.8704C56.6402 78.9957 56.5562 79.0935 56.4446 79.1638C56.3331 79.2341 56.1948 79.2692 56.0298 79.2692C55.8602 79.2692 55.7188 79.2341 55.6058 79.1638C55.4942 79.0935 55.411 78.9949 55.3559 78.8681C55.3009 78.7413 55.2734 78.5931 55.2734 78.4235C55.2734 78.2554 55.3009 78.1087 55.3559 77.9834C55.411 77.8581 55.4942 77.7603 55.6058 77.69C55.7188 77.6197 55.8609 77.5846 56.0321 77.5846C56.1956 77.5846 56.3331 77.6197 56.4446 77.69C56.5562 77.7588 56.6402 77.8566 56.6967 77.9834C56.7548 78.1087 56.7838 78.2561 56.7838 78.4258ZM55.4912 78.4258C55.4912 78.632 55.5347 78.7948 55.6218 78.9139C55.7089 79.0316 55.8449 79.0904 56.0298 79.0904C56.2162 79.0904 56.3522 79.0316 56.4378 78.9139C56.5233 78.7948 56.5661 78.632 56.5661 78.4258C56.5661 78.2195 56.5233 78.0583 56.4378 77.9421C56.3522 77.8245 56.217 77.7657 56.0321 77.7657C55.8472 77.7657 55.7104 77.8245 55.6218 77.9421C55.5347 78.0583 55.4912 78.2195 55.4912 78.4258Z" fill="#263238"/>
<path d="M57.1465 79.2463V77.6098H58.375V79.2463H58.1711V77.7909H57.3528V79.2463H57.1465Z" fill="#263238"/>
<path d="M60.0011 79.2463H59.7948V77.7909H59.2768C59.263 77.9039 59.2478 78.0231 59.231 78.1484C59.2142 78.2722 59.1973 78.3906 59.1805 78.5037C59.1637 78.6167 59.1469 78.713 59.1301 78.7925C59.1102 78.8948 59.0858 78.9819 59.0568 79.0538C59.0277 79.1256 58.9888 79.1798 58.9399 79.2165C58.8925 79.2532 58.8299 79.2715 58.7519 79.2715C58.726 79.2715 58.6992 79.2684 58.6717 79.2623C58.6457 79.2577 58.6228 79.2516 58.603 79.244V79.0721C58.6198 79.0797 58.6389 79.0866 58.6603 79.0927C58.6817 79.0973 58.7046 79.0996 58.729 79.0996C58.7749 79.0996 58.8108 79.0813 58.8367 79.0446C58.8642 79.0064 58.8856 78.9598 58.9009 78.9048C58.9162 78.8482 58.9292 78.7925 58.9399 78.7375C58.9521 78.6794 58.9666 78.5946 58.9834 78.4831C59.0018 78.37 59.0209 78.2386 59.0407 78.0888C59.0621 77.9391 59.0835 77.7794 59.1049 77.6098H60.0011V79.2463Z" fill="#263238"/>
<path d="M61.4725 79.2463L61.2754 78.7398H60.6268L60.432 79.2463H60.2234L60.8629 77.6029H61.0485L61.6857 79.2463H61.4725ZM61.0302 78.0613C61.0256 78.0491 61.0179 78.0269 61.0072 77.9949C60.9966 77.9628 60.9859 77.9299 60.9752 77.8963C60.966 77.8612 60.9584 77.8344 60.9522 77.8161C60.9415 77.8635 60.9293 77.9101 60.9156 77.9559C60.9018 78.0002 60.8904 78.0354 60.8812 78.0613L60.6955 78.5564H61.2135L61.0302 78.0613Z" fill="#263238"/>
<path d="M62.2664 79.2463H62.0601V77.7909H61.549V77.6098H62.7752V77.7909H62.2664V79.2463Z" fill="#263238"/>
<path d="M63.0242 77.6098H63.2168V78.5083C63.2168 78.5587 63.216 78.6152 63.2145 78.6779C63.2129 78.7405 63.2106 78.7978 63.2076 78.8498C63.2061 78.9017 63.2038 78.9399 63.2007 78.9644H63.2099L64.1106 77.6098H64.3398V79.2463H64.1473V78.357C64.1473 78.3005 64.1481 78.2401 64.1496 78.1759C64.1526 78.1118 64.1557 78.0529 64.1588 77.9994C64.1618 77.946 64.1641 77.9078 64.1656 77.8848H64.1565L63.2534 79.2463H63.0242V77.6098Z" fill="#263238"/>
<path d="M65.2992 79.2463H65.0929V77.7909H64.5818V77.6098H65.808V77.7909H65.2992V79.2463Z" fill="#263238"/>
<path d="M66.0548 79.2463V77.6098H66.261V78.302H66.5682C66.721 78.302 66.8424 78.3226 66.9326 78.3639C67.0227 78.4051 67.0877 78.4609 67.1274 78.5312C67.1671 78.6015 67.187 78.6802 67.187 78.7673C67.187 78.9109 67.1381 79.027 67.0403 79.1156C66.9425 79.2027 66.7935 79.2463 66.5934 79.2463H66.0548ZM66.5727 79.0698C66.8401 79.0698 66.9738 78.969 66.9738 78.7673C66.9738 78.6618 66.9372 78.5877 66.8638 78.5449C66.7905 78.5022 66.6835 78.4808 66.5429 78.4808H66.261V79.0698H66.5727Z" fill="#263238"/>
<path opacity="0.2" d="M86.4808 109.526C79.121 106.011 83.5776 103.185 73.4421 98.8043C63.3065 94.4241 63.2046 90.6806 64.427 82.073C65.6494 73.4654 64.6817 64.323 67.6357 63.5335C70.5898 62.7441 65.3183 50.9023 68.7563 46.7003L85.6659 79.6027L86.4808 109.526Z" fill="black" fill-opacity="0.7"/>
<path d="M113.959 109.169C113.603 108.176 113.272 107.106 112.992 106.113C112.635 104.84 112.355 103.821 111.718 102.65C111.616 102.471 111.515 102.268 111.387 102.038C110.7 100.816 109.757 99.1353 109.197 97.047C108.815 95.6464 109.197 92.2339 109.554 88.8978C109.808 86.504 110.038 84.263 109.961 82.9642L109.936 82.5058C109.757 79.1697 109.401 72.1919 108.662 70.282C107.949 68.4229 107.262 68.1428 106.014 67.6589C105.887 67.608 105.759 67.5571 105.606 67.4807C105.148 67.2769 104.359 66.8695 103.442 66.4111C101.379 65.3415 98.8324 64.0173 97.5336 63.839C95.8274 63.6098 94.1721 63.9409 93.8919 64.0173C92.2876 62.7949 89.5881 61.216 88.7732 61.1905C88.1111 61.165 86.6595 61.5725 85.9719 61.8017C85.8191 61.8526 85.6918 61.9036 85.6154 61.9036C85.0297 61.4706 84.5458 61.1396 84.2147 60.9868C84.1893 60.9613 84.1383 60.9613 84.1129 60.9358C83.2215 60.5538 81.8464 60.5538 81.1078 60.5793C80.8787 60.5793 80.7004 60.6048 80.624 60.6048C79.2233 58.4656 77.8482 56.301 77.2624 55.3842C76.0146 53.3978 72.1437 45.2741 72.1182 45.1977C72.1182 45.1722 72.0928 45.1722 72.0673 45.1467C72.0673 45.1467 72.0673 45.1467 72.0418 45.1467C71.7362 45.0703 69.5207 44.4846 68.6294 46.6493C67.6616 48.9922 69.0368 54.1109 70.412 55.9699C71.0741 56.8612 72.8313 60.5284 74.6394 64.2974C74.181 64.7303 70.4629 68.1428 68.6548 68.8049C67.1778 69.3142 67.5343 76.8777 67.8144 82.9642C67.9163 85.2052 68.0182 87.1407 67.9927 88.2866C67.9418 90.5277 72.0164 93.6091 75.9637 96.5886C79.5289 99.2881 83.2215 102.089 83.6545 104.127C83.7818 104.687 84.1129 105.171 84.5203 105.68C85.2079 106.546 86.0738 107.565 86.4558 109.5C86.5576 110.086 87.4999 110.85 88.2384 112.072H115.003C114.8 111.512 114.392 110.417 113.959 109.169ZM76.855 68.9068C78.1538 71.6317 78.9432 73.2361 79.1469 73.4143C79.3252 73.5926 79.3252 74.4584 79.3252 75.2988C79.3252 76.0373 79.2997 76.8268 79.4016 77.4889C79.096 77.7691 77.0842 79.5772 76.7022 81.0542L74.9959 79.0678L74.563 72.8031C74.8177 72.5485 76.5748 70.6894 76.855 68.9068Z" fill="white"/>
<path opacity="0.4" d="M106.268 86.3512C106.905 92.2339 106.905 95.3918 107.618 97.098C108.815 99.9757 110.572 100.536 110.572 100.536C110.063 99.5428 109.553 98.3713 109.197 97.0471C108.815 95.6464 109.197 92.2339 109.553 88.8979C109.808 86.504 110.037 84.263 109.986 82.9642L109.961 82.5058C109.783 79.1697 109.426 72.2174 108.688 70.282C107.975 68.423 107.287 68.1428 106.039 67.659C105.912 67.608 105.784 67.5571 105.632 67.4807C105.173 67.277 104.384 66.8695 103.467 66.4111C101.404 65.3415 98.8576 64.0173 97.5588 63.8645C95.8526 63.6353 94.1973 63.9664 93.9172 64.0428C92.3128 62.8204 89.6134 61.2415 88.7984 61.216C88.1363 61.1905 86.3537 61.6999 85.6406 61.9291C88.6966 64.4248 93.1023 67.5316 93.1023 67.5316C96.5911 68.2192 96.1327 69.7472 97.5334 70.5876C98.8067 71.3516 100.029 69.1106 101.099 68.9068C102.499 68.6522 104.104 70.1292 104.027 71.9373C103.824 76.9032 105.734 81.3089 106.268 86.3512Z" fill="#43419E"/>
<path opacity="0.4" d="M88.6962 68.1685C88.6962 68.1685 85.9459 65.8765 84.6216 65.1125C83.2974 64.3485 83.0936 61.7255 84.1377 61.0634C84.1632 61.0379 84.2141 61.0379 84.2651 61.0124C84.2396 60.987 84.1887 60.987 84.1632 60.9615C83.2719 60.5795 81.8967 60.5795 81.1582 60.605C82.6862 63.4572 83.9086 65.6218 84.2396 66.1057C85.3347 67.7355 88.6962 68.1685 88.6962 68.1685Z" fill="#43419E"/>
<path opacity="0.4" d="M84.4948 103.796C84.6221 103.184 83.6035 101.402 83.1705 100.689C82.1773 99.0334 70.5393 88.7705 72.2455 86.0201C73.9263 83.2698 75.4542 85.3071 76.5238 85.4853C77.2878 85.6127 79.3761 84.3648 79.3761 84.263C79.1469 82.1493 81.0823 80.7741 81.0823 80.7741C81.0823 80.7741 80.904 72.3702 80.4456 72.523C79.9872 72.6758 74.6393 59.8917 74.6393 59.8917C74.6393 59.8917 68.9604 52.3537 69.2914 48.8394C69.6225 45.325 72.0672 45.2486 72.0672 45.2486V45.1467C71.7616 45.0703 69.5461 44.4846 68.6548 46.6493C67.687 48.9922 69.0622 54.1109 70.4374 55.9699C71.0995 56.8612 72.8567 60.5284 74.6648 64.2974C74.2064 64.7303 70.4883 68.1428 68.6802 68.8049C67.2032 69.3142 67.5597 76.8777 67.8398 82.9642C67.9417 85.2052 68.0436 87.1406 68.0181 88.2866C67.9672 90.5277 72.0418 93.6091 75.989 96.5886C79.5543 99.2881 83.2469 102.089 83.6799 104.127C83.8072 104.687 84.1382 105.171 84.5457 105.68C84.4948 104.942 84.4438 104.127 84.4948 103.796ZM76.8549 68.9068C78.1537 71.6317 78.9431 73.2361 79.1469 73.4143C79.3251 73.5926 79.3251 74.4584 79.3251 75.2988C79.3251 76.0373 79.2997 76.8268 79.4015 77.4889C79.0959 77.7691 77.0841 79.5772 76.7021 81.0542L74.9959 79.0678L74.5629 72.8031C74.8176 72.5485 76.5748 70.6894 76.8549 68.9068Z" fill="#43419E"/>
<path d="M87.0921 68.1429C87.0921 68.1429 85.3858 67.6845 84.2398 66.131C83.0684 64.5776 78.5099 57.4725 77.2366 55.4607C75.9633 53.4488 72.0924 45.2487 72.0924 45.2487C72.0924 45.2487 69.6986 44.4592 68.7563 46.6748C67.8141 48.9158 69.1129 53.9582 70.5135 55.9191C71.9396 57.8545 78.6882 72.8541 79.223 73.338C79.7578 73.8219 78.9429 77.8201 80.0379 78.7878" stroke="#263238" stroke-miterlimit="10" stroke-linecap="round" stroke-linejoin="round"/>
<path d="M79.5032 77.54C79.5032 77.54 77.0329 79.7046 76.7528 81.258L74.9193 79.0934L74.4863 72.7778C74.4863 72.7778 76.7019 70.5622 76.8292 68.6013" stroke="#263238" stroke-miterlimit="10" stroke-linecap="round" stroke-linejoin="round"/>
<path d="M74.7911 64.3482C74.7911 64.3482 70.691 68.2191 68.7301 68.9067C66.7692 69.5943 68.1953 84.11 68.0935 88.312C67.9916 92.5139 82.8639 99.8227 83.7553 104.127C84.1118 105.833 85.6143 106.189 86.5311 109.474" stroke="#263238" stroke-miterlimit="10" stroke-linecap="round" stroke-linejoin="round"/>
<path d="M80.623 60.7322C80.623 60.7322 82.8641 60.5285 84.1119 61.0633C85.3598 61.598 90.4785 65.9782 91.7009 66.8186C92.9233 67.659 94.7823 67.9646 95.1388 68.8814" stroke="#263238" stroke-miterlimit="10" stroke-linecap="round" stroke-linejoin="round"/>
<path d="M85.6152 62.0311C85.6152 62.0311 87.9072 61.2671 88.7731 61.3181C89.6389 61.369 92.9495 63.3044 94.4266 64.6032C95.9036 65.902 97.3807 66.615 98.272 66.9461" stroke="#263238" stroke-miterlimit="10" stroke-linecap="round" stroke-linejoin="round"/>
<path d="M93.8906 64.1448C93.8906 64.1448 95.6733 63.7119 97.5323 63.9665C99.3913 64.2212 104.077 66.9716 105.58 67.5827C107.082 68.1939 107.795 68.3213 108.559 70.3331C109.349 72.3449 109.705 79.9594 109.858 82.9899C110.011 85.9949 108.457 94.6534 109.094 97.0727C109.731 99.492 110.928 101.377 111.615 102.675" stroke="#263238" stroke-miterlimit="10" stroke-linecap="round" stroke-linejoin="round"/>
<path d="M74.4596 72.7777C74.4596 72.7777 74.0776 71.3007 73.5938 71.0969" stroke="#263238" stroke-miterlimit="10" stroke-linecap="round" stroke-linejoin="round"/>
<path d="M74.8926 79.0933C74.8926 79.0933 75.2236 80.7486 75.5802 81.6654C75.9367 82.5822 75.3764 83.881 75.3764 83.881" stroke="#263238" stroke-miterlimit="10" stroke-linecap="round" stroke-linejoin="round"/>
<path d="M76.7259 81.2582C76.675 82.7098 78.1011 84.3906 78.4577 84.1614" stroke="#263238" stroke-miterlimit="10" stroke-linecap="round" stroke-linejoin="round"/>
<path d="M84.0605 72.7778C84.0605 72.7778 85.614 70.2821 87.091 70.1548C88.5681 70.0274 90.2743 72.1411 91.1911 71.9374C92.1079 71.7337 93.2539 70.384 94.7819 70.1548C96.3098 69.9001 97.0484 70.6386 98.2707 70.715C99.4931 70.766 99.6205 69.1361 101.072 68.9324C102.549 68.7032 103.033 69.4417 104.001 69.62C104.968 69.7982 105.223 69.0342 106.012 68.6013" stroke="#263238" stroke-miterlimit="10" stroke-linecap="round" stroke-linejoin="round"/>
<path d="M55.6955 70.988V71.444H56.7012V71.7907H55.6955V72.3702H55.2757V71.7907H54.8789V71.444H55.2757V70.988H54.8789V70.646H55.2757V69.0596H56.3137C56.6766 69.0596 56.9519 69.1498 57.1395 69.3303C57.3302 69.5108 57.4255 69.7435 57.4255 70.0285C57.4255 70.304 57.3333 70.5336 57.1487 70.7173C56.9673 70.8977 56.6889 70.988 56.3137 70.988H55.6955ZM55.6955 70.646H56.3137C56.5444 70.646 56.7151 70.5922 56.8258 70.4845C56.9396 70.3737 56.9965 70.2217 56.9965 70.0285C56.9965 69.829 56.9411 69.6755 56.8304 69.5678C56.7197 69.457 56.5474 69.4016 56.3137 69.4016H55.6955V70.646Z" fill="white"/>
<path d="M48.0566 43.8482H47.942V43.4242H47.4759V43.8482H47.3613V42.939H47.4759V43.3236H47.942V42.939H48.0566V43.8482Z" fill="black"/>
<path d="M48.8832 43.5056C48.8832 43.6185 48.8543 43.706 48.7966 43.7679C48.7397 43.8299 48.6625 43.8609 48.5649 43.8609C48.5046 43.8609 48.4507 43.8473 48.4032 43.8202C48.3565 43.7921 48.3196 43.7518 48.2924 43.6992C48.2652 43.6457 48.2516 43.5812 48.2516 43.5056C48.2516 43.3927 48.2801 43.3057 48.337 43.2446C48.3938 43.1835 48.4711 43.1529 48.5687 43.1529C48.6307 43.1529 48.685 43.1669 48.7317 43.195C48.7792 43.2221 48.8161 43.262 48.8425 43.3147C48.8696 43.3664 48.8832 43.4301 48.8832 43.5056ZM48.3675 43.5056C48.3675 43.5863 48.3832 43.6504 48.4146 43.6979C48.4469 43.7446 48.4978 43.7679 48.5674 43.7679C48.6362 43.7679 48.6867 43.7446 48.7189 43.6979C48.7512 43.6504 48.7673 43.5863 48.7673 43.5056C48.7673 43.425 48.7512 43.3618 48.7189 43.3159C48.6867 43.2701 48.6358 43.2472 48.5662 43.2472C48.4965 43.2472 48.446 43.2701 48.4146 43.3159C48.3832 43.3618 48.3675 43.425 48.3675 43.5056Z" fill="black"/>
<path d="M49.7929 43.1657V43.8482H49.6924V43.4127C49.6924 43.3949 49.6928 43.3762 49.6936 43.3567C49.6953 43.3371 49.697 43.318 49.6987 43.2994H49.6949L49.4721 43.8482H49.3778L49.1614 43.2994H49.1576C49.1601 43.3376 49.1614 43.3766 49.1614 43.4165V43.8482H49.0608V43.1657H49.2098L49.425 43.7145L49.644 43.1657H49.7929Z" fill="black"/>
<path d="M50.2744 43.1529C50.333 43.1529 50.383 43.1657 50.4246 43.1911C50.4671 43.2166 50.4993 43.2527 50.5214 43.2994C50.5443 43.3452 50.5558 43.3991 50.5558 43.4611V43.5286H50.0885C50.0902 43.6058 50.1097 43.6648 50.147 43.7056C50.1852 43.7455 50.2383 43.7654 50.3062 43.7654C50.3495 43.7654 50.3877 43.7616 50.4208 43.7539C50.4548 43.7455 50.4896 43.7336 50.5252 43.7183V43.8163C50.4904 43.8316 50.456 43.8426 50.4221 43.8494C50.3881 43.8571 50.3478 43.8609 50.3011 43.8609C50.2366 43.8609 50.1793 43.8477 50.1292 43.8214C50.08 43.7951 50.0414 43.7561 50.0134 43.7043C49.9862 43.6517 49.9726 43.5876 49.9726 43.512C49.9726 43.4373 49.9849 43.3732 50.0095 43.3197C50.035 43.2663 50.0702 43.2251 50.1152 43.1962C50.1611 43.1674 50.2141 43.1529 50.2744 43.1529ZM50.2731 43.2446C50.2196 43.2446 50.1772 43.262 50.1458 43.2968C50.1152 43.3308 50.097 43.3783 50.091 43.4394H50.4386C50.4378 43.3817 50.4242 43.335 50.3979 43.2994C50.3716 43.2629 50.33 43.2446 50.2731 43.2446Z" fill="black"/>
<path d="M51.0542 43.1529C51.1383 43.1529 51.2057 43.1822 51.2567 43.2408C51.3085 43.2994 51.3344 43.3877 51.3344 43.5056C51.3344 43.6219 51.3085 43.7102 51.2567 43.7705C51.2057 43.8308 51.1378 43.8609 51.053 43.8609C51.0003 43.8609 50.9566 43.8511 50.9218 43.8316C50.8878 43.8112 50.8611 43.7879 50.8416 43.7616H50.8339C50.8356 43.776 50.8373 43.7943 50.839 43.8163C50.8407 43.8384 50.8416 43.8575 50.8416 43.8736V44.1538H50.7295V43.1657H50.8212L50.8365 43.2586H50.8416C50.862 43.2289 50.8887 43.2039 50.9218 43.1835C50.9549 43.1631 50.999 43.1529 51.0542 43.1529ZM51.0339 43.2472C50.9642 43.2472 50.915 43.2667 50.8861 43.3057C50.8581 43.3448 50.8433 43.4042 50.8416 43.484V43.5056C50.8416 43.5897 50.8552 43.6546 50.8823 43.7005C50.9103 43.7455 50.9617 43.7679 51.0364 43.7679C51.078 43.7679 51.1119 43.7565 51.1383 43.7336C51.1654 43.7106 51.1854 43.6797 51.1981 43.6406C51.2117 43.6007 51.2185 43.5553 51.2185 43.5044C51.2185 43.4263 51.2032 43.3639 51.1726 43.3172C51.1429 43.2705 51.0967 43.2472 51.0339 43.2472Z" fill="black"/>
<path d="M52.3592 43.1657V43.7539H52.4585V44.085H52.3502V43.8482H51.8753V44.085H51.7683V43.7539H51.8231C51.8817 43.6733 51.9254 43.5816 51.9542 43.4789C51.984 43.3753 51.9992 43.2709 52.0001 43.1657H52.3592ZM52.0994 43.2535C52.096 43.3113 52.0871 43.3711 52.0727 43.4331C52.0582 43.4942 52.0396 43.5528 52.0166 43.6088C51.9946 43.6648 51.9687 43.7132 51.939 43.7539H52.2509V43.2535H52.0994Z" fill="black"/>
<path d="M53.1856 43.5056C53.1856 43.6185 53.1567 43.706 53.099 43.7679C53.0422 43.8299 52.9649 43.8609 52.8673 43.8609C52.807 43.8609 52.7531 43.8473 52.7056 43.8202C52.6589 43.7921 52.622 43.7518 52.5948 43.6992C52.5676 43.6457 52.554 43.5812 52.554 43.5056C52.554 43.3927 52.5825 43.3057 52.6394 43.2446C52.6962 43.1835 52.7735 43.1529 52.8711 43.1529C52.9331 43.1529 52.9874 43.1669 53.0341 43.195C53.0816 43.2221 53.1185 43.262 53.1449 43.3147C53.172 43.3664 53.1856 43.4301 53.1856 43.5056ZM52.6699 43.5056C52.6699 43.5863 52.6856 43.6504 52.717 43.6979C52.7493 43.7446 52.8002 43.7679 52.8698 43.7679C52.9386 43.7679 52.9891 43.7446 53.0214 43.6979C53.0536 43.6504 53.0697 43.5863 53.0697 43.5056C53.0697 43.425 53.0536 43.3618 53.0214 43.3159C52.9891 43.2701 52.9382 43.2472 52.8686 43.2472C52.7989 43.2472 52.7484 43.2701 52.717 43.3159C52.6856 43.3618 52.6699 43.425 52.6699 43.5056Z" fill="black"/>
<path d="M53.7796 43.1657V43.2599H53.4752V43.8482H53.3632V43.1657H53.7796Z" fill="black"/>
<path d="M54.495 43.5056C54.495 43.6185 54.4661 43.706 54.4084 43.7679C54.3515 43.8299 54.2743 43.8609 54.1767 43.8609C54.1164 43.8609 54.0625 43.8473 54.0149 43.8202C53.9683 43.7921 53.9313 43.7518 53.9042 43.6992C53.877 43.6457 53.8634 43.5812 53.8634 43.5056C53.8634 43.3927 53.8919 43.3057 53.9487 43.2446C54.0056 43.1835 54.0829 43.1529 54.1805 43.1529C54.2424 43.1529 54.2968 43.1669 54.3435 43.195C54.391 43.2221 54.4279 43.262 54.4542 43.3147C54.4814 43.3664 54.495 43.4301 54.495 43.5056ZM53.9793 43.5056C53.9793 43.5863 53.995 43.6504 54.0264 43.6979C54.0587 43.7446 54.1096 43.7679 54.1792 43.7679C54.248 43.7679 54.2985 43.7446 54.3307 43.6979C54.363 43.6504 54.3791 43.5863 54.3791 43.5056C54.3791 43.425 54.363 43.3618 54.3307 43.3159C54.2985 43.2701 54.2475 43.2472 54.1779 43.2472C54.1083 43.2472 54.0578 43.2701 54.0264 43.3159C53.995 43.3618 53.9793 43.425 53.9793 43.5056Z" fill="black"/>
<path d="M55.2214 43.3376C55.2214 43.38 55.2086 43.4131 55.1832 43.4369C55.1577 43.4607 55.125 43.4768 55.0851 43.4853V43.4904C55.1276 43.4963 55.1645 43.5116 55.1959 43.5362C55.2273 43.56 55.243 43.5973 55.243 43.6483C55.243 43.706 55.2214 43.7539 55.1781 43.7921C55.1356 43.8295 55.0652 43.8482 54.9667 43.8482H54.6726V43.1657H54.9654C55.0138 43.1657 55.0571 43.1712 55.0953 43.1822C55.1344 43.1924 55.1649 43.2102 55.187 43.2357C55.2099 43.2603 55.2214 43.2943 55.2214 43.3376ZM55.108 43.3516C55.108 43.3193 55.0962 43.296 55.0724 43.2815C55.0495 43.2663 55.0117 43.2586 54.9591 43.2586H54.7846V43.4458H54.9387C55.0516 43.4458 55.108 43.4144 55.108 43.3516ZM55.1271 43.6483C55.1271 43.6092 55.1123 43.5812 55.0826 43.5642C55.0529 43.5472 55.0091 43.5388 54.9514 43.5388H54.7846V43.7578H54.954C55.01 43.7578 55.0529 43.7497 55.0826 43.7336C55.1123 43.7166 55.1271 43.6882 55.1271 43.6483Z" fill="black"/>
<path d="M55.9996 43.5056C55.9996 43.6185 55.9707 43.706 55.913 43.7679C55.8561 43.8299 55.7789 43.8609 55.6813 43.8609C55.621 43.8609 55.5671 43.8473 55.5195 43.8202C55.4729 43.7921 55.4359 43.7518 55.4088 43.6992C55.3816 43.6457 55.368 43.5812 55.368 43.5056C55.368 43.3927 55.3965 43.3057 55.4533 43.2446C55.5102 43.1835 55.5875 43.1529 55.6851 43.1529C55.747 43.1529 55.8014 43.1669 55.8481 43.195C55.8956 43.2221 55.9325 43.262 55.9588 43.3147C55.986 43.3664 55.9996 43.4301 55.9996 43.5056ZM55.4839 43.5056C55.4839 43.5863 55.4996 43.6504 55.531 43.6979C55.5633 43.7446 55.6142 43.7679 55.6838 43.7679C55.7526 43.7679 55.8031 43.7446 55.8353 43.6979C55.8676 43.6504 55.8837 43.5863 55.8837 43.5056C55.8837 43.425 55.8676 43.3618 55.8353 43.3159C55.8031 43.2701 55.7521 43.2472 55.6825 43.2472C55.6129 43.2472 55.5624 43.2701 55.531 43.3159C55.4996 43.3618 55.4839 43.425 55.4839 43.5056Z" fill="black"/>
<path d="M56.5019 43.1529C56.5859 43.1529 56.6534 43.1822 56.7043 43.2408C56.7561 43.2994 56.782 43.3877 56.782 43.5056C56.782 43.6219 56.7561 43.7102 56.7043 43.7705C56.6534 43.8308 56.5855 43.8609 56.5006 43.8609C56.448 43.8609 56.4042 43.8511 56.3694 43.8316C56.3355 43.8112 56.3087 43.7879 56.2892 43.7616H56.2816C56.2833 43.776 56.285 43.7943 56.2867 43.8163C56.2884 43.8384 56.2892 43.8575 56.2892 43.8736V44.1538H56.1772V43.1657H56.2688L56.2841 43.2586H56.2892C56.3096 43.2289 56.3363 43.2039 56.3694 43.1835C56.4025 43.1631 56.4467 43.1529 56.5019 43.1529ZM56.4815 43.2472C56.4119 43.2472 56.3626 43.2667 56.3338 43.3057C56.3058 43.3448 56.2909 43.4042 56.2892 43.484V43.5056C56.2892 43.5897 56.3028 43.6546 56.33 43.7005C56.358 43.7455 56.4093 43.7679 56.484 43.7679C56.5256 43.7679 56.5596 43.7565 56.5859 43.7336C56.6131 43.7106 56.633 43.6797 56.6457 43.6406C56.6593 43.6007 56.6661 43.5553 56.6661 43.5044C56.6661 43.4263 56.6508 43.3639 56.6203 43.3172C56.5906 43.2705 56.5443 43.2472 56.4815 43.2472Z" fill="black"/>
<path d="M57.219 43.1542C57.3022 43.1542 57.3638 43.1725 57.4037 43.209C57.4436 43.2455 57.4635 43.3036 57.4635 43.3834V43.8482H57.382L57.3604 43.7514H57.3553C57.3256 43.7887 57.2942 43.8163 57.2611 43.8342C57.2288 43.852 57.1838 43.8609 57.1261 43.8609C57.0641 43.8609 57.0128 43.8448 56.972 43.8125C56.9313 43.7794 56.9109 43.7281 56.9109 43.6584C56.9109 43.5905 56.9376 43.5383 56.9911 43.5018C57.0446 43.4645 57.1269 43.4441 57.2381 43.4407L57.354 43.4369V43.3961C57.354 43.3393 57.3417 43.2998 57.3171 43.2777C57.2925 43.2557 57.2577 43.2446 57.2127 43.2446C57.177 43.2446 57.1431 43.2501 57.1108 43.2612C57.0785 43.2714 57.0484 43.2832 57.0204 43.2968L56.986 43.2128C57.0157 43.1967 57.051 43.1831 57.0917 43.172C57.1325 43.1602 57.1749 43.1542 57.219 43.1542ZM57.2521 43.5184C57.1673 43.5218 57.1083 43.5354 57.0752 43.5591C57.0429 43.5829 57.0268 43.6164 57.0268 43.6597C57.0268 43.6979 57.0382 43.7259 57.0611 43.7438C57.0849 43.7616 57.115 43.7705 57.1516 43.7705C57.2093 43.7705 57.2572 43.7548 57.2954 43.7234C57.3336 43.6911 57.3527 43.6419 57.3527 43.5757V43.5146L57.2521 43.5184Z" fill="black"/>
<path d="M47.8057 35.3982C47.9042 35.3999 47.9818 35.416 48.0387 35.4466C48.0956 35.4771 48.1359 35.5179 48.1597 35.5688C48.1834 35.6189 48.1953 35.6749 48.1953 35.7369C48.1953 35.7776 48.189 35.8184 48.1762 35.8591C48.1643 35.899 48.1435 35.9355 48.1138 35.9686C48.0841 36.0009 48.0442 36.0272 47.9941 36.0476C47.9441 36.0679 47.8812 36.079 47.8057 36.0807V36.2207H47.6924V36.0807C47.6151 36.079 47.551 36.0679 47.5001 36.0476C47.45 36.0263 47.4105 35.9992 47.3817 35.9661C47.3528 35.9321 47.3324 35.8952 47.3206 35.8553C47.3087 35.8154 47.3027 35.7759 47.3027 35.7369C47.3027 35.6766 47.3146 35.6214 47.3384 35.5713C47.363 35.5204 47.4038 35.4792 47.4606 35.4478C47.5175 35.4164 47.5947 35.3999 47.6924 35.3982V35.2861H47.8057V35.3982ZM47.6924 35.4949C47.6245 35.4966 47.5701 35.5077 47.5294 35.5281C47.4895 35.5484 47.461 35.5764 47.4441 35.6121C47.4271 35.6469 47.4186 35.6881 47.4186 35.7356C47.4186 35.8103 47.4403 35.8702 47.4835 35.9151C47.5277 35.9593 47.5973 35.9831 47.6924 35.9864V35.4949ZM47.8057 35.9864C47.9042 35.9831 47.9742 35.9589 48.0158 35.9139C48.0582 35.868 48.0795 35.8086 48.0795 35.7356C48.0795 35.6872 48.071 35.6456 48.054 35.6108C48.037 35.5752 48.0086 35.5476 47.9687 35.5281C47.9288 35.5077 47.8745 35.4966 47.8057 35.4949V35.9864Z" fill="black"/>
<path d="M48.386 35.2989H48.4929V35.798C48.4929 35.826 48.4925 35.8574 48.4916 35.8922C48.4908 35.927 48.4895 35.9589 48.4878 35.9877C48.487 36.0166 48.4857 36.0378 48.484 36.0514H48.4891L48.9895 35.2989H49.1168V36.208H49.0099V35.714C49.0099 35.6826 49.0103 35.649 49.0112 35.6134C49.0129 35.5777 49.0145 35.545 49.0162 35.5153C49.0179 35.4856 49.0192 35.4644 49.0201 35.4517H49.015L48.5133 36.208H48.386V35.2989Z" fill="black"/>
<path d="M50.1553 35.7522C50.1553 35.8464 50.1392 35.9287 50.1069 35.9992C50.0755 36.0688 50.0288 36.1231 49.9669 36.1622C49.9049 36.2012 49.8281 36.2207 49.7364 36.2207C49.6422 36.2207 49.5637 36.2012 49.5008 36.1622C49.4389 36.1231 49.3926 36.0684 49.3621 35.9979C49.3315 35.9275 49.3162 35.8451 49.3162 35.7509C49.3162 35.6575 49.3315 35.576 49.3621 35.5064C49.3926 35.4368 49.4389 35.3825 49.5008 35.3434C49.5637 35.3044 49.6426 35.2849 49.7377 35.2849C49.8285 35.2849 49.9049 35.3044 49.9669 35.3434C50.0288 35.3816 50.0755 35.436 50.1069 35.5064C50.1392 35.576 50.1553 35.6579 50.1553 35.7522ZM49.4372 35.7522C49.4372 35.8668 49.4614 35.9572 49.5098 36.0234C49.5581 36.0887 49.6337 36.1214 49.7364 36.1214C49.84 36.1214 49.9155 36.0887 49.9631 36.0234C50.0106 35.9572 50.0344 35.8668 50.0344 35.7522C50.0344 35.6376 50.0106 35.548 49.9631 35.4835C49.9155 35.4181 49.8404 35.3854 49.7377 35.3854C49.635 35.3854 49.559 35.4181 49.5098 35.4835C49.4614 35.548 49.4372 35.6376 49.4372 35.7522Z" fill="black"/>
<path d="M48.9912 39.5187L48.5723 38.4027H48.5652C48.5687 38.4396 48.5717 38.4895 48.5741 38.5525C48.5765 38.6143 48.5776 38.679 48.5776 38.7468V39.5187H48.4297V38.2458H48.6668L49.059 39.2887H49.0661L49.4654 38.2458H49.7007V39.5187H49.5421V38.7361C49.5421 38.6743 49.5432 38.6131 49.5456 38.5525C49.5492 38.4919 49.5522 38.4425 49.5545 38.4045H49.5474L49.1231 39.5187H48.9912Z" fill="black"/>
<path d="M50.3874 38.5471C50.5039 38.5471 50.5901 38.5727 50.6459 38.6238C50.7018 38.6749 50.7297 38.7563 50.7297 38.868V39.5187H50.6156L50.5853 39.3832H50.5782C50.5366 39.4355 50.4926 39.4741 50.4463 39.499C50.4011 39.524 50.3381 39.5365 50.2573 39.5365C50.1705 39.5365 50.0986 39.5139 50.0416 39.4687C49.9846 39.4224 49.956 39.3505 49.956 39.253C49.956 39.158 49.9935 39.0849 50.0683 39.0338C50.1432 38.9815 50.2585 38.953 50.4142 38.9482L50.5764 38.9429V38.8858C50.5764 38.8062 50.5592 38.7509 50.5247 38.72C50.4902 38.6891 50.4415 38.6737 50.3785 38.6737C50.3286 38.6737 50.2811 38.6814 50.2359 38.6969C50.1907 38.7111 50.1486 38.7278 50.1093 38.7468L50.0612 38.6291C50.1028 38.6065 50.1521 38.5875 50.2092 38.5721C50.2662 38.5554 50.3256 38.5471 50.3874 38.5471ZM50.4338 39.0569C50.3149 39.0617 50.2323 39.0807 50.186 39.114C50.1408 39.1473 50.1183 39.1942 50.1183 39.2548C50.1183 39.3083 50.1343 39.3475 50.1664 39.3725C50.1997 39.3974 50.2418 39.4099 50.293 39.4099C50.3738 39.4099 50.4409 39.3879 50.4944 39.344C50.5479 39.2988 50.5746 39.2299 50.5746 39.1372V39.0516L50.4338 39.0569Z" fill="black"/>
<path d="M51.7521 39.5187H51.5935V38.6933H51.3118C51.2964 38.8941 51.275 39.0564 51.2476 39.18C51.2203 39.3024 51.1841 39.3915 51.1389 39.4473C51.0937 39.5032 51.0367 39.5311 50.9678 39.5311C50.9523 39.5311 50.9369 39.5299 50.9214 39.5276C50.9072 39.5264 50.8953 39.5234 50.8858 39.5187V39.401C50.8929 39.4034 50.9006 39.4052 50.9089 39.4063C50.9173 39.4075 50.9256 39.4081 50.9339 39.4081C50.9981 39.4081 51.0492 39.3398 51.0872 39.2031C51.1264 39.0665 51.1561 38.8531 51.1763 38.5632H51.7521V39.5187Z" fill="black"/>
<path d="M52.4957 38.9553C52.7441 38.9553 52.8683 39.0457 52.8683 39.2263C52.8683 39.3154 52.838 39.3867 52.7774 39.4402C52.7168 39.4925 52.6205 39.5187 52.4886 39.5187H52.0554V38.5632H52.2123V38.9553H52.4957ZM52.7114 39.2352C52.7114 39.177 52.6906 39.1378 52.649 39.1176C52.6086 39.0962 52.5516 39.0855 52.4779 39.0855H52.2123V39.3921H52.4814C52.548 39.3921 52.6027 39.3802 52.6455 39.3564C52.6894 39.3327 52.7114 39.2923 52.7114 39.2352Z" fill="black"/>
<path d="M54.0569 39.8502H53.9036V39.5187H53.1138V38.5632H53.2707V39.3867H53.7645V38.5632H53.9214V39.3885H54.0569V39.8502Z" fill="black"/>
<path d="M54.6092 38.5453C54.6912 38.5453 54.7613 38.5632 54.8195 38.5988C54.879 38.6345 54.9241 38.685 54.955 38.7503C54.9871 38.8145 55.0031 38.89 55.0031 38.9767V39.0712H54.3489C54.3513 39.1794 54.3786 39.262 54.4309 39.319C54.4844 39.3749 54.5587 39.4028 54.6538 39.4028C54.7144 39.4028 54.7678 39.3974 54.8142 39.3867C54.8617 39.3749 54.9105 39.3582 54.9604 39.3368V39.4741C54.9116 39.4955 54.8635 39.5109 54.816 39.5204C54.7684 39.5311 54.712 39.5365 54.6466 39.5365C54.5563 39.5365 54.4761 39.5181 54.406 39.4812C54.337 39.4444 54.283 39.3897 54.2437 39.3172C54.2057 39.2435 54.1867 39.1538 54.1867 39.048C54.1867 38.9435 54.2039 38.8537 54.2384 38.7789C54.274 38.704 54.3234 38.6463 54.3864 38.6059C54.4505 38.5655 54.5248 38.5453 54.6092 38.5453ZM54.6074 38.6737C54.5325 38.6737 54.4731 38.698 54.4291 38.7468C54.3864 38.7943 54.3608 38.8609 54.3525 38.9464H54.8391C54.838 38.8656 54.8189 38.8002 54.7821 38.7503C54.7453 38.6992 54.687 38.6737 54.6074 38.6737Z" fill="black"/>
<path d="M56.0147 38.8038C56.0147 38.8632 55.9969 38.9096 55.9612 38.9429C55.9256 38.9761 55.8798 38.9987 55.824 39.0106V39.0177C55.8834 39.026 55.9351 39.0474 55.9791 39.0819C56.023 39.1152 56.045 39.1675 56.045 39.2388C56.045 39.3196 56.0147 39.3867 55.9541 39.4402C55.8947 39.4925 55.796 39.5187 55.6582 39.5187H55.2464V38.5632H55.6564C55.7241 38.5632 55.7848 38.5709 55.8382 38.5863C55.8929 38.6006 55.9357 38.6256 55.9666 38.6612C55.9987 38.6957 56.0147 38.7432 56.0147 38.8038ZM55.8561 38.8234C55.8561 38.7783 55.8394 38.7456 55.8061 38.7254C55.7741 38.704 55.7212 38.6933 55.6475 38.6933H55.4033V38.9553H55.619C55.777 38.9553 55.8561 38.9114 55.8561 38.8234ZM55.8828 39.2388C55.8828 39.1841 55.862 39.1449 55.8204 39.1211C55.7788 39.0974 55.7176 39.0855 55.6368 39.0855H55.4033V39.3921H55.6404C55.7188 39.3921 55.7788 39.3808 55.8204 39.3582C55.862 39.3344 55.8828 39.2946 55.8828 39.2388Z" fill="black"/>
<path d="M56.7719 38.2458H56.9217V38.9446C56.9217 38.9839 56.9211 39.0278 56.9199 39.0766C56.9187 39.1253 56.9169 39.1698 56.9145 39.2103C56.9134 39.2507 56.9116 39.2804 56.9092 39.2994H56.9163L57.6169 38.2458H57.7952V39.5187H57.6454V38.827C57.6454 38.783 57.646 38.7361 57.6472 38.6862C57.6496 38.6362 57.652 38.5905 57.6543 38.5489C57.6567 38.5073 57.6585 38.4776 57.6597 38.4598H57.6526L56.9502 39.5187H56.7719V38.2458Z" fill="black"/>
<path d="M58.8854 38.8038C58.8854 38.8632 58.8676 38.9096 58.8319 38.9429C58.7963 38.9761 58.7505 38.9987 58.6946 39.0106V39.0177C58.7541 39.026 58.8058 39.0474 58.8497 39.0819C58.8937 39.1152 58.9157 39.1675 58.9157 39.2388C58.9157 39.3196 58.8854 39.3867 58.8248 39.4402C58.7654 39.4925 58.6667 39.5187 58.5289 39.5187H58.1171V38.5632H58.5271C58.5948 38.5632 58.6554 38.5709 58.7089 38.5863C58.7636 38.6006 58.8064 38.6256 58.8373 38.6612C58.8693 38.6957 58.8854 38.7432 58.8854 38.8038ZM58.7267 38.8234C58.7267 38.7783 58.7101 38.7456 58.6768 38.7254C58.6447 38.704 58.5919 38.6933 58.5182 38.6933H58.2739V38.9553H58.4896C58.6477 38.9553 58.7267 38.9114 58.7267 38.8234ZM58.7535 39.2388C58.7535 39.1841 58.7327 39.1449 58.6911 39.1211C58.6495 39.0974 58.5883 39.0855 58.5075 39.0855H58.2739V39.3921H58.511C58.5895 39.3921 58.6495 39.3808 58.6911 39.3582C58.7327 39.3344 58.7535 39.2946 58.7535 39.2388Z" fill="black"/>
<path d="M59.5061 38.5471C59.6225 38.5471 59.7087 38.5727 59.7645 38.6238C59.8204 38.6749 59.8483 38.7563 59.8483 38.868V39.5187H59.7342L59.7039 39.3832H59.6968C59.6552 39.4355 59.6112 39.4741 59.5649 39.499C59.5197 39.524 59.4567 39.5365 59.3759 39.5365C59.2892 39.5365 59.2173 39.5139 59.1602 39.4687C59.1032 39.4224 59.0747 39.3505 59.0747 39.253C59.0747 39.158 59.1121 39.0849 59.187 39.0338C59.2618 38.9815 59.3771 38.953 59.5328 38.9482L59.695 38.9429V38.8858C59.695 38.8062 59.6778 38.7509 59.6433 38.72C59.6089 38.6891 59.5601 38.6737 59.4971 38.6737C59.4472 38.6737 59.3997 38.6814 59.3545 38.6969C59.3094 38.7111 59.2672 38.7278 59.228 38.7468L59.1798 38.6291C59.2214 38.6065 59.2707 38.5875 59.3278 38.5721C59.3848 38.5554 59.4443 38.5471 59.5061 38.5471ZM59.5524 39.0569C59.4336 39.0617 59.351 39.0807 59.3046 39.114C59.2595 39.1473 59.2369 39.1942 59.2369 39.2548C59.2369 39.3083 59.2529 39.3475 59.285 39.3725C59.3183 39.3974 59.3605 39.4099 59.4116 39.4099C59.4924 39.4099 59.5595 39.3879 59.613 39.344C59.6665 39.2988 59.6932 39.2299 59.6932 39.1372V39.0516L59.5524 39.0569Z" fill="black"/>
<path d="M60.3003 38.5632V38.9607H60.8191V38.5632H60.9759V39.5187H60.8191V39.0926H60.3003V39.5187H60.1434V38.5632H60.3003Z" fill="black"/>
<path d="M48.3634 46.1943C48.3717 46.085 48.4139 45.9994 48.4899 45.9376C48.566 45.8758 48.6646 45.8449 48.7858 45.8449C48.8667 45.8449 48.9362 45.8598 48.9944 45.8895C49.0538 45.918 49.0984 45.9572 49.1281 46.0071C49.159 46.057 49.1745 46.1135 49.1745 46.1765C49.1745 46.2502 49.1531 46.3137 49.1103 46.3672C49.0687 46.4207 49.014 46.4552 48.9463 46.4706V46.4795C49.0235 46.4985 49.0847 46.536 49.1299 46.5918C49.1751 46.6477 49.1976 46.7208 49.1976 46.8111C49.1976 46.8788 49.1822 46.94 49.1513 46.9947C49.1204 47.0482 49.074 47.0904 49.0122 47.1213C48.9504 47.1522 48.8762 47.1676 48.7894 47.1676C48.6634 47.1676 48.56 47.1349 48.4792 47.0696C48.3984 47.003 48.3533 46.9091 48.3438 46.7879H48.5006C48.5089 46.8592 48.5381 46.9175 48.588 46.9626C48.6379 47.0078 48.7044 47.0304 48.7876 47.0304C48.8708 47.0304 48.9338 47.009 48.9766 46.9662C49.0206 46.9222 49.0425 46.8658 49.0425 46.7968C49.0425 46.7077 49.0128 46.6435 48.9534 46.6043C48.894 46.5651 48.8043 46.5455 48.6842 46.5455H48.6432V46.41H48.686C48.7954 46.4088 48.8779 46.391 48.9338 46.3565C48.9897 46.3209 49.0176 46.2662 49.0176 46.1925C49.0176 46.1295 48.9968 46.079 48.9552 46.041C48.9148 46.003 48.8566 45.984 48.7805 45.984C48.7068 45.984 48.6474 46.003 48.6022 46.041C48.5571 46.079 48.5303 46.1301 48.522 46.1943H48.3634Z" fill="black"/>
<path d="M49.652 46.4884C49.5854 46.4623 49.5343 46.4243 49.4987 46.3744C49.463 46.3244 49.4452 46.2638 49.4452 46.1925C49.4452 46.1283 49.4612 46.0707 49.4933 46.0196C49.5254 45.9673 49.5729 45.9263 49.6359 45.8966C49.7001 45.8657 49.7773 45.8503 49.8677 45.8503C49.958 45.8503 50.0346 45.8657 50.0976 45.8966C50.1618 45.9263 50.2099 45.9673 50.242 46.0196C50.2753 46.0707 50.2919 46.1283 50.2919 46.1925C50.2919 46.2615 50.2735 46.3221 50.2367 46.3744C50.1998 46.4255 50.1493 46.4635 50.0852 46.4884C50.1588 46.511 50.2171 46.5508 50.2598 46.6079C50.3038 46.6637 50.3258 46.7315 50.3258 46.8111C50.3258 46.8883 50.3068 46.9561 50.2688 47.0143C50.2307 47.0714 50.1767 47.1159 50.1065 47.148C50.0376 47.1789 49.958 47.1944 49.8677 47.1944C49.7773 47.1944 49.6977 47.1789 49.6288 47.148C49.5611 47.1159 49.5082 47.0714 49.4701 47.0143C49.4321 46.9561 49.4131 46.8883 49.4131 46.8111C49.4131 46.7315 49.4345 46.6631 49.4773 46.6061C49.5201 46.549 49.5783 46.5098 49.652 46.4884ZM50.1351 46.2121C50.1351 46.1396 50.1113 46.0838 50.0638 46.0446C50.0162 46.0053 49.9509 45.9857 49.8677 45.9857C49.7857 45.9857 49.7209 46.0053 49.6734 46.0446C49.6258 46.0838 49.6021 46.1402 49.6021 46.2139C49.6021 46.2805 49.6264 46.3339 49.6751 46.3744C49.7251 46.4148 49.7892 46.435 49.8677 46.435C49.9473 46.435 50.0115 46.4148 50.0602 46.3744C50.1101 46.3328 50.1351 46.2787 50.1351 46.2121ZM49.8677 46.5597C49.7797 46.5597 49.7078 46.5805 49.652 46.6221C49.5961 46.6625 49.5682 46.7237 49.5682 46.8057C49.5682 46.8818 49.5949 46.943 49.6484 46.9894C49.7031 47.0357 49.7762 47.0589 49.8677 47.0589C49.9592 47.0589 50.0317 47.0357 50.0852 46.9894C50.1386 46.943 50.1654 46.8818 50.1654 46.8057C50.1654 46.7261 50.138 46.6655 50.0834 46.6239C50.0287 46.5811 49.9568 46.5597 49.8677 46.5597Z" fill="black"/>
<path d="M50.5377 46.1943C50.546 46.085 50.5882 45.9994 50.6643 45.9376C50.7403 45.8758 50.839 45.8449 50.9602 45.8449C51.041 45.8449 51.1105 45.8598 51.1687 45.8895C51.2282 45.918 51.2727 45.9572 51.3024 46.0071C51.3333 46.057 51.3488 46.1135 51.3488 46.1765C51.3488 46.2502 51.3274 46.3137 51.2846 46.3672C51.243 46.4207 51.1884 46.4552 51.1206 46.4706V46.4795C51.1979 46.4985 51.2591 46.536 51.3042 46.5918C51.3494 46.6477 51.372 46.7208 51.372 46.8111C51.372 46.8788 51.3565 46.94 51.3256 46.9947C51.2947 47.0482 51.2484 47.0904 51.1866 47.1213C51.1248 47.1522 51.0505 47.1676 50.9637 47.1676C50.8378 47.1676 50.7344 47.1349 50.6536 47.0696C50.5727 47.003 50.5276 46.9091 50.5181 46.7879H50.675C50.6833 46.8592 50.7124 46.9175 50.7623 46.9626C50.8122 47.0078 50.8788 47.0304 50.962 47.0304C51.0451 47.0304 51.1081 47.009 51.1509 46.9662C51.1949 46.9222 51.2169 46.8658 51.2169 46.7968C51.2169 46.7077 51.1872 46.6435 51.1277 46.6043C51.0683 46.5651 50.9786 46.5455 50.8586 46.5455H50.8176V46.41H50.8603C50.9697 46.4088 51.0523 46.391 51.1081 46.3565C51.164 46.3209 51.1919 46.2662 51.1919 46.1925C51.1919 46.1295 51.1711 46.079 51.1295 46.041C51.0891 46.003 51.0309 45.984 50.9548 45.984C50.8811 45.984 50.8217 46.003 50.7766 46.041C50.7314 46.079 50.7047 46.1301 50.6963 46.1943H50.5377Z" fill="black"/>
<path d="M51.7996 46.8129C51.8114 46.8806 51.8388 46.9329 51.8816 46.9697C51.9255 47.0066 51.9844 47.025 52.058 47.025C52.1567 47.025 52.2292 46.9864 52.2755 46.9091C52.3231 46.8319 52.3456 46.7018 52.3433 46.5187C52.3183 46.5722 52.2767 46.6144 52.2185 46.6453C52.1602 46.675 52.0955 46.6899 52.0242 46.6899C51.9445 46.6899 51.8732 46.6738 51.8103 46.6417C51.7485 46.6085 51.6997 46.5603 51.6641 46.4974C51.6284 46.4344 51.6106 46.3583 51.6106 46.2692C51.6106 46.142 51.6474 46.0398 51.7211 45.9626C51.7948 45.8841 51.8994 45.8449 52.0349 45.8449C52.2012 45.8449 52.3177 45.899 52.3843 46.0071C52.452 46.1153 52.4859 46.2763 52.4859 46.4902C52.4859 46.64 52.4722 46.7636 52.4449 46.861C52.4187 46.9585 52.3736 47.0327 52.3094 47.0838C52.2464 47.1349 52.1597 47.1605 52.0491 47.1605C51.9279 47.1605 51.8334 47.1278 51.7657 47.0624C51.698 46.9971 51.6593 46.9139 51.6498 46.8129H51.7996ZM52.0509 46.5526C52.1305 46.5526 52.1959 46.5283 52.247 46.4795C52.2981 46.4296 52.3237 46.3625 52.3237 46.2781C52.3237 46.189 52.2987 46.1171 52.2488 46.0624C52.1989 46.0077 52.1288 45.9804 52.0384 45.9804C51.9552 45.9804 51.8887 46.0065 51.8388 46.0588C51.7901 46.1111 51.7657 46.18 51.7657 46.2656C51.7657 46.3524 51.7901 46.4219 51.8388 46.4742C51.8875 46.5265 51.9582 46.5526 52.0509 46.5526Z" fill="black"/>
<path d="M53.1256 47.1694C53.0947 47.1694 53.0686 47.1587 53.0472 47.1373C53.0258 47.1159 53.0151 47.0898 53.0151 47.0589C53.0151 47.028 53.0258 47.0018 53.0472 46.9804C53.0686 46.9591 53.0947 46.9484 53.1256 46.9484C53.1553 46.9484 53.1803 46.9591 53.2005 46.9804C53.2219 47.0018 53.2326 47.028 53.2326 47.0589C53.2326 47.0898 53.2219 47.1159 53.2005 47.1373C53.1803 47.1587 53.1553 47.1694 53.1256 47.1694ZM53.4608 47.1694C53.4299 47.1694 53.4037 47.1587 53.3823 47.1373C53.3609 47.1159 53.3502 47.0898 53.3502 47.0589C53.3502 47.028 53.3609 47.0018 53.3823 46.9804C53.4037 46.9591 53.4299 46.9484 53.4608 46.9484C53.4905 46.9484 53.5154 46.9591 53.5356 46.9804C53.557 47.0018 53.5677 47.028 53.5677 47.0589C53.5677 47.0898 53.557 47.1159 53.5356 47.1373C53.5154 47.1587 53.4905 47.1694 53.4608 47.1694ZM52.7923 47.1694C52.7614 47.1694 52.7352 47.1587 52.7138 47.1373C52.6925 47.1159 52.6818 47.0898 52.6818 47.0589C52.6818 47.028 52.6925 47.0018 52.7138 46.9804C52.7352 46.9591 52.7614 46.9484 52.7923 46.9484C52.822 46.9484 52.8469 46.9591 52.8672 46.9804C52.8885 47.0018 52.8992 47.028 52.8992 47.0589C52.8992 47.0898 52.8885 47.1159 52.8672 47.1373C52.8469 47.1587 52.822 47.1694 52.7923 47.1694Z" fill="black"/>
<path d="M54.4889 47.3477H54.3267V45.7415H54.4889V47.3477Z" fill="black"/>
</svg>
