<svg width="120" height="120" viewBox="0 0 120 120" fill="none" xmlns="http://www.w3.org/2000/svg">
<g clip-path="url(#clip0)">
<path d="M80.3503 -0.00068446C70.1796 0.165291 62.3306 8.49171 53.6247 13.7753C40.4692 21.7421 23.5827 23.3465 12.4724 33.9689C4.87202 41.2441 1.11331 52.2262 2.16354 62.6826C3.21376 73.139 8.96238 82.9869 17.2813 89.4323C22.5877 93.554 28.8062 96.3202 35.1628 98.4779C41.6024 100.663 48.2907 102.295 55.0895 102.378C64.5139 102.489 73.7725 99.6397 82.2849 95.6287C88.1993 92.8347 93.9203 89.4046 98.5911 84.8126C102.985 80.4696 106.385 75.1031 108.679 69.3493C114.4 55.1307 113.488 38.8652 108.541 24.37C104.45 12.3921 94.4178 -0.249647 80.3503 -0.00068446Z" fill="#F6F7FA"/>
<path opacity="0.7" d="M80.3503 -0.00068446C70.1796 0.165291 62.3306 8.49171 53.6247 13.7753C40.4692 21.7421 23.5827 23.3465 12.4724 33.9689C4.87202 41.2441 1.11331 52.2262 2.16354 62.6826C3.21376 73.139 8.96238 82.9869 17.2813 89.4323C22.5877 93.554 28.8062 96.3202 35.1628 98.4779C41.6024 100.663 48.2907 102.295 55.0895 102.378C64.5139 102.489 73.7725 99.6397 82.2849 95.6287C88.1993 92.8347 93.9203 89.4046 98.5911 84.8126C102.985 80.4696 106.385 75.1031 108.679 69.3493C114.4 55.1307 113.488 38.8652 108.541 24.37C104.45 12.3921 94.4178 -0.249647 80.3503 -0.00068446Z" fill="#F6F7FA"/>
<path opacity="0.1" d="M86.6538 58.6446C86.5709 56.57 86.4327 54.3293 86.2116 52.0333C85.9076 47.4413 85.3272 43.1536 84.3046 40.4704C78.5836 39.3085 48.7627 41.4662 48.735 41.4662L48.5416 40.6363C48.5139 40.5257 48.4863 40.415 48.4586 40.3044L48.3205 39.7235L48.2928 39.5852C48.0994 38.8106 47.8783 38.0361 47.6295 37.2615C47.6295 37.2615 25.022 35.2421 17.5322 37.2062C17.5322 37.2615 17.5322 37.3445 17.5322 37.3998L17.5598 39.2532C17.5875 42.8493 17.5045 46.1965 17.698 49.8756V49.9033C17.698 49.9033 17.6427 49.9033 17.5875 49.9033C16.9794 49.9863 16.482 50.4012 16.2885 50.9545C16.2056 51.1758 16.1779 51.3971 16.2056 51.6184L16.3161 52.7802C16.3161 52.8078 16.3161 52.8078 16.3161 52.8355C16.5925 55.7677 16.8689 58.6723 16.8689 58.6723C16.8689 58.6723 17.0071 58.7 17.2558 58.7L18.4995 58.783C15.8463 59.0319 12.972 62.5174 13.1102 65.5326C13.2207 68.5478 10.3464 74.191 11.065 77.4275C11.6177 79.9724 14.4644 84.0388 15.8463 87.137C15.8187 87.3307 15.7634 87.5243 15.7357 87.7456L9.54492 100.166C9.95949 99.5575 13.6906 115.795 31.0193 112.365L43.3457 92.2546C41.8256 93.4164 43.3457 92.2546 43.3457 92.2546C44.5341 91.3417 45.9436 90.1246 47.1044 88.7138C47.6295 88.1606 48.0441 87.6073 48.2652 87.1094C48.7074 86.3901 49.0667 85.6156 49.2601 84.8411C49.3154 84.6198 49.3707 84.4261 49.426 84.2048C50.4209 81.6322 51.7752 78.1467 52.7701 75.7124C65.7598 75.3251 79.3851 74.5229 86.2392 72.9185C86.2392 72.9185 86.2392 72.9185 86.2669 72.9185C86.9302 68.4648 86.9302 63.4026 86.6538 58.6446ZM19.9367 69.9863C19.9367 69.9863 19.7708 68.9351 19.7432 67.7179C19.8814 68.5202 20.0472 69.3224 20.2407 70.0969C20.1301 70.0693 20.0472 70.0416 19.9367 69.9863Z" fill="black"/>
<path d="M8.13477 99.4191C8.13477 99.4191 13.6899 115.851 31.0187 112.393C31.0187 112.393 34.8603 94.3292 38.0939 91.646C40.1667 89.9309 44.7546 86.8604 45.7495 84.6197C46.7445 82.3514 50.669 71.8119 51.4429 70.5395C52.2167 69.267 43.1792 54.6335 43.1792 54.6335L24.1093 64.4814L13.5241 83.2919C13.5241 83.2919 11.5066 95.4634 8.13477 99.4191Z" fill="white"/>
<path d="M13.3589 84.7578C13.3589 84.7578 12.0046 94.91 7.52734 100.221" stroke="#263238" stroke-miterlimit="10" stroke-linecap="round" stroke-linejoin="round"/>
<path d="M31.0195 112.393C31.0195 112.393 34.8335 94.9104 38.0948 91.6462C38.0948 91.6462 45.4187 87.3862 46.7453 82.3516C47.6574 78.8662 49.3156 74.8551 50.1171 73.057" stroke="#263238" stroke-miterlimit="10" stroke-linecap="round" stroke-linejoin="round"/>
<path d="M32.5664 73.6099C32.29 73.4439 36.9884 77.206 37.1819 82.3513" stroke="#263238" stroke-miterlimit="10" stroke-linecap="round" stroke-linejoin="round"/>
<path d="M83.724 70.4566C68.4404 74.0527 19.2455 73.5824 19.2455 73.5824C18.8309 72.6972 18.3335 70.5119 17.836 67.9669C16.8687 62.8494 15.9566 56.321 15.9566 56.321L14.326 56.2104C14.326 56.2104 14.0496 53.3058 13.7733 50.3736C13.4969 47.4413 15.1551 47.4413 15.1551 47.4413L15.0446 37.2615L15.017 34.7166C22.5067 32.7525 45.1143 34.7719 45.1143 34.7719L45.8329 37.2339L46.2198 38.9766L81.7894 37.9808C85.0506 46.3902 83.724 70.4566 83.724 70.4566Z" fill="#7A6BDE"/>
<path d="M78.0028 54.1082L54.7043 55.2147C53.737 55.27 52.9355 54.5231 52.8802 53.5549L52.6591 48.8246C52.6039 47.8565 53.3501 47.0542 54.3174 46.9989L77.6159 45.8924C78.5832 45.8371 79.3847 46.584 79.44 47.5522L79.661 52.2825C79.6887 53.2506 78.9425 54.0805 78.0028 54.1082Z" fill="#263238"/>
<path d="M79.7437 57.1233L79.8266 57.8979L52.9629 58.949V58.2298L79.7437 57.1233Z" fill="#263238"/>
<path d="M79.8829 59.8618L79.9106 60.5534L53.0469 61.5493V60.8577L79.8829 59.8618Z" fill="#263238"/>
<path opacity="0.3" d="M81.7903 37.953C81.7903 37.953 85.7424 56.7635 83.7525 70.4565C83.7525 70.4565 58.6853 73.3887 50.1176 72.9184L49.7583 68.3541L50.4769 68.2434C50.4769 68.2434 47.0222 42.1024 46.2207 38.9488C46.2207 38.9488 76.0693 36.7635 81.7903 37.953Z" fill="black"/>
<path opacity="0.8" d="M48.9014 68.2713L49.2054 71.7292C49.2054 71.7292 23.9447 72.8357 21.7337 72.0335C19.5227 71.2313 21.8442 69.9311 27.731 69.4885C33.5902 69.0182 48.9014 68.2713 48.9014 68.2713Z" fill="white"/>
<path d="M33.8391 53.6103C35.1213 53.6103 36.1607 52.6691 36.1607 51.508C36.1607 50.3469 35.1213 49.4056 33.8391 49.4056C32.557 49.4056 31.5176 50.3469 31.5176 51.508C31.5176 52.6691 32.557 53.6103 33.8391 53.6103Z" fill="#263238"/>
<path d="M15.9844 56.3211C16.5648 62.4068 17.5321 67.718 19.2456 73.5825C29.969 73.4995 40.6647 73.3612 51.3881 73.0292C62.1115 72.6973 73.1113 71.9504 83.7241 70.4566C83.7241 70.4566 85.6311 53.6378 81.7618 37.9531C77.5056 37.0679 46.3028 38.949 46.3028 38.949" stroke="#263238" stroke-miterlimit="10" stroke-linecap="round" stroke-linejoin="round"/>
<path d="M48.9016 68.271L49.2056 71.7289L25.1609 72.2821C24.1659 72.3651 22.6182 72.5034 21.7062 72.0331C21.2916 71.8118 20.9876 71.2863 21.1811 70.8713C21.3469 70.484 21.8167 70.3457 22.2313 70.2627C25.1609 69.6542 28.1734 69.4052 31.1582 69.1839C37.5701 68.7136 43.9821 68.3817 50.4216 68.2157C50.2834 68.2157 48.7081 55.2697 48.5423 54.0802C47.8513 49.4052 47.2157 44.7026 46.3865 40.0553C46.0549 38.2572 45.668 36.4868 45.0876 34.7441C35.1933 34.0248 24.8292 33.3886 14.9902 34.6887C15.0731 39.0871 14.9073 42.9875 15.1284 47.3858" stroke="#263238" stroke-miterlimit="10" stroke-linecap="round" stroke-linejoin="round"/>
<path d="M18.8859 72.2824C18.8859 72.2824 18.803 72.0611 18.7754 71.7291" stroke="#263238" stroke-linecap="round" stroke-linejoin="round"/>
<path d="M18.9414 70.6781C19.3007 69.7652 20.4062 68.7141 23.4187 68.3821C28.8909 67.7735 40.8027 66.667 47.795 66.4181" stroke="#263238" stroke-linecap="round" stroke-linejoin="round" stroke-dasharray="3.91 3.91"/>
<path d="M48.3203 66.3904C48.5138 66.3904 48.6796 66.3904 48.8731 66.3627C48.8454 66.1691 48.8178 66.0031 48.7901 65.8095" stroke="#263238" stroke-linecap="round" stroke-linejoin="round"/>
<path d="M48.6527 64.7583C47.3813 55.7126 45.9995 46.7223 44.3965 37.7043" stroke="#263238" stroke-linecap="round" stroke-linejoin="round" stroke-dasharray="3.88 3.88"/>
<path d="M44.3137 37.1785C44.2861 36.9849 44.2584 36.8189 44.2031 36.6253C44.2031 36.6253 44.0097 36.5976 43.6504 36.5976" stroke="#263238" stroke-linecap="round" stroke-linejoin="round"/>
<path d="M42.5443 36.5147C37.9565 36.2104 24.8839 35.4358 16.1504 36.0444" stroke="#263238" stroke-linecap="round" stroke-linejoin="round" stroke-dasharray="4.07 4.07"/>
<path d="M15.5977 36.0997C15.4042 36.1274 15.2384 36.1274 15.0449 36.155" stroke="#263238" stroke-linecap="round" stroke-linejoin="round"/>
<path d="M14.3539 56.1826L13.6906 49.1287C13.6077 48.2435 14.271 47.4413 15.183 47.3859C19.2457 47.1646 29.748 46.6114 33.7831 46.9157C35.7177 47.0817 37.8182 47.6902 38.7579 49.5436C39.5317 51.0651 39.6423 53.361 38.3433 54.6059C36.3534 56.5146 32.5671 56.3763 30.0244 56.4593C25.2431 56.6806 14.3539 56.238 14.3539 56.1826Z" stroke="#263238" stroke-miterlimit="10" stroke-linecap="round" stroke-linejoin="round"/>
<path d="M39.3384 51.8949C39.3384 51.7013 40.3334 55.9336 36.6576 57.3444C32.9818 58.7552 15.957 58.3126 15.957 58.3126V56.3209C15.957 56.3209 27.9794 56.5699 29.9969 56.5145C32.0145 56.4592 39.1173 57.1231 39.3384 51.8949Z" fill="#263238"/>
<path d="M35.8008 75.6294C35.8008 75.6294 38.8133 77.3998 39.9464 80.6916" stroke="#263238" stroke-miterlimit="10" stroke-linecap="round" stroke-linejoin="round"/>
<path d="M13.7734 48.4649C13.7734 48.4649 28.5319 47.7734 32.263 47.884C36.0217 48.0223 37.8458 48.8245 38.2327 51.1758C38.6196 53.5272 36.3257 54.9933 34.5293 55.2699C32.7052 55.5189 14.3538 55.6295 14.3538 55.6295" stroke="#263238" stroke-miterlimit="10" stroke-linecap="round" stroke-linejoin="round" stroke-dasharray="4 4"/>
<path d="M23.9159 76.9849C23.9159 76.9849 21.6219 69.0457 17.421 67.4966C17.421 67.4966 16.5919 62.0748 18.3883 61.7705C20.1848 61.4662 25.2425 58.1467 23.9159 53.9696C22.5893 49.7926 18.6371 56.072 15.9839 56.2933C13.3307 56.5423 10.4564 60.0277 10.5669 63.043C10.6775 66.0582 7.80315 71.7013 8.52173 74.9378C9.24031 78.1744 13.69 83.9558 14.0492 86.971" fill="white"/>
<path d="M23.9159 76.9849C23.9159 76.9849 21.6219 69.0457 17.421 67.4966C17.421 67.4966 16.5919 62.0748 18.3883 61.7705C20.1848 61.4662 25.2425 58.1467 23.9159 53.9696C22.5893 49.7926 18.6371 56.072 15.9839 56.2933C13.3307 56.5423 10.4564 60.0277 10.5669 63.043C10.6775 66.0582 7.80315 71.7013 8.52173 74.9378C9.24031 78.1744 13.69 83.9558 14.0492 86.971" stroke="#263238" stroke-miterlimit="10" stroke-linecap="round" stroke-linejoin="round"/>
<path d="M18.3613 55.076C18.3613 55.076 21.512 55.6569 23.2532 53.6376C24.9667 51.6182 23.0044 51.5076 23.0044 51.5076L18.3613 55.076Z" fill="white" stroke="#263238" stroke-miterlimit="10" stroke-linecap="round" stroke-linejoin="round"/>
<path d="M12.7227 59.5576C13.303 59.5852 13.8558 59.7789 14.3533 60.0832" stroke="#263238" stroke-miterlimit="10" stroke-linecap="round" stroke-linejoin="round"/>
<path d="M12.6406 60.7191C13.221 60.7745 13.7738 60.9958 14.216 61.3554" stroke="#263238" stroke-miterlimit="10" stroke-linecap="round" stroke-linejoin="round"/>
<path d="M21.1797 71.3417C21.1797 71.3417 34.7221 70.6501 38.2874 70.8438" stroke="#263238" stroke-miterlimit="10" stroke-linecap="round" stroke-linejoin="round"/>
<path d="M34.9707 69.8201C34.9707 69.8201 38.3701 69.5435 40.4982 69.8201" stroke="#263238" stroke-miterlimit="10" stroke-linecap="round" stroke-linejoin="round"/>
<path d="M43.6211 70.8161H49.121" stroke="#263238" stroke-miterlimit="10" stroke-linecap="round" stroke-linejoin="round"/>
<path d="M46.9395 40.4982C46.9395 40.4982 71.15 38.3405 80.8784 39.5576C80.8784 39.5576 83.504 44.3986 82.9236 69.1565C82.9236 69.1565 67.1702 71.3419 49.9519 71.6185" stroke="#263238" stroke-miterlimit="10" stroke-linecap="round" stroke-linejoin="round" stroke-dasharray="4 4"/>
<g opacity="0.1">
<path opacity="0.1" d="M112.523 74.7721C111.832 71.8398 110.837 70.7333 109.814 69.9035C109.814 69.9035 109.787 68.2437 108.488 67.3032C108.156 66.9989 107.769 66.7499 107.382 66.4733C106.166 65.5604 104.812 64.5369 104.812 64.5369C104.176 62.7112 103.319 60.4982 102.407 58.3129L102.463 58.8108C101.523 56.5148 100.583 54.1911 100.335 53.4443C100.335 53.4443 100.335 53.4443 100.335 53.4166C100.611 54.1635 100.887 54.855 101.191 55.5189L97.7366 43.2644C97.6537 42.7665 97.5708 42.2963 97.4878 41.826C97.322 40.4429 96.8798 37.8426 95.7743 37.649C95.7467 37.649 95.6914 37.649 95.6638 37.649C95.6638 37.649 94.3924 37.0957 94.3924 39.364C92.8724 39.862 92.292 41.0238 92.1262 42.3792C92.0432 42.7665 92.0432 43.2091 92.0985 43.6794C92.1262 44.1773 92.1814 44.7029 92.2643 45.2008L87.3725 38.7555L86.9027 38.1192L80.85 30.1524L72.7246 19.447C71.4532 17.7596 69.0764 17.4553 67.3905 18.7278L57.2752 26.3903L53.323 29.3779C50.3105 30.9546 51.0843 34.0528 51.9411 35.1593L69.5462 58.3405C69.3804 58.3129 69.2699 58.3405 69.2699 58.3405C69.2699 58.3405 68.7724 57.151 67.5287 57.3447C67.28 57.3447 67.0312 57.4277 66.7825 57.5936C66.589 57.7043 66.4232 57.8426 66.285 58.0362C66.1468 58.1745 66.0363 58.3682 65.9257 58.5618C65.2901 59.6407 65.8704 62.2963 66.7825 65.5328C66.8378 65.7541 66.893 65.9477 66.9483 66.1414V66.169C67.0312 66.4456 67.1141 66.6946 67.197 66.9712C68.0815 70.0694 69.7673 76.1828 70.0714 79.1704C70.099 79.447 70.099 79.7513 70.1266 80.0279C70.1543 83.4857 68.6066 89.2396 69.2699 91.6185C69.3528 91.9228 69.4357 92.2271 69.5462 92.5314C70.0437 94.1358 70.4859 95.6296 71.2321 97.1234C72.1718 98.9491 73.2773 100.692 74.3276 102.462C76.2345 105.699 78.2244 108.908 80.2696 112.089C81.2093 113.555 82.3148 114.883 83.3927 116.238C83.8902 116.874 84.9404 117.815 85.1338 118.617C85.1338 118.617 94.5859 119.392 99.8923 116.045L99.3948 108.52L102.932 88.0777C103.955 86.5286 107.078 83.5411 107.714 82.5729C108.045 82.1026 108.349 81.6324 108.653 81.1621C111.003 78.9768 112.163 77.2893 112.661 75.3253C112.633 75.3806 112.606 75.1317 112.523 74.7721ZM79.7722 79.2534L79.7169 79.1704C80.1591 79.3917 81.2093 79.8066 82.757 80.0556C81.6515 79.9173 80.4078 79.7236 79.7722 79.2534ZM83.752 80.1662C83.9178 80.1939 84.0836 80.1939 84.2494 80.1939C84.1113 80.1939 83.9454 80.1662 83.752 80.1662ZM79.6616 79.0321L79.0259 77.7596C78.1415 75.2147 76.1516 69.2396 76.124 69.2119C76.124 69.2119 75.5989 66.7499 74.5763 64.1773C75.4883 64.5093 76.5662 64.3709 77.3953 63.7347L82.2319 60.0556C82.7294 60.3599 83.2545 60.6365 83.752 60.8578L88.2845 64.3986L84.6916 79.1704L79.6616 79.0321ZM97.9853 44.9795C98.3722 46.7499 98.9526 49.2949 99.7541 51.7568C99.1461 49.9864 98.4275 47.5798 97.9853 44.9795Z" fill="black"/>
<path opacity="0.1" d="M77.4785 116.017L77.5062 116.155C77.5062 116.155 77.4785 116.1 77.4785 116.017Z" fill="black"/>
</g>
<path d="M94.2558 45.5325C94.5322 45.3389 98.5949 43.1536 100.612 49.7649C102.63 56.3763 105.034 67.6626 105.034 67.6626L100.226 68.6031C100.226 68.6031 95.7483 66.2241 91.7684 60.2767C91.7684 60.2767 86.158 58.8106 83.7259 55.3527C81.5149 52.1992 88.3414 40.6639 88.3414 40.6639L94.2558 45.5325Z" fill="white"/>
<path d="M92.5137 53.7759C93.7021 55.5739 95.9684 59.336 99.0085 60.5255" stroke="#263238" stroke-miterlimit="10" stroke-linecap="round" stroke-linejoin="round"/>
<path d="M89.1426 55.6848C89.6953 55.9061 91.0772 56.7083 91.7405 56.736C91.7405 56.736 94.5596 62.3238 99.2027 64.1219" stroke="#263238" stroke-miterlimit="10" stroke-linecap="round" stroke-linejoin="round"/>
<path d="M86.5723 57.7594C88.3134 59.1978 90.3586 60.1937 91.7405 60.249C91.7405 60.249 94.5595 65.8368 99.2026 67.6349" stroke="#263238" stroke-miterlimit="10" stroke-linecap="round" stroke-linejoin="round"/>
<path d="M96.9083 50.0971L81.6247 61.7154C80.2981 62.7112 78.4188 62.4623 77.3962 61.1345L56.1705 33.1676C55.1756 31.8398 55.4243 29.9588 56.7509 28.9353L72.0345 17.317C73.3611 16.3212 75.2405 16.5701 76.2631 17.8979L97.4887 45.8647C98.4837 47.1925 98.2349 49.1013 96.9083 50.0971Z" fill="#263238"/>
<path d="M96.4657 49.4885L82.4258 60.1662C80.7399 61.4387 78.3631 61.1067 77.0917 59.447L56.8334 32.725C56.5017 32.2824 56.2806 31.7845 56.1424 31.2589C55.8108 29.8481 56.3359 28.3266 57.552 27.3861L61.5041 24.3986L71.5919 16.736C73.2778 15.4636 75.6546 15.7955 76.9259 17.4553L85.0514 28.1607L91.104 36.1275L97.1843 44.1496C98.4556 45.837 98.1239 48.216 96.4657 49.4885Z" fill="#7A6BDE"/>
<path opacity="0.1" d="M85.0511 28.1606L61.5039 24.3708L71.5916 16.7083C73.2775 15.4358 75.6544 15.7677 76.9257 17.4275L85.0511 28.1606Z" fill="black"/>
<path opacity="0.1" d="M96.4658 49.4881L82.4259 60.1659C80.74 61.4383 78.3632 61.1064 77.0919 59.4466L56.8335 32.7247C56.5019 32.2821 56.2808 31.7841 56.1426 31.2585L91.574 36.7634L97.1844 44.1493C98.4557 45.8367 98.1241 48.2157 96.4658 49.4881Z" fill="black"/>
<path d="M77.9485 25.1732L75.4611 27.0542C74.9637 27.4415 74.2727 27.3308 73.8858 26.8329L70.8733 22.8772C70.4864 22.3792 70.5969 21.6877 71.0944 21.3004L73.5818 19.4193C74.0793 19.0321 74.7702 19.1427 75.1571 19.6406L78.1696 23.5964C78.5289 24.0943 78.446 24.7859 77.9485 25.1732Z" fill="white" stroke="#263238" stroke-miterlimit="10" stroke-linecap="round" stroke-linejoin="round"/>
<path d="M72.3945 20.3319L76.6784 26.1411" stroke="#263238" stroke-miterlimit="10" stroke-linecap="round" stroke-linejoin="round"/>
<path d="M72.3945 24.8689L76.6784 21.6324" stroke="#263238" stroke-miterlimit="10" stroke-linecap="round" stroke-linejoin="round"/>
<path d="M80.6846 58.4235L79.9384 58.9491L71.0391 47.2202L71.7576 46.6669L80.6846 58.4235Z" fill="#263238"/>
<path d="M81.9011 57.5105L81.1825 58.0361L72.2832 46.3072L73.0018 45.7539L81.9011 57.5105Z" fill="#263238"/>
<path d="M83.1455 56.5975L82.4269 57.1231L73.5 45.3665L74.2186 44.8133L83.1455 56.5975Z" fill="#263238"/>
<path d="M84.3885 55.6848L83.6423 56.2104L74.8535 44.6198L75.5721 44.0666L84.3885 55.6848Z" fill="#263238"/>
<path d="M85.715 54.6891L84.9964 55.2423L76.1523 43.5964L76.8709 43.0708L85.715 54.6891Z" fill="#263238"/>
<path d="M85.715 41.0237L84.9964 41.5493L76.1523 29.9311L76.8709 29.3778L85.715 41.0237Z" fill="#263238"/>
<path d="M66.4779 20.6215L65.3555 21.4749L90.2151 54.23L91.3375 53.3766L66.4779 20.6215Z" fill="#263238"/>
<path d="M96.4657 49.4885L82.4258 60.1662C80.7399 61.4387 78.3631 61.1067 77.0917 59.447L56.8334 32.725C56.5017 32.2824 56.2806 31.7845 56.1424 31.2589C55.8108 29.8481 56.3359 28.3266 57.552 27.3861L61.5041 24.3986L71.5919 16.736C73.2778 15.4636 75.6546 15.7955 76.9259 17.4553L85.0514 28.1607L91.104 36.1275L97.1843 44.1496C98.4556 45.837 98.1239 48.216 96.4657 49.4885Z" stroke="#263238" stroke-miterlimit="10" stroke-linecap="round" stroke-linejoin="round"/>
<path d="M85.1071 118.673C85.1071 118.673 101.441 124.482 106.36 111.84C106.36 111.84 98.6219 102.435 102.85 94.7444C105.504 89.9035 112.855 79.2258 112.855 79.2258C112.855 79.2258 115.923 76.3212 116.863 73.389C116.863 73.389 116.338 70.1248 114.016 67.9118C114.016 67.9118 113.988 66.2521 112.689 65.3115C111.39 64.371 109.014 62.5453 109.014 62.5453C109.014 62.5453 105.117 53.1677 104.536 51.4526C103.956 49.7375 102.795 46.5563 102.215 43.0155C101.634 39.4747 101.082 35.6573 99.8655 35.685C99.8655 35.685 98.5942 35.1317 98.5942 37.4001C98.5942 37.4001 95.9134 38.7832 96.3003 41.7154C96.6872 44.6476 97.0742 46.1414 96.9636 47.8012C96.8531 49.4609 97.3782 55.1594 98.7048 56.9574C98.7048 56.9574 99.147 64.9796 99.8103 67.0819C99.8379 67.1373 99.8379 67.1926 99.8655 67.2479C100.556 69.0183 93.5918 75.8509 89.8331 77.6767C89.8331 77.6767 89.4462 78.4236 87.9814 78.2023C86.5166 78.0086 84.0568 77.898 83.6146 76.8191C83.2001 75.7403 80.3534 67.2756 80.3534 67.2756C80.3534 67.2756 78.0595 56.4042 73.4993 56.4042C73.4993 56.4042 72.8083 54.7444 71.0119 55.6573C69.2155 56.5702 70.4039 61.5218 71.1777 64.205C71.9792 66.916 73.9691 74.0252 74.3008 77.2894C74.6324 80.5536 72.7807 87.1096 73.4993 89.6822C74.2179 92.2548 74.9641 93.9976 77.2027 98.2299C79.3861 102.407 84.3056 114.993 85.1071 118.673Z" fill="white"/>
<path d="M85.107 118.672C85.107 118.672 81.6246 105.505 76.484 97.0124C71.3434 88.4924 74.3559 85.4772 74.3559 78.3956C74.3559 71.314 68.5797 59.2531 70.155 56.5975C71.7027 53.9419 73.8308 56.0719 74.7152 58.5339C75.5996 61.0235 74.3559 62.4343 71.8686 62.6003" stroke="#263238" stroke-miterlimit="10" stroke-linecap="round" stroke-linejoin="round"/>
<path d="M73.4727 56.3487C73.4727 56.3487 76.4575 56.1551 78.2816 60.9407C80.1057 65.6986 83.0352 77.8148 86.103 81.494" stroke="#263238" stroke-miterlimit="10" stroke-linecap="round" stroke-linejoin="round"/>
<path d="M83.6973 77.0127C83.7249 77.0404 87.9535 79.4193 94.5588 77.3446" stroke="#263238" stroke-miterlimit="10" stroke-linecap="round" stroke-linejoin="round"/>
<path d="M74.0527 70.3458C74.716 69.516 75.8215 69.101 76.8441 69.2947" stroke="#263238" stroke-miterlimit="10" stroke-linecap="round" stroke-linejoin="round"/>
<path d="M74.6055 71.8396C75.1582 71.1481 76.1532 70.8161 77.0099 71.0651" stroke="#263238" stroke-miterlimit="10" stroke-linecap="round" stroke-linejoin="round"/>
<path d="M98.5661 37.3721C94.227 38.8106 97.4606 45.3666 96.9355 47.7733C96.4104 50.1522 97.7646 54.7442 98.8149 57.2338C98.8149 60.1384 99.8651 67.22 99.8651 67.22C99.2294 69.4607 93.8677 76.0997 88.6719 78.1744" stroke="#263238" stroke-miterlimit="10" stroke-linecap="round" stroke-linejoin="round"/>
<path d="M101.773 40.6641C101.773 40.6641 101.441 35.6572 99.8659 35.6572C98.2906 35.6572 98.3735 39.032 99.0368 41.5493C99.7001 44.0389 102.243 43.6793 101.773 40.6641Z" stroke="#263238" stroke-miterlimit="10" stroke-linecap="round" stroke-linejoin="round"/>
<path d="M101.773 40.6639C101.773 40.6639 103.128 48.5478 105.422 53.527" stroke="#263238" stroke-miterlimit="10" stroke-linecap="round" stroke-linejoin="round"/>
<path d="M108.101 72.0057C109.207 70.2076 109.704 68.5202 110.119 66.3625C110.008 65.007 108.461 60.581 106.664 56.321" stroke="#263238" stroke-miterlimit="10" stroke-linecap="round" stroke-linejoin="round"/>
<path d="M109.18 62.9322C110.976 64.2877 114.099 65.3112 113.74 67.6625C113.408 69.8479 112.551 72.1438 111.335 74.2739" stroke="#263238" stroke-miterlimit="10" stroke-linecap="round" stroke-linejoin="round"/>
<path d="M106.748 112.393C106.748 112.393 100.502 103.707 101.746 97.7041C102.658 93.3057 108.572 85.5879 112.829 79.1979C115.178 77.0125 116.338 75.3251 116.836 73.3611C116.09 69.6543 114.874 68.6031 113.713 67.6349" stroke="#263238" stroke-miterlimit="10" stroke-linecap="round" stroke-linejoin="round"/>
<path d="M108.433 64.3708C107.051 63.9835 105.503 64.1771 104.26 64.9517" stroke="#263238" stroke-miterlimit="10" stroke-linecap="round" stroke-linejoin="round"/>
<path d="M108.073 65.8367C107.244 65.6984 106.359 65.8644 105.613 66.2793" stroke="#263238" stroke-miterlimit="10" stroke-linecap="round" stroke-linejoin="round"/>
</g>
<defs>
<clipPath id="clip0">
<rect width="120" height="120" fill="white"/>
</clipPath>
</defs>
</svg>
