<svg width="20" height="20" viewBox="0 0 20 20" fill="none" xmlns="http://www.w3.org/2000/svg">
<path d="M7.57828 3.56565C8.9227 3.05965 10.3918 2.98747 11.7794 3.35926C12.1128 3.4486 12.4555 3.25074 12.5449 2.91732C12.6342 2.5839 12.4363 2.24119 12.1029 2.15185C10.4631 1.71247 8.72683 1.79776 7.13797 2.39577C5.54911 2.99377 4.18748 4.07444 3.24431 5.48599C2.30114 6.89755 1.82381 8.56909 1.87935 10.2658C1.9349 11.9626 2.52053 13.5993 3.55401 14.9462C4.58748 16.293 6.01687 17.2823 7.64144 17.7751C9.266 18.2679 11.0041 18.2395 12.6117 17.6938C14.2193 17.1481 15.6155 16.1126 16.6044 14.7326C17.5932 13.3527 18.125 11.6977 18.125 10C18.125 9.65482 17.8452 9.375 17.5 9.375C17.1548 9.375 16.875 9.65482 16.875 10C16.875 11.4365 16.425 12.8369 15.5883 14.0045C14.7516 15.1722 13.5702 16.0484 12.2099 16.5101C10.8496 16.9719 9.37893 16.996 8.0043 16.579C6.62966 16.162 5.42018 15.3249 4.5457 14.1852C3.67122 13.0456 3.17568 11.6607 3.12868 10.2249C3.08168 8.78923 3.48558 7.37485 4.28365 6.18046C5.08172 4.98606 6.23387 4.07165 7.57828 3.56565Z" fill="#FFFFFF"/>
<path d="M16.7415 4.76114C16.9547 4.48972 16.9076 4.09681 16.6361 3.88355C16.3647 3.67029 15.9718 3.71744 15.7586 3.98886L9.3188 12.1849L6.69194 9.55806C6.44787 9.31398 6.05214 9.31398 5.80806 9.55806C5.56398 9.80214 5.56398 10.1979 5.80806 10.4419L8.93306 13.5669C9.05944 13.6933 9.23389 13.7596 9.4123 13.7489C9.59072 13.7382 9.75603 13.6517 9.86645 13.5111L16.7415 4.76114Z" fill="#FFFFFF"/>
</svg>
