<svg width="13" height="14" viewBox="0 0 13 14" fill="none" xmlns="http://www.w3.org/2000/svg">
<path d="M6.5 11.55C2.4375 11.55 0.1755 7.48751 0.078 7.31201C-0.026 7.11701 -0.026 6.88302 0.078 6.68801C0.1755 6.51252 2.4375 2.45001 6.5 2.45001C10.5625 2.45001 12.8245 6.51252 12.922 6.68801C13.026 6.88302 13.026 7.11701 12.922 7.31201C12.8245 7.48751 10.5625 11.55 6.5 11.55ZM0.975 7.00001C1.547 7.87101 3.796 10.575 6.5 10.575C9.2105 10.575 11.453 7.87101 12.025 7.00001C11.453 6.12901 9.204 3.42501 6.5 3.42501C3.7895 3.42501 1.547 6.12901 0.975 7.00001ZM6.5 9.27501C5.2455 9.27501 4.225 8.25451 4.225 7.00001C4.225 5.74551 5.2455 4.72501 6.5 4.72501C7.7545 4.72501 8.775 5.74551 8.775 7.00001C8.775 8.25451 7.7545 9.27501 6.5 9.27501ZM6.5 6.02501C5.9605 6.02501 5.525 6.46051 5.525 7.00001C5.525 7.53951 5.9605 7.97501 6.5 7.97501C7.0395 7.97501 7.475 7.53951 7.475 7.00001C7.475 6.46051 7.0395 6.02501 6.5 6.02501Z" fill="#A5AABE"/>
</svg>
