<svg width="173" height="17" viewBox="0 0 173 17" fill="none" xmlns="http://www.w3.org/2000/svg">
<path d="M1.09 16C0.943333 16 0.811333 15.9487 0.694 15.846C0.591333 15.7287 0.54 15.5967 0.54 15.45V1.15C0.54 0.988666 0.591333 0.856666 0.694 0.754C0.811333 0.651332 0.943333 0.599999 1.09 0.599999H11.21C11.3713 0.599999 11.5033 0.651332 11.606 0.754C11.7087 0.856666 11.76 0.988666 11.76 1.15V3.372C11.76 3.51867 11.7087 3.65067 11.606 3.768C11.5033 3.87067 11.3713 3.922 11.21 3.922H4.412V7.156H10.77C10.9313 7.156 11.0633 7.21467 11.166 7.332C11.2687 7.43467 11.32 7.56667 11.32 7.728V9.928C11.32 10.0747 11.2687 10.2067 11.166 10.324C11.0633 10.4267 10.9313 10.478 10.77 10.478H4.412V15.45C4.412 15.6113 4.36067 15.7433 4.258 15.846C4.15533 15.9487 4.02333 16 3.862 16H1.09ZM15.1296 16C14.9829 16 14.8509 15.9487 14.7336 15.846C14.6309 15.7287 14.5796 15.5967 14.5796 15.45V1.15C14.5796 0.988666 14.6309 0.856666 14.7336 0.754C14.8509 0.651332 14.9829 0.599999 15.1296 0.599999H25.4036C25.5649 0.599999 25.6969 0.651332 25.7996 0.754C25.9023 0.856666 25.9536 0.988666 25.9536 1.15V3.218C25.9536 3.36467 25.9023 3.49667 25.7996 3.614C25.6969 3.71667 25.5649 3.768 25.4036 3.768H18.3856V6.738H24.9196C25.0809 6.738 25.2129 6.79667 25.3156 6.914C25.4183 7.01667 25.4696 7.14867 25.4696 7.31V9.224C25.4696 9.37067 25.4183 9.50267 25.3156 9.62C25.2129 9.72267 25.0809 9.774 24.9196 9.774H18.3856V12.832H25.5796C25.7409 12.832 25.8729 12.8833 25.9756 12.986C26.0783 13.0887 26.1296 13.2207 26.1296 13.382V15.45C26.1296 15.5967 26.0783 15.7287 25.9756 15.846C25.8729 15.9487 25.7409 16 25.5796 16H15.1296ZM29.6204 16C29.4737 16 29.3417 15.9487 29.2244 15.846C29.1217 15.7287 29.0704 15.5967 29.0704 15.45V1.15C29.0704 0.988666 29.1217 0.856666 29.2244 0.754C29.3417 0.651332 29.4737 0.599999 29.6204 0.599999H31.9964C32.3484 0.599999 32.6051 0.761332 32.7664 1.084L36.6384 8.014L40.5104 1.084C40.6717 0.761332 40.9284 0.599999 41.2804 0.599999H43.6344C43.7957 0.599999 43.9277 0.651332 44.0304 0.754C44.1477 0.856666 44.2064 0.988666 44.2064 1.15V15.45C44.2064 15.6113 44.1477 15.7433 44.0304 15.846C43.9277 15.9487 43.7957 16 43.6344 16H41.0164C40.8551 16 40.7157 15.9487 40.5984 15.846C40.4957 15.7433 40.4444 15.6113 40.4444 15.45V7.2L37.9804 11.798C37.7897 12.1353 37.5331 12.304 37.2104 12.304H36.0664C35.8757 12.304 35.7217 12.26 35.6044 12.172C35.4871 12.084 35.3844 11.9593 35.2964 11.798L32.8104 7.2V15.45C32.8104 15.5967 32.7591 15.7287 32.6564 15.846C32.5537 15.9487 32.4217 16 32.2604 16H29.6204ZM48.2791 16C48.1325 16 48.0005 15.9487 47.8831 15.846C47.7805 15.7287 47.7291 15.5967 47.7291 15.45V1.15C47.7291 0.988666 47.7805 0.856666 47.8831 0.754C48.0005 0.651332 48.1325 0.599999 48.2791 0.599999H51.2271C51.3885 0.599999 51.5205 0.651332 51.6231 0.754C51.7405 0.856666 51.7991 0.988666 51.7991 1.15V15.45C51.7991 15.6113 51.7405 15.7433 51.6231 15.846C51.5205 15.9487 51.3885 16 51.2271 16H48.2791ZM55.852 16C55.7053 16 55.5733 15.9487 55.456 15.846C55.3533 15.7287 55.302 15.5967 55.302 15.45V1.15C55.302 0.988666 55.3533 0.856666 55.456 0.754C55.5733 0.651332 55.7053 0.599999 55.852 0.599999H61.572C63.728 0.599999 65.4 1.11333 66.588 2.14C67.776 3.16667 68.3993 4.65533 68.458 6.606C68.4726 7.03133 68.48 7.596 68.48 8.3C68.48 9.004 68.4726 9.56133 68.458 9.972C68.3846 12.0107 67.776 13.5287 66.632 14.526C65.5026 15.5087 63.8526 16 61.682 16H55.852ZM61.572 12.832C62.54 12.832 63.2513 12.6047 63.706 12.15C64.1606 11.6807 64.4026 10.94 64.432 9.928C64.4613 9.50267 64.476 8.95267 64.476 8.278C64.476 7.60333 64.4613 7.06067 64.432 6.65C64.4026 5.66733 64.1386 4.94133 63.64 4.472C63.156 4.00267 62.43 3.768 61.462 3.768H59.262V12.832H61.572ZM70.2877 16C70.1704 16 70.0604 15.956 69.9577 15.868C69.8697 15.7653 69.8257 15.6553 69.8257 15.538C69.8257 15.45 69.8331 15.384 69.8477 15.34L75.0177 1.216C75.0617 1.04 75.1571 0.893333 75.3037 0.775999C75.4504 0.658666 75.6411 0.599999 75.8757 0.599999H79.1317C79.3664 0.599999 79.5571 0.658666 79.7037 0.775999C79.8504 0.893333 79.9457 1.04 79.9897 1.216L85.1377 15.34L85.1817 15.538C85.1817 15.6553 85.1304 15.7653 85.0277 15.868C84.9397 15.956 84.8297 16 84.6977 16H81.9917C81.6397 16 81.4051 15.846 81.2877 15.538L80.4297 13.294H74.5557L73.7197 15.538C73.6024 15.846 73.3604 16 72.9937 16H70.2877ZM79.5497 10.126L77.5037 4.318L75.4577 10.126H79.5497ZM87.5538 16C87.4071 16 87.2751 15.9487 87.1578 15.846C87.0551 15.7287 87.0038 15.5967 87.0038 15.45V12.656C87.0038 12.4947 87.0551 12.3627 87.1578 12.26C87.2751 12.1573 87.4071 12.106 87.5538 12.106H90.3478C90.5091 12.106 90.6411 12.1573 90.7438 12.26C90.8464 12.3627 90.8978 12.4947 90.8978 12.656V15.45C90.8978 15.5967 90.8464 15.7287 90.7438 15.846C90.6411 15.9487 90.5091 16 90.3478 16H87.5538ZM99.7213 16C99.5747 16 99.4427 15.9487 99.3253 15.846C99.2227 15.7287 99.1713 15.5967 99.1713 15.45V1.15C99.1713 0.988666 99.2227 0.856666 99.3253 0.754C99.4427 0.651332 99.5747 0.599999 99.7213 0.599999H109.841C110.003 0.599999 110.135 0.651332 110.237 0.754C110.34 0.856666 110.391 0.988666 110.391 1.15V3.372C110.391 3.51867 110.34 3.65067 110.237 3.768C110.135 3.87067 110.003 3.922 109.841 3.922H103.043V7.156H109.401C109.563 7.156 109.695 7.21467 109.797 7.332C109.9 7.43467 109.951 7.56667 109.951 7.728V9.928C109.951 10.0747 109.9 10.2067 109.797 10.324C109.695 10.4267 109.563 10.478 109.401 10.478H103.043V15.45C103.043 15.6113 102.992 15.7433 102.889 15.846C102.787 15.9487 102.655 16 102.493 16H99.7213ZM119.396 16.22C117.328 16.22 115.7 15.714 114.512 14.702C113.324 13.69 112.693 12.2013 112.62 10.236C112.605 9.81067 112.598 9.18 112.598 8.344C112.598 7.49333 112.605 6.85533 112.62 6.43C112.693 4.494 113.331 3.00533 114.534 1.964C115.751 0.907999 117.372 0.379999 119.396 0.379999C121.42 0.379999 123.04 0.907999 124.258 1.964C125.475 3.00533 126.113 4.494 126.172 6.43C126.201 7.28067 126.216 7.91867 126.216 8.344C126.216 8.75467 126.201 9.38533 126.172 10.236C126.098 12.2013 125.468 13.69 124.28 14.702C123.092 15.714 121.464 16.22 119.396 16.22ZM119.396 13.052C120.202 13.052 120.84 12.81 121.31 12.326C121.794 11.842 122.05 11.1013 122.08 10.104C122.109 9.25333 122.124 8.652 122.124 8.3C122.124 7.91867 122.109 7.31733 122.08 6.496C122.05 5.49867 121.794 4.758 121.31 4.274C120.826 3.79 120.188 3.548 119.396 3.548C118.604 3.548 117.966 3.79 117.482 4.274C117.012 4.758 116.756 5.49867 116.712 6.496C116.697 6.90667 116.69 7.508 116.69 8.3C116.69 9.07733 116.697 9.67867 116.712 10.104C116.756 11.1013 117.012 11.842 117.482 12.326C117.951 12.81 118.589 13.052 119.396 13.052ZM129.756 16C129.609 16 129.477 15.9487 129.36 15.846C129.257 15.7287 129.206 15.5967 129.206 15.45V1.15C129.206 0.988666 129.257 0.856666 129.36 0.754C129.477 0.651332 129.609 0.599999 129.756 0.599999H135.74C137.661 0.599999 139.157 1.04 140.228 1.92C141.313 2.78533 141.856 4.01733 141.856 5.616C141.856 6.64267 141.614 7.51533 141.13 8.234C140.646 8.95267 139.978 9.50267 139.128 9.884L142.142 15.296C142.186 15.384 142.208 15.4647 142.208 15.538C142.208 15.6553 142.156 15.7653 142.054 15.868C141.966 15.956 141.863 16 141.746 16H138.82C138.394 16 138.094 15.802 137.918 15.406L135.41 10.566H133.166V15.45C133.166 15.6113 133.107 15.7433 132.99 15.846C132.887 15.9487 132.755 16 132.594 16H129.756ZM135.696 7.442C136.37 7.442 136.884 7.28067 137.236 6.958C137.588 6.62067 137.764 6.15867 137.764 5.572C137.764 4.98533 137.588 4.52333 137.236 4.186C136.898 3.834 136.385 3.658 135.696 3.658H133.166V7.442H135.696ZM151.106 16.22C149.009 16.22 147.366 15.714 146.178 14.702C145.005 13.6753 144.381 12.194 144.308 10.258C144.293 9.862 144.286 9.21667 144.286 8.322C144.286 7.41267 144.293 6.75267 144.308 6.342C144.381 4.43533 145.019 2.96867 146.222 1.942C147.425 0.900666 149.053 0.379999 151.106 0.379999C152.397 0.379999 153.555 0.599999 154.582 1.04C155.609 1.46533 156.415 2.08133 157.002 2.888C157.603 3.68 157.911 4.61133 157.926 5.682V5.726C157.926 5.84333 157.875 5.946 157.772 6.034C157.684 6.10733 157.581 6.144 157.464 6.144H154.494C154.303 6.144 154.157 6.10733 154.054 6.034C153.951 5.946 153.863 5.792 153.79 5.572C153.585 4.824 153.262 4.30333 152.822 4.01C152.382 3.702 151.803 3.548 151.084 3.548C149.353 3.548 148.459 4.516 148.4 6.452C148.385 6.848 148.378 7.45667 148.378 8.278C148.378 9.09933 148.385 9.72267 148.4 10.148C148.459 12.084 149.353 13.052 151.084 13.052C151.803 13.052 152.389 12.898 152.844 12.59C153.299 12.2673 153.614 11.7467 153.79 11.028C153.849 10.808 153.929 10.6613 154.032 10.588C154.135 10.5 154.289 10.456 154.494 10.456H157.464C157.596 10.456 157.706 10.5 157.794 10.588C157.897 10.676 157.941 10.786 157.926 10.918C157.911 11.9887 157.603 12.9273 157.002 13.734C156.415 14.526 155.609 15.142 154.582 15.582C153.555 16.0073 152.397 16.22 151.106 16.22ZM161.229 16C161.083 16 160.951 15.9487 160.833 15.846C160.731 15.7287 160.679 15.5967 160.679 15.45V1.15C160.679 0.988666 160.731 0.856666 160.833 0.754C160.951 0.651332 161.083 0.599999 161.229 0.599999H171.503C171.665 0.599999 171.797 0.651332 171.899 0.754C172.002 0.856666 172.053 0.988666 172.053 1.15V3.218C172.053 3.36467 172.002 3.49667 171.899 3.614C171.797 3.71667 171.665 3.768 171.503 3.768H164.485V6.738H171.019C171.181 6.738 171.313 6.79667 171.415 6.914C171.518 7.01667 171.569 7.14867 171.569 7.31V9.224C171.569 9.37067 171.518 9.50267 171.415 9.62C171.313 9.72267 171.181 9.774 171.019 9.774H164.485V12.832H171.679C171.841 12.832 171.973 12.8833 172.075 12.986C172.178 13.0887 172.229 13.2207 172.229 13.382V15.45C172.229 15.5967 172.178 15.7287 172.075 15.846C171.973 15.9487 171.841 16 171.679 16H161.229Z" fill="#FF6359"/>
</svg>
