<svg width="19" height="19" viewBox="0 0 19 19" fill="none" xmlns="http://www.w3.org/2000/svg">
<path fill-rule="evenodd" clip-rule="evenodd" d="M7.41986 12.2162C4.73194 12.2162 2.55295 10.0038 2.55295 7.27467C2.55295 4.54556 4.73194 2.33317 7.41986 2.33317C10.1078 2.33317 12.2868 4.54556 12.2868 7.27467C12.2868 8.4177 11.9045 9.47008 11.2628 10.3072L15.8456 15.542C16.0931 15.8246 16.0931 16.283 15.8456 16.5656C15.5982 16.8483 15.1969 16.8483 14.9494 16.5656L10.3019 11.257C9.4951 11.8599 8.49846 12.2162 7.41986 12.2162ZM7.42014 10.6957C9.28101 10.6957 10.7895 9.16406 10.7895 7.27467C10.7895 5.38528 9.28101 3.85363 7.42014 3.85363C5.55927 3.85363 4.05074 5.38528 4.05074 7.27467C4.05074 9.16406 5.55927 10.6957 7.42014 10.6957Z" fill="#7A6BDE"/>
</svg>
