<svg width="303" height="303" viewBox="0 0 303 303" fill="none" xmlns="http://www.w3.org/2000/svg">
<g clip-path="url(#clip0)">
<path d="M297.362 126.261C297.362 126.261 304.681 178.15 267.57 219.424C230.46 260.699 171.153 272.768 123.371 283.764C75.5893 294.76 33.6868 273.325 20.8838 232.877C8.08084 192.428 42.9185 174.353 54.7615 124.052C66.6046 73.7501 62.1088 58.5475 99.5155 22.7853C136.922 -12.9769 206.336 -5.77787 249.763 38.3126C293.19 82.4031 297.362 126.261 297.362 126.261Z" fill="#F6F7FA"/>
<path opacity="0.8" d="M297.362 126.261C297.362 126.261 304.681 178.15 267.57 219.424C230.46 260.699 171.153 272.768 123.371 283.764C75.5893 294.76 33.6868 273.325 20.8838 232.877C8.08084 192.428 42.9185 174.353 54.7615 124.052C66.6046 73.7501 62.1088 58.5475 99.5155 22.7853C136.922 -12.9769 206.336 -5.77787 249.763 38.3126C293.19 82.4031 297.362 126.261 297.362 126.261Z" fill="#F6F7FA"/>
<path d="M16.1699 227.541H300.637" stroke="#263238" stroke-miterlimit="10"/>
<path d="M16.1699 173.689H300.637" stroke="#263238" stroke-miterlimit="10"/>
<path d="M16.1699 119.831H300.637" stroke="#263238" stroke-miterlimit="10"/>
<path d="M16.1699 65.9724H300.637" stroke="#263238" stroke-miterlimit="10"/>
<path d="M80.8477 35.3906V227.675" stroke="#263238" stroke-miterlimit="10"/>
<path d="M251.832 35.3906V227.675" stroke="#263238" stroke-miterlimit="10"/>
<path d="M87.1923 106.668L85.082 108.898" stroke="#263238" stroke-miterlimit="10"/>
<path d="M123.252 68.6404L89.748 103.979" stroke="#263238" stroke-miterlimit="10"/>
<path d="M125.341 74.3923L106.518 93.7379" stroke="#263238" stroke-miterlimit="10"/>
<path d="M259.143 106.668L257.033 108.898" stroke="#263238" stroke-miterlimit="10"/>
<path d="M295.201 68.6404L261.697 103.979" stroke="#263238" stroke-miterlimit="10"/>
<path d="M297.29 74.3923L278.467 93.7379" stroke="#263238" stroke-miterlimit="10"/>
<path d="M11.8994 215.43L9.78906 217.66" stroke="#263238" stroke-miterlimit="10"/>
<path d="M47.9588 177.395L14.4551 212.74" stroke="#263238" stroke-miterlimit="10"/>
<path d="M50.0479 183.147L31.2246 202.493" stroke="#263238" stroke-miterlimit="10"/>
<path d="M39.6154 60.658L37.498 62.8882" stroke="#263238" stroke-miterlimit="10"/>
<path d="M75.6677 22.623L42.1641 57.9618" stroke="#263238" stroke-miterlimit="10"/>
<path d="M77.7628 28.3752L58.9395 47.7209" stroke="#263238" stroke-miterlimit="10"/>
<path d="M196.299 60.658L194.182 62.8882" stroke="#263238" stroke-miterlimit="10"/>
<path d="M232.351 22.623L198.848 57.9618" stroke="#263238" stroke-miterlimit="10"/>
<path d="M234.448 28.3752L215.625 47.7209" stroke="#263238" stroke-miterlimit="10"/>
<path d="M147.847 162.616L145.736 164.846" stroke="#263238" stroke-miterlimit="10"/>
<path d="M183.906 124.588L150.402 159.927" stroke="#263238" stroke-miterlimit="10"/>
<path d="M185.995 130.34L167.172 149.686" stroke="#263238" stroke-miterlimit="10"/>
<path d="M128.368 90.082H167.849C171.312 90.082 174.633 91.4577 177.082 93.9064C179.531 96.355 180.906 99.6761 180.906 103.139V217.131H115.311V103.132C115.312 99.6703 116.689 96.351 119.137 93.9039C121.586 91.4567 124.906 90.082 128.368 90.082Z" fill="#263238" stroke="#263238" stroke-linecap="round" stroke-linejoin="round"/>
<path d="M188.642 283.835L153.995 273.643V262.301H152.04V220.427H145.885V262.301H143.93V273.34L109.283 283.835V285.493H109.749C109.482 285.982 109.343 286.531 109.347 287.088C109.345 287.674 109.495 288.25 109.783 288.76C110.071 289.27 110.487 289.696 110.99 289.997C111.493 290.297 112.065 290.461 112.651 290.474C113.236 290.486 113.815 290.345 114.33 290.066C114.844 289.786 115.278 289.378 115.587 288.88C115.895 288.383 116.07 287.813 116.092 287.228C116.114 286.642 115.983 286.062 115.712 285.542C115.442 285.023 115.041 284.583 114.548 284.265L114.619 284.195L146.379 280.376V284.95C145.973 285.443 145.715 286.043 145.636 286.677C145.557 287.312 145.66 287.956 145.933 288.534C146.206 289.113 146.637 289.601 147.178 289.944C147.718 290.286 148.344 290.468 148.984 290.468C149.623 290.468 150.25 290.286 150.79 289.944C151.33 289.601 151.762 289.113 152.035 288.534C152.308 287.956 152.411 287.312 152.331 286.677C152.252 286.043 151.995 285.443 151.588 284.95V280.376L183.278 284.188C182.708 284.523 182.25 285.019 181.959 285.614C181.669 286.208 181.56 286.875 181.645 287.53C181.731 288.186 182.007 288.803 182.44 289.303C182.873 289.803 183.444 290.164 184.081 290.343C184.718 290.521 185.393 290.508 186.023 290.306C186.652 290.104 187.209 289.721 187.623 289.205C188.036 288.689 188.289 288.062 188.35 287.404C188.411 286.745 188.277 286.083 187.964 285.5H188.67L188.642 283.835Z" fill="#263238" stroke="#263238" stroke-linecap="round" stroke-linejoin="round"/>
<path d="M178.873 217.06H118.556C115.718 217.06 113.418 219.36 113.418 222.198V227.372C113.418 230.209 115.718 232.51 118.556 232.51H178.873C181.71 232.51 184.011 230.209 184.011 227.372V222.198C184.011 219.36 181.71 217.06 178.873 217.06Z" fill="white" stroke="#263238" stroke-linecap="round" stroke-linejoin="round"/>
<path d="M173.82 192.005H124.789V219.269H173.82V192.005Z" fill="white" stroke="#263238" stroke-linecap="round" stroke-linejoin="round"/>
<path d="M144.812 113.535L137.303 116.479C137.303 116.479 140.02 133.354 143.655 142.063C147.29 150.773 160.53 164.599 160.53 164.599C160.53 164.599 167.39 154.584 169.783 146.637C172.176 138.69 169.677 116.366 169.677 116.366C167.965 115.369 166.081 114.703 164.123 114.404C160.714 113.86 144.812 113.535 144.812 113.535Z" fill="white" stroke="#263238" stroke-linecap="round" stroke-linejoin="round"/>
<path d="M152.109 125.407L155.581 132.076L149.822 144.788L159.075 158.72L164.736 145.98L157.875 131.829L161.468 125.618L156.351 120.501L152.109 125.407Z" fill="#263238" stroke="#263238" stroke-linecap="round" stroke-linejoin="round"/>
<path d="M145.907 112.773L143.507 113.43L141.221 117.453L146.867 133.46L156.127 123.882L166.248 134.222C166.248 134.222 167.448 118.109 167.448 116.26C167.448 114.411 165.817 113.754 164.625 113.437C163.432 113.119 145.907 112.773 145.907 112.773Z" fill="white" stroke="#263238" stroke-linecap="round" stroke-linejoin="round"/>
<path d="M143.507 113.429C143.507 113.429 144.544 127.905 150.565 140.645C153.677 147.208 159.493 156.433 159.493 156.108C159.493 155.784 165.259 138.69 165.478 132.916C165.697 127.143 166.784 114.841 166.784 114.841C166.784 114.841 177.949 119.287 180.617 120.833C184.753 123.226 189.976 123.769 189.87 126.599C189.828 127.63 190.534 134.363 191.43 142.571C191.571 143.877 198.579 155.078 198.728 156.433C200.231 170.104 195.128 175.863 194.874 175.927C194.444 176.033 185.402 175.927 185.402 175.927C185.402 175.927 190.308 198.244 191.049 199.444L191.811 200.637H152.915L151.292 195.738L149.845 200.637H109.862L115.198 176.357H109.319C109.319 176.357 107.794 173.308 109.862 161.875C111.93 150.441 118.903 121.807 118.903 120.833C118.903 119.859 141.22 115.822 143.507 113.429Z" fill="#FF6359" stroke="#263238" stroke-linecap="round" stroke-linejoin="round"/>
<path d="M151.82 169.998L151.291 195.738" stroke="#263238" stroke-linecap="round" stroke-linejoin="round"/>
<path d="M166.804 160.244C173.234 154.259 176.064 142.282 176.064 142.282L170.29 139.777L175.845 137.052L171.046 116.584C168.328 114.241 166.733 114.305 166.811 114.82C166.811 114.82 165.724 127.122 165.505 132.895C165.286 138.668 159.506 155.784 159.506 156.108C159.506 156.433 153.105 147.456 150.578 140.645C144.692 124.793 143.562 115.236 143.393 113.408C143.391 113.378 143.381 113.349 143.364 113.324C143.347 113.299 143.324 113.279 143.296 113.266C143.269 113.253 143.239 113.247 143.208 113.25C143.178 113.253 143.149 113.264 143.125 113.281C142.313 113.761 140.302 114.156 138.89 115.399C138.495 118.222 137.987 122.315 137.634 126.818C136.984 135.203 136.984 138.901 136.984 138.901L144.494 140.758L139.158 143.807C139.158 143.807 145.037 149.792 149.936 154.259C154.834 158.727 158.094 160.35 158.094 160.35L151.82 169.998C151.82 169.998 160.381 166.236 166.804 160.244Z" fill="#FF6359" stroke="#263238" stroke-linecap="round" stroke-linejoin="round"/>
<path d="M144.812 105.588V114.954C144.812 114.954 147.212 122.788 155.703 123.332C164.631 123.911 166.156 115.279 166.156 115.279V107C166.156 107 149.626 111.03 144.812 105.588Z" fill="white" stroke="#263238" stroke-linecap="round" stroke-linejoin="round"/>
<path d="M168.223 92.9545C168.223 92.9545 168.547 88.7197 171.159 88.7197C173.77 88.7197 173.777 93.6179 173.121 95.58C172.464 97.5421 169.091 98.9537 168.004 97.4292" fill="white"/>
<path d="M168.223 92.9545C168.223 92.9545 168.547 88.7197 171.159 88.7197C173.77 88.7197 173.777 93.6179 173.121 95.58C172.464 97.5421 169.091 98.9537 168.004 97.4292" stroke="#263238" stroke-linecap="round" stroke-linejoin="round"/>
<path d="M157.389 71.7599C157.389 71.7599 147.769 71.407 144.445 73.8772C141.12 76.3475 141.819 82.9748 141.819 85.071C141.819 87.1672 143.393 105.186 144.445 107.811C145.496 110.437 153.154 114.432 159.831 112.893C166.507 111.354 168.575 106.597 168.921 104.148C169.267 101.699 169.274 82.9748 168.921 78.0908C168.568 73.2067 162.103 72.2821 157.389 71.7599Z" fill="white" stroke="#263238" stroke-linecap="round" stroke-linejoin="round"/>
<path d="M169.021 80.0034C169.021 79.2271 168.965 78.5919 168.922 78.0555C168.577 73.1573 162.105 72.2821 157.383 71.7599C157.383 71.7599 147.763 71.407 144.439 73.8772C141.114 76.3475 141.813 82.9748 141.813 85.071C141.813 85.9109 142.067 89.3057 142.441 93.2299C142.61 93.3248 142.798 93.3791 142.991 93.3885C143.184 93.398 143.377 93.3622 143.553 93.2841C143.73 93.2059 143.886 93.0876 144.009 92.9385C144.133 92.7894 144.219 92.6137 144.262 92.4253C144.968 90.4985 143.916 88.7552 144.792 86.3061C145.667 83.857 146.013 82.2831 148.116 81.0551C149.434 80.2996 150.843 79.7138 152.308 79.3118C152.308 79.3118 147.939 84.3793 157.559 84.2029C163.806 84.0617 167.327 82.7631 169.021 80.0034Z" fill="#263238" stroke="#263238" stroke-linecap="round" stroke-linejoin="round"/>
<path d="M159.295 88.9319C159.295 88.9319 160.926 96.6603 159.401 97.4013C157.877 98.1424 156.903 98.3824 155.59 95.771" stroke="#263238" stroke-linecap="round" stroke-linejoin="round"/>
<path d="M150.805 97.3093C150.805 97.3093 150.473 100.909 157.771 100.358" stroke="#263238" stroke-linecap="round" stroke-linejoin="round"/>
<path d="M153.091 89.0939C153.091 89.842 152.774 90.456 152.385 90.456C151.997 90.456 151.68 89.842 151.68 89.0939C151.68 88.3457 151.997 87.7317 152.385 87.7317C152.774 87.7317 153.091 88.3387 153.091 89.0939Z" fill="#263238"/>
<path d="M164.031 89.0939C164.031 89.842 163.713 90.456 163.325 90.456C162.937 90.456 162.619 89.842 162.619 89.0939C162.619 88.3457 162.937 87.7317 163.325 87.7317C163.713 87.7317 164.031 88.3387 164.031 89.0939Z" fill="#263238"/>
<path d="M154.758 92.3055H148.843C148.537 92.3044 148.241 92.1967 148.005 92.001C147.769 91.8053 147.609 91.5337 147.552 91.2327L146.775 87.0757H156.572L156.064 91.1551C156.022 91.4726 155.867 91.7643 155.627 91.976C155.387 92.1876 155.078 92.3048 154.758 92.3055V92.3055Z" stroke="#263238" stroke-width="2" stroke-linecap="round" stroke-linejoin="round"/>
<path d="M167.39 92.3055H161.475C161.169 92.3058 160.872 92.1986 160.636 92.0026C160.4 91.8067 160.24 91.5343 160.184 91.2327L159.4 87.0757H169.204L168.681 91.1551C168.641 91.4702 168.488 91.76 168.25 91.9714C168.013 92.1827 167.708 92.3014 167.39 92.3055V92.3055Z" stroke="#263238" stroke-width="2" stroke-linecap="round" stroke-linejoin="round"/>
<path d="M156.57 87.0757H159.401" stroke="#263238" stroke-width="2" stroke-linecap="round" stroke-linejoin="round"/>
<path d="M146.775 87.0757L142.096 89.1436" stroke="#263238" stroke-width="2" stroke-linecap="round" stroke-linejoin="round"/>
<path d="M143.181 92.9545C143.181 92.9545 142.856 88.7197 140.238 88.7197C137.619 88.7197 137.626 93.6179 138.283 95.58C138.939 97.5421 142.306 98.9537 143.4 97.4292" fill="white"/>
<path d="M143.181 92.9545C143.181 92.9545 142.856 88.7197 140.238 88.7197C137.619 88.7197 137.626 93.6179 138.283 95.58C138.939 97.5421 142.306 98.9537 143.4 97.4292" stroke="#263238" stroke-linecap="round" stroke-linejoin="round"/>
<path d="M171.377 147.286C169.905 145.897 168.11 144.895 166.155 144.371C165.522 144.153 164.844 144.1 164.185 144.216C163.31 144.216 158.97 142.649 157.883 142.325C156.796 142 156.139 143.087 156.471 144.287C156.803 145.486 159.125 146.503 160 146.722C160.875 146.94 160.501 146.962 160.501 146.962C160.501 146.962 161.913 150.448 161.263 151.754C160.614 153.06 158.32 155.989 159.083 158.071C159.845 160.153 161.045 161.225 163.437 161.225C165.83 161.225 167.248 161.331 167.792 161.225C168.335 161.12 178.026 165.905 176.967 166.018C175.908 166.131 176.53 156.327 176.53 156.327L171.377 147.286Z" fill="white" stroke="#263238" stroke-linecap="round" stroke-linejoin="round"/>
<path d="M149.387 153.059C149.387 153.059 154.504 150.554 157.009 148.048C159.515 145.543 160.383 144.893 161.244 144.675C162.105 144.456 165.599 143.475 166.467 142.713C167.335 141.95 167.991 143.369 166.686 144.456C165.731 145.232 164.711 145.924 163.637 146.524C163.093 146.856 162.55 148.38 162.55 148.38C162.55 148.38 167.885 146.093 169.735 146.637C171.584 147.18 173.419 148.832 173.306 149.806C173.193 150.78 172.854 150.314 171.654 150.201C170.454 150.088 168.753 149.573 167.42 150.116C166.086 150.66 164.596 151.973 164.596 152.516C164.596 153.059 166.121 153.384 167.321 153.278C168.521 153.172 169.389 152.841 170.581 153.059C171.774 153.278 172.762 153.928 172.868 154.584C172.974 155.24 172.438 155.233 171.125 155.346C169.812 155.459 167.532 155.565 166.77 156.108C166.008 156.652 162.091 158.501 162.747 159.157C163.404 159.814 163.792 159.814 165.098 159.814C166.403 159.814 167.801 158.812 168.563 158.868C169.586 158.946 170.137 159.023 170.137 159.023C170.137 159.023 171.951 159.101 171.788 159.814C171.534 160.957 170.927 160.993 168.295 161.113C166.234 161.211 165.683 161.007 163.834 161.444C162.248 161.955 160.601 162.247 158.936 162.312C155.774 162.531 150.114 161.007 150.114 161.007L149.387 153.059Z" fill="white" stroke="#263238" stroke-linecap="round" stroke-linejoin="round"/>
<path d="M169.932 145.952C169.932 145.952 167.73 143.898 166.466 143.835C165.203 143.771 161.349 147.145 160.82 148.408C160.291 149.671 161.526 149.192 162.549 148.881C163.573 148.57 166.332 147.3 167.278 146.912C168.051 146.531 168.934 146.439 169.769 146.651" fill="white"/>
<path d="M169.932 145.952C169.932 145.952 167.73 143.898 166.466 143.835C165.203 143.771 161.349 147.145 160.82 148.408C160.291 149.671 161.526 149.192 162.549 148.881C163.573 148.57 166.332 147.3 167.278 146.912C168.051 146.531 168.934 146.439 169.769 146.651" stroke="#263238" stroke-linecap="round" stroke-linejoin="round"/>
<path d="M172.768 150.441C172.768 150.441 169.621 148.867 167.651 149.735C165.682 150.603 163.24 152.339 163.24 153.123C163.24 153.906 163.635 153.758 165.358 153.673C167.08 153.589 170.192 153.088 170.609 153.066C171.232 153.138 171.849 153.263 172.451 153.44" fill="white"/>
<path d="M172.768 150.441C172.768 150.441 169.621 148.867 167.651 149.735C165.682 150.603 163.24 152.339 163.24 153.123C163.24 153.906 163.635 153.758 165.358 153.673C167.08 153.589 170.192 153.088 170.609 153.066C171.232 153.138 171.849 153.263 172.451 153.44" stroke="#263238" stroke-linecap="round" stroke-linejoin="round"/>
<path d="M128.593 140.976L125.869 155.565C125.869 155.565 149.499 150.878 150.367 151.535C151.235 152.191 152.025 169.504 152.025 169.504C152.025 169.504 121.514 174.833 117.922 176.033C114.329 177.232 110.624 177.444 109.318 176.357C108.013 175.27 107.907 172.546 108.881 167.182C109.855 161.818 119.227 122.873 119.227 122.873" fill="#FF6359"/>
<path d="M128.593 140.976L125.869 155.565C125.869 155.565 149.499 150.878 150.367 151.535C151.235 152.191 152.025 169.504 152.025 169.504C152.025 169.504 121.514 174.833 117.922 176.033C114.329 177.232 110.624 177.444 109.318 176.357C108.013 175.27 107.907 172.546 108.881 167.182C109.855 161.818 119.227 122.873 119.227 122.873" stroke="#263238" stroke-linecap="round" stroke-linejoin="round"/>
<path d="M183.356 139.995L184.337 156.652L176.495 156.327L175.74 170.132C175.74 170.132 197.351 175.164 198.551 175.778C199.751 176.393 199.532 175.129 200.944 173.054C202.355 170.979 203.562 166.526 203.449 164.585C203.336 162.644 198.876 156.115 198.77 156.419" fill="#FF6359"/>
<path d="M183.356 139.995L184.337 156.652L176.495 156.327L175.74 170.132C175.74 170.132 197.351 175.164 198.551 175.778C199.751 176.393 199.532 175.129 200.944 173.054C202.355 170.979 203.562 166.526 203.449 164.585C203.336 162.644 198.876 156.115 198.77 156.419" stroke="#263238" stroke-linecap="round" stroke-linejoin="round"/>
<path d="M184.336 156.652H191.634" stroke="#263238" stroke-linecap="round" stroke-linejoin="round"/>
<path d="M125.868 155.565L116.178 158.939" stroke="#263238" stroke-linecap="round" stroke-linejoin="round"/>
<path d="M128.185 273.608C128.185 273.608 126.604 280.405 124.395 282.783C122.185 285.162 120.16 286.735 120.287 288.627L120.442 290.526H143.183V284.823C143.183 281.506 141.771 275.648 141.771 273.297C141.771 270.947 127.557 273.453 127.557 273.453" fill="#263238"/>
<path d="M128.185 273.608C128.185 273.608 126.604 280.405 124.395 282.783C122.185 285.162 120.16 286.735 120.287 288.627L120.442 290.526H143.183V284.823C143.183 281.506 141.771 275.648 141.771 273.297C141.771 270.947 127.557 273.453 127.557 273.453" stroke="#263238" stroke-linecap="round" stroke-linejoin="round"/>
<path d="M120.831 286.721C120.444 287.274 120.253 287.939 120.287 288.613L120.442 290.511H143.183V286.721H120.831Z" fill="#586166" stroke="#263238" stroke-linecap="round" stroke-linejoin="round"/>
<path d="M147.926 213.284C147.926 213.284 150.135 199.232 146.345 192.76C142.555 186.288 129.286 186.126 121.868 190.544C114.45 194.962 111.564 202.21 114.245 211.527C116.927 220.843 123.131 221.027 123.131 221.027C123.131 221.027 121.55 233.816 121.55 238.869C121.55 243.922 126.921 275.351 126.921 275.351H142.569C142.569 275.351 147.608 219.919 147.926 213.284Z" fill="#586166" stroke="#263238" stroke-linecap="round" stroke-linejoin="round"/>
<path d="M123.131 221.027L124.705 208.075" stroke="#263238" stroke-linecap="round" stroke-linejoin="round"/>
<path d="M174.152 273.608C174.152 273.608 175.733 280.405 177.942 282.783C180.151 285.162 182.177 286.735 182.05 288.627L181.895 290.526H159.154V284.823C159.154 281.506 160.566 275.648 160.566 273.297C160.566 270.947 174.78 273.453 174.78 273.453" fill="#263238"/>
<path d="M174.152 273.608C174.152 273.608 175.733 280.405 177.942 282.783C180.151 285.162 182.177 286.735 182.05 288.627L181.895 290.526H159.154V284.823C159.154 281.506 160.566 275.648 160.566 273.297C160.566 270.947 174.78 273.453 174.78 273.453" stroke="#263238" stroke-linecap="round" stroke-linejoin="round"/>
<path d="M181.499 286.721C181.888 287.273 182.081 287.939 182.05 288.613L181.895 290.511H159.154V286.721H181.499Z" fill="#586166" stroke="#263238" stroke-linecap="round" stroke-linejoin="round"/>
<path d="M154.412 213.284C154.412 213.284 152.202 199.232 155.992 192.76C159.783 186.288 173.051 186.126 180.469 190.544C187.887 194.962 190.837 202.21 188.148 211.527C185.459 220.843 179.206 221.027 179.206 221.027C179.206 221.027 180.787 233.816 180.787 238.869C180.787 243.922 175.416 275.351 175.416 275.351H159.783C159.783 275.351 154.729 219.919 154.412 213.284Z" fill="#586166" stroke="#263238" stroke-linecap="round" stroke-linejoin="round"/>
<path d="M179.206 221.027L177.625 208.075" stroke="#263238" stroke-linecap="round" stroke-linejoin="round"/>
<path d="M186.767 45.9634H218.005C218.889 45.9634 219.736 46.3144 220.361 46.9391C220.985 47.5638 221.336 48.4112 221.336 49.2947V63.7916C221.336 64.6751 220.985 65.5224 220.361 66.1471C219.736 66.7719 218.889 67.1229 218.005 67.1229H208.625L211.074 73.7573L203.36 67.1229H186.767C186.329 67.1229 185.896 67.0367 185.492 66.8693C185.088 66.7019 184.721 66.4565 184.411 66.1471C184.102 65.8378 183.857 65.4706 183.689 65.0664C183.522 64.6622 183.436 64.229 183.436 63.7916V49.2947C183.436 48.8572 183.522 48.424 183.689 48.0199C183.857 47.6157 184.102 47.2484 184.411 46.9391C184.721 46.6298 185.088 46.3844 185.492 46.217C185.896 46.0495 186.329 45.9634 186.767 45.9634Z" fill="#263238" stroke="#263238" stroke-linecap="round" stroke-linejoin="round"/>
<path d="M210.206 57.962C211.208 57.962 212.02 57.1499 212.02 56.1481C212.02 55.1463 211.208 54.3342 210.206 54.3342C209.205 54.3342 208.393 55.1463 208.393 56.1481C208.393 57.1499 209.205 57.962 210.206 57.962Z" fill="#FF6359"/>
<path d="M201.517 57.962C202.519 57.962 203.331 57.1499 203.331 56.1481C203.331 55.1463 202.519 54.3342 201.517 54.3342C200.515 54.3342 199.703 55.1463 199.703 56.1481C199.703 57.1499 200.515 57.962 201.517 57.962Z" fill="#FF6359"/>
<path d="M192.835 57.962C193.837 57.962 194.649 57.1499 194.649 56.1481C194.649 55.1463 193.837 54.3342 192.835 54.3342C191.834 54.3342 191.021 55.1463 191.021 56.1481C191.021 57.1499 191.834 57.962 192.835 57.962Z" fill="#FF6359"/>
<path d="M65.4058 163.922L59.9219 175.504H75.4704L80.9543 164.486L65.4058 163.922Z" fill="#263238" stroke="#263238" stroke-linecap="round" stroke-linejoin="round"/>
<path d="M99.5451 163.922H65.4062L70.8973 175.504H105.029L99.5451 163.922Z" fill="white" stroke="#263238" stroke-linecap="round" stroke-linejoin="round"/>
<path d="M38.8747 191.454H31.1816V290.469H38.8747V191.454Z" fill="#A3A3A3" stroke="#263238" stroke-linecap="round" stroke-linejoin="round"/>
<path d="M285.125 191.708H277.432V290.723H285.125V191.708Z" fill="#A3A3A3" stroke="#263238" stroke-linecap="round" stroke-linejoin="round"/>
<path d="M288.505 175.186H29.5098V270.615H288.505V175.186Z" fill="#A3A3A3" stroke="#263238" stroke-linecap="round" stroke-linejoin="round"/>
<path d="M288.505 175.186H29.5098V185.116H288.505V175.186Z" fill="#263238" stroke="#263238" stroke-linecap="round" stroke-linejoin="round"/>
<path d="M295.105 175.186H22.918V181.108H295.105V175.186Z" fill="white" stroke="#263238" stroke-linecap="round" stroke-linejoin="round"/>
<path d="M33.6608 262.619C33.6608 262.619 16.1784 225.381 19.9826 224.301C23.7868 223.222 31.7622 229.157 31.7622 229.157C31.7622 229.157 8.37244 166.533 14.421 161.705C20.4696 156.878 31.7622 181.672 31.7622 181.672C31.7622 181.672 19.7003 143.355 21.1189 128.78C22.5376 114.206 37.8602 128.244 37.8602 128.244C37.8602 128.244 25.5866 75.8957 36.978 73.1925C48.3694 70.4893 47.9953 133.1 47.9953 133.1C47.9953 133.1 51.736 88.3105 56.3024 100.718C60.8689 113.126 51.2702 154.69 51.2702 154.69C51.2702 154.69 57.5305 140.659 61.01 153.61C64.4895 166.561 54.0933 218.902 54.0933 218.902C54.0933 218.902 62.9297 210.27 63.7555 221.062C64.5813 231.853 45.4686 265.343 45.4686 265.343L34.6559 266.395L33.6608 262.619Z" fill="#FF6359"/>
<path opacity="0.6" d="M33.6608 262.619C33.6608 262.619 16.1784 225.381 19.9826 224.301C23.7868 223.222 31.7622 229.157 31.7622 229.157C31.7622 229.157 8.37244 166.533 14.421 161.705C20.4696 156.878 31.7622 181.672 31.7622 181.672C31.7622 181.672 19.7003 143.355 21.1189 128.78C22.5376 114.206 37.8602 128.244 37.8602 128.244C37.8602 128.244 25.5866 75.8957 36.978 73.1925C48.3694 70.4893 47.9953 133.1 47.9953 133.1C47.9953 133.1 51.736 88.3105 56.3024 100.718C60.8689 113.126 51.2702 154.69 51.2702 154.69C51.2702 154.69 57.5305 140.659 61.01 153.61C64.4895 166.561 54.0933 218.902 54.0933 218.902C54.0933 218.902 62.9297 210.27 63.7555 221.062C64.5813 231.853 45.4686 265.343 45.4686 265.343L34.6559 266.395L33.6608 262.619Z" fill="white"/>
<path d="M37.4076 264.235C37.4076 264.235 22.8331 238.332 25.5363 233.476C28.2394 228.621 36.3136 239.934 36.3136 239.934C36.3136 239.934 17.9632 194.058 20.6663 189.753C23.3695 185.448 31.9589 204.32 31.9589 204.32C31.9589 204.32 28.7264 141.181 34.1186 143.34C39.5108 145.5 40.0896 175.708 40.0896 175.708C40.0896 175.708 36.85 103.929 41.7129 106.089C46.5758 108.249 46.0252 188.116 46.0252 188.116C46.0252 188.116 55.758 157.357 57.3602 171.417C58.9623 185.476 44.9454 223.221 44.9454 223.221C44.9454 223.221 58.44 193.543 60.0563 209.19C61.6725 224.838 49.2648 253.98 49.2648 253.98C49.2648 253.98 54.1206 242.108 54.1206 248.587C54.1206 255.066 50.3447 263.155 50.3447 263.155" stroke="#263238" stroke-linecap="round" stroke-linejoin="round"/>
<path d="M57.0941 264.03H26.2441V290.723H57.0941V264.03Z" fill="#263238" stroke="#263238" stroke-miterlimit="10"/>
<path d="M226.409 83.3771C226.409 83.3771 223.247 88.5928 222.774 90.9572C222.301 93.3216 223.092 94.2744 222.457 96.0107C221.821 97.7469 219.146 97.7539 219.146 99.4902C219.146 101.226 221.038 102.807 221.673 103.28C222.308 103.753 221.193 105.807 222.301 108.807C223.409 111.806 223.882 115.596 225.774 115.596C227.732 115.493 229.683 115.281 231.618 114.961L232.563 120.727L245.613 119.542C245.613 119.542 245.458 113.895 248.931 111.489C252.403 109.082 259.278 95.5378 255.17 86.6943C251.062 77.8508 233.827 76.1145 226.409 83.3771Z" fill="white" stroke="#263238" stroke-linecap="round" stroke-linejoin="round"/>
<path d="M222.083 76.8272C221.655 78.2151 221.483 79.669 221.575 81.1184C221.77 83.9047 222.637 86.6022 224.101 88.9808C225.711 91.6417 229.564 93.3355 230.517 96.1728C230.828 97.1186 231.618 99.6453 233.827 100.28C236.036 100.916 235.57 100.909 234.935 105.172C234.3 109.435 236.199 113.697 239.989 114.806C241.774 115.324 243.659 115.393 245.478 115.008C247.296 114.623 248.992 113.794 250.413 112.596C253.413 110.225 259.094 100.436 259.257 91.5923C259.532 75.945 244.111 68.3013 230.199 70.2069C228.346 70.3908 226.587 71.1167 225.144 72.2942C223.7 73.4716 222.636 75.0482 222.083 76.8272Z" fill="#263238" stroke="#263238" stroke-linecap="round" stroke-linejoin="round"/>
<path d="M238.81 116.683C236.705 116.718 234.631 117.199 232.726 118.095C230.961 119.026 224.828 124.884 223.247 125.858C221.666 126.832 218.666 126.331 220.424 127.122C222.181 127.912 223.423 128.067 226.423 126.966C229.423 125.865 235.739 123.649 237.631 123.649C239.522 123.649 246.474 124.595 247.11 124.757C247.745 124.92 251.845 126.804 251.845 126.804C251.845 126.804 249.792 122.386 247.427 120.177C245.063 117.968 242.127 116.521 238.81 116.683Z" fill="white" stroke="#263238" stroke-linecap="round" stroke-linejoin="round"/>
<path d="M233.677 97.0339C233.343 97.1672 233.062 97.4081 232.879 97.7186C232.696 98.0292 232.622 98.3916 232.668 98.749C232.937 100.832 232.901 102.943 232.562 105.016C231.934 107.698 235.287 107.698 236.021 103.301C236.501 100.393 235.4 96.4199 233.677 97.0339Z" fill="white" stroke="#263238" stroke-linecap="round" stroke-linejoin="round"/>
<path d="M207.297 133.438C207.297 133.438 205.406 134.384 205.251 138.965C205.095 143.545 197.191 175.764 196.718 180.818C196.245 185.871 198.934 189.181 203.507 190.925C208.081 192.668 216.776 195.498 218.329 194.715C219.882 193.931 222.909 177.656 224.01 170.549C225.111 163.441 211.85 138.788 211.222 137.864C210.593 136.939 208.405 133.601 207.297 133.438Z" fill="white" stroke="#263238" stroke-linecap="round" stroke-linejoin="round"/>
<path d="M217.565 171.184L208.877 184.135" stroke="#263238" stroke-linecap="round" stroke-linejoin="round"/>
<path d="M234.32 228.677L245.288 289.375C245.323 289.565 245.398 289.745 245.508 289.904C245.618 290.062 245.761 290.196 245.926 290.295C246.092 290.395 246.277 290.458 246.468 290.481C246.66 290.503 246.854 290.485 247.039 290.427C247.341 290.327 247.6 290.126 247.77 289.857C247.94 289.587 248.011 289.267 247.97 288.951L239.875 227.365L234.32 228.677Z" fill="white" stroke="#263238" stroke-linecap="round" stroke-linejoin="round"/>
<path d="M222.145 215.415C222.145 215.415 218.037 270.841 218.037 272.422C218.037 274.003 213.803 290.582 213.803 290.582H225.145C225.145 290.582 226.246 288.373 226.246 283.792C226.246 279.211 226.726 269.422 226.726 268.476C226.726 267.531 239.359 218.57 239.359 218.57C239.359 218.57 238.724 213.672 232.563 210.807C226.401 207.941 223.091 214.152 222.145 215.415Z" fill="white" stroke="#263238" stroke-linecap="round" stroke-linejoin="round"/>
<path d="M226.247 283.792C226.247 279.607 226.642 271.088 226.712 268.914C221.454 265.964 218.193 269.895 218.193 269.895C218.102 271.307 218.045 272.224 218.045 272.408C218.045 273.989 213.811 290.568 213.811 290.568H225.145C225.145 290.568 226.247 288.373 226.247 283.792Z" fill="#263238" stroke="#263238" stroke-linecap="round" stroke-linejoin="round"/>
<path d="M225.145 290.582C225.145 290.582 226.246 288.372 226.246 283.792C226.246 282.091 226.317 279.663 226.395 277.242C225.301 275.965 222.936 274.01 220.409 277.002C219.301 278.308 216.386 286.552 214.996 290.582H225.145Z" fill="#4F4F4F" stroke="#263238" stroke-linecap="round" stroke-linejoin="round"/>
<path d="M220.41 277.002L221.356 290.582H224.179L226.558 276.685C226.558 276.685 223.41 272.895 220.41 277.002Z" fill="#263238" stroke="#263238" stroke-linecap="round" stroke-linejoin="round"/>
<path d="M199.088 208.174C199.088 208.174 194.19 213.545 193.717 218.126C193.244 222.706 210.14 271.187 210.14 271.187C209.723 273.224 208.801 275.124 207.458 276.713C205.087 279.713 201.77 283.975 201.297 286.82C200.824 289.664 201.297 290.61 201.297 290.61H212.512C212.512 290.61 216.457 280.503 218.038 277.976C219.619 275.45 218.666 270.551 218.193 268.342C217.721 266.133 213.458 215.126 213.458 215.126C213.458 215.126 210.14 204.356 199.088 208.174Z" fill="white" stroke="#263238" stroke-linecap="round" stroke-linejoin="round"/>
<path d="M218.037 277.948C219.407 275.753 218.877 271.78 218.397 269.324C217.807 268.832 217.111 268.486 216.364 268.31C215.617 268.135 214.839 268.136 214.092 268.314C210.775 269.105 210.14 271.137 210.14 271.137C209.722 273.175 208.8 275.075 207.458 276.664C205.086 279.663 201.769 283.926 201.296 286.771C200.823 289.615 201.296 290.561 201.296 290.561H212.511C212.511 290.561 216.456 280.475 218.037 277.948Z" fill="#263238" stroke="#263238" stroke-linecap="round" stroke-linejoin="round"/>
<path d="M206.746 290.582H212.512C212.512 290.582 216.041 281.59 217.749 278.449C216.902 277.673 214.34 275.69 211.877 277.631C208.878 280.002 208.56 285.846 207.777 288.055C207.402 289.092 207.028 289.954 206.746 290.582Z" fill="#4F4F4F" stroke="#263238" stroke-linecap="round" stroke-linejoin="round"/>
<path d="M211.877 277.631L212.512 290.582H214.559L218.031 277.948C218.031 277.948 214.877 274.793 211.877 277.631Z" fill="#263238" stroke="#263238" stroke-linecap="round" stroke-linejoin="round"/>
<path d="M211.834 154.845C214.46 163.709 216.817 180.331 216.817 181.883C216.817 184.706 208.56 201.031 208.56 201.031C208.56 201.031 199.384 205.767 197.189 209.084C196.17 210.55 195.573 212.268 195.462 214.05C195.351 215.832 195.732 217.61 196.561 219.191C198.142 222.346 200.507 223.772 205.736 224.717C210.966 225.663 259.426 224.717 259.426 224.717C259.426 224.717 264.479 218.556 262.108 208.767C261.007 204.207 259.807 200.248 258.48 194.715C258.48 194.715 263.689 194.87 267.479 191.708C271.269 188.546 271.431 183.655 271.431 180.027C271.431 176.399 269.045 146.065 269.045 143.072C269.045 140.08 268.904 136.282 266.081 134.066C263.258 131.85 256.567 128.42 250.554 125.23C245.825 122.738 242.346 123.176 238.556 123.176C234.765 123.176 230.185 125.999 230.185 125.999C230.185 125.999 209.181 131.526 207.6 132.471C206.019 133.417 206.583 134.377 207.162 137.863" fill="white"/>
<path d="M211.834 154.845C214.46 163.709 216.817 180.331 216.817 181.883C216.817 184.706 208.56 201.031 208.56 201.031C208.56 201.031 199.384 205.767 197.189 209.084C196.17 210.55 195.573 212.268 195.462 214.05C195.351 215.832 195.732 217.61 196.561 219.191C198.142 222.346 200.507 223.772 205.736 224.717C210.966 225.663 259.426 224.717 259.426 224.717C259.426 224.717 264.479 218.556 262.108 208.767C261.007 204.207 259.807 200.248 258.48 194.715C258.48 194.715 263.689 194.87 267.479 191.708C271.269 188.546 271.431 183.655 271.431 180.027C271.431 176.399 269.045 146.065 269.045 143.072C269.045 140.08 268.904 136.282 266.081 134.066C263.258 131.85 256.567 128.42 250.554 125.23C245.825 122.738 242.346 123.176 238.556 123.176C234.765 123.176 230.185 125.999 230.185 125.999C230.185 125.999 209.181 131.526 207.6 132.471C206.019 133.417 206.583 134.377 207.162 137.863" stroke="#263238" stroke-linecap="round" stroke-linejoin="round"/>
<path d="M260.992 142.282C260.992 142.282 254.527 179.844 254.527 181.898C254.527 183.951 258.466 194.715 258.466 194.715" stroke="#263238" stroke-linecap="round" stroke-linejoin="round"/>
<path d="M216.478 183.472C214.926 188.462 208.56 201.032 208.56 201.032C208.56 201.032 199.384 205.767 197.189 209.085C196.17 210.551 195.573 212.268 195.462 214.05C195.351 215.832 195.732 217.611 196.561 219.191C198.142 222.346 200.507 223.772 205.736 224.718C210.966 225.664 259.426 224.718 259.426 224.718C259.426 224.718 264.479 218.556 262.108 208.767C261.007 204.208 259.807 200.248 258.48 194.715L254.527 183.472H216.478Z" fill="#263238" stroke="#263238" stroke-miterlimit="10"/>
<path d="M202.879 228.035L194.713 289.191C194.688 289.383 194.704 289.578 194.76 289.762C194.816 289.947 194.911 290.118 195.039 290.263C195.167 290.408 195.324 290.524 195.5 290.603C195.676 290.683 195.868 290.723 196.061 290.723C196.378 290.725 196.686 290.614 196.93 290.412C197.174 290.209 197.338 289.927 197.395 289.615L208.56 228.508L202.879 228.035Z" fill="white" stroke="#263238" stroke-linecap="round" stroke-linejoin="round"/>
<path d="M256.906 228.035L265.072 289.191C265.097 289.383 265.081 289.578 265.025 289.762C264.968 289.947 264.873 290.118 264.746 290.263C264.618 290.408 264.461 290.524 264.285 290.603C264.108 290.683 263.917 290.723 263.724 290.723C263.407 290.725 263.099 290.614 262.855 290.412C262.611 290.209 262.446 289.927 262.39 289.615L251.26 228.508L256.906 228.035Z" fill="white" stroke="#263238" stroke-linecap="round" stroke-linejoin="round"/>
<path d="M225.146 228.035L216.98 289.191C216.955 289.383 216.971 289.578 217.028 289.762C217.084 289.947 217.179 290.118 217.307 290.263C217.434 290.408 217.592 290.524 217.768 290.603C217.944 290.683 218.135 290.723 218.328 290.723C218.645 290.723 218.952 290.613 219.196 290.41C219.439 290.208 219.605 289.926 219.662 289.615L230.828 228.508L225.146 228.035Z" fill="white" stroke="#263238" stroke-linecap="round" stroke-linejoin="round"/>
<path d="M265.728 158.063H214.721C214.721 158.063 213.309 170.062 214.093 180.331C214.876 190.6 216.619 203.699 216.302 212.091C215.984 220.483 211.248 225.042 211.248 225.042H199.878C199.609 225.041 199.342 225.094 199.093 225.196C198.843 225.299 198.617 225.449 198.426 225.639C198.235 225.829 198.084 226.055 197.981 226.304C197.877 226.553 197.824 226.82 197.824 227.089C197.824 227.359 197.877 227.626 197.981 227.875C198.084 228.124 198.235 228.351 198.426 228.541C198.616 228.732 198.843 228.883 199.092 228.987C199.341 229.09 199.608 229.143 199.878 229.143H261.281C265.003 223.139 266.819 216.148 266.49 209.092C266.017 197.093 261.281 183.507 262.855 173.873C264.429 164.239 265.728 158.063 265.728 158.063Z" fill="#FF6359" stroke="#263238" stroke-linecap="round" stroke-linejoin="round"/>
<path d="M252.226 84.725C252.226 84.725 249.071 85.9884 248.909 88.9598C248.746 91.9311 247.808 102.221 244.018 108.065C240.228 113.909 244.018 123.226 253.334 124.644C262.65 126.063 270.231 112.011 266.744 97.4857C263.257 82.9606 255.388 83.4617 252.226 84.725Z" fill="#263238" stroke="#263238" stroke-linecap="round" stroke-linejoin="round"/>
<path d="M0 290.723H308.662" stroke="#263238" stroke-linecap="round" stroke-linejoin="round"/>
</g>
<defs>
<clipPath id="clip0">
<rect width="303" height="303" fill="white"/>
</clipPath>
</defs>
</svg>
