<svg width="353" height="353" viewBox="0 0 353 353" fill="none" xmlns="http://www.w3.org/2000/svg">
<path d="M132.234 319.056C132.234 319.056 188.897 335.569 239.644 302.768C290.392 269.967 311.522 208.531 330.012 159.245C348.503 109.959 330.217 61.542 286.946 41.0751C243.676 20.6081 219.065 54.8633 161.674 59.1346C104.283 63.4059 87.9462 56.0634 43.3411 90.0785C-1.26394 124.094 -2.42884 199.586 40.7925 253.454C84.0138 307.322 132.234 319.056 132.234 319.056Z" fill="#F6F7FA"/>
<path opacity="0.7" d="M132.234 319.056C132.234 319.056 188.897 335.569 239.644 302.768C290.392 269.967 311.522 208.531 330.012 159.245C348.503 109.959 330.217 61.542 286.946 41.0751C243.676 20.6081 219.065 54.8633 161.674 59.1346C104.283 63.4059 87.9462 56.0634 43.3411 90.0785C-1.26394 124.094 -2.42884 199.586 40.7925 253.454C84.0138 307.322 132.234 319.056 132.234 319.056Z" fill="#F6F7FA"/>
<path d="M210.805 102.867C227.554 86.1179 227.554 58.9617 210.805 42.2123C194.055 25.4629 166.899 25.4629 150.15 42.2123C133.4 58.9617 133.4 86.1179 150.15 102.867C166.899 119.617 194.055 119.617 210.805 102.867Z" fill="white" stroke="#263238" stroke-linecap="round" stroke-linejoin="round"/>
<path d="M217.285 74.3841L217.363 72.8944C218.351 73.8193 219.347 74.8077 220.328 75.8808C220.328 76.1491 220.328 76.4173 220.286 76.6856L220.166 77.4834C219.274 76.3886 218.312 75.3533 217.285 74.3841V74.3841Z" stroke="#263238" stroke-linecap="round" stroke-linejoin="round"/>
<path d="M216.742 79.2839L216.968 77.8083C217.413 78.3308 217.858 78.8744 218.295 79.4392C218.752 79.9985 219.176 80.583 219.566 81.1901L219.164 82.7503C218.782 82.1432 218.394 81.5501 218.006 80.9783L217.42 80.1311L216.742 79.2839Z" stroke="#263238" stroke-linecap="round" stroke-linejoin="round"/>
<path d="M215.521 84.0564C215.696 83.5968 215.838 83.1248 215.944 82.6444C216.726 83.814 217.422 85.0386 218.027 86.3086L217.469 87.8194C216.848 86.4921 216.198 85.2378 215.521 84.0564Z" stroke="#263238" stroke-linecap="round" stroke-linejoin="round"/>
<path d="M213.657 88.6101L214.3 87.2687C214.855 88.5065 215.382 89.8126 215.881 91.187C215.64 91.6714 215.374 92.1428 215.083 92.599C214.701 91.2378 214.225 89.9049 213.657 88.6101V88.6101Z" stroke="#263238" stroke-linecap="round" stroke-linejoin="round"/>
<path d="M211.242 92.9097L212.012 91.6318C212.455 92.9713 212.806 94.3394 213.064 95.7266L212.096 97.0186C211.849 95.5854 211.609 94.244 211.242 92.9097Z" stroke="#263238" stroke-linecap="round" stroke-linejoin="round"/>
<path d="M208.228 96.8069C208.573 96.451 208.898 96.0763 209.202 95.6843C209.437 97.0653 209.595 98.4583 209.675 99.8568C209.301 100.245 208.969 100.669 208.566 101.036C208.538 99.6026 208.39 98.1341 208.228 96.8069Z" stroke="#263238" stroke-linecap="round" stroke-linejoin="round"/>
<path d="M204.74 100.294L205.841 99.2917C205.877 100.654 205.877 102.116 205.785 103.528L204.5 104.488C204.585 103.782 204.648 103.076 204.705 102.37C204.761 101.664 204.74 100.958 204.74 100.294Z" stroke="#263238" stroke-linecap="round" stroke-linejoin="round"/>
<path d="M200.843 103.302C201.26 103.033 201.663 102.744 202.05 102.434C201.987 103.14 201.93 103.846 201.817 104.552C201.704 105.258 201.57 105.914 201.422 106.613L200.01 107.453C200.377 106.02 200.638 104.643 200.843 103.302Z" stroke="#263238" stroke-linecap="round" stroke-linejoin="round"/>
<path d="M196.551 105.716L197.892 105.074C197.567 106.387 197.17 107.733 196.699 109.112C196.459 109.225 196.219 109.352 195.993 109.451L195.23 109.727C195.764 108.422 196.205 107.082 196.551 105.716Z" stroke="#263238" stroke-linecap="round" stroke-linejoin="round"/>
<path d="M191.99 107.587L193.402 107.072C193.162 107.722 192.9 108.371 192.618 109.028L192.18 110.016L191.7 110.948L190.133 111.35C190.486 110.722 190.839 110.101 191.135 109.479C191.458 108.867 191.743 108.235 191.99 107.587V107.587Z" stroke="#263238" stroke-linecap="round" stroke-linejoin="round"/>
<path d="M187.217 108.802L187.958 108.689L188.664 108.498C188.008 109.738 187.267 110.932 186.447 112.07L184.845 112.318C185.725 111.131 186.516 109.959 187.217 108.802Z" stroke="#263238" stroke-linecap="round" stroke-linejoin="round"/>
<path d="M182.324 109.353L183.814 109.275C182.995 110.355 182.105 111.449 181.138 112.537C180.6 112.572 180.06 112.572 179.521 112.537C180.529 111.542 181.465 110.478 182.324 109.353Z" stroke="#263238" stroke-linecap="round" stroke-linejoin="round"/>
<path d="M177.396 109.289L178.886 109.366C178.406 109.861 177.912 110.355 177.396 110.849C176.89 111.348 176.357 111.819 175.801 112.261L174.205 112.014C174.777 111.576 175.321 111.131 175.85 110.687L176.634 109.981L177.396 109.289Z" stroke="#263238" stroke-linecap="round" stroke-linejoin="round"/>
<path d="M172.525 108.562C173.005 108.692 173.493 108.786 173.987 108.844C172.899 109.735 171.75 110.549 170.549 111.28L168.988 110.877C170.238 110.136 171.417 109.352 172.525 108.562Z" stroke="#263238" stroke-linecap="round" stroke-linejoin="round"/>
<path d="M167.802 107.164L169.214 107.679C168.042 108.357 166.797 109.009 165.479 109.635C164.974 109.451 164.481 109.234 164.004 108.985C165.311 108.468 166.58 107.859 167.802 107.164V107.164Z" stroke="#263238" stroke-linecap="round" stroke-linejoin="round"/>
<path d="M163.291 105.194L164.633 105.843C163.343 106.415 162.018 106.901 160.665 107.298L159.253 106.458C159.959 106.274 160.63 106.083 161.293 105.879C161.957 105.674 162.628 105.469 163.291 105.194Z" stroke="#263238" stroke-linecap="round" stroke-linejoin="round"/>
<path d="M159.104 102.589C159.489 102.902 159.897 103.185 160.325 103.436C159.66 103.642 158.984 103.809 158.299 103.937C157.593 104.079 156.923 104.213 156.217 104.326C155.786 104.001 155.348 103.69 154.932 103.351C156.372 103.161 157.777 102.892 159.104 102.589Z" stroke="#263238" stroke-linecap="round" stroke-linejoin="round"/>
<path d="M155.32 99.4683L156.421 100.471C155.075 100.65 153.663 100.772 152.185 100.838L151.084 99.6448C151.79 99.6448 152.496 99.6448 153.202 99.6448C153.908 99.6448 154.614 99.5459 155.32 99.4683Z" stroke="#263238" stroke-linecap="round" stroke-linejoin="round"/>
<path d="M151.903 95.889C152.214 96.2773 152.567 96.6303 152.891 97.0044C152.185 97.0044 151.479 97.0044 150.773 97.0044C150.067 97.0044 149.361 96.8915 148.655 96.8138L147.695 95.5219C149.15 95.696 150.552 95.8184 151.903 95.889Z" stroke="#263238" stroke-linecap="round" stroke-linejoin="round"/>
<path d="M149.072 91.8577L149.841 93.1285C148.507 92.9308 147.13 92.6767 145.718 92.3449L145.301 91.6389L144.941 90.9329L145.951 91.2223L147.003 91.4624C147.702 91.6106 148.394 91.7801 149.072 91.8577Z" stroke="#263238" stroke-linecap="round" stroke-linejoin="round"/>
<path d="M146.757 87.544L147.406 88.8855C146.743 88.7019 146.072 88.5113 145.387 88.2924C144.706 88.0932 144.037 87.8575 143.382 87.5864L142.824 86.0756C143.481 86.358 144.137 86.6333 144.78 86.8804L145.74 87.2475L146.757 87.544Z" stroke="#263238" stroke-linecap="round" stroke-linejoin="round"/>
<path d="M145.062 82.8845C145.132 83.1245 145.175 83.3645 145.259 83.5905L145.513 84.2965C144.211 83.7686 142.946 83.1506 141.729 82.4467L141.334 80.8865C142.612 81.6278 143.84 82.2914 145.062 82.8845Z" stroke="#263238" stroke-linecap="round" stroke-linejoin="round"/>
<path d="M144.024 78.0695L144.25 79.538C143.092 78.8414 141.916 78.0624 140.72 77.2011C140.634 76.6711 140.587 76.1354 140.579 75.5985C141.668 76.5022 142.819 77.3279 144.024 78.0695V78.0695Z" stroke="#263238" stroke-linecap="round" stroke-linejoin="round"/>
<path d="M143.6 73.1627L143.671 74.6453C143.134 74.2217 142.59 73.7769 142.047 73.318L141.228 72.612C140.967 72.372 140.727 72.1249 140.479 71.906L140.557 70.2893C141.051 70.8117 141.546 71.3201 142.047 71.8001L142.788 72.5061C143.049 72.7179 143.318 72.9368 143.6 73.1627Z" stroke="#263238" stroke-linecap="round" stroke-linejoin="round"/>
<path d="M143.84 68.2349C143.759 68.725 143.717 69.2208 143.713 69.7175C142.712 68.7297 141.785 67.6702 140.938 66.5476L141.2 64.952C142.054 66.124 142.944 67.2183 143.84 68.2349Z" stroke="#263238" stroke-linecap="round" stroke-linejoin="round"/>
<path d="M144.73 63.3988L144.356 64.8108C143.565 63.7165 142.788 62.5445 142.04 61.2808C142.111 61.0196 142.167 60.7583 142.252 60.5042L142.527 59.7417C143.174 61.011 143.911 62.2331 144.73 63.3988V63.3988Z" stroke="#263238" stroke-linecap="round" stroke-linejoin="round"/>
<path d="M146.269 58.711L145.761 60.123C145.429 59.5229 145.097 58.9016 144.78 58.2591L144.307 57.2919L143.904 56.3176L144.61 54.8633C144.857 55.5693 145.119 56.1976 145.387 56.833C145.65 57.4733 145.944 58.1001 146.269 58.711V58.711Z" stroke="#263238" stroke-linecap="round" stroke-linejoin="round"/>
<path d="M148.429 54.2843L148.041 54.9197L147.716 55.5904L147.321 54.602L147.003 53.656C146.798 52.9923 146.601 52.3146 146.417 51.6227L147.257 50.2107C147.603 51.6298 147.998 52.9923 148.429 54.2843Z" stroke="#263238" stroke-linecap="round" stroke-linejoin="round"/>
<path d="M151.162 50.1825L150.265 51.3756C149.959 50.0483 149.7 48.6599 149.488 47.2102C149.82 46.7937 150.194 46.4124 150.561 46.01C150.618 46.716 150.681 47.422 150.773 48.128C150.865 48.834 151.02 49.5047 151.162 50.1825Z" stroke="#263238" stroke-linecap="round" stroke-linejoin="round"/>
<path d="M154.374 46.4477L153.372 47.5491C153.294 46.8431 153.231 46.1371 153.181 45.4311C153.132 44.7251 153.181 44.0191 153.181 43.3131L154.374 42.2258C154.313 43.6943 154.313 45.1016 154.374 46.4477Z" stroke="#263238" stroke-linecap="round" stroke-linejoin="round"/>
<path d="M158.144 43.2284C157.749 43.532 157.346 43.8144 156.958 44.1321C157.007 42.7695 157.142 41.3858 157.325 39.9455C157.749 39.6132 158.192 39.3067 158.652 39.0277C158.509 39.7276 158.403 40.4346 158.335 41.1457C158.222 41.8517 158.144 42.5436 158.144 43.2284Z" stroke="#263238" stroke-linecap="round" stroke-linejoin="round"/>
<path d="M162.21 40.4961L160.939 41.2727C161.052 40.5667 161.179 39.9101 161.321 39.2112C161.462 38.5123 161.624 37.7992 161.836 37.1356L163.29 36.4296C162.838 37.7589 162.477 39.1176 162.21 40.4961Z" stroke="#263238" stroke-linecap="round" stroke-linejoin="round"/>
<path d="M166.616 38.3428C166.147 38.5053 165.691 38.7036 165.253 38.9358C165.644 37.5876 166.13 36.2688 166.707 34.9893L168.225 34.4315C167.632 35.7588 167.103 37.0649 166.616 38.3428Z" stroke="#263238" stroke-linecap="round" stroke-linejoin="round"/>
<path d="M171.325 36.8249L169.913 37.1921C170.497 35.973 171.156 34.7328 171.89 33.4714C172.41 33.3349 172.938 33.2335 173.471 33.1678C172.67 34.3346 171.953 35.5567 171.325 36.8249V36.8249Z" stroke="#263238" stroke-linecap="round" stroke-linejoin="round"/>
<path d="M176.161 35.9072L174.692 36.1331C175.06 35.5471 175.448 34.9682 175.85 34.3752L176.479 33.4927L177.135 32.6808L178.752 32.5961C178.279 33.1397 177.827 33.6904 177.396 34.2269C176.956 34.7654 176.543 35.3262 176.161 35.9072V35.9072Z" stroke="#263238" stroke-linecap="round" stroke-linejoin="round"/>
<path d="M181.082 35.6672C180.589 35.6248 180.093 35.6248 179.6 35.6672C180.486 34.5763 181.448 33.55 182.48 32.5961L184.09 32.6808C183.017 33.6786 182.014 34.6741 181.082 35.6672Z" stroke="#263238" stroke-linecap="round" stroke-linejoin="round"/>
<path d="M185.996 36.0907L184.521 35.8648C185.537 34.9752 186.639 34.0856 187.789 33.2102L188.587 33.3373L189.371 33.542C188.187 34.3111 187.06 35.1627 185.996 36.0907V36.0907Z" stroke="#263238" stroke-linecap="round" stroke-linejoin="round"/>
<path d="M190.81 37.1285L189.398 36.7614C189.963 36.366 190.549 35.9848 191.149 35.5965C191.749 35.2082 192.378 34.834 192.992 34.5304L194.51 35.0811C193.867 35.3988 193.239 35.7235 192.632 36.0554L191.728 36.5566L190.81 37.1285Z" stroke="#263238" stroke-linecap="round" stroke-linejoin="round"/>
<path d="M195.435 38.83C195.209 38.7241 194.991 38.6041 194.765 38.5123L194.059 38.2581C195.3 37.6048 196.586 37.0386 197.906 36.5637L199.361 37.2697C197.991 37.7498 196.683 38.2699 195.435 38.83Z" stroke="#263238" stroke-linecap="round" stroke-linejoin="round"/>
<path d="M199.798 41.1315L198.527 40.362C199.812 39.9243 201.165 39.5289 202.587 39.1759C203.053 39.4512 203.455 39.8042 203.893 40.1149C203.187 40.249 202.523 40.369 201.831 40.5455C201.14 40.722 200.448 40.948 199.798 41.1315Z" stroke="#263238" stroke-linecap="round" stroke-linejoin="round"/>
<path d="M203.815 43.9626L202.622 43.0659C203.328 42.9247 203.992 42.7906 204.705 42.6706C205.418 42.5506 206.081 42.5011 206.823 42.4305L208.016 43.5178C206.547 43.6237 205.171 43.7719 203.815 43.9626Z" stroke="#263238" stroke-linecap="round" stroke-linejoin="round"/>
<path d="M207.395 47.3515C207.056 46.9985 206.745 46.6032 206.378 46.2714C207.776 46.1814 209.178 46.1626 210.579 46.2149C210.952 46.6044 211.303 47.0145 211.631 47.4433C210.221 47.3356 208.807 47.305 207.395 47.3515V47.3515Z" stroke="#263238" stroke-linecap="round" stroke-linejoin="round"/>
<path d="M210.523 51.1639L209.626 49.9707C211.045 50.056 212.459 50.2162 213.862 50.4508L214.702 51.8628C213.326 51.5349 211.93 51.3014 210.523 51.1639V51.1639Z" stroke="#263238" stroke-linecap="round" stroke-linejoin="round"/>
<path d="M213.12 55.3504C212.901 54.9045 212.653 54.473 212.379 54.0585C213.762 54.311 215.125 54.6601 216.46 55.1033L217.166 56.5648C215.782 56.0847 214.433 55.6799 213.12 55.3504Z" stroke="#263238" stroke-linecap="round" stroke-linejoin="round"/>
<path d="M215.097 59.8617L214.582 58.4497C215.858 58.9204 217.159 59.4499 218.486 60.0382C218.677 60.5414 218.831 61.0582 218.945 61.5843C217.704 60.9215 216.418 60.3459 215.097 59.8617V59.8617Z" stroke="#263238" stroke-linecap="round" stroke-linejoin="round"/>
<path d="M216.495 64.585L216.121 63.173C216.742 63.4766 217.364 63.8084 217.985 64.1543L218.924 64.6838L219.799 65.2627L220.046 66.8583C219.463 66.4394 218.877 66.044 218.288 65.6722C217.711 65.2776 217.112 64.9147 216.495 64.585Z" stroke="#263238" stroke-linecap="round" stroke-linejoin="round"/>
<path d="M217.222 69.4562C217.222 69.2091 217.222 68.962 217.179 68.7502L217.066 68.0442C218.236 68.8185 219.35 69.6749 220.399 70.607L220.476 72.2166C219.399 71.2 218.314 70.2799 217.222 69.4562Z" stroke="#263238" stroke-linecap="round" stroke-linejoin="round"/>
<path d="M180.157 60.9561L173.761 94.0392" stroke="#263238" stroke-miterlimit="10"/>
<path d="M187.181 94.0392L180.792 60.9561" stroke="#263238" stroke-miterlimit="10"/>
<path d="M190.825 94.0392L184.075 59.1063" stroke="#263238" stroke-miterlimit="10"/>
<path d="M178.081 52.8512L179.832 43.7579" stroke="#263238" stroke-miterlimit="10"/>
<path d="M181.11 43.7579L182.868 52.8512" stroke="#263238" stroke-miterlimit="10"/>
<path d="M170.118 94.0392L176.868 59.1063" stroke="#263238" stroke-miterlimit="10"/>
<path d="M157.361 57.4048H157.128C156.917 57.4029 156.715 57.3183 156.566 57.1691C156.417 57.0198 156.332 56.818 156.33 56.607V56.4799C156.332 56.2689 156.417 56.067 156.566 55.9178C156.715 55.7686 156.917 55.684 157.128 55.6821H176.14" stroke="#263238" stroke-miterlimit="10"/>
<path d="M157.36 57.4048H176.14" stroke="#263238" stroke-miterlimit="10"/>
<path d="M203.102 57.4048H184.803" stroke="#263238" stroke-miterlimit="10"/>
<path d="M203.102 57.4048H203.808C204.019 57.4029 204.221 57.3183 204.37 57.1691C204.52 57.0198 204.604 56.818 204.606 56.607V56.4799C204.604 56.2689 204.52 56.067 204.37 55.9178C204.221 55.7686 204.019 55.684 203.808 55.6821H184.803" stroke="#263238" stroke-miterlimit="10"/>
<path d="M190.825 94.0392H187.182" stroke="#263238" stroke-miterlimit="10"/>
<path d="M170.118 94.0392H173.761" stroke="#263238" stroke-miterlimit="10"/>
<path d="M170.118 94.0392H161.236V99.3342H199.713V94.0392H190.825" stroke="#263238" stroke-miterlimit="10"/>
<path d="M173.761 94.0392H187.182" stroke="#263238" stroke-miterlimit="10"/>
<path d="M184.803 57.4048C184.916 56.8457 184.916 56.2696 184.803 55.7104" stroke="#263238" stroke-miterlimit="10"/>
<path d="M180.157 60.9561H180.475H180.793" stroke="#263238" stroke-miterlimit="10"/>
<path d="M178.081 52.8512C177.585 53.1683 177.158 53.5816 176.825 54.0667C176.491 54.5517 176.258 55.0987 176.14 55.6752" stroke="#263238" stroke-miterlimit="10"/>
<path d="M178.081 52.8512C178.792 52.3856 179.624 52.1376 180.474 52.1376C181.325 52.1376 182.156 52.3856 182.868 52.8512" stroke="#263238" stroke-miterlimit="10"/>
<path d="M184.803 55.7105C184.686 55.1342 184.454 54.5873 184.122 54.1022C183.79 53.6171 183.363 53.2037 182.868 52.8865" stroke="#263238" stroke-miterlimit="10"/>
<path d="M176.867 59.1063C176.515 58.5951 176.274 58.0153 176.161 57.4048" stroke="#263238" stroke-miterlimit="10"/>
<path d="M180.792 60.956C181.442 60.9092 182.073 60.7191 182.641 60.3992C183.208 60.0794 183.698 59.6379 184.075 59.1063" stroke="#263238" stroke-miterlimit="10"/>
<path d="M176.14 57.4048C176.027 56.8457 176.027 56.2696 176.14 55.7104" stroke="#263238" stroke-miterlimit="10"/>
<path d="M184.075 59.1063C184.428 58.5951 184.668 58.0153 184.781 57.4048" stroke="#263238" stroke-miterlimit="10"/>
<path d="M180.157 60.956C179.506 60.9093 178.874 60.7192 178.305 60.3994C177.736 60.0796 177.245 59.6381 176.867 59.1063" stroke="#263238" stroke-miterlimit="10"/>
<path d="M181.11 43.7721C180.693 43.8943 180.249 43.8943 179.832 43.7721" stroke="#263238" stroke-miterlimit="10"/>
<path d="M181.11 43.772C181.709 43.6165 182.23 43.2483 182.576 42.7362C182.923 42.2241 183.071 41.6032 182.992 40.9899C182.914 40.3766 182.615 39.8129 182.151 39.4043C181.687 38.9958 181.09 38.7704 180.471 38.7704C179.853 38.7704 179.256 38.9958 178.792 39.4043C178.328 39.8129 178.029 40.3766 177.95 40.9899C177.872 41.6032 178.02 42.2241 178.366 42.7362C178.713 43.2483 179.234 43.6165 179.832 43.772" stroke="#263238" stroke-miterlimit="10"/>
<path d="M163.079 73.7063L157.36 57.4048" stroke="#263238" stroke-miterlimit="10"/>
<path d="M157.36 57.4048L151.642 73.7063" stroke="#263238" stroke-miterlimit="10"/>
<path d="M150.293 73.9182C150.611 75.5306 151.479 76.9826 152.749 78.0262C154.018 79.0698 155.611 79.6404 157.254 79.6404C158.898 79.6404 160.49 79.0698 161.76 78.0262C163.029 76.9826 163.897 75.5306 164.215 73.9182H150.293Z" stroke="#263238" stroke-miterlimit="10"/>
<path d="M203.103 57.4048L208.821 73.7063" stroke="#263238" stroke-miterlimit="10"/>
<path d="M203.102 57.4048L197.384 73.7063" stroke="#263238" stroke-miterlimit="10"/>
<path d="M202.996 79.6368C204.64 79.6421 206.234 79.0738 207.503 78.0299C208.773 76.986 209.638 75.5318 209.95 73.9182H196.035C196.354 75.53 197.222 76.9811 198.492 78.024C199.761 79.067 201.353 79.637 202.996 79.6368Z" stroke="#263238" stroke-miterlimit="10"/>
<path d="M61.4995 96.1996H59.1133V278.934H61.4995V96.1996Z" fill="#263238" stroke="#263238" stroke-linecap="round" stroke-linejoin="round"/>
<path d="M82.3475 278.933L60.1861 101.692L43.3975 278.933H82.3475Z" fill="#FF6359" stroke="#263238" stroke-linecap="round" stroke-linejoin="round"/>
<path d="M82.1565 278.934L75.5978 225.165L49.8076 266.734L67.0623 278.934H82.1565Z" fill="#FF6359" stroke="#263238" stroke-linecap="round" stroke-linejoin="round"/>
<path d="M82.7425 247.404L49.8076 266.734L60.1858 101.692L82.7425 247.404Z" fill="#FF6359" stroke="#263238" stroke-linecap="round" stroke-linejoin="round"/>
<path d="M60.1865 101.692L82.7432 247.403L65.2062 235.592L60.1865 101.692Z" fill="#FF6359" stroke="#263238" stroke-linecap="round" stroke-linejoin="round"/>
<path d="M65.2056 235.592L73.4376 221.628L63.7725 204.083L65.2056 235.592Z" fill="#FF6359" stroke="#263238" stroke-linecap="round" stroke-linejoin="round"/>
<path d="M60.1861 101.692L46.2285 205.156L73.4377 221.627L60.1861 101.692Z" fill="#FF6359" stroke="#263238" stroke-linecap="round" stroke-linejoin="round"/>
<path d="M59.1131 96.1995L56.042 90.7845L60.4686 82.1078L64.8952 91.1446L61.4994 96.1995H59.1131Z" fill="white" stroke="#263238" stroke-linecap="round" stroke-linejoin="round"/>
<path d="M294.013 96.1996H291.627V278.934H294.013V96.1996Z" fill="#263238" stroke="#263238" stroke-linecap="round" stroke-linejoin="round"/>
<path d="M314.861 278.933L292.7 101.692L275.911 278.933H314.861Z" fill="#FF6359" stroke="#263238" stroke-linecap="round" stroke-linejoin="round"/>
<path d="M314.671 278.934L308.112 225.165L282.322 266.734L299.577 278.934H314.671Z" fill="#FF6359" stroke="#263238" stroke-linecap="round" stroke-linejoin="round"/>
<path d="M315.257 247.404L282.322 266.734L292.7 101.692L315.257 247.404Z" fill="#FF6359" stroke="#263238" stroke-linecap="round" stroke-linejoin="round"/>
<path d="M292.7 101.692L315.257 247.403L297.713 235.592L292.7 101.692Z" fill="#FF6359" stroke="#263238" stroke-linecap="round" stroke-linejoin="round"/>
<path d="M297.713 235.592L305.952 221.628L296.287 204.083L297.713 235.592Z" fill="#FF6359" stroke="#263238" stroke-linecap="round" stroke-linejoin="round"/>
<path d="M292.7 101.692L278.742 205.156L305.951 221.627L292.7 101.692Z" fill="#FF6359" stroke="#263238" stroke-linecap="round" stroke-linejoin="round"/>
<path d="M291.627 96.1995L288.556 90.7845L292.982 82.1078L297.409 91.1446L294.013 96.1995H291.627Z" fill="white" stroke="#263238" stroke-linecap="round" stroke-linejoin="round"/>
<path d="M138.926 142.986C138.926 142.986 128.336 137.776 122.942 146.996C117.548 156.217 121.156 230.82 121.156 230.82H135.834L138.926 142.986Z" fill="#8F8F8F" stroke="#263238" stroke-linecap="round" stroke-linejoin="round"/>
<path d="M224.882 142.986C224.882 142.986 235.472 137.776 240.866 146.996C246.26 156.217 242.652 230.82 242.652 230.82H227.974L224.882 142.986Z" fill="#8F8F8F" stroke="#263238" stroke-linecap="round" stroke-linejoin="round"/>
<path d="M138.926 142.986H226.548C229.273 142.986 231.49 145.401 231.624 148.451L234.646 231.618H130.821L133.843 148.451C133.956 145.436 136.194 142.986 138.926 142.986Z" fill="#8F8F8F" stroke="#263238" stroke-linecap="round" stroke-linejoin="round"/>
<path d="M170.343 176.662C170.343 176.662 145.104 191.326 137.945 195.28C130.786 199.233 125.767 201.21 125.767 204.034V277.063H239.616C239.616 277.063 237.293 204.945 236.573 202.982C235.853 201.019 197.376 176.662 195.046 175.949C192.717 175.236 170.343 176.662 170.343 176.662Z" fill="#263238" stroke="#263238" stroke-linecap="round" stroke-linejoin="round"/>
<path d="M234.603 203.519C234.603 203.519 236.573 201.726 238.366 204.592C240.159 207.458 256.983 242.539 257.343 245.942C257.704 249.345 255.931 249.345 256.637 251.492C257.343 253.638 263.98 265.612 262.907 269.036C261.834 272.46 257.492 276.872 255.706 277.049C253.919 277.225 217.582 277.049 217.582 277.049C214.876 276.412 212.445 274.928 210.642 272.813C207.952 269.41 200.793 259.928 200.793 258.311C200.793 256.695 208.672 250.976 210.282 249.183C211.891 247.39 216.904 247.573 217.624 247.065C218.344 246.557 227.268 225.92 229.449 220.519C230.807 217.065 231.943 213.528 232.852 209.929" fill="#263238"/>
<path d="M234.603 203.519C234.603 203.519 236.573 201.726 238.366 204.592C240.159 207.458 256.983 242.539 257.343 245.942C257.704 249.345 255.931 249.345 256.637 251.492C257.343 253.638 263.98 265.612 262.907 269.036C261.834 272.46 257.492 276.872 255.706 277.049C253.919 277.225 217.582 277.049 217.582 277.049C214.876 276.412 212.445 274.928 210.642 272.813C207.952 269.41 200.793 259.928 200.793 258.311C200.793 256.695 208.672 250.976 210.282 249.183C211.891 247.39 216.904 247.573 217.624 247.065C218.344 246.557 227.268 225.92 229.449 220.519C230.807 217.065 231.943 213.528 232.852 209.929" stroke="#263238" stroke-linecap="round" stroke-linejoin="round"/>
<path d="M210.621 272.792C210.621 272.792 198.117 259.582 200.737 256.186C203.356 252.791 215.443 247.517 215.443 247.517L230.149 214.335" stroke="#808080" stroke-linecap="round" stroke-linejoin="round"/>
<path d="M217.603 247.015C217.603 247.015 222.255 248.985 224.585 250.955C226.915 252.925 242.842 258.474 252.331 258.65" stroke="#808080" stroke-linecap="round" stroke-linejoin="round"/>
<path d="M224.762 246.479C224.762 246.479 239.079 249.522 251.971 242.716" stroke="#808080" stroke-linecap="round" stroke-linejoin="round"/>
<path d="M234.603 210.678C234.603 210.678 232.817 226.069 231.384 231.265" stroke="#808080" stroke-linecap="round" stroke-linejoin="round"/>
<path d="M238.543 212.464C238.903 213 242.843 228.575 242.843 234.66" stroke="#808080" stroke-linecap="round" stroke-linejoin="round"/>
<path d="M131.499 198.859C131.499 198.859 123.98 201.012 122.371 203.335C120.761 205.658 105.54 225.355 104.29 228.398C103.04 231.441 107.686 241.812 107.686 243.612C107.686 245.413 92.4857 266.346 94.0812 270.822C95.6768 275.298 101.247 276.907 101.247 276.907H153.908C153.908 276.907 158.024 268.499 162.323 265.456C166.623 262.413 168.769 263.126 169.842 261.517C170.915 259.907 169.482 257.041 165.903 255.247C162.323 253.454 152.298 249.698 152.298 249.698C152.298 249.698 154.804 248.089 153.004 246.839C151.204 245.589 144.235 242.179 143.522 241.106C142.809 240.033 136.004 222.136 133.85 213.537" fill="#263238"/>
<path d="M131.499 198.859C131.499 198.859 123.98 201.012 122.371 203.335C120.761 205.658 105.54 225.355 104.29 228.398C103.04 231.441 107.686 241.812 107.686 243.612C107.686 245.413 92.4857 266.346 94.0812 270.822C95.6768 275.298 101.247 276.907 101.247 276.907H153.908C153.908 276.907 158.024 268.499 162.323 265.456C166.623 262.413 168.769 263.126 169.842 261.517C170.915 259.907 169.482 257.041 165.903 255.247C162.323 253.454 152.298 249.698 152.298 249.698C152.298 249.698 154.804 248.089 153.004 246.839C151.204 245.589 144.235 242.179 143.522 241.106C142.809 240.033 136.004 222.136 133.85 213.537" stroke="#263238" stroke-linecap="round" stroke-linejoin="round"/>
<path d="M168.331 261.842C168.331 261.842 173.061 258.636 169.468 256.942C165.874 255.247 153.632 250.531 153.632 250.531C153.632 250.531 156.265 247.136 154.38 246.387C152.495 245.639 143.494 241.106 143.494 241.106L132.516 209.809" stroke="#808080" stroke-linecap="round" stroke-linejoin="round"/>
<path d="M108.942 232.514C108.942 232.514 134.182 239.32 130.242 239.857C126.303 240.393 114.315 239.857 112.882 240.21" stroke="#808080" stroke-linecap="round" stroke-linejoin="round"/>
<path d="M150.293 247.015C150.293 247.015 123.465 251.851 125.583 252.388C127.701 252.925 149.389 250.235 149.389 250.235" stroke="#808080" stroke-linecap="round" stroke-linejoin="round"/>
<path d="M127.736 208.348C127.736 208.348 125.413 227.325 125.413 231.978" stroke="#808080" stroke-linecap="round" stroke-linejoin="round"/>
<path d="M125.054 207.811C125.054 207.811 119.865 219.446 119.328 224.282" stroke="#808080" stroke-linecap="round" stroke-linejoin="round"/>
<path d="M139.555 208.171H174.459" stroke="#808080" stroke-linecap="round" stroke-linejoin="round"/>
<path d="M198.449 208.348H227.445" stroke="#808080" stroke-linecap="round" stroke-linejoin="round"/>
<path d="M181.802 218.733L177.679 250.955" stroke="#808080" stroke-linecap="round" stroke-linejoin="round"/>
<path d="M183.588 223.746V250.955" stroke="#808080" stroke-linecap="round" stroke-linejoin="round"/>
<path d="M186.991 218.733L190.394 252.924" stroke="#808080" stroke-linecap="round" stroke-linejoin="round"/>
<path d="M168.833 171.375C168.833 171.375 168.127 186.518 169.758 193.719C171.388 200.921 182.148 219.566 185.085 217.173C188.022 214.779 198.195 194.644 198.562 189.476C198.929 184.308 198.753 171.375 198.753 171.375C198.753 171.375 188.594 177.651 181.76 175.992C177.315 174.862 172.987 173.316 168.833 171.375Z" fill="white" stroke="#263238" stroke-linecap="round" stroke-linejoin="round"/>
<path d="M168.685 176.775C172.095 179.818 176.655 182.734 178.336 183.073C180.877 183.581 187.231 183.518 189.264 182.508C192.58 180.817 195.766 178.882 198.795 176.719C198.795 173.676 198.753 171.375 198.753 171.375C198.753 171.375 188.594 177.651 181.76 175.992C177.315 174.862 172.987 173.316 168.833 171.375C168.833 171.375 168.734 173.613 168.685 176.775Z" fill="#263238" stroke="#263238" stroke-linecap="round" stroke-linejoin="round"/>
<path d="M198.795 179.458C196.797 183.906 190.69 195.986 183.602 195.386C177.354 194.849 171.6 186.843 168.698 182.198C168.783 186.299 169.058 190.705 169.757 193.719C171.416 200.921 182.126 219.573 185.085 217.173C188.043 214.772 198.195 194.644 198.562 189.476C198.731 187.09 198.788 183.094 198.795 179.458Z" fill="white" stroke="#263238" stroke-linecap="round" stroke-linejoin="round"/>
<path d="M184.159 195.838C183.736 195.887 184.032 195.421 183.602 195.386C183.171 195.35 183.489 195.823 183.115 195.746L178.617 200.921L182.31 205.538L179.175 210.346C179.175 210.346 178.808 210.819 178.427 211.355C181.187 215.422 183.828 218.197 185.084 217.173C186.179 216.283 188.261 212.937 190.471 208.863L186.56 205.729L189.144 201.493L184.159 195.838Z" fill="#FF6359" stroke="#263238" stroke-linecap="round" stroke-linejoin="round"/>
<path d="M175.108 204.804L183.602 195.385L192.652 204.804" stroke="#263238" stroke-linecap="round" stroke-linejoin="round"/>
<path d="M164.865 154.847C164.865 154.847 163.065 151.409 161.42 151.557C159.775 151.705 157.826 154.381 160.071 158.892C162.316 163.404 164.561 163.234 164.71 161.441C164.858 159.648 164.865 154.847 164.865 154.847Z" fill="white" stroke="#263238" stroke-linecap="round" stroke-linejoin="round"/>
<path d="M160.685 157.586C160.685 157.586 159.746 153.668 161.631 154.056C163.516 154.445 165.006 157.431 165.006 157.431C165.006 157.431 161.024 153.703 160.685 157.586Z" fill="#263238"/>
<path d="M201.28 154.847C201.28 154.847 203.074 151.409 204.726 151.557C206.378 151.705 208.312 154.381 206.067 158.892C203.822 163.404 201.577 163.234 201.429 161.441C201.28 159.648 201.28 154.847 201.28 154.847Z" fill="white" stroke="#263238" stroke-linecap="round" stroke-linejoin="round"/>
<path d="M201.598 157.586C201.598 157.586 205.128 152.32 205.65 154.48C205.831 155.032 205.9 155.615 205.854 156.194C205.808 156.773 205.648 157.338 205.382 157.855C205.382 157.855 205.17 153.47 201.598 157.586Z" fill="#263238"/>
<path d="M166.164 133.815C166.164 133.815 163.121 165.028 164.9 168.84C166.679 172.652 175.801 179.049 178.314 179.557C180.827 180.065 187.21 180.002 189.243 178.992C191.276 177.983 201.167 172.638 202.184 169.602C203.2 166.567 200.158 137.366 198.887 133.596C197.616 129.826 189.243 127.242 181.625 127.242C174.007 127.242 166.926 131.528 166.164 133.815Z" fill="white" stroke="#263238" stroke-linecap="round" stroke-linejoin="round"/>
<path d="M169.348 135.552C169.348 135.552 175.426 142.76 182.663 144.342C189.899 145.923 197.489 143.127 197.489 143.127L169.348 135.552Z" fill="#263238" stroke="#263238" stroke-linecap="round" stroke-linejoin="round"/>
<path d="M186.122 148.112C186.122 148.112 184.922 151.557 184.922 152.002C184.922 152.447 185.522 158.892 185.522 158.892" stroke="#263238" stroke-linecap="round" stroke-linejoin="round"/>
<path d="M173.394 162.486C173.549 161.589 179.536 159.189 179.536 159.189C179.536 159.189 177.587 160.537 178.787 160.989C179.988 161.441 183.129 163.686 184.174 163.234C185.219 162.782 189.42 160.693 189.568 160.093C189.716 159.492 188.968 158.292 188.968 158.292C188.968 158.292 193.613 161.589 194.058 162.782" stroke="#263238" stroke-linecap="round" stroke-linejoin="round"/>
<path d="M178.936 145.719C178.936 145.719 174.897 143.474 172.801 144.97C170.704 146.467 171.149 147.364 171.749 147.364C172.349 147.364 173.394 146.015 174.742 146.015C176.091 146.015 178.491 147.364 178.936 145.719Z" fill="#DBDBDB" stroke="#263238" stroke-linecap="round" stroke-linejoin="round"/>
<path d="M186.673 145.719C186.673 145.719 190.711 143.474 192.808 144.97C194.905 146.467 194.46 147.364 193.86 147.364C193.26 147.364 192.208 146.015 190.866 146.015C189.525 146.015 187.089 147.364 186.673 145.719Z" fill="#DBDBDB" stroke="#263238" stroke-linecap="round" stroke-linejoin="round"/>
<path d="M175.419 154.247C176.039 154.247 176.542 153.511 176.542 152.602C176.542 151.694 176.039 150.957 175.419 150.957C174.799 150.957 174.297 151.694 174.297 152.602C174.297 153.511 174.799 154.247 175.419 154.247Z" fill="#263238"/>
<path d="M189.942 154.247C190.562 154.247 191.064 153.511 191.064 152.602C191.064 151.694 190.562 150.957 189.942 150.957C189.322 150.957 188.819 151.694 188.819 152.602C188.819 153.511 189.322 154.247 189.942 154.247Z" fill="#263238"/>
<path d="M174.445 163.686C174.445 163.686 176.239 165.804 177.269 166.228C178.3 166.651 187.153 166.976 189.843 166.376C190.602 166.218 191.295 165.833 191.829 165.272C192.364 164.71 192.715 164 192.837 163.234" stroke="#263238" stroke-linecap="round" stroke-linejoin="round"/>
<path d="M177.912 154.099C177.912 154.099 177.756 156.796 172.666 157.996" stroke="#263238" stroke-linecap="round" stroke-linejoin="round"/>
<path d="M188.071 154.402C188.071 154.402 189.794 156.852 194.136 157.156" stroke="#263238" stroke-linecap="round" stroke-linejoin="round"/>
<path d="M196.62 143.459C196.62 143.459 195.858 146.283 197.129 147.773C198.4 149.262 199.416 150.307 199.416 150.307C199.416 150.307 199.162 155.129 200.68 155.129C202.198 155.129 201.697 152.849 201.697 152.849L200.934 141.2L196.62 143.459Z" fill="#DBDBDB" stroke="#263238" stroke-linecap="round" stroke-linejoin="round"/>
<path d="M168.452 135.086C168.452 135.086 177.333 142.189 186.215 143.459C195.096 144.73 201.951 144.222 202.968 141.426C203.985 138.63 205.291 131.45 196.155 127.899C187.02 124.348 175.942 123.854 169.722 128.231C168.768 128.855 167.96 129.676 167.35 130.639C166.741 131.603 166.347 132.686 166.192 133.815C166.192 133.815 163.912 134.578 163.912 136.639V154.12H165.691C165.691 154.12 165.183 148.027 167.463 146.756C169.744 145.486 171.523 142.697 171.523 140.664C171.523 138.63 168.452 135.086 168.452 135.086Z" fill="#DBDBDB" stroke="#263238" stroke-linecap="round" stroke-linejoin="round"/>
<path d="M169.785 265.371C169.785 265.371 185.169 270.56 187.668 271.45C190.168 272.34 196.077 275.742 196.077 276.816C196.077 277.889 195.9 278.072 194.827 278.072H180.34C179.443 278.072 164.102 278.256 163.361 277.804C162.379 277.411 161.352 277.141 160.304 276.999C160.304 276.999 163.163 265.908 169.785 265.371Z" fill="white" stroke="#263238" stroke-linecap="round" stroke-linejoin="round"/>
<path d="M174.438 275.03C174.438 275.03 181.414 276.442 184.097 278.072L174.438 275.03Z" fill="white"/>
<path d="M174.438 275.03C174.438 275.03 181.414 276.442 184.097 278.072" stroke="#263238" stroke-linecap="round" stroke-linejoin="round"/>
<path d="M178.011 272.17C178.011 272.17 186.243 275.39 188.389 278.072L178.011 272.17Z" fill="white"/>
<path d="M178.011 272.17C178.011 272.17 186.243 275.39 188.389 278.072" stroke="#263238" stroke-linecap="round" stroke-linejoin="round"/>
<path d="M182.663 271.274C182.663 271.274 190.711 274.853 193.034 277.712L182.663 271.274Z" fill="white"/>
<path d="M182.663 271.274C182.663 271.274 190.711 274.853 193.034 277.712" stroke="#263238" stroke-linecap="round" stroke-linejoin="round"/>
<path d="M165.867 261.693L172.129 265.273C172.129 265.273 165.867 268.499 164.074 271.718C162.28 274.938 161.031 277.444 161.031 277.444H153.907C153.907 277.444 154.408 267.574 165.867 261.693Z" fill="white" stroke="#263238" stroke-linecap="round" stroke-linejoin="round"/>
<path d="M199.035 266.494C199.035 266.494 198.407 265.025 199.17 264.171C199.932 263.317 206.462 262.053 209.23 263.853C211.998 265.654 214.638 272.763 214.518 274.909C214.398 277.056 206.625 278.044 204.175 277.027C201.725 276.011 199.035 266.494 199.035 266.494Z" fill="white" stroke="#263238" stroke-linecap="round" stroke-linejoin="round"/>
<path d="M200.73 265.16L196.931 265.661C196.931 265.661 175.342 263.889 174.036 264.708C172.73 265.527 162.69 278.228 162.69 278.228L175.017 278.934C175.017 278.934 185.311 274.5 186.207 274.55C187.104 274.599 191.29 276.632 194.482 277.176C197.673 277.719 205.488 276.046 205.488 276.046C205.488 276.046 206.328 273.928 204.782 269.904C203.236 265.88 200.73 265.16 200.73 265.16Z" fill="white" stroke="#263238" stroke-linecap="round" stroke-linejoin="round"/>
<path d="M171.981 278.757C171.981 278.757 181.039 270.85 182.331 270.208L171.981 278.757Z" fill="white"/>
<path d="M171.981 278.757C171.981 278.757 181.039 270.85 182.331 270.208" stroke="#263238" stroke-linecap="round" stroke-linejoin="round"/>
<path d="M177.954 268.344L168.606 278.206" stroke="#263238" stroke-linecap="round" stroke-linejoin="round"/>
<path d="M174.452 266.889L165.189 278.369" stroke="#263238" stroke-linecap="round" stroke-linejoin="round"/>
<path d="M75.7185 263.048L104.58 274.697C104.944 274.844 105.24 275.122 105.409 275.476C105.579 275.83 105.611 276.235 105.498 276.611C105.432 276.827 105.321 277.026 105.171 277.195C105.022 277.364 104.837 277.499 104.631 277.59C104.424 277.681 104.2 277.726 103.975 277.723C103.749 277.72 103.527 277.668 103.323 277.571L75.4502 264.404L75.7185 263.048Z" fill="white" stroke="#263238" stroke-linecap="round" stroke-linejoin="round"/>
<path d="M63.9424 254.16H68.0089V272.728H63.9424C61.902 272.728 60.25 268.569 60.25 263.444C60.25 258.318 61.902 254.16 63.9424 254.16Z" fill="white" stroke="#263238" stroke-linecap="round" stroke-linejoin="round"/>
<path d="M68.0086 272.728C70.0439 272.728 71.6939 268.571 71.6939 263.444C71.6939 258.316 70.0439 254.16 68.0086 254.16C65.9732 254.16 64.3232 258.316 64.3232 263.444C64.3232 268.571 65.9732 272.728 68.0086 272.728Z" fill="white" stroke="#263238" stroke-linecap="round" stroke-linejoin="round"/>
<path d="M68.482 254.866H85.306V271.994H68.482C66.6041 271.994 65.0791 268.16 65.0791 263.43C65.0791 258.7 66.6182 254.866 68.482 254.866Z" fill="white" stroke="#263238" stroke-linecap="round" stroke-linejoin="round"/>
<path d="M81.8955 263.444C81.8955 268.174 83.4205 272.008 85.2984 272.008C87.1764 272.008 88.7013 268.174 88.7013 263.444C88.7013 258.714 87.1976 254.866 85.3196 254.866C83.4416 254.866 81.8955 258.714 81.8955 263.444Z" fill="white" stroke="#263238" stroke-linecap="round" stroke-linejoin="round"/>
<path d="M86.2796 254.16H90.3673V272.728H86.2937C84.2604 272.728 82.6084 268.569 82.6084 263.444C82.6084 258.318 84.2463 254.16 86.2796 254.16Z" fill="white" stroke="#263238" stroke-linecap="round" stroke-linejoin="round"/>
<path d="M90.3533 272.728C92.3886 272.728 94.0386 268.571 94.0386 263.444C94.0386 258.316 92.3886 254.16 90.3533 254.16C88.3179 254.16 86.668 258.316 86.668 263.444C86.668 268.571 88.3179 272.728 90.3533 272.728Z" fill="white" stroke="#263238" stroke-linecap="round" stroke-linejoin="round"/>
<path d="M96.1709 275.072H58.2587V274.733C58.2587 274.139 58.4945 273.57 58.9142 273.15C59.3339 272.73 59.9032 272.495 60.4967 272.495H93.9329C94.5264 272.495 95.0957 272.73 95.5154 273.15C95.9351 273.57 96.1709 274.139 96.1709 274.733V275.072Z" fill="white" stroke="#263238" stroke-linecap="round" stroke-linejoin="round"/>
<path d="M102.397 277.648H52.5962V277.295C52.5962 276.672 52.8439 276.074 53.2848 275.633C53.7257 275.192 54.3237 274.945 54.9472 274.945H100.046C100.67 274.945 101.268 275.192 101.709 275.633C102.15 276.074 102.397 276.672 102.397 277.295V277.648Z" fill="white" stroke="#263238" stroke-linecap="round" stroke-linejoin="round"/>
<path d="M327.365 282.089H24.1094V329.603H327.365V282.089Z" fill="white"/>
<path opacity="0.3" d="M317.163 284.087H38.5117V288.422H317.163V284.087Z" fill="black"/>
<path d="M334.072 277.324H19.9727V285.436H334.072V277.324Z" fill="#263238" stroke="#263238" stroke-linecap="round" stroke-linejoin="round"/>
<path d="M112.071 285.492H38.3926V293.435H112.071V285.492Z" stroke="#263238" stroke-linecap="round" stroke-linejoin="round"/>
<path d="M99.2846 301.378H51.1848L45.1768 293.435H105.293L99.2846 301.378Z" stroke="#263238" stroke-linecap="round" stroke-linejoin="round"/>
<path d="M51.1846 301.377V331.644" stroke="#263238" stroke-linecap="round" stroke-linejoin="round"/>
<path d="M99.1572 331.644V301.377" stroke="#263238" stroke-linecap="round" stroke-linejoin="round"/>
<path d="M56.459 331.82V306.298H73.1065V331.644" stroke="#263238" stroke-linecap="round" stroke-linejoin="round"/>
<path d="M76.8691 331.82V306.298H93.5166V331.644" stroke="#263238" stroke-linecap="round" stroke-linejoin="round"/>
<path d="M317.213 285.492H243.535V293.435H317.213V285.492Z" stroke="#263238" stroke-linecap="round" stroke-linejoin="round"/>
<path d="M304.427 301.378H256.327L250.319 293.435H310.435L304.427 301.378Z" stroke="#263238" stroke-linecap="round" stroke-linejoin="round"/>
<path d="M256.327 331.644V301.377" stroke="#263238" stroke-linecap="round" stroke-linejoin="round"/>
<path d="M304.307 301.377V331.644" stroke="#263238" stroke-linecap="round" stroke-linejoin="round"/>
<path d="M261.608 331.82V306.298H278.256V331.644" stroke="#263238" stroke-linecap="round" stroke-linejoin="round"/>
<path d="M282.012 331.82V306.298H298.659V331.644" stroke="#263238" stroke-linecap="round" stroke-linejoin="round"/>
<path d="M99.5176 311.41H255.974" stroke="#263238" stroke-linecap="round" stroke-linejoin="round"/>
<path d="M209.548 290.103H147.49V306.708H209.548V290.103Z" fill="white"/>
<path d="M162.613 302.669C162.804 302.669 163.03 302.669 163.228 302.669C163.792 302.669 164.244 302.465 164.244 301.589V292.99H166.023V301.462C166.023 303.728 164.809 304.286 163.468 304.286C163.182 304.293 162.897 304.281 162.613 304.251V302.669Z" fill="#263238"/>
<path d="M168.931 292.99V301.73C168.931 302.535 169.292 302.825 169.856 302.825C170.421 302.825 170.781 302.535 170.781 301.73V292.99H172.461V301.617C172.461 303.425 171.558 304.441 169.807 304.441C168.056 304.441 167.152 303.403 167.152 301.617V292.99H168.931Z" fill="#263238"/>
<path d="M173.676 292.99H176.5C178.279 292.99 179.147 293.978 179.147 295.814V301.462C179.147 303.269 178.279 304.286 176.5 304.286H173.676V292.99ZM175.455 294.607V302.698H176.457C177.022 302.698 177.361 302.408 177.361 301.596V295.708C177.361 294.896 177.022 294.607 176.457 294.607H175.455Z" fill="#263238"/>
<path d="M182.946 297.974H185.438V301.568C185.438 303.382 184.527 304.392 182.783 304.392C181.04 304.392 180.129 303.354 180.129 301.568V295.68C180.129 293.866 181.033 292.856 182.783 292.856C184.534 292.856 185.438 293.887 185.438 295.68V296.781H183.751V295.567C183.751 294.755 183.398 294.452 182.833 294.452C182.268 294.452 181.908 294.755 181.908 295.567V301.681C181.908 302.493 182.268 302.782 182.833 302.782C183.398 302.782 183.751 302.493 183.751 301.681V299.598H182.946V297.974Z" fill="#263238"/>
<path d="M188.361 297.734H190.804V299.344H188.361V302.662H191.439V304.286H186.582V292.99H191.439V294.607H188.361V297.734Z" fill="#263238"/>
<path d="M208.474 291.176V305.642H148.563V291.176H208.474ZM210.592 289.058H146.417V307.816H210.621V289.03L210.592 289.058Z" fill="#263238"/>
</svg>
