<svg width="16" height="16" viewBox="0 0 16 16" fill="none" xmlns="http://www.w3.org/2000/svg">
<path fill-rule="evenodd" clip-rule="evenodd" d="M4.5999 1.60001C3.38488 1.60001 2.3999 2.58498 2.3999 3.80001V12.2C2.3999 13.415 3.38488 14.4 4.5999 14.4H11.3999C12.6149 14.4 13.5999 13.415 13.5999 12.2V3.80001C13.5999 2.58498 12.6149 1.60001 11.3999 1.60001H4.5999ZM3.5999 3.80001C3.5999 3.24772 4.04762 2.80001 4.5999 2.80001H11.3999C11.9522 2.80001 12.3999 3.24772 12.3999 3.80001V12.2C12.3999 12.7523 11.9522 13.2 11.3999 13.2H4.5999C4.04762 13.2 3.5999 12.7523 3.5999 12.2V3.80001ZM5.9999 5.20001C5.9999 5.53138 5.73127 5.80001 5.3999 5.80001C5.06853 5.80001 4.7999 5.53138 4.7999 5.20001C4.7999 4.86863 5.06853 4.60001 5.3999 4.60001C5.73127 4.60001 5.9999 4.86863 5.9999 5.20001ZM6.5999 5.20001C6.5999 4.86863 6.86853 4.60001 7.1999 4.60001H10.5999C10.9313 4.60001 11.1999 4.86863 11.1999 5.20001C11.1999 5.53138 10.9313 5.80001 10.5999 5.80001H7.1999C6.86853 5.80001 6.5999 5.53138 6.5999 5.20001ZM5.3999 11.4C5.73127 11.4 5.9999 11.1314 5.9999 10.8C5.9999 10.4686 5.73127 10.2 5.3999 10.2C5.06853 10.2 4.7999 10.4686 4.7999 10.8C4.7999 11.1314 5.06853 11.4 5.3999 11.4ZM7.1999 10.2C6.86853 10.2 6.5999 10.4686 6.5999 10.8C6.5999 11.1314 6.86853 11.4 7.1999 11.4H10.5999C10.9313 11.4 11.1999 11.1314 11.1999 10.8C11.1999 10.4686 10.9313 10.2 10.5999 10.2H7.1999ZM5.9999 8.00001C5.9999 8.33138 5.73127 8.60001 5.3999 8.60001C5.06853 8.60001 4.7999 8.33138 4.7999 8.00001C4.7999 7.66863 5.06853 7.40001 5.3999 7.40001C5.73127 7.40001 5.9999 7.66863 5.9999 8.00001ZM6.5999 8.00001C6.5999 7.66863 6.86853 7.40001 7.1999 7.40001H10.5999C10.9313 7.40001 11.1999 7.66863 11.1999 8.00001C11.1999 8.33138 10.9313 8.60001 10.5999 8.60001H7.1999C6.86853 8.60001 6.5999 8.33138 6.5999 8.00001Z" fill="#43419E"/>
</svg>
