<svg width="150" height="150" viewBox="0 0 150 150" fill="none" xmlns="http://www.w3.org/2000/svg">
<path d="M50.1578 21.5761C50.1578 21.5761 27.4268 33.1561 16.0898 51.0001C4.75275 68.8441 5.64975 91.8001 19.4258 108.84C33.2018 125.88 59.5328 123.642 81.5798 134.436C103.627 145.23 127.951 143.007 138.376 120.138C148.801 97.2691 133.081 88.7221 130.381 62.2561C127.681 35.7901 103.822 -2.96386 50.1578 21.5761Z" fill="#F6F7FA"/>
<path opacity="0.7" d="M50.1578 21.5761C50.1578 21.5761 27.4268 33.1561 16.0898 51.0001C4.75275 68.8441 5.64975 91.8001 19.4258 108.84C33.2018 125.88 59.5328 123.642 81.5798 134.436C103.627 145.23 127.951 143.007 138.376 120.138C148.801 97.2691 133.081 88.7221 130.381 62.2561C127.681 35.7901 103.822 -2.96386 50.1578 21.5761Z" fill="#F6F7FA"/>
<path d="M37.0503 113.544C37.9503 113.244 39.5463 111.777 39.5463 111.774C39.5463 111.771 38.2623 111.027 38.1753 110.991C37.1643 110.565 34.9593 110.337 34.1583 111.27C34.0316 111.429 33.9395 111.613 33.8878 111.809C33.8361 112.005 33.8261 112.21 33.8583 112.411C33.8905 112.612 33.9642 112.803 34.0748 112.974C34.1853 113.144 34.3303 113.289 34.5003 113.4C35.2083 113.904 36.2703 113.796 37.0503 113.544Z" fill="#9C9C9C"/>
<path d="M53.6681 99.4024C53.6891 99.4024 53.0081 98.0734 52.9541 97.9924C52.3541 97.0924 50.6321 95.6734 49.4501 96.0094C49.2552 96.0707 49.0754 96.1723 48.9223 96.3076C48.7692 96.4429 48.6463 96.6088 48.5614 96.7946C48.4766 96.9805 48.4317 97.182 48.4298 97.3863C48.4278 97.5906 48.4688 97.793 48.5501 97.9804C48.8711 98.7844 49.8161 99.2824 50.6081 99.5014C51.5381 99.7594 53.6651 99.4054 53.6681 99.4024Z" fill="#9C9C9C"/>
<path d="M41.7546 117.717C42.5286 117.21 43.5966 115.515 43.6806 115.38C44.6489 115.993 45.6572 116.54 46.6986 117.018C47.2986 117.3 47.9226 117.567 48.5466 117.825C48.2466 117.747 47.9736 117.684 47.9466 117.678C46.8576 117.534 44.6706 117.897 44.1456 119.007C44.0633 119.195 44.0215 119.398 44.023 119.602C44.0245 119.807 44.0691 120.009 44.1541 120.196C44.239 120.382 44.3623 120.548 44.516 120.684C44.6696 120.819 44.8501 120.92 45.0456 120.981C45.8616 121.281 46.8456 120.888 47.5446 120.438C48.2436 119.988 49.1796 118.551 49.4226 118.17L50.1426 118.47C51.2976 118.929 52.4496 119.37 53.5686 119.862C53.9616 120.03 54.3426 120.213 54.7266 120.39C54.4566 120.324 54.2316 120.27 54.1956 120.267C53.1066 120.123 50.9226 120.486 50.3946 121.596C50.3123 121.784 50.2706 121.986 50.2721 122.191C50.2735 122.395 50.3182 122.597 50.4032 122.783C50.4882 122.969 50.6115 123.136 50.7651 123.271C50.9188 123.406 51.0992 123.507 51.2946 123.567C52.1136 123.867 53.1096 123.474 53.7936 123.024C54.4776 122.574 55.3356 121.278 55.6296 120.828C56.0136 121.023 56.4006 121.218 56.7666 121.428C57.0126 121.575 57.2616 121.698 57.5016 121.86L58.2156 122.319C58.6566 122.619 59.1156 122.943 59.5416 123.255C59.8416 123.471 60.1176 123.681 60.3996 123.891C60.0096 123.72 59.2386 123.396 59.1696 123.378C58.1166 123.078 55.8996 123.099 55.2126 124.116C55.1025 124.288 55.03 124.482 54.9998 124.684C54.9696 124.886 54.9824 125.092 55.0373 125.289C55.0923 125.486 55.1881 125.669 55.3186 125.826C55.4491 125.983 55.6113 126.111 55.7946 126.201C56.5566 126.612 57.5946 126.384 58.3476 126.042C59.1666 125.667 60.4476 124.218 60.5916 124.035C61.0566 124.386 61.5066 124.731 61.9236 125.064C63.1416 126.027 64.1556 126.894 64.9236 127.572L65.5236 127.026C64.7196 126.348 63.6456 125.466 62.3526 124.488C61.8816 124.131 61.3716 123.756 60.8526 123.378C61.1295 122.824 61.3739 122.254 61.5846 121.671C62.5056 121.764 64.2396 121.287 64.4646 121.224C64.6596 121.773 64.8426 122.31 65.0076 122.817C65.4816 124.266 65.8446 125.517 66.1116 126.51L66.7836 125.91C66.5046 124.983 66.1446 123.852 65.6976 122.577C65.5026 122.019 65.2836 121.428 65.0496 120.822C65.2566 120.705 66.9246 119.733 67.4496 119.001C67.9266 118.335 68.3496 117.354 68.0916 116.523C68.0372 116.327 67.9421 116.144 67.8125 115.986C67.6829 115.829 67.5218 115.7 67.3394 115.609C67.157 115.518 66.9575 115.466 66.7538 115.456C66.5501 115.447 66.3466 115.48 66.1566 115.554C65.0256 116.037 64.5756 118.206 64.6746 119.298C64.6746 119.364 64.8246 120.057 64.9206 120.498C64.8246 120.249 64.7346 120.009 64.6206 119.757C64.4226 119.253 64.2096 118.758 63.9846 118.224C63.8646 117.969 63.7476 117.714 63.6246 117.456C63.5016 117.198 63.3576 116.937 63.2226 116.673C62.9016 116.073 62.5446 115.473 62.1696 114.873C62.6106 114.699 64.1616 114.057 64.7376 113.469C65.3136 112.881 65.8776 111.969 65.7456 111.12C65.7224 110.918 65.6568 110.722 65.5529 110.546C65.4491 110.371 65.3094 110.219 65.143 110.101C64.9765 109.983 64.7871 109.901 64.587 109.861C64.3869 109.821 64.1806 109.824 63.9816 109.869C62.7816 110.169 62.0166 112.251 61.9506 113.346C61.9506 113.412 61.9866 114.204 62.0166 114.639C61.7886 114.285 61.5636 113.931 61.3236 113.58C60.6276 112.569 59.8896 111.567 59.1606 110.565C58.9356 110.265 58.7166 109.95 58.4976 109.641C58.6536 109.581 60.5136 108.858 61.1586 108.201C61.7316 107.601 62.2986 106.701 62.1696 105.849C62.146 105.646 62.08 105.451 61.9759 105.275C61.8717 105.1 61.7318 104.948 61.5651 104.83C61.3984 104.712 61.2088 104.63 61.0085 104.59C60.8082 104.55 60.6018 104.553 60.4026 104.598C59.2026 104.898 58.4376 106.98 58.3716 108.075C58.3716 108.159 58.4256 109.296 58.4556 109.575C57.9696 108.894 57.4926 108.213 57.0486 107.523C56.4433 106.595 55.9001 105.628 55.4226 104.628C55.4946 104.601 57.4386 103.854 58.0986 103.179C58.6716 102.579 59.2386 101.679 59.1096 100.83C59.0864 100.628 59.0208 100.432 58.9169 100.256C58.8131 100.081 58.6734 99.9289 58.507 99.8109C58.3405 99.6929 58.1511 99.6112 57.951 99.5713C57.7509 99.5314 57.5446 99.5341 57.3456 99.5793C56.1456 99.8793 55.3806 101.961 55.3146 103.056C55.3146 103.128 55.3536 103.995 55.3836 104.406L55.3176 104.424C54.8612 103.406 54.4977 102.349 54.2316 101.265C54.0786 100.665 53.9646 100.092 53.8656 99.5313C54.2406 99.4293 55.9656 98.9463 56.6196 98.4033C57.2736 97.8603 57.9156 97.0443 57.8826 96.1773C57.8809 95.9732 57.8364 95.7717 57.7519 95.5859C57.6675 95.4 57.5449 95.234 57.3922 95.0986C57.2395 94.9631 57.06 94.8612 56.8654 94.7995C56.6709 94.7378 56.4655 94.7176 56.2626 94.7403C55.0476 94.9113 54.0486 96.8913 53.8626 97.9743C53.8626 98.0313 53.8146 98.6403 53.7936 99.0843C53.7546 98.8293 53.7066 98.5683 53.6736 98.3223C53.5446 97.4013 53.4816 96.5523 53.4306 95.7993C53.4066 95.3703 53.3946 94.9803 53.3856 94.6173C53.7006 94.3173 54.9666 93.1173 55.2966 92.3583C55.6266 91.5993 55.8216 90.5583 55.3926 89.8023C55.2976 89.6214 55.1656 89.4625 55.0051 89.336C54.8446 89.2095 54.6592 89.1183 54.4611 89.0682C54.263 89.0181 54.0566 89.0103 53.8552 89.0453C53.6539 89.0803 53.4622 89.1573 53.2926 89.2713C52.2906 89.9853 52.3176 92.2023 52.6506 93.2493C52.6806 93.3393 53.2896 94.7013 53.3076 94.6863L53.3256 94.6683C53.3256 95.0163 53.3256 95.3913 53.3496 95.8023C53.3826 96.5583 53.4246 97.4133 53.5356 98.3403C53.6438 99.3391 53.8101 100.331 54.0336 101.31C54.2785 102.41 54.6219 103.485 55.0596 104.523L55.0776 104.559C54.8436 104.286 54.1626 103.545 54.1026 103.494C53.2746 102.774 51.2496 101.871 50.2026 102.507C50.0307 102.618 49.884 102.763 49.772 102.933C49.66 103.104 49.5853 103.297 49.5528 103.498C49.5202 103.7 49.5305 103.906 49.5831 104.103C49.6356 104.301 49.7291 104.485 49.8576 104.643C50.3796 105.336 51.4206 105.567 52.2426 105.57C53.1666 105.57 54.9906 104.745 55.1376 104.67C55.6075 105.716 56.1467 106.729 56.7516 107.703C57.0996 108.27 57.4686 108.834 57.8466 109.392C57.6366 109.164 57.4476 108.96 57.4176 108.933C56.5896 108.216 54.5646 107.31 53.5176 107.946C53.3457 108.057 53.199 108.202 53.087 108.372C52.975 108.543 52.9003 108.736 52.8678 108.937C52.8352 109.139 52.8455 109.345 52.8981 109.542C52.9506 109.74 53.0441 109.924 53.1726 110.082C53.6916 110.778 54.7356 111.006 55.5576 111.009C56.3796 111.012 57.9576 110.337 58.3716 110.154C58.5186 110.367 58.6716 110.583 58.8126 110.796C59.5206 111.813 60.2316 112.83 60.9126 113.844C61.1496 114.204 61.3686 114.564 61.5876 114.924C61.4016 114.72 61.2426 114.552 61.2156 114.528C60.3876 113.808 58.3626 112.905 57.3156 113.541C57.1439 113.652 56.9975 113.797 56.8858 113.968C56.7741 114.139 56.6997 114.331 56.6674 114.533C56.6352 114.734 56.6457 114.941 56.6985 115.138C56.7513 115.335 56.845 115.519 56.9736 115.677C57.4926 116.37 58.5366 116.601 59.3556 116.604C60.1746 116.607 61.6056 116.004 62.0976 115.782C62.3136 116.157 62.5296 116.532 62.7186 116.907C62.8446 117.165 62.9826 117.405 63.0906 117.672C63.1986 117.939 63.3216 118.194 63.4326 118.449C63.6336 118.953 63.8406 119.469 64.0326 119.964C64.1616 120.306 64.2786 120.636 64.3956 120.966C64.1676 120.606 63.6996 119.913 63.6546 119.859C63.0009 119.146 62.1743 118.613 61.2546 118.311C61.1863 118.228 61.1099 118.152 61.0266 118.083C60.8731 117.949 60.693 117.848 60.498 117.788C60.3031 117.728 60.0977 117.71 59.8952 117.734C59.6926 117.758 59.4974 117.825 59.3223 117.929C59.1472 118.034 58.996 118.174 58.8786 118.341C58.2006 119.367 59.0226 121.425 59.7096 122.283C59.7486 122.334 60.2496 122.832 60.5706 123.141L59.8926 122.7C59.4516 122.4 58.9926 122.1 58.5186 121.773L57.7956 121.329C57.5556 121.176 57.2856 121.044 57.0276 120.9C56.4276 120.576 55.8006 120.276 55.1646 120C55.4346 119.613 56.3646 118.224 56.5296 117.414C56.6946 116.604 56.6556 115.542 56.0766 114.897C55.9451 114.741 55.7822 114.615 55.5985 114.526C55.4148 114.437 55.2145 114.387 55.0105 114.381C54.8065 114.374 54.6034 114.411 54.4145 114.488C54.2255 114.565 54.0548 114.681 53.9136 114.828C53.0886 115.728 53.5896 117.897 54.1356 118.848C54.1716 118.908 54.6396 119.544 54.9066 119.889C54.5226 119.721 54.1386 119.55 53.7456 119.391C52.6056 118.932 51.4386 118.491 50.2776 118.068C49.9206 117.936 49.5666 117.798 49.2126 117.663C49.3116 117.528 50.4636 115.899 50.6376 114.993C50.7936 114.189 50.7666 113.121 50.1846 112.476C50.0531 112.32 49.8902 112.194 49.7065 112.105C49.5228 112.016 49.3225 111.966 49.1185 111.96C48.9145 111.953 48.7114 111.99 48.5225 112.067C48.3335 112.144 48.1628 112.26 48.0216 112.407C47.1966 113.307 47.6976 115.476 48.2466 116.427C48.2856 116.499 48.9636 117.414 49.1466 117.627C48.3666 117.327 47.5926 117.027 46.8396 116.694C45.8231 116.254 44.837 115.747 43.8876 115.176C43.9326 115.113 45.1446 113.418 45.3216 112.491C45.4746 111.687 45.4476 110.619 44.8686 109.974C44.7371 109.818 44.5742 109.692 44.3905 109.603C44.2068 109.514 44.0065 109.464 43.8025 109.458C43.5985 109.451 43.3954 109.488 43.2065 109.565C43.0175 109.642 42.8468 109.758 42.7056 109.905C41.8806 110.805 42.3816 112.974 42.9276 113.925C42.9636 113.988 43.4796 114.687 43.7346 115.014L43.6866 115.065C42.7456 114.467 41.8601 113.785 41.0406 113.028C40.5816 112.617 40.1676 112.2 39.7746 111.783C40.0326 111.483 41.1966 110.142 41.4516 109.323C41.7066 108.504 41.7816 107.475 41.2776 106.773C41.1632 106.604 41.0146 106.461 40.8413 106.353C40.6681 106.245 40.4741 106.174 40.2719 106.146C40.0696 106.118 39.8637 106.132 39.6675 106.189C39.4712 106.245 39.289 106.342 39.1326 106.473C38.2146 107.289 38.4756 109.491 38.9136 110.496C38.9376 110.55 39.2436 111.078 39.4716 111.459C39.2976 111.27 39.1146 111.078 38.9496 110.892C38.3496 110.196 37.8126 109.521 37.3566 108.918C37.0986 108.573 36.8736 108.258 36.6636 107.961C36.7686 107.541 37.1646 105.846 37.0146 105.021C36.8646 104.196 36.4566 103.221 35.6826 102.837C35.504 102.739 35.3066 102.68 35.1034 102.663C34.9002 102.646 34.6958 102.672 34.5033 102.739C34.3109 102.807 34.1348 102.914 33.9865 103.054C33.8382 103.194 33.721 103.363 33.6426 103.551C33.2016 104.697 34.4466 106.53 35.2986 107.22C35.3736 107.28 36.6336 108.078 36.6396 108.057C36.6403 108.048 36.6403 108.039 36.6396 108.03C36.8346 108.33 37.0476 108.63 37.2846 108.966C37.7286 109.566 38.2386 110.268 38.8416 110.979C39.4838 111.753 40.17 112.489 40.8966 113.184C41.7082 113.96 42.5866 114.663 43.5216 115.284L43.5576 115.305C43.2126 115.206 42.2346 114.963 42.1566 114.954C41.0676 114.81 38.8836 115.173 38.3556 116.283C38.2733 116.471 38.2315 116.674 38.233 116.878C38.2345 117.083 38.2791 117.285 38.3641 117.472C38.449 117.658 38.5723 117.824 38.726 117.96C38.8796 118.095 39.0601 118.196 39.2556 118.257C40.0746 118.551 41.0706 118.17 41.7546 117.717Z" fill="#9C9C9C"/>
<path d="M97.8822 41.6131C98.5242 42.6871 100.837 44.2621 100.84 44.2621C100.843 44.2621 101.416 42.4231 101.44 42.3001C101.686 40.8991 101.338 38.0431 99.9402 37.2991C99.7026 37.1819 99.443 37.116 99.1783 37.1058C98.9136 37.0955 98.6497 37.1411 98.4038 37.2396C98.1579 37.3381 97.9354 37.4872 97.751 37.6774C97.5665 37.8675 97.4242 38.0943 97.3332 38.3431C96.8982 39.3871 97.3362 40.7011 97.8822 41.6131Z" fill="#9C9C9C"/>
<path d="M120.566 58.5754C120.566 58.6024 122.066 57.3573 122.147 57.2673C123.128 56.2323 124.412 53.6673 123.647 52.2603C123.513 52.0315 123.333 51.8333 123.118 51.6787C122.903 51.5241 122.657 51.4166 122.398 51.3631C122.138 51.3096 121.87 51.3113 121.612 51.3682C121.353 51.4252 121.109 51.5359 120.896 51.6933C119.969 52.3323 119.612 53.6703 119.561 54.7323C119.504 55.9804 120.566 58.5724 120.566 58.5754Z" fill="#9C9C9C"/>
<path d="M93.9534 48.7743C94.8204 49.6053 97.2745 50.4693 97.4695 50.5353C96.9744 51.938 96.5735 53.3722 96.2695 54.8283C96.0865 55.6743 95.9274 56.5353 95.7804 57.3993C95.7804 56.9943 95.7804 56.6313 95.7804 56.5803C95.6484 55.1643 94.5594 52.5003 93.0024 52.1553C92.7422 52.1046 92.4743 52.1094 92.216 52.1692C91.9578 52.229 91.715 52.3426 91.5036 52.5025C91.2921 52.6625 91.1168 52.8651 90.9889 53.0973C90.861 53.3296 90.7835 53.5861 90.7614 53.8503C90.6294 54.9693 91.4034 56.1213 92.1714 56.8503C92.9394 57.5793 95.0274 58.3773 95.5794 58.5753C95.5254 58.9053 95.4685 59.2383 95.4175 59.5683C95.1685 61.1613 94.9284 62.7513 94.6434 64.3053C94.5444 64.8513 94.4244 65.3883 94.3074 65.9253C94.3074 65.5653 94.3074 65.2623 94.3074 65.2173C94.1754 63.7983 93.0864 61.1373 91.5294 60.7893C91.2692 60.7391 91.0013 60.7443 90.7433 60.8045C90.4852 60.8648 90.2427 60.9787 90.0315 61.1389C89.8204 61.2991 89.6454 61.5019 89.5178 61.7342C89.3903 61.9666 89.3132 62.2232 89.2914 62.4873C89.1594 63.6033 89.9304 64.7553 90.6984 65.4873C91.4664 66.2193 93.3534 66.9333 93.9984 67.1733C93.8634 67.7193 93.7285 68.2653 93.5725 68.7873C93.4555 69.1413 93.3714 69.4893 93.2364 69.8403L92.8585 70.8753C92.5975 71.5233 92.3304 72.1953 92.0574 72.8253C91.8714 73.2603 91.6855 73.6743 91.4995 74.0913C91.6045 73.5483 91.7995 72.4803 91.7995 72.3903C91.8835 70.9683 91.1994 68.1723 89.7234 67.5903C89.4738 67.5008 89.208 67.465 88.9436 67.4851C88.6791 67.5052 88.4218 67.5809 88.1886 67.7072C87.9553 67.8334 87.7513 68.0074 87.5898 68.2178C87.4284 68.4282 87.3131 68.6703 87.2515 68.9283C86.9515 70.0113 87.5514 71.2683 88.1874 72.1113C88.9014 73.0413 91.1005 74.2293 91.3765 74.3763C91.0765 75.0633 90.7585 75.7323 90.4585 76.3563C89.5885 78.1773 88.7844 79.7073 88.1484 80.8803L89.0155 81.4983C89.6455 80.2983 90.4495 78.6753 91.3135 76.7553C91.6315 76.0563 91.9584 75.3033 92.2854 74.5263C93.0659 74.7191 93.8574 74.8644 94.6554 74.9613C94.8054 76.1613 95.9064 78.2133 96.0504 78.4773C95.4114 78.8823 94.7875 79.2693 94.1905 79.6233C92.4955 80.6433 91.0044 81.4653 89.8374 82.0863L90.7824 82.7613C91.8774 82.1433 93.2034 81.3633 94.6824 80.4303C95.3334 80.0223 96.0205 79.5723 96.7194 79.1043C96.9265 79.3323 98.6365 81.1623 99.7195 81.6183C100.7 82.0293 102.062 82.2843 103.037 81.7173C103.271 81.5927 103.476 81.4202 103.639 81.211C103.802 81.0019 103.918 80.7607 103.982 80.5033C104.045 80.246 104.053 79.9782 104.005 79.7175C103.958 79.4568 103.856 79.209 103.706 78.9903C102.77 77.6973 99.8965 77.7543 98.5405 78.1953C98.4625 78.2223 97.6255 78.6003 97.1035 78.8493C97.3885 78.6573 97.6675 78.4713 97.9585 78.2703C98.5375 77.8743 99.1045 77.4633 99.7135 77.0253L100.583 76.3503C100.883 76.1283 101.162 75.8613 101.456 75.6153C102.125 75.0333 102.776 74.4153 103.415 73.7673C103.763 74.2713 105.023 76.0503 105.932 76.6083C106.841 77.1663 108.149 77.6223 109.196 77.2083C109.447 77.1205 109.675 76.981 109.868 76.7988C110.061 76.6167 110.213 76.396 110.314 76.1512C110.416 75.9064 110.465 75.6429 110.458 75.3779C110.451 75.1129 110.388 74.8524 110.273 74.6133C109.544 73.1943 106.691 72.8133 105.287 73.0443C105.2 73.0593 104.21 73.3443 103.67 73.5003C104.051 73.1133 104.435 72.7263 104.807 72.3183C105.887 71.1483 106.943 69.9183 107.999 68.7183C108.323 68.3463 108.653 67.9803 108.977 67.6143C109.1 67.7943 110.549 69.9393 111.569 70.5663C112.469 71.1213 113.786 71.5803 114.836 71.1663C115.086 71.0782 115.315 70.9384 115.507 70.7562C115.699 70.5739 115.851 70.3532 115.952 70.1084C116.054 69.8636 116.102 69.6002 116.095 69.3354C116.088 69.0706 116.025 68.8102 115.91 68.5713C115.181 67.1523 112.328 66.7713 110.924 67.0023C110.819 67.0173 109.394 67.4223 109.037 67.5423C109.757 66.7323 110.48 65.9313 111.227 65.1693C112.229 64.1373 113.296 63.1713 114.422 62.2773C114.479 62.3613 115.982 64.6083 117.026 65.2503C117.926 65.8053 119.243 66.2613 120.293 65.8503C120.543 65.7622 120.772 65.6224 120.964 65.4402C121.156 65.2579 121.308 65.0372 121.409 64.7924C121.511 64.5476 121.559 64.2842 121.552 64.0194C121.545 63.7546 121.482 63.4942 121.367 63.2553C120.638 61.8363 117.785 61.4553 116.381 61.6893C116.288 61.6893 115.205 62.0103 114.692 62.1663L114.65 62.0853C115.809 61.2164 117.043 60.4524 118.337 59.8023C119.045 59.4363 119.741 59.1273 120.437 58.8393C120.674 59.2863 121.781 61.3173 122.657 61.9983C123.533 62.6793 124.757 63.2493 125.837 62.9553C126.095 62.8952 126.338 62.7814 126.549 62.6215C126.76 62.4616 126.935 62.259 127.062 62.027C127.19 61.7949 127.267 61.5386 127.289 61.2748C127.312 61.0109 127.278 60.7453 127.19 60.4953C126.62 58.9953 123.83 58.3113 122.408 58.3953C122.33 58.3953 121.547 58.5303 120.98 58.6293C121.28 58.5063 121.61 58.3713 121.91 58.2573C123.038 57.8283 124.094 57.5043 125.036 57.2253C125.57 57.0693 126.059 56.9253 126.515 56.8233C126.977 57.1413 128.852 58.3983 129.926 58.5933C131 58.7883 132.359 58.7403 133.187 57.9783C133.389 57.806 133.552 57.5933 133.665 57.3539C133.779 57.1145 133.841 56.8539 133.847 56.589C133.853 56.3241 133.804 56.0609 133.701 55.8165C133.599 55.572 133.446 55.3519 133.253 55.1703C132.053 54.1113 129.266 54.7833 128.039 55.5033C127.931 55.5663 126.386 56.7333 126.41 56.7513L126.437 56.7693C125.996 56.8713 125.522 56.9883 125.006 57.1233C124.061 57.3843 122.99 57.6873 121.85 58.0923C120.617 58.5222 119.409 59.023 118.232 59.5923C116.913 60.2199 115.651 60.9628 114.461 61.8123L114.422 61.8453C114.698 61.4703 115.442 60.3963 115.49 60.3063C116.162 59.0493 116.723 56.2293 115.616 55.0803C115.427 54.8954 115.2 54.7523 114.952 54.6604C114.703 54.5685 114.438 54.5298 114.174 54.5468C113.91 54.5638 113.652 54.636 113.417 54.7589C113.182 54.8818 112.976 55.0526 112.811 55.2603C112.085 56.1213 112.094 57.5073 112.328 58.5453C112.592 59.7153 114.161 61.7883 114.287 61.9533C113.1 62.8492 111.973 63.8234 110.915 64.8693C110.294 65.4693 109.691 66.1053 109.091 66.7443C109.322 66.4113 109.523 66.1113 109.547 66.0663C110.219 64.8123 110.78 61.9893 109.673 60.8433C109.484 60.6576 109.258 60.5138 109.01 60.4214C108.762 60.329 108.497 60.29 108.232 60.307C107.968 60.324 107.71 60.3966 107.475 60.52C107.241 60.6434 107.035 60.8149 106.871 61.0233C106.142 61.8813 106.151 63.2673 106.385 64.3053C106.619 65.3433 107.927 67.1553 108.278 67.6233L107.594 68.3643C106.508 69.5643 105.431 70.7493 104.336 71.8863C103.952 72.2883 103.556 72.6693 103.163 73.0533C103.367 72.7533 103.538 72.5073 103.559 72.4533C104.231 71.1993 104.792 68.3763 103.685 67.2303C103.496 67.0448 103.27 66.9011 103.022 66.8087C102.773 66.7163 102.508 66.6772 102.244 66.6939C101.979 66.7106 101.721 66.7827 101.486 66.9056C101.251 67.0285 101.045 67.1995 100.88 67.4073C100.154 68.2683 100.163 69.6543 100.397 70.6923C100.631 71.7303 101.81 73.3653 102.227 73.9263C101.813 74.3043 101.399 74.6853 100.979 75.0363C100.679 75.2673 100.424 75.5103 100.118 75.7293L99.2335 76.3833C98.6575 76.7823 98.0635 77.1933 97.4905 77.5683C97.0915 77.8293 96.7104 78.0723 96.3234 78.3183C96.7134 77.9223 97.4574 77.1333 97.5234 77.0613C98.237 76.0308 98.6748 74.8349 98.7954 73.5873C98.8802 73.4764 98.9545 73.3579 99.0175 73.2333C99.1432 73 99.2185 72.7428 99.2384 72.4785C99.2583 72.2142 99.2224 71.9486 99.133 71.6991C99.0436 71.4496 98.9027 71.2216 98.7195 71.0301C98.5362 70.8385 98.3148 70.6877 98.0695 70.5873C96.5695 70.0263 94.2084 71.6583 93.3234 72.7743C93.2694 72.8403 92.7835 73.6173 92.4835 74.1123C92.6155 73.7943 92.7474 73.4883 92.8794 73.1583C93.1434 72.5103 93.3894 71.8563 93.6534 71.1513C93.7704 70.8063 93.8904 70.4583 94.0074 70.1073C94.1244 69.7563 94.2205 69.3813 94.3315 69.0153C94.5685 68.1573 94.7664 67.2813 94.9464 66.3903C95.5134 66.6213 97.5445 67.4103 98.6125 67.3743C99.6805 67.3383 101.012 66.9963 101.669 66.0753C101.829 65.8639 101.943 65.6212 102.002 65.3631C102.062 65.1049 102.067 64.8371 102.016 64.577C101.965 64.3169 101.861 64.0704 101.708 63.8535C101.556 63.6367 101.36 63.4543 101.132 63.3183C99.7434 62.5353 97.1545 63.7923 96.1105 64.7583C96.0445 64.8213 95.3724 65.5983 95.0124 66.0333C95.1144 65.4993 95.2224 64.9653 95.3124 64.4193C95.5644 62.8443 95.7714 61.2453 95.9874 59.6493C96.0504 59.1603 96.1224 58.6743 96.1914 58.1883C96.3924 58.2723 98.7865 59.2623 99.9835 59.2203C101.045 59.1843 102.383 58.8423 103.037 57.9213C103.197 57.7101 103.311 57.4676 103.371 57.2095C103.431 56.9515 103.436 56.6838 103.385 56.4237C103.335 56.1636 103.23 55.9171 103.078 55.7001C102.927 55.4831 102.731 55.3006 102.503 55.1643C101.111 54.3843 98.5225 55.6383 97.4785 56.6073C97.4005 56.6793 96.4345 57.8073 96.2035 58.1073C96.3565 57.0363 96.5035 55.9683 96.7194 54.9213C96.9885 53.5067 97.3483 52.1108 97.7964 50.7423C97.8895 50.7813 100.382 51.8283 101.609 51.7863C102.671 51.7473 104.009 51.4083 104.663 50.4873C104.823 50.2758 104.937 50.0331 104.997 49.7748C105.057 49.5166 105.062 49.2486 105.012 48.9883C104.961 48.728 104.857 48.4812 104.705 48.264C104.553 48.0467 104.357 47.8639 104.129 47.7273C102.737 46.9473 100.151 48.2013 99.1044 49.1703C99.0354 49.2333 98.3005 50.0883 97.9585 50.5023L97.8804 50.4573C98.3617 49.0942 98.9641 47.7769 99.6804 46.5213C100.07 45.8253 100.478 45.1803 100.88 44.5623C101.324 44.8053 103.367 45.8883 104.48 45.9753C105.542 46.0533 106.913 45.8613 107.66 45.0183C107.842 44.8257 107.982 44.597 108.069 44.347C108.157 44.097 108.191 43.8313 108.169 43.5673C108.148 43.3032 108.07 43.0467 107.943 42.8145C107.815 42.5823 107.64 42.3795 107.429 42.2193C106.133 41.2893 103.424 42.2523 102.278 43.1013C102.218 43.1463 101.636 43.6833 101.219 44.0823C101.408 43.8063 101.6 43.5183 101.789 43.2573C102.491 42.2793 103.196 41.4243 103.823 40.6713C104.186 40.2483 104.522 39.8703 104.837 39.5223C105.398 39.5223 107.657 39.5463 108.659 39.1173C109.661 38.6883 110.759 37.8963 111.041 36.8043C111.114 36.5491 111.133 36.2814 111.095 36.0186C111.057 35.7559 110.965 35.504 110.823 35.2795C110.682 35.055 110.494 34.8628 110.273 34.7156C110.053 34.5685 109.803 34.4695 109.541 34.4253C107.963 34.1973 106.001 36.3033 105.374 37.5813C105.32 37.6923 104.675 39.5193 104.702 39.5193H104.738C104.438 39.8493 104.093 40.2063 103.739 40.6053C103.094 41.3433 102.368 42.1863 101.639 43.1523C100.844 44.1878 100.11 45.2686 99.4405 46.3893C98.6863 47.6409 98.0447 48.9571 97.5234 50.3223L97.5054 50.3733C97.5324 49.9053 97.5565 48.6003 97.5475 48.4983C97.4155 47.0793 96.3265 44.4183 94.7695 44.0733C94.5095 44.0231 94.2418 44.0282 93.9839 44.0883C93.726 44.1483 93.4836 44.262 93.2726 44.4218C93.0615 44.5817 92.8864 44.7842 92.7587 45.0162C92.631 45.2482 92.5536 45.5044 92.5315 45.7683C92.4145 46.8873 93.1854 48.0393 93.9534 48.7743Z" fill="#9C9C9C"/>
<path d="M112.1 101.583V100.578C112.1 95.403 118.652 95.178 118.652 91.494C118.652 89.895 117.35 88.851 115.412 88.851C113.291 88.851 111.95 90.006 111.95 91.644V92.055C111.95 92.463 111.728 92.655 111.317 92.655L107.336 92.505C106.964 92.505 106.703 92.319 106.703 92.061V91.65C106.703 87.15 110.276 84.057 115.526 84.057C120.662 84.057 123.974 86.961 123.974 91.314C123.974 97.494 117.311 97.533 117.311 100.914V101.583C117.321 101.669 117.312 101.755 117.284 101.837C117.255 101.918 117.209 101.992 117.148 102.053C117.087 102.114 117.013 102.16 116.932 102.189C116.85 102.217 116.764 102.226 116.678 102.216H112.733C112.648 102.226 112.561 102.217 112.479 102.189C112.398 102.16 112.324 102.114 112.263 102.053C112.202 101.992 112.156 101.918 112.128 101.837C112.099 101.755 112.09 101.669 112.1 101.583ZM111.764 107.583C111.764 105.945 113.216 104.604 114.965 104.604C116.642 104.604 118.13 105.945 118.13 107.583C118.13 109.221 116.63 110.562 114.929 110.562C113.228 110.562 111.764 109.215 111.764 107.577V107.583Z" fill="#263238"/>
<path d="M33.4414 58.9531V58.0801C33.4414 53.5801 39.1414 53.3911 39.1414 50.1901C39.1414 48.7981 38.0104 47.8951 36.3304 47.8951C34.4854 47.8951 33.3304 48.8971 33.3304 50.3191V50.6761C33.3304 51.0301 33.1384 51.1921 32.7814 51.1921L29.3224 51.0631C28.9984 51.0631 28.7734 50.9011 28.7734 50.6761V50.3191C28.7734 46.4191 31.8754 43.7191 36.4354 43.7191C40.8964 43.7191 43.7764 46.2421 43.7764 50.0191C43.7764 55.3861 37.9864 55.4191 37.9864 58.3621V58.9441C37.9951 59.0183 37.9868 59.0935 37.9623 59.164C37.9378 59.2345 37.8976 59.2986 37.8448 59.3514C37.792 59.4043 37.7279 59.4444 37.6573 59.469C37.5868 59.4935 37.5116 59.5017 37.4374 59.4931H33.9904C33.9171 59.5015 33.8428 59.4934 33.773 59.4694C33.7032 59.4453 33.6396 59.406 33.587 59.3542C33.5343 59.3024 33.4939 59.2395 33.4688 59.1701C33.4436 59.1007 33.4342 59.0266 33.4414 58.9531ZM33.1414 64.1581C33.1414 62.7361 34.4014 61.5721 35.9194 61.5721C37.3744 61.5721 38.6704 62.7361 38.6704 64.1581C38.6704 65.5801 37.3744 66.7441 35.8894 66.7441C35.184 66.7619 34.5001 66.5 33.987 66.0155C33.4739 65.5311 33.1732 64.8634 33.1504 64.1581H33.1414Z" fill="#43419E"/>
<path d="M105.847 24.528V24.087C105.847 21.816 108.721 21.717 108.721 20.1C108.721 19.398 108.148 18.939 107.299 18.939C106.369 18.939 105.781 19.446 105.781 20.166V20.346C105.781 20.526 105.682 20.607 105.502 20.607L103.756 20.541C103.591 20.541 103.477 20.46 103.477 20.346V20.166C103.477 18.189 105.046 16.833 107.35 16.833C109.603 16.833 111.058 18.108 111.058 20.019C111.058 22.719 108.133 22.746 108.133 24.219V24.519C108.137 24.5566 108.133 24.5947 108.12 24.6304C108.108 24.6661 108.087 24.6985 108.06 24.7251C108.033 24.7517 108.001 24.7718 107.965 24.7839C107.929 24.796 107.891 24.7998 107.854 24.795H106.123C106.086 24.7997 106.049 24.7961 106.014 24.7844C105.979 24.7728 105.947 24.7534 105.92 24.7278C105.894 24.7022 105.874 24.6709 105.861 24.6363C105.848 24.6017 105.843 24.5647 105.847 24.528ZM105.7 27.159C105.68 26.8785 105.746 26.5987 105.888 26.356C106.03 26.1132 106.241 25.9188 106.495 25.798C106.749 25.6771 107.033 25.6355 107.311 25.6785C107.589 25.7214 107.848 25.847 108.053 26.0389C108.259 26.2307 108.402 26.48 108.464 26.7543C108.526 27.0285 108.504 27.3151 108.401 27.5767C108.298 27.8383 108.118 28.0628 107.886 28.221C107.653 28.3793 107.379 28.464 107.098 28.464C106.92 28.4704 106.743 28.4417 106.576 28.3796C106.41 28.3174 106.258 28.223 106.128 28.1018C105.998 27.9805 105.893 27.8348 105.82 27.6731C105.746 27.5113 105.705 27.3366 105.7 27.159Z" fill="#43419E"/>
<path d="M21.5995 85.1998V84.6448C21.5995 81.7828 25.2235 81.6598 25.2235 79.6198C25.2235 78.7348 24.5035 78.1588 23.4235 78.1588C22.2505 78.1588 21.5095 78.7978 21.5095 79.7038V79.9288C21.5095 80.1568 21.3865 80.2588 21.1585 80.2588L18.9565 80.1778C18.7495 80.1778 18.6055 80.0728 18.6055 79.9288V79.7038C18.6055 77.2138 20.5825 75.5038 23.4865 75.5038C26.3275 75.5038 28.1575 77.1088 28.1575 79.5178C28.1575 82.9348 24.4735 82.9558 24.4735 84.8308V85.1998C24.4793 85.2473 24.4742 85.2954 24.4586 85.3407C24.4431 85.3859 24.4174 85.427 24.3836 85.4608C24.3497 85.4947 24.3086 85.5204 24.2634 85.5359C24.2182 85.5515 24.17 85.5566 24.1225 85.5508H21.9445C21.8974 85.5556 21.8499 85.5498 21.8055 85.5338C21.761 85.5178 21.7207 85.4919 21.6876 85.4582C21.6544 85.4245 21.6293 85.3838 21.6141 85.339C21.5988 85.2943 21.5938 85.2467 21.5995 85.1998V85.1998ZM21.4135 88.5148C21.39 88.1613 21.4734 87.809 21.653 87.5037C21.8325 87.1983 22.0998 86.9541 22.4201 86.8028C22.7404 86.6515 23.0988 86.6001 23.4487 86.6554C23.7986 86.7106 24.1237 86.8699 24.3818 87.1125C24.6399 87.3552 24.819 87.6699 24.8957 88.0157C24.9724 88.3615 24.9433 88.7224 24.812 89.0514C24.6808 89.3804 24.4535 89.6623 24.1599 89.8603C23.8662 90.0584 23.5197 90.1634 23.1655 90.1618C22.714 90.1763 22.2752 90.011 21.9455 89.7022C21.6159 89.3934 21.4223 88.9662 21.4075 88.5148H21.4135Z" stroke="#263238" stroke-miterlimit="10"/>
<path d="M49.1972 33.4141V33.0331C49.1972 31.0651 51.6902 30.9781 51.6902 29.5771C51.6902 28.9771 51.1952 28.5721 50.4572 28.5721C49.6502 28.5721 49.1402 29.0101 49.1402 29.6341V29.7901C49.1402 29.9461 49.0562 30.0151 48.9002 30.0151L47.4002 29.9581C47.2592 29.9581 47.1602 29.8891 47.1602 29.7901V29.6341C47.1602 27.9211 48.5192 26.7451 50.5142 26.7451C52.5092 26.7451 53.6972 27.8491 53.6972 29.5051C53.6972 31.8571 51.1622 31.8721 51.1622 33.1591V33.4141C51.166 33.4466 51.1625 33.4795 51.1518 33.5103C51.1411 33.5412 51.1235 33.5693 51.1004 33.5924C51.0773 33.6155 51.0492 33.633 51.0184 33.6437C50.9875 33.6544 50.9546 33.658 50.9222 33.6541H49.4222C49.3909 33.6556 49.3597 33.6503 49.3307 33.6386C49.3017 33.6268 49.2756 33.6089 49.2542 33.5861C49.2328 33.5633 49.2166 33.5361 49.2068 33.5064C49.1969 33.4767 49.1936 33.4452 49.1972 33.4141ZM49.0712 35.6941C49.058 35.4544 49.117 35.2163 49.2405 35.0104C49.3641 34.8046 49.5466 34.6406 49.7644 34.5396C49.9821 34.4385 50.2252 34.4051 50.4622 34.4437C50.6991 34.4823 50.9191 34.5911 51.0935 34.756C51.268 34.9208 51.389 35.1343 51.441 35.3687C51.4929 35.6031 51.4733 35.8476 51.3847 36.0708C51.2962 36.2939 51.1427 36.4854 50.9442 36.6204C50.7457 36.7554 50.5112 36.8278 50.2712 36.8281C49.9613 36.8387 49.6599 36.7258 49.4333 36.5143C49.2066 36.3028 49.0731 36.01 49.0622 35.7001L49.0712 35.6941Z" fill="#263238"/>
<path d="M93.5995 115.659V115.278C93.5995 113.31 96.0925 113.226 96.0925 111.822C96.0925 111.222 95.5975 110.817 94.8595 110.817C94.0525 110.817 93.5425 111.255 93.5425 111.879V112.035C93.5425 112.191 93.4585 112.263 93.3025 112.263L91.8025 112.206C91.6615 112.206 91.5625 112.134 91.5625 112.035V111.879C91.5625 110.166 92.9215 108.99 94.9165 108.99C96.9115 108.99 98.1325 110.094 98.1325 111.753C98.1325 114.102 95.5975 114.117 95.5975 115.404V115.659C95.6013 115.691 95.5977 115.724 95.587 115.755C95.5763 115.786 95.5588 115.815 95.5358 115.838C95.5127 115.861 95.4848 115.879 95.4539 115.89C95.4231 115.901 95.3901 115.905 95.3575 115.902H93.8575C93.8235 115.908 93.7885 115.907 93.7553 115.897C93.7222 115.887 93.6917 115.87 93.6666 115.846C93.6414 115.822 93.6222 115.793 93.6106 115.76C93.5989 115.728 93.5951 115.693 93.5995 115.659V115.659ZM93.4735 117.939C93.4603 117.699 93.5193 117.461 93.6429 117.255C93.7664 117.049 93.9489 116.885 94.1667 116.784C94.3845 116.683 94.6276 116.65 94.8645 116.688C95.1015 116.727 95.3214 116.836 95.4959 117.001C95.6704 117.166 95.7914 117.379 95.8433 117.613C95.8952 117.848 95.8756 118.092 95.7871 118.315C95.6985 118.539 95.545 118.73 95.3465 118.865C95.148 119 94.9136 119.072 94.6735 119.073C94.3647 119.08 94.0655 118.965 93.8413 118.752C93.6171 118.54 93.4859 118.248 93.4765 117.939H93.4735Z" stroke="#263238" stroke-miterlimit="10"/>
<path d="M81.8558 122.487C81.8348 122.424 81.8138 122.361 81.7898 122.298C81.7658 122.235 81.7478 122.169 81.7238 122.106C81.6998 122.043 81.6818 121.98 81.6578 121.917C81.6338 121.854 81.6158 121.788 81.5918 121.725C81.5678 121.662 81.5498 121.599 81.5258 121.536C81.5018 121.473 81.4838 121.407 81.4598 121.344L81.3938 121.155C81.3728 121.089 81.3488 121.026 81.3278 120.963L81.2618 120.774C81.2408 120.708 81.2168 120.645 81.1958 120.582L81.1298 120.393C81.1088 120.327 81.0848 120.264 81.0638 120.201L81.0008 120C80.9798 119.934 80.9558 119.871 80.9348 119.808L80.8658 119.619C80.8448 119.553 80.8238 119.49 80.7998 119.427C80.7758 119.364 80.7578 119.301 80.7338 119.238C80.7098 119.175 80.6918 119.109 80.6678 119.046C80.6438 118.983 80.6258 118.92 80.6018 118.857C79.6238 115.881 76.5998 113.697 73.2728 113.697C70.0478 113.697 67.2428 115.575 66.0728 118.221C66.0428 118.281 66.0158 118.344 65.9888 118.404L65.9078 118.59C65.8778 118.65 65.8508 118.71 65.8238 118.773C65.7968 118.836 65.7668 118.896 65.7398 118.956L65.6588 119.139C65.6288 119.202 65.6018 119.262 65.5748 119.325C65.5478 119.388 65.5178 119.445 65.4908 119.508C65.4638 119.571 65.4338 119.628 65.4068 119.691L65.3258 119.874C65.2958 119.934 65.2688 119.997 65.2418 120.057C65.2148 120.117 65.1848 120.18 65.1578 120.24L65.0768 120.426C65.0468 120.486 65.0198 120.546 64.9928 120.609C64.9658 120.672 64.9358 120.732 64.9088 120.792L64.8278 120.975C64.7978 121.038 64.7708 121.098 64.7438 121.161C64.7168 121.224 64.6868 121.281 64.6598 121.344L64.5788 121.527C64.5488 121.587 64.5218 121.65 64.4948 121.71C64.4678 121.77 64.4378 121.833 64.4108 121.896C63.8961 122.993 63.6317 124.19 63.6368 125.4C63.6368 130.23 67.8068 134.178 72.9638 134.178C78.0098 134.178 82.3988 130.23 82.3988 125.4C82.3978 124.48 82.2364 123.566 81.9218 122.7C81.9008 122.613 81.8798 122.55 81.8558 122.487Z" fill="#263238"/>
<path d="M74.7188 56.0407C59.2478 56.0407 48.7148 65.1457 48.7148 78.4237V79.6237C48.7176 79.822 48.7716 80.0162 48.8714 80.1876C48.9713 80.3589 49.1137 80.5016 49.2848 80.6017C49.3496 80.664 49.4199 80.7203 49.4948 80.7697C49.5599 80.8329 49.6312 80.8892 49.7078 80.9377C49.7729 81.0009 49.8442 81.0572 49.9208 81.1057C49.9853 81.1696 50.0567 81.226 50.1338 81.2737C50.1978 81.3369 50.2682 81.3932 50.3438 81.4417C50.4088 81.5059 50.4802 81.5632 50.5568 81.6127C50.6226 81.6751 50.6939 81.7313 50.7698 81.7807C50.835 81.8437 50.9064 81.9 50.9828 81.9487C51.047 82.0117 51.1173 82.068 51.1928 82.1167C51.2633 82.1847 51.3407 82.245 51.4238 82.2967C51.485 82.3524 51.5502 82.4036 51.6188 82.4497C51.6846 82.5121 51.7559 82.5683 51.8318 82.6177C51.8966 82.68 51.9669 82.7363 52.0418 82.7857C52.1076 82.8481 52.1789 82.9043 52.2548 82.9537C52.32 83.0168 52.3914 83.073 52.4678 83.1217C52.532 83.1847 52.6023 83.241 52.6778 83.2897C52.743 83.3527 52.8144 83.409 52.8908 83.4577C52.955 83.5207 53.0253 83.577 53.1008 83.6257C53.1666 83.6881 53.2379 83.7443 53.3138 83.7937C53.378 83.8567 53.4483 83.913 53.5238 83.9617C53.8705 84.2668 54.3227 84.424 54.7838 84.3997L64.4318 84.7597C65.4248 84.7597 65.9648 84.3097 65.9648 83.3167V82.3267C65.9648 78.3577 69.2108 75.5647 74.3648 75.5647C79.0538 75.5647 82.2098 78.0877 82.2098 81.9667C82.2099 82.4088 82.1677 82.8498 82.0838 83.2837C77.2418 89.6317 64.6388 92.4307 64.6388 104.752V107.716C64.6388 108.916 65.2958 109.579 66.5048 109.579H78.1208C79.3208 109.579 79.9868 108.922 79.9868 107.716V105.739C79.9868 95.7547 99.6278 95.6437 99.6278 77.4307C99.6278 64.5967 89.8598 56.0407 74.7188 56.0407Z" fill="#263238"/>
<path d="M64.6248 107.721V104.757C64.6248 89.5052 83.9358 88.8573 83.9358 77.9853C83.9358 73.2663 80.0958 70.1852 74.3898 70.1852C68.1348 70.1852 64.1898 73.5873 64.1898 78.4143V79.6143C64.1898 80.8143 63.5298 81.3722 62.3238 81.3722L50.5818 80.9312C49.4868 80.9312 48.7188 80.3823 48.7188 79.6143V78.4143C48.7188 65.1363 59.2518 56.0312 74.7228 56.0312C89.8638 56.0312 99.6228 64.5872 99.6228 77.4272C99.6228 95.6402 79.9818 95.7513 79.9818 105.735V107.712C79.9818 108.912 79.3218 109.575 78.1158 109.575H66.4908C65.2818 109.584 64.6248 108.927 64.6248 107.721ZM63.6378 125.4C63.6378 120.573 67.9158 116.622 73.0728 116.622C78.0108 116.622 82.3998 120.573 82.3998 125.4C82.3998 130.227 78.0018 134.163 72.9648 134.163C67.8018 134.163 63.6378 130.215 63.6378 125.4Z" fill="#43419E" stroke="#43419E" stroke-miterlimit="10"/>
<path d="M72.4846 144.001C81.5326 144.001 88.8676 142.361 88.8676 140.338C88.8676 138.315 81.5326 136.675 72.4846 136.675C63.4365 136.675 56.1016 138.315 56.1016 140.338C56.1016 142.361 63.4365 144.001 72.4846 144.001Z" fill="#263238"/>
<path d="M59.9604 57.2554L59.3334 58.6234C59.3334 58.6234 55.6914 59.0164 55.6914 59.2894C55.6914 59.5624 55.7304 61.4434 55.9284 61.5214C56.0789 61.58 56.2459 61.58 56.3964 61.5214L61.7604 60.1504L62.2704 57.7234L59.9604 57.2554Z" fill="white" stroke="#263238" stroke-linecap="round" stroke-linejoin="round"/>
<path d="M58.9423 59.6998C58.2762 60.2455 57.5577 60.7238 56.7973 61.1278C55.9303 61.5178 55.8973 62.1088 56.1733 62.1088C56.4493 62.1088 58.8973 61.0828 58.8973 61.0828C58.8973 61.0828 61.1203 60.5008 61.4413 60.3238C61.7623 60.1468 61.7983 59.1628 61.7983 59.1628" fill="white"/>
<path d="M58.9423 59.6998C58.2762 60.2455 57.5577 60.7238 56.7973 61.1278C55.9303 61.5178 55.8973 62.1088 56.1733 62.1088C56.4493 62.1088 58.8973 61.0828 58.8973 61.0828C58.8973 61.0828 61.1203 60.5008 61.4413 60.3238C61.7623 60.1468 61.7983 59.1628 61.7983 59.1628" stroke="#263238" stroke-linecap="round" stroke-linejoin="round"/>
<path d="M63.1622 30.9691L60.9242 48.1231L59.3672 57.4111L62.8232 58.2271L65.4002 47.2411L66.6212 40.3261L63.1622 30.9691Z" fill="#7D7D7D" stroke="#263238" stroke-linecap="round" stroke-linejoin="round"/>
<path d="M81.2239 18.549L79.8589 18.333L77.0629 17.274L76.9609 20.595L81.2959 20.994L81.2239 18.549Z" fill="white" stroke="#263238" stroke-linecap="round" stroke-linejoin="round"/>
<path d="M65.2677 79.3801C64.2504 80.5662 63.2999 81.8082 62.4207 83.1001C61.2657 84.8641 61.6737 86.7601 63.0987 87.2371C64.5237 87.7141 66.3507 86.421 66.8277 85.4041C67.3047 84.3871 67.1667 83.8471 67.9107 82.8301C68.6547 81.8131 69.2667 80.7961 68.9967 79.4401C68.7267 78.0841 65.9997 78.4321 65.2677 79.3801Z" fill="#7D7D7D" stroke="#263238" stroke-linecap="round" stroke-linejoin="round"/>
<path d="M66.6875 85.6586C66.5915 85.4546 66.4805 85.2386 66.3485 85.0076C65.2595 83.0906 63.3485 83.2436 62.1485 83.6006C61.3595 85.2116 61.8095 86.8136 63.1025 87.2456C64.3955 87.6776 66.0635 86.6216 66.6875 85.6586Z" fill="white" stroke="#263238" stroke-linecap="round" stroke-linejoin="round"/>
<path d="M66.3518 85.008C65.9468 85.608 65.4038 87.246 63.3008 86.568C62.7143 86.4174 62.1898 86.087 61.8008 85.623C61.8462 85.9889 61.9931 86.3347 62.2248 86.6215C62.4564 86.9083 62.7637 87.1246 63.1118 87.246C64.5338 87.72 66.3638 86.43 66.8408 85.413C67.3178 84.396 67.1798 83.856 67.9238 82.839C68.6678 81.822 69.2798 80.805 69.0098 79.449C69.0098 81.075 68.4098 81.345 67.6538 82.227C66.8978 83.109 66.7598 84.396 66.3518 85.008Z" fill="white" stroke="#263238" stroke-linecap="round" stroke-linejoin="round"/>
<path d="M85.2745 79.3801C86.2918 80.5662 87.2423 81.8082 88.1214 83.1001C89.2764 84.8641 88.8685 86.7601 87.4435 87.2371C86.0185 87.7141 84.1914 86.421 83.7144 85.4041C83.2374 84.3871 83.3755 83.8471 82.6314 82.8301C81.8874 81.8131 81.2755 80.7961 81.5455 79.4401C81.8155 78.0841 84.5304 78.4321 85.2745 79.3801Z" fill="#7D7D7D" stroke="#263238" stroke-linecap="round" stroke-linejoin="round"/>
<path d="M83.8555 85.659C83.9485 85.455 84.0595 85.239 84.1915 85.008C85.2805 83.091 87.1915 83.244 88.3915 83.601C89.1805 85.212 88.7305 86.814 87.4375 87.246C86.1445 87.678 84.4765 86.622 83.8555 85.659Z" fill="white" stroke="#263238" stroke-linecap="round" stroke-linejoin="round"/>
<path d="M84.1917 85.008C84.5967 85.608 85.1397 87.246 87.2427 86.568C87.8292 86.4174 88.3537 86.087 88.7427 85.623C88.6973 85.9889 88.5504 86.3347 88.3188 86.6215C88.0871 86.9083 87.7799 87.1246 87.4317 87.246C86.0097 87.72 84.1797 86.43 83.7027 85.413C83.2257 84.396 83.3637 83.856 82.6197 82.839C81.8757 81.822 81.2637 80.805 81.5337 79.449C81.5337 81.075 82.1337 81.345 82.8897 82.227C83.6457 83.109 83.7837 84.396 84.1917 85.008Z" fill="white" stroke="#263238" stroke-linecap="round" stroke-linejoin="round"/>
<path d="M88.4542 55.9889C88.4542 54.7679 86.3542 53.4119 86.3542 53.4119C83.1892 50.1929 77.4772 50.6189 75.3682 50.9069C73.2682 50.6069 67.5502 50.1929 64.3852 53.4119C64.3852 53.4119 62.2852 54.7679 62.2852 55.9889C62.2852 57.2099 64.9312 79.2449 64.9312 79.2449C64.9312 79.2449 64.8622 80.3969 66.7612 80.5319C68.6602 80.6669 69.4612 79.5839 69.4612 79.5839L70.2082 60.9389C70.2082 60.9389 73.2592 58.7669 73.8082 58.7009C74.0062 58.6739 74.2642 58.6319 74.5522 58.5959V58.6319C75.0894 58.5199 75.6439 58.5199 76.1812 58.6319V58.5959C76.4812 58.6319 76.7242 58.6739 76.9252 58.7009C77.4682 58.7669 80.5252 60.9389 80.5252 60.9389L81.2722 79.5839C81.2722 79.5839 82.0852 80.6669 83.9722 80.5319C85.8592 80.3969 85.8022 79.2449 85.8022 79.2449C85.8022 79.2449 88.4542 57.2099 88.4542 55.9889Z" fill="#263238" stroke="#263238" stroke-linecap="round" stroke-linejoin="round"/>
<path d="M80.5233 60.9392C80.5233 60.9392 80.1153 56.4632 82.0833 54.7682" stroke="#707070" stroke-linecap="round" stroke-linejoin="round"/>
<path d="M70.2158 60.9388C70.2158 60.9388 70.4198 57.2098 70.0118 55.8538C69.6038 54.4978 68.9258 53.9548 68.9258 53.9548" stroke="#707070" stroke-linecap="round" stroke-linejoin="round"/>
<path d="M72.7227 52.0563C72.7227 52.0563 74.8917 54.5643 75.2997 56.6673" stroke="#707070" stroke-linecap="round" stroke-linejoin="round"/>
<path d="M77.4732 52.1999C77.4732 52.1999 76.2522 53.5559 76.1172 54.5729" stroke="#707070" stroke-linecap="round" stroke-linejoin="round"/>
<path d="M74.421 25.8177C74.421 25.8177 72.456 25.5447 71.778 26.2227C71.1 26.9007 68.793 29.3997 68.793 29.3997L70.014 50.9607C70.014 50.9607 72.795 52.0467 75.168 52.0467C77.541 52.0467 80.253 51.1647 80.868 50.6907C81.483 50.2167 80.937 27.0957 80.937 27.0957C80.937 27.0957 75.9 25.6137 74.421 25.8177Z" fill="#43419E" stroke="#263238" stroke-linecap="round" stroke-linejoin="round"/>
<path d="M78.0154 26.292C79.0476 26.1353 80.0887 26.0441 81.1324 26.019C82.4884 26.019 83.8324 26.088 83.8324 26.088L87.2224 22.833L80.4004 21.2731L80.9434 18.1561C80.9434 18.1561 85.9594 17.8171 88.4674 18.2911C90.9754 18.7651 94.9084 19.9861 95.1124 19.9861C95.3164 19.9861 95.5864 20.7331 95.3824 21.2731C95.1784 21.8131 88.8004 28.869 86.8954 30.699C85.6493 31.9203 84.4724 33.2103 83.3704 34.563L82.5004 49.683C82.5004 49.683 84.7384 50.904 85.1464 51.309C85.5544 51.714 86.0284 53.343 86.0284 53.343C86.0284 53.343 81.8914 51.648 80.8054 51.513C79.7194 51.378 79.0444 51.309 78.8404 50.913C78.6364 50.517 76.9414 32.403 76.9414 32.403L77.0104 26.64C77.0104 26.64 76.9984 26.292 78.0154 26.292Z" fill="#7D7D7D" stroke="#263238" stroke-linecap="round" stroke-linejoin="round"/>
<path d="M82.081 35.5807L78.418 36.0548L78.757 37.4107L80.59 37.8848L82.351 37.0718L82.081 35.5807Z" stroke="#263238" stroke-linecap="round" stroke-linejoin="round"/>
<path d="M84.1802 27.444L83.3672 34.563L85.4702 28.53" stroke="#263238" stroke-linecap="round" stroke-linejoin="round"/>
<path d="M87.2344 22.8331C87.2344 22.8331 88.9294 23.1721 91.5064 22.1551" stroke="#263238" stroke-linecap="round" stroke-linejoin="round"/>
<path d="M88.9961 23.3068C90.1096 23.3378 91.2232 23.2473 92.3171 23.0368" stroke="#263238" stroke-linecap="round" stroke-linejoin="round"/>
<path d="M72.1172 25.7491L72.4562 30.6991C72.7652 31.1056 73.1654 31.4338 73.6244 31.6573C74.0835 31.8809 74.5886 31.9935 75.0992 31.9861C76.7942 31.9201 76.9982 30.6991 76.9982 30.6991V26.6311L72.1172 25.7491Z" fill="white" stroke="#263238" stroke-linecap="round" stroke-linejoin="round"/>
<path d="M77.0647 28.3261L76.9297 32.4001L78.3547 30.1621C78.3547 30.1621 79.9147 32.1271 80.3197 32.0611C80.7247 31.9951 80.0497 31.1791 79.9147 30.4351C79.7797 29.6911 78.6247 27.0421 78.4897 26.2981C78.3547 25.5541 77.0647 25.4161 76.9897 25.7551C76.9521 26.0479 76.9521 26.3443 76.9897 26.6371L77.0647 28.3261Z" fill="#7D7D7D" stroke="#263238" stroke-linecap="round" stroke-linejoin="round"/>
<path d="M72.386 31.9861C72.386 31.9861 72.656 50.9701 71.978 51.1861C71.3 51.4021 68.588 51.4591 66.878 52.2721C65.168 53.0851 64.37 53.4241 64.37 53.4241C64.37 53.4241 65.183 51.4591 66.134 50.5771C66.7661 50.009 67.4726 49.5296 68.234 49.1521L66.473 40.0681C66.473 40.0681 63.218 31.4551 63.149 30.9811C63.08 30.5071 69.32 26.9821 70.607 26.3701C71.894 25.7581 72.236 26.3041 72.236 26.3041L72.386 31.9861Z" fill="#7D7D7D" stroke="#263238" stroke-linecap="round" stroke-linejoin="round"/>
<path d="M70.6898 25.4101C70.6898 25.4101 69.0638 30.5641 68.9258 31.2421C68.7878 31.9201 68.9258 31.9201 69.4028 31.4431C69.8798 30.9661 71.0978 29.8171 71.0978 29.8171L72.3848 31.9861L72.3158 27.9871V25.6801C72.3158 25.6801 72.2498 24.7321 70.6898 25.4101Z" fill="#7D7D7D" stroke="#263238" stroke-linecap="round" stroke-linejoin="round"/>
<path d="M67.5065 36.531H71.5055L71.4395 38.157L69.6755 38.766L67.4375 38.157L67.5065 36.531Z" stroke="#263238" stroke-linecap="round" stroke-linejoin="round"/>
<path d="M78.4883 18.6992C78.4883 18.6992 79.4363 22.8332 79.6403 23.4992C79.8443 24.1652 78.5573 26.8232 78.1403 27.4322C77.9816 27.6963 77.7633 27.9196 77.5028 28.0842C77.2424 28.2489 76.947 28.3502 76.6403 28.3802C76.1663 28.3802 73.5893 27.5012 72.9773 27.0932C72.3653 26.6852 71.7593 26.2112 71.7593 26.2112C71.4709 26.3427 71.1504 26.3872 70.837 26.3392C70.5237 26.2913 70.2312 26.153 69.9953 25.9412C69.1823 25.1942 68.0963 24.3122 68.3663 23.7032C68.4978 23.4044 68.718 23.1532 68.9971 22.9836C69.2761 22.814 69.6005 22.7343 69.9263 22.7552C70.6733 22.7552 70.4033 22.6862 70.4033 22.6862C70.4033 22.6862 69.0473 20.7212 69.0473 19.1612C69.0473 17.6012 71.9603 16.4612 73.6553 16.4612C74.8273 16.51 75.9786 16.7862 77.0453 17.2742L78.4883 18.6992Z" fill="white" stroke="#263238" stroke-linecap="round" stroke-linejoin="round"/>
<path d="M76.1133 20.2565L77.3343 22.5635L76.1133 23.3765L75.5703 22.6985" stroke="#263238" stroke-linecap="round" stroke-linejoin="round"/>
<path d="M78.3525 22.3591C78.3525 22.3591 78.4185 22.9021 77.6055 23.7841" stroke="#263238" stroke-linecap="round" stroke-linejoin="round"/>
<path d="M74.8305 21.105C74.8305 21.423 74.6925 21.681 74.5305 21.681C74.3685 21.681 74.2305 21.423 74.2305 21.105C74.2305 20.787 74.3685 20.529 74.5305 20.529C74.6925 20.529 74.8305 20.787 74.8305 21.105Z" fill="#263238"/>
<path d="M76.9623 20.5953C77.1313 20.5953 77.2682 20.3374 77.2682 20.0193C77.2682 19.7012 77.1313 19.4433 76.9623 19.4433C76.7933 19.4433 76.6562 19.7012 76.6562 20.0193C76.6562 20.3374 76.7933 20.5953 76.9623 20.5953Z" fill="#263238"/>
<path d="M71.1646 15.1711C71.1646 15.1711 66.8986 16.7311 66.7576 18.6991C66.6166 20.6671 70.5556 23.3761 70.7596 23.7151C70.9636 24.0541 71.5726 23.3071 71.5726 23.3071C71.437 23.1249 71.3424 22.9156 71.2953 22.6935C71.2482 22.4713 71.2496 22.2416 71.2996 22.0201C71.5036 21.3421 72.3856 20.5201 72.3856 20.1901C72.3856 19.8601 71.3686 20.4601 71.3686 19.4431C71.3686 18.4261 73.8766 17.8171 75.3676 17.8831C76.8586 17.9491 78.1486 20.4601 79.2346 19.2391C80.3206 18.0181 78.7576 17.6821 78.7576 17.6821C78.7576 17.6821 80.8576 17.4091 80.8576 16.3261C80.8576 15.2431 79.7716 14.4931 79.2976 14.4931C78.8236 14.4931 77.5366 15.3091 77.5366 14.4271C77.5366 13.5451 78.8236 13.1371 77.6026 11.7271C76.3816 10.3171 74.8246 11.7271 74.8246 12.2701C74.8246 12.8131 74.4166 13.8271 74.1466 13.8271C73.8766 13.8271 73.0606 12.6091 72.1126 13.2871C71.8276 13.5137 71.5952 13.7996 71.4315 14.1249C71.2678 14.4502 71.1767 14.8071 71.1646 15.1711Z" fill="#263238" stroke="#263238" stroke-linecap="round" stroke-linejoin="round"/>
<path d="M72.9297 20.394L75.0987 19.578" stroke="#263238" stroke-linecap="round" stroke-linejoin="round"/>
<path d="M75.4391 18.6304C75.3976 18.4176 75.4316 18.1969 75.5351 18.0064" stroke="#263238" stroke-linecap="round" stroke-linejoin="round"/>
<path d="M75.5352 17.9997C75.6882 17.6997 76.0332 17.3127 76.7952 16.9977" stroke="white" stroke-linecap="round" stroke-linejoin="round"/>
</svg>
