<svg width="20" height="20" viewBox="0 0 20 20" fill="none" xmlns="http://www.w3.org/2000/svg">
<path fill-rule="evenodd" clip-rule="evenodd" d="M8.37833 14.2568C5.13179 14.2568 2.49995 11.6249 2.49995 8.37838C2.49995 5.13184 5.13179 2.5 8.37833 2.5C11.6249 2.5 14.2567 5.13184 14.2567 8.37838C14.2567 9.78259 13.7643 11.0718 12.9428 12.0828L17.3219 16.4619C17.5594 16.6993 17.5594 17.0844 17.3219 17.3219C17.0844 17.5593 16.6994 17.5593 16.4619 17.3219L12.0829 12.9428C11.0718 13.7644 9.78259 14.2568 8.37833 14.2568ZM8.37825 13.0406C10.9531 13.0406 13.0404 10.9533 13.0404 8.37846C13.0404 5.80362 10.9531 3.7163 8.37825 3.7163C5.80341 3.7163 3.71609 5.80362 3.71609 8.37846C3.71609 10.9533 5.80341 13.0406 8.37825 13.0406Z" fill="#9BA0B7"/>
</svg>
