<svg width="38" height="37" viewBox="0 0 38 37" fill="none" xmlns="http://www.w3.org/2000/svg">
<path fill-rule="evenodd" clip-rule="evenodd" d="M18.9768 6.9375C18.6878 6.9375 18.3999 6.94791 18.1154 6.96872C17.772 6.99416 17.4078 7.29362 17.3326 7.81278L17.2228 8.56781C17.0343 9.86744 16.1429 10.8329 15.152 11.3648C15.0028 11.4446 14.8571 11.5301 14.7137 11.618C13.7564 12.2135 12.4741 12.5025 11.2542 12.0157L10.5443 11.7325C10.0564 11.5382 9.61583 11.7024 9.42043 11.988C9.09783 12.4609 8.80877 12.9592 8.55786 13.4807C8.40755 13.7906 8.48502 14.2531 8.89665 14.578L9.50136 15.0555C10.5304 15.8672 10.9224 17.1194 10.8866 18.2445L10.8831 18.5L10.8866 18.7555C10.9224 19.8806 10.5304 21.1328 9.50136 21.9445L8.89665 22.422C8.48502 22.7469 8.40755 23.2094 8.55786 23.5193C8.80877 24.0407 9.09783 24.5391 9.42043 25.012C9.61583 25.2976 10.0564 25.4618 10.5443 25.2675L11.2542 24.9842C12.4741 24.4975 13.7564 24.7877 14.7137 25.382C14.8571 25.4699 15.0028 25.5554 15.152 25.6352C16.1429 26.1671 17.0343 27.1326 17.2228 28.4322L17.3326 29.1872C17.4078 29.7064 17.772 30.0058 18.1154 30.0313C18.3999 30.0521 18.6878 30.0625 18.9768 30.0625C19.2659 30.0625 19.5538 30.0521 19.8382 30.0313C20.1828 30.0058 20.5459 29.7064 20.621 29.1872L20.7309 28.4322C20.9193 27.1326 21.8108 26.1671 22.8017 25.6352C22.9509 25.5554 23.0965 25.4699 23.2411 25.382C24.1973 24.7877 25.4796 24.4975 26.6994 24.9842L27.4094 25.2675C27.8973 25.4618 28.3378 25.2976 28.5332 25.012C28.8558 24.5391 29.1449 24.0396 29.3958 23.5193C29.5461 23.2094 29.4686 22.7469 29.057 22.422L28.4523 21.9445C27.4232 21.1328 27.0313 19.8806 27.0671 18.7555L27.0706 18.5L27.0671 18.2445C27.0313 17.1194 27.4232 15.8672 28.4523 15.0555L29.057 14.578C29.4686 14.2531 29.5461 13.7906 29.3958 13.4807C29.1449 12.9604 28.8558 12.4609 28.5332 11.988C28.3378 11.7024 27.8973 11.5382 27.4094 11.7325L26.6994 12.0157C25.4796 12.5025 24.1973 12.2135 23.2411 11.618C23.0965 11.5301 22.9509 11.4446 22.8017 11.3648C21.8108 10.8329 20.9193 9.86744 20.7309 8.56781L20.621 7.81278C20.5459 7.29362 20.1828 6.99416 19.8382 6.96872C19.5538 6.94791 19.2659 6.9375 18.9768 6.9375ZM17.9466 4.66316C18.2865 4.63772 18.6299 4.625 18.9768 4.625C19.3237 4.625 19.6671 4.63772 20.007 4.66316C21.6084 4.77994 22.7046 6.07031 22.9092 7.48094L23.0191 8.23597C23.0769 8.63372 23.3752 9.04766 23.8955 9.32747C24.0874 9.43038 24.2759 9.53906 24.4598 9.65469C24.9616 9.96572 25.4692 10.0166 25.8426 9.86744L26.5537 9.58416C27.8753 9.05691 29.538 9.361 30.4422 10.6838C30.8295 11.2515 31.1776 11.8504 31.4794 12.4748C32.1766 13.9201 31.6065 15.5134 30.4884 16.3945L29.8849 16.8708C29.5692 17.1194 29.3599 17.5843 29.3784 18.1728C29.3819 18.2815 29.3831 18.3902 29.3831 18.5C29.3831 18.6098 29.3819 18.7185 29.3784 18.8272C29.3599 19.4157 29.5692 19.8806 29.8849 20.1292L30.4884 20.6055C31.6065 21.4866 32.1766 23.0799 31.4794 24.5252C31.1776 25.1496 30.8295 25.7485 30.4422 26.3162C29.538 27.639 27.8753 27.9431 26.5537 27.4158L25.8426 27.1326C25.4692 26.9834 24.9616 27.0343 24.4598 27.3453C24.2759 27.4609 24.0874 27.5696 23.8955 27.6725C23.3752 27.9523 23.0769 28.3663 23.0191 28.764L22.9092 29.5191C22.7046 30.9297 21.6084 32.2201 20.007 32.3368C19.6671 32.3623 19.3237 32.375 18.9768 32.375C18.6299 32.375 18.2865 32.3623 17.9466 32.3368C16.3463 32.2201 15.2491 30.9297 15.0444 29.5191L14.9346 28.764C14.8768 28.3663 14.5784 27.9523 14.0581 27.6725C13.8662 27.5696 13.6777 27.4609 13.4939 27.3453C12.9921 27.0343 12.4845 26.9834 12.111 27.1326L11.3999 27.4158C10.0783 27.9431 8.41563 27.639 7.51144 26.3162C7.1241 25.7485 6.77607 25.1496 6.47544 24.5252C5.77707 23.0799 6.3471 21.4866 7.46519 20.6055L8.06876 20.1292C8.38441 19.8806 8.59369 19.4157 8.57519 18.8272C8.57172 18.7185 8.57057 18.6098 8.57057 18.5C8.57057 18.3902 8.57172 18.2815 8.57519 18.1728C8.59369 17.5843 8.38441 17.1194 8.06876 16.8708L7.46519 16.3945C6.3471 15.5134 5.77707 13.9201 6.47544 12.4748C6.77607 11.8504 7.1241 11.2515 7.51144 10.6838C8.41563 9.361 10.0783 9.05691 11.3999 9.58416L12.111 9.86744C12.4845 10.0166 12.9921 9.96572 13.4939 9.65469C13.6777 9.53906 13.8662 9.43038 14.0581 9.32747C14.5784 9.04766 14.8768 8.63372 14.9346 8.23597L15.0444 7.48094C15.2491 6.07031 16.3463 4.77994 17.9466 4.66316ZM18.9768 15.0312C17.0609 15.0312 15.508 16.5841 15.508 18.5C15.508 20.4159 17.0609 21.9688 18.9768 21.9688C20.8927 21.9688 22.4455 20.4159 22.4455 18.5C22.4455 16.5841 20.8927 15.0312 18.9768 15.0312ZM13.1955 18.5C13.1955 15.3076 15.7832 12.7188 18.9768 12.7188C22.1692 12.7188 24.758 15.3076 24.758 18.5C24.758 21.6924 22.1692 24.2812 18.9768 24.2812C15.7832 24.2812 13.1955 21.6924 13.1955 18.5Z" fill="#007FEA"/>
</svg>
