<svg width="20" height="21" viewBox="0 0 20 21" fill="none" xmlns="http://www.w3.org/2000/svg">
<path fill-rule="evenodd" clip-rule="evenodd" d="M12.9167 2.91675C13.653 2.91675 14.25 3.5137 14.25 4.25008C14.25 4.98646 13.653 5.58341 12.9167 5.58341H11.008L11.5087 3.9146C11.6863 3.32234 12.2315 2.91675 12.8498 2.91675H12.9167ZM15.75 4.25008C15.75 4.73211 15.6296 5.18603 15.4173 5.58341H16.5C17.4665 5.58341 18.25 6.36692 18.25 7.33341V8.66675C18.25 9.60531 17.5111 10.3713 16.5833 10.4148V16.0001C16.5833 17.5189 15.3521 18.7501 13.8333 18.7501H10H6.16667C4.64789 18.7501 3.41667 17.5189 3.41667 16.0001L3.41667 10.4148C2.48886 10.3713 1.75 9.60531 1.75 8.66675L1.75 7.33341C1.75 6.36691 2.5335 5.58341 3.5 5.58341H4.5827C4.37037 5.18603 4.25 4.73211 4.25 4.25008C4.25 2.68527 5.51853 1.41675 7.08333 1.41675H7.15019C8.43094 1.41675 9.56005 2.25684 9.92807 3.48358L10 3.72334L10.0719 3.48358C10.4399 2.25684 11.5691 1.41675 12.8498 1.41675H12.9167C14.4815 1.41675 15.75 2.68527 15.75 4.25008ZM4.16667 8.91675H9.25V7.08341H7.08333L3.5 7.08341C3.36193 7.08341 3.25 7.19534 3.25 7.33341V8.66675C3.25 8.80482 3.36193 8.91675 3.5 8.91675H4.16667ZM10.75 8.91675L15.8333 8.91675H16.5C16.6381 8.91675 16.75 8.80482 16.75 8.66675V7.33341C16.75 7.19534 16.6381 7.08341 16.5 7.08341L12.9167 7.08341H10.75V8.91675ZM4.91667 10.4167L4.91667 16.0001C4.91667 16.6904 5.47631 17.2501 6.16667 17.2501H9.25L9.25 10.4167H4.91667ZM10.75 10.4167V17.2501H13.8333C14.5237 17.2501 15.0833 16.6904 15.0833 16.0001V10.4167H10.75ZM8.99198 5.58341L8.49133 3.9146C8.31365 3.32234 7.76853 2.91675 7.15019 2.91675H7.08333C6.34695 2.91675 5.75 3.5137 5.75 4.25008C5.75 4.98646 6.34695 5.58341 7.08333 5.58341H8.99198Z" fill="#333333"/>
</svg>
