<svg width="24" height="24" viewBox="0 0 24 24" fill="none" xmlns="http://www.w3.org/2000/svg">
<rect width="24" height="24" rx="4" fill="#E1E0FA"/>
<path fill-rule="evenodd" clip-rule="evenodd" d="M14.1094 3.92067C14.3878 4.0333 14.5468 4.3281 14.4879 4.62264L13.3874 10.1251H15.75C15.9786 10.1251 16.189 10.2499 16.2986 10.4506C16.4081 10.6512 16.3994 10.8957 16.2757 11.088L10.6507 19.838C10.4883 20.0907 10.1691 20.1921 9.89064 20.0795C9.61218 19.9668 9.45323 19.672 9.51214 19.3775L10.6126 13.8751H8.25C8.02137 13.8751 7.81099 13.7502 7.70143 13.5496C7.59187 13.3489 7.60063 13.1044 7.72426 12.9121L13.3493 4.1621C13.5117 3.90942 13.8309 3.80804 14.1094 3.92067ZM9.39479 12.6251H11.375C11.5622 12.6251 11.7396 12.709 11.8583 12.8538C11.9771 12.9986 12.0246 13.189 11.9879 13.3726L11.3858 16.3831L14.6052 11.3751H12.625C12.4378 11.3751 12.2604 11.2911 12.1417 11.1463C12.023 11.0015 11.9754 10.8111 12.0121 10.6275L12.6142 7.61706L9.39479 12.6251Z" fill="#4135F1"/>
</svg>
