<svg width="20" height="20" viewBox="0 0 20 20" fill="none" xmlns="http://www.w3.org/2000/svg">
<path d="M11.1797 15.4882L15.4894 11.1785" stroke="#FFDC36" stroke-width="1.5" stroke-linecap="round" stroke-linejoin="round"/>
<path d="M8.82139 11.1785L4.51172 15.4882" stroke="#FFDC36" stroke-width="1.5" stroke-linecap="round" stroke-linejoin="round"/>
<path d="M11.1797 8.82151L15.4894 4.51184" stroke="#FFDC36" stroke-width="1.5" stroke-linecap="round" stroke-linejoin="round"/>
<path d="M4.51172 8.82151L8.82139 4.51184" stroke="#FFDC36" stroke-width="1.5" stroke-linecap="round" stroke-linejoin="round"/>
<path d="M5.0013 3.33332C5.0013 4.25378 4.25509 4.99999 3.33464 4.99999C2.41416 4.99999 1.66797 4.25378 1.66797 3.33332C1.66797 2.41285 2.41416 1.66666 3.33464 1.66666C4.25509 1.66666 5.0013 2.41285 5.0013 3.33332Z" stroke="#FFDC36" stroke-width="1.5" stroke-linecap="round" stroke-linejoin="round"/>
<path d="M11.6654 3.33332C11.6654 4.25378 10.9192 4.99999 9.9987 4.99999C9.07824 4.99999 8.33203 4.25378 8.33203 3.33332C8.33203 2.41285 9.07824 1.66666 9.9987 1.66666C10.9192 1.66666 11.6654 2.41285 11.6654 3.33332Z" stroke="#FFDC36" stroke-width="1.5" stroke-linecap="round" stroke-linejoin="round"/>
<path d="M18.3333 3.33332C18.3333 4.25378 17.5871 4.99999 16.6667 4.99999C15.7462 4.99999 15 4.25378 15 3.33332C15 2.41285 15.7462 1.66666 16.6667 1.66666C17.5871 1.66666 18.3333 2.41285 18.3333 3.33332Z" stroke="#FFDC36" stroke-width="1.5" stroke-linecap="round" stroke-linejoin="round"/>
<path d="M18.3333 10C18.3333 10.9205 17.5871 11.6667 16.6667 11.6667C15.7462 11.6667 15 10.9205 15 10C15 9.07955 15.7462 8.33334 16.6667 8.33334C17.5871 8.33334 18.3333 9.07955 18.3333 10Z" stroke="#FFDC36" stroke-width="1.5" stroke-linecap="round" stroke-linejoin="round"/>
<path d="M18.3333 16.6667C18.3333 17.5871 17.5871 18.3333 16.6667 18.3333C15.7462 18.3333 15 17.5871 15 16.6667C15 15.7462 15.7462 15 16.6667 15C17.5871 15 18.3333 15.7462 18.3333 16.6667Z" stroke="#FFDC36" stroke-width="1.5" stroke-linecap="round" stroke-linejoin="round"/>
<path d="M11.6654 16.6667C11.6654 17.5871 10.9192 18.3333 9.9987 18.3333C9.07824 18.3333 8.33203 17.5871 8.33203 16.6667C8.33203 15.7462 9.07824 15 9.9987 15C10.9192 15 11.6654 15.7462 11.6654 16.6667Z" stroke="#FFDC36" stroke-width="1.5" stroke-linecap="round" stroke-linejoin="round"/>
<path d="M5.0013 16.6667C5.0013 17.5871 4.25509 18.3333 3.33464 18.3333C2.41416 18.3333 1.66797 17.5871 1.66797 16.6667C1.66797 15.7462 2.41416 15 3.33464 15C4.25509 15 5.0013 15.7462 5.0013 16.6667Z" stroke="#FFDC36" stroke-width="1.5" stroke-linecap="round" stroke-linejoin="round"/>
<path d="M5.0013 10C5.0013 10.9205 4.25509 11.6667 3.33464 11.6667C2.41416 11.6667 1.66797 10.9205 1.66797 10C1.66797 9.07955 2.41416 8.33334 3.33464 8.33334C4.25509 8.33334 5.0013 9.07955 5.0013 10Z" stroke="#FFDC36" stroke-width="1.5" stroke-linecap="round" stroke-linejoin="round"/>
<path d="M11.6654 10C11.6654 10.9205 10.9192 11.6667 9.9987 11.6667C9.07824 11.6667 8.33203 10.9205 8.33203 10C8.33203 9.07955 9.07824 8.33334 9.9987 8.33334C10.9192 8.33334 11.6654 9.07955 11.6654 10Z" stroke="#FFDC36" stroke-width="1.5" stroke-linecap="round" stroke-linejoin="round"/>
</svg>
