<svg width="20" height="20" viewBox="0 0 20 20" fill="none" xmlns="http://www.w3.org/2000/svg">
<path d="M11.1787 15.4882L15.4884 11.1785" stroke="white" stroke-width="1.5" stroke-linecap="round" stroke-linejoin="round"/>
<path d="M8.82139 11.1785L4.51172 15.4882" stroke="white" stroke-width="1.5" stroke-linecap="round" stroke-linejoin="round"/>
<path d="M11.1787 8.8215L15.4884 4.51183" stroke="white" stroke-width="1.5" stroke-linecap="round" stroke-linejoin="round"/>
<path d="M4.51172 8.8215L8.82139 4.51183" stroke="white" stroke-width="1.5" stroke-linecap="round" stroke-linejoin="round"/>
<path d="M5.00033 3.33333C5.00033 4.25379 4.25412 5 3.33366 5C2.41318 5 1.66699 4.25379 1.66699 3.33333C1.66699 2.41286 2.41318 1.66666 3.33366 1.66666C4.25412 1.66666 5.00033 2.41286 5.00033 3.33333Z" stroke="white" stroke-width="1.5" stroke-linecap="round" stroke-linejoin="round"/>
<path d="M11.6663 3.33333C11.6663 4.25379 10.9201 5 9.99967 5C9.07922 5 8.33301 4.25379 8.33301 3.33333C8.33301 2.41286 9.07922 1.66666 9.99967 1.66666C10.9201 1.66666 11.6663 2.41286 11.6663 3.33333Z" stroke="white" stroke-width="1.5" stroke-linecap="round" stroke-linejoin="round"/>
<path d="M18.3333 3.33333C18.3333 4.25379 17.5871 5 16.6667 5C15.7462 5 15 4.25379 15 3.33333C15 2.41286 15.7462 1.66666 16.6667 1.66666C17.5871 1.66666 18.3333 2.41286 18.3333 3.33333Z" stroke="white" stroke-width="1.5" stroke-linecap="round" stroke-linejoin="round"/>
<path d="M18.3333 10C18.3333 10.9205 17.5871 11.6667 16.6667 11.6667C15.7462 11.6667 15 10.9205 15 10C15 9.07954 15.7462 8.33334 16.6667 8.33334C17.5871 8.33334 18.3333 9.07954 18.3333 10Z" stroke="white" stroke-width="1.5" stroke-linecap="round" stroke-linejoin="round"/>
<path d="M18.3333 16.6667C18.3333 17.5871 17.5871 18.3333 16.6667 18.3333C15.7462 18.3333 15 17.5871 15 16.6667C15 15.7462 15.7462 15 16.6667 15C17.5871 15 18.3333 15.7462 18.3333 16.6667Z" stroke="white" stroke-width="1.5" stroke-linecap="round" stroke-linejoin="round"/>
<path d="M11.6663 16.6667C11.6663 17.5871 10.9201 18.3333 9.99967 18.3333C9.07922 18.3333 8.33301 17.5871 8.33301 16.6667C8.33301 15.7462 9.07922 15 9.99967 15C10.9201 15 11.6663 15.7462 11.6663 16.6667Z" stroke="white" stroke-width="1.5" stroke-linecap="round" stroke-linejoin="round"/>
<path d="M5.00033 16.6667C5.00033 17.5871 4.25412 18.3333 3.33366 18.3333C2.41318 18.3333 1.66699 17.5871 1.66699 16.6667C1.66699 15.7462 2.41318 15 3.33366 15C4.25412 15 5.00033 15.7462 5.00033 16.6667Z" stroke="white" stroke-width="1.5" stroke-linecap="round" stroke-linejoin="round"/>
<path d="M5.00033 10C5.00033 10.9205 4.25412 11.6667 3.33366 11.6667C2.41318 11.6667 1.66699 10.9205 1.66699 10C1.66699 9.07954 2.41318 8.33334 3.33366 8.33334C4.25412 8.33334 5.00033 9.07954 5.00033 10Z" stroke="white" stroke-width="1.5" stroke-linecap="round" stroke-linejoin="round"/>
<path d="M11.6663 10C11.6663 10.9205 10.9201 11.6667 9.99967 11.6667C9.07922 11.6667 8.33301 10.9205 8.33301 10C8.33301 9.07954 9.07922 8.33334 9.99967 8.33334C10.9201 8.33334 11.6663 9.07954 11.6663 10Z" stroke="white" stroke-width="1.5" stroke-linecap="round" stroke-linejoin="round"/>
</svg>
