<svg width="20" height="20" viewBox="0 0 20 20" fill="none" xmlns="http://www.w3.org/2000/svg">
<path fill-rule="evenodd" clip-rule="evenodd" d="M9.99966 18.75C11.3416 18.75 13.636 17 13.636 10C13.636 3 11.3416 1.25 9.99966 1.25C8.65778 1.25 6.36328 3.11793 6.36328 10C6.36328 16.8821 8.65778 18.75 9.99966 18.75Z" stroke="#FFDC36" stroke-width="1.5" stroke-linecap="round" stroke-linejoin="round"/>
<path fill-rule="evenodd" clip-rule="evenodd" d="M2.12674 14.5834C2.7977 15.7552 5.51953 16.8421 11.8179 13.1755C18.1162 9.50881 18.5436 6.58852 17.8727 5.41672C17.2017 4.24493 14.3738 3.21973 8.18153 6.82464C1.98927 10.4295 1.4558 13.4116 2.12674 14.5834Z" stroke="#FFDC36" stroke-width="1.5" stroke-linecap="round" stroke-linejoin="round"/>
<path fill-rule="evenodd" clip-rule="evenodd" d="M2.12674 5.41672C1.4558 6.58852 1.88316 9.50881 8.18154 13.1755C14.4799 16.8421 17.2017 15.7552 17.8727 14.5834C18.5436 13.4116 18.0102 10.4295 11.8179 6.82464C5.62562 3.21973 2.79771 4.24493 2.12674 5.41672Z" stroke="#FFDC36" stroke-width="1.5" stroke-linecap="round" stroke-linejoin="round"/>
</svg>
