<svg width="20" height="20" viewBox="0 0 20 20" fill="none" xmlns="http://www.w3.org/2000/svg">
<path fill-rule="evenodd" clip-rule="evenodd" d="M9.79224 19.0005C14.8778 19.0005 19.0005 14.8778 19.0005 9.79224C19.0005 4.70666 14.8778 0.583984 9.79224 0.583984C4.70666 0.583984 0.583984 4.70666 0.583984 9.79224C0.583984 14.8778 4.70666 19.0005 9.79224 19.0005ZM9.79224 17.5838C5.48906 17.5838 2.00064 14.0954 2.00064 9.79224C2.00064 5.48906 5.48906 2.00064 9.79224 2.00064C14.0954 2.00064 17.5838 5.48906 17.5838 9.79224C17.5838 14.0954 14.0954 17.5838 9.79224 17.5838ZM8.84789 6.95893V9.08391H6.72291C6.33171 9.08391 6.01458 9.40104 6.01458 9.79224C6.01458 10.1834 6.33171 10.5006 6.72291 10.5006H8.84789V12.6255C8.84789 13.0167 9.16502 13.3339 9.55622 13.3339C9.94742 13.3339 10.2645 13.0167 10.2645 12.6255V10.5006H12.3895C12.7807 10.5006 13.0979 10.1834 13.0979 9.79224C13.0979 9.40104 12.7807 9.08391 12.3895 9.08391H10.2645V6.95893C10.2645 6.56773 9.94742 6.2506 9.55622 6.2506C9.16502 6.2506 8.84789 6.56773 8.84789 6.95893Z" fill="#FFDC36"/>
</svg>
