<svg width="20" height="20" viewBox="0 0 20 20" fill="none" xmlns="http://www.w3.org/2000/svg">
<path fill-rule="evenodd" clip-rule="evenodd" d="M3.82739 3.57788C2.55819 4.84708 2.55819 6.90487 3.82739 8.17407C5.0966 9.44328 7.15439 9.44327 8.42359 8.17407C9.69279 6.90487 9.69279 4.84708 8.42359 3.57788C7.15438 2.30867 5.0966 2.30868 3.82739 3.57788ZM4.88805 7.11341C4.20464 6.43 4.20464 5.32196 4.88806 4.63854C5.57147 3.95512 6.67951 3.95512 7.36293 4.63854C8.04635 5.32195 8.04635 6.42999 7.36293 7.11341C6.67951 7.79683 5.57147 7.79683 4.88805 7.11341ZM12.077 11.8275C10.8078 13.0967 10.8078 15.1544 12.077 16.4237C13.3462 17.6929 15.404 17.6928 16.6732 16.4236C17.9424 15.1544 17.9424 13.0967 16.6732 11.8275C15.404 10.5582 13.3462 10.5583 12.077 11.8275ZM13.1376 15.363C12.4542 14.6796 12.4542 13.5715 13.1376 12.8881C13.8211 12.2047 14.9291 12.2047 15.6125 12.8881C16.2959 13.5715 16.2959 14.6796 15.6125 15.363C14.9291 16.0464 13.821 16.0464 13.1376 15.363Z" fill="#FFDC36"/>
<line x1="4.86125" y1="15.7118" x2="14.3573" y2="4.13842" stroke="#FFDC36" stroke-width="2" stroke-linecap="round"/>
</svg>
