<svg width="20" height="20" viewBox="0 0 20 20" fill="none" xmlns="http://www.w3.org/2000/svg">
<path fill-rule="evenodd" clip-rule="evenodd" d="M9.61406 3.30627C9.86511 3.22469 10.1355 3.22469 10.3866 3.30627C10.4833 3.33767 10.61 3.40513 10.8296 3.59157C11.0559 3.78369 11.328 4.05496 11.7327 4.45973L15.0837 7.81065V12.7C15.0837 13.5525 15.0831 14.1467 15.0453 14.6093C15.0082 15.0632 14.9391 15.324 14.8384 15.5215C14.6227 15.9448 14.2785 16.289 13.8551 16.5048C13.6576 16.6054 13.3969 16.6745 12.943 16.7116C12.4803 16.7494 11.8861 16.75 11.0337 16.75H8.967C8.11454 16.75 7.5203 16.7494 7.05767 16.7116C6.6038 16.6745 6.34303 16.6054 6.14551 16.5048C5.72215 16.289 5.37794 15.9448 5.16223 15.5215C5.06159 15.324 4.99246 15.0632 4.95537 14.6093C4.91757 14.1467 4.91699 13.5525 4.91699 12.7V7.81065L8.26792 4.45973C8.67268 4.05496 8.94478 3.78369 9.17109 3.59157C9.3907 3.40513 9.51739 3.33767 9.61406 3.30627ZM3.41699 9.31065L2.19732 10.5303C1.90443 10.8232 1.42956 10.8232 1.13666 10.5303C0.843769 10.2374 0.843769 9.76256 1.13666 9.46966L7.20726 3.39907L7.22877 3.37756L7.22878 3.37755C7.60647 2.99984 7.92173 2.68457 8.20032 2.44806C8.49089 2.20139 8.79054 1.99665 9.15053 1.87968C9.70285 1.70022 10.2978 1.70022 10.8501 1.87968C11.2101 1.99665 11.5098 2.20139 11.8003 2.44806C12.0789 2.68457 12.3942 2.99985 12.7719 3.37756L12.7934 3.39907L18.864 9.46966C19.1569 9.76256 19.1569 10.2374 18.864 10.5303C18.5711 10.8232 18.0962 10.8232 17.8033 10.5303L16.5837 9.31065V12.7V12.7321C16.5837 13.545 16.5837 14.2006 16.5403 14.7315C16.4956 15.2781 16.4013 15.7582 16.1749 16.2025C15.8154 16.9081 15.2417 17.4817 14.5361 17.8413C14.0919 18.0676 13.6118 18.162 13.0651 18.2066C12.5342 18.25 11.8786 18.25 11.0657 18.25H11.0337H8.967H8.93492C8.12207 18.25 7.46644 18.25 6.93552 18.2066C6.38889 18.162 5.90875 18.0676 5.46453 17.8413C4.75892 17.4817 4.18524 16.9081 3.82572 16.2025C3.59938 15.7582 3.50502 15.2781 3.46035 14.7315C3.41698 14.2006 3.41698 13.5449 3.41699 12.7321L3.41699 12.7V9.31065Z" fill="#FFDC36"/>
</svg>
