<svg width="20" height="20" viewBox="0 0 20 20" fill="none" xmlns="http://www.w3.org/2000/svg">
<path fill-rule="evenodd" clip-rule="evenodd" d="M7.41663 5.83333C7.41663 4.4066 8.57323 3.25 9.99996 3.25C11.4267 3.25 12.5833 4.4066 12.5833 5.83333C12.5833 7.26007 11.4267 8.41667 9.99996 8.41667C8.57323 8.41667 7.41663 7.26007 7.41663 5.83333ZM9.99996 1.75C7.7448 1.75 5.91663 3.57817 5.91663 5.83333C5.91663 8.0885 7.7448 9.91667 9.99996 9.91667C12.2551 9.91667 14.0833 8.0885 14.0833 5.83333C14.0833 3.57817 12.2551 1.75 9.99996 1.75ZM4.91663 15.8333C4.91663 14.4066 6.07322 13.25 7.49996 13.25H12.5C13.9267 13.25 15.0833 14.4066 15.0833 15.8333C15.0833 16.3396 14.6729 16.75 14.1666 16.75H5.83329C5.32703 16.75 4.91663 16.3396 4.91663 15.8333ZM7.49996 11.75C5.2448 11.75 3.41663 13.5782 3.41663 15.8333C3.41663 17.168 4.4986 18.25 5.83329 18.25H14.1666C15.5013 18.25 16.5833 17.168 16.5833 15.8333C16.5833 13.5782 14.7551 11.75 12.5 11.75H7.49996Z" fill="#FFDC36"/>
</svg>
