<svg width="18" height="20" viewBox="0 0 18 20" fill="none" xmlns="http://www.w3.org/2000/svg">
<path d="M2.75033 9.1865V10.1865L2.75223 10.1865L2.75033 9.1865ZM15.2503 9.1865L15.2408 10.1865H15.2503V9.1865ZM3.83366 9.16666C3.83366 9.71895 4.28137 10.1667 4.83366 10.1667C5.38594 10.1667 5.83366 9.71895 5.83366 9.16666H3.83366ZM4.83366 5.83529H5.83366L5.83366 5.83427L4.83366 5.83529ZM8.61945 1.68798L8.7189 2.68303L8.7189 2.68303L8.61945 1.68798ZM10.0003 12.5C10.0003 11.9477 9.55261 11.5 9.00033 11.5C8.44804 11.5 8.00033 11.9477 8.00033 12.5H10.0003ZM8.00033 15C8.00033 15.5523 8.44804 16 9.00033 16C9.55261 16 10.0003 15.5523 10.0003 15H8.00033ZM15.2503 10.1865C15.1583 10.1865 15.0837 10.1119 15.0837 10.0198H17.0837C17.0837 9.00731 16.2628 8.1865 15.2503 8.1865V10.1865ZM15.0837 10.0198V17.5198H17.0837V10.0198H15.0837ZM15.0837 17.5198C15.0837 17.4278 15.1583 17.3532 15.2503 17.3532V19.3532C16.2628 19.3532 17.0837 18.5324 17.0837 17.5198H15.0837ZM15.2503 17.3532H2.75033V19.3532H15.2503V17.3532ZM2.75033 17.3532C2.84237 17.3532 2.91699 17.4278 2.91699 17.5198H0.916992C0.916992 18.5324 1.7378 19.3532 2.75033 19.3532V17.3532ZM2.91699 17.5198V10.0198H0.916992V17.5198H2.91699ZM2.91699 10.0198C2.91699 10.1119 2.84237 10.1865 2.75033 10.1865V8.1865C1.7378 8.1865 0.916992 9.00731 0.916992 10.0198H2.91699ZM5.83366 9.16666V5.83529H3.83366V9.16666H5.83366ZM5.83366 5.83427C5.83202 4.21763 7.07061 2.84776 8.7189 2.68303L8.52001 0.69294C5.86562 0.958219 3.83096 3.17421 3.83366 5.8363L5.83366 5.83427ZM8.7189 2.68303C10.3989 2.51512 12.167 3.62015 12.167 5.83332H14.167C14.167 2.2131 11.1426 0.430833 8.52 0.69294L8.7189 2.68303ZM8.00033 12.5V15H10.0003V12.5H8.00033ZM2.75223 10.1865L13.1689 10.1667L13.1651 8.16667L2.74842 8.1865L2.75223 10.1865ZM13.1575 10.1666L15.2408 10.1865L15.2598 8.18654L13.1765 8.16671L13.1575 10.1666ZM14.167 9.16666V5.83332H12.167V9.16666H14.167Z" fill="#2B3048"/>
</svg>
