<svg width="150" height="150" viewBox="0 0 150 150" fill="none" xmlns="http://www.w3.org/2000/svg">
<path d="M50.1568 21.5765C50.1568 21.5765 27.4258 33.1565 16.0888 51.0005C4.75178 68.8445 5.64878 91.8005 19.4248 108.841C33.2008 125.881 59.5318 123.643 81.5788 134.437C103.626 145.231 127.95 143.008 138.375 120.139C148.8 97.2695 133.08 88.7225 130.38 62.2565C127.68 35.7905 103.821 -2.96346 50.1568 21.5765Z" fill="#FFDC36"/>
<path opacity="0.7" d="M50.1568 21.5765C50.1568 21.5765 27.4258 33.1565 16.0888 51.0005C4.75178 68.8445 5.64878 91.8005 19.4248 108.841C33.2008 125.881 59.5318 123.643 81.5788 134.437C103.626 145.231 127.95 143.008 138.375 120.139C148.8 97.2695 133.08 88.7225 130.38 62.2565C127.68 35.7905 103.821 -2.96346 50.1568 21.5765Z" fill="white"/>
<path d="M37.0503 113.544C37.9503 113.244 39.5463 111.777 39.5463 111.774C39.5463 111.771 38.2623 111.027 38.1753 110.991C37.1643 110.565 34.9593 110.337 34.1583 111.27C34.0316 111.429 33.9395 111.613 33.8878 111.809C33.8361 112.005 33.8261 112.21 33.8583 112.411C33.8905 112.612 33.9642 112.803 34.0748 112.974C34.1853 113.144 34.3303 113.289 34.5003 113.4C35.2083 113.904 36.2703 113.796 37.0503 113.544Z" fill="#9C9C9C"/>
<path d="M53.6681 99.4024C53.6891 99.4024 53.0081 98.0734 52.9541 97.9924C52.3541 97.0924 50.6321 95.6734 49.4501 96.0094C49.2552 96.0707 49.0754 96.1723 48.9223 96.3076C48.7692 96.4429 48.6463 96.6088 48.5614 96.7946C48.4766 96.9805 48.4317 97.182 48.4298 97.3863C48.4278 97.5906 48.4688 97.793 48.5501 97.9804C48.8711 98.7844 49.8161 99.2824 50.6081 99.5014C51.5381 99.7594 53.6651 99.4054 53.6681 99.4024Z" fill="#9C9C9C"/>
<path d="M41.7546 117.717C42.5286 117.21 43.5966 115.515 43.6806 115.38C44.6489 115.993 45.6572 116.54 46.6986 117.018C47.2986 117.3 47.9226 117.567 48.5466 117.825C48.2466 117.747 47.9736 117.684 47.9466 117.678C46.8576 117.534 44.6706 117.897 44.1456 119.007C44.0633 119.194 44.0215 119.397 44.023 119.602C44.0245 119.807 44.0691 120.009 44.1541 120.195C44.239 120.382 44.3623 120.548 44.516 120.683C44.6696 120.819 44.8501 120.92 45.0456 120.981C45.8616 121.281 46.8456 120.888 47.5446 120.438C48.2436 119.988 49.1796 118.551 49.4226 118.17L50.1426 118.47C51.2976 118.929 52.4496 119.37 53.5686 119.862C53.9616 120.03 54.3426 120.213 54.7266 120.39C54.4566 120.324 54.2316 120.27 54.1956 120.267C53.1066 120.123 50.9226 120.486 50.3946 121.596C50.3123 121.783 50.2706 121.986 50.2721 122.19C50.2735 122.395 50.3182 122.597 50.4032 122.783C50.4882 122.969 50.6115 123.135 50.7651 123.27C50.9188 123.405 51.0992 123.506 51.2946 123.567C52.1136 123.867 53.1096 123.474 53.7936 123.024C54.4776 122.574 55.3356 121.278 55.6296 120.828C56.0136 121.023 56.4006 121.218 56.7666 121.428C57.0126 121.575 57.2616 121.698 57.5016 121.86L58.2156 122.319C58.6566 122.619 59.1156 122.943 59.5416 123.255C59.8416 123.471 60.1176 123.681 60.3996 123.891C60.0096 123.72 59.2386 123.396 59.1696 123.378C58.1166 123.078 55.8996 123.099 55.2126 124.116C55.1025 124.288 55.03 124.482 54.9998 124.684C54.9696 124.886 54.9824 125.092 55.0373 125.289C55.0923 125.485 55.1881 125.668 55.3186 125.826C55.4491 125.983 55.6113 126.111 55.7946 126.201C56.5566 126.612 57.5946 126.384 58.3476 126.042C59.1666 125.667 60.4476 124.218 60.5916 124.035C61.0566 124.386 61.5066 124.731 61.9236 125.064C63.1416 126.027 64.1556 126.894 64.9236 127.572L65.5236 127.026C64.7196 126.348 63.6456 125.466 62.3526 124.488C61.8816 124.131 61.3716 123.756 60.8526 123.378C61.1295 122.824 61.3739 122.254 61.5846 121.671C62.5056 121.764 64.2396 121.287 64.4646 121.224C64.6596 121.773 64.8426 122.31 65.0076 122.817C65.4816 124.266 65.8446 125.517 66.1116 126.51L66.7836 125.91C66.5046 124.983 66.1446 123.852 65.6976 122.577C65.5026 122.019 65.2836 121.428 65.0496 120.822C65.2566 120.705 66.9246 119.733 67.4496 119.001C67.9266 118.335 68.3496 117.354 68.0916 116.523C68.0372 116.326 67.9421 116.143 67.8125 115.986C67.6829 115.828 67.5218 115.7 67.3394 115.609C67.157 115.517 66.9575 115.465 66.7538 115.456C66.5501 115.446 66.3466 115.48 66.1566 115.554C65.0256 116.037 64.5756 118.206 64.6746 119.298C64.6746 119.364 64.8246 120.057 64.9206 120.498C64.8246 120.249 64.7346 120.009 64.6206 119.757C64.4226 119.253 64.2096 118.758 63.9846 118.224C63.8646 117.969 63.7476 117.714 63.6246 117.456C63.5016 117.198 63.3576 116.937 63.2226 116.673C62.9016 116.073 62.5446 115.473 62.1696 114.873C62.6106 114.699 64.1616 114.057 64.7376 113.469C65.3136 112.881 65.8776 111.969 65.7456 111.12C65.7224 110.917 65.6568 110.722 65.5529 110.546C65.4491 110.37 65.3094 110.219 65.143 110.101C64.9765 109.983 64.7871 109.901 64.587 109.861C64.3869 109.821 64.1806 109.824 63.9816 109.869C62.7816 110.169 62.0166 112.251 61.9506 113.346C61.9506 113.412 61.9866 114.204 62.0166 114.639C61.7886 114.285 61.5636 113.931 61.3236 113.58C60.6276 112.569 59.8896 111.567 59.1606 110.565C58.9356 110.265 58.7166 109.95 58.4976 109.641C58.6536 109.581 60.5136 108.858 61.1586 108.201C61.7316 107.601 62.2986 106.701 62.1696 105.849C62.146 105.646 62.08 105.451 61.9759 105.275C61.8717 105.099 61.7318 104.947 61.5651 104.829C61.3984 104.711 61.2088 104.63 61.0085 104.59C60.8082 104.55 60.6018 104.553 60.4026 104.598C59.2026 104.898 58.4376 106.98 58.3716 108.075C58.3716 108.159 58.4256 109.296 58.4556 109.575C57.9696 108.894 57.4926 108.213 57.0486 107.523C56.4433 106.595 55.9001 105.628 55.4226 104.628C55.4946 104.601 57.4386 103.854 58.0986 103.179C58.6716 102.579 59.2386 101.679 59.1096 100.83C59.0864 100.627 59.0208 100.432 58.9169 100.256C58.8131 100.08 58.6734 99.9286 58.507 99.8106C58.3405 99.6925 58.1511 99.6109 57.951 99.571C57.7509 99.5311 57.5446 99.5338 57.3456 99.579C56.1456 99.879 55.3806 101.961 55.3146 103.056C55.3146 103.128 55.3536 103.995 55.3836 104.406L55.3176 104.424C54.8612 103.406 54.4977 102.349 54.2316 101.265C54.0786 100.665 53.9646 100.092 53.8656 99.531C54.2406 99.429 55.9656 98.946 56.6196 98.403C57.2736 97.86 57.9156 97.044 57.8826 96.177C57.8809 95.9728 57.8364 95.7713 57.7519 95.5855C57.6675 95.3997 57.5449 95.2337 57.3922 95.0982C57.2395 94.9628 57.06 94.8609 56.8654 94.7992C56.6709 94.7374 56.4655 94.7173 56.2626 94.74C55.0476 94.911 54.0486 96.891 53.8626 97.974C53.8626 98.031 53.8146 98.64 53.7936 99.084C53.7546 98.829 53.7066 98.568 53.6736 98.322C53.5446 97.401 53.4816 96.552 53.4306 95.799C53.4066 95.37 53.3946 94.98 53.3856 94.617C53.7006 94.317 54.9666 93.117 55.2966 92.358C55.6266 91.599 55.8216 90.558 55.3926 89.802C55.2976 89.621 55.1656 89.4622 55.0051 89.3357C54.8446 89.2092 54.6592 89.1179 54.4611 89.0678C54.263 89.0177 54.0566 89.0099 53.8552 89.0449C53.6539 89.0799 53.4622 89.157 53.2926 89.271C52.2906 89.985 52.3176 92.202 52.6506 93.249C52.6806 93.339 53.2896 94.701 53.3076 94.686L53.3256 94.668C53.3256 95.016 53.3256 95.391 53.3496 95.802C53.3826 96.558 53.4246 97.413 53.5356 98.34C53.6438 99.3388 53.8101 100.33 54.0336 101.31C54.2785 102.41 54.6219 103.485 55.0596 104.523L55.0776 104.559C54.8436 104.286 54.1626 103.545 54.1026 103.494C53.2746 102.774 51.2496 101.871 50.2026 102.507C50.0307 102.617 49.884 102.762 49.772 102.933C49.66 103.104 49.5853 103.296 49.5528 103.498C49.5202 103.699 49.5305 103.906 49.5831 104.103C49.6356 104.3 49.7291 104.484 49.8576 104.643C50.3796 105.336 51.4206 105.567 52.2426 105.57C53.1666 105.57 54.9906 104.745 55.1376 104.67C55.6075 105.716 56.1467 106.729 56.7516 107.703C57.0996 108.27 57.4686 108.834 57.8466 109.392C57.6366 109.164 57.4476 108.96 57.4176 108.933C56.5896 108.216 54.5646 107.31 53.5176 107.946C53.3457 108.056 53.199 108.201 53.087 108.372C52.975 108.543 52.9003 108.735 52.8678 108.937C52.8352 109.138 52.8455 109.345 52.8981 109.542C52.9506 109.739 53.0441 109.923 53.1726 110.082C53.6916 110.778 54.7356 111.006 55.5576 111.009C56.3796 111.012 57.9576 110.337 58.3716 110.154C58.5186 110.367 58.6716 110.583 58.8126 110.796C59.5206 111.813 60.2316 112.83 60.9126 113.844C61.1496 114.204 61.3686 114.564 61.5876 114.924C61.4016 114.72 61.2426 114.552 61.2156 114.528C60.3876 113.808 58.3626 112.905 57.3156 113.541C57.1439 113.651 56.9975 113.797 56.8858 113.968C56.7741 114.139 56.6997 114.331 56.6674 114.533C56.6352 114.734 56.6457 114.94 56.6985 115.137C56.7513 115.335 56.845 115.518 56.9736 115.677C57.4926 116.37 58.5366 116.601 59.3556 116.604C60.1746 116.607 61.6056 116.004 62.0976 115.782C62.3136 116.157 62.5296 116.532 62.7186 116.907C62.8446 117.165 62.9826 117.405 63.0906 117.672C63.1986 117.939 63.3216 118.194 63.4326 118.449C63.6336 118.953 63.8406 119.469 64.0326 119.964C64.1616 120.306 64.2786 120.636 64.3956 120.966C64.1676 120.606 63.6996 119.913 63.6546 119.859C63.0009 119.145 62.1743 118.612 61.2546 118.311C61.1863 118.228 61.1099 118.151 61.0266 118.083C60.8731 117.949 60.693 117.848 60.498 117.788C60.3031 117.728 60.0977 117.709 59.8952 117.734C59.6926 117.758 59.4974 117.824 59.3223 117.929C59.1472 118.034 58.996 118.174 58.8786 118.341C58.2006 119.367 59.0226 121.425 59.7096 122.283C59.7486 122.334 60.2496 122.832 60.5706 123.141L59.8926 122.7C59.4516 122.4 58.9926 122.1 58.5186 121.773L57.7956 121.329C57.5556 121.176 57.2856 121.044 57.0276 120.9C56.4276 120.576 55.8006 120.276 55.1646 120C55.4346 119.613 56.3646 118.224 56.5296 117.414C56.6946 116.604 56.6556 115.542 56.0766 114.897C55.9451 114.741 55.7822 114.614 55.5985 114.525C55.4148 114.436 55.2145 114.387 55.0105 114.38C54.8065 114.374 54.6034 114.41 54.4145 114.488C54.2255 114.565 54.0548 114.681 53.9136 114.828C53.0886 115.728 53.5896 117.897 54.1356 118.848C54.1716 118.908 54.6396 119.544 54.9066 119.889C54.5226 119.721 54.1386 119.55 53.7456 119.391C52.6056 118.932 51.4386 118.491 50.2776 118.068C49.9206 117.936 49.5666 117.798 49.2126 117.663C49.3116 117.528 50.4636 115.899 50.6376 114.993C50.7936 114.189 50.7666 113.121 50.1846 112.476C50.0531 112.32 49.8902 112.193 49.7065 112.104C49.5228 112.015 49.3225 111.966 49.1185 111.959C48.9145 111.953 48.7114 111.989 48.5225 112.067C48.3335 112.144 48.1628 112.26 48.0216 112.407C47.1966 113.307 47.6976 115.476 48.2466 116.427C48.2856 116.499 48.9636 117.414 49.1466 117.627C48.3666 117.327 47.5926 117.027 46.8396 116.694C45.8231 116.254 44.837 115.747 43.8876 115.176C43.9326 115.113 45.1446 113.418 45.3216 112.491C45.4746 111.687 45.4476 110.619 44.8686 109.974C44.7371 109.818 44.5742 109.691 44.3905 109.602C44.2068 109.513 44.0065 109.464 43.8025 109.457C43.5985 109.451 43.3954 109.487 43.2065 109.565C43.0175 109.642 42.8468 109.758 42.7056 109.905C41.8806 110.805 42.3816 112.974 42.9276 113.925C42.9636 113.988 43.4796 114.687 43.7346 115.014L43.6866 115.065C42.7456 114.466 41.8601 113.785 41.0406 113.028C40.5816 112.617 40.1676 112.2 39.7746 111.783C40.0326 111.483 41.1966 110.142 41.4516 109.323C41.7066 108.504 41.7816 107.475 41.2776 106.773C41.1632 106.604 41.0146 106.461 40.8413 106.353C40.6681 106.245 40.4741 106.174 40.2719 106.146C40.0696 106.118 39.8637 106.132 39.6675 106.188C39.4712 106.245 39.289 106.342 39.1326 106.473C38.2146 107.289 38.4756 109.491 38.9136 110.496C38.9376 110.55 39.2436 111.078 39.4716 111.459C39.2976 111.27 39.1146 111.078 38.9496 110.892C38.3496 110.196 37.8126 109.521 37.3566 108.918C37.0986 108.573 36.8736 108.258 36.6636 107.961C36.7686 107.541 37.1646 105.846 37.0146 105.021C36.8646 104.196 36.4566 103.221 35.6826 102.837C35.504 102.739 35.3066 102.679 35.1034 102.662C34.9002 102.645 34.6958 102.671 34.5033 102.739C34.3109 102.806 34.1348 102.913 33.9865 103.053C33.8382 103.193 33.721 103.363 33.6426 103.551C33.2016 104.697 34.4466 106.53 35.2986 107.22C35.3736 107.28 36.6336 108.078 36.6396 108.057C36.6403 108.048 36.6403 108.039 36.6396 108.03C36.8346 108.33 37.0476 108.63 37.2846 108.966C37.7286 109.566 38.2386 110.268 38.8416 110.979C39.4838 111.753 40.17 112.489 40.8966 113.184C41.7082 113.96 42.5866 114.663 43.5216 115.284L43.5576 115.305C43.2126 115.206 42.2346 114.963 42.1566 114.954C41.0676 114.81 38.8836 115.173 38.3556 116.283C38.2733 116.47 38.2315 116.673 38.233 116.878C38.2345 117.083 38.2791 117.285 38.3641 117.471C38.449 117.658 38.5723 117.824 38.726 117.959C38.8796 118.095 39.0601 118.196 39.2556 118.257C40.0746 118.551 41.0706 118.17 41.7546 117.717Z" fill="#9C9C9C"/>
<path d="M97.8822 41.6122C98.5242 42.6862 100.837 44.2612 100.84 44.2612C100.843 44.2612 101.416 42.4222 101.44 42.2992C101.686 40.8982 101.338 38.0422 99.9402 37.2982C99.7026 37.181 99.443 37.1152 99.1783 37.1049C98.9136 37.0947 98.6497 37.1403 98.4038 37.2388C98.1579 37.3372 97.9354 37.4864 97.751 37.6765C97.5665 37.8666 97.4242 38.0935 97.3332 38.3422C96.8982 39.3862 97.3362 40.7002 97.8822 41.6122Z" fill="#9C9C9C"/>
<path d="M120.566 58.5754C120.566 58.6024 122.066 57.3573 122.147 57.2673C123.128 56.2323 124.412 53.6673 123.647 52.2603C123.513 52.0315 123.333 51.8333 123.118 51.6787C122.903 51.5241 122.657 51.4166 122.398 51.3631C122.138 51.3096 121.87 51.3113 121.612 51.3682C121.353 51.4252 121.109 51.5359 120.896 51.6933C119.969 52.3323 119.612 53.6703 119.561 54.7323C119.504 55.9804 120.566 58.5724 120.566 58.5754Z" fill="#9C9C9C"/>
<path d="M93.9534 48.7743C94.8204 49.6053 97.2745 50.4693 97.4695 50.5353C96.9744 51.938 96.5735 53.3722 96.2695 54.8283C96.0865 55.6743 95.9274 56.5353 95.7804 57.3993C95.7804 56.9943 95.7804 56.6313 95.7804 56.5803C95.6484 55.1643 94.5594 52.5003 93.0024 52.1553C92.7422 52.1046 92.4743 52.1094 92.216 52.1692C91.9578 52.229 91.715 52.3426 91.5036 52.5025C91.2921 52.6625 91.1168 52.8651 90.9889 53.0973C90.861 53.3296 90.7835 53.5861 90.7614 53.8503C90.6294 54.9693 91.4034 56.1213 92.1714 56.8503C92.9394 57.5793 95.0274 58.3773 95.5794 58.5753C95.5254 58.9053 95.4685 59.2383 95.4175 59.5683C95.1685 61.1613 94.9284 62.7513 94.6434 64.3053C94.5444 64.8513 94.4244 65.3883 94.3074 65.9253C94.3074 65.5653 94.3074 65.2623 94.3074 65.2173C94.1754 63.7983 93.0864 61.1373 91.5294 60.7893C91.2692 60.7391 91.0013 60.7443 90.7433 60.8045C90.4852 60.8648 90.2427 60.9787 90.0315 61.1389C89.8204 61.2991 89.6454 61.5019 89.5178 61.7342C89.3903 61.9666 89.3132 62.2232 89.2914 62.4873C89.1594 63.6033 89.9304 64.7553 90.6984 65.4873C91.4664 66.2193 93.3534 66.9333 93.9984 67.1733C93.8634 67.7193 93.7285 68.2653 93.5725 68.7873C93.4555 69.1413 93.3714 69.4893 93.2364 69.8403L92.8585 70.8753C92.5975 71.5233 92.3304 72.1953 92.0574 72.8253C91.8714 73.2603 91.6855 73.6743 91.4995 74.0913C91.6045 73.5483 91.7995 72.4803 91.7995 72.3903C91.8835 70.9683 91.1994 68.1723 89.7234 67.5903C89.4738 67.5008 89.208 67.465 88.9436 67.4851C88.6791 67.5052 88.4218 67.5809 88.1886 67.7072C87.9553 67.8334 87.7513 68.0074 87.5898 68.2178C87.4284 68.4282 87.3131 68.6703 87.2515 68.9283C86.9515 70.0113 87.5514 71.2683 88.1874 72.1113C88.9014 73.0413 91.1005 74.2293 91.3765 74.3763C91.0765 75.0633 90.7585 75.7323 90.4585 76.3563C89.5885 78.1773 88.7844 79.7073 88.1484 80.8803L89.0155 81.4983C89.6455 80.2983 90.4495 78.6753 91.3135 76.7553C91.6315 76.0563 91.9585 75.3033 92.2855 74.5263C93.0659 74.7191 93.8574 74.8644 94.6554 74.9613C94.8054 76.1613 95.9064 78.2133 96.0504 78.4773C95.4114 78.8823 94.7875 79.2693 94.1905 79.6233C92.4955 80.6433 91.0044 81.4653 89.8374 82.0863L90.7824 82.7613C91.8774 82.1433 93.2034 81.3633 94.6824 80.4303C95.3334 80.0223 96.0205 79.5723 96.7195 79.1043C96.9265 79.3323 98.6365 81.1623 99.7195 81.6183C100.7 82.0293 102.062 82.2843 103.037 81.7173C103.271 81.5927 103.476 81.4202 103.639 81.211C103.802 81.0019 103.918 80.7607 103.982 80.5033C104.045 80.246 104.053 79.9782 104.005 79.7175C103.958 79.4568 103.856 79.209 103.706 78.9903C102.77 77.6973 99.8965 77.7543 98.5405 78.1953C98.4625 78.2223 97.6255 78.6003 97.1035 78.8493C97.3885 78.6573 97.6675 78.4713 97.9585 78.2703C98.5375 77.8743 99.1045 77.4633 99.7135 77.0253L100.583 76.3503C100.883 76.1283 101.162 75.8613 101.456 75.6153C102.125 75.0333 102.776 74.4153 103.415 73.7673C103.763 74.2713 105.023 76.0503 105.932 76.6083C106.841 77.1663 108.149 77.6223 109.196 77.2083C109.447 77.1205 109.675 76.981 109.868 76.7988C110.061 76.6167 110.213 76.396 110.314 76.1512C110.416 75.9064 110.465 75.6429 110.458 75.3779C110.451 75.1129 110.388 74.8524 110.273 74.6133C109.544 73.1943 106.691 72.8133 105.287 73.0443C105.2 73.0593 104.21 73.3443 103.67 73.5003C104.051 73.1133 104.435 72.7263 104.807 72.3183C105.887 71.1483 106.943 69.9183 107.999 68.7183C108.323 68.3463 108.653 67.9803 108.977 67.6143C109.1 67.7943 110.549 69.9393 111.569 70.5663C112.469 71.1213 113.786 71.5803 114.836 71.1663C115.086 71.0782 115.315 70.9384 115.507 70.7562C115.699 70.5739 115.851 70.3532 115.952 70.1084C116.054 69.8636 116.102 69.6002 116.095 69.3354C116.088 69.0706 116.025 68.8102 115.91 68.5713C115.181 67.1523 112.328 66.7713 110.924 67.0023C110.819 67.0173 109.394 67.4223 109.037 67.5423C109.757 66.7323 110.48 65.9313 111.227 65.1693C112.229 64.1373 113.296 63.1713 114.422 62.2773C114.479 62.3613 115.982 64.6083 117.026 65.2503C117.926 65.8053 119.243 66.2613 120.293 65.8503C120.543 65.7622 120.772 65.6224 120.964 65.4402C121.156 65.2579 121.308 65.0372 121.409 64.7924C121.511 64.5476 121.559 64.2842 121.552 64.0194C121.545 63.7546 121.482 63.4942 121.367 63.2553C120.638 61.8363 117.785 61.4553 116.381 61.6893C116.288 61.6893 115.205 62.0103 114.692 62.1663L114.65 62.0853C115.809 61.2165 117.043 60.4524 118.337 59.8023C119.045 59.4363 119.741 59.1273 120.437 58.8393C120.674 59.2863 121.781 61.3173 122.657 61.9983C123.533 62.6793 124.757 63.2493 125.837 62.9553C126.095 62.8952 126.338 62.7814 126.549 62.6215C126.76 62.4616 126.935 62.259 127.062 62.027C127.19 61.7949 127.267 61.5386 127.289 61.2748C127.312 61.0109 127.278 60.7453 127.19 60.4953C126.62 58.9953 123.83 58.3113 122.408 58.3953C122.33 58.3953 121.547 58.5303 120.98 58.6293C121.28 58.5063 121.61 58.3713 121.91 58.2573C123.038 57.8283 124.094 57.5043 125.036 57.2253C125.57 57.0693 126.059 56.9253 126.515 56.8233C126.977 57.1413 128.852 58.3983 129.926 58.5933C131 58.7883 132.359 58.7403 133.187 57.9783C133.389 57.806 133.552 57.5933 133.665 57.3539C133.779 57.1145 133.841 56.8539 133.847 56.589C133.853 56.3241 133.804 56.0609 133.701 55.8165C133.599 55.572 133.446 55.3519 133.253 55.1703C132.053 54.1113 129.266 54.7833 128.039 55.5033C127.931 55.5663 126.386 56.7333 126.41 56.7513L126.437 56.7693C125.996 56.8713 125.522 56.9883 125.006 57.1233C124.061 57.3843 122.99 57.6873 121.85 58.0923C120.617 58.5222 119.409 59.023 118.232 59.5923C116.913 60.2199 115.651 60.9628 114.461 61.8123L114.422 61.8453C114.698 61.4703 115.442 60.3963 115.49 60.3063C116.162 59.0493 116.723 56.2293 115.616 55.0803C115.427 54.8954 115.2 54.7523 114.952 54.6604C114.703 54.5685 114.438 54.5298 114.174 54.5468C113.91 54.5638 113.652 54.636 113.417 54.7589C113.182 54.8818 112.976 55.0526 112.811 55.2603C112.085 56.1213 112.094 57.5073 112.328 58.5453C112.592 59.7153 114.161 61.7883 114.287 61.9533C113.1 62.8492 111.973 63.8234 110.915 64.8693C110.294 65.4693 109.691 66.1053 109.091 66.7443C109.322 66.4113 109.523 66.1113 109.547 66.0663C110.219 64.8123 110.78 61.9893 109.673 60.8433C109.484 60.6576 109.258 60.5138 109.01 60.4214C108.762 60.329 108.497 60.29 108.232 60.307C107.968 60.324 107.71 60.3966 107.475 60.52C107.241 60.6434 107.035 60.8149 106.871 61.0233C106.142 61.8813 106.151 63.2673 106.385 64.3053C106.619 65.3433 107.927 67.1553 108.278 67.6233L107.594 68.3643C106.508 69.5643 105.431 70.7493 104.336 71.8863C103.952 72.2883 103.556 72.6693 103.163 73.0533C103.367 72.7533 103.538 72.5073 103.559 72.4533C104.231 71.1993 104.792 68.3763 103.685 67.2303C103.496 67.0448 103.27 66.9011 103.022 66.8087C102.773 66.7163 102.508 66.6772 102.244 66.6939C101.979 66.7106 101.721 66.7827 101.486 66.9056C101.251 67.0285 101.045 67.1995 100.88 67.4073C100.154 68.2683 100.163 69.6543 100.397 70.6923C100.631 71.7303 101.81 73.3653 102.227 73.9263C101.813 74.3043 101.399 74.6853 100.979 75.0363C100.679 75.2673 100.424 75.5103 100.118 75.7293L99.2335 76.3833C98.6575 76.7823 98.0635 77.1933 97.4905 77.5683C97.0915 77.8293 96.7104 78.0723 96.3234 78.3183C96.7134 77.9223 97.4574 77.1333 97.5234 77.0613C98.237 76.0308 98.6748 74.8349 98.7954 73.5873C98.8802 73.4764 98.9545 73.3579 99.0175 73.2333C99.1432 73 99.2185 72.7428 99.2384 72.4785C99.2583 72.2142 99.2224 71.9486 99.133 71.6991C99.0436 71.4495 98.9027 71.2216 98.7195 71.0301C98.5362 70.8385 98.3148 70.6877 98.0695 70.5873C96.5695 70.0263 94.2084 71.6583 93.3234 72.7743C93.2694 72.8403 92.7835 73.6173 92.4835 74.1123C92.6155 73.7943 92.7474 73.4883 92.8794 73.1583C93.1434 72.5103 93.3894 71.8563 93.6534 71.1513C93.7704 70.8063 93.8904 70.4583 94.0074 70.1073C94.1244 69.7563 94.2205 69.3813 94.3315 69.0153C94.5685 68.1573 94.7664 67.2813 94.9464 66.3903C95.5134 66.6213 97.5445 67.4103 98.6125 67.3743C99.6805 67.3383 101.012 66.9963 101.669 66.0753C101.829 65.8639 101.943 65.6212 102.002 65.3631C102.062 65.1049 102.067 64.8371 102.016 64.577C101.965 64.3169 101.861 64.0704 101.708 63.8535C101.556 63.6367 101.36 63.4543 101.132 63.3183C99.7434 62.5353 97.1545 63.7923 96.1105 64.7583C96.0445 64.8213 95.3724 65.5983 95.0124 66.0333C95.1144 65.4993 95.2224 64.9653 95.3124 64.4193C95.5644 62.8443 95.7714 61.2453 95.9874 59.6493C96.0504 59.1603 96.1224 58.6743 96.1914 58.1883C96.3924 58.2723 98.7865 59.2623 99.9835 59.2203C101.045 59.1843 102.383 58.8423 103.037 57.9213C103.197 57.7101 103.311 57.4676 103.371 57.2095C103.431 56.9515 103.436 56.6838 103.385 56.4237C103.335 56.1636 103.23 55.9171 103.078 55.7001C102.927 55.4831 102.731 55.3006 102.503 55.1643C101.111 54.3843 98.5225 55.6383 97.4785 56.6073C97.4005 56.6793 96.4344 57.8073 96.2034 58.1073C96.3564 57.0363 96.5035 55.9683 96.7195 54.9213C96.9885 53.5067 97.3483 52.1108 97.7964 50.7423C97.8895 50.7813 100.382 51.8283 101.609 51.7863C102.671 51.7473 104.009 51.4083 104.663 50.4873C104.823 50.2758 104.937 50.0331 104.997 49.7748C105.057 49.5166 105.062 49.2486 105.012 48.9883C104.961 48.728 104.857 48.4812 104.705 48.264C104.553 48.0467 104.357 47.8639 104.129 47.7273C102.737 46.9473 100.151 48.2013 99.1044 49.1703C99.0354 49.2333 98.3005 50.0883 97.9585 50.5023L97.8804 50.4573C98.3617 49.0942 98.9641 47.7769 99.6804 46.5213C100.07 45.8253 100.478 45.1803 100.88 44.5623C101.324 44.8053 103.367 45.8883 104.48 45.9753C105.542 46.0533 106.913 45.8613 107.66 45.0183C107.842 44.8257 107.982 44.597 108.069 44.347C108.157 44.097 108.191 43.8313 108.169 43.5673C108.148 43.3032 108.07 43.0467 107.943 42.8145C107.815 42.5823 107.64 42.3795 107.429 42.2193C106.133 41.2893 103.424 42.2523 102.278 43.1013C102.218 43.1463 101.636 43.6833 101.219 44.0823C101.408 43.8063 101.6 43.5183 101.789 43.2573C102.491 42.2793 103.196 41.4243 103.823 40.6713C104.186 40.2483 104.522 39.8703 104.837 39.5223C105.398 39.5223 107.657 39.5463 108.659 39.1173C109.661 38.6883 110.759 37.8963 111.041 36.8043C111.114 36.5491 111.133 36.2814 111.095 36.0186C111.057 35.7559 110.965 35.504 110.823 35.2795C110.682 35.055 110.494 34.8628 110.273 34.7156C110.053 34.5685 109.803 34.4695 109.541 34.4253C107.963 34.1973 106.001 36.3033 105.374 37.5813C105.32 37.6923 104.675 39.5193 104.702 39.5193H104.738C104.438 39.8493 104.093 40.2063 103.739 40.6053C103.094 41.3433 102.368 42.1863 101.639 43.1523C100.844 44.1878 100.11 45.2686 99.4405 46.3893C98.6863 47.6409 98.0447 48.9571 97.5234 50.3223L97.5054 50.3733C97.5324 49.9053 97.5565 48.6003 97.5475 48.4983C97.4155 47.0793 96.3265 44.4183 94.7695 44.0733C94.5095 44.0231 94.2418 44.0282 93.9839 44.0883C93.726 44.1483 93.4836 44.262 93.2726 44.4218C93.0615 44.5817 92.8864 44.7842 92.7587 45.0162C92.631 45.2482 92.5536 45.5044 92.5315 45.7683C92.4145 46.8873 93.1854 48.0393 93.9534 48.7743Z" fill="#9C9C9C"/>
<path d="M112.101 101.585V100.58C112.101 95.4046 118.653 95.1796 118.653 91.4956C118.653 89.8966 117.351 88.8526 115.413 88.8526C113.292 88.8526 111.951 90.0076 111.951 91.6456V92.0566C111.951 92.4646 111.729 92.6566 111.318 92.6566L107.337 92.5066C106.965 92.5066 106.704 92.3206 106.704 92.0626V91.6516C106.704 87.1516 110.277 84.0586 115.527 84.0586C120.663 84.0586 123.975 86.9626 123.975 91.3156C123.975 97.4956 117.312 97.5346 117.312 100.916V101.585C117.322 101.67 117.313 101.757 117.285 101.838C117.256 101.92 117.21 101.994 117.149 102.055C117.088 102.116 117.014 102.162 116.933 102.19C116.851 102.218 116.765 102.228 116.679 102.218H112.734C112.649 102.228 112.562 102.218 112.48 102.19C112.399 102.162 112.325 102.116 112.264 102.055C112.203 101.994 112.157 101.92 112.129 101.838C112.1 101.757 112.091 101.67 112.101 101.585V101.585ZM111.765 107.585C111.765 105.947 113.217 104.606 114.966 104.606C116.643 104.606 118.131 105.947 118.131 107.585C118.131 109.223 116.631 110.564 114.93 110.564C113.229 110.564 111.765 109.217 111.765 107.579V107.585Z" fill="#263238"/>
<path d="M33.4414 58.9547V58.0817C33.4414 53.5817 39.1414 53.3927 39.1414 50.1917C39.1414 48.7997 38.0104 47.8967 36.3304 47.8967C34.4854 47.8967 33.3304 48.8987 33.3304 50.3207V50.6777C33.3304 51.0317 33.1384 51.1937 32.7814 51.1937L29.3224 51.0647C28.9984 51.0647 28.7734 50.9027 28.7734 50.6777V50.3207C28.7734 46.4207 31.8754 43.7207 36.4354 43.7207C40.8964 43.7207 43.7764 46.2437 43.7764 50.0207C43.7764 55.3877 37.9864 55.4207 37.9864 58.3637V58.9457C37.9951 59.0199 37.9868 59.0951 37.9623 59.1656C37.9378 59.2362 37.8976 59.3002 37.8448 59.3531C37.792 59.4059 37.7279 59.446 37.6573 59.4706C37.5868 59.4951 37.5116 59.5034 37.4374 59.4947H33.9904C33.9171 59.5031 33.8428 59.495 33.773 59.471C33.7032 59.4469 33.6396 59.4076 33.587 59.3558C33.5343 59.3041 33.4939 59.2412 33.4688 59.1718C33.4436 59.1024 33.4342 59.0282 33.4414 58.9547V58.9547ZM33.1414 64.1597C33.1414 62.7377 34.4014 61.5737 35.9194 61.5737C37.3744 61.5737 38.6704 62.7377 38.6704 64.1597C38.6704 65.5817 37.3744 66.7457 35.8894 66.7457C35.184 66.7635 34.5001 66.5016 33.987 66.0172C33.4739 65.5327 33.1732 64.865 33.1504 64.1597H33.1414Z" fill="#FFDC36"/>
<path d="M105.848 24.529V24.088C105.848 21.817 108.722 21.718 108.722 20.101C108.722 19.399 108.149 18.94 107.3 18.94C106.37 18.94 105.782 19.447 105.782 20.167V20.347C105.782 20.527 105.683 20.608 105.503 20.608L103.757 20.542C103.592 20.542 103.478 20.461 103.478 20.347V20.167C103.478 18.19 105.047 16.834 107.351 16.834C109.604 16.834 111.059 18.109 111.059 20.02C111.059 22.72 108.134 22.747 108.134 24.22V24.52C108.138 24.5576 108.134 24.5956 108.121 24.6313C108.109 24.667 108.088 24.6994 108.061 24.726C108.034 24.7526 108.002 24.7728 107.966 24.7849C107.93 24.797 107.892 24.8008 107.855 24.796H106.124C106.087 24.8006 106.05 24.797 106.015 24.7854C105.98 24.7737 105.948 24.7544 105.921 24.7288C105.895 24.7031 105.875 24.6719 105.862 24.6373C105.849 24.6027 105.844 24.5657 105.848 24.529V24.529ZM105.701 27.16C105.681 26.8795 105.747 26.5997 105.889 26.3569C106.031 26.1142 106.242 25.9198 106.496 25.7989C106.75 25.6781 107.034 25.6365 107.312 25.6794C107.59 25.7224 107.849 25.848 108.054 26.0399C108.26 26.2317 108.403 26.481 108.465 26.7552C108.527 27.0295 108.505 27.3161 108.402 27.5777C108.299 27.8392 108.119 28.0638 107.887 28.222C107.654 28.3803 107.38 28.4649 107.099 28.465C106.921 28.4714 106.744 28.4427 106.577 28.3805C106.411 28.3184 106.258 28.224 106.129 28.1027C105.999 27.9815 105.894 27.8358 105.821 27.674C105.747 27.5122 105.706 27.3376 105.701 27.16Z" fill="#FFDC36"/>
<path d="M21.6004 85.1999V84.6449C21.6004 81.7829 25.2244 81.6599 25.2244 79.6199C25.2244 78.7349 24.5044 78.1589 23.4244 78.1589C22.2514 78.1589 21.5104 78.7979 21.5104 79.7039V79.9289C21.5104 80.1569 21.3874 80.2589 21.1594 80.2589L18.9574 80.1779C18.7504 80.1779 18.6064 80.0729 18.6064 79.9289V79.7039C18.6064 77.2139 20.5834 75.5039 23.4874 75.5039C26.3284 75.5039 28.1584 77.1089 28.1584 79.5179C28.1584 82.9349 24.4744 82.9559 24.4744 84.8309V85.1999C24.4803 85.2474 24.4752 85.2956 24.4596 85.3408C24.444 85.3861 24.4184 85.4272 24.3845 85.461C24.3507 85.4948 24.3096 85.5205 24.2644 85.5361C24.2191 85.5517 24.1709 85.5567 24.1234 85.5509H21.9454C21.8984 85.5558 21.8509 85.55 21.8064 85.5339C21.762 85.5179 21.7217 85.4921 21.6885 85.4584C21.6554 85.4247 21.6303 85.3839 21.615 85.3392C21.5998 85.2945 21.5948 85.2468 21.6004 85.1999V85.1999ZM21.4144 88.5149C21.391 88.1615 21.4744 87.8092 21.654 87.5038C21.8335 87.1985 22.1008 86.9543 22.4211 86.803C22.7414 86.6517 23.0998 86.6003 23.4497 86.6555C23.7996 86.7108 24.1247 86.8701 24.3828 87.1127C24.6409 87.3553 24.8199 87.67 24.8967 88.0158C24.9734 88.3616 24.9443 88.7225 24.813 89.0515C24.6818 89.3805 24.4545 89.6624 24.1608 89.8605C23.8672 90.0585 23.5207 90.1636 23.1664 90.1619C22.715 90.1765 22.2762 90.0112 21.9465 89.7023C21.6169 89.3935 21.4233 88.9664 21.4084 88.5149H21.4144Z" stroke="#263238" stroke-miterlimit="10"/>
<path d="M49.1981 33.4151V33.0341C49.1981 31.0661 51.6911 30.9791 51.6911 29.5781C51.6911 28.9781 51.1961 28.5731 50.4581 28.5731C49.6511 28.5731 49.1411 29.0111 49.1411 29.6351V29.7911C49.1411 29.9471 49.0571 30.0161 48.9011 30.0161L47.4011 29.9591C47.2601 29.9591 47.1611 29.8901 47.1611 29.7911V29.6351C47.1611 27.9221 48.5201 26.7461 50.5151 26.7461C52.5101 26.7461 53.6981 27.8501 53.6981 29.5061C53.6981 31.8581 51.1631 31.8731 51.1631 33.1601V33.4151C51.167 33.4475 51.1634 33.4804 51.1527 33.5113C51.142 33.5422 51.1245 33.5702 51.1014 33.5933C51.0783 33.6164 51.0502 33.634 51.0194 33.6447C50.9885 33.6554 50.9556 33.659 50.9231 33.6551H49.4231C49.3919 33.6566 49.3607 33.6513 49.3317 33.6395C49.3027 33.6278 49.2766 33.6099 49.2552 33.5871C49.2338 33.5643 49.2176 33.537 49.2078 33.5074C49.1979 33.4777 49.1946 33.4462 49.1981 33.4151V33.4151ZM49.0721 35.6951C49.0589 35.4554 49.1179 35.2172 49.2415 35.0114C49.3651 34.8056 49.5476 34.6415 49.7653 34.5405C49.9831 34.4395 50.2262 34.4061 50.4631 34.4447C50.7001 34.4833 50.92 34.592 51.0945 34.7569C51.269 34.9218 51.39 35.1352 51.4419 35.3696C51.4938 35.604 51.4742 35.8486 51.3857 36.0718C51.2971 36.2949 51.1437 36.4863 50.9452 36.6214C50.7466 36.7564 50.5122 36.8287 50.2721 36.8291C49.9623 36.8396 49.6609 36.7267 49.4342 36.5152C49.2076 36.3037 49.0741 36.0109 49.0631 35.7011L49.0721 35.6951Z" fill="#263238"/>
<path d="M93.6005 115.659V115.278C93.6005 113.31 96.0935 113.226 96.0935 111.822C96.0935 111.222 95.5985 110.817 94.8605 110.817C94.0535 110.817 93.5435 111.255 93.5435 111.879V112.035C93.5435 112.191 93.4595 112.263 93.3035 112.263L91.8035 112.206C91.6625 112.206 91.5635 112.134 91.5635 112.035V111.879C91.5635 110.166 92.9225 108.99 94.9175 108.99C96.9125 108.99 98.1335 110.094 98.1335 111.753C98.1335 114.102 95.5985 114.117 95.5985 115.404V115.659C95.6022 115.692 95.5987 115.725 95.588 115.756C95.5773 115.787 95.5598 115.815 95.5367 115.838C95.5137 115.862 95.4857 115.879 95.4549 115.891C95.424 115.902 95.3911 115.906 95.3585 115.902H93.8585C93.8245 115.909 93.7895 115.907 93.7563 115.897C93.7231 115.888 93.6927 115.87 93.6676 115.846C93.6424 115.823 93.6232 115.793 93.6115 115.761C93.5999 115.728 93.5961 115.694 93.6005 115.659V115.659ZM93.4745 117.939C93.4613 117.7 93.5203 117.461 93.6438 117.256C93.7674 117.05 93.9499 116.886 94.1677 116.785C94.3855 116.684 94.6285 116.65 94.8655 116.689C95.1024 116.727 95.3224 116.836 95.4969 117.001C95.6714 117.166 95.7924 117.379 95.8443 117.614C95.8962 117.848 95.8766 118.093 95.788 118.316C95.6995 118.539 95.546 118.73 95.3475 118.865C95.149 119 94.9145 119.073 94.6745 119.073C94.3657 119.081 94.0665 118.965 93.8423 118.753C93.618 118.54 93.4869 118.248 93.4775 117.939H93.4745Z" stroke="#263238" stroke-miterlimit="10"/>
<path d="M81.8558 122.487C81.8348 122.424 81.8138 122.361 81.7898 122.298C81.7658 122.235 81.7478 122.169 81.7238 122.106C81.6998 122.043 81.6818 121.98 81.6578 121.917C81.6338 121.854 81.6158 121.788 81.5918 121.725C81.5678 121.662 81.5498 121.599 81.5258 121.536C81.5018 121.473 81.4838 121.407 81.4598 121.344L81.3938 121.155C81.3728 121.089 81.3488 121.026 81.3278 120.963L81.2618 120.774C81.2408 120.708 81.2168 120.645 81.1958 120.582L81.1298 120.393C81.1088 120.327 81.0848 120.264 81.0638 120.201L81.0008 120C80.9798 119.934 80.9558 119.871 80.9348 119.808L80.8658 119.619C80.8448 119.553 80.8238 119.49 80.7998 119.427C80.7758 119.364 80.7578 119.301 80.7338 119.238C80.7098 119.175 80.6918 119.109 80.6678 119.046C80.6438 118.983 80.6258 118.92 80.6018 118.857C79.6238 115.881 76.5998 113.697 73.2728 113.697C70.0478 113.697 67.2428 115.575 66.0728 118.221C66.0428 118.281 66.0158 118.344 65.9888 118.404L65.9078 118.59C65.8778 118.65 65.8508 118.71 65.8238 118.773C65.7968 118.836 65.7668 118.896 65.7398 118.956L65.6588 119.139C65.6288 119.202 65.6018 119.262 65.5748 119.325C65.5478 119.388 65.5178 119.445 65.4908 119.508C65.4638 119.571 65.4338 119.628 65.4068 119.691L65.3258 119.874C65.2958 119.934 65.2688 119.997 65.2418 120.057C65.2148 120.117 65.1848 120.18 65.1578 120.24L65.0768 120.426C65.0468 120.486 65.0198 120.546 64.9928 120.609C64.9658 120.672 64.9358 120.732 64.9088 120.792L64.8278 120.975C64.7978 121.038 64.7708 121.098 64.7438 121.161C64.7168 121.224 64.6868 121.281 64.6598 121.344L64.5788 121.527C64.5488 121.587 64.5218 121.65 64.4948 121.71C64.4678 121.77 64.4378 121.833 64.4108 121.896C63.8961 122.992 63.6317 124.189 63.6368 125.4C63.6368 130.23 67.8068 134.178 72.9638 134.178C78.0098 134.178 82.3988 130.23 82.3988 125.4C82.3978 124.479 82.2364 123.566 81.9218 122.7C81.9008 122.613 81.8798 122.55 81.8558 122.487Z" fill="#263238"/>
<path d="M74.7188 56.041C59.2478 56.041 48.7148 65.146 48.7148 78.424V79.624C48.7176 79.8223 48.7716 80.0165 48.8714 80.1879C48.9713 80.3592 49.1137 80.5019 49.2848 80.602C49.3496 80.6643 49.4199 80.7205 49.4948 80.77C49.5599 80.8332 49.6312 80.8895 49.7078 80.938C49.7729 81.0012 49.8442 81.0575 49.9208 81.106C49.9853 81.1699 50.0567 81.2262 50.1338 81.274C50.1978 81.3372 50.2682 81.3935 50.3438 81.442C50.4088 81.5062 50.4802 81.5635 50.5568 81.613C50.6226 81.6753 50.6939 81.7316 50.7698 81.781C50.835 81.844 50.9064 81.9003 50.9828 81.949C51.047 82.012 51.1173 82.0683 51.1928 82.117C51.2633 82.185 51.3407 82.2453 51.4238 82.297C51.485 82.3527 51.5502 82.4039 51.6188 82.45C51.6846 82.5123 51.7559 82.5686 51.8318 82.618C51.8966 82.6803 51.9669 82.7365 52.0418 82.786C52.1076 82.8483 52.1789 82.9046 52.2548 82.954C52.32 83.017 52.3914 83.0733 52.4678 83.122C52.532 83.185 52.6023 83.2413 52.6778 83.29C52.743 83.353 52.8144 83.4093 52.8908 83.458C52.955 83.521 53.0253 83.5773 53.1008 83.626C53.1666 83.6883 53.2379 83.7446 53.3138 83.794C53.378 83.857 53.4483 83.9133 53.5238 83.962C53.8705 84.267 54.3227 84.4242 54.7838 84.4L64.4318 84.76C65.4248 84.76 65.9648 84.31 65.9648 83.317V82.327C65.9648 78.358 69.2108 75.565 74.3648 75.565C79.0538 75.565 82.2098 78.088 82.2098 81.967C82.2099 82.409 82.1677 82.85 82.0838 83.284C77.2418 89.632 64.6388 92.431 64.6388 104.752V107.716C64.6388 108.916 65.2958 109.579 66.5048 109.579H78.1208C79.3208 109.579 79.9868 108.922 79.9868 107.716V105.739C79.9868 95.755 99.6278 95.644 99.6278 77.431C99.6278 64.597 89.8598 56.041 74.7188 56.041Z" fill="#263238"/>
<path d="M64.6238 107.721V104.757C64.6238 89.5053 83.9348 88.8573 83.9348 77.9853C83.9348 73.2663 80.0948 70.1852 74.3888 70.1852C68.1338 70.1852 64.1888 73.5873 64.1888 78.4143V79.6143C64.1888 80.8143 63.5288 81.3722 62.3228 81.3722L50.5808 80.9312C49.4858 80.9312 48.7178 80.3823 48.7178 79.6143V78.4143C48.7178 65.1363 59.2508 56.0312 74.7218 56.0312C89.8628 56.0312 99.6218 64.5872 99.6218 77.4272C99.6218 95.6402 79.9808 95.7513 79.9808 105.735V107.712C79.9808 108.912 79.3208 109.575 78.1148 109.575H66.4898C65.2808 109.584 64.6238 108.927 64.6238 107.721ZM63.6368 125.4C63.6368 120.573 67.9148 116.622 73.0718 116.622C78.0098 116.622 82.3988 120.573 82.3988 125.4C82.3988 130.227 78.0008 134.163 72.9638 134.163C67.8008 134.163 63.6368 130.215 63.6368 125.4Z" fill="#FFDC36" stroke="#FFDC36" stroke-miterlimit="10"/>
<path d="M72.4846 144.002C81.5326 144.002 88.8676 142.362 88.8676 140.339C88.8676 138.316 81.5326 136.676 72.4846 136.676C63.4365 136.676 56.1016 138.316 56.1016 140.339C56.1016 142.362 63.4365 144.002 72.4846 144.002Z" fill="#263238"/>
<path d="M59.9604 57.2559L59.3334 58.6239C59.3334 58.6239 55.6914 59.0169 55.6914 59.2899C55.6914 59.5629 55.7304 61.4439 55.9284 61.5219C56.0789 61.5805 56.2459 61.5805 56.3964 61.5219L61.7604 60.1509L62.2704 57.7239L59.9604 57.2559Z" fill="white" stroke="#263238" stroke-linecap="round" stroke-linejoin="round"/>
<path d="M58.9423 59.7011C58.2762 60.2467 57.5577 60.7251 56.7973 61.1291C55.9303 61.5191 55.8973 62.1101 56.1733 62.1101C56.4493 62.1101 58.8973 61.0841 58.8973 61.0841C58.8973 61.0841 61.1203 60.5021 61.4413 60.3251C61.7623 60.1481 61.7983 59.1641 61.7983 59.1641" fill="white"/>
<path d="M58.9423 59.7011C58.2762 60.2467 57.5577 60.7251 56.7973 61.1291C55.9303 61.5191 55.8973 62.1101 56.1733 62.1101C56.4493 62.1101 58.8973 61.0841 58.8973 61.0841C58.8973 61.0841 61.1203 60.5021 61.4413 60.3251C61.7623 60.1481 61.7983 59.1641 61.7983 59.1641" stroke="#263238" stroke-linecap="round" stroke-linejoin="round"/>
<path d="M63.1632 30.9688L60.9252 48.1228L59.3682 57.4108L62.8242 58.2268L65.4012 47.2408L66.6222 40.3257L63.1632 30.9688Z" fill="#7D7D7D" stroke="#263238" stroke-linecap="round" stroke-linejoin="round"/>
<path d="M81.2249 18.5484L79.8599 18.3324L77.0639 17.2734L76.9619 20.5944L81.2969 20.9934L81.2249 18.5484Z" fill="white" stroke="#263238" stroke-linecap="round" stroke-linejoin="round"/>
<path d="M65.2668 79.3803C64.2494 80.5665 63.299 81.8084 62.4198 83.1003C61.2648 84.8643 61.6728 86.7603 63.0978 87.2373C64.5228 87.7143 66.3498 86.4213 66.8268 85.4043C67.3038 84.3873 67.1658 83.8473 67.9098 82.8303C68.6537 81.8133 69.2658 80.7963 68.9958 79.4403C68.7258 78.0843 65.9988 78.4323 65.2668 79.3803Z" fill="#7D7D7D" stroke="#263238" stroke-linecap="round" stroke-linejoin="round"/>
<path d="M66.6875 85.6589C66.5915 85.4549 66.4805 85.2389 66.3485 85.0079C65.2595 83.0909 63.3485 83.2439 62.1485 83.6009C61.3595 85.2119 61.8095 86.8139 63.1025 87.2459C64.3955 87.6779 66.0635 86.6219 66.6875 85.6589Z" fill="white" stroke="#263238" stroke-linecap="round" stroke-linejoin="round"/>
<path d="M66.3508 85.0082C65.9458 85.6082 65.4028 87.2462 63.2998 86.5682C62.7134 86.4176 62.1888 86.0872 61.7998 85.6232C61.8453 85.9891 61.9921 86.3349 62.2238 86.6217C62.4554 86.9085 62.7627 87.1248 63.1108 87.2462C64.5328 87.7202 66.3628 86.4302 66.8398 85.4132C67.3168 84.3962 67.1788 83.8562 67.9228 82.8392C68.6668 81.8222 69.2788 80.8052 69.0088 79.4492C69.0088 81.0752 68.4088 81.3452 67.6528 82.2272C66.8968 83.1092 66.7588 84.3962 66.3508 85.0082Z" fill="white" stroke="#263238" stroke-linecap="round" stroke-linejoin="round"/>
<path d="M85.2744 79.3803C86.2918 80.5665 87.2423 81.8084 88.1214 83.1003C89.2764 84.8643 88.8685 86.7603 87.4435 87.2373C86.0185 87.7143 84.1914 86.4213 83.7144 85.4043C83.2374 84.3873 83.3755 83.8473 82.6314 82.8303C81.8874 81.8133 81.2755 80.7963 81.5455 79.4403C81.8155 78.0843 84.5304 78.4323 85.2744 79.3803Z" fill="#7D7D7D" stroke="#263238" stroke-linecap="round" stroke-linejoin="round"/>
<path d="M83.8555 85.6589C83.9485 85.4549 84.0595 85.2389 84.1915 85.0079C85.2805 83.0909 87.1915 83.2439 88.3915 83.6009C89.1805 85.2119 88.7305 86.8139 87.4375 87.2459C86.1445 87.6779 84.4765 86.6219 83.8555 85.6589Z" fill="white" stroke="#263238" stroke-linecap="round" stroke-linejoin="round"/>
<path d="M84.1927 85.0082C84.5977 85.6082 85.1407 87.2462 87.2437 86.5682C87.8302 86.4176 88.3547 86.0872 88.7437 85.6232C88.6983 85.9891 88.5514 86.3349 88.3197 86.6217C88.0881 86.9085 87.7808 87.1248 87.4327 87.2462C86.0107 87.7202 84.1807 86.4302 83.7037 85.4132C83.2267 84.3962 83.3647 83.8562 82.6207 82.8392C81.8767 81.8222 81.2647 80.8052 81.5347 79.4492C81.5347 81.0752 82.1347 81.3452 82.8907 82.2272C83.6467 83.1092 83.7847 84.3962 84.1927 85.0082Z" fill="white" stroke="#263238" stroke-linecap="round" stroke-linejoin="round"/>
<path d="M88.4542 55.9893C88.4542 54.7684 86.3542 53.4123 86.3542 53.4123C83.1892 50.1933 77.4772 50.6194 75.3682 50.9074C73.2682 50.6074 67.5502 50.1933 64.3852 53.4123C64.3852 53.4123 62.2852 54.7684 62.2852 55.9893C62.2852 57.2103 64.9312 79.2453 64.9312 79.2453C64.9312 79.2453 64.8622 80.3973 66.7612 80.5323C68.6602 80.6673 69.4612 79.5843 69.4612 79.5843L70.2082 60.9393C70.2082 60.9393 73.2592 58.7673 73.8082 58.7013C74.0062 58.6743 74.2642 58.6323 74.5522 58.5963V58.6323C75.0894 58.5203 75.6439 58.5203 76.1812 58.6323V58.5963C76.4812 58.6323 76.7242 58.6743 76.9252 58.7013C77.4682 58.7673 80.5252 60.9393 80.5252 60.9393L81.2722 79.5843C81.2722 79.5843 82.0852 80.6673 83.9722 80.5323C85.8592 80.3973 85.8022 79.2453 85.8022 79.2453C85.8022 79.2453 88.4542 57.2103 88.4542 55.9893Z" fill="#263238" stroke="#263238" stroke-linecap="round" stroke-linejoin="round"/>
<path d="M80.5224 60.9386C80.5224 60.9386 80.1144 56.4626 82.0824 54.7676" stroke="#707070" stroke-linecap="round" stroke-linejoin="round"/>
<path d="M70.2158 60.9391C70.2158 60.9391 70.4198 57.2101 70.0118 55.8541C69.6038 54.4981 68.9258 53.9551 68.9258 53.9551" stroke="#707070" stroke-linecap="round" stroke-linejoin="round"/>
<path d="M72.7227 52.0566C72.7227 52.0566 74.8917 54.5646 75.2997 56.6676" stroke="#707070" stroke-linecap="round" stroke-linejoin="round"/>
<path d="M77.4732 52.1992C77.4732 52.1992 76.2522 53.5552 76.1172 54.5722" stroke="#707070" stroke-linecap="round" stroke-linejoin="round"/>
<path d="M74.421 25.818C74.421 25.818 72.456 25.545 71.778 26.223C71.1 26.901 68.793 29.4 68.793 29.4L70.014 50.961C70.014 50.961 72.795 52.047 75.168 52.047C77.541 52.047 80.253 51.165 80.868 50.691C81.483 50.217 80.937 27.096 80.937 27.096C80.937 27.096 75.9 25.614 74.421 25.818Z" fill="#FFDC36" stroke="#263238" stroke-linecap="round" stroke-linejoin="round"/>
<path d="M78.0144 26.2925C79.0466 26.1358 80.0877 26.0446 81.1314 26.0195C82.4874 26.0195 83.8314 26.0885 83.8314 26.0885L87.2214 22.8335L80.3994 21.2735L80.9424 18.1565C80.9424 18.1565 85.9584 17.8175 88.4664 18.2915C90.9744 18.7655 94.9074 19.9865 95.1114 19.9865C95.3154 19.9865 95.5854 20.7335 95.3814 21.2735C95.1774 21.8135 88.7994 28.8695 86.8944 30.6995C85.6483 31.9207 84.4714 33.2107 83.3694 34.5635L82.4994 49.6835C82.4994 49.6835 84.7374 50.9045 85.1454 51.3095C85.5534 51.7145 86.0274 53.3435 86.0274 53.3435C86.0274 53.3435 81.8904 51.6485 80.8044 51.5135C79.7184 51.3785 79.0434 51.3095 78.8394 50.9135C78.6354 50.5175 76.9404 32.4035 76.9404 32.4035L77.0094 26.6405C77.0094 26.6405 76.9974 26.2925 78.0144 26.2925Z" fill="#7D7D7D" stroke="#263238" stroke-linecap="round" stroke-linejoin="round"/>
<path d="M82.081 35.582L78.418 36.056L78.757 37.412L80.59 37.886L82.351 37.073L82.081 35.582Z" stroke="#263238" stroke-linecap="round" stroke-linejoin="round"/>
<path d="M84.1802 27.4453L83.3672 34.5643L85.4702 28.5313" stroke="#263238" stroke-linecap="round" stroke-linejoin="round"/>
<path d="M87.2334 22.8342C87.2334 22.8342 88.9284 23.1732 91.5054 22.1562" stroke="#263238" stroke-linecap="round" stroke-linejoin="round"/>
<path d="M88.9961 23.3071C90.1096 23.3381 91.2232 23.2476 92.3171 23.0371" stroke="#263238" stroke-linecap="round" stroke-linejoin="round"/>
<path d="M72.1162 25.75L72.4552 30.7C72.7642 31.1065 73.1644 31.4347 73.6235 31.6582C74.0825 31.8818 74.5877 31.9944 75.0982 31.987C76.7932 31.921 76.9972 30.7 76.9972 30.7V26.632L72.1162 25.75Z" fill="white" stroke="#263238" stroke-linecap="round" stroke-linejoin="round"/>
<path d="M77.0647 28.3264L76.9297 32.4004L78.3547 30.1624C78.3547 30.1624 79.9147 32.1274 80.3197 32.0614C80.7247 31.9954 80.0497 31.1794 79.9147 30.4354C79.7797 29.6914 78.6247 27.0424 78.4897 26.2984C78.3547 25.5544 77.0647 25.4164 76.9897 25.7554C76.9521 26.0482 76.9521 26.3446 76.9897 26.6374L77.0647 28.3264Z" fill="#7D7D7D" stroke="#263238" stroke-linecap="round" stroke-linejoin="round"/>
<path d="M72.386 31.9863C72.386 31.9863 72.656 50.9703 71.978 51.1863C71.3 51.4023 68.588 51.4593 66.878 52.2723C65.168 53.0853 64.37 53.4243 64.37 53.4243C64.37 53.4243 65.183 51.4593 66.134 50.5773C66.7661 50.0092 67.4726 49.5298 68.234 49.1523L66.473 40.0683C66.473 40.0683 63.218 31.4553 63.149 30.9813C63.08 30.5073 69.32 26.9823 70.607 26.3703C71.894 25.7583 72.236 26.3043 72.236 26.3043L72.386 31.9863Z" fill="#7D7D7D" stroke="#263238" stroke-linecap="round" stroke-linejoin="round"/>
<path d="M70.6898 25.4104C70.6898 25.4104 69.0638 30.5644 68.9258 31.2424C68.7878 31.9204 68.9258 31.9204 69.4028 31.4434C69.8798 30.9664 71.0978 29.8174 71.0978 29.8174L72.3848 31.9864L72.3158 27.9874V25.6804C72.3158 25.6804 72.2498 24.7324 70.6898 25.4104Z" fill="#7D7D7D" stroke="#263238" stroke-linecap="round" stroke-linejoin="round"/>
<path d="M67.5065 36.5312H71.5055L71.4395 38.1573L69.6755 38.7663L67.4375 38.1573L67.5065 36.5312Z" stroke="#263238" stroke-linecap="round" stroke-linejoin="round"/>
<path d="M78.4883 18.6989C78.4883 18.6989 79.4363 22.8329 79.6403 23.4989C79.8443 24.1649 78.5573 26.8229 78.1403 27.4319C77.9816 27.6961 77.7633 27.9194 77.5028 28.084C77.2424 28.2486 76.947 28.35 76.6403 28.3799C76.1663 28.3799 73.5893 27.5009 72.9773 27.0929C72.3653 26.6849 71.7593 26.2109 71.7593 26.2109C71.4709 26.3424 71.1504 26.3869 70.837 26.339C70.5237 26.291 70.2312 26.1527 69.9953 25.9409C69.1823 25.1939 68.0963 24.3119 68.3663 23.7029C68.4978 23.4041 68.718 23.1529 68.9971 22.9833C69.2761 22.8138 69.6005 22.734 69.9263 22.7549C70.6733 22.7549 70.4033 22.6859 70.4033 22.6859C70.4033 22.6859 69.0473 20.7209 69.0473 19.1609C69.0473 17.6009 71.9603 16.4609 73.6553 16.4609C74.8273 16.5098 75.9786 16.7859 77.0453 17.2739L78.4883 18.6989Z" fill="white" stroke="#263238" stroke-linecap="round" stroke-linejoin="round"/>
<path d="M76.1133 20.2578L77.3343 22.5648L76.1133 23.3778L75.5703 22.6998" stroke="#263238" stroke-linecap="round" stroke-linejoin="round"/>
<path d="M78.3525 22.3594C78.3525 22.3594 78.4185 22.9024 77.6055 23.7844" stroke="#263238" stroke-linecap="round" stroke-linejoin="round"/>
<path d="M74.8305 21.1053C74.8305 21.4233 74.6925 21.6813 74.5305 21.6813C74.3685 21.6813 74.2305 21.4233 74.2305 21.1053C74.2305 20.7873 74.3685 20.5293 74.5305 20.5293C74.6925 20.5293 74.8305 20.7873 74.8305 21.1053Z" fill="#263238"/>
<path d="M76.9623 20.5954C77.1313 20.5954 77.2682 20.3375 77.2682 20.0194C77.2682 19.7012 77.1313 19.4434 76.9623 19.4434C76.7933 19.4434 76.6562 19.7012 76.6562 20.0194C76.6562 20.3375 76.7933 20.5954 76.9623 20.5954Z" fill="#263238"/>
<path d="M71.1646 15.1714C71.1646 15.1714 66.8986 16.7314 66.7576 18.6994C66.6166 20.6674 70.5556 23.3764 70.7596 23.7154C70.9636 24.0544 71.5726 23.3074 71.5726 23.3074C71.437 23.1252 71.3424 22.9159 71.2953 22.6938C71.2482 22.4716 71.2496 22.2419 71.2996 22.0204C71.5036 21.3424 72.3856 20.5204 72.3856 20.1904C72.3856 19.8604 71.3686 20.4604 71.3686 19.4434C71.3686 18.4264 73.8766 17.8174 75.3676 17.8834C76.8586 17.9494 78.1486 20.4604 79.2346 19.2394C80.3206 18.0184 78.7576 17.6824 78.7576 17.6824C78.7576 17.6824 80.8576 17.4094 80.8576 16.3264C80.8576 15.2434 79.7716 14.4934 79.2976 14.4934C78.8236 14.4934 77.5366 15.3094 77.5366 14.4274C77.5366 13.5454 78.8236 13.1374 77.6026 11.7274C76.3816 10.3174 74.8246 11.7274 74.8246 12.2704C74.8246 12.8134 74.4166 13.8274 74.1466 13.8274C73.8766 13.8274 73.0606 12.6094 72.1126 13.2874C71.8276 13.514 71.5952 13.7999 71.4315 14.1252C71.2678 14.4505 71.1767 14.8074 71.1646 15.1714V15.1714Z" fill="#263238" stroke="#263238" stroke-linecap="round" stroke-linejoin="round"/>
<path d="M72.9287 20.3941L75.0977 19.5781" stroke="#263238" stroke-linecap="round" stroke-linejoin="round"/>
<path d="M75.4381 18.6299C75.3967 18.417 75.4306 18.1964 75.5341 18.0059" stroke="#263238" stroke-linecap="round" stroke-linejoin="round"/>
<path d="M75.5352 18C75.6882 17.7 76.0332 17.313 76.7952 16.998" stroke="white" stroke-linecap="round" stroke-linejoin="round"/>
</svg>
