<svg width="24" height="24" viewBox="0 0 24 24" fill="none" xmlns="http://www.w3.org/2000/svg">
<rect width="24" height="24" rx="4" fill="#FEE5B5"/>
<path fill-rule="evenodd" clip-rule="evenodd" d="M12 5.125C11.6548 5.125 11.375 5.40482 11.375 5.75C11.375 6.09518 11.6548 6.375 12 6.375C12.3452 6.375 12.625 6.09518 12.625 5.75C12.625 5.40482 12.3452 5.125 12 5.125ZM10.125 5.75C10.125 4.71447 10.9645 3.875 12 3.875C13.0356 3.875 13.875 4.71447 13.875 5.75C13.875 6.09114 13.7839 6.41099 13.6247 6.68657C15.2365 7.33152 16.375 8.90755 16.375 10.7497V13.875C16.375 14.3121 16.6033 14.8094 16.895 15.2471C17.0341 15.4557 17.1742 15.6308 17.2792 15.7534C17.3315 15.8144 17.3744 15.8615 17.4032 15.8924C17.4176 15.9078 17.4284 15.9191 17.4351 15.926L17.4419 15.933C17.6205 16.1117 17.6741 16.3807 17.5774 16.6142C17.4807 16.8477 17.2528 17 17 17H14.3907C14.4584 17.1947 14.5 17.4043 14.5 17.625C14.5 19.0057 13.3807 20.125 12 20.125C10.6193 20.125 9.50002 19.0057 9.50002 17.625C9.50002 17.4043 9.54163 17.1947 9.60939 17H7.00002C6.74723 17 6.51933 16.8477 6.42259 16.6142C6.326 16.381 6.37917 16.1126 6.55727 15.9339L6.55779 15.9333L6.56493 15.926C6.5716 15.9191 6.58243 15.9078 6.59682 15.8924C6.62564 15.8615 6.66853 15.8144 6.7208 15.7534C6.82588 15.6308 6.96589 15.4557 7.10499 15.2471C7.39673 14.8094 7.62502 14.3121 7.62502 13.875V10.7497C7.62502 8.90755 8.76357 7.33152 10.3753 6.68657C10.2161 6.41099 10.125 6.09114 10.125 5.75ZM11.0281 17C10.8525 17.2208 10.75 17.4461 10.75 17.625C10.75 18.3154 11.3097 18.875 12 18.875C12.6904 18.875 13.25 18.3154 13.25 17.625C13.25 17.4461 13.1476 17.2208 12.972 17H11.0281ZM15.125 13.875C15.125 14.5904 15.4323 15.2591 15.7331 15.75H8.2669C8.56776 15.2591 8.87502 14.5904 8.87502 13.875V10.7497C8.87502 9.0239 10.2741 7.625 12 7.625C13.726 7.625 15.125 9.0239 15.125 10.7497V13.875Z" fill="#FFA800"/>
</svg>
