<svg width="24" height="24" viewBox="0 0 24 24" fill="none" xmlns="http://www.w3.org/2000/svg">
<path d="M4.08 11.62C4.12759 11.4973 4.19896 11.3851 4.29 11.29L8.29 7.29C8.38324 7.19676 8.49393 7.1228 8.61575 7.07234C8.73757 7.02188 8.86814 6.99591 9 6.99591C9.2663 6.99591 9.5217 7.1017 9.71 7.29C9.8983 7.47831 10.0041 7.7337 10.0041 8C10.0041 8.2663 9.8983 8.5217 9.71 8.71L7.41 11H19C19.2652 11 19.5196 11.1054 19.7071 11.2929C19.8946 11.4804 20 11.7348 20 12C20 12.2652 19.8946 12.5196 19.7071 12.7071C19.5196 12.8946 19.2652 13 19 13H7.41L9.71 15.29C9.80373 15.383 9.87812 15.4936 9.92889 15.6154C9.97966 15.7373 10.0058 15.868 10.0058 16C10.0058 16.132 9.97966 16.2627 9.92889 16.3846C9.87812 16.5064 9.80373 16.617 9.71 16.71C9.61704 16.8037 9.50644 16.8781 9.38458 16.9289C9.26272 16.9797 9.13201 17.0058 9 17.0058C8.86799 17.0058 8.73728 16.9797 8.61542 16.9289C8.49356 16.8781 8.38296 16.8037 8.29 16.71L4.29 12.71C4.19896 12.6149 4.12759 12.5028 4.08 12.38C3.97998 12.1365 3.97998 11.8635 4.08 11.62Z" fill="#6965FF"/>
</svg>
