<svg width="29" height="28" viewBox="0 0 29 28" fill="none" xmlns="http://www.w3.org/2000/svg">
<path d="M23.74 13.5566C23.6845 13.4134 23.6012 13.2826 23.495 13.1716L18.8283 8.50497C18.7195 8.39619 18.5904 8.30991 18.4483 8.25104C18.3062 8.19217 18.1538 8.16187 18 8.16187C17.6893 8.16187 17.3914 8.28528 17.1717 8.50497C16.952 8.72466 16.8286 9.02262 16.8286 9.33331C16.8286 9.64399 16.952 9.94195 17.1717 10.1616L19.855 12.8333H6.33333C6.02391 12.8333 5.72717 12.9562 5.50837 13.175C5.28958 13.3938 5.16666 13.6906 5.16666 14C5.16666 14.3094 5.28958 14.6061 5.50837 14.8249C5.72717 15.0437 6.02391 15.1666 6.33333 15.1666H19.855L17.1717 17.8383C17.0623 17.9468 16.9755 18.0758 16.9163 18.218C16.8571 18.3601 16.8266 18.5126 16.8266 18.6666C16.8266 18.8207 16.8571 18.9731 16.9163 19.1153C16.9755 19.2575 17.0623 19.3865 17.1717 19.495C17.2801 19.6043 17.4092 19.6911 17.5513 19.7503C17.6935 19.8096 17.846 19.8401 18 19.8401C18.154 19.8401 18.3065 19.8096 18.4487 19.7503C18.5908 19.6911 18.7199 19.6043 18.8283 19.495L23.495 14.8283C23.6012 14.7174 23.6845 14.5865 23.74 14.4433C23.8567 14.1593 23.8567 13.8407 23.74 13.5566Z" fill="white"/>
</svg>
