<svg width="28" height="28" viewBox="0 0 28 28" fill="none" xmlns="http://www.w3.org/2000/svg">
<g clip-path="url(#clip0)">
<path d="M14 28C21.7192 28 28 21.7198 28 14C28 12.6676 27.814 11.3545 27.4457 10.097C27.2643 9.4786 26.6186 9.12341 25.9985 9.30485C25.3796 9.48572 25.0255 10.1337 25.2064 10.7521C25.5114 11.7968 25.6667 12.89 25.6667 14C25.6667 20.4329 20.4329 25.6667 14 25.6667C7.5671 25.6667 2.33333 20.4329 2.33333 14C2.33333 7.5671 7.5671 2.33333 14 2.33333C16.3379 2.33333 18.5872 3.01693 20.5047 4.30977C21.0385 4.67008 21.7642 4.52852 22.1239 3.99475C22.484 3.46041 22.3435 2.73523 21.8092 2.3752C19.5049 0.821452 16.8047 0 14 0C6.2808 0 0 6.28023 0 14C0 21.7198 6.2808 28 14 28Z" fill="white"/>
<path d="M26.0084 2.67508L14 14.683L10.1582 10.8417C9.70246 10.3863 8.96418 10.3863 8.50845 10.8417C8.05301 11.2975 8.05301 12.0358 8.50845 12.4915L13.1751 17.1582C13.4033 17.3863 13.7012 17.4999 14 17.4999C14.2988 17.4999 14.5967 17.3863 14.8249 17.1582L27.6582 4.32482C28.1136 3.86909 28.1136 3.13081 27.6582 2.67508C27.2025 2.21964 26.4642 2.21964 26.0084 2.67508Z" fill="white"/>
</g>
<defs>
<clipPath id="clip0">
<rect width="28" height="28" fill="white"/>
</clipPath>
</defs>
</svg>
