<svg width="120" height="120" viewBox="0 0 120 120" fill="none" xmlns="http://www.w3.org/2000/svg">
<path d="M51.3397 15C55.1888 8.33333 64.8112 8.33333 68.6603 15L103.301 75C107.15 81.6667 102.339 90 94.641 90H25.359C17.661 90 12.8497 81.6667 16.6987 75L51.3397 15Z" fill="#FFA800"/>
<path d="M56.5356 18.1426C58.0752 15.4759 61.9242 15.4759 63.4638 18.1426L97.9811 77.9283C99.5207 80.595 97.5962 83.9283 94.517 83.9283H25.4824C22.4032 83.9283 20.4787 80.595 22.0183 77.9283L56.5356 18.1426Z" fill="white"/>
<path d="M64.4969 41.4287L63.5821 62.3762H56.9494L56.0346 41.4287H64.4969ZM60.3801 73.5716C59.0078 73.5716 57.8795 73.1926 56.9951 72.4345C56.1413 71.6474 55.7144 70.6853 55.7144 69.5482C55.7144 68.3821 56.1413 67.4054 56.9951 66.6182C57.8795 65.831 59.0078 65.4375 60.3801 65.4375C61.7219 65.4375 62.8197 65.831 63.6735 66.6182C64.5579 67.4054 65.0001 68.3821 65.0001 69.5482C65.0001 70.6853 64.5579 71.6474 63.6735 72.4345C62.8197 73.1926 61.7219 73.5716 60.3801 73.5716Z" fill="#FFA800"/>
</svg>
