<svg width="120" height="120" viewBox="0 0 120 120" fill="none" xmlns="http://www.w3.org/2000/svg">
<g clip-path="url(#clip0)">
<path d="M80.3512 -0.000287731C70.1806 0.165687 62.3315 8.49211 53.6257 13.7756C40.4702 21.7425 23.5836 23.3469 12.4733 33.9693C4.87299 41.2445 1.11428 52.2266 2.16451 62.683C3.21474 73.1394 8.96336 82.9873 17.2823 89.4326C22.5887 93.5544 28.8071 96.3206 35.1638 98.4783C41.6033 100.664 48.2916 102.296 55.0905 102.379C64.5149 102.489 73.7735 99.6401 82.2859 95.6291C88.2003 92.8351 93.9213 89.405 98.592 84.813C102.986 80.47 106.386 75.1035 108.68 69.3497C114.401 55.1311 113.489 38.8656 108.542 24.3704C104.451 12.3925 94.4188 -0.24925 80.3512 -0.000287731Z" fill="#CCE8FF"/>
<path opacity="0.7" d="M80.3512 -0.000287731C70.1806 0.165687 62.3315 8.49211 53.6257 13.7756C40.4702 21.7425 23.5836 23.3469 12.4733 33.9693C4.87299 41.2445 1.11428 52.2266 2.16451 62.683C3.21474 73.1394 8.96336 82.9873 17.2823 89.4326C22.5887 93.5544 28.8071 96.3206 35.1638 98.4783C41.6033 100.664 48.2916 102.296 55.0905 102.379C64.5149 102.489 73.7735 99.6401 82.2859 95.6291C88.2003 92.8351 93.9213 89.405 98.592 84.813C102.986 80.47 106.386 75.1035 108.68 69.3497C114.401 55.1311 113.489 38.8656 108.542 24.3704C104.451 12.3925 94.4188 -0.24925 80.3512 -0.000287731Z" fill="white"/>
<path opacity="0.1" d="M86.6538 58.6439C86.5709 56.5692 86.4327 54.3286 86.2116 52.0326C85.9076 47.4406 85.3272 43.1529 84.3046 40.4696C78.5836 39.3078 48.7627 41.4655 48.735 41.4655L48.5416 40.6356C48.5139 40.525 48.4863 40.4143 48.4586 40.3037L48.3205 39.7228L48.2928 39.5844C48.0994 38.8099 47.8783 38.0353 47.6295 37.2608C47.6295 37.2608 25.022 35.2414 17.5322 37.2055C17.5322 37.2608 17.5322 37.3438 17.5322 37.3991L17.5598 39.2525C17.5875 42.8486 17.5045 46.1958 17.698 49.8749V49.9026C17.698 49.9026 17.6427 49.9026 17.5875 49.9026C16.9794 49.9856 16.482 50.4005 16.2885 50.9537C16.2056 51.175 16.1779 51.3963 16.2056 51.6176L16.3161 52.7795C16.3161 52.8071 16.3161 52.8071 16.3161 52.8348C16.5925 55.767 16.8689 58.6716 16.8689 58.6716C16.8689 58.6716 17.0071 58.6992 17.2558 58.6992L18.4995 58.7822C15.8463 59.0312 12.972 62.5167 13.1102 65.5319C13.2207 68.5471 10.3464 74.1903 11.065 77.4268C11.6177 79.9717 14.4644 84.0381 15.8463 87.1363C15.8187 87.33 15.7634 87.5236 15.7357 87.7449L9.54492 100.165C9.95949 99.5568 13.6906 115.795 31.0193 112.365L43.3457 92.2539C41.8256 93.4157 43.3457 92.2539 43.3457 92.2539C44.5341 91.341 45.9436 90.1239 47.1044 88.7131C47.6295 88.1598 48.0441 87.6066 48.2652 87.1087C48.7074 86.3894 49.0667 85.6149 49.2601 84.8403C49.3154 84.619 49.3707 84.4254 49.426 84.2041C50.4209 81.6315 51.7752 78.146 52.7701 75.7117C65.7598 75.3244 79.3851 74.5222 86.2392 72.9178C86.2392 72.9178 86.2392 72.9178 86.2669 72.9178C86.9302 68.4641 86.9302 63.4019 86.6538 58.6439ZM19.9367 69.9856C19.9367 69.9856 19.7708 68.9344 19.7432 67.7172C19.8814 68.5194 20.0472 69.3217 20.2407 70.0962C20.1301 70.0685 20.0472 70.0409 19.9367 69.9856Z" fill="black"/>
<path d="M8.13525 99.4184C8.13525 99.4184 13.6904 115.85 31.0192 112.392C31.0192 112.392 34.8608 94.3285 38.0944 91.6453C40.1672 89.9302 44.7551 86.8596 45.75 84.619C46.745 82.3507 50.6695 71.8112 51.4434 70.5388C52.2172 69.2663 43.1797 54.6328 43.1797 54.6328L24.1098 64.4807L13.5246 83.2912C13.5246 83.2912 11.507 95.4627 8.13525 99.4184Z" fill="white"/>
<path d="M13.3589 84.7568C13.3589 84.7568 12.0046 94.909 7.52734 100.22" stroke="#263238" stroke-miterlimit="10" stroke-linecap="round" stroke-linejoin="round"/>
<path d="M31.0195 112.393C31.0195 112.393 34.8335 94.91 38.0948 91.6458C38.0948 91.6458 45.4187 87.3858 46.7453 82.3512C47.6574 78.8658 49.3156 74.8547 50.1171 73.0566" stroke="#263238" stroke-miterlimit="10" stroke-linecap="round" stroke-linejoin="round"/>
<path d="M32.5669 73.6088C32.2905 73.4428 36.9889 77.2049 37.1824 82.3502" stroke="#263238" stroke-miterlimit="10" stroke-linecap="round" stroke-linejoin="round"/>
<path d="M83.724 70.4562C68.4404 74.0523 19.2455 73.5821 19.2455 73.5821C18.8309 72.6969 18.3335 70.5115 17.836 67.9666C16.8687 62.849 15.9566 56.3206 15.9566 56.3206L14.326 56.21C14.326 56.21 14.0496 53.3054 13.7733 50.3732C13.4969 47.441 15.1551 47.441 15.1551 47.441L15.0446 37.2612L15.017 34.7162C22.5067 32.7522 45.1143 34.7715 45.1143 34.7715L45.8329 37.2335L46.2198 38.9762L81.7894 37.9804C85.0506 46.3898 83.724 70.4562 83.724 70.4562Z" fill="#CCE8FF"/>
<path d="M78.0033 54.1073L54.7048 55.2138C53.7375 55.2692 52.936 54.5223 52.8807 53.5541L52.6596 48.8238C52.6043 47.8556 53.3506 47.0534 54.3179 46.9981L77.6164 45.8916C78.5837 45.8362 79.3852 46.5831 79.4404 47.5513L79.6615 52.2816C79.6892 53.2498 78.943 54.0797 78.0033 54.1073Z" fill="#263238"/>
<path d="M79.7447 57.1221L79.8276 57.8966L52.9639 58.9478V58.2286L79.7447 57.1221Z" fill="#263238"/>
<path d="M79.8825 59.8613L79.9101 60.5529L53.0464 61.5487V60.8572L79.8825 59.8613Z" fill="#263238"/>
<path opacity="0.3" d="M81.7893 37.9531C81.7893 37.9531 85.7415 56.7636 83.7516 70.4566C83.7516 70.4566 58.6843 73.3888 50.1166 72.9185L49.7573 68.3542L50.4759 68.2436C50.4759 68.2436 47.0212 42.1025 46.2197 38.949C46.2197 38.949 76.0683 36.7636 81.7893 37.9531Z" fill="black"/>
<path opacity="0.8" d="M48.9009 68.2705L49.2049 71.7283C49.2049 71.7283 23.9442 72.8348 21.7332 72.0326C19.5222 71.2304 21.8437 69.9303 27.7305 69.4877C33.5897 69.0174 48.9009 68.2705 48.9009 68.2705Z" fill="white"/>
<path d="M33.8386 53.61C35.1208 53.61 36.1602 52.6687 36.1602 51.5076C36.1602 50.3465 35.1208 49.4053 33.8386 49.4053C32.5565 49.4053 31.5171 50.3465 31.5171 51.5076C31.5171 52.6687 32.5565 53.61 33.8386 53.61Z" fill="#263238"/>
<path d="M15.9844 56.3206C16.5648 62.4063 17.5321 67.7176 19.2456 73.582C29.969 73.499 40.6647 73.3607 51.3881 73.0288C62.1115 72.6968 73.1113 71.9499 83.7241 70.4561C83.7241 70.4561 85.6311 53.6373 81.7618 37.9527C77.5056 37.0675 46.3028 38.9485 46.3028 38.9485" stroke="#263238" stroke-miterlimit="10" stroke-linecap="round" stroke-linejoin="round"/>
<path d="M48.9006 68.2706L49.2046 71.7284L25.1599 72.2816C24.1649 72.3646 22.6172 72.5029 21.7052 72.0327C21.2906 71.8114 20.9866 71.2858 21.1801 70.8708C21.3459 70.4836 21.8157 70.3452 22.2303 70.2623C25.1599 69.6537 28.1724 69.4047 31.1572 69.1834C37.5692 68.7132 43.9811 68.3812 50.4206 68.2152C50.2825 68.2152 48.7071 55.2692 48.5413 54.0797C47.8504 49.4047 47.2147 44.7021 46.3856 40.0548C46.0539 38.2567 45.667 36.4863 45.0866 34.7436C35.1923 34.0244 24.8282 33.3881 14.9893 34.6883C15.0722 39.0866 14.9063 42.987 15.1274 47.3854" stroke="#263238" stroke-miterlimit="10" stroke-linecap="round" stroke-linejoin="round"/>
<path d="M18.8864 72.2827C18.8864 72.2827 18.8035 72.0614 18.7759 71.7295" stroke="#263238" stroke-linecap="round" stroke-linejoin="round"/>
<path d="M18.9419 70.678C19.3012 69.7651 20.4067 68.714 23.4192 68.382C28.8914 67.7734 40.8032 66.6669 47.7955 66.418" stroke="#263238" stroke-linecap="round" stroke-linejoin="round" stroke-dasharray="3.91 3.91"/>
<path d="M48.3208 66.3905C48.5143 66.3905 48.6801 66.3905 48.8736 66.3628C48.8459 66.1692 48.8183 66.0032 48.7906 65.8096" stroke="#263238" stroke-linecap="round" stroke-linejoin="round"/>
<path d="M48.6522 64.758C47.3809 55.7124 45.999 46.7221 44.396 37.7041" stroke="#263238" stroke-linecap="round" stroke-linejoin="round" stroke-dasharray="3.88 3.88"/>
<path d="M44.3132 37.1786C44.2856 36.9849 44.2579 36.819 44.2026 36.6253C44.2026 36.6253 44.0092 36.5977 43.6499 36.5977" stroke="#263238" stroke-linecap="round" stroke-linejoin="round"/>
<path d="M42.5443 36.5146C37.9565 36.2103 24.8839 35.4358 16.1504 36.0443" stroke="#263238" stroke-linecap="round" stroke-linejoin="round" stroke-dasharray="4.07 4.07"/>
<path d="M15.5977 36.0996C15.4042 36.1273 15.2384 36.1273 15.0449 36.1549" stroke="#263238" stroke-linecap="round" stroke-linejoin="round"/>
<path d="M14.3539 56.1824L13.6906 49.1285C13.6077 48.2433 14.271 47.441 15.183 47.3857C19.2457 47.1644 29.748 46.6112 33.7831 46.9155C35.7177 47.0814 37.8182 47.69 38.7579 49.5434C39.5317 51.0648 39.6423 53.3608 38.3433 54.6056C36.3534 56.5143 32.5671 56.376 30.0244 56.459C25.2431 56.6803 14.3539 56.2377 14.3539 56.1824Z" stroke="#263238" stroke-miterlimit="10" stroke-linecap="round" stroke-linejoin="round"/>
<path d="M39.3384 51.8941C39.3384 51.7005 40.3334 55.9328 36.6576 57.3436C32.9818 58.7544 15.957 58.3118 15.957 58.3118V56.3201C15.957 56.3201 27.9794 56.5691 29.9969 56.5138C32.0145 56.4584 39.1173 57.1223 39.3384 51.8941Z" fill="#263238"/>
<path d="M35.8008 75.6289C35.8008 75.6289 38.8133 77.3993 39.9464 80.6911" stroke="#263238" stroke-miterlimit="10" stroke-linecap="round" stroke-linejoin="round"/>
<path d="M13.7734 48.465C13.7734 48.465 28.5319 47.7734 32.263 47.8841C36.0217 48.0224 37.8458 48.8246 38.2327 51.1759C38.6196 53.5272 36.3257 54.9933 34.5293 55.27C32.7052 55.5189 14.3538 55.6296 14.3538 55.6296" stroke="#263238" stroke-miterlimit="10" stroke-linecap="round" stroke-linejoin="round" stroke-dasharray="4 4"/>
<path d="M23.9164 76.9846C23.9164 76.9846 21.6224 69.0454 17.4215 67.4963C17.4215 67.4963 16.5924 62.0745 18.3888 61.7702C20.1853 61.4659 25.243 58.1464 23.9164 53.9693C22.5897 49.7923 18.6376 56.0717 15.9844 56.293C13.3312 56.542 10.4568 60.0274 10.5674 63.0426C10.6779 66.0579 7.80364 71.701 8.52222 74.9375C9.24079 78.174 13.6904 83.9555 14.0497 86.9707" fill="white"/>
<path d="M23.9164 76.9846C23.9164 76.9846 21.6224 69.0454 17.4215 67.4963C17.4215 67.4963 16.5924 62.0745 18.3888 61.7702C20.1853 61.4659 25.243 58.1464 23.9164 53.9693C22.5897 49.7923 18.6376 56.0717 15.9844 56.293C13.3312 56.542 10.4568 60.0274 10.5674 63.0426C10.6779 66.0579 7.80364 71.701 8.52222 74.9375C9.24079 78.174 13.6904 83.9555 14.0497 86.9707" stroke="#263238" stroke-miterlimit="10" stroke-linecap="round" stroke-linejoin="round"/>
<path d="M18.3613 55.0753C18.3613 55.0753 21.512 55.6562 23.2532 53.6368C24.9667 51.6175 23.0044 51.5068 23.0044 51.5068L18.3613 55.0753Z" fill="white" stroke="#263238" stroke-miterlimit="10" stroke-linecap="round" stroke-linejoin="round"/>
<path d="M12.7231 59.5566C13.3035 59.5843 13.8563 59.7779 14.3538 60.0822" stroke="#263238" stroke-miterlimit="10" stroke-linecap="round" stroke-linejoin="round"/>
<path d="M12.6401 60.7188C13.2205 60.7741 13.7733 60.9954 14.2155 61.355" stroke="#263238" stroke-miterlimit="10" stroke-linecap="round" stroke-linejoin="round"/>
<path d="M21.1802 71.3417C21.1802 71.3417 34.7226 70.6501 38.2878 70.8438" stroke="#263238" stroke-miterlimit="10" stroke-linecap="round" stroke-linejoin="round"/>
<path d="M34.9717 69.8202C34.9717 69.8202 38.3711 69.5436 40.4992 69.8202" stroke="#263238" stroke-miterlimit="10" stroke-linecap="round" stroke-linejoin="round"/>
<path d="M43.6221 70.8154H49.1219" stroke="#263238" stroke-miterlimit="10" stroke-linecap="round" stroke-linejoin="round"/>
<path d="M46.9385 40.4973C46.9385 40.4973 71.149 38.3396 80.8774 39.5568C80.8774 39.5568 83.503 44.3977 82.9226 69.1557C82.9226 69.1557 67.1692 71.341 49.951 71.6176" stroke="#263238" stroke-miterlimit="10" stroke-linecap="round" stroke-linejoin="round" stroke-dasharray="4 4"/>
<g opacity="0.1">
<path opacity="0.1" d="M112.523 74.772C111.832 71.8398 110.837 70.7333 109.814 69.9034C109.814 69.9034 109.787 68.2436 108.488 67.3031C108.156 66.9988 107.769 66.7499 107.382 66.4732C106.166 65.5604 104.812 64.5369 104.812 64.5369C104.176 62.7111 103.319 60.4981 102.407 58.3128L102.463 58.8107C101.523 56.5147 100.583 54.1911 100.335 53.4442C100.335 53.4442 100.335 53.4442 100.335 53.4165C100.611 54.1634 100.887 54.855 101.191 55.5189L97.7366 43.2644C97.6537 42.7665 97.5708 42.2962 97.4878 41.8259C97.322 40.4428 96.8798 37.8425 95.7743 37.6489C95.7467 37.6489 95.6914 37.6489 95.6638 37.6489C95.6638 37.6489 94.3924 37.0956 94.3924 39.364C92.8724 39.8619 92.292 41.0237 92.1262 42.3792C92.0432 42.7665 92.0432 43.2091 92.0985 43.6793C92.1262 44.1772 92.1814 44.7028 92.2643 45.2008L87.3725 38.7554L86.9027 38.1192L80.85 30.1524L72.7246 19.447C71.4532 17.7596 69.0764 17.4553 67.3905 18.7277L57.2752 26.3903L53.323 29.3778C50.3105 30.9546 51.0843 34.0528 51.9411 35.1593L69.5462 58.3405C69.3804 58.3128 69.2699 58.3405 69.2699 58.3405C69.2699 58.3405 68.7724 57.151 67.5287 57.3446C67.28 57.3446 67.0312 57.4276 66.7825 57.5936C66.589 57.7042 66.4232 57.8425 66.285 58.0362C66.1468 58.1745 66.0363 58.3681 65.9257 58.5618C65.2901 59.6406 65.8704 62.2962 66.7825 65.5327C66.8378 65.754 66.893 65.9477 66.9483 66.1413V66.169C67.0312 66.4456 67.1141 66.6945 67.197 66.9712C68.0815 70.0694 69.7673 76.1828 70.0714 79.1703C70.099 79.447 70.099 79.7512 70.1266 80.0279C70.1543 83.4857 68.6066 89.2395 69.2699 91.6185C69.3528 91.9228 69.4357 92.227 69.5462 92.5313C70.0437 94.1357 70.4859 95.6295 71.2321 97.1233C72.1718 98.949 73.2773 100.692 74.3276 102.462C76.2345 105.699 78.2244 108.908 80.2696 112.089C81.2093 113.555 82.3148 114.883 83.3927 116.238C83.8902 116.874 84.9404 117.815 85.1338 118.617C85.1338 118.617 94.5859 119.392 99.8923 116.044L99.3948 108.52L102.932 88.0777C103.955 86.5286 107.078 83.541 107.714 82.5728C108.045 82.1026 108.349 81.6323 108.653 81.162C111.003 78.9767 112.163 77.2893 112.661 75.3252C112.633 75.3806 112.606 75.1316 112.523 74.772ZM79.7722 79.2533L79.7169 79.1703C80.1591 79.3916 81.2093 79.8066 82.757 80.0555C81.6515 79.9172 80.4078 79.7236 79.7722 79.2533ZM83.752 80.1662C83.9178 80.1938 84.0836 80.1938 84.2494 80.1938C84.1113 80.1938 83.9454 80.1662 83.752 80.1662ZM79.6616 79.032L79.0259 77.7595C78.1415 75.2146 76.1516 69.2395 76.124 69.2118C76.124 69.2118 75.5989 66.7499 74.5763 64.1773C75.4883 64.5092 76.5662 64.3709 77.3953 63.7346L82.2319 60.0555C82.7294 60.3598 83.2545 60.6365 83.752 60.8577L88.2845 64.3986L84.6916 79.1703L79.6616 79.032ZM97.9853 44.9795C98.3722 46.7499 98.9526 49.2948 99.7541 51.7568C99.1461 49.9864 98.4275 47.5797 97.9853 44.9795Z" fill="black"/>
<path opacity="0.1" d="M77.4785 116.017L77.5062 116.155C77.5062 116.155 77.4785 116.1 77.4785 116.017Z" fill="black"/>
</g>
<path d="M94.2544 45.5327C94.5307 45.339 98.5935 43.1537 100.611 49.765C102.629 56.3764 105.033 67.6627 105.033 67.6627L100.224 68.6032C100.224 68.6032 95.7468 66.2242 91.767 60.2768C91.767 60.2768 86.1566 58.8107 83.7244 55.3529C81.5134 52.1993 88.3399 40.6641 88.3399 40.6641L94.2544 45.5327Z" fill="white"/>
<path d="M92.5132 53.7764C93.7016 55.5744 95.9679 59.3365 99.008 60.526" stroke="#263238" stroke-miterlimit="10" stroke-linecap="round" stroke-linejoin="round"/>
<path d="M89.1416 55.6846C89.6944 55.9059 91.0762 56.7081 91.7395 56.7357C91.7395 56.7357 94.5586 62.3236 99.2017 64.1216" stroke="#263238" stroke-miterlimit="10" stroke-linecap="round" stroke-linejoin="round"/>
<path d="M86.5708 57.7598C88.312 59.1982 90.3571 60.1941 91.739 60.2494C91.739 60.2494 94.5581 65.8372 99.2012 67.6353" stroke="#263238" stroke-miterlimit="10" stroke-linecap="round" stroke-linejoin="round"/>
<path d="M96.9073 50.0977L81.6238 61.7159C80.2972 62.7118 78.4178 62.4628 77.3952 61.135L56.1696 33.1682C55.1746 31.8404 55.4233 29.9593 56.7499 28.9358L72.0335 17.3176C73.3601 16.3217 75.2395 16.5707 76.2621 17.8985L97.4877 45.8653C98.4827 47.1931 98.234 49.1018 96.9073 50.0977Z" fill="#263238"/>
<path d="M96.4652 49.4885L82.4253 60.1662C80.7394 61.4387 78.3626 61.1067 77.0913 59.447L56.8329 32.725C56.5012 32.2824 56.2801 31.7845 56.142 31.2589C55.8103 29.8481 56.3354 28.3266 57.5515 27.3861L61.5037 24.3986L71.5914 16.736C73.2773 15.4636 75.6541 15.7955 76.9254 17.4553L85.0509 28.1607L91.1035 36.1275L97.1838 44.1496C98.4551 45.837 98.1235 48.216 96.4652 49.4885Z" fill="#CCE8FF"/>
<path opacity="0.1" d="M85.0506 28.161L61.5034 24.3712L71.5911 16.7087C73.277 15.4362 75.6539 15.7682 76.9252 17.4279L85.0506 28.161Z" fill="black"/>
<path opacity="0.1" d="M96.4653 49.4884L82.4254 60.1661C80.7395 61.4386 78.3627 61.1066 77.0914 59.4469L56.833 32.7249C56.5014 32.2823 56.2803 31.7844 56.1421 31.2588L91.5735 36.7636L97.1839 44.1495C98.4552 45.8369 98.1236 48.2159 96.4653 49.4884Z" fill="black"/>
<path d="M77.948 25.1732L75.4606 27.0543C74.9632 27.4415 74.2722 27.3309 73.8853 26.833L70.8728 22.8772C70.4859 22.3793 70.5964 21.6877 71.0939 21.3005L73.5813 19.4194C74.0788 19.0321 74.7697 19.1428 75.1566 19.6407L78.1691 23.5964C78.5284 24.0944 78.4455 24.7859 77.948 25.1732Z" fill="white" stroke="#263238" stroke-miterlimit="10" stroke-linecap="round" stroke-linejoin="round"/>
<path d="M72.3931 20.332L76.6769 26.1412" stroke="#263238" stroke-miterlimit="10" stroke-linecap="round" stroke-linejoin="round"/>
<path d="M72.3931 24.8693L76.6769 21.6328" stroke="#263238" stroke-miterlimit="10" stroke-linecap="round" stroke-linejoin="round"/>
<path d="M80.6841 58.4236L79.9379 58.9492L71.0386 47.2202L71.7571 46.667L80.6841 58.4236Z" fill="#263238"/>
<path d="M81.9001 57.5105L81.1815 58.0361L72.2822 46.3072L73.0008 45.7539L81.9001 57.5105Z" fill="#263238"/>
<path d="M83.144 56.5977L82.4255 57.1233L73.4985 45.3667L74.2171 44.8135L83.144 56.5977Z" fill="#263238"/>
<path d="M84.3875 55.6856L83.6413 56.2112L74.8525 44.6206L75.5711 44.0674L84.3875 55.6856Z" fill="#263238"/>
<path d="M85.714 54.6896L84.9954 55.2428L76.1514 43.5969L76.8699 43.0713L85.714 54.6896Z" fill="#263238"/>
<path d="M85.714 41.0239L84.9954 41.5494L76.1514 29.9312L76.8699 29.3779L85.714 41.0239Z" fill="#263238"/>
<path d="M66.4774 20.6222L65.355 21.4756L90.2146 54.2307L91.337 53.3773L66.4774 20.6222Z" fill="#263238"/>
<path d="M96.4652 49.4885L82.4253 60.1662C80.7394 61.4387 78.3626 61.1067 77.0913 59.447L56.8329 32.725C56.5012 32.2824 56.2801 31.7845 56.142 31.2589C55.8103 29.8481 56.3354 28.3266 57.5515 27.3861L61.5037 24.3986L71.5914 16.736C73.2773 15.4636 75.6541 15.7955 76.9254 17.4553L85.0509 28.1607L91.1035 36.1275L97.1838 44.1496C98.4551 45.837 98.1235 48.216 96.4652 49.4885Z" stroke="#263238" stroke-miterlimit="10" stroke-linecap="round" stroke-linejoin="round"/>
<path d="M85.1061 118.673C85.1061 118.673 101.44 124.482 106.359 111.84C106.359 111.84 98.6209 102.435 102.849 94.7449C105.503 89.904 112.854 79.2262 112.854 79.2262C112.854 79.2262 115.922 76.3217 116.862 73.3895C116.862 73.3895 116.337 70.1253 114.015 67.9123C114.015 67.9123 113.987 66.2525 112.688 65.312C111.389 64.3715 109.013 62.5458 109.013 62.5458C109.013 62.5458 105.116 53.1682 104.535 51.4531C103.955 49.738 102.794 46.5568 102.214 43.016C101.633 39.4752 101.081 35.6578 99.8646 35.6855C99.8646 35.6855 98.5932 35.1322 98.5932 37.4005C98.5932 37.4005 95.9124 38.7837 96.2993 41.7159C96.6863 44.6481 97.0732 46.1419 96.9626 47.8016C96.8521 49.4614 97.3772 55.1599 98.7038 56.9579C98.7038 56.9579 99.146 64.9801 99.8093 67.0824C99.8369 67.1377 99.8369 67.1931 99.8646 67.2484C100.556 69.0188 93.5908 75.8514 89.8321 77.6771C89.8321 77.6771 89.4452 78.424 87.9804 78.2027C86.5156 78.0091 84.0559 77.8985 83.6137 76.8196C83.1991 75.7408 80.3524 67.276 80.3524 67.276C80.3524 67.276 78.0585 56.4047 73.4983 56.4047C73.4983 56.4047 72.8074 54.7449 71.0109 55.6578C69.2145 56.5706 70.4029 61.5222 71.1768 64.2055C71.9782 66.9164 73.9682 74.0257 74.2998 77.2899C74.6315 80.5541 72.7797 87.1101 73.4983 89.6827C74.2169 92.2553 74.9631 93.998 77.2018 98.2304C79.3851 102.407 84.3046 114.994 85.1061 118.673Z" fill="white"/>
<path d="M85.106 118.672C85.106 118.672 81.6236 105.505 76.4831 97.0127C71.3425 88.4927 74.355 85.4774 74.355 78.3958C74.355 71.3142 68.5787 59.2534 70.1541 56.5978C71.7018 53.9422 73.8299 56.0722 74.7143 58.5342C75.5987 61.0238 74.355 62.4346 71.8676 62.6005" stroke="#263238" stroke-miterlimit="10" stroke-linecap="round" stroke-linejoin="round"/>
<path d="M73.4707 56.3487C73.4707 56.3487 76.4556 56.1551 78.2796 60.9407C80.1037 65.6987 83.0333 77.8149 86.1011 81.494" stroke="#263238" stroke-miterlimit="10" stroke-linecap="round" stroke-linejoin="round"/>
<path d="M83.6968 77.0127C83.7244 77.0404 87.953 79.4193 94.5583 77.3446" stroke="#263238" stroke-miterlimit="10" stroke-linecap="round" stroke-linejoin="round"/>
<path d="M74.0513 70.3462C74.7146 69.5164 75.8201 69.1014 76.8427 69.2951" stroke="#263238" stroke-miterlimit="10" stroke-linecap="round" stroke-linejoin="round"/>
<path d="M74.604 71.8403C75.1568 71.1487 76.1517 70.8168 77.0085 71.0657" stroke="#263238" stroke-miterlimit="10" stroke-linecap="round" stroke-linejoin="round"/>
<path d="M98.5657 37.373C94.2265 38.8115 97.4601 45.3675 96.935 47.7742C96.4099 50.1531 97.7642 54.7451 98.8144 57.2347C98.8144 60.1393 99.8646 67.2209 99.8646 67.2209C99.229 69.4616 93.8673 76.1006 88.6714 78.1753" stroke="#263238" stroke-miterlimit="10" stroke-linecap="round" stroke-linejoin="round"/>
<path d="M101.771 40.6641C101.771 40.6641 101.44 35.6572 99.8645 35.6572C98.2891 35.6572 98.372 39.0321 99.0353 41.5493C99.6986 44.039 102.241 43.6794 101.771 40.6641Z" stroke="#263238" stroke-miterlimit="10" stroke-linecap="round" stroke-linejoin="round"/>
<path d="M101.771 40.6641C101.771 40.6641 103.126 48.5479 105.42 53.5271" stroke="#263238" stroke-miterlimit="10" stroke-linecap="round" stroke-linejoin="round"/>
<path d="M108.101 72.0059C109.206 70.2079 109.704 68.5205 110.118 66.3628C110.008 65.0073 108.46 60.5813 106.664 56.3213" stroke="#263238" stroke-miterlimit="10" stroke-linecap="round" stroke-linejoin="round"/>
<path d="M109.178 62.9326C110.975 64.2881 114.098 65.3116 113.738 67.6629C113.407 69.8483 112.55 72.1442 111.334 74.2743" stroke="#263238" stroke-miterlimit="10" stroke-linecap="round" stroke-linejoin="round"/>
<path d="M106.746 112.394C106.746 112.394 100.5 103.708 101.744 97.7049C102.656 93.3066 108.57 85.5887 112.827 79.1987C115.176 77.0133 116.337 75.3259 116.834 73.3619C116.088 69.6551 114.872 68.6039 113.711 67.6357" stroke="#263238" stroke-miterlimit="10" stroke-linecap="round" stroke-linejoin="round"/>
<path d="M108.432 64.3714C107.05 63.9841 105.502 64.1777 104.259 64.9523" stroke="#263238" stroke-miterlimit="10" stroke-linecap="round" stroke-linejoin="round"/>
<path d="M108.073 65.8369C107.244 65.6986 106.359 65.8645 105.613 66.2795" stroke="#263238" stroke-miterlimit="10" stroke-linecap="round" stroke-linejoin="round"/>
</g>
<defs>
<clipPath id="clip0">
<rect width="120" height="120" fill="white"/>
</clipPath>
</defs>
</svg>
