<svg width="24" height="24" viewBox="0 0 24 24" fill="none" xmlns="http://www.w3.org/2000/svg">
<path fill-rule="evenodd" clip-rule="evenodd" d="M5.37803 5.25H3C2.58579 5.25 2.25 5.58579 2.25 6C2.25 6.41421 2.58579 6.75 3 6.75H5.37803C5.68691 7.62389 6.52034 8.25 7.5 8.25C8.47966 8.25 9.31309 7.62389 9.62197 6.75H21C21.4142 6.75 21.75 6.41421 21.75 6C21.75 5.58579 21.4142 5.25 21 5.25H9.62197C9.31309 4.37611 8.47966 3.75 7.5 3.75C6.52034 3.75 5.68691 4.37611 5.37803 5.25ZM6.75 6C6.75 5.58579 7.08579 5.25 7.5 5.25C7.91421 5.25 8.25 5.58579 8.25 6C8.25 6.41421 7.91421 6.75 7.5 6.75C7.08579 6.75 6.75 6.41421 6.75 6Z" fill="#2B3048"/>
<path fill-rule="evenodd" clip-rule="evenodd" d="M18.75 9.75C19.7297 9.75 20.5631 10.3761 20.872 11.25L21 11.25C21.4142 11.25 21.75 11.5858 21.75 12C21.75 12.4142 21.4142 12.75 21 12.75L20.872 12.75C20.5631 13.6239 19.7297 14.25 18.75 14.25C17.7703 14.25 16.9369 13.6239 16.628 12.75L3 12.75C2.58579 12.75 2.25 12.4142 2.25 12C2.25 11.5858 2.58579 11.25 3 11.25L16.628 11.25C16.9369 10.3761 17.7703 9.75 18.75 9.75ZM18 12C18 11.5858 18.3358 11.25 18.75 11.25C19.1642 11.25 19.5 11.5858 19.5 12C19.5 12.4142 19.1642 12.75 18.75 12.75C18.3358 12.75 18 12.4142 18 12Z" fill="#2B3048"/>
<path fill-rule="evenodd" clip-rule="evenodd" d="M13.372 17.25C13.0631 16.3761 12.2297 15.75 11.25 15.75C10.2703 15.75 9.43691 16.3761 9.12803 17.25H3C2.58579 17.25 2.25 17.5858 2.25 18C2.25 18.4142 2.58579 18.75 3 18.75H9.12803C9.43691 19.6239 10.2703 20.25 11.25 20.25C12.2297 20.25 13.0631 19.6239 13.372 18.75H21C21.4142 18.75 21.75 18.4142 21.75 18C21.75 17.5858 21.4142 17.25 21 17.25H13.372ZM11.25 17.25C10.8358 17.25 10.5 17.5858 10.5 18C10.5 18.4142 10.8358 18.75 11.25 18.75C11.6642 18.75 12 18.4142 12 18C12 17.5858 11.6642 17.25 11.25 17.25Z" fill="#2B3048"/>
</svg>
