<svg width="141" height="17" viewBox="0 0 141 17" fill="none" xmlns="http://www.w3.org/2000/svg">
<path d="M1.09 16C0.943333 16 0.811333 15.9487 0.694 15.846C0.591333 15.7287 0.54 15.5967 0.54 15.45V1.15C0.54 0.988666 0.591333 0.856666 0.694 0.754C0.811333 0.651332 0.943333 0.599999 1.09 0.599999H3.994C4.15533 0.599999 4.28733 0.651332 4.39 0.754C4.49267 0.856666 4.544 0.988666 4.544 1.15V12.678H11.21C11.3713 12.678 11.5033 12.7367 11.606 12.854C11.7087 12.9567 11.76 13.0887 11.76 13.25V15.45C11.76 15.5967 11.7087 15.7287 11.606 15.846C11.5033 15.9487 11.3713 16 11.21 16H1.09ZM14.657 16C14.5103 16 14.3783 15.9487 14.261 15.846C14.1583 15.7287 14.107 15.5967 14.107 15.45V1.15C14.107 0.988666 14.1583 0.856666 14.261 0.754C14.3783 0.651332 14.5103 0.599999 14.657 0.599999H24.931C25.0923 0.599999 25.2243 0.651332 25.327 0.754C25.4296 0.856666 25.481 0.988666 25.481 1.15V3.218C25.481 3.36467 25.4296 3.49667 25.327 3.614C25.2243 3.71667 25.0923 3.768 24.931 3.768H17.913V6.738H24.447C24.6083 6.738 24.7403 6.79667 24.843 6.914C24.9456 7.01667 24.997 7.14867 24.997 7.31V9.224C24.997 9.37067 24.9456 9.50267 24.843 9.62C24.7403 9.72267 24.6083 9.774 24.447 9.774H17.913V12.832H25.107C25.2683 12.832 25.4003 12.8833 25.503 12.986C25.6056 13.0887 25.657 13.2207 25.657 13.382V15.45C25.657 15.5967 25.6056 15.7287 25.503 15.846C25.4003 15.9487 25.2683 16 25.107 16H14.657ZM27.7177 16C27.6004 16 27.4904 15.956 27.3877 15.868C27.2997 15.7653 27.2557 15.6553 27.2557 15.538C27.2557 15.45 27.2631 15.384 27.2777 15.34L32.4477 1.216C32.4917 1.04 32.5871 0.893333 32.7337 0.775999C32.8804 0.658666 33.0711 0.599999 33.3057 0.599999H36.5617C36.7964 0.599999 36.9871 0.658666 37.1337 0.775999C37.2804 0.893333 37.3757 1.04 37.4197 1.216L42.5677 15.34L42.6117 15.538C42.6117 15.6553 42.5604 15.7653 42.4577 15.868C42.3697 15.956 42.2597 16 42.1277 16H39.4217C39.0697 16 38.8351 15.846 38.7177 15.538L37.8597 13.294H31.9857L31.1497 15.538C31.0324 15.846 30.7904 16 30.4237 16H27.7177ZM36.9797 10.126L34.9337 4.318L32.8877 10.126H36.9797ZM45.3358 16C45.1891 16 45.0571 15.9487 44.9398 15.846C44.8371 15.7287 44.7858 15.5967 44.7858 15.45V1.15C44.7858 0.988666 44.8371 0.856666 44.9398 0.754C45.0571 0.651332 45.1891 0.599999 45.3358 0.599999H51.0558C53.2118 0.599999 54.8838 1.11333 56.0718 2.14C57.2598 3.16667 57.8831 4.65533 57.9418 6.606C57.9564 7.03133 57.9638 7.596 57.9638 8.3C57.9638 9.004 57.9564 9.56133 57.9418 9.972C57.8684 12.0107 57.2598 13.5287 56.1158 14.526C54.9864 15.5087 53.3364 16 51.1658 16H45.3358ZM51.0558 12.832C52.0238 12.832 52.7351 12.6047 53.1898 12.15C53.6444 11.6807 53.8864 10.94 53.9158 9.928C53.9451 9.50267 53.9598 8.95267 53.9598 8.278C53.9598 7.60333 53.9451 7.06067 53.9158 6.65C53.8864 5.66733 53.6224 4.94133 53.1238 4.472C52.6398 4.00267 51.9138 3.768 50.9458 3.768H48.7458V12.832H51.0558ZM61.0214 16C60.8748 16 60.7428 15.9487 60.6254 15.846C60.5228 15.7287 60.4714 15.5967 60.4714 15.45V12.656C60.4714 12.4947 60.5228 12.3627 60.6254 12.26C60.7428 12.1573 60.8748 12.106 61.0214 12.106H63.8154C63.9768 12.106 64.1088 12.1573 64.2114 12.26C64.3141 12.3627 64.3654 12.4947 64.3654 12.656V15.45C64.3654 15.5967 64.3141 15.7287 64.2114 15.846C64.1088 15.9487 63.9768 16 63.8154 16H61.0214ZM68.0654 16C67.9187 16 67.7867 15.9487 67.6694 15.846C67.5667 15.7287 67.5154 15.5967 67.5154 15.45V1.15C67.5154 0.988666 67.5667 0.856666 67.6694 0.754C67.7867 0.651332 67.9187 0.599999 68.0654 0.599999H78.1854C78.3467 0.599999 78.4787 0.651332 78.5814 0.754C78.6841 0.856666 78.7354 0.988666 78.7354 1.15V3.372C78.7354 3.51867 78.6841 3.65067 78.5814 3.768C78.4787 3.87067 78.3467 3.922 78.1854 3.922H71.3874V7.156H77.7454C77.9067 7.156 78.0387 7.21467 78.1414 7.332C78.2441 7.43467 78.2954 7.56667 78.2954 7.728V9.928C78.2954 10.0747 78.2441 10.2067 78.1414 10.324C78.0387 10.4267 77.9067 10.478 77.7454 10.478H71.3874V15.45C71.3874 15.6113 71.3361 15.7433 71.2334 15.846C71.1307 15.9487 70.9987 16 70.8374 16H68.0654ZM87.7396 16.22C85.6716 16.22 84.0436 15.714 82.8556 14.702C81.6676 13.69 81.0369 12.2013 80.9636 10.236C80.9489 9.81067 80.9416 9.18 80.9416 8.344C80.9416 7.49333 80.9489 6.85533 80.9636 6.43C81.0369 4.494 81.6749 3.00533 82.8776 1.964C84.0949 0.907999 85.7156 0.379999 87.7396 0.379999C89.7636 0.379999 91.3842 0.907999 92.6016 1.964C93.8189 3.00533 94.4569 4.494 94.5156 6.43C94.5449 7.28067 94.5596 7.91867 94.5596 8.344C94.5596 8.75467 94.5449 9.38533 94.5156 10.236C94.4422 12.2013 93.8116 13.69 92.6236 14.702C91.4356 15.714 89.8076 16.22 87.7396 16.22ZM87.7396 13.052C88.5462 13.052 89.1842 12.81 89.6536 12.326C90.1376 11.842 90.3942 11.1013 90.4236 10.104C90.4529 9.25333 90.4676 8.652 90.4676 8.3C90.4676 7.91867 90.4529 7.31733 90.4236 6.496C90.3942 5.49867 90.1376 4.758 89.6536 4.274C89.1696 3.79 88.5316 3.548 87.7396 3.548C86.9476 3.548 86.3096 3.79 85.8256 4.274C85.3562 4.758 85.0996 5.49867 85.0556 6.496C85.0409 6.90667 85.0336 7.508 85.0336 8.3C85.0336 9.07733 85.0409 9.67867 85.0556 10.104C85.0996 11.1013 85.3562 11.842 85.8256 12.326C86.2949 12.81 86.9329 13.052 87.7396 13.052ZM98.0997 16C97.953 16 97.821 15.9487 97.7037 15.846C97.601 15.7287 97.5497 15.5967 97.5497 15.45V1.15C97.5497 0.988666 97.601 0.856666 97.7037 0.754C97.821 0.651332 97.953 0.599999 98.0997 0.599999H104.084C106.005 0.599999 107.501 1.04 108.572 1.92C109.657 2.78533 110.2 4.01733 110.2 5.616C110.2 6.64267 109.958 7.51533 109.474 8.234C108.99 8.95267 108.322 9.50267 107.472 9.884L110.486 15.296C110.53 15.384 110.552 15.4647 110.552 15.538C110.552 15.6553 110.5 15.7653 110.398 15.868C110.31 15.956 110.207 16 110.09 16H107.164C106.738 16 106.438 15.802 106.262 15.406L103.754 10.566H101.51V15.45C101.51 15.6113 101.451 15.7433 101.334 15.846C101.231 15.9487 101.099 16 100.938 16H98.0997ZM104.04 7.442C104.714 7.442 105.228 7.28067 105.58 6.958C105.932 6.62067 106.108 6.15867 106.108 5.572C106.108 4.98533 105.932 4.52333 105.58 4.186C105.242 3.834 104.729 3.658 104.04 3.658H101.51V7.442H104.04ZM119.45 16.22C117.353 16.22 115.71 15.714 114.522 14.702C113.349 13.6753 112.726 12.194 112.652 10.258C112.638 9.862 112.63 9.21667 112.63 8.322C112.63 7.41267 112.638 6.75267 112.652 6.342C112.726 4.43533 113.364 2.96867 114.566 1.942C115.769 0.900666 117.397 0.379999 119.45 0.379999C120.741 0.379999 121.9 0.599999 122.926 1.04C123.953 1.46533 124.76 2.08133 125.346 2.888C125.948 3.68 126.256 4.61133 126.27 5.682V5.726C126.27 5.84333 126.219 5.946 126.116 6.034C126.028 6.10733 125.926 6.144 125.808 6.144H122.838C122.648 6.144 122.501 6.10733 122.398 6.034C122.296 5.946 122.208 5.792 122.134 5.572C121.929 4.824 121.606 4.30333 121.166 4.01C120.726 3.702 120.147 3.548 119.428 3.548C117.698 3.548 116.803 4.516 116.744 6.452C116.73 6.848 116.722 7.45667 116.722 8.278C116.722 9.09933 116.73 9.72267 116.744 10.148C116.803 12.084 117.698 13.052 119.428 13.052C120.147 13.052 120.734 12.898 121.188 12.59C121.643 12.2673 121.958 11.7467 122.134 11.028C122.193 10.808 122.274 10.6613 122.376 10.588C122.479 10.5 122.633 10.456 122.838 10.456H125.808C125.94 10.456 126.05 10.5 126.138 10.588C126.241 10.676 126.285 10.786 126.27 10.918C126.256 11.9887 125.948 12.9273 125.346 13.734C124.76 14.526 123.953 15.142 122.926 15.582C121.9 16.0073 120.741 16.22 119.45 16.22ZM129.573 16C129.427 16 129.295 15.9487 129.177 15.846C129.075 15.7287 129.023 15.5967 129.023 15.45V1.15C129.023 0.988666 129.075 0.856666 129.177 0.754C129.295 0.651332 129.427 0.599999 129.573 0.599999H139.847C140.009 0.599999 140.141 0.651332 140.243 0.754C140.346 0.856666 140.397 0.988666 140.397 1.15V3.218C140.397 3.36467 140.346 3.49667 140.243 3.614C140.141 3.71667 140.009 3.768 139.847 3.768H132.829V6.738H139.363C139.525 6.738 139.657 6.79667 139.759 6.914C139.862 7.01667 139.913 7.14867 139.913 7.31V9.224C139.913 9.37067 139.862 9.50267 139.759 9.62C139.657 9.72267 139.525 9.774 139.363 9.774H132.829V12.832H140.023C140.185 12.832 140.317 12.8833 140.419 12.986C140.522 13.0887 140.573 13.2207 140.573 13.382V15.45C140.573 15.5967 140.522 15.7287 140.419 15.846C140.317 15.9487 140.185 16 140.023 16H129.573Z" fill="#2CCD65"/>
</svg>
