<svg width="20" height="20" viewBox="0 0 20 20" fill="none" xmlns="http://www.w3.org/2000/svg">
<path fill-rule="evenodd" clip-rule="evenodd" d="M9.79175 19C14.8773 19 19 14.8773 19 9.79175C19 4.70617 14.8773 0.583496 9.79175 0.583496C4.70617 0.583496 0.583496 4.70617 0.583496 9.79175C0.583496 14.8773 4.70617 19 9.79175 19ZM9.79175 17.5833C5.48857 17.5833 2.00015 14.0949 2.00015 9.79175C2.00015 5.48857 5.48857 2.00015 9.79175 2.00015C14.0949 2.00015 17.5833 5.48857 17.5833 9.79175C17.5833 14.0949 14.0949 17.5833 9.79175 17.5833ZM8.8474 6.95844V9.08342H6.72242C6.33122 9.08342 6.01409 9.40055 6.01409 9.79175C6.01409 10.1829 6.33122 10.5001 6.72242 10.5001H8.8474V12.6251C8.8474 13.0163 9.16453 13.3334 9.55573 13.3334C9.94693 13.3334 10.2641 13.0163 10.2641 12.6251V10.5001H12.389C12.7802 10.5001 13.0974 10.1829 13.0974 9.79175C13.0974 9.40055 12.7802 9.08342 12.389 9.08342H10.2641V6.95844C10.2641 6.56724 9.94693 6.25011 9.55573 6.25011C9.16453 6.25011 8.8474 6.56724 8.8474 6.95844Z" fill="white"/>
</svg>
