<svg width="16" height="16" viewBox="0 0 16 16" fill="none" xmlns="http://www.w3.org/2000/svg">
<path fill-rule="evenodd" clip-rule="evenodd" d="M6.15415 2H12.308C13.2426 2 14.0003 2.75767 14.0003 3.69231V9.84615C14.0003 10.7808 13.2426 11.5385 12.308 11.5385H11.5385V12.3956C11.5385 13.2817 10.8201 14 9.93407 14H4.30769C3.03319 14 2 12.9668 2 11.6923V6.06591C2 5.17983 2.71831 4.46151 3.6044 4.46151H4.46184V3.69231C4.46184 2.75767 5.21951 2 6.15415 2ZM4.46184 5.38459H3.6044C3.22811 5.38459 2.92308 5.68963 2.92308 6.06591V11.6923C2.92308 12.457 3.54299 13.0769 4.30769 13.0769H9.93407C10.3103 13.0769 10.6154 12.7719 10.6154 12.3956V11.5385H6.15415C5.21951 11.5385 4.46184 10.7808 4.46184 9.84615V5.38459ZM6.1541 2.92303C5.72926 2.92303 5.38487 3.26742 5.38487 3.69226V9.8461C5.38487 10.2709 5.72926 10.6153 6.1541 10.6153H12.3079C12.7328 10.6153 13.0772 10.2709 13.0772 9.8461V3.69226C13.0772 3.26742 12.7328 2.92303 12.3079 2.92303H6.1541ZM7.69246 5.07692H10.7694C11.0243 5.07692 11.2309 5.28356 11.2309 5.53846C11.2309 5.79336 11.0243 6 10.7694 6H7.69246C7.43756 6 7.23092 5.79336 7.23092 5.53846C7.23092 5.28356 7.43756 5.07692 7.69246 5.07692ZM10.7694 7.53844H7.69246C7.43756 7.53844 7.23092 7.74507 7.23092 7.99997C7.23092 8.25488 7.43756 8.46151 7.69246 8.46151H10.7694C11.0243 8.46151 11.2309 8.25488 11.2309 7.99997C11.2309 7.74507 11.0243 7.53844 10.7694 7.53844Z" fill="#007FEA"/>
</svg>
