<svg width="243" height="110" viewBox="0 0 243 110" fill="none" xmlns="http://www.w3.org/2000/svg">
<g filter="url(#filter0_dd)">
<path fill-rule="evenodd" clip-rule="evenodd" d="M32.8719 32.3681C32 34.0794 32 36.3196 32 40.8V53.2C32 57.6804 32 59.9206 32.8719 61.6319C33.6389 63.1372 34.8628 64.3611 36.3681 65.1281C38.0794 66 40.3196 66 44.8 66H177C179.127 66 180.982 68.2908 182.707 70.4207C184.205 72.2711 185.605 74 187 74C188.392 74 189.785 72.2769 191.277 70.4301C193 68.2975 194.856 66 197 66H198.2C202.68 66 204.921 66 206.632 65.1281C208.137 64.3611 209.361 63.1372 210.128 61.6319C211 59.9206 211 57.6804 211 53.2V40.8C211 36.3196 211 34.0794 210.128 32.3681C209.361 30.8628 208.137 29.6389 206.632 28.8719C204.921 28 202.68 28 198.2 28H44.8C40.3196 28 38.0794 28 36.3681 28.8719C34.8628 29.6389 33.6389 30.8628 32.8719 32.3681Z" fill="#23213D"/>
</g>
<defs>
<filter id="filter0_dd" x="0" y="0" width="243" height="110" filterUnits="userSpaceOnUse" color-interpolation-filters="sRGB">
<feFlood flood-opacity="0" result="BackgroundImageFix"/>
<feColorMatrix in="SourceAlpha" type="matrix" values="0 0 0 0 0 0 0 0 0 0 0 0 0 0 0 0 0 0 127 0"/>
<feOffset dy="4"/>
<feGaussianBlur stdDeviation="16"/>
<feColorMatrix type="matrix" values="0 0 0 0 0 0 0 0 0 0 0 0 0 0 0 0 0 0 0.16 0"/>
<feBlend mode="normal" in2="BackgroundImageFix" result="effect1_dropShadow"/>
<feColorMatrix in="SourceAlpha" type="matrix" values="0 0 0 0 0 0 0 0 0 0 0 0 0 0 0 0 0 0 127 0"/>
<feOffset/>
<feGaussianBlur stdDeviation="2"/>
<feColorMatrix type="matrix" values="0 0 0 0 0 0 0 0 0 0 0 0 0 0 0 0 0 0 0.04 0"/>
<feBlend mode="normal" in2="effect1_dropShadow" result="effect2_dropShadow"/>
<feBlend mode="normal" in="SourceGraphic" in2="effect2_dropShadow" result="shape"/>
</filter>
</defs>
</svg>
