<svg width="207" height="110" viewBox="0 0 207 110" fill="none" xmlns="http://www.w3.org/2000/svg">
<g filter="url(#filter0_dd)">
<path fill-rule="evenodd" clip-rule="evenodd" d="M32.8719 32.3681C32 34.0794 32 36.3196 32 40.8V53.2C32 57.6804 32 59.9206 32.8719 61.6319C33.6389 63.1372 34.8628 64.3611 36.3681 65.1281C38.0794 66 40.3196 66 44.8 66H94C96.127 66 97.9821 68.2908 99.7069 70.4207C101.205 72.2711 102.605 74 104 74C105.392 74 106.785 72.2769 108.277 70.4301C110 68.2975 111.856 66 114 66H162.2C166.68 66 168.921 66 170.632 65.1281C172.137 64.3611 173.361 63.1372 174.128 61.6319C175 59.9206 175 57.6804 175 53.2V40.8C175 36.3196 175 34.0794 174.128 32.3681C173.361 30.8628 172.137 29.6389 170.632 28.8719C168.921 28 166.68 28 162.2 28H44.8C40.3196 28 38.0794 28 36.3681 28.8719C34.8628 29.6389 33.6389 30.8628 32.8719 32.3681Z" fill="#23213D"/>
</g>
<defs>
<filter id="filter0_dd" x="0" y="0" width="207" height="110" filterUnits="userSpaceOnUse" color-interpolation-filters="sRGB">
<feFlood flood-opacity="0" result="BackgroundImageFix"/>
<feColorMatrix in="SourceAlpha" type="matrix" values="0 0 0 0 0 0 0 0 0 0 0 0 0 0 0 0 0 0 127 0"/>
<feOffset dy="4"/>
<feGaussianBlur stdDeviation="16"/>
<feColorMatrix type="matrix" values="0 0 0 0 0 0 0 0 0 0 0 0 0 0 0 0 0 0 0.16 0"/>
<feBlend mode="normal" in2="BackgroundImageFix" result="effect1_dropShadow"/>
<feColorMatrix in="SourceAlpha" type="matrix" values="0 0 0 0 0 0 0 0 0 0 0 0 0 0 0 0 0 0 127 0"/>
<feOffset/>
<feGaussianBlur stdDeviation="2"/>
<feColorMatrix type="matrix" values="0 0 0 0 0 0 0 0 0 0 0 0 0 0 0 0 0 0 0.04 0"/>
<feBlend mode="normal" in2="effect1_dropShadow" result="effect2_dropShadow"/>
<feBlend mode="normal" in="SourceGraphic" in2="effect2_dropShadow" result="shape"/>
</filter>
</defs>
</svg>
